<svg width="1200" height="630" viewBox="0 0 1200 630" xmlns="http://www.w3.org/2000/svg"><mask id="satori_om-id"><rect x="0" y="0" width="1200" height="630" fill="#fff"/></mask><mask id="satori_om-id-0"><rect x="0" y="0" width="1200" height="630" fill="#fff"/></mask><rect x="0" y="0" width="1200" height="630" fill="#f2f2f2"/><mask id="satori_om-id-0-0"><rect x="0" y="0" width="1200" height="441" fill="#fff"/></mask><mask id="satori_om-id-0-0-0"><rect x="40" y="95" width="1120" height="36" fill="#fff"/></mask><path fill="#8e8e8e" d="M49.2 124.0L49.2 124.0Q46.2 124.0 44.1 122.9Q42.1 121.7 41.4 119.8L41.4 119.8Q41.2 119.2 41.2 118.8L41.2 118.8Q41.2 118.0 41.6 117.6Q42.1 117.2 42.7 117.2L42.7 117.2Q43.8 117.2 44.3 118.3L44.3 118.3Q44.8 119.8 46.1 120.5Q47.4 121.2 49.3 121.2L49.3 121.2Q51.3 121.2 52.6 120.3Q53.9 119.4 53.9 118.0L53.9 118.0Q53.9 116.7 53.0 115.9Q52.1 115.1 50.0 114.7L50.0 114.7L47.6 114.2Q44.5 113.5 43.0 112.1Q41.5 110.6 41.5 108.3L41.5 108.3Q41.5 105.6 43.7 103.9Q45.8 102.2 49.2 102.2L49.2 102.2Q51.9 102.2 53.9 103.4Q55.9 104.6 56.5 106.7L56.5 106.7Q56.6 107.0 56.6 107.5L56.6 107.5Q56.6 108.1 56.2 108.5Q55.8 108.9 55.2 108.9L55.2 108.9Q54.1 108.9 53.6 107.8L53.6 107.8Q52.6 105.0 49.1 105.0L49.1 105.0Q47.3 105.0 46.0 105.8Q44.8 106.7 44.8 108.1L44.8 108.1Q44.8 109.3 45.7 110.1Q46.7 110.8 48.7 111.3L48.7 111.3L51.0 111.7Q54.3 112.4 55.8 113.8Q57.2 115.2 57.2 117.5L57.2 117.5Q57.2 120.5 55.0 122.3Q52.9 124.0 49.2 124.0ZM64.3 123.9L64.3 123.9Q62.0 123.9 60.6 122.6Q59.2 121.3 59.2 119.3L59.2 119.3Q59.2 117.3 60.7 116.1Q62.1 114.9 64.9 114.7L64.9 114.7L69.1 114.5L69.1 113.3Q69.1 112.0 68.3 111.3Q67.5 110.6 66.0 110.6L66.0 110.6Q64.9 110.6 64.1 111.0Q63.3 111.5 62.6 112.5L62.6 112.5Q62.1 113.2 61.3 113.2L61.3 113.2Q60.7 113.2 60.3 112.8Q60.0 112.4 60.0 111.9L60.0 111.9Q60.0 111.3 60.2 110.8L60.2 110.8Q60.8 109.5 62.5 108.8Q64.1 108.0 66.1 108.0L66.1 108.0Q68.9 108.0 70.6 109.4Q72.3 110.7 72.3 113.0L72.3 113.0L72.3 122.3Q72.3 123.1 71.8 123.5Q71.4 123.9 70.7 123.9L70.7 123.9Q70.1 123.9 69.7 123.5Q69.3 123.1 69.2 122.4L69.2 122.4L69.2 121.1L69.2 121.1Q68.5 122.4 67.2 123.2Q65.8 123.9 64.3 123.9ZM65.2 121.4L65.2 121.4Q66.8 121.4 68.0 120.4Q69.1 119.4 69.1 117.9L69.1 117.9L69.1 116.7L65.3 116.9Q63.9 117.0 63.1 117.6Q62.4 118.2 62.4 119.2L62.4 119.2Q62.4 120.2 63.1 120.8Q63.9 121.4 65.2 121.4ZM76.3 120.0L76.3 120.0L76.3 110.8L75.1 110.8Q74.5 110.8 74.2 110.4Q73.8 110.1 73.8 109.5Q73.8 108.9 74.2 108.6Q74.5 108.3 75.1 108.3L75.1 108.3L76.3 108.3L76.3 106.0Q76.3 105.2 76.7 104.7Q77.1 104.3 77.9 104.3Q78.6 104.3 79.0 104.7Q79.4 105.2 79.4 106.0L79.4 106.0L79.4 108.3L81.2 108.3Q81.9 108.3 82.2 108.6Q82.6 108.9 82.6 109.5Q82.6 110.1 82.2 110.4Q81.9 110.8 81.2 110.8L81.2 110.8L79.4 110.8L79.4 119.3Q79.4 120.2 79.8 120.6Q80.2 121.1 81.0 121.1L81.0 121.1L81.3 121.2Q82.6 121.3 82.6 122.4L82.6 122.4Q82.6 123.8 80.3 123.8L80.3 123.8L80.2 123.8Q76.3 123.8 76.3 120.0ZM90.3 123.9L90.3 123.9Q87.8 123.9 86.3 122.4Q84.9 120.9 84.9 118.2L84.9 118.2L84.9 109.7Q84.9 108.9 85.3 108.4Q85.7 108.0 86.5 108.0L86.5 108.0Q87.2 108.0 87.6 108.4Q88.0 108.9 88.0 109.7L88.0 109.7L88.0 117.6Q88.0 119.4 88.9 120.3Q89.7 121.2 91.3 121.2L91.3 121.2Q93.0 121.2 94.0 120.1Q95.0 119.0 95.0 117.2L95.0 117.2L95.0 109.7Q95.0 108.9 95.4 108.4Q95.9 108.0 96.6 108.0L96.6 108.0Q97.3 108.0 97.7 108.4Q98.2 108.9 98.2 109.7L98.2 109.7L98.2 122.3Q98.2 123.1 97.8 123.5Q97.3 123.9 96.7 123.9Q96.0 123.9 95.6 123.5Q95.1 123.1 95.1 122.3L95.1 122.3L95.1 121.1L95.1 121.1Q93.7 123.9 90.3 123.9ZM102.9 123.9L102.9 123.9Q102.2 123.9 101.7 123.5Q101.3 123.0 101.3 122.3L101.3 122.3L101.3 109.6Q101.3 108.9 101.7 108.4Q102.1 108.0 102.8 108.0L102.8 108.0Q103.5 108.0 103.9 108.4Q104.3 108.9 104.3 109.6L104.3 109.6L104.3 110.9L104.4 110.9Q104.7 109.6 105.6 108.8Q106.6 108.0 107.7 108.0L107.7 108.0Q108.6 108.0 109.0 108.4L109.0 108.4Q109.4 108.7 109.4 109.5L109.4 109.5Q109.4 110.2 109.0 110.6L109.0 110.6Q108.5 111.0 107.5 111.0L107.5 111.0Q105.9 111.0 105.2 112.0Q104.5 112.9 104.5 114.4L104.5 114.4L104.5 122.3Q104.5 123.0 104.0 123.5Q103.6 123.9 102.9 123.9ZM116.9 123.9L116.9 123.9Q114.0 123.9 112.2 121.8Q110.4 119.6 110.4 116.0Q110.4 112.3 112.2 110.2Q114.0 108.0 116.9 108.0L116.9 108.0Q118.5 108.0 119.8 108.8Q121.1 109.5 121.7 110.8L121.7 110.8L121.8 110.8L121.8 103.9Q121.8 103.1 122.2 102.7Q122.7 102.2 123.4 102.2L123.4 102.2Q124.1 102.2 124.5 102.7Q125.0 103.2 125.0 103.9L125.0 103.9L125.0 122.4Q125.0 123.1 124.5 123.5Q124.1 123.9 123.4 123.9L123.4 123.9Q122.7 123.9 122.2 123.5Q121.8 123.1 121.8 122.4L121.8 122.4L121.8 120.9L121.7 120.9Q121.1 122.3 119.9 123.1Q118.7 123.9 116.9 123.9ZM117.8 121.2L117.8 121.2Q119.6 121.2 120.7 119.8Q121.8 118.4 121.8 116.0L121.8 116.0Q121.8 113.6 120.7 112.1Q119.6 110.7 117.8 110.7L117.8 110.7Q115.9 110.7 114.8 112.1Q113.7 113.5 113.7 116.0L113.7 116.0Q113.7 118.4 114.8 119.8Q115.9 121.2 117.8 121.2ZM132.7 123.9L132.7 123.9Q130.4 123.9 129.0 122.6Q127.6 121.3 127.6 119.3L127.6 119.3Q127.6 117.3 129.1 116.1Q130.6 114.9 133.3 114.7L133.3 114.7L137.5 114.5L137.5 113.3Q137.5 112.0 136.7 111.3Q135.9 110.6 134.4 110.6L134.4 110.6Q133.3 110.6 132.5 111.0Q131.7 111.5 131.0 112.5L131.0 112.5Q130.6 113.2 129.7 113.2L129.7 113.2Q129.1 113.2 128.8 112.8Q128.4 112.4 128.4 111.9L128.4 111.9Q128.4 111.3 128.7 110.8L128.7 110.8Q129.3 109.5 130.9 108.8Q132.5 108.0 134.6 108.0L134.6 108.0Q137.4 108.0 139.0 109.4Q140.7 110.7 140.7 113.0L140.7 113.0L140.7 122.3Q140.7 123.1 140.3 123.5Q139.8 123.9 139.2 123.9L139.2 123.9Q138.5 123.9 138.1 123.5Q137.7 123.1 137.6 122.4L137.6 122.4L137.6 121.1L137.6 121.1Q136.9 122.4 135.6 123.2Q134.2 123.9 132.7 123.9ZM133.6 121.4L133.6 121.4Q135.2 121.4 136.4 120.4Q137.5 119.4 137.5 117.9L137.5 117.9L137.5 116.7L133.7 116.9Q132.3 117.0 131.5 117.6Q130.8 118.2 130.8 119.2L130.8 119.2Q130.8 120.2 131.5 120.8Q132.3 121.4 133.6 121.4ZM145.6 129.4L145.6 129.4Q144.5 129.4 144.0 129.0Q143.4 128.6 143.4 127.9L143.4 127.9Q143.4 127.4 143.7 127.1Q144.0 126.8 144.6 126.8L144.6 126.8Q144.8 126.8 145 126.8Q145.2 126.8 145.4 126.8L145.4 126.8Q147.0 126.8 147.8 124.7L147.8 124.7L148.1 123.8L142.9 110.3Q142.7 109.9 142.7 109.4L142.7 109.4Q142.7 108.8 143.2 108.4Q143.6 108.0 144.3 108.0L144.3 108.0Q144.9 108.0 145.3 108.3Q145.7 108.5 145.9 109.2L145.9 109.2L149.8 120.8L149.8 120.8L153.8 109.2Q154.0 108.5 154.3 108.3Q154.7 108.0 155.3 108.0L155.3 108.0Q156.0 108.0 156.4 108.4Q156.8 108.8 156.8 109.4L156.8 109.4Q156.8 109.8 156.7 110.3L156.7 110.3L151.3 124.4Q150.3 127.2 149.0 128.3Q147.8 129.4 145.6 129.4Z M178.3 123.7L166.6 123.7Q165.8 123.7 165.4 123.3Q165.0 122.9 165.0 122.3L165.0 122.3Q165.0 121.8 165.2 121.5Q165.4 121.1 165.9 120.6L165.9 120.6L172.5 113.9Q174.6 111.8 175.3 110.7Q176.0 109.6 176.0 108.3L176.0 108.3Q176.0 106.8 174.9 105.8Q173.9 104.8 172.3 104.8L172.3 104.8Q169.2 104.8 168.0 108.0L168.0 108.0Q167.8 108.5 167.5 108.8Q167.1 109.0 166.6 109.0L166.6 109.0Q165.9 109.0 165.5 108.6Q165.1 108.3 165.1 107.6L165.1 107.6Q165.1 107.3 165.2 107.0L165.2 107.0Q165.4 106.1 165.9 105.3Q166.5 104.4 167.3 103.7Q168.2 103.0 169.5 102.6Q170.8 102.1 172.3 102.1L172.3 102.1Q175.3 102.1 177.3 103.8Q179.2 105.5 179.2 108.1L179.2 108.1Q179.2 109.9 178.2 111.5Q177.2 113.0 174.5 115.8L174.5 115.8L169.5 120.8L169.5 120.9L178.3 120.9Q178.9 120.9 179.3 121.3Q179.7 121.7 179.7 122.3L179.7 122.3Q179.7 122.9 179.3 123.3Q178.9 123.7 178.3 123.7L178.3 123.7ZM190.1 124.1L190.1 124.1Q186.6 124.1 184.3 122.3Q182.1 120.6 182.1 118.0L182.1 118.0Q182.1 115.9 183.4 114.5Q184.7 113.0 186.8 112.5L186.8 112.5L186.8 112.5Q185.0 111.9 183.9 110.7Q182.9 109.4 182.9 107.7L182.9 107.7Q182.9 105.3 184.9 103.7Q187.0 102.1 190.1 102.1L190.1 102.1Q193.2 102.1 195.3 103.7Q197.3 105.3 197.3 107.8L197.3 107.8Q197.3 109.4 196.2 110.7Q195.2 111.9 193.4 112.5L193.4 112.5L193.4 112.5Q195.5 113 196.8 114.5Q198.1 116.0 198.1 118.0L198.1 118.0Q198.1 119.7 197.1 121.1Q196.0 122.5 194.2 123.3Q192.4 124.1 190.1 124.1ZM190.1 111.4L190.1 111.4Q191.8 111.4 192.9 110.4Q194.1 109.5 194.1 108.0L194.1 108.0Q194.1 106.6 192.9 105.7Q191.8 104.7 190.1 104.7L190.1 104.7Q188.3 104.7 187.2 105.7Q186.1 106.6 186.1 108.0L186.1 108.0Q186.1 109.5 187.2 110.4Q188.3 111.4 190.1 111.4ZM186.8 120.4Q188.1 121.4 190.1 121.4Q192.1 121.4 193.4 120.4Q194.7 119.3 194.7 117.7L194.7 117.7Q194.7 116.1 193.4 115.0Q192.1 114.0 190.1 114.0Q188.1 114.0 186.8 115.0Q185.5 116.1 185.5 117.7L185.5 117.7Q185.5 119.3 186.8 120.4Z M214.8 123.7L209.0 123.7Q208.3 123.7 207.8 123.2Q207.4 122.8 207.4 122.0L207.4 122.0L207.4 104.2Q207.4 103.4 207.8 103.0Q208.3 102.5 209.0 102.5L209.0 102.5L214.8 102.5Q219.6 102.5 222.2 105.3Q224.8 108.1 224.8 113.1L224.8 113.1Q224.8 118.1 222.2 120.9Q219.6 123.7 214.8 123.7L214.8 123.7ZM210.7 105.4L210.7 120.8L214.5 120.8Q217.9 120.8 219.7 118.8Q221.5 116.8 221.5 113.1L221.5 113.1Q221.5 109.4 219.7 107.4Q217.9 105.4 214.5 105.4L214.5 105.4L210.7 105.4ZM234.3 124.0L234.3 124.0Q230.8 124.0 228.8 121.9Q226.9 119.8 226.9 116.0L226.9 116.0Q226.9 112.4 228.8 110.2Q230.8 108.0 234.0 108.0L234.0 108.0Q237.1 108.0 239.1 110.0Q241.0 112.0 241.0 115.1L241.0 115.1Q241.0 115.9 240.6 116.3Q240.1 116.8 239.4 116.8L239.4 116.8L230.1 116.8L230.1 116.8Q230.1 118.9 231.2 120.2Q232.3 121.4 234.2 121.4L234.2 121.4Q235.5 121.4 236.4 120.9Q237.3 120.4 238.2 119.2L238.2 119.2Q238.6 118.6 239.3 118.6L239.3 118.6Q239.9 118.6 240.2 119.0Q240.6 119.3 240.6 119.9L240.6 119.9Q240.6 120.3 240.4 120.8L240.4 120.8Q239.6 122.3 238.0 123.1Q236.4 124.0 234.3 124.0ZM230.1 114.5L230.1 114.5L237.8 114.5Q237.8 112.7 236.7 111.6Q235.7 110.5 234.0 110.5L234.0 110.5Q232.4 110.5 231.3 111.6Q230.2 112.7 230.1 114.5ZM250.0 124.0L250.0 124.0Q246.7 124.0 244.7 121.8Q242.7 119.7 242.7 116.0L242.7 116.0Q242.7 112.3 244.7 110.2Q246.7 108.0 250.0 108.0L250.0 108.0Q252.2 108.0 253.9 109.0Q255.7 110.1 256.2 111.7L256.2 111.7Q256.3 112.1 256.3 112.4L256.3 112.4Q256.3 113.0 255.9 113.4Q255.6 113.7 255.0 113.7L255.0 113.7Q254.5 113.7 254.2 113.5Q253.8 113.3 253.5 112.8L253.5 112.8Q252.9 111.7 252.1 111.1Q251.3 110.6 250.0 110.6L250.0 110.6Q248.2 110.6 247.1 112.1Q246.0 113.5 246.0 116.0L246.0 116.0Q246.0 118.4 247.1 119.9Q248.2 121.3 250.0 121.3L250.0 121.3Q252.4 121.3 253.5 119.2L253.5 119.2Q253.9 118.6 254.2 118.4Q254.5 118.2 255.0 118.2L255.0 118.2Q255.6 118.2 256.0 118.6Q256.4 118.9 256.4 119.5L256.4 119.5Q256.4 119.9 256.2 120.3L256.2 120.3Q255.6 121.9 253.9 122.9Q252.2 124.0 250.0 124.0ZM265.6 124.0L265.6 124.0Q262.1 124.0 260.2 121.9Q258.2 119.8 258.2 116.0L258.2 116.0Q258.2 112.4 260.2 110.2Q262.1 108.0 265.4 108.0L265.4 108.0Q268.5 108.0 270.4 110.0Q272.3 112.0 272.3 115.1L272.3 115.1Q272.3 115.9 271.9 116.3Q271.5 116.8 270.7 116.8L270.7 116.8L261.4 116.8L261.4 116.8Q261.4 118.9 262.5 120.2Q263.6 121.4 265.5 121.4L265.5 121.4Q266.8 121.4 267.7 120.9Q268.6 120.4 269.5 119.2L269.5 119.2Q270.0 118.6 270.6 118.6L270.6 118.6Q271.2 118.6 271.6 119.0Q271.9 119.3 271.9 119.9L271.9 119.9Q271.9 120.3 271.7 120.8L271.7 120.8Q271.0 122.3 269.4 123.1Q267.8 124.0 265.6 124.0ZM261.4 114.5L261.4 114.5L269.1 114.5Q269.1 112.7 268.1 111.6Q267.0 110.5 265.4 110.5L265.4 110.5Q263.7 110.5 262.6 111.6Q261.6 112.7 261.4 114.5ZM277.5 123.5Q277.1 123.9 276.3 123.9Q275.6 123.9 275.2 123.5Q274.8 123.0 274.8 122.3L274.8 122.3L274.8 109.6Q274.8 108.9 275.2 108.4Q275.6 108.0 276.3 108.0Q276.9 108.0 277.4 108.4Q277.8 108.8 277.8 109.6L277.8 109.6L277.8 110.8L277.8 110.8Q278.4 109.5 279.5 108.8Q280.7 108.0 282.2 108.0L282.2 108.0Q283.8 108.0 284.9 108.8Q286.1 109.6 286.5 111.0L286.5 111.0L286.6 111.0Q287.2 109.6 288.5 108.8Q289.8 108.0 291.4 108.0L291.4 108.0Q293.7 108.0 295.1 109.4Q296.5 110.8 296.5 113.1L296.5 113.1L296.5 122.3Q296.5 123.0 296.0 123.5Q295.6 123.9 294.9 123.9Q294.1 123.9 293.7 123.5Q293.3 123.0 293.3 122.3L293.3 122.3L293.3 113.8Q293.3 112.3 292.5 111.5Q291.7 110.7 290.3 110.7Q288.9 110.7 288.0 111.6Q287.1 112.6 287.1 114.0L287.1 114.0L287.1 122.3Q287.1 123.0 286.7 123.5Q286.3 123.9 285.6 123.9Q284.9 123.9 284.5 123.5Q284.0 123.0 284.0 122.3L284.0 122.3L284.0 113.6Q284.0 112.3 283.3 111.5Q282.5 110.7 281.1 110.7L281.1 110.7Q279.7 110.7 278.8 111.7Q277.9 112.6 277.9 114.1L277.9 114.1L277.9 122.3Q277.9 123.0 277.5 123.5ZM301.1 123.9L301.1 123.9Q300.4 123.9 300.0 123.5Q299.6 123.1 299.6 122.4L299.6 122.4L299.6 103.9Q299.6 103.2 300.1 102.7Q300.5 102.2 301.2 102.2Q301.9 102.2 302.3 102.7Q302.8 103.2 302.8 103.9L302.8 103.9L302.8 110.9L302.9 110.9Q303.6 109.5 304.8 108.8Q306.1 108.0 307.7 108.0L307.7 108.0Q310.6 108.0 312.4 110.2Q314.1 112.3 314.1 116.0L314.1 116.0Q314.1 119.6 312.4 121.8Q310.6 123.9 307.7 123.9L307.7 123.9Q306.0 123.9 304.8 123.2Q303.5 122.4 302.7 121.0L302.7 121.0L302.7 121.0L302.7 122.4Q302.7 123.1 302.3 123.5Q301.8 123.9 301.1 123.9ZM306.9 121.2L306.9 121.2Q308.7 121.2 309.8 119.8Q310.9 118.4 310.9 116.0L310.9 116.0Q310.9 113.5 309.8 112.1Q308.7 110.7 306.9 110.7L306.9 110.7Q305.0 110.7 303.9 112.1Q302.8 113.6 302.8 116.0L302.8 116.0Q302.8 118.3 303.9 119.8Q305.0 121.2 306.9 121.2ZM323.3 124.0L323.3 124.0Q319.8 124.0 317.8 121.9Q315.9 119.8 315.9 116.0L315.9 116.0Q315.9 112.4 317.8 110.2Q319.8 108.0 323.1 108.0L323.1 108.0Q326.1 108.0 328.1 110.0Q330.0 112.0 330.0 115.1L330.0 115.1Q330.0 115.9 329.6 116.3Q329.1 116.8 328.4 116.8L328.4 116.8L319.1 116.8L319.1 116.8Q319.1 118.9 320.2 120.2Q321.3 121.4 323.2 121.4L323.2 121.4Q324.5 121.4 325.4 120.9Q326.3 120.4 327.2 119.2L327.2 119.2Q327.7 118.6 328.3 118.6L328.3 118.6Q328.9 118.6 329.2 119.0Q329.6 119.3 329.6 119.9L329.6 119.9Q329.6 120.3 329.4 120.8L329.4 120.8Q328.6 122.3 327.0 123.1Q325.4 124.0 323.3 124.0ZM319.1 114.5L319.1 114.5L326.8 114.5Q326.8 112.7 325.7 111.6Q324.7 110.5 323.0 110.5L323.0 110.5Q321.4 110.5 320.3 111.6Q319.2 112.7 319.1 114.5ZM334.0 123.9L334.0 123.9Q333.3 123.9 332.9 123.5Q332.4 123.0 332.4 122.3L332.4 122.3L332.4 109.6Q332.4 108.9 332.8 108.4Q333.3 108.0 333.9 108.0L333.9 108.0Q334.6 108.0 335.0 108.4Q335.4 108.9 335.4 109.6L335.4 109.6L335.4 110.9L335.5 110.9Q335.8 109.6 336.8 108.8Q337.7 108.0 338.9 108.0L338.9 108.0Q339.7 108.0 340.1 108.4L340.1 108.4Q340.6 108.7 340.6 109.5L340.6 109.5Q340.6 110.2 340.1 110.6L340.1 110.6Q339.6 111.0 338.6 111.0L338.6 111.0Q337.1 111.0 336.3 112.0Q335.6 112.9 335.6 114.4L335.6 114.4L335.6 122.3Q335.6 123.0 335.2 123.5Q334.7 123.9 334.0 123.9Z M361.6 123.7L349.9 123.7Q349.2 123.7 348.8 123.3Q348.4 122.9 348.4 122.3L348.4 122.3Q348.4 121.8 348.5 121.5Q348.7 121.1 349.3 120.6L349.3 120.6L355.9 113.9Q357.9 111.8 358.6 110.7Q359.3 109.6 359.3 108.3L359.3 108.3Q359.3 106.8 358.3 105.8Q357.2 104.8 355.6 104.8L355.6 104.8Q352.5 104.8 351.4 108.0L351.4 108.0Q351.1 108.5 350.8 108.8Q350.5 109.0 349.9 109.0L349.9 109.0Q349.2 109.0 348.8 108.6Q348.5 108.3 348.5 107.6L348.5 107.6Q348.5 107.3 348.5 107.0L348.5 107.0Q348.7 106.1 349.3 105.3Q349.8 104.4 350.7 103.7Q351.5 103.0 352.8 102.6Q354.1 102.1 355.6 102.1L355.6 102.1Q358.7 102.1 360.6 103.8Q362.5 105.5 362.5 108.1L362.5 108.1Q362.5 109.9 361.6 111.5Q360.6 113.0 357.9 115.8L357.9 115.8L352.8 120.8L352.8 120.9L361.6 120.9Q362.3 120.9 362.6 121.3Q363.0 121.7 363.0 122.3L363.0 122.3Q363.0 122.9 362.6 123.3Q362.3 123.7 361.6 123.7L361.6 123.7ZM379.5 121.1Q377.3 124.1 373.5 124.1Q369.7 124.1 367.6 121.1Q365.4 118.2 365.4 113.1L365.4 113.1Q365.4 108.0 367.6 105.1Q369.8 102.1 373.5 102.1L373.5 102.1Q377.3 102.1 379.4 105.1Q381.6 108.0 381.6 113.1L381.6 113.1Q381.6 118.1 379.5 121.1ZM373.5 121.3L373.5 121.3Q375.8 121.3 377.0 119.1Q378.3 116.9 378.3 113.1L378.3 113.1Q378.3 109.3 377.0 107.1Q375.8 104.9 373.5 104.9Q371.3 104.9 370.0 107.1Q368.8 109.3 368.8 113.1L368.8 113.1Q368.8 116.9 370 119.1Q371.2 121.3 373.5 121.3ZM397.7 123.7L386.0 123.7Q385.3 123.7 384.9 123.3Q384.5 122.9 384.5 122.3L384.5 122.3Q384.5 121.8 384.6 121.5Q384.8 121.1 385.4 120.6L385.4 120.6L392.0 113.9Q394.0 111.8 394.7 110.7Q395.4 109.6 395.4 108.3L395.4 108.3Q395.4 106.8 394.4 105.8Q393.3 104.8 391.7 104.8L391.7 104.8Q388.6 104.8 387.5 108.0L387.5 108.0Q387.2 108.5 386.9 108.8Q386.6 109.0 386.0 109.0L386.0 109.0Q385.3 109.0 384.9 108.6Q384.5 108.3 384.5 107.6L384.5 107.6Q384.5 107.3 384.6 107.0L384.6 107.0Q384.8 106.1 385.4 105.3Q385.9 104.4 386.8 103.7Q387.6 103.0 388.9 102.6Q390.2 102.1 391.7 102.1L391.7 102.1Q394.8 102.1 396.7 103.8Q398.6 105.5 398.6 108.1L398.6 108.1Q398.6 109.9 397.7 111.5Q396.7 113.0 394.0 115.8L394.0 115.8L388.9 120.8L388.9 120.9L397.7 120.9Q398.3 120.9 398.7 121.3Q399.1 121.7 399.1 122.3L399.1 122.3Q399.1 122.9 398.7 123.3Q398.3 123.7 397.7 123.7L397.7 123.7ZM413.5 123.9L413.5 123.9Q412.8 123.9 412.4 123.5Q411.9 123.0 411.9 122.3L411.9 122.3L411.9 119.5L403.2 119.5Q402.4 119.5 401.8 119.0Q401.3 118.4 401.3 117.6L401.3 117.6Q401.3 116.6 402.1 115.3L402.1 115.3Q403.9 112.0 408.9 104.7L408.9 104.7Q409.9 103.3 410.6 102.8Q411.4 102.2 412.4 102.2L412.4 102.2Q413.7 102.2 414.4 102.9Q415.1 103.5 415.1 104.7L415.1 104.7L415.1 116.7L416.8 116.7Q417.4 116.7 417.8 117.1Q418.2 117.5 418.2 118.1Q418.2 118.7 417.8 119.1Q417.4 119.5 416.8 119.5L416.8 119.5L415.1 119.5L415.1 122.3Q415.1 123.0 414.6 123.5Q414.2 123.9 413.5 123.9ZM404.4 116.8L412.0 116.8L412.0 105.1L411.9 105.1Q406.5 112.9 404.4 116.7L404.4 116.7L404.4 116.8Z "/><mask id="satori_om-id-0-0-1"><rect x="40" y="176" width="1120" height="165" fill="#fff"/></mask><path fill="#224d67" d="M68.1 238.6L47.5 238.6Q45.7 238.6 44.7 237.5Q43.7 236.5 43.7 234.7L43.7 234.7L43.7 200.2Q43.7 198.4 44.7 197.3Q45.7 196.3 47.5 196.3L47.5 196.3L68.1 196.3Q69.7 196.3 70.6 197.2Q71.6 198.0 71.6 199.5Q71.6 201.0 70.6 201.8Q69.7 202.7 68.1 202.7L68.1 202.7L51.3 202.7L51.3 214.1L67.2 214.1Q68.7 214.1 69.6 214.9Q70.5 215.7 70.5 217.1Q70.5 218.5 69.6 219.3Q68.7 220.1 67.2 220.1L67.2 220.1L51.3 220.1L51.3 232.2L68.1 232.2Q69.7 232.2 70.6 233.1Q71.6 233.9 71.6 235.4Q71.6 236.8 70.6 237.7Q69.7 238.6 68.1 238.6L68.1 238.6ZM79.3 239.2L79.3 239.2Q77.8 239.2 76.9 238.3Q75.9 237.5 75.9 236.1L75.9 236.1Q75.9 235.0 76.8 233.7L76.8 233.7L84.7 223.1L76.9 212.4Q76.2 211.3 76.2 210.1L76.2 210.1Q76.2 208.7 77.2 207.8Q78.2 206.9 79.7 206.9L79.7 206.9Q80.7 206.9 81.4 207.3Q82.1 207.8 82.8 208.9L82.8 208.9L89.2 218.4L89.4 218.4L95.7 208.9Q96.4 207.8 97.1 207.4Q97.8 206.9 98.7 206.9L98.7 206.9Q100.3 206.9 101.2 207.8Q102.2 208.6 102.2 210.0L102.2 210.0Q102.2 211.2 101.3 212.4L101.3 212.4L93.6 222.9L101.3 233.7Q102.1 234.9 102.1 235.9L102.1 235.9Q102.1 237.4 101.1 238.3Q100.1 239.2 98.7 239.2L98.7 239.2Q96.9 239.2 95.8 237.4L95.8 237.4L89.0 227.4L88.9 227.4L82.2 237.3Q81.5 238.3 80.9 238.8Q80.2 239.2 79.3 239.2ZM116.4 239.1L116.4 239.1Q111.9 239.1 109.0 236.5Q106.0 233.9 106.0 229.7L106.0 229.7Q106.0 225.6 109.1 223.2Q112.2 220.8 117.8 220.4L117.8 220.4L126.1 219.9L126.1 217.7Q126.1 215.3 124.5 213.9Q123.0 212.6 120.3 212.6L120.3 212.6Q118.1 212.6 116.6 213.4Q115.1 214.2 113.8 216.2L113.8 216.2Q112.7 217.7 110.8 217.7L110.8 217.7Q109.5 217.7 108.6 216.9Q107.7 216.1 107.7 214.8L107.7 214.8Q107.7 213.8 108.2 212.8L108.2 212.8Q109.4 210.1 112.8 208.5Q116.1 206.9 120.6 206.9L120.6 206.9Q126.3 206.9 129.8 209.7Q133.3 212.5 133.3 217.2L133.3 217.2L133.3 235.5Q133.3 237.2 132.3 238.2Q131.3 239.2 129.7 239.2L129.7 239.2Q128.2 239.2 127.3 238.3Q126.3 237.4 126.3 235.8L126.3 235.8L126.3 233.6L126.1 233.6Q124.8 236.1 122.1 237.6Q119.5 239.1 116.4 239.1ZM118.6 233.6L118.6 233.6Q121.7 233.6 123.9 231.7Q126.1 229.8 126.1 227.1L126.1 227.1L126.1 224.7L118.9 225.1Q116.2 225.3 114.8 226.4Q113.3 227.6 113.3 229.4L113.3 229.4Q113.3 231.3 114.8 232.4Q116.2 233.6 118.6 233.6ZM142.8 239.2L142.8 239.2Q141.1 239.2 140.1 238.2Q139.1 237.1 139.1 235.3L139.1 235.3L139.1 210.6Q139.1 208.9 140.1 207.9Q141.0 206.9 142.6 206.9Q144.2 206.9 145.2 207.9Q146.1 208.9 146.1 210.6L146.1 210.6L146.1 212.9L146.3 212.9Q147.3 210.2 149.7 208.5Q152.0 206.9 155.1 206.9L155.1 206.9Q158.4 206.9 160.7 208.6Q163.0 210.2 163.8 213.2L163.8 213.2L164.0 213.2Q165.1 210.3 167.7 208.6Q170.3 206.9 173.7 206.9L173.7 206.9Q178.3 206.9 181.0 209.8Q183.8 212.6 183.8 217.3L183.8 217.3L183.8 235.3Q183.8 237.1 182.8 238.1Q181.8 239.2 180.2 239.2L180.2 239.2Q178.5 239.2 177.5 238.1Q176.5 237.1 176.5 235.3L176.5 235.3L176.5 219.1Q176.5 216.2 175.0 214.6Q173.6 213.1 170.9 213.1L170.9 213.1Q168.3 213.1 166.7 214.8Q165.0 216.6 165.0 219.4L165.0 219.4L165.0 235.3Q165.0 237.1 164.1 238.2Q163.1 239.2 161.5 239.2L161.5 239.2Q159.8 239.2 158.9 238.2Q157.9 237.1 157.9 235.3L157.9 235.3L157.9 218.7Q157.9 216.1 156.4 214.6Q155.0 213.1 152.4 213.1L152.4 213.1Q149.8 213.1 148.1 214.9Q146.4 216.8 146.4 219.6L146.4 219.6L146.4 235.3Q146.4 237.1 145.4 238.1Q144.4 239.2 142.8 239.2ZM195.9 248.6Q194.9 249.6 193.3 249.6Q191.6 249.6 190.6 248.6Q189.6 247.6 189.6 245.8L189.6 245.8L189.6 210.7Q189.6 208.9 190.6 207.9Q191.6 206.9 193.2 206.9L193.2 206.9Q194.8 206.9 195.8 207.9Q196.7 208.9 196.7 210.7L196.7 210.7L196.7 212.9L196.9 212.9Q198.2 210.1 200.8 208.6Q203.3 207.0 206.7 207.0L206.7 207.0Q212.6 207.0 216.1 211.3Q219.6 215.6 219.6 223.1L219.6 223.1Q219.6 230.5 216.1 234.8Q212.6 239.1 206.8 239.1L206.8 239.1Q203.4 239.1 200.9 237.6Q198.3 236.1 197.1 233.4L197.1 233.4L196.9 233.4L196.9 245.8Q196.9 247.6 195.9 248.6ZM204.4 233.1L204.4 233.1Q208.0 233.1 210.0 230.4Q212.1 227.7 212.1 223.1L212.1 223.1Q212.1 218.5 210.0 215.7Q208.0 213.0 204.4 213.0L204.4 213.0Q201.0 213.0 199.0 215.8Q196.9 218.5 196.9 223.1L196.9 223.1Q196.9 227.6 199.0 230.4Q201.0 233.1 204.4 233.1ZM230.8 238.2Q229.8 239.2 228.1 239.2Q226.5 239.2 225.5 238.2Q224.5 237.1 224.5 235.3L224.5 235.3L224.5 199.6Q224.5 197.7 225.5 196.7Q226.5 195.7 228.1 195.7Q229.8 195.7 230.8 196.7Q231.7 197.7 231.7 199.6L231.7 199.6L231.7 235.3Q231.7 237.1 230.8 238.2ZM251.8 239.2L251.8 239.2Q244.6 239.2 240.7 235.0Q236.7 230.7 236.7 223.2L236.7 223.2Q236.7 215.7 240.7 211.3Q244.6 206.9 251.3 206.9L251.3 206.9Q257.7 206.9 261.7 210.9Q265.6 215.0 265.6 221.4L265.6 221.4Q265.6 223.0 264.8 223.9Q263.9 224.8 262.2 224.8L262.2 224.8L243.9 224.8L243.9 225.0Q243.9 228.9 246.0 231.3Q248.2 233.6 251.7 233.6L251.7 233.6Q254.2 233.6 255.9 232.6Q257.7 231.7 259.5 229.4L259.5 229.4Q260.5 228.3 261.9 228.3L261.9 228.3Q263.2 228.3 264.0 229.0Q264.9 229.8 264.9 231.1L264.9 231.1Q264.9 231.9 264.4 232.9L264.4 232.9Q262.8 235.9 259.5 237.5Q256.2 239.2 251.8 239.2ZM244.0 220.0L244.0 220.0L258.5 220.0Q258.4 216.6 256.4 214.6Q254.5 212.5 251.4 212.5Q248.3 212.5 246.3 214.6Q244.2 216.7 244.0 220.0Z M307.0 234.9Q303.0 239.2 296.1 239.2Q289.2 239.2 285.1 234.9Q281.1 230.6 281.1 223.1L281.1 223.1Q281.1 215.6 285.2 211.2Q289.3 206.9 296.1 206.9L296.1 206.9Q302.9 206.9 307.0 211.2Q311.1 215.6 311.1 223.1L311.1 223.1Q311.1 230.6 307.0 234.9ZM290.5 230.7Q292.6 233.4 296.1 233.4Q299.6 233.4 301.7 230.7Q303.7 228.0 303.7 223.1L303.7 223.1Q303.7 218.2 301.7 215.4Q299.6 212.7 296.1 212.7L296.1 212.7Q292.6 212.7 290.5 215.4Q288.5 218.2 288.5 223.1L288.5 223.1Q288.5 228.0 290.5 230.7ZM324.1 238.2Q323.2 239.2 321.5 239.2Q319.8 239.2 318.8 238.2Q317.8 237.2 317.8 235.4L317.8 235.4L317.8 213.1L315.9 213.1Q314.6 213.1 313.9 212.4Q313.1 211.7 313.1 210.4L313.1 210.4Q313.1 209.1 313.9 208.4Q314.6 207.6 315.9 207.6L315.9 207.6L317.8 207.6L317.8 204.9Q317.8 196.0 326.4 196.0L326.4 196.0Q329.2 196.0 330.6 196.8Q332.0 197.6 332.0 199.0L332.0 199.0Q332.0 200.7 330.4 201.1L330.4 201.1Q329.7 201.3 328.8 201.3L328.8 201.3Q326.8 201.4 325.9 202.3Q325 203.2 325 205.2L325 205.2L325 207.6L328.9 207.6Q330.2 207.6 330.9 208.4Q331.7 209.1 331.7 210.4L331.7 210.4Q331.7 211.7 330.9 212.4Q330.2 213.1 328.9 213.1L328.9 213.1L325.1 213.1L325.1 235.4Q325.1 237.2 324.1 238.2Z M364.6 239.4L364.6 239.4Q359.6 239.4 355.8 237.0Q352.1 234.6 349.9 230.0L349.9 230.0Q347.5 225.1 347.5 217.9L347.5 217.9Q347.5 207.3 352.1 201.4Q356.7 195.4 364.7 195.4L364.7 195.4Q369.4 195.4 373.0 197.3Q376.6 199.1 378.2 202.3L378.2 202.3Q378.9 203.5 378.9 204.7L378.9 204.7Q378.9 206.0 378.0 206.8Q377.1 207.7 375.7 207.7L375.7 207.7Q374.6 207.7 373.8 207.2Q373.0 206.7 372.1 205.5L372.1 205.5Q370.6 203.5 368.8 202.5Q367.0 201.6 364.7 201.6L364.7 201.6Q360.0 201.6 357.4 205.7Q354.9 209.8 354.8 217.2L354.8 217.2L354.8 217.6L354.9 217.6Q356.2 214.6 359.3 212.7Q362.4 210.8 366.5 210.8L366.5 210.8Q372.6 210.8 376.5 214.7Q380.4 218.6 380.4 224.7L380.4 224.7Q380.4 231.1 375.9 235.3Q371.5 239.4 364.6 239.4ZM358.5 230.8Q360.9 233.3 364.5 233.3Q368.0 233.3 370.5 230.9Q373.0 228.4 373.0 225.0L373.0 225.0Q373.0 221.3 370.6 219.0Q368.2 216.6 364.6 216.6Q360.9 216.6 358.5 219.0Q356.1 221.3 356.1 224.8L356.1 224.8Q356.1 228.4 358.5 230.8ZM401.8 239.4L401.8 239.4Q394.0 239.4 389.6 233.5Q385.2 227.6 385.2 217.4L385.2 217.4Q385.2 207.2 389.6 201.3Q394.1 195.5 401.8 195.5L401.8 195.5Q409.6 195.5 414.0 201.3Q418.4 207.2 418.4 217.4L418.4 217.4Q418.4 227.6 414.0 233.5Q409.6 239.4 401.8 239.4ZM401.8 233.2L401.8 233.2Q406.1 233.2 408.4 229.1Q410.8 224.9 410.8 217.4L410.8 217.4Q410.8 210.0 408.4 205.8Q406.1 201.6 401.8 201.6Q397.6 201.6 395.2 205.8Q392.8 210.0 392.8 217.4L392.8 217.4Q392.8 224.9 395.2 229.1Q397.5 233.2 401.8 233.2Z M449.6 239.2L449.6 239.2Q442.7 239.2 438.7 234.9Q434.6 230.5 434.6 223.1L434.6 223.1Q434.6 215.7 438.7 211.3Q442.7 206.9 449.5 206.9L449.5 206.9Q454.1 206.9 457.6 209.0Q461.2 211.1 462.3 214.4L462.3 214.4Q462.7 215.4 462.7 216.1L462.7 216.1Q462.7 217.5 461.8 218.3Q460.9 219.1 459.5 219.1L459.5 219.1Q458.4 219.1 457.7 218.6Q457.0 218.1 456.3 217.0L456.3 217.0Q454.1 212.8 449.7 212.8L449.7 212.8Q446.2 212.8 444.1 215.6Q442.0 218.3 442.0 223.1L442.0 223.1Q442.0 227.9 444.1 230.6Q446.2 233.3 449.7 233.3L449.7 233.3Q454.1 233.3 456.3 229.3L456.3 229.3Q457.1 228.1 457.8 227.6Q458.5 227.1 459.7 227.1L459.7 227.1Q461.0 227.1 461.9 227.9Q462.8 228.7 462.8 230.1L462.8 230.1Q462.8 230.9 462.3 231.9L462.3 231.9Q461.0 235.1 457.5 237.2Q453.9 239.2 449.6 239.2ZM474.2 238.2Q473.2 239.2 471.5 239.2Q469.9 239.2 468.9 238.2Q467.9 237.1 467.9 235.3L467.9 235.3L467.9 199.5Q467.9 197.7 468.8 196.7Q469.8 195.7 471.5 195.7L471.5 195.7Q473.2 195.7 474.1 196.7Q475.1 197.7 475.1 199.5L475.1 199.5L475.1 212.9L475.2 212.9Q476.5 210.0 479.0 208.5Q481.5 206.9 485.0 206.9L485.0 206.9Q490.1 206.9 493.0 210.1Q495.9 213.2 495.9 218.6L495.9 218.6L495.9 235.3Q495.9 237.1 494.9 238.2Q493.9 239.2 492.2 239.2Q490.6 239.2 489.6 238.2Q488.6 237.1 488.6 235.3L488.6 235.3L488.6 220.1Q488.6 216.8 487.0 214.9Q485.3 213.1 482.2 213.1L482.2 213.1Q478.9 213.1 477.0 215.2Q475.1 217.3 475.1 220.7L475.1 220.7L475.1 235.3Q475.1 237.1 474.2 238.2ZM510.8 239.1L510.8 239.1Q506.3 239.1 503.4 236.5Q500.5 233.9 500.5 229.7L500.5 229.7Q500.5 225.6 503.5 223.2Q506.6 220.8 512.3 220.4L512.3 220.4L520.5 219.9L520.5 217.7Q520.5 215.3 519.0 213.9Q517.4 212.6 514.7 212.6L514.7 212.6Q512.5 212.6 511.0 213.4Q509.5 214.2 508.2 216.2L508.2 216.2Q507.1 217.7 505.2 217.7L505.2 217.7Q503.9 217.7 503.0 216.9Q502.2 216.1 502.2 214.8L502.2 214.8Q502.2 213.8 502.7 212.8L502.7 212.8Q503.8 210.1 507.2 208.5Q510.5 206.9 515.0 206.9L515.0 206.9Q520.8 206.9 524.2 209.7Q527.7 212.5 527.7 217.2L527.7 217.2L527.7 235.5Q527.7 237.2 526.7 238.2Q525.7 239.2 524.2 239.2L524.2 239.2Q522.6 239.2 521.7 238.3Q520.8 237.4 520.7 235.8L520.7 235.8L520.7 233.6L520.5 233.6Q519.2 236.1 516.5 237.6Q513.9 239.1 510.8 239.1ZM513.1 233.6L513.1 233.6Q516.2 233.6 518.3 231.7Q520.5 229.8 520.5 227.1L520.5 227.1L520.5 224.7L513.3 225.1Q510.7 225.3 509.2 226.4Q507.8 227.6 507.8 229.4L507.8 229.4Q507.8 231.3 509.2 232.4Q510.7 233.6 513.1 233.6ZM539.9 238.1Q538.9 239.2 537.2 239.2Q535.5 239.2 534.5 238.1Q533.6 237.1 533.6 235.3L533.6 235.3L533.6 210.6Q533.6 208.9 534.5 207.9Q535.5 206.9 537.1 206.9L537.1 206.9Q538.6 206.9 539.5 207.9Q540.5 208.9 540.5 210.6L540.5 210.6L540.5 213.0L540.7 213.0Q541.3 210.3 543.1 208.6Q545.0 207.0 547.3 207.0L547.3 207.0Q549.0 207.0 549.9 207.8L549.9 207.8Q550.9 208.6 550.9 210.4L550.9 210.4Q550.9 212.1 549.8 213.0L549.8 213.0Q548.8 213.9 546.6 214.0L546.6 214.0Q540.9 214.0 540.9 220.4L540.9 220.4L540.9 235.3Q540.9 237.1 539.9 238.1ZM566.2 239.2L566.2 239.2Q561.3 239.2 558.0 237.5Q554.7 235.8 553.5 233.0L553.5 233.0Q553.2 232.2 553.2 231.5L553.2 231.5Q553.2 230.2 554.1 229.4Q554.9 228.6 556.3 228.6L556.3 228.6Q558.1 228.6 559.4 230.4L559.4 230.4Q560.7 232.3 562.3 233.1Q563.9 233.9 566.4 233.9L566.4 233.9Q569.0 233.9 570.6 232.9Q572.1 231.8 572.1 230.1L572.1 230.1Q572.1 228.7 571.1 227.8Q570.1 227.0 567.7 226.4L567.7 226.4L562.7 225.3Q553.6 223.3 553.6 216.4L553.6 216.4Q553.6 212.1 557.1 209.5Q560.5 206.9 566.3 206.9L566.3 206.9Q570.7 206.9 573.9 208.8Q577.1 210.6 577.9 213.4L577.9 213.4Q578.0 214.0 578.0 214.5L578.0 214.5Q578.0 215.6 577.3 216.4Q576.5 217.1 575.2 217.1L575.2 217.1Q573.3 217.1 572.4 215.7L572.4 215.7Q571.3 214.0 569.8 213.1Q568.3 212.2 566.1 212.2L566.1 212.2Q563.7 212.2 562.2 213.3Q560.7 214.3 560.7 216.0L560.7 216.0Q560.7 218.8 565.3 219.8L565.3 219.8L570.2 220.9Q575.2 222.0 577.3 223.9Q579.4 225.9 579.4 229.3L579.4 229.3Q579.4 233.8 575.8 236.5Q572.1 239.2 566.2 239.2Z M602.7 238.1Q601.8 239.1 600.2 239.1Q598.5 239.1 597.7 238.1Q596.8 237.2 596.8 235.5L596.8 235.5L596.8 200.6Q596.8 198.4 598.1 197.1Q599.4 195.8 601.6 195.8L601.6 195.8Q603.6 195.8 604.8 196.7Q606.0 197.6 606.8 199.7L606.8 199.7L618.5 228.2L618.7 228.2L630.3 199.7Q631.2 197.7 632.4 196.7Q633.6 195.8 635.6 195.8L635.6 195.8Q637.8 195.8 639.1 197.1Q640.4 198.4 640.4 200.6L640.4 200.6L640.4 235.5Q640.4 237.2 639.5 238.1Q638.6 239.1 637.0 239.1Q635.4 239.1 634.5 238.1Q633.6 237.2 633.6 235.5L633.6 235.5L633.6 208.6L633.4 208.6L622.2 235.8Q621.1 238.3 618.6 238.3L618.6 238.3Q616.0 238.3 615.0 235.8L615.0 235.8L603.8 208.6L603.6 208.6L603.6 235.5Q603.6 237.2 602.7 238.1ZM656.2 239.1L656.2 239.1Q651.7 239.1 648.8 236.5Q645.9 233.9 645.9 229.7L645.9 229.7Q645.9 225.6 648.9 223.2Q652.0 220.8 657.7 220.4L657.7 220.4L665.9 219.9L665.9 217.7Q665.9 215.3 664.4 213.9Q662.8 212.6 660.1 212.6L660.1 212.6Q657.9 212.6 656.4 213.4Q654.9 214.2 653.6 216.2L653.6 216.2Q652.5 217.7 650.6 217.7L650.6 217.7Q649.3 217.7 648.4 216.9Q647.6 216.1 647.6 214.8L647.6 214.8Q647.6 213.8 648.1 212.8L648.1 212.8Q649.2 210.1 652.6 208.5Q655.9 206.9 660.4 206.9L660.4 206.9Q666.2 206.9 669.6 209.7Q673.1 212.5 673.1 217.2L673.1 217.2L673.1 235.5Q673.1 237.2 672.1 238.2Q671.1 239.2 669.6 239.2L669.6 239.2Q668.0 239.2 667.1 238.3Q666.2 237.4 666.1 235.8L666.1 235.8L666.1 233.6L665.9 233.6Q664.6 236.1 661.9 237.6Q659.3 239.1 656.2 239.1ZM658.5 233.6L658.5 233.6Q661.6 233.6 663.7 231.7Q665.9 229.8 665.9 227.1L665.9 227.1L665.9 224.7L658.7 225.1Q656.1 225.3 654.6 226.4Q653.2 227.6 653.2 229.4L653.2 229.4Q653.2 231.3 654.6 232.4Q656.1 233.6 658.5 233.6ZM690.9 239.2L690.9 239.2Q686.1 239.2 682.8 237.5Q679.4 235.8 678.3 233.0L678.3 233.0Q678.0 232.2 678.0 231.5L678.0 231.5Q678.0 230.2 678.8 229.4Q679.7 228.6 681.0 228.6L681.0 228.6Q682.9 228.6 684.2 230.4L684.2 230.4Q685.5 232.3 687.1 233.1Q688.7 233.9 691.2 233.9L691.2 233.9Q693.8 233.9 695.3 232.9Q696.9 231.8 696.9 230.1L696.9 230.1Q696.9 228.7 695.9 227.8Q694.9 227.0 692.5 226.4L692.5 226.4L687.5 225.3Q678.4 223.3 678.4 216.4L678.4 216.4Q678.4 212.1 681.9 209.5Q685.3 206.9 691.1 206.9L691.1 206.9Q695.5 206.9 698.7 208.8Q701.9 210.6 702.6 213.4L702.6 213.4Q702.8 214.0 702.8 214.5L702.8 214.5Q702.8 215.6 702.1 216.4Q701.3 217.1 700.0 217.1L700.0 217.1Q698.1 217.1 697.2 215.7L697.2 215.7Q696.0 214.0 694.6 213.1Q693.1 212.2 690.9 212.2L690.9 212.2Q688.5 212.2 687.0 213.3Q685.5 214.3 685.5 216.0L685.5 216.0Q685.5 218.8 690.1 219.8L690.1 219.8L695.0 220.9Q699.9 222.0 702.1 223.9Q704.2 225.9 704.2 229.3L704.2 229.3Q704.2 233.8 700.5 236.5Q696.9 239.2 690.9 239.2ZM710.8 230.9L710.8 230.9L710.8 213.1L708.8 213.1Q707.5 213.1 706.7 212.4Q705.9 211.6 705.9 210.3L705.9 210.3Q705.9 209.0 706.7 208.3Q707.5 207.5 708.8 207.5L708.8 207.5L710.8 207.5L710.8 203.4Q710.8 201.6 711.8 200.6Q712.8 199.6 714.5 199.6L714.5 199.6Q716.1 199.6 717.1 200.6Q718.1 201.6 718.1 203.4L718.1 203.4L718.1 207.5L721.5 207.5Q722.9 207.5 723.6 208.3Q724.4 209.0 724.4 210.3L724.4 210.3Q724.4 211.6 723.6 212.4Q722.8 213.1 721.5 213.1L721.5 213.1L718.1 213.1L718.1 229.3Q718.1 231.1 718.8 231.9Q719.5 232.7 721.0 232.9L721.0 232.9L721.6 232.9Q724.5 233.2 724.5 235.6L724.5 235.6Q724.5 237.2 723.1 238.1Q721.8 238.9 719.3 238.9L719.3 238.9L719.0 238.9Q710.8 238.9 710.8 230.9ZM742.7 239.2L742.7 239.2Q735.6 239.2 731.6 235.0Q727.6 230.7 727.6 223.2L727.6 223.2Q727.6 215.7 731.6 211.3Q735.6 206.9 742.3 206.9L742.3 206.9Q748.7 206.9 752.6 210.9Q756.6 215.0 756.6 221.4L756.6 221.4Q756.6 223.0 755.7 223.9Q754.8 224.8 753.2 224.8L753.2 224.8L734.9 224.8L734.9 225.0Q734.9 228.9 737.0 231.3Q739.1 233.6 742.7 233.6L742.7 233.6Q745.1 233.6 746.9 232.6Q748.7 231.7 750.4 229.4L750.4 229.4Q751.5 228.3 752.9 228.3L752.9 228.3Q754.1 228.3 755.0 229.0Q755.8 229.8 755.8 231.1L755.8 231.1Q755.8 231.9 755.3 232.9L755.3 232.9Q753.8 235.9 750.4 237.5Q747.1 239.2 742.7 239.2ZM735.0 220.0L735.0 220.0L749.5 220.0Q749.3 216.6 747.4 214.6Q745.4 212.5 742.3 212.5Q739.3 212.5 737.2 214.6Q735.2 216.7 735.0 220.0ZM767.6 238.1Q766.6 239.2 764.9 239.2Q763.3 239.2 762.3 238.1Q761.3 237.1 761.3 235.3L761.3 235.3L761.3 210.6Q761.3 208.9 762.2 207.9Q763.2 206.9 764.8 206.9L764.8 206.9Q766.3 206.9 767.3 207.9Q768.2 208.9 768.2 210.6L768.2 210.6L768.2 213.0L768.4 213.0Q769.0 210.3 770.9 208.6Q772.7 207.0 775.0 207.0L775.0 207.0Q776.7 207.0 777.6 207.8L777.6 207.8Q778.6 208.6 778.6 210.4L778.6 210.4Q778.6 212.1 777.5 213.0L777.5 213.0Q776.5 213.9 774.3 214.0L774.3 214.0Q768.6 214.0 768.6 220.4L768.6 220.4L768.6 235.3Q768.6 237.1 767.6 238.1Z M798.4 239.1L798.4 239.1Q796.7 239.1 795.7 238.0Q794.7 237.0 794.7 235.2L794.7 235.2L794.7 199.7Q794.7 197.9 795.7 196.8Q796.7 195.8 798.4 195.8L798.4 195.8Q800.2 195.8 801.2 196.8Q802.2 197.9 802.2 199.7L802.2 199.7L802.2 213.9L822.8 213.9L822.8 199.7Q822.8 197.9 823.8 196.8Q824.8 195.8 826.5 195.8L826.5 195.8Q828.3 195.8 829.3 196.8Q830.3 197.9 830.3 199.7L830.3 199.7L830.3 235.2Q830.3 237.0 829.3 238.1Q828.3 239.1 826.5 239.1L826.5 239.1Q824.8 239.1 823.8 238.1Q822.8 237.0 822.8 235.2L822.8 235.2L822.8 220.2L802.2 220.2L802.2 235.2Q802.2 237.0 801.2 238.1Q800.2 239.1 798.4 239.1ZM850.8 239.2L850.8 239.2Q843.7 239.2 839.7 235.0Q835.7 230.7 835.7 223.2L835.7 223.2Q835.7 215.7 839.7 211.3Q843.7 206.9 850.4 206.9L850.4 206.9Q856.8 206.9 860.7 210.9Q864.7 215.0 864.7 221.4L864.7 221.4Q864.7 223.0 863.8 223.9Q862.9 224.8 861.3 224.8L861.3 224.8L843.0 224.8L843.0 225.0Q843.0 228.9 845.1 231.3Q847.2 233.6 850.8 233.6L850.8 233.6Q853.2 233.6 855.0 232.6Q856.8 231.7 858.5 229.4L858.5 229.4Q859.6 228.3 861.0 228.3L861.0 228.3Q862.2 228.3 863.1 229.0Q863.9 229.8 863.9 231.1L863.9 231.1Q863.9 231.9 863.4 232.9L863.4 232.9Q861.9 235.9 858.6 237.5Q855.2 239.2 850.8 239.2ZM843.1 220.0L843.1 220.0L857.6 220.0Q857.4 216.6 855.5 214.6Q853.5 212.5 850.4 212.5Q847.4 212.5 845.3 214.6Q843.3 216.7 843.1 220.0ZM878.5 239.1L878.5 239.1Q874.0 239.1 871.0 236.5Q868.1 233.9 868.1 229.7L868.1 229.7Q868.1 225.6 871.2 223.2Q874.3 220.8 879.9 220.4L879.9 220.4L888.2 219.9L888.2 217.7Q888.2 215.3 886.6 213.9Q885.1 212.6 882.4 212.6L882.4 212.6Q880.2 212.6 878.7 213.4Q877.2 214.2 875.9 216.2L875.9 216.2Q874.8 217.7 872.9 217.7L872.9 217.7Q871.6 217.7 870.7 216.9Q869.8 216.1 869.8 214.8L869.8 214.8Q869.8 213.8 870.3 212.8L870.3 212.8Q871.5 210.1 874.9 208.5Q878.2 206.9 882.7 206.9L882.7 206.9Q888.4 206.9 891.9 209.7Q895.4 212.5 895.4 217.2L895.4 217.2L895.4 235.5Q895.4 237.2 894.4 238.2Q893.4 239.2 891.8 239.2L891.8 239.2Q890.3 239.2 889.4 238.3Q888.4 237.4 888.3 235.8L888.3 235.8L888.3 233.6L888.2 233.6Q886.9 236.1 884.2 237.6Q881.6 239.1 878.5 239.1ZM880.7 233.6L880.7 233.6Q883.8 233.6 886.0 231.7Q888.2 229.8 888.2 227.1L888.2 227.1L888.2 224.7L881.0 225.1Q878.3 225.3 876.9 226.4Q875.4 227.6 875.4 229.4L875.4 229.4Q875.4 231.3 876.9 232.4Q878.3 233.6 880.7 233.6ZM912.8 239.1L912.8 239.1Q907.0 239.1 903.5 234.7Q900.0 230.4 900.0 223.0L900.0 223.0Q900.0 215.7 903.5 211.3Q907.0 207.0 912.8 207.0L912.8 207.0Q916.1 207.0 918.7 208.5Q921.2 210.1 922.5 212.7L922.5 212.7L922.6 212.7L922.6 199.6Q922.6 197.7 923.6 196.7Q924.6 195.7 926.3 195.7Q927.9 195.7 928.9 196.7Q929.9 197.7 929.9 199.6L929.9 199.6L929.9 235.5Q929.9 237.2 928.9 238.2Q927.9 239.2 926.3 239.2L926.3 239.2Q924.7 239.2 923.7 238.2Q922.6 237.2 922.6 235.5L922.6 235.5L922.6 233.1L922.5 233.1Q921.3 235.9 918.8 237.5Q916.4 239.1 912.8 239.1ZM915.0 233.1L915.0 233.1Q918.5 233.1 920.6 230.4Q922.7 227.7 922.7 223.1L922.7 223.1Q922.7 218.5 920.6 215.7Q918.5 213.0 915.0 213.0L915.0 213.0Q911.5 213.0 909.5 215.7Q907.4 218.4 907.4 223.1L907.4 223.1Q907.4 227.7 909.5 230.4Q911.5 233.1 915.0 233.1ZM949.8 239.2L949.8 239.2Q942.7 239.2 938.7 235.0Q934.8 230.7 934.8 223.2L934.8 223.2Q934.8 215.7 938.7 211.3Q942.7 206.9 949.4 206.9L949.4 206.9Q955.8 206.9 959.8 210.9Q963.7 215.0 963.7 221.4L963.7 221.4Q963.7 223.0 962.8 223.9Q961.9 224.8 960.3 224.8L960.3 224.8L942.0 224.8L942.0 225.0Q942.0 228.9 944.1 231.3Q946.2 233.6 949.8 233.6L949.8 233.6Q952.2 233.6 954.0 232.6Q955.8 231.7 957.5 229.4L957.5 229.4Q958.6 228.3 960.0 228.3L960.0 228.3Q961.3 228.3 962.1 229.0Q962.9 229.8 962.9 231.1L962.9 231.1Q962.9 231.9 962.4 232.9L962.4 232.9Q960.9 235.9 957.6 237.5Q954.3 239.2 949.8 239.2ZM942.1 220.0L942.1 220.0L956.6 220.0Q956.5 216.6 954.5 214.6Q952.5 212.5 949.5 212.5Q946.4 212.5 944.3 214.6Q942.3 216.7 942.1 220.0ZM974.7 238.1Q973.7 239.2 972.1 239.2Q970.4 239.2 969.4 238.1Q968.4 237.1 968.4 235.3L968.4 235.3L968.4 210.6Q968.4 208.9 969.4 207.9Q970.3 206.9 971.9 206.9L971.9 206.9Q973.4 206.9 974.4 207.9Q975.4 208.9 975.4 210.6L975.4 210.6L975.4 213.0L975.5 213.0Q976.2 210.3 978.0 208.6Q979.8 207.0 982.2 207.0L982.2 207.0Q983.9 207.0 984.7 207.8L984.7 207.8Q985.8 208.6 985.8 210.4L985.8 210.4Q985.8 212.1 984.7 213.0L984.7 213.0Q983.6 213.9 981.5 214.0L981.5 214.0Q975.7 214.0 975.7 220.4L975.7 220.4L975.7 235.3Q975.7 237.1 974.7 238.1Z M1010.2 239.1L1010.2 239.1Q1005.6 239.1 1002.7 236.5Q999.8 233.9 999.8 229.7L999.8 229.7Q999.8 225.6 1002.9 223.2Q1005.9 220.8 1011.6 220.4L1011.6 220.4L1019.8 219.9L1019.8 217.7Q1019.8 215.3 1018.3 213.9Q1016.8 212.6 1014.0 212.6L1014.0 212.6Q1011.9 212.6 1010.4 213.4Q1008.9 214.2 1007.5 216.2L1007.5 216.2Q1006.4 217.7 1004.6 217.7L1004.6 217.7Q1003.2 217.7 1002.4 216.9Q1001.5 216.1 1001.5 214.8L1001.5 214.8Q1001.5 213.8 1002.0 212.8L1002.0 212.8Q1003.2 210.1 1006.5 208.5Q1009.9 206.9 1014.3 206.9L1014.3 206.9Q1020.1 206.9 1023.6 209.7Q1027.0 212.5 1027.0 217.2L1027.0 217.2L1027.0 235.5Q1027.0 237.2 1026.1 238.2Q1025.1 239.2 1023.5 239.2L1023.5 239.2Q1022.0 239.2 1021.0 238.3Q1020.1 237.4 1020.0 235.8L1020.0 235.8L1020.0 233.6L1019.9 233.6Q1018.5 236.1 1015.9 237.6Q1013.2 239.1 1010.2 239.1ZM1012.4 233.6L1012.4 233.6Q1015.5 233.6 1017.7 231.7Q1019.8 229.8 1019.8 227.1L1019.8 227.1L1019.8 224.7L1012.6 225.1Q1010.0 225.3 1008.5 226.4Q1007.1 227.6 1007.1 229.4L1007.1 229.4Q1007.1 231.3 1008.5 232.4Q1010.0 233.6 1012.4 233.6ZM1039.2 238.2Q1038.2 239.2 1036.5 239.2Q1034.9 239.2 1033.9 238.2Q1032.9 237.1 1032.9 235.3L1032.9 235.3L1032.9 210.6Q1032.9 208.9 1033.8 207.9Q1034.8 206.9 1036.4 206.9Q1038.0 206.9 1039.0 207.9Q1040.0 208.9 1040.0 210.6L1040.0 210.6L1040.0 212.8L1040.1 212.8Q1042.8 206.9 1049.8 206.9L1049.8 206.9Q1054.9 206.9 1057.7 210.0Q1060.6 213.1 1060.6 218.5L1060.6 218.5L1060.6 235.3Q1060.6 237.1 1059.6 238.2Q1058.6 239.2 1056.9 239.2Q1055.3 239.2 1054.3 238.2Q1053.3 237.1 1053.3 235.3L1053.3 235.3L1053.3 220.0Q1053.3 216.6 1051.7 214.9Q1050.1 213.1 1047.1 213.1L1047.1 213.1Q1043.9 213.1 1042.1 215.2Q1040.2 217.2 1040.2 220.6L1040.2 220.6L1040.2 235.3Q1040.2 237.1 1039.2 238.2ZM1078.0 239.1L1078.0 239.1Q1072.1 239.1 1068.6 234.7Q1065.1 230.4 1065.1 223.0L1065.1 223.0Q1065.1 215.7 1068.6 211.3Q1072.1 207.0 1078.0 207.0L1078.0 207.0Q1081.3 207.0 1083.8 208.5Q1086.3 210.1 1087.6 212.7L1087.6 212.7L1087.8 212.7L1087.8 199.6Q1087.8 197.7 1088.8 196.7Q1089.8 195.7 1091.4 195.7Q1093.0 195.7 1094.1 196.7Q1095.1 197.7 1095.1 199.6L1095.1 199.6L1095.1 235.5Q1095.1 237.2 1094.1 238.2Q1093.1 239.2 1091.5 239.2L1091.5 239.2Q1089.8 239.2 1088.8 238.2Q1087.8 237.2 1087.8 235.5L1087.8 235.5L1087.8 233.1L1087.6 233.1Q1086.5 235.9 1084.0 237.5Q1081.5 239.1 1078.0 239.1ZM1080.2 233.1L1080.2 233.1Q1083.6 233.1 1085.7 230.4Q1087.8 227.7 1087.8 223.1L1087.8 223.1Q1087.8 218.5 1085.7 215.7Q1083.6 213.0 1080.2 213.0L1080.2 213.0Q1076.7 213.0 1074.6 215.7Q1072.6 218.4 1072.6 223.1L1072.6 223.1Q1072.6 227.7 1074.6 230.4Q1076.6 233.1 1080.2 233.1Z M67.7 317.4Q63.6 321.7 56.7 321.7Q49.8 321.7 45.8 317.4Q41.7 313.1 41.7 305.6L41.7 305.6Q41.7 298.1 45.8 293.7Q49.9 289.4 56.7 289.4L56.7 289.4Q63.6 289.4 67.7 293.7Q71.8 298.1 71.8 305.6L71.8 305.6Q71.8 313.1 67.7 317.4ZM51.2 313.2Q53.2 315.9 56.7 315.9Q60.2 315.9 62.3 313.2Q64.3 310.5 64.3 305.6L64.3 305.6Q64.3 300.7 62.3 297.9Q60.2 295.2 56.7 295.2L56.7 295.2Q53.2 295.2 51.2 297.9Q49.1 300.7 49.1 305.6L49.1 305.6Q49.1 310.5 51.2 313.2ZM78.5 313.4L78.5 313.4L78.5 295.6L76.5 295.6Q75.2 295.6 74.4 294.9Q73.6 294.1 73.6 292.8L73.6 292.8Q73.6 291.5 74.4 290.8Q75.1 290.0 76.5 290.0L76.5 290.0L78.5 290.0L78.5 285.9Q78.5 284.1 79.4 283.1Q80.4 282.1 82.1 282.1L82.1 282.1Q83.8 282.1 84.8 283.1Q85.8 284.1 85.8 285.9L85.8 285.9L85.8 290.0L89.1 290.0Q90.5 290.0 91.3 290.8Q92.1 291.5 92.1 292.8L92.1 292.8Q92.1 294.1 91.3 294.9Q90.5 295.6 89.1 295.6L89.1 295.6L85.8 295.6L85.8 311.8Q85.8 313.6 86.4 314.4Q87.1 315.2 88.7 315.4L88.7 315.4L89.2 315.4Q92.1 315.7 92.1 318.1L92.1 318.1Q92.1 319.7 90.8 320.6Q89.5 321.4 86.9 321.4L86.9 321.4L86.6 321.4Q78.5 321.4 78.5 313.4ZM103.1 320.7Q102.1 321.7 100.4 321.7Q98.8 321.7 97.8 320.7Q96.8 319.6 96.8 317.8L96.8 317.8L96.8 282.0Q96.8 280.2 97.7 279.2Q98.7 278.2 100.4 278.2L100.4 278.2Q102.1 278.2 103.0 279.2Q104.0 280.2 104.0 282.0L104.0 282.0L104.0 295.4L104.1 295.4Q105.4 292.5 107.9 291.0Q110.4 289.4 113.9 289.4L113.9 289.4Q119.0 289.4 121.9 292.6Q124.8 295.7 124.8 301.1L124.8 301.1L124.8 317.8Q124.8 319.6 123.8 320.7Q122.8 321.7 121.2 321.7Q119.5 321.7 118.5 320.7Q117.5 319.6 117.5 317.8L117.5 317.8L117.5 302.6Q117.5 299.3 115.9 297.4Q114.3 295.6 111.1 295.6L111.1 295.6Q107.9 295.6 106.0 297.7Q104.1 299.8 104.1 303.2L104.1 303.2L104.1 317.8Q104.1 319.6 103.1 320.7ZM144.4 321.7L144.4 321.7Q137.3 321.7 133.3 317.5Q129.4 313.2 129.4 305.7L129.4 305.7Q129.4 298.2 133.3 293.8Q137.3 289.4 144.0 289.4L144.0 289.4Q150.4 289.4 154.4 293.4Q158.3 297.5 158.3 303.9L158.3 303.9Q158.3 305.5 157.4 306.4Q156.5 307.3 154.9 307.3L154.9 307.3L136.6 307.3L136.6 307.5Q136.6 311.4 138.7 313.8Q140.8 316.1 144.4 316.1L144.4 316.1Q146.8 316.1 148.6 315.1Q150.4 314.2 152.1 311.9L152.1 311.9Q153.2 310.8 154.6 310.8L154.6 310.8Q155.9 310.8 156.7 311.5Q157.5 312.3 157.5 313.6L157.5 313.6Q157.5 314.4 157.0 315.4L157.0 315.4Q155.5 318.4 152.2 320.0Q148.9 321.7 144.4 321.7ZM136.7 302.5L136.7 302.5L151.2 302.5Q151.1 299.1 149.1 297.1Q147.1 295.0 144.1 295.0Q141.0 295.0 138.9 297.1Q136.9 299.2 136.7 302.5ZM169.3 320.6Q168.3 321.7 166.7 321.7Q165.0 321.7 164.0 320.6Q163.0 319.6 163.0 317.8L163.0 317.8L163.0 293.1Q163.0 291.4 164.0 290.4Q164.9 289.4 166.5 289.4L166.5 289.4Q168.0 289.4 169.0 290.4Q170.0 291.4 170.0 293.1L170.0 293.1L170.0 295.5L170.1 295.5Q170.8 292.8 172.6 291.1Q174.4 289.5 176.8 289.5L176.8 289.5Q178.5 289.5 179.3 290.3L179.3 290.3Q180.4 291.1 180.4 292.9L180.4 292.9Q180.4 294.6 179.3 295.5L179.3 295.5Q178.2 296.4 176.1 296.5L176.1 296.5Q170.3 296.5 170.3 302.9L170.3 302.9L170.3 317.8Q170.3 319.6 169.3 320.6Z M215.9 320.6Q214.6 321.6 212.5 321.6Q210.4 321.6 209.1 320.6Q207.8 319.6 207.0 317.4L207.0 317.4L194.3 283.9Q193.9 282.9 193.9 281.8L193.9 281.8Q193.9 280.2 195.0 279.3Q196.1 278.3 197.9 278.3L197.9 278.3Q200.8 278.3 201.6 281.2L201.6 281.2L212.5 313.0L212.7 313.0L223.5 281.1Q224.0 279.6 224.9 279.0Q225.7 278.3 227.2 278.3L227.2 278.3Q228.9 278.3 230.0 279.3Q231.1 280.2 231.1 281.7L231.1 281.7Q231.1 282.7 230.7 283.8L230.7 283.8L217.9 317.5Q217.2 319.6 215.9 320.6ZM244.4 321.6L244.4 321.6Q239.9 321.6 237.0 319.0Q234.1 316.4 234.1 312.2L234.1 312.2Q234.1 308.1 237.1 305.7Q240.2 303.3 245.9 302.9L245.9 302.9L254.1 302.4L254.1 300.2Q254.1 297.8 252.6 296.4Q251.0 295.1 248.3 295.1L248.3 295.1Q246.1 295.1 244.6 295.9Q243.1 296.7 241.8 298.7L241.8 298.7Q240.7 300.2 238.8 300.2L238.8 300.2Q237.5 300.2 236.6 299.4Q235.8 298.6 235.8 297.3L235.8 297.3Q235.8 296.3 236.3 295.3L236.3 295.3Q237.4 292.6 240.8 291.0Q244.1 289.4 248.6 289.4L248.6 289.4Q254.4 289.4 257.8 292.2Q261.3 295.0 261.3 299.7L261.3 299.7L261.3 318.0Q261.3 319.7 260.3 320.7Q259.3 321.7 257.8 321.7L257.8 321.7Q256.2 321.7 255.3 320.8Q254.4 319.9 254.3 318.3L254.3 318.3L254.3 316.1L254.1 316.1Q252.8 318.6 250.1 320.1Q247.5 321.6 244.4 321.6ZM246.7 316.1L246.7 316.1Q249.8 316.1 251.9 314.2Q254.1 312.3 254.1 309.6L254.1 309.6L254.1 307.2L246.9 307.6Q244.3 307.8 242.8 308.9Q241.4 310.1 241.4 311.9L241.4 311.9Q241.4 313.8 242.8 314.9Q244.3 316.1 246.7 316.1ZM273.5 320.6Q272.5 321.7 270.8 321.7Q269.1 321.7 268.1 320.6Q267.2 319.6 267.2 317.8L267.2 317.8L267.2 293.1Q267.2 291.4 268.1 290.4Q269.1 289.4 270.7 289.4L270.7 289.4Q272.2 289.4 273.1 290.4Q274.1 291.4 274.1 293.1L274.1 293.1L274.1 295.5L274.3 295.5Q274.9 292.8 276.7 291.1Q278.6 289.5 280.9 289.5L280.9 289.5Q282.6 289.5 283.5 290.3L283.5 290.3Q284.5 291.1 284.5 292.9L284.5 292.9Q284.5 294.6 283.4 295.5L283.4 295.5Q282.4 296.4 280.2 296.5L280.2 296.5Q274.5 296.5 274.5 302.9L274.5 302.9L274.5 317.8Q274.5 319.6 273.5 320.6ZM294.5 284.5Q293.3 285.7 291.6 285.7Q289.9 285.7 288.7 284.5Q287.6 283.3 287.6 281.7L287.6 281.7Q287.6 280.0 288.7 278.9Q289.9 277.7 291.6 277.7L291.6 277.7Q293.3 277.7 294.5 278.9Q295.7 280.0 295.7 281.7L295.7 281.7Q295.7 283.3 294.5 284.5ZM294.3 320.6Q293.3 321.7 291.6 321.7Q289.9 321.7 289.0 320.6Q288.0 319.6 288.0 317.8L288.0 317.8L288.0 293.2Q288.0 291.5 289.0 290.4Q289.9 289.4 291.6 289.4Q293.3 289.4 294.3 290.4Q295.3 291.5 295.3 293.3L295.3 293.3L295.3 317.8Q295.3 319.6 294.3 320.6ZM326.1 317.4Q322.0 321.7 315.1 321.7Q308.2 321.7 304.2 317.4Q300.1 313.1 300.1 305.6L300.1 305.6Q300.1 298.1 304.2 293.7Q308.3 289.4 315.1 289.4L315.1 289.4Q322.0 289.4 326.1 293.7Q330.2 298.1 330.2 305.6L330.2 305.6Q330.2 313.1 326.1 317.4ZM309.6 313.2Q311.6 315.9 315.1 315.9Q318.6 315.9 320.7 313.2Q322.7 310.5 322.7 305.6L322.7 305.6Q322.7 300.7 320.7 297.9Q318.6 295.2 315.1 295.2L315.1 295.2Q311.6 295.2 309.6 297.9Q307.5 300.7 307.5 305.6L307.5 305.6Q307.5 310.5 309.6 313.2ZM345.7 321.6L345.7 321.6Q340.6 321.6 337.7 318.5Q334.7 315.5 334.7 310.1L334.7 310.1L334.7 293.2Q334.7 291.5 335.7 290.4Q336.7 289.4 338.3 289.4Q340.0 289.4 341.0 290.4Q342.0 291.5 342.0 293.3L342.0 293.3L342.0 308.6Q342.0 312.0 343.6 313.7Q345.2 315.5 348.3 315.5L348.3 315.5Q351.4 315.5 353.2 313.4Q355.1 311.4 355.1 308.0L355.1 308.0L355.1 293.2Q355.1 291.5 356.1 290.4Q357.1 289.4 358.8 289.4L358.8 289.4Q360.4 289.4 361.4 290.4Q362.4 291.5 362.4 293.3L362.4 293.3L362.4 318.0Q362.4 319.7 361.4 320.7Q360.5 321.7 358.9 321.7L358.9 321.7Q357.3 321.7 356.3 320.7Q355.4 319.7 355.4 318.0L355.4 318.0L355.4 315.7L355.2 315.7Q352.6 321.6 345.7 321.6ZM380.3 321.7L380.3 321.7Q375.5 321.7 372.1 320.0Q368.8 318.3 367.7 315.5L367.7 315.5Q367.4 314.7 367.4 314.0L367.4 314.0Q367.4 312.7 368.2 311.9Q369.1 311.1 370.4 311.1L370.4 311.1Q372.2 311.1 373.6 312.9L373.6 312.9Q374.8 314.8 376.4 315.6Q378.0 316.4 380.6 316.4L380.6 316.4Q383.2 316.4 384.7 315.4Q386.2 314.3 386.2 312.6L386.2 312.6Q386.2 311.2 385.2 310.3Q384.2 309.5 381.9 308.9L381.9 308.9L376.8 307.8Q367.8 305.8 367.8 298.9L367.8 298.9Q367.8 294.6 371.2 292.0Q374.7 289.4 380.4 289.4L380.4 289.4Q384.8 289.4 388.0 291.3Q391.3 293.1 392.0 295.9L392.0 295.9Q392.1 296.5 392.1 297.0L392.1 297.0Q392.1 298.1 391.4 298.9Q390.7 299.6 389.3 299.6L389.3 299.6Q387.5 299.6 386.6 298.2L386.6 298.2Q385.4 296.5 383.9 295.6Q382.5 294.7 380.3 294.7L380.3 294.7Q377.9 294.7 376.4 295.8Q374.9 296.8 374.9 298.5L374.9 298.5Q374.9 301.3 379.4 302.3L379.4 302.3L384.4 303.4Q389.3 304.5 391.4 306.4Q393.6 308.4 393.6 311.8L393.6 311.8Q393.6 316.3 389.9 319.0Q386.3 321.7 380.3 321.7Z M414.7 321.6L414.7 321.6Q412.9 321.6 411.9 320.5Q410.9 319.5 410.9 317.7L410.9 317.7L410.9 282.2Q410.9 280.4 411.9 279.3Q412.9 278.3 414.7 278.3L414.7 278.3Q416.5 278.3 417.5 279.3Q418.5 280.4 418.5 282.2L418.5 282.2L418.5 296.4L439.0 296.4L439.0 282.2Q439.0 280.4 440.0 279.3Q441.0 278.3 442.8 278.3L442.8 278.3Q444.6 278.3 445.6 279.3Q446.6 280.4 446.6 282.2L446.6 282.2L446.6 317.7Q446.6 319.5 445.6 320.6Q444.6 321.6 442.8 321.6L442.8 321.6Q441.0 321.6 440.0 320.6Q439.0 319.5 439.0 317.7L439.0 317.7L439.0 302.7L418.5 302.7L418.5 317.7Q418.5 319.5 417.5 320.6Q416.5 321.6 414.7 321.6ZM467.1 321.7L467.1 321.7Q459.9 321.7 456.0 317.5Q452.0 313.2 452.0 305.7L452.0 305.7Q452.0 298.2 456.0 293.8Q459.9 289.4 466.7 289.4L466.7 289.4Q473.0 289.4 477.0 293.4Q480.9 297.5 480.9 303.9L480.9 303.9Q480.9 305.5 480.1 306.4Q479.2 307.3 477.5 307.3L477.5 307.3L459.2 307.3L459.2 307.5Q459.2 311.4 461.3 313.8Q463.5 316.1 467.0 316.1L467.0 316.1Q469.5 316.1 471.2 315.1Q473.0 314.2 474.8 311.9L474.8 311.9Q475.8 310.8 477.2 310.8L477.2 310.8Q478.5 310.8 479.3 311.5Q480.2 312.3 480.2 313.6L480.2 313.6Q480.2 314.4 479.7 315.4L479.7 315.4Q478.1 318.4 474.8 320.0Q471.5 321.7 467.1 321.7ZM459.3 302.5L459.3 302.5L473.8 302.5Q473.7 299.1 471.7 297.1Q469.8 295.0 466.7 295.0Q463.6 295.0 461.6 297.1Q459.5 299.2 459.3 302.5ZM494.7 321.6L494.7 321.6Q490.2 321.6 487.3 319.0Q484.4 316.4 484.4 312.2L484.4 312.2Q484.4 308.1 487.4 305.7Q490.5 303.3 496.2 302.9L496.2 302.9L504.4 302.4L504.4 300.2Q504.4 297.8 502.9 296.4Q501.3 295.1 498.6 295.1L498.6 295.1Q496.4 295.1 495.0 295.9Q493.5 296.7 492.1 298.7L492.1 298.7Q491.0 300.2 489.2 300.2L489.2 300.2Q487.8 300.2 486.9 299.4Q486.1 298.6 486.1 297.3L486.1 297.3Q486.1 296.3 486.6 295.3L486.6 295.3Q487.7 292.6 491.1 291.0Q494.5 289.4 498.9 289.4L498.9 289.4Q504.7 289.4 508.1 292.2Q511.6 295.0 511.6 299.7L511.6 299.7L511.6 318.0Q511.6 319.7 510.6 320.7Q509.7 321.7 508.1 321.7L508.1 321.7Q506.6 321.7 505.6 320.8Q504.7 319.9 504.6 318.3L504.6 318.3L504.6 316.1L504.4 316.1Q503.1 318.6 500.5 320.1Q497.8 321.6 494.7 321.6ZM497.0 316.1L497.0 316.1Q500.1 316.1 502.2 314.2Q504.4 312.3 504.4 309.6L504.4 309.6L504.4 307.2L497.2 307.6Q494.6 307.8 493.1 308.9Q491.7 310.1 491.7 311.9L491.7 311.9Q491.7 313.8 493.1 314.9Q494.6 316.1 497.0 316.1ZM529.1 321.6L529.1 321.6Q523.2 321.6 519.7 317.2Q516.2 312.9 516.2 305.5L516.2 305.5Q516.2 298.2 519.7 293.8Q523.2 289.5 529.1 289.5L529.1 289.5Q532.4 289.5 534.9 291.0Q537.4 292.6 538.7 295.2L538.7 295.2L538.9 295.2L538.9 282.1Q538.9 280.2 539.9 279.2Q540.9 278.2 542.5 278.2Q544.1 278.2 545.2 279.2Q546.2 280.2 546.2 282.1L546.2 282.1L546.2 318.0Q546.2 319.7 545.2 320.7Q544.2 321.7 542.6 321.7L542.6 321.7Q540.9 321.7 539.9 320.7Q538.9 319.7 538.9 318.0L538.9 318.0L538.9 315.6L538.7 315.6Q537.5 318.4 535.1 320.0Q532.6 321.6 529.1 321.6ZM531.3 315.6L531.3 315.6Q534.7 315.6 536.8 312.9Q538.9 310.2 538.9 305.6L538.9 305.6Q538.9 301.0 536.8 298.2Q534.7 295.5 531.3 295.5L531.3 295.5Q527.8 295.5 525.7 298.2Q523.7 300.9 523.7 305.6L523.7 305.6Q523.7 310.2 525.7 312.9Q527.7 315.6 531.3 315.6ZM559.0 284.5Q557.8 285.7 556.1 285.7Q554.4 285.7 553.2 284.5Q552.1 283.3 552.1 281.7L552.1 281.7Q552.1 280.0 553.2 278.9Q554.4 277.7 556.1 277.7L556.1 277.7Q557.8 277.7 559.0 278.9Q560.2 280.0 560.2 281.7L560.2 281.7Q560.2 283.3 559.0 284.5ZM558.8 320.6Q557.8 321.7 556.1 321.7Q554.4 321.7 553.4 320.6Q552.5 319.6 552.5 317.8L552.5 317.8L552.5 293.2Q552.5 291.5 553.4 290.4Q554.4 289.4 556.1 289.4Q557.8 289.4 558.8 290.4Q559.8 291.5 559.8 293.3L559.8 293.3L559.8 317.8Q559.8 319.6 558.8 320.6ZM572.2 320.7Q571.2 321.7 569.5 321.7Q567.9 321.7 566.9 320.7Q565.9 319.6 565.9 317.8L565.9 317.8L565.9 293.1Q565.9 291.4 566.8 290.4Q567.8 289.4 569.4 289.4Q571.0 289.4 572.0 290.4Q573.0 291.4 573.0 293.1L573.0 293.1L573.0 295.3L573.1 295.3Q575.8 289.4 582.8 289.4L582.8 289.4Q587.9 289.4 590.7 292.5Q593.5 295.6 593.5 301.0L593.5 301.0L593.5 317.8Q593.5 319.6 592.5 320.7Q591.5 321.7 589.9 321.7Q588.3 321.7 587.3 320.7Q586.2 319.6 586.2 317.8L586.2 317.8L586.2 302.5Q586.2 299.1 584.7 297.4Q583.1 295.6 580.0 295.6L580.0 295.6Q576.9 295.6 575.0 297.7Q573.2 299.7 573.2 303.1L573.2 303.1L573.2 317.8Q573.2 319.6 572.2 320.7ZM612.8 332.8L612.8 332.8Q608.4 332.7 605.1 331.2Q601.8 329.7 600.2 327.1L600.2 327.1Q599.5 326.1 599.5 324.9L599.5 324.9Q599.5 323.7 600.4 322.9Q601.2 322.1 602.6 322.1L602.6 322.1Q604.0 322.1 605.3 323.3L605.3 323.3Q607.1 325.2 608.9 326.1Q610.6 326.9 612.8 327.0L612.8 327.0Q616.5 327.0 618.6 325.1Q620.7 323.2 620.7 320.1L620.7 320.1L620.7 315.2L620.6 315.2Q619.3 317.7 616.7 319.2Q614.1 320.8 610.8 320.8L610.8 320.8Q605.0 320.8 601.5 316.5Q598.1 312.3 598.1 305.2L598.1 305.2Q598.1 297.9 601.5 293.7Q605.0 289.5 611.0 289.5L611.0 289.5Q614.2 289.5 616.8 291.0Q619.3 292.6 620.6 295.3L620.6 295.3L620.8 295.3L620.8 293.1Q620.8 291.4 621.8 290.4Q622.8 289.4 624.4 289.4Q626.0 289.4 627.0 290.4Q628.0 291.4 628.0 293.1L628.0 293.1L628.0 320.1Q628.0 326.0 624.0 329.4Q619.9 332.8 612.8 332.8ZM613.1 315.1L613.1 315.1Q616.6 315.1 618.7 312.4Q620.8 309.8 620.8 305.2L620.8 305.2Q620.8 300.7 618.7 298.0Q616.6 295.3 613.1 295.3L613.1 295.3Q609.6 295.3 607.6 298.0Q605.5 300.7 605.5 305.2L605.5 305.2Q605.5 309.8 607.6 312.5Q609.6 315.1 613.1 315.1ZM646.0 321.7L646.0 321.7Q641.1 321.7 637.8 320.0Q634.5 318.3 633.3 315.5L633.3 315.5Q633.0 314.7 633.0 314.0L633.0 314.0Q633.0 312.7 633.9 311.9Q634.7 311.1 636.1 311.1L636.1 311.1Q637.9 311.1 639.2 312.9L639.2 312.9Q640.5 314.8 642.1 315.6Q643.7 316.4 646.2 316.4L646.2 316.4Q648.8 316.4 650.4 315.4Q651.9 314.3 651.9 312.6L651.9 312.6Q651.9 311.2 650.9 310.3Q649.9 309.5 647.5 308.9L647.5 308.9L642.5 307.8Q633.4 305.8 633.4 298.9L633.4 298.9Q633.4 294.6 636.9 292.0Q640.4 289.4 646.1 289.4L646.1 289.4Q650.5 289.4 653.7 291.3Q656.9 293.1 657.7 295.9L657.7 295.9Q657.8 296.5 657.8 297.0L657.8 297.0Q657.8 298.1 657.1 298.9Q656.3 299.6 655 299.6L655 299.6Q653.2 299.6 652.2 298.2L652.2 298.2Q651.1 296.5 649.6 295.6Q648.1 294.7 645.9 294.7L645.9 294.7Q643.5 294.7 642.0 295.8Q640.5 296.8 640.5 298.5L640.5 298.5Q640.5 301.3 645.1 302.3L645.1 302.3L650.0 303.4Q655.0 304.5 657.1 306.4Q659.2 308.4 659.2 311.8L659.2 311.8Q659.2 316.3 655.6 319.0Q651.9 321.7 646.0 321.7Z "/><defs><clipPath id="satori_bc-id-0-1"><rect x="0" y="441" width="1200" height="189"/></clipPath></defs><mask id="satori_om-id-0-1"><rect x="0" y="442" width="1200" height="188" fill="#fff"/><path width="1200" height="189" fill="none" stroke="#000" stroke-width="2" d="M0,441 A0,0 0 0 1 0,441 h1200 A0,0 0 0 1 1200,441"/></mask><path width="1200" height="189" clip-path="url(#satori_bc-id-0-1)" fill="none" stroke="#dbdbdb" stroke-width="2" d="M0,441 A0,0 0 0 1 0,441 h1200 A0,0 0 0 1 1200,441"/><mask id="satori_om-id-0-1-0"><rect x="40" y="482" width="209" height="108" fill="#fff"/></mask><clipPath id="satori_cp-id-0-1-0-0"><rect x="40" y="504" width="64" height="64"/></clipPath><mask id="satori_om-id-0-1-0-0"><rect x="40" y="504" width="64" height="64" fill="#fff"/></mask><image x="40" y="504" width="64" height="64" href="data:image/svg+xml;utf8,%3Csvg  xmlns=%22http://www.w3.org/2000/svg%22 width=%2264%22 height=%2264%22 viewBox=%220 0 128 128%22%3E%3Cpath fill=%22%23224d67%22 d=%22M22.5 14.8c2.9 1.3 99 44 99 44c2.7 1.2 2.9 3.1 2 12.4c-1 10.5-1.9 37.8-40.2 42.9c-24.6 3.2-55.9-4.3-70.9-27.2C-6 58.8 11 23.4 14.8 17.7c2.4-3.5 4.8-4.2 7.7-2.9%22%3E%3C/path%3E%3Cpath fill=%22%23f0f4c3%22 d=%22M121.5 58.8c-.3-.2-92-40.8-98.9-43.9C9.6 31.5-3.8 76 27.9 96.2c33.6 21.5 78.7-10.2 93.6-37.4%22%3E%3C/path%3E%3Cpath fill=%22%23f0f4c3%22 d=%22M117.7 57c-.3-.2-86.7-38.4-93.2-41.3c-12.2 15.5-23.9 59.1 5.7 78c31.4 20.2 73.6-11.2 87.5-36.7%22%3E%3C/path%3E%3Cpath fill=%22%23cb2a42%22 d=%22M56.2 37.6L19.5 48.2c-2.5.8-4.4 2.8-5 5.3c-1.9 8.5.8 23.3 8.9 29.8c3.5 2.7 8.6 1.8 10.8-2.1L58.5 41c1.3-1.7.5-4.2-2.3-3.4m14.3 2.9s14.6 30.1 16 33s6.3 4.7 9.9 2.8c10.7-5.6 15.5-12.4 19.2-20.2c-8.9-3.9-42.4-18.8-42.4-18.8c-2.4-1.1-4 .6-2.7 3.2m-8.6 1.9C60.3 45.1 39.5 81 37.6 84.1c-1.9 3.2-.7 7.5 2.7 9.2c12.3 6.5 30.9.4 39.6-7c2.2-1.9 4.5-5.1 3.2-8.2S68.9 44.6 67.8 42.3c-1.2-2.7-4.1-2.8-5.9.1%22%3E%3C/path%3E%3Cpath fill=%22%23f0f4c3%22 d=%22M52.2 42.2c-1.4.4-10.1 3-11.1 3.4c-1.4.5-2.2 1.7-1.9 2.5c.3.9 1.7 1.1 3.1.6c.8-.3 7.1-3.9 9.5-5.2c-3.1 2.4-10.2 9.4-11.1 10.3c-1.4 1.5-1.7 3.4-.8 4.3c1 .9 2.9.5 4.3-1c1.2-1.3 8.5-12.8 9.1-13.9s.4-1.4-1.1-1m10.1 16.4c0-2.2 1.4-10.3 1.8-12.3c.4-1.6 1.5-1.8 1.8.5s1.7 9.7 1.7 11.8s-1.2 3.3-2.7 3.3c-1.4 0-2.6-1.1-2.6-3.3M79.9 49c-1.2-1.8-3.3-4.9-4.1-6.1c-.7-1.2.1-2.1 1.8-.9s4 2.9 5.4 4c1.6 1.3 1.9 3 .8 4s-2.7.8-3.9-1%22%3E%3C/path%3E%3Cellipse cx=%2287.3%22 cy=%22103.12%22 fill=%22%23cb2a42%22 rx=%223.4%22 ry=%222.3%22 transform=%22rotate(-27.098 87.298 103.126)%22%3E%3C/ellipse%3E%3Cellipse cx=%2298.89%22 cy=%22103.82%22 fill=%22%23cb2a42%22 rx=%223.4%22 ry=%222.3%22 transform=%22rotate(-30.642 98.887 103.818)%22%3E%3C/ellipse%3E%3Cellipse cx=%22102.02%22 cy=%2293.8%22 fill=%22%23cb2a42%22 rx=%223.4%22 ry=%222.3%22 transform=%22rotate(-37.16 102.017 93.797)%22%3E%3C/ellipse%3E%3Cpath fill=%22%23cb2a42%22 d=%22M57.6 30.3c-8.3-3.7-24.4-10.7-29.6-13c-3.6 2.2-9.7 11.4-11.2 21.2c-.6 3.6 1.7 5.9 5.3 4.9c0 0 33.7-9.3 35.3-9.7c1.6-.5 2-2.6.2-3.4%22%3E%3C/path%3E%3C/svg%3E" preserveAspectRatio="none" clip-path="url(#satori_cp-id-0-1-0-0)" mask="url(#satori_om-id-0-1-0-0)"/><mask id="satori_om-id-0-1-0-0-0"><rect x="40" y="504" width="0" height="64" fill="#fff"/></mask><mask id="satori_om-id-0-1-0-0-1"><rect x="40" y="504" width="0" height="64" fill="#fff"/></mask><mask id="satori_om-id-0-1-0-0-2"><rect x="40" y="504" width="0" height="64" fill="#fff"/></mask><mask id="satori_om-id-0-1-0-0-3"><rect x="40" y="504" width="0" height="64" fill="#fff"/></mask><mask id="satori_om-id-0-1-0-0-4"><rect x="40" y="504" width="0" height="64" fill="#fff"/></mask><mask id="satori_om-id-0-1-0-0-5"><rect x="40" y="504" width="0" height="64" fill="#fff"/></mask><mask id="satori_om-id-0-1-0-0-6"><rect x="40" y="504" width="0" height="64" fill="#fff"/></mask><mask id="satori_om-id-0-1-0-0-7"><rect x="40" y="504" width="0" height="64" fill="#fff"/></mask><mask id="satori_om-id-0-1-0-0-8"><rect x="40" y="504" width="0" height="64" fill="#fff"/></mask><mask id="satori_om-id-0-1-0-1"><rect x="116" y="512" width="133" height="48" fill="#fff"/></mask><path fill="#545454" d="M133.9 553.6L133.9 553.6Q126.4 553.6 122.1 549.0Q117.8 544.3 117.8 536.1L117.8 536.1Q117.8 528.0 122.1 523.3Q126.4 518.7 133.7 518.7L133.7 518.7Q138.4 518.7 142.0 520.7Q145.5 522.7 147.2 526.3L147.2 526.3Q147.9 527.7 147.9 529.0L147.9 529.0Q147.9 530.4 147.1 531.2Q146.2 532.0 144.8 532.0L144.8 532.0Q143.6 532.0 142.8 531.5Q142.0 530.9 141.5 529.7L141.5 529.7Q140.3 527.1 138.3 525.8Q136.3 524.5 133.8 524.5L133.8 524.5Q129.8 524.5 127.4 527.7Q125.0 530.8 125.0 536.1L125.0 536.1Q125.0 541.5 127.3 544.7Q129.7 547.8 133.8 547.8L133.8 547.8Q139.3 547.8 141.5 542.8L141.5 542.8Q142.1 541.6 142.8 541.1Q143.5 540.5 144.7 540.5L144.7 540.5Q146.2 540.5 147.1 541.4Q148.0 542.3 148.0 543.7L148.0 543.7Q148.0 544.8 147.4 546.1L147.4 546.1Q145.8 549.6 142.3 551.6Q138.7 553.6 133.9 553.6ZM158.6 523.8Q157.5 524.8 156.0 524.8Q154.4 524.8 153.4 523.8Q152.3 522.8 152.3 521.3L152.3 521.3Q152.3 519.8 153.4 518.8Q154.4 517.7 156.0 517.7Q157.5 517.7 158.6 518.8Q159.6 519.8 159.6 521.3L159.6 521.3Q159.6 522.8 158.6 523.8ZM158.5 552.6Q157.6 553.6 156.0 553.6Q154.4 553.6 153.5 552.6Q152.5 551.7 152.5 550.0L152.5 550.0L152.5 531.0Q152.5 529.3 153.5 528.4Q154.4 527.4 156.0 527.4Q157.6 527.4 158.5 528.4Q159.4 529.3 159.4 531.0L159.4 531.0L159.4 550.0Q159.4 551.7 158.5 552.6ZM165.8 546.6L165.8 546.6L165.8 533.1L164.4 533.1Q163.2 533.1 162.5 532.4Q161.8 531.7 161.8 530.5Q161.8 529.3 162.5 528.6Q163.2 527.9 164.4 527.9L164.4 527.9L165.8 527.9L165.8 525.1Q165.8 523.5 166.7 522.5Q167.6 521.6 169.2 521.6Q170.8 521.6 171.7 522.5Q172.6 523.5 172.6 525.1L172.6 525.1L172.6 527.9L175.0 527.9Q176.2 527.9 176.9 528.6Q177.6 529.3 177.6 530.5Q177.6 531.7 176.9 532.4Q176.2 533.1 175.0 533.1L175.0 533.1L172.6 533.1L172.6 545.1Q172.6 546.5 173.1 547.1Q173.6 547.7 174.7 547.8L174.7 547.8L175.1 547.8Q176.4 548.0 177.1 548.5Q177.7 549.1 177.7 550.3L177.7 550.3Q177.7 551.8 176.4 552.6Q175.1 553.3 172.9 553.3L172.9 553.3L172.6 553.3Q165.8 553.3 165.8 546.6ZM184.4 553.6L184.4 553.6Q182.8 553.6 181.9 552.6Q181.0 551.7 181.0 550.0L181.0 550.0L181.0 530.9Q181.0 529.3 181.9 528.3Q182.8 527.4 184.3 527.4L184.3 527.4Q185.8 527.4 186.6 528.3Q187.5 529.3 187.5 530.9L187.5 530.9L187.5 532.5L187.7 532.5Q188.2 530.2 189.6 528.9Q191 527.5 192.9 527.5L192.9 527.5Q194.3 527.5 195.0 528.2L195.0 528.2Q196.0 528.9 196.0 530.7L196.0 530.7Q196.0 532.3 195.0 533.2L195.0 533.2Q194.0 534.0 192.1 534.1L192.1 534.1Q189.8 534.1 188.8 535.3Q187.8 536.5 187.8 538.8L187.8 538.8L187.8 550.0Q187.8 551.7 186.9 552.6Q186.0 553.6 184.4 553.6ZM207.4 553.5L207.4 553.5Q203.3 553.5 200.8 551.0Q198.3 548.5 198.3 544.1L198.3 544.1L198.3 531.0Q198.3 529.3 199.3 528.4Q200.2 527.4 201.8 527.4Q203.3 527.4 204.2 528.4Q205.2 529.3 205.2 531.0L205.2 531.0L205.2 542.7Q205.2 545.2 206.4 546.5Q207.6 547.8 209.9 547.8Q212.1 547.8 213.5 546.3Q214.8 544.8 214.8 542.3L214.8 542.3L214.8 531.0Q214.8 529.3 215.8 528.4Q216.7 527.4 218.2 527.4Q219.8 527.4 220.7 528.4Q221.7 529.3 221.7 531.0L221.7 531.0L221.7 550.1Q221.7 551.8 220.8 552.7Q219.9 553.6 218.4 553.6Q216.8 553.6 215.9 552.7Q215.0 551.8 215.0 550.1L215.0 550.1L215.0 548.5L214.9 548.5Q212.9 553.5 207.4 553.5ZM236.4 553.6L236.4 553.6Q232.1 553.6 229.3 552.2Q226.5 550.9 225.5 548.6L225.5 548.6Q225.3 547.9 225.3 547.3L225.3 547.3Q225.3 546.1 226.1 545.4Q226.9 544.7 228.1 544.7L228.1 544.7Q229.6 544.7 231.0 546.2L231.0 546.2Q232.1 547.6 233.3 548.2Q234.6 548.8 236.5 548.8L236.5 548.8Q238.4 548.8 239.5 548.1Q240.6 547.3 240.6 546.1L240.6 546.1Q240.6 545.1 239.9 544.5Q239.1 543.9 237.3 543.5L237.3 543.5L233.1 542.6Q229.4 541.8 227.5 539.9Q225.7 538.1 225.7 535.3L225.7 535.3Q225.7 531.7 228.6 529.5Q231.5 527.4 236.3 527.4L236.3 527.4Q240.1 527.4 242.8 528.9Q245.5 530.4 246.2 532.6L246.2 532.6Q246.3 533.2 246.3 533.6L246.3 533.6Q246.3 534.7 245.7 535.3Q245 536.0 243.7 536.0L243.7 536.0Q242.1 536.0 241.2 534.9L241.2 534.9Q240.2 533.6 239.1 532.9Q237.9 532.2 236.2 532.2L236.2 532.2Q234.5 532.2 233.4 533.0Q232.3 533.7 232.3 534.9L232.3 534.9Q232.3 535.9 233.1 536.6Q233.9 537.2 235.8 537.6L235.8 537.6L239.9 538.5Q243.9 539.4 245.7 541.0Q247.5 542.6 247.5 545.4L247.5 545.4Q247.5 549.1 244.4 551.4Q241.3 553.6 236.4 553.6Z "/><mask id="satori_om-id-0-1-1"><rect x="951" y="524" width="209" height="36" fill="#fff"/></mask><path fill="#8e8e8e" d="M954.9 552.6Q954.5 552.9 954.0 552.9Q953.4 552.9 953.1 552.6Q952.8 552.2 952.8 551.7L952.8 551.7L952.8 532.6Q952.8 532.0 953.1 531.6Q953.5 531.3 954.1 531.3Q954.6 531.3 955.0 531.6Q955.3 532.0 955.3 532.6L955.3 532.6L955.3 540.0L955.4 540.0Q956.1 538.7 957.4 537.9Q958.7 537.2 960.3 537.2L960.3 537.2Q963.2 537.2 964.9 539.3Q966.7 541.5 966.7 545.0L966.7 545.0Q966.7 548.6 964.9 550.8Q963.2 552.9 960.2 552.9L960.2 552.9Q958.6 552.9 957.3 552.2Q956.0 551.4 955.3 550.1L955.3 550.1L955.2 550.1L955.2 551.7Q955.2 552.2 954.9 552.6ZM959.7 550.7L959.7 550.7Q961.8 550.7 962.9 549.2Q964.1 547.7 964.1 545.0L964.1 545.0Q964.1 542.5 962.9 540.9Q961.8 539.4 959.7 539.4L959.7 539.4Q957.8 539.4 956.6 541.0Q955.3 542.5 955.3 545.0L955.3 545.0Q955.3 547.6 956.6 549.1Q957.8 550.7 959.7 550.7ZM970.8 558.4L970.8 558.4Q969.9 558.4 969.4 558.0Q968.9 557.7 968.9 557.1L968.9 557.1Q968.9 556.7 969.1 556.4Q969.4 556.2 969.9 556.2L969.9 556.2Q970.1 556.2 970.3 556.2Q970.5 556.2 970.7 556.2L970.7 556.2Q972.4 556.2 973.2 553.7L973.2 553.7L973.6 552.7L968.3 539.0Q968.2 538.6 968.2 538.3L968.2 538.3Q968.2 537.8 968.6 537.5Q968.9 537.2 969.5 537.2L969.5 537.2Q970.4 537.2 970.7 538.1L970.7 538.1L974.9 550.1L975.0 550.1L979.2 538.1Q979.3 537.6 979.6 537.4Q979.9 537.2 980.4 537.2L980.4 537.2Q980.9 537.2 981.3 537.5Q981.6 537.8 981.6 538.3L981.6 538.3Q981.6 538.6 981.5 539.0L981.5 539.0L975.9 553.7Q974.9 556.4 973.8 557.4Q972.7 558.4 970.8 558.4Z M990.5 552.9L990.5 552.9Q989.9 552.9 989.5 552.5Q989.2 552.2 989.2 551.7L989.2 551.7Q989.2 551.4 989.3 551.0L989.3 551.0L996.1 532.6Q996.6 531.3 997.8 531.3L997.8 531.3Q999.0 531.3 999.5 532.6L999.5 532.6L1006.3 551.0Q1006.5 551.4 1006.5 551.7L1006.5 551.7Q1006.5 552.2 1006.1 552.5Q1005.7 552.9 1005.2 552.9L1005.2 552.9Q1004.2 552.9 1003.9 551.9L1003.9 551.9L1002.0 546.6L993.6 546.6L991.8 551.9Q991.4 552.9 990.5 552.9ZM997.8 534.7L994.4 544.4L1001.2 544.4L997.9 534.7L997.8 534.7ZM1011.1 552.5Q1010.8 552.9 1010.2 552.9Q1009.7 552.9 1009.3 552.5Q1008.9 552.2 1008.9 551.6L1008.9 551.6L1008.9 538.5Q1008.9 537.9 1009.3 537.5Q1009.6 537.2 1010.1 537.2Q1010.7 537.2 1011 537.5Q1011.3 537.9 1011.3 538.5L1011.3 538.5L1011.3 539.9L1011.4 539.9Q1011.7 538.7 1012.7 537.9Q1013.7 537.2 1014.9 537.2L1014.9 537.2Q1015.7 537.2 1016.1 537.5L1016.1 537.5Q1016.4 537.8 1016.4 538.4L1016.4 538.4Q1016.4 539.0 1016.0 539.3L1016.0 539.3Q1015.6 539.6 1014.8 539.6L1014.8 539.6Q1013.1 539.6 1012.3 540.6Q1011.5 541.6 1011.5 543.2L1011.5 543.2L1011.5 551.6Q1011.5 552.2 1011.1 552.5ZM1019.0 549.1L1019.0 549.1L1019.0 539.5L1017.7 539.5Q1017.2 539.5 1016.9 539.3Q1016.6 539.0 1016.6 538.5L1016.6 538.5Q1016.6 538.0 1016.9 537.7Q1017.2 537.4 1017.7 537.4L1017.7 537.4L1019.0 537.4L1019.0 534.8Q1019.0 534.2 1019.4 533.8Q1019.7 533.5 1020.3 533.5Q1020.8 533.5 1021.2 533.8Q1021.5 534.2 1021.5 534.8L1021.5 534.8L1021.5 537.4L1023.5 537.4Q1024.1 537.4 1024.4 537.7Q1024.7 538.0 1024.7 538.5L1024.7 538.5Q1024.7 539.0 1024.4 539.3Q1024.1 539.5 1023.5 539.5L1023.5 539.5L1021.5 539.5L1021.5 548.6Q1021.5 549.6 1021.9 550.0Q1022.3 550.5 1023.3 550.6L1023.3 550.6L1023.5 550.6Q1024.7 550.7 1024.7 551.6L1024.7 551.6Q1024.7 552.2 1024.3 552.5Q1023.9 552.8 1022.9 552.8L1022.9 552.8L1022.7 552.8Q1019.0 552.8 1019.0 549.1ZM1033.6 552.9L1033.6 552.9Q1030.2 552.9 1028.4 550.9Q1026.5 548.8 1026.5 545.1L1026.5 545.1Q1026.5 541.5 1028.4 539.3Q1030.2 537.2 1033.4 537.2L1033.4 537.2Q1036.3 537.2 1038.2 539.1Q1040.0 541.1 1040.0 544.3L1040.0 544.3Q1040.0 544.9 1039.6 545.3Q1039.3 545.7 1038.6 545.7L1038.6 545.7L1029.1 545.7Q1029.1 548.0 1030.3 549.4Q1031.5 550.7 1033.5 550.7L1033.5 550.7Q1034.9 550.7 1035.8 550.2Q1036.7 549.6 1037.6 548.3L1037.6 548.3Q1038.0 547.8 1038.6 547.8L1038.6 547.8Q1039.1 547.8 1039.4 548.1Q1039.7 548.4 1039.7 548.9L1039.7 548.9Q1039.7 549.2 1039.5 549.7L1039.5 549.7Q1038.8 551.2 1037.2 552.1Q1035.7 552.9 1033.6 552.9ZM1029.1 543.7L1029.1 543.7L1037.4 543.7Q1037.3 541.8 1036.2 540.6Q1035.1 539.4 1033.3 539.4L1033.3 539.4Q1031.6 539.4 1030.4 540.6Q1029.2 541.8 1029.1 543.7ZM1044.8 552.5Q1044.4 552.9 1043.9 552.9Q1043.3 552.9 1042.9 552.5Q1042.6 552.2 1042.6 551.6L1042.6 551.6L1042.6 538.5Q1042.6 537.9 1042.9 537.5Q1043.3 537.2 1043.8 537.2Q1044.3 537.2 1044.6 537.5Q1045.0 537.9 1045.0 538.5L1045.0 538.5L1045.0 539.9L1045.0 539.9Q1045.6 538.6 1046.7 537.9Q1047.9 537.2 1049.4 537.2L1049.4 537.2Q1050.9 537.2 1052.0 537.9Q1053.1 538.7 1053.6 540.1L1053.6 540.1L1053.7 540.1Q1054.3 538.7 1055.6 537.9Q1056.9 537.2 1058.5 537.2L1058.5 537.2Q1060.7 537.2 1062.1 538.5Q1063.4 539.9 1063.4 542.1L1063.4 542.1L1063.4 551.6Q1063.4 552.2 1063.1 552.5Q1062.7 552.9 1062.2 552.9Q1061.6 552.9 1061.2 552.5Q1060.9 552.2 1060.9 551.6L1060.9 551.6L1060.9 542.7Q1060.9 541.2 1060.1 540.3Q1059.2 539.4 1057.7 539.4Q1056.2 539.4 1055.3 540.4Q1054.3 541.4 1054.3 543.0L1054.3 543.0L1054.3 551.6Q1054.3 552.2 1053.9 552.5Q1053.6 552.9 1053.0 552.9Q1052.4 552.9 1052.1 552.5Q1051.7 552.2 1051.7 551.6L1051.7 551.6L1051.7 542.5Q1051.7 541.1 1050.9 540.2Q1050.0 539.4 1048.6 539.4L1048.6 539.4Q1047.1 539.4 1046.1 540.5Q1045.1 541.5 1045.1 543.1L1045.1 543.1L1045.1 551.6Q1045.1 552.2 1044.8 552.5Z M1075.5 552.5Q1075.1 552.9 1074.5 552.9Q1073.9 552.9 1073.6 552.5Q1073.2 552.1 1073.2 551.5L1073.2 551.5L1073.2 532.7Q1073.2 532.1 1073.6 531.7Q1073.9 531.3 1074.5 531.3Q1075.1 531.3 1075.5 531.7Q1075.9 532.1 1075.9 532.7L1075.9 532.7L1075.9 541.8L1076.0 541.8L1085.4 531.8Q1085.9 531.3 1086.5 531.3L1086.5 531.3Q1087.0 531.3 1087.3 531.7Q1087.7 532.0 1087.7 532.5L1087.7 532.5Q1087.7 533.0 1087.3 533.3L1087.3 533.3L1080.1 540.9L1088.2 550.6Q1088.5 551.1 1088.5 551.6L1088.5 551.6Q1088.5 552.2 1088.2 552.5Q1087.8 552.9 1087.3 552.9L1087.3 552.9Q1086.6 552.9 1086.1 552.2L1086.1 552.2L1078.2 542.8L1075.9 545.3L1075.9 551.5Q1075.9 552.1 1075.5 552.5ZM1096.5 552.9L1096.5 552.9Q1094.0 552.9 1092.6 551.4Q1091.2 549.9 1091.2 547.3L1091.2 547.3L1091.2 538.5Q1091.2 537.9 1091.6 537.5Q1091.9 537.2 1092.5 537.2Q1093.0 537.2 1093.4 537.5Q1093.8 537.9 1093.8 538.5L1093.8 538.5L1093.8 546.9Q1093.8 550.7 1097.3 550.7L1097.3 550.7Q1099.1 550.7 1100.2 549.5Q1101.2 548.3 1101.2 546.4L1101.2 546.4L1101.2 538.5Q1101.2 537.9 1101.6 537.5Q1102.0 537.2 1102.5 537.2Q1103.1 537.2 1103.4 537.5Q1103.8 537.9 1103.8 538.5L1103.8 538.5L1103.8 551.6Q1103.8 552.2 1103.5 552.6Q1103.1 552.9 1102.6 552.9Q1102.1 552.9 1101.7 552.6Q1101.4 552.2 1101.4 551.6L1101.4 551.6L1101.4 550.2L1101.3 550.2Q1099.9 552.9 1096.5 552.9ZM1107.9 549.1L1107.9 549.1L1107.9 539.5L1106.6 539.5Q1106.1 539.5 1105.8 539.3Q1105.5 539.0 1105.5 538.5L1105.5 538.5Q1105.5 538.0 1105.8 537.7Q1106.1 537.4 1106.6 537.4L1106.6 537.4L1107.9 537.4L1107.9 534.8Q1107.9 534.2 1108.3 533.8Q1108.6 533.5 1109.2 533.5Q1109.7 533.5 1110.1 533.8Q1110.5 534.2 1110.5 534.8L1110.5 534.8L1110.5 537.4L1112.4 537.4Q1113.0 537.4 1113.3 537.7Q1113.6 538.0 1113.6 538.5L1113.6 538.5Q1113.6 539.0 1113.3 539.3Q1113.0 539.5 1112.4 539.5L1112.4 539.5L1110.5 539.5L1110.5 548.6Q1110.5 549.6 1110.9 550.0Q1111.3 550.5 1112.2 550.6L1112.2 550.6L1112.4 550.6Q1113.6 550.7 1113.6 551.6L1113.6 551.6Q1113.6 552.2 1113.2 552.5Q1112.8 552.8 1111.8 552.8L1111.8 552.8L1111.6 552.8Q1107.9 552.8 1107.9 549.1ZM1121.4 552.9L1121.4 552.9Q1119.4 552.9 1117.9 552.1Q1116.4 551.2 1115.9 549.8L1115.9 549.8Q1115.7 549.5 1115.7 549.2L1115.7 549.2Q1115.7 548.7 1116.1 548.4Q1116.4 548.2 1116.9 548.2L1116.9 548.2Q1117.6 548.2 1118.0 548.9L1118.0 548.9Q1118.6 550.0 1119.4 550.4Q1120.2 550.8 1121.6 550.8L1121.6 550.8Q1123.1 550.8 1124.0 550.2Q1124.9 549.6 1124.9 548.6L1124.9 548.6Q1124.9 547.7 1124.4 547.3Q1123.8 546.8 1122.5 546.5L1122.5 546.5L1120.2 545.9Q1115.9 544.8 1115.9 541.6L1115.9 541.6Q1115.9 539.6 1117.5 538.4Q1119.0 537.2 1121.6 537.2L1121.6 537.2Q1123.5 537.2 1125.0 538.1Q1126.5 539.0 1126.8 540.4L1126.8 540.4Q1126.8 540.6 1126.8 540.8L1126.8 540.8Q1126.8 541.2 1126.5 541.5Q1126.3 541.8 1125.8 541.8L1125.8 541.8Q1125.0 541.8 1124.7 541.1L1124.7 541.1Q1124.2 540.1 1123.4 539.7Q1122.7 539.3 1121.5 539.3L1121.5 539.3Q1120.1 539.3 1119.2 539.9Q1118.4 540.5 1118.4 541.5L1118.4 541.5Q1118.4 543.1 1120.9 543.7L1120.9 543.7L1123.1 544.2Q1125.5 544.8 1126.5 545.8Q1127.5 546.7 1127.5 548.4L1127.5 548.4Q1127.5 550.4 1125.8 551.7Q1124.1 552.9 1121.4 552.9ZM1134.5 552.9L1134.5 552.9Q1132.3 552.9 1130.9 551.7Q1129.5 550.4 1129.5 548.4L1129.5 548.4Q1129.5 546.4 1130.9 545.2Q1132.3 544.1 1135.0 543.9L1135.0 543.9L1139.4 543.7L1139.4 542.4Q1139.4 541.0 1138.5 540.2Q1137.6 539.4 1136.0 539.4L1136.0 539.4Q1134.8 539.4 1133.9 539.9Q1133.0 540.4 1132.4 541.5L1132.4 541.5Q1132.1 542.1 1131.3 542.1L1131.3 542.1Q1130.8 542.1 1130.5 541.8Q1130.2 541.5 1130.2 541.0Q1130.2 540.5 1130.5 539.9L1130.5 539.9Q1131.2 538.7 1132.7 537.9Q1134.2 537.2 1136.1 537.2L1136.1 537.2Q1138.8 537.2 1140.3 538.5Q1141.9 539.9 1141.9 542.1L1141.9 542.1L1141.9 551.6Q1141.9 552.2 1141.6 552.6Q1141.2 552.9 1140.7 552.9L1140.7 552.9Q1140.2 552.9 1139.8 552.6Q1139.5 552.2 1139.5 551.6L1139.5 551.6L1139.5 550.0L1139.4 550.0Q1138.8 551.3 1137.4 552.1Q1136.1 552.9 1134.5 552.9ZM1135.1 550.8L1135.1 550.8Q1136.9 550.8 1138.1 549.6Q1139.4 548.5 1139.4 546.9L1139.4 546.9L1139.4 545.6L1135.3 545.9Q1133.7 546.0 1132.9 546.6Q1132.1 547.3 1132.1 548.4Q1132.1 549.4 1132.9 550.1Q1133.7 550.8 1135.1 550.8ZM1147.3 552.5Q1147.0 552.9 1146.4 552.9Q1145.9 552.9 1145.5 552.5Q1145.2 552.2 1145.2 551.6L1145.2 551.6L1145.2 538.5Q1145.2 537.9 1145.5 537.5Q1145.8 537.2 1146.4 537.2Q1146.9 537.2 1147.2 537.5Q1147.6 537.9 1147.6 538.5L1147.6 538.5L1147.6 539.9L1147.6 539.9Q1148.3 538.6 1149.5 537.9Q1150.7 537.2 1152.4 537.2L1152.4 537.2Q1154.9 537.2 1156.3 538.7Q1157.7 540.2 1157.7 542.8L1157.7 542.8L1157.7 551.6Q1157.7 552.2 1157.4 552.5Q1157.0 552.9 1156.4 552.9Q1155.9 552.9 1155.5 552.5Q1155.2 552.2 1155.2 551.6L1155.2 551.6L1155.2 543.2Q1155.2 541.4 1154.3 540.4Q1153.4 539.4 1151.7 539.4L1151.7 539.4Q1149.9 539.4 1148.8 540.6Q1147.7 541.8 1147.7 543.7L1147.7 543.7L1147.7 551.6Q1147.7 552.2 1147.3 552.5Z "/></svg>