<svg width="1200" height="630" viewBox="0 0 1200 630" xmlns="http://www.w3.org/2000/svg"><mask id="satori_om-id"><rect x="0" y="0" width="1200" height="630" fill="#fff"/></mask><mask id="satori_om-id-0"><rect x="0" y="0" width="1200" height="630" fill="#fff"/></mask><rect x="0" y="0" width="1200" height="630" fill="#f2f2f2"/><mask id="satori_om-id-0-0"><rect x="0" y="0" width="1200" height="441" fill="#fff"/></mask><mask id="satori_om-id-0-0-0"><rect x="40" y="95" width="1120" height="36" fill="#fff"/></mask><path fill="#8e8e8e" d="M49.1 123.5Q48.6 123.9 47.9 123.9Q47.1 123.9 46.7 123.5Q46.2 123.1 46.0 122.3L46.0 122.3L41.1 104.8Q41.0 104.2 41.0 103.8L41.0 103.8Q41.0 103.1 41.4 102.7Q41.8 102.3 42.6 102.3L42.6 102.3Q43.9 102.3 44.2 103.7L44.2 103.7L48.0 119.1L48.1 119.1L52.2 103.9Q52.5 103.1 52.9 102.7Q53.3 102.3 54.1 102.3L54.1 102.3Q54.8 102.3 55.3 102.7Q55.7 103.1 55.9 103.9L55.9 103.9L60.1 119.1L60.2 119.1L64.0 103.7Q64.3 102.3 65.6 102.3L65.6 102.3Q66.3 102.3 66.8 102.7Q67.2 103.1 67.2 103.8L67.2 103.8Q67.2 104.2 67.1 104.8L67.1 104.8L62.2 122.3Q61.9 123.1 61.5 123.5Q61.0 123.9 60.3 123.9L60.3 123.9Q59.5 123.9 59.1 123.5Q58.6 123.2 58.4 122.3L58.4 122.3L54.2 107.7L54.0 107.7L49.8 122.3Q49.6 123.1 49.1 123.5ZM76.4 124.0L76.4 124.0Q72.9 124.0 71.0 121.9Q69.0 119.8 69.0 116.0L69.0 116.0Q69.0 112.4 71.0 110.2Q72.9 108.0 76.2 108.0L76.2 108.0Q79.3 108.0 81.2 110.0Q83.1 112.0 83.1 115.1L83.1 115.1Q83.1 115.9 82.7 116.3Q82.3 116.8 81.6 116.8L81.6 116.8L72.2 116.8L72.2 116.8Q72.2 118.9 73.3 120.2Q74.5 121.4 76.3 121.4L76.3 121.4Q77.6 121.4 78.5 120.9Q79.4 120.4 80.3 119.2L80.3 119.2Q80.8 118.6 81.4 118.6L81.4 118.6Q82.0 118.6 82.4 119.0Q82.8 119.3 82.8 119.9L82.8 119.9Q82.8 120.3 82.5 120.8L82.5 120.8Q81.8 122.3 80.2 123.1Q78.6 124.0 76.4 124.0ZM72.3 114.5L72.3 114.5L80.0 114.5Q79.9 112.7 78.9 111.6Q77.8 110.5 76.2 110.5L76.2 110.5Q74.5 110.5 73.5 111.6Q72.4 112.7 72.3 114.5ZM91.4 123.9L91.4 123.9Q88.4 123.9 86.7 121.8Q84.9 119.6 84.9 116.0Q84.9 112.3 86.6 110.2Q88.4 108.0 91.3 108.0L91.3 108.0Q93.0 108.0 94.2 108.8Q95.5 109.5 96.2 110.8L96.2 110.8L96.2 110.8L96.2 103.9Q96.2 103.1 96.7 102.7Q97.1 102.2 97.8 102.2L97.8 102.2Q98.5 102.2 99.0 102.7Q99.4 103.2 99.4 103.9L99.4 103.9L99.4 122.4Q99.4 123.1 99.0 123.5Q98.5 123.9 97.8 123.9L97.8 123.9Q97.1 123.9 96.7 123.5Q96.2 123.1 96.2 122.4L96.2 122.4L96.2 120.9L96.2 120.9Q95.6 122.3 94.3 123.1Q93.1 123.9 91.4 123.9ZM92.2 121.2L92.2 121.2Q94.0 121.2 95.1 119.8Q96.3 118.4 96.3 116.0L96.3 116.0Q96.3 113.6 95.1 112.1Q94.0 110.7 92.2 110.7L92.2 110.7Q90.3 110.7 89.2 112.1Q88.1 113.5 88.1 116.0L88.1 116.0Q88.1 118.4 89.2 119.8Q90.3 121.2 92.2 121.2ZM104.2 123.9L104.2 123.9Q103.5 123.9 103.1 123.5Q102.6 123.0 102.6 122.3L102.6 122.3L102.6 109.6Q102.6 108.8 103.0 108.4Q103.5 108.0 104.1 108.0Q104.8 108.0 105.3 108.4Q105.7 108.9 105.7 109.6L105.7 109.6L105.7 110.8L105.8 110.8Q107.1 108.0 110.6 108.0L110.6 108.0Q113.1 108.0 114.5 109.5Q115.9 111.0 115.9 113.7L115.9 113.7L115.9 122.3Q115.9 123.0 115.5 123.5Q115.0 123.9 114.3 123.9L114.3 123.9Q113.6 123.9 113.2 123.5Q112.7 123.0 112.7 122.3L112.7 122.3L112.7 114.3Q112.7 112.5 111.9 111.6Q111.1 110.7 109.5 110.7L109.5 110.7Q107.8 110.7 106.8 111.8Q105.8 112.9 105.8 114.7L105.8 114.7L105.8 122.3Q105.8 123.0 105.4 123.5Q104.9 123.9 104.2 123.9ZM125.6 124.0L125.6 124.0Q122.2 124.0 120.2 121.9Q118.3 119.8 118.3 116.0L118.3 116.0Q118.3 112.4 120.2 110.2Q122.2 108.0 125.4 108.0L125.4 108.0Q128.5 108.0 130.4 110.0Q132.4 112.0 132.4 115.1L132.4 115.1Q132.4 115.9 131.9 116.3Q131.5 116.8 130.8 116.8L130.8 116.8L121.5 116.8L121.5 116.8Q121.5 118.9 122.6 120.2Q123.7 121.4 125.6 121.4L125.6 121.4Q126.9 121.4 127.8 120.9Q128.7 120.4 129.6 119.2L129.6 119.2Q130.0 118.6 130.7 118.6L130.7 118.6Q131.3 118.6 131.6 119.0Q132.0 119.3 132.0 119.9L132.0 119.9Q132.0 120.3 131.8 120.8L131.8 120.8Q131.0 122.3 129.4 123.1Q127.8 124.0 125.6 124.0ZM121.5 114.5L121.5 114.5L129.2 114.5Q129.1 112.7 128.1 111.6Q127.1 110.5 125.4 110.5L125.4 110.5Q123.8 110.5 122.7 111.6Q121.6 112.7 121.5 114.5ZM140.5 124.0L140.5 124.0Q138.2 124.0 136.7 123.1Q135.1 122.3 134.5 120.8L134.5 120.8Q134.4 120.5 134.4 120.2L134.4 120.2Q134.4 119.6 134.7 119.2Q135.1 118.9 135.7 118.9L135.7 118.9Q136.5 118.9 137.1 119.7L137.1 119.7Q137.7 120.7 138.5 121.1Q139.3 121.5 140.6 121.5L140.6 121.5Q142.0 121.5 142.8 121.0Q143.7 120.4 143.7 119.5L143.7 119.5Q143.7 118.7 143.2 118.3Q142.6 117.8 141.4 117.5L141.4 117.5L139.0 117.0Q134.5 115.9 134.5 112.6L134.5 112.6Q134.5 110.5 136.2 109.2Q137.9 108.0 140.6 108.0L140.6 108.0Q142.7 108.0 144.2 108.9Q145.8 109.8 146.1 111.2L146.1 111.2Q146.2 111.6 146.2 111.7L146.2 111.7Q146.2 112.2 145.8 112.5Q145.5 112.9 144.9 112.9L144.9 112.9Q144.1 112.9 143.7 112.2L143.7 112.2Q143.1 111.3 142.4 110.8Q141.6 110.4 140.5 110.4L140.5 110.4Q139.2 110.4 138.4 111.0Q137.6 111.5 137.6 112.4L137.6 112.4Q137.6 113.9 140.0 114.5L140.0 114.5L142.4 115.0Q144.8 115.6 145.8 116.5Q146.9 117.5 146.9 119.2L146.9 119.2Q146.9 121.3 145.1 122.6Q143.3 124.0 140.5 124.0ZM155.1 123.9L155.1 123.9Q152.2 123.9 150.4 121.8Q148.6 119.6 148.6 116.0Q148.6 112.3 150.4 110.2Q152.1 108.0 155.1 108.0L155.1 108.0Q156.7 108.0 158.0 108.8Q159.2 109.5 159.9 110.8L159.9 110.8L160.0 110.8L160.0 103.9Q160.0 103.1 160.4 102.7Q160.8 102.2 161.6 102.2L161.6 102.2Q162.3 102.2 162.7 102.7Q163.1 103.2 163.1 103.9L163.1 103.9L163.1 122.4Q163.1 123.1 162.7 123.5Q162.3 123.9 161.6 123.9L161.6 123.9Q160.9 123.9 160.4 123.5Q160.0 123.1 160.0 122.4L160.0 122.4L160.0 120.9L159.9 120.9Q159.3 122.3 158.1 123.1Q156.8 123.9 155.1 123.9ZM155.9 121.2L155.9 121.2Q157.8 121.2 158.9 119.8Q160.0 118.4 160.0 116.0L160.0 116.0Q160.0 113.6 158.9 112.1Q157.8 110.7 155.9 110.7L155.9 110.7Q154.1 110.7 153.0 112.1Q151.9 113.5 151.9 116.0L151.9 116.0Q151.9 118.4 153.0 119.8Q154.1 121.2 155.9 121.2ZM170.9 123.9L170.9 123.9Q168.6 123.9 167.2 122.6Q165.7 121.3 165.7 119.3L165.7 119.3Q165.7 117.3 167.2 116.1Q168.7 114.9 171.5 114.7L171.5 114.7L175.7 114.5L175.7 113.3Q175.7 112.0 174.9 111.3Q174.1 110.6 172.6 110.6L172.6 110.6Q171.5 110.6 170.7 111.0Q169.9 111.5 169.2 112.5L169.2 112.5Q168.7 113.2 167.9 113.2L167.9 113.2Q167.3 113.2 166.9 112.8Q166.5 112.4 166.5 111.9L166.5 111.9Q166.5 111.3 166.8 110.8L166.8 110.8Q167.4 109.5 169.0 108.8Q170.6 108.0 172.7 108.0L172.7 108.0Q175.5 108.0 177.2 109.4Q178.9 110.7 178.9 113.0L178.9 113.0L178.9 122.3Q178.9 123.1 178.4 123.5Q178.0 123.9 177.3 123.9L177.3 123.9Q176.7 123.9 176.3 123.5Q175.8 123.1 175.8 122.4L175.8 122.4L175.8 121.1L175.7 121.1Q175.1 122.4 173.7 123.2Q172.4 123.9 170.9 123.9ZM171.7 121.4L171.7 121.4Q173.4 121.4 174.6 120.4Q175.7 119.4 175.7 117.9L175.7 117.9L175.7 116.7L171.9 116.9Q170.5 117.0 169.7 117.6Q168.9 118.2 168.9 119.2L168.9 119.2Q168.9 120.2 169.7 120.8Q170.5 121.4 171.7 121.4ZM183.8 129.4L183.8 129.4Q182.7 129.4 182.1 129.0Q181.5 128.6 181.5 127.9L181.5 127.9Q181.5 127.4 181.9 127.1Q182.2 126.8 182.8 126.8L182.8 126.8Q182.9 126.8 183.2 126.8Q183.4 126.8 183.6 126.8L183.6 126.8Q185.2 126.8 185.9 124.7L185.9 124.7L186.2 123.8L181.1 110.3Q180.9 109.9 180.9 109.4L180.9 109.4Q180.9 108.8 181.4 108.4Q181.8 108.0 182.5 108.0L182.5 108.0Q183.1 108.0 183.5 108.3Q183.8 108.5 184.0 109.2L184.0 109.2L188.0 120.8L188.0 120.8L191.9 109.2Q192.1 108.5 192.5 108.3Q192.9 108.0 193.5 108.0L193.5 108.0Q194.1 108.0 194.6 108.4Q195.0 108.8 195.0 109.4L195.0 109.4Q195.0 109.8 194.8 110.3L194.8 110.3L189.5 124.4Q188.5 127.2 187.2 128.3Q186.0 129.4 183.8 129.4Z M210.2 123.9L210.2 123.9Q209.5 123.9 209.0 123.5Q208.6 123.0 208.6 122.3L208.6 122.3L208.6 105.9L208.5 105.9L204.9 108.4Q204.4 108.7 203.9 108.7L203.9 108.7Q203.3 108.7 203.0 108.4Q202.7 108.0 202.7 107.5L202.7 107.5Q202.7 106.7 203.5 106.1L203.5 106.1L207.9 103.0Q208.5 102.6 209.0 102.4Q209.4 102.2 210.0 102.2L210.0 102.2Q210.8 102.2 211.3 102.7Q211.8 103.2 211.8 104.1L211.8 104.1L211.8 122.3Q211.8 123.0 211.4 123.5Q210.9 123.9 210.2 123.9Z M226.2 123.4Q225.7 123.9 225.0 123.9Q224.2 123.9 223.8 123.4Q223.3 123.0 223.3 122.2L223.3 122.2L223.3 104.2Q223.3 103.4 223.8 103.0Q224.2 102.5 225.0 102.5L225.0 102.5L235.2 102.5Q235.9 102.5 236.3 102.9Q236.8 103.3 236.8 103.9Q236.8 104.6 236.3 105.0Q235.9 105.4 235.2 105.4L235.2 105.4L226.6 105.4L226.6 112.0L234.5 112.0Q235.1 112.0 235.5 112.4Q235.9 112.8 235.9 113.4Q235.9 114.1 235.5 114.4Q235.1 114.8 234.5 114.8L234.5 114.8L226.6 114.8L226.6 122.2Q226.6 123.0 226.2 123.4ZM245.7 124.0L245.7 124.0Q242.2 124.0 240.3 121.9Q238.3 119.8 238.3 116.0L238.3 116.0Q238.3 112.4 240.3 110.2Q242.2 108.0 245.5 108.0L245.5 108.0Q248.5 108.0 250.5 110.0Q252.4 112.0 252.4 115.1L252.4 115.1Q252.4 115.9 252.0 116.3Q251.6 116.8 250.8 116.8L250.8 116.8L241.5 116.8L241.5 116.8Q241.5 118.9 242.6 120.2Q243.7 121.4 245.6 121.4L245.6 121.4Q246.9 121.4 247.8 120.9Q248.7 120.4 249.6 119.2L249.6 119.2Q250.1 118.6 250.7 118.6L250.7 118.6Q251.3 118.6 251.7 119.0Q252.0 119.3 252.0 119.9L252.0 119.9Q252.0 120.3 251.8 120.8L251.8 120.8Q251.1 122.3 249.5 123.1Q247.8 124.0 245.7 124.0ZM241.5 114.5L241.5 114.5L249.2 114.5Q249.2 112.7 248.1 111.6Q247.1 110.5 245.5 110.5L245.5 110.5Q243.8 110.5 242.7 111.6Q241.7 112.7 241.5 114.5ZM256.5 123.9L256.5 123.9Q255.8 123.9 255.4 123.5Q255.0 123.1 255.0 122.4L255.0 122.4L255.0 103.9Q255.0 103.2 255.4 102.7Q255.8 102.2 256.5 102.2Q257.3 102.2 257.7 102.7Q258.1 103.2 258.1 103.9L258.1 103.9L258.1 110.9L258.2 110.9Q258.9 109.5 260.2 108.8Q261.5 108.0 263.1 108.0L263.1 108.0Q266.0 108.0 267.7 110.2Q269.5 112.3 269.5 116.0L269.5 116.0Q269.5 119.6 267.7 121.8Q266.0 123.9 263.1 123.9L263.1 123.9Q261.4 123.9 260.1 123.2Q258.8 122.4 258.1 121.0L258.1 121.0L258.0 121.0L258.0 122.4Q258.0 123.1 257.6 123.5Q257.2 123.9 256.5 123.9ZM262.2 121.2L262.2 121.2Q264.1 121.2 265.2 119.8Q266.2 118.4 266.2 116.0L266.2 116.0Q266.2 113.5 265.2 112.1Q264.1 110.7 262.2 110.7L262.2 110.7Q260.4 110.7 259.3 112.1Q258.1 113.6 258.1 116.0L258.1 116.0Q258.1 118.3 259.3 119.8Q260.4 121.2 262.2 121.2ZM273.5 123.9L273.5 123.9Q272.8 123.9 272.4 123.5Q271.9 123.0 271.9 122.3L271.9 122.3L271.9 109.6Q271.9 108.9 272.4 108.4Q272.8 108.0 273.5 108.0L273.5 108.0Q274.1 108.0 274.5 108.4Q274.9 108.9 274.9 109.6L274.9 109.6L274.9 110.9L275.0 110.9Q275.3 109.6 276.3 108.8Q277.2 108.0 278.4 108.0L278.4 108.0Q279.2 108.0 279.6 108.4L279.6 108.4Q280.1 108.7 280.1 109.5L280.1 109.5Q280.1 110.2 279.6 110.6L279.6 110.6Q279.1 111.0 278.2 111.0L278.2 111.0Q276.6 111.0 275.9 112.0Q275.1 112.9 275.1 114.4L275.1 114.4L275.1 122.3Q275.1 123.0 274.7 123.5Q274.2 123.9 273.5 123.9ZM287.1 123.9L287.1 123.9Q284.6 123.9 283.2 122.4Q281.7 120.9 281.7 118.2L281.7 118.2L281.7 109.7Q281.7 108.9 282.1 108.4Q282.6 108.0 283.3 108.0L283.3 108.0Q284.0 108.0 284.4 108.4Q284.9 108.9 284.9 109.7L284.9 109.7L284.9 117.6Q284.9 119.4 285.7 120.3Q286.5 121.2 288.2 121.2L288.2 121.2Q289.9 121.2 290.9 120.1Q291.8 119.0 291.8 117.2L291.8 117.2L291.8 109.7Q291.8 108.9 292.3 108.4Q292.7 108.0 293.4 108.0L293.4 108.0Q294.1 108.0 294.6 108.4Q295 108.9 295 109.7L295 109.7L295 122.3Q295 123.1 294.6 123.5Q294.2 123.9 293.5 123.9Q292.8 123.9 292.4 123.5Q292.0 123.1 292.0 122.3L292.0 122.3L292.0 121.1L291.9 121.1Q290.6 123.9 287.1 123.9ZM302.6 123.9L302.6 123.9Q300.4 123.9 298.9 122.6Q297.5 121.3 297.5 119.3L297.5 119.3Q297.5 117.3 299.0 116.1Q300.5 114.9 303.2 114.7L303.2 114.7L307.5 114.5L307.5 113.3Q307.5 112.0 306.6 111.3Q305.8 110.6 304.4 110.6L304.4 110.6Q303.2 110.6 302.4 111.0Q301.6 111.5 300.9 112.5L300.9 112.5Q300.5 113.2 299.7 113.2L299.7 113.2Q299.1 113.2 298.7 112.8Q298.3 112.4 298.3 111.9L298.3 111.9Q298.3 111.3 298.6 110.8L298.6 110.8Q299.2 109.5 300.8 108.8Q302.4 108.0 304.5 108.0L304.5 108.0Q307.3 108.0 308.9 109.4Q310.6 110.7 310.6 113.0L310.6 113.0L310.6 122.3Q310.6 123.1 310.2 123.5Q309.8 123.9 309.1 123.9L309.1 123.9Q308.4 123.9 308.0 123.5Q307.6 123.1 307.6 122.4L307.6 122.4L307.6 121.1L307.5 121.1Q306.8 122.4 305.5 123.2Q304.2 123.9 302.6 123.9ZM303.5 121.4L303.5 121.4Q305.2 121.4 306.3 120.4Q307.5 119.4 307.5 117.9L307.5 117.9L307.5 116.7L303.6 116.9Q302.2 117.0 301.5 117.6Q300.7 118.2 300.7 119.2L300.7 119.2Q300.7 120.2 301.5 120.8Q302.2 121.4 303.5 121.4ZM315.2 123.9L315.2 123.9Q314.5 123.9 314.1 123.5Q313.7 123.0 313.7 122.3L313.7 122.3L313.7 109.6Q313.7 108.9 314.1 108.4Q314.5 108.0 315.2 108.0L315.2 108.0Q315.8 108.0 316.2 108.4Q316.7 108.9 316.7 109.6L316.7 109.6L316.7 110.9L316.7 110.9Q317.1 109.6 318.0 108.8Q319.0 108.0 320.1 108.0L320.1 108.0Q321.0 108.0 321.4 108.4L321.4 108.4Q321.8 108.7 321.8 109.5L321.8 109.5Q321.8 110.2 321.3 110.6L321.3 110.6Q320.9 111.0 319.9 111.0L319.9 111.0Q318.3 111.0 317.6 112.0Q316.8 112.9 316.8 114.4L316.8 114.4L316.8 122.3Q316.8 123.0 316.4 123.5Q315.9 123.9 315.2 123.9ZM325.4 129.4L325.4 129.4Q324.3 129.4 323.7 129.0Q323.1 128.6 323.1 127.9L323.1 127.9Q323.1 127.4 323.5 127.1Q323.8 126.8 324.4 126.8L324.4 126.8Q324.5 126.8 324.8 126.8Q325 126.8 325.2 126.8L325.2 126.8Q326.8 126.8 327.5 124.7L327.5 124.7L327.8 123.8L322.7 110.3Q322.5 109.9 322.5 109.4L322.5 109.4Q322.5 108.8 322.9 108.4Q323.4 108.0 324.1 108.0L324.1 108.0Q324.7 108.0 325.1 108.3Q325.4 108.5 325.6 109.2L325.6 109.2L329.6 120.8L329.6 120.8L333.5 109.2Q333.7 108.5 334.1 108.3Q334.4 108.0 335.0 108.0L335.0 108.0Q335.7 108.0 336.2 108.4Q336.6 108.8 336.6 109.4L336.6 109.4Q336.6 109.8 336.4 110.3L336.4 110.3L331.1 124.4Q330.1 127.2 328.8 128.3Q327.5 129.4 325.4 129.4Z M358.0 123.7L346.3 123.7Q345.6 123.7 345.2 123.3Q344.8 122.9 344.8 122.3L344.8 122.3Q344.8 121.8 345.0 121.5Q345.2 121.1 345.7 120.6L345.7 120.6L352.3 113.9Q354.4 111.8 355.1 110.7Q355.7 109.6 355.7 108.3L355.7 108.3Q355.7 106.8 354.7 105.8Q353.7 104.8 352.1 104.8L352.1 104.8Q348.9 104.8 347.8 108.0L347.8 108.0Q347.6 108.5 347.2 108.8Q346.9 109.0 346.3 109.0L346.3 109.0Q345.7 109.0 345.3 108.6Q344.9 108.3 344.9 107.6L344.9 107.6Q344.9 107.3 345.0 107.0L345.0 107.0Q345.1 106.1 345.7 105.3Q346.2 104.4 347.1 103.7Q348.0 103.0 349.3 102.6Q350.6 102.1 352.1 102.1L352.1 102.1Q355.1 102.1 357.0 103.8Q359.0 105.5 359.0 108.1L359.0 108.1Q359.0 109.9 358.0 111.5Q357.0 113.0 354.3 115.8L354.3 115.8L349.2 120.8L349.2 120.9L358.0 120.9Q358.7 120.9 359.1 121.3Q359.5 121.7 359.5 122.3L359.5 122.3Q359.5 122.9 359.1 123.3Q358.7 123.7 358.0 123.7L358.0 123.7ZM375.9 121.1Q373.8 124.1 370.0 124.1Q366.2 124.1 364.0 121.1Q361.9 118.2 361.9 113.1L361.9 113.1Q361.9 108.0 364.0 105.1Q366.2 102.1 370.0 102.1L370.0 102.1Q373.7 102.1 375.9 105.1Q378.0 108.0 378.0 113.1L378.0 113.1Q378.0 118.1 375.9 121.1ZM370.0 121.3L370.0 121.3Q372.2 121.3 373.5 119.1Q374.7 116.9 374.7 113.1L374.7 113.1Q374.7 109.3 373.5 107.1Q372.2 104.9 370.0 104.9Q367.7 104.9 366.4 107.1Q365.2 109.3 365.2 113.1L365.2 113.1Q365.2 116.9 366.4 119.1Q367.7 121.3 370.0 121.3ZM394.1 123.7L382.4 123.7Q381.7 123.7 381.3 123.3Q380.9 122.9 380.9 122.3L380.9 122.3Q380.9 121.8 381.1 121.5Q381.3 121.1 381.8 120.6L381.8 120.6L388.4 113.9Q390.5 111.8 391.1 110.7Q391.8 109.6 391.8 108.3L391.8 108.3Q391.8 106.8 390.8 105.8Q389.7 104.8 388.1 104.8L388.1 104.8Q385.0 104.8 383.9 108.0L383.9 108.0Q383.7 108.5 383.3 108.8Q383.0 109.0 382.4 109.0L382.4 109.0Q381.7 109.0 381.4 108.6Q381.0 108.3 381.0 107.6L381.0 107.6Q381.0 107.3 381.1 107.0L381.1 107.0Q381.2 106.1 381.8 105.3Q382.3 104.4 383.2 103.7Q384.1 103.0 385.4 102.6Q386.7 102.1 388.2 102.1L388.2 102.1Q391.2 102.1 393.1 103.8Q395.1 105.5 395.1 108.1L395.1 108.1Q395.1 109.9 394.1 111.5Q393.1 113.0 390.4 115.8L390.4 115.8L385.3 120.8L385.3 120.9L394.1 120.9Q394.8 120.9 395.2 121.3Q395.6 121.7 395.6 122.3L395.6 122.3Q395.6 122.9 395.2 123.3Q394.8 123.7 394.1 123.7L394.1 123.7ZM405.7 124.1L405.7 124.1Q403.2 124.1 401.4 123.1Q399.6 122.2 398.7 120.6L398.7 120.6Q398.3 119.8 398.3 119.0L398.3 119.0Q398.3 118.3 398.7 117.9Q399.1 117.5 399.8 117.5L399.8 117.5Q400.3 117.5 400.6 117.8Q401.0 118.1 401.2 118.6L401.2 118.6Q402.3 121.3 405.7 121.3L405.7 121.3Q407.6 121.3 408.8 120.3Q410.0 119.4 410.0 117.8L410.0 117.8Q410.0 116.0 408.8 115.0Q407.6 114.0 405.5 114.0L405.5 114.0L404.1 114.0Q403.4 114.0 403.1 113.7Q402.7 113.3 402.7 112.8Q402.7 112.2 403.1 111.8Q403.4 111.5 404.1 111.5L404.1 111.5L405.4 111.5Q407.2 111.5 408.3 110.5Q409.4 109.6 409.4 108.1L409.4 108.1Q409.4 106.6 408.5 105.7Q407.5 104.8 405.7 104.8L405.7 104.8Q404.1 104.8 403.1 105.5Q402.2 106.1 401.6 107.5L401.6 107.5Q401.3 108.1 401.0 108.4Q400.7 108.6 400.1 108.6L400.1 108.6Q399.4 108.6 399.1 108.3Q398.7 107.9 398.7 107.2L398.7 107.2Q398.7 106.4 399.1 105.6L399.1 105.6Q399.9 104.0 401.6 103.1Q403.3 102.1 405.7 102.1L405.7 102.1Q408.8 102.1 410.7 103.7Q412.6 105.2 412.6 107.6L412.6 107.6Q412.6 109.6 411.4 110.9Q410.2 112.2 408.2 112.6L408.2 112.6L408.2 112.7Q410.5 112.9 411.9 114.3Q413.4 115.6 413.4 117.8L413.4 117.8Q413.4 120.6 411.2 122.3Q409.0 124.1 405.7 124.1Z "/><mask id="satori_om-id-0-0-1"><rect x="40" y="176" width="1120" height="165" fill="#fff"/></mask><path fill="#224d67" d="M67.5 238.6L47.5 238.6Q45.7 238.6 44.7 237.5Q43.7 236.5 43.7 234.7L43.7 234.7L43.7 199.7Q43.7 197.9 44.7 196.8Q45.7 195.8 47.5 195.8L47.5 195.8Q49.3 195.8 50.3 196.8Q51.3 197.9 51.3 199.7L51.3 199.7L51.3 232.2L67.5 232.2Q69.0 232.2 70.0 233.1Q70.9 233.9 70.9 235.4Q70.9 236.8 70 237.7Q69.1 238.6 67.5 238.6L67.5 238.6ZM99.9 234.9Q95.8 239.2 88.9 239.2Q82.0 239.2 77.9 234.9Q73.9 230.6 73.9 223.1L73.9 223.1Q73.9 215.6 78.0 211.2Q82.1 206.9 88.9 206.9L88.9 206.9Q95.8 206.9 99.8 211.2Q103.9 215.6 103.9 223.1L103.9 223.1Q103.9 230.6 99.9 234.9ZM83.3 230.7Q85.4 233.4 88.9 233.4Q92.4 233.4 94.5 230.7Q96.5 228.0 96.5 223.1L96.5 223.1Q96.5 218.2 94.5 215.4Q92.4 212.7 88.9 212.7L88.9 212.7Q85.4 212.7 83.3 215.4Q81.3 218.2 81.3 223.1L81.3 223.1Q81.3 228.0 83.3 230.7ZM114.9 238.1Q113.9 239.2 112.2 239.2Q110.6 239.2 109.6 238.1Q108.6 237.1 108.6 235.3L108.6 235.3L108.6 210.6Q108.6 208.9 109.6 207.9Q110.5 206.9 112.1 206.9L112.1 206.9Q113.6 206.9 114.6 207.9Q115.6 208.9 115.6 210.6L115.6 210.6L115.6 213.0L115.7 213.0Q116.3 210.3 118.2 208.6Q120.0 207.0 122.4 207.0L122.4 207.0Q124.1 207.0 124.9 207.8L124.9 207.8Q126.0 208.6 126.0 210.4L126.0 210.4Q126.0 212.1 124.9 213.0L124.9 213.0Q123.8 213.9 121.7 214.0L121.7 214.0Q115.9 214.0 115.9 220.4L115.9 220.4L115.9 235.3Q115.9 237.1 114.9 238.1ZM143.0 239.2L143.0 239.2Q135.9 239.2 131.9 235.0Q127.9 230.7 127.9 223.2L127.9 223.2Q127.9 215.7 131.9 211.3Q135.9 206.9 142.6 206.9L142.6 206.9Q149.0 206.9 153.0 210.9Q156.9 215.0 156.9 221.4L156.9 221.4Q156.9 223.0 156.0 223.9Q155.1 224.8 153.5 224.8L153.5 224.8L135.2 224.8L135.2 225.0Q135.2 228.9 137.3 231.3Q139.4 233.6 143.0 233.6L143.0 233.6Q145.4 233.6 147.2 232.6Q149.0 231.7 150.7 229.4L150.7 229.4Q151.8 228.3 153.2 228.3L153.2 228.3Q154.5 228.3 155.3 229.0Q156.1 229.8 156.1 231.1L156.1 231.1Q156.1 231.9 155.6 232.9L155.6 232.9Q154.1 235.9 150.8 237.5Q147.5 239.2 143.0 239.2ZM135.3 220.0L135.3 220.0L149.8 220.0Q149.7 216.6 147.7 214.6Q145.7 212.5 142.7 212.5Q139.6 212.5 137.5 214.6Q135.5 216.7 135.3 220.0ZM165.2 239.2L165.2 239.2Q163.6 239.2 162.6 238.2Q161.6 237.1 161.6 235.3L161.6 235.3L161.6 210.6Q161.6 208.9 162.6 207.9Q163.5 206.9 165.1 206.9Q166.7 206.9 167.6 207.9Q168.6 208.9 168.6 210.6L168.6 210.6L168.6 212.9L168.8 212.9Q169.8 210.2 172.1 208.5Q174.5 206.9 177.6 206.9L177.6 206.9Q180.9 206.9 183.2 208.6Q185.4 210.2 186.3 213.2L186.3 213.2L186.5 213.2Q187.6 210.3 190.2 208.6Q192.8 206.9 196.1 206.9L196.1 206.9Q200.7 206.9 203.5 209.8Q206.3 212.6 206.3 217.3L206.3 217.3L206.3 235.3Q206.3 237.1 205.3 238.1Q204.3 239.2 202.6 239.2L202.6 239.2Q201.0 239.2 200.0 238.1Q199.0 237.1 199.0 235.3L199.0 235.3L199.0 219.1Q199.0 216.2 197.5 214.6Q196.1 213.1 193.4 213.1L193.4 213.1Q190.8 213.1 189.1 214.8Q187.5 216.6 187.5 219.4L187.5 219.4L187.5 235.3Q187.5 237.1 186.5 238.2Q185.6 239.2 183.9 239.2L183.9 239.2Q182.3 239.2 181.3 238.2Q180.4 237.1 180.4 235.3L180.4 235.3L180.4 218.7Q180.4 216.1 178.9 214.6Q177.4 213.1 174.9 213.1L174.9 213.1Q172.2 213.1 170.6 214.9Q168.9 216.8 168.9 219.6L168.9 219.6L168.9 235.3Q168.9 237.1 167.9 238.1Q166.9 239.2 165.2 239.2Z M230.8 202.0Q229.6 203.2 227.9 203.2Q226.2 203.2 225.0 202.0Q223.9 200.8 223.9 199.2L223.9 199.2Q223.9 197.5 225.0 196.4Q226.2 195.2 227.9 195.2L227.9 195.2Q229.6 195.2 230.8 196.4Q232.0 197.5 232.0 199.2L232.0 199.2Q232.0 200.8 230.8 202.0ZM230.6 238.1Q229.6 239.2 227.9 239.2Q226.2 239.2 225.3 238.1Q224.3 237.1 224.3 235.3L224.3 235.3L224.3 210.7Q224.3 209.0 225.3 207.9Q226.2 206.9 227.9 206.9Q229.6 206.9 230.6 207.9Q231.6 209.0 231.6 210.8L231.6 210.8L231.6 235.3Q231.6 237.1 230.6 238.1ZM244.0 248.6Q243.0 249.6 241.3 249.6Q239.7 249.6 238.7 248.6Q237.7 247.6 237.7 245.8L237.7 245.8L237.7 210.7Q237.7 208.9 238.7 207.9Q239.7 206.9 241.2 206.9L241.2 206.9Q242.9 206.9 243.8 207.9Q244.8 208.9 244.8 210.7L244.8 210.7L244.8 212.9L245.0 212.9Q246.3 210.1 248.9 208.6Q251.4 207.0 254.7 207.0L254.7 207.0Q260.7 207.0 264.2 211.3Q267.6 215.6 267.6 223.1L267.6 223.1Q267.6 230.5 264.2 234.8Q260.7 239.1 254.9 239.1L254.9 239.1Q251.5 239.1 249.0 237.6Q246.4 236.1 245.1 233.4L245.1 233.4L245.0 233.4L245.0 245.8Q245.0 247.6 244.0 248.6ZM252.5 233.1L252.5 233.1Q256.1 233.1 258.1 230.4Q260.2 227.7 260.2 223.1L260.2 223.1Q260.2 218.5 258.1 215.7Q256.0 213.0 252.5 213.0L252.5 213.0Q249.1 213.0 247.0 215.8Q245.0 218.5 244.9 223.1L244.9 223.1Q245.0 227.6 247.0 230.4Q249.1 233.1 252.5 233.1ZM284.3 239.2L284.3 239.2Q279.5 239.2 276.1 237.5Q272.8 235.8 271.7 233.0L271.7 233.0Q271.4 232.2 271.4 231.5L271.4 231.5Q271.4 230.2 272.2 229.4Q273.1 228.6 274.4 228.6L274.4 228.6Q276.2 228.6 277.6 230.4L277.6 230.4Q278.8 232.3 280.4 233.1Q282.0 233.9 284.6 233.9L284.6 233.9Q287.1 233.9 288.7 232.9Q290.2 231.8 290.2 230.1L290.2 230.1Q290.2 228.7 289.2 227.8Q288.2 227.0 285.9 226.4L285.9 226.4L280.8 225.3Q271.8 223.3 271.8 216.4L271.8 216.4Q271.8 212.1 275.2 209.5Q278.7 206.9 284.4 206.9L284.4 206.9Q288.8 206.9 292.0 208.8Q295.3 210.6 296.0 213.4L296.0 213.4Q296.1 214.0 296.1 214.5L296.1 214.5Q296.1 215.6 295.4 216.4Q294.7 217.1 293.3 217.1L293.3 217.1Q291.5 217.1 290.5 215.7L290.5 215.7Q289.4 214.0 287.9 213.1Q286.4 212.2 284.2 212.2L284.2 212.2Q281.8 212.2 280.4 213.3Q278.9 214.3 278.9 216.0L278.9 216.0Q278.9 218.8 283.4 219.8L283.4 219.8L288.4 220.9Q293.3 222.0 295.4 223.9Q297.5 225.9 297.5 229.3L297.5 229.3Q297.5 233.8 293.9 236.5Q290.3 239.2 284.3 239.2ZM313.0 239.1L313.0 239.1Q307.9 239.1 305.0 236.0Q302.0 233.0 302.0 227.6L302.0 227.6L302.0 210.7Q302.0 209.0 303.0 207.9Q304.0 206.9 305.6 206.9Q307.3 206.9 308.3 207.9Q309.3 209.0 309.3 210.8L309.3 210.8L309.3 226.1Q309.3 229.5 310.9 231.2Q312.5 233.0 315.6 233.0L315.6 233.0Q318.7 233.0 320.5 230.9Q322.4 228.9 322.4 225.5L322.4 225.5L322.4 210.7Q322.4 209.0 323.4 207.9Q324.4 206.9 326.1 206.9L326.1 206.9Q327.7 206.9 328.7 207.9Q329.7 209.0 329.7 210.8L329.7 210.8L329.7 235.5Q329.7 237.2 328.7 238.2Q327.8 239.2 326.2 239.2L326.2 239.2Q324.6 239.2 323.6 238.2Q322.7 237.2 322.7 235.5L322.7 235.5L322.7 233.2L322.5 233.2Q319.9 239.1 313.0 239.1ZM339.3 239.2L339.3 239.2Q337.6 239.2 336.6 238.2Q335.6 237.1 335.6 235.3L335.6 235.3L335.6 210.6Q335.6 208.9 336.6 207.9Q337.5 206.9 339.1 206.9Q340.7 206.9 341.7 207.9Q342.6 208.9 342.6 210.6L342.6 210.6L342.6 212.9L342.8 212.9Q343.8 210.2 346.2 208.5Q348.5 206.9 351.6 206.9L351.6 206.9Q354.9 206.9 357.2 208.6Q359.5 210.2 360.3 213.2L360.3 213.2L360.5 213.2Q361.6 210.3 364.2 208.6Q366.8 206.9 370.1 206.9L370.1 206.9Q374.7 206.9 377.5 209.8Q380.3 212.6 380.3 217.3L380.3 217.3L380.3 235.3Q380.3 237.1 379.3 238.1Q378.3 239.2 376.7 239.2L376.7 239.2Q375.0 239.2 374.0 238.1Q373.0 237.1 373.0 235.3L373.0 235.3L373.0 219.1Q373.0 216.2 371.5 214.6Q370.1 213.1 367.4 213.1L367.4 213.1Q364.8 213.1 363.1 214.8Q361.5 216.6 361.5 219.4L361.5 219.4L361.5 235.3Q361.5 237.1 360.6 238.2Q359.6 239.2 358.0 239.2L358.0 239.2Q356.3 239.2 355.4 238.2Q354.4 237.1 354.4 235.3L354.4 235.3L354.4 218.7Q354.4 216.1 352.9 214.6Q351.5 213.1 348.9 213.1L348.9 213.1Q346.3 213.1 344.6 214.9Q342.9 216.8 342.9 219.6L342.9 219.6L342.9 235.3Q342.9 237.1 341.9 238.1Q340.9 239.2 339.3 239.2Z M409.7 239.1L409.7 239.1Q403.8 239.1 400.3 234.7Q396.8 230.4 396.8 223.0L396.8 223.0Q396.8 215.7 400.3 211.3Q403.8 207.0 409.7 207.0L409.7 207.0Q413.0 207.0 415.5 208.5Q418.1 210.1 419.3 212.7L419.3 212.7L419.5 212.7L419.5 199.6Q419.5 197.7 420.5 196.7Q421.5 195.7 423.1 195.7Q424.8 195.7 425.8 196.7Q426.8 197.7 426.8 199.6L426.8 199.6L426.8 235.5Q426.8 237.2 425.8 238.2Q424.8 239.2 423.2 239.2L423.2 239.2Q421.6 239.2 420.5 238.2Q419.5 237.2 419.5 235.5L419.5 235.5L419.5 233.1L419.4 233.1Q418.2 235.9 415.7 237.5Q413.2 239.1 409.7 239.1ZM411.9 233.1L411.9 233.1Q415.4 233.1 417.5 230.4Q419.5 227.7 419.5 223.1L419.5 223.1Q419.5 218.5 417.5 215.7Q415.4 213.0 411.9 213.0L411.9 213.0Q408.4 213.0 406.4 215.7Q404.3 218.4 404.3 223.1L404.3 223.1Q404.3 227.7 406.3 230.4Q408.4 233.1 411.9 233.1ZM457.6 234.9Q453.6 239.2 446.7 239.2Q439.8 239.2 435.7 234.9Q431.6 230.6 431.6 223.1L431.6 223.1Q431.6 215.6 435.7 211.2Q439.8 206.9 446.7 206.9L446.7 206.9Q453.5 206.9 457.6 211.2Q461.7 215.6 461.7 223.1L461.7 223.1Q461.7 230.6 457.6 234.9ZM441.1 230.7Q443.2 233.4 446.7 233.4Q450.2 233.4 452.2 230.7Q454.3 228.0 454.3 223.1L454.3 223.1Q454.3 218.2 452.2 215.4Q450.2 212.7 446.7 212.7L446.7 212.7Q443.2 212.7 441.1 215.4Q439.1 218.2 439.1 223.1L439.1 223.1Q439.1 228.0 441.1 230.7ZM472.9 238.2Q471.9 239.2 470.3 239.2Q468.6 239.2 467.6 238.2Q466.6 237.1 466.6 235.3L466.6 235.3L466.6 199.6Q466.6 197.7 467.6 196.7Q468.6 195.7 470.3 195.7Q471.9 195.7 472.9 196.7Q473.9 197.7 473.9 199.6L473.9 199.6L473.9 235.3Q473.9 237.1 472.9 238.2ZM504.8 234.9Q500.7 239.2 493.8 239.2Q487.0 239.2 482.9 234.9Q478.8 230.6 478.8 223.1L478.8 223.1Q478.8 215.6 482.9 211.2Q487.0 206.9 493.8 206.9L493.8 206.9Q500.7 206.9 504.8 211.2Q508.9 215.6 508.9 223.1L508.9 223.1Q508.9 230.6 504.8 234.9ZM488.3 230.7Q490.3 233.4 493.8 233.4Q497.4 233.4 499.4 230.7Q501.5 228.0 501.5 223.1L501.5 223.1Q501.5 218.2 499.4 215.4Q497.4 212.7 493.8 212.7L493.8 212.7Q490.4 212.7 488.3 215.4Q486.2 218.2 486.2 223.1L486.2 223.1Q486.2 228.0 488.3 230.7ZM519.9 238.1Q518.9 239.2 517.2 239.2Q515.5 239.2 514.5 238.1Q513.6 237.1 513.6 235.3L513.6 235.3L513.6 210.6Q513.6 208.9 514.5 207.9Q515.5 206.9 517.0 206.9L517.0 206.9Q518.6 206.9 519.5 207.9Q520.5 208.9 520.5 210.6L520.5 210.6L520.5 213.0L520.6 213.0Q521.3 210.3 523.1 208.6Q525.0 207.0 527.3 207.0L527.3 207.0Q529.0 207.0 529.9 207.8L529.9 207.8Q530.9 208.6 530.9 210.4L530.9 210.4Q530.9 212.1 529.8 213.0L529.8 213.0Q528.8 213.9 526.6 214.0L526.6 214.0Q520.8 214.0 520.8 220.4L520.8 220.4L520.8 235.3Q520.8 237.1 519.9 238.1Z M558.2 239.2L558.2 239.2Q553.3 239.2 550 237.5Q546.7 235.8 545.5 233.0L545.5 233.0Q545.2 232.2 545.2 231.5L545.2 231.5Q545.2 230.2 546.1 229.4Q546.9 228.6 548.3 228.6L548.3 228.6Q550.1 228.6 551.4 230.4L551.4 230.4Q552.7 232.3 554.3 233.1Q555.9 233.9 558.4 233.9L558.4 233.9Q561.0 233.9 562.6 232.9Q564.1 231.8 564.1 230.1L564.1 230.1Q564.1 228.7 563.1 227.8Q562.1 227.0 559.7 226.4L559.7 226.4L554.7 225.3Q545.6 223.3 545.6 216.4L545.6 216.4Q545.6 212.1 549.1 209.5Q552.5 206.9 558.3 206.9L558.3 206.9Q562.7 206.9 565.9 208.8Q569.1 210.6 569.9 213.4L569.9 213.4Q570.0 214.0 570.0 214.5L570.0 214.5Q570.0 215.6 569.3 216.4Q568.5 217.1 567.2 217.1L567.2 217.1Q565.4 217.1 564.4 215.7L564.4 215.7Q563.3 214.0 561.8 213.1Q560.3 212.2 558.1 212.2L558.1 212.2Q555.7 212.2 554.2 213.3Q552.7 214.3 552.7 216.0L552.7 216.0Q552.7 218.8 557.3 219.8L557.3 219.8L562.2 220.9Q567.2 222.0 569.3 223.9Q571.4 225.9 571.4 229.3L571.4 229.3Q571.4 233.8 567.8 236.5Q564.1 239.2 558.2 239.2ZM582.7 202.0Q581.5 203.2 579.8 203.2Q578.1 203.2 577.0 202.0Q575.8 200.8 575.8 199.2L575.8 199.2Q575.8 197.5 577.0 196.4Q578.1 195.2 579.8 195.2L579.8 195.2Q581.6 195.2 582.7 196.4Q583.9 197.5 583.9 199.2L583.9 199.2Q583.9 200.8 582.7 202.0ZM582.5 238.1Q581.5 239.2 579.8 239.2Q578.2 239.2 577.2 238.1Q576.2 237.1 576.2 235.3L576.2 235.3L576.2 210.7Q576.2 209.0 577.2 207.9Q578.2 206.9 579.8 206.9Q581.5 206.9 582.5 207.9Q583.5 209.0 583.5 210.8L583.5 210.8L583.5 235.3Q583.5 237.1 582.5 238.1ZM591.6 230.9L591.6 230.9L591.6 213.1L589.7 213.1Q588.3 213.1 587.5 212.4Q586.7 211.6 586.7 210.3L586.7 210.3Q586.7 209.0 587.5 208.3Q588.3 207.5 589.7 207.5L589.7 207.5L591.6 207.5L591.6 203.4Q591.6 201.6 592.6 200.6Q593.6 199.6 595.3 199.6L595.3 199.6Q597.0 199.6 597.9 200.6Q598.9 201.6 598.9 203.4L598.9 203.4L598.9 207.5L602.3 207.5Q603.7 207.5 604.4 208.3Q605.2 209.0 605.2 210.3L605.2 210.3Q605.2 211.6 604.4 212.4Q603.6 213.1 602.3 213.1L602.3 213.1L598.9 213.1L598.9 229.3Q598.9 231.1 599.6 231.9Q600.3 232.7 601.9 232.9L601.9 232.9L602.4 232.9Q605.3 233.2 605.3 235.6L605.3 235.6Q605.3 237.2 604.0 238.1Q602.6 238.9 600.1 238.9L600.1 238.9L599.8 238.9Q591.6 238.9 591.6 230.9ZM614.9 231.1L614.9 231.1Q616.4 231.1 617.3 231.9Q618.1 232.7 618.1 234.1L618.1 234.1Q618.1 235.0 617.9 235.8L617.9 235.8L615.4 245.8Q615.1 247.1 614.4 247.7Q613.7 248.3 612.4 248.3Q611.1 248.3 610.4 247.5Q609.6 246.8 609.7 245.6L609.7 245.6Q609.7 245.2 609.7 245.0L609.7 245.0L611.4 234.2Q611.9 231.1 614.9 231.1Z M647.0 239.1L647.0 239.1Q642.5 239.1 639.5 236.5Q636.6 233.9 636.6 229.7L636.6 229.7Q636.6 225.6 639.7 223.2Q642.8 220.8 648.4 220.4L648.4 220.4L656.7 219.9L656.7 217.7Q656.7 215.3 655.1 213.9Q653.6 212.6 650.9 212.6L650.9 212.6Q648.7 212.6 647.2 213.4Q645.7 214.2 644.4 216.2L644.4 216.2Q643.3 217.7 641.4 217.7L641.4 217.7Q640.1 217.7 639.2 216.9Q638.3 216.1 638.3 214.8L638.3 214.8Q638.3 213.8 638.8 212.8L638.8 212.8Q640 210.1 643.4 208.5Q646.7 206.9 651.2 206.9L651.2 206.9Q656.9 206.9 660.4 209.7Q663.9 212.5 663.9 217.2L663.9 217.2L663.9 235.5Q663.9 237.2 662.9 238.2Q661.9 239.2 660.3 239.2L660.3 239.2Q658.8 239.2 657.9 238.3Q656.9 237.4 656.8 235.8L656.8 235.8L656.8 233.6L656.7 233.6Q655.4 236.1 652.7 237.6Q650.0 239.1 647.0 239.1ZM649.2 233.6L649.2 233.6Q652.3 233.6 654.5 231.7Q656.7 229.8 656.7 227.1L656.7 227.1L656.7 224.7L649.5 225.1Q646.8 225.3 645.4 226.4Q643.9 227.6 643.9 229.4L643.9 229.4Q643.9 231.3 645.4 232.4Q646.8 233.6 649.2 233.6ZM673.4 239.2L673.4 239.2Q671.7 239.2 670.7 238.2Q669.7 237.1 669.7 235.3L669.7 235.3L669.7 210.6Q669.7 208.9 670.7 207.9Q671.6 206.9 673.2 206.9Q674.8 206.9 675.8 207.9Q676.7 208.9 676.7 210.6L676.7 210.6L676.7 212.9L676.9 212.9Q677.9 210.2 680.3 208.5Q682.6 206.9 685.7 206.9L685.7 206.9Q689.0 206.9 691.3 208.6Q693.6 210.2 694.4 213.2L694.4 213.2L694.6 213.2Q695.7 210.3 698.3 208.6Q700.9 206.9 704.2 206.9L704.2 206.9Q708.8 206.9 711.6 209.8Q714.4 212.6 714.4 217.3L714.4 217.3L714.4 235.3Q714.4 237.1 713.4 238.1Q712.4 239.2 710.8 239.2L710.8 239.2Q709.1 239.2 708.1 238.1Q707.1 237.1 707.1 235.3L707.1 235.3L707.1 219.1Q707.1 216.2 705.6 214.6Q704.2 213.1 701.5 213.1L701.5 213.1Q698.9 213.1 697.2 214.8Q695.6 216.6 695.6 219.4L695.6 219.4L695.6 235.3Q695.6 237.1 694.7 238.2Q693.7 239.2 692.1 239.2L692.1 239.2Q690.4 239.2 689.5 238.2Q688.5 237.1 688.5 235.3L688.5 235.3L688.5 218.7Q688.5 216.1 687.0 214.6Q685.6 213.1 683.0 213.1L683.0 213.1Q680.4 213.1 678.7 214.9Q677.0 216.8 677.0 219.6L677.0 219.6L677.0 235.3Q677.0 237.1 676.0 238.1Q675.0 239.2 673.4 239.2ZM734.0 239.2L734.0 239.2Q726.9 239.2 722.9 235.0Q718.9 230.7 718.9 223.2L718.9 223.2Q718.9 215.7 722.9 211.3Q726.9 206.9 733.6 206.9L733.6 206.9Q740.0 206.9 743.9 210.9Q747.9 215.0 747.9 221.4L747.9 221.4Q747.9 223.0 747.0 223.9Q746.1 224.8 744.5 224.8L744.5 224.8L726.2 224.8L726.2 225.0Q726.2 228.9 728.3 231.3Q730.4 233.6 734.0 233.6L734.0 233.6Q736.4 233.6 738.2 232.6Q740.0 231.7 741.7 229.4L741.7 229.4Q742.8 228.3 744.2 228.3L744.2 228.3Q745.4 228.3 746.3 229.0Q747.1 229.8 747.1 231.1L747.1 231.1Q747.1 231.9 746.6 232.9L746.6 232.9Q745.1 235.9 741.7 237.5Q738.4 239.2 734.0 239.2ZM726.3 220.0L726.3 220.0L740.8 220.0Q740.6 216.6 738.7 214.6Q736.7 212.5 733.6 212.5Q730.6 212.5 728.5 214.6Q726.5 216.7 726.3 220.0ZM754.6 230.9L754.6 230.9L754.6 213.1L752.6 213.1Q751.3 213.1 750.5 212.4Q749.7 211.6 749.7 210.3L749.7 210.3Q749.7 209.0 750.5 208.3Q751.3 207.5 752.6 207.5L752.6 207.5L754.6 207.5L754.6 203.4Q754.6 201.6 755.6 200.6Q756.6 199.6 758.3 199.6L758.3 199.6Q759.9 199.6 760.9 200.6Q761.9 201.6 761.9 203.4L761.9 203.4L761.9 207.5L765.3 207.5Q766.7 207.5 767.4 208.3Q768.2 209.0 768.2 210.3L768.2 210.3Q768.2 211.6 767.4 212.4Q766.6 213.1 765.3 213.1L765.3 213.1L761.9 213.1L761.9 229.3Q761.9 231.1 762.6 231.9Q763.3 232.7 764.8 232.9L764.8 232.9L765.4 232.9Q768.3 233.2 768.3 235.6L768.3 235.6Q768.3 237.2 766.9 238.1Q765.6 238.9 763.1 238.9L763.1 238.9L762.8 238.9Q754.6 238.9 754.6 230.9Z M798.4 239.2L798.4 239.2Q791.6 239.2 787.5 234.9Q783.4 230.5 783.4 223.1L783.4 223.1Q783.4 215.7 787.5 211.3Q791.5 206.9 798.3 206.9L798.3 206.9Q802.9 206.9 806.4 209.0Q810.0 211.1 811.1 214.4L811.1 214.4Q811.5 215.4 811.5 216.1L811.5 216.1Q811.5 217.5 810.6 218.3Q809.7 219.1 808.3 219.1L808.3 219.1Q807.3 219.1 806.5 218.6Q805.8 218.1 805.1 217.0L805.1 217.0Q802.9 212.8 798.5 212.8L798.5 212.8Q795.0 212.8 792.9 215.6Q790.8 218.3 790.8 223.1L790.8 223.1Q790.8 227.9 792.9 230.6Q795.0 233.3 798.5 233.3L798.5 233.3Q802.9 233.3 805.1 229.3L805.1 229.3Q805.9 228.1 806.6 227.6Q807.3 227.1 808.5 227.1L808.5 227.1Q809.8 227.1 810.7 227.9Q811.6 228.7 811.6 230.1L811.6 230.1Q811.6 230.9 811.1 231.9L811.1 231.9Q809.8 235.1 806.3 237.2Q802.7 239.2 798.4 239.2ZM841.2 234.9Q837.1 239.2 830.2 239.2Q823.3 239.2 819.2 234.9Q815.2 230.6 815.2 223.1L815.2 223.1Q815.2 215.6 819.3 211.2Q823.4 206.9 830.2 206.9L830.2 206.9Q837.1 206.9 841.1 211.2Q845.2 215.6 845.2 223.1L845.2 223.1Q845.2 230.6 841.2 234.9ZM824.6 230.7Q826.7 233.4 830.2 233.4Q833.7 233.4 835.8 230.7Q837.8 228.0 837.8 223.1L837.8 223.1Q837.8 218.2 835.8 215.4Q833.7 212.7 830.2 212.7L830.2 212.7Q826.7 212.7 824.6 215.4Q822.6 218.2 822.6 223.1L822.6 223.1Q822.6 228.0 824.6 230.7ZM856.2 238.2Q855.2 239.2 853.5 239.2Q851.9 239.2 850.9 238.2Q849.9 237.1 849.9 235.3L849.9 235.3L849.9 210.6Q849.9 208.9 850.8 207.9Q851.8 206.9 853.4 206.9Q855.0 206.9 856.0 207.9Q857.0 208.9 857.0 210.6L857.0 210.6L857.0 212.8L857.1 212.8Q859.8 206.9 866.8 206.9L866.8 206.9Q871.9 206.9 874.7 210.0Q877.6 213.1 877.6 218.5L877.6 218.5L877.6 235.3Q877.6 237.1 876.6 238.2Q875.6 239.2 873.9 239.2Q872.3 239.2 871.3 238.2Q870.3 237.1 870.3 235.3L870.3 235.3L870.3 220.0Q870.3 216.6 868.7 214.9Q867.1 213.1 864.1 213.1L864.1 213.1Q860.9 213.1 859.1 215.2Q857.2 217.2 857.2 220.6L857.2 220.6L857.2 235.3Q857.2 237.1 856.2 238.2ZM895.4 239.2L895.4 239.2Q890.5 239.2 887.2 237.5Q883.9 235.8 882.7 233.0L882.7 233.0Q882.4 232.2 882.4 231.5L882.4 231.5Q882.4 230.2 883.3 229.4Q884.1 228.6 885.5 228.6L885.5 228.6Q887.3 228.6 888.6 230.4L888.6 230.4Q889.9 232.3 891.5 233.1Q893.1 233.9 895.6 233.9L895.6 233.9Q898.2 233.9 899.8 232.9Q901.3 231.8 901.3 230.1L901.3 230.1Q901.3 228.7 900.3 227.8Q899.3 227.0 896.9 226.4L896.9 226.4L891.9 225.3Q882.8 223.3 882.8 216.4L882.8 216.4Q882.8 212.1 886.3 209.5Q889.8 206.9 895.5 206.9L895.5 206.9Q899.9 206.9 903.1 208.8Q906.3 210.6 907.1 213.4L907.1 213.4Q907.2 214.0 907.2 214.5L907.2 214.5Q907.2 215.6 906.5 216.4Q905.8 217.1 904.4 217.1L904.4 217.1Q902.6 217.1 901.6 215.7L901.6 215.7Q900.5 214.0 899.0 213.1Q897.5 212.2 895.3 212.2L895.3 212.2Q892.9 212.2 891.4 213.3Q889.9 214.3 889.9 216.0L889.9 216.0Q889.9 218.8 894.5 219.8L894.5 219.8L899.5 220.9Q904.4 222.0 906.5 223.9Q908.6 225.9 908.6 229.3L908.6 229.3Q908.6 233.8 905.0 236.5Q901.3 239.2 895.4 239.2ZM927.0 239.2L927.0 239.2Q919.9 239.2 915.9 235.0Q911.9 230.7 911.9 223.2L911.9 223.2Q911.9 215.7 915.9 211.3Q919.9 206.9 926.6 206.9L926.6 206.9Q933.0 206.9 936.9 210.9Q940.9 215.0 940.9 221.4L940.9 221.4Q940.9 223.0 940.0 223.9Q939.1 224.8 937.5 224.8L937.5 224.8L919.2 224.8L919.2 225.0Q919.2 228.9 921.3 231.3Q923.4 233.6 927.0 233.6L927.0 233.6Q929.4 233.6 931.2 232.6Q933.0 231.7 934.7 229.4L934.7 229.4Q935.8 228.3 937.2 228.3L937.2 228.3Q938.4 228.3 939.3 229.0Q940.1 229.8 940.1 231.1L940.1 231.1Q940.1 231.9 939.6 232.9L939.6 232.9Q938.1 235.9 934.8 237.5Q931.4 239.2 927.0 239.2ZM919.3 220.0L919.3 220.0L933.8 220.0Q933.6 216.6 931.7 214.6Q929.7 212.5 926.6 212.5Q923.6 212.5 921.5 214.6Q919.5 216.7 919.3 220.0ZM959.2 239.2L959.2 239.2Q952.4 239.2 948.4 234.9Q944.3 230.5 944.3 223.1L944.3 223.1Q944.3 215.7 948.3 211.3Q952.4 206.9 959.2 206.9L959.2 206.9Q963.7 206.9 967.3 209.0Q970.8 211.1 972.0 214.4L972.0 214.4Q972.3 215.4 972.3 216.1L972.3 216.1Q972.3 217.5 971.5 218.3Q970.6 219.1 969.2 219.1L969.2 219.1Q968.1 219.1 967.4 218.6Q966.7 218.1 966.0 217.0L966.0 217.0Q963.7 212.8 959.4 212.8L959.4 212.8Q955.9 212.8 953.8 215.6Q951.7 218.3 951.7 223.1L951.7 223.1Q951.7 227.9 953.8 230.6Q955.8 233.3 959.4 233.3L959.4 233.3Q963.7 233.3 966.0 229.3L966.0 229.3Q966.7 228.1 967.5 227.6Q968.2 227.1 969.4 227.1L969.4 227.1Q970.7 227.1 971.6 227.9Q972.4 228.7 972.4 230.1L972.4 230.1Q972.4 230.9 972.0 231.9L972.0 231.9Q970.7 235.1 967.1 237.2Q963.6 239.2 959.2 239.2ZM979.3 230.9L979.3 230.9L979.3 213.1L977.4 213.1Q976.0 213.1 975.2 212.4Q974.5 211.6 974.5 210.3L974.5 210.3Q974.5 209.0 975.2 208.3Q976.0 207.5 977.4 207.5L977.4 207.5L979.3 207.5L979.3 203.4Q979.3 201.6 980.3 200.6Q981.3 199.6 983.0 199.6L983.0 199.6Q984.7 199.6 985.7 200.6Q986.6 201.6 986.6 203.4L986.6 203.4L986.6 207.5L990.0 207.5Q991.4 207.5 992.2 208.3Q992.9 209.0 992.9 210.3L992.9 210.3Q992.9 211.6 992.1 212.4Q991.4 213.1 990.0 213.1L990.0 213.1L986.6 213.1L986.6 229.3Q986.6 231.1 987.3 231.9Q988.0 232.7 989.6 232.9L989.6 232.9L990.1 232.9Q993.0 233.2 993.0 235.6L993.0 235.6Q993.0 237.2 991.7 238.1Q990.3 238.9 987.8 238.9L987.8 238.9L987.5 238.9Q979.3 238.9 979.3 230.9ZM1011.3 239.2L1011.3 239.2Q1004.1 239.2 1000.1 235.0Q996.2 230.7 996.2 223.2L996.2 223.2Q996.2 215.7 1000.1 211.3Q1004.1 206.9 1010.8 206.9L1010.8 206.9Q1017.2 206.9 1021.2 210.9Q1025.1 215.0 1025.1 221.4L1025.1 221.4Q1025.1 223.0 1024.2 223.9Q1023.3 224.8 1021.7 224.8L1021.7 224.8L1003.4 224.8L1003.4 225.0Q1003.4 228.9 1005.5 231.3Q1007.6 233.6 1011.2 233.6L1011.2 233.6Q1013.7 233.6 1015.4 232.6Q1017.2 231.7 1019.0 229.4L1019.0 229.4Q1020.0 228.3 1021.4 228.3L1021.4 228.3Q1022.7 228.3 1023.5 229.0Q1024.3 229.8 1024.3 231.1L1024.3 231.1Q1024.3 231.9 1023.8 232.9L1023.8 232.9Q1022.3 235.9 1019.0 237.5Q1015.7 239.2 1011.3 239.2ZM1003.5 220.0L1003.5 220.0L1018.0 220.0Q1017.9 216.6 1015.9 214.6Q1013.9 212.5 1010.9 212.5Q1007.8 212.5 1005.7 214.6Q1003.7 216.7 1003.5 220.0ZM1031.8 230.9L1031.8 230.9L1031.8 213.1L1029.9 213.1Q1028.5 213.1 1027.7 212.4Q1027.0 211.6 1027.0 210.3L1027.0 210.3Q1027.0 209.0 1027.7 208.3Q1028.5 207.5 1029.9 207.5L1029.9 207.5L1031.8 207.5L1031.8 203.4Q1031.8 201.6 1032.8 200.6Q1033.8 199.6 1035.5 199.6L1035.5 199.6Q1037.2 199.6 1038.2 200.6Q1039.1 201.6 1039.1 203.4L1039.1 203.4L1039.1 207.5L1042.5 207.5Q1043.9 207.5 1044.7 208.3Q1045.4 209.0 1045.4 210.3L1045.4 210.3Q1045.4 211.6 1044.6 212.4Q1043.9 213.1 1042.5 213.1L1042.5 213.1L1039.1 213.1L1039.1 229.3Q1039.1 231.1 1039.8 231.9Q1040.5 232.7 1042.1 232.9L1042.1 232.9L1042.6 232.9Q1045.5 233.2 1045.5 235.6L1045.5 235.6Q1045.5 237.2 1044.2 238.1Q1042.8 238.9 1040.3 238.9L1040.3 238.9L1040.0 238.9Q1031.8 238.9 1031.8 230.9ZM1060.8 239.1L1060.8 239.1Q1055.8 239.1 1052.8 236.0Q1049.8 233.0 1049.8 227.6L1049.8 227.6L1049.8 210.7Q1049.8 209.0 1050.8 207.9Q1051.8 206.9 1053.4 206.9Q1055.1 206.9 1056.1 207.9Q1057.1 209.0 1057.1 210.8L1057.1 210.8L1057.1 226.1Q1057.1 229.5 1058.7 231.2Q1060.3 233.0 1063.4 233.0L1063.4 233.0Q1066.5 233.0 1068.3 230.9Q1070.2 228.9 1070.2 225.5L1070.2 225.5L1070.2 210.7Q1070.2 209.0 1071.2 207.9Q1072.2 206.9 1073.9 206.9L1073.9 206.9Q1075.5 206.9 1076.5 207.9Q1077.5 209.0 1077.5 210.8L1077.5 210.8L1077.5 235.5Q1077.5 237.2 1076.5 238.2Q1075.6 239.2 1074.0 239.2L1074.0 239.2Q1072.4 239.2 1071.4 238.2Q1070.5 237.2 1070.5 235.5L1070.5 235.5L1070.5 233.2L1070.3 233.2Q1067.7 239.1 1060.8 239.1ZM1089.7 238.1Q1088.7 239.2 1087.1 239.2Q1085.4 239.2 1084.4 238.1Q1083.4 237.1 1083.4 235.3L1083.4 235.3L1083.4 210.6Q1083.4 208.9 1084.4 207.9Q1085.3 206.9 1086.9 206.9L1086.9 206.9Q1088.4 206.9 1089.4 207.9Q1090.4 208.9 1090.4 210.6L1090.4 210.6L1090.4 213.0L1090.5 213.0Q1091.2 210.3 1093.0 208.6Q1094.8 207.0 1097.2 207.0L1097.2 207.0Q1098.9 207.0 1099.8 207.8L1099.8 207.8Q1100.8 208.6 1100.8 210.4L1100.8 210.4Q1100.8 212.1 1099.7 213.0L1099.7 213.0Q1098.6 213.9 1096.5 214.0L1096.5 214.0Q1090.7 214.0 1090.7 220.4L1090.7 220.4L1090.7 235.3Q1090.7 237.1 1089.7 238.1Z M52.1 321.6L52.1 321.6Q47.6 321.6 44.6 319.0Q41.7 316.4 41.7 312.2L41.7 312.2Q41.7 308.1 44.8 305.7Q47.9 303.3 53.5 302.9L53.5 302.9L61.8 302.4L61.8 300.2Q61.8 297.8 60.2 296.4Q58.7 295.1 56.0 295.1L56.0 295.1Q53.8 295.1 52.3 295.9Q50.8 296.7 49.5 298.7L49.5 298.7Q48.3 300.2 46.5 300.2L46.5 300.2Q45.2 300.2 44.3 299.4Q43.4 298.6 43.4 297.3L43.4 297.3Q43.4 296.3 43.9 295.3L43.9 295.3Q45.1 292.6 48.5 291.0Q51.8 289.4 56.3 289.4L56.3 289.4Q62.0 289.4 65.5 292.2Q69.0 295.0 69.0 299.7L69.0 299.7L69.0 318.0Q69.0 319.7 68.0 320.7Q67.0 321.7 65.4 321.7L65.4 321.7Q63.9 321.7 63.0 320.8Q62.0 319.9 61.9 318.3L61.9 318.3L61.9 316.1L61.8 316.1Q60.5 318.6 57.8 320.1Q55.1 321.6 52.1 321.6ZM54.3 316.1L54.3 316.1Q57.4 316.1 59.6 314.2Q61.8 312.3 61.8 309.6L61.8 309.6L61.8 307.2L54.6 307.6Q51.9 307.8 50.5 308.9Q49.0 310.1 49.0 311.9L49.0 311.9Q49.0 313.8 50.5 314.9Q51.9 316.1 54.3 316.1ZM86.4 321.6L86.4 321.6Q80.5 321.6 77.0 317.2Q73.5 312.9 73.5 305.5L73.5 305.5Q73.5 298.2 77.0 293.8Q80.5 289.5 86.4 289.5L86.4 289.5Q89.7 289.5 92.3 291.0Q94.8 292.6 96.0 295.2L96.0 295.2L96.2 295.2L96.2 282.1Q96.2 280.2 97.2 279.2Q98.2 278.2 99.9 278.2Q101.5 278.2 102.5 279.2Q103.5 280.2 103.5 282.1L103.5 282.1L103.5 318.0Q103.5 319.7 102.5 320.7Q101.5 321.7 99.9 321.7L99.9 321.7Q98.3 321.7 97.2 320.7Q96.2 319.7 96.2 318.0L96.2 318.0L96.2 315.6L96.1 315.6Q94.9 318.4 92.4 320.0Q90.0 321.6 86.4 321.6ZM88.6 315.6L88.6 315.6Q92.1 315.6 94.2 312.9Q96.3 310.2 96.3 305.6L96.3 305.6Q96.3 301.0 94.2 298.2Q92.1 295.5 88.6 295.5L88.6 295.5Q85.1 295.5 83.1 298.2Q81.0 300.9 81.0 305.6L81.0 305.6Q81.0 310.2 83.1 312.9Q85.1 315.6 88.6 315.6ZM116.3 284.5Q115.1 285.7 113.4 285.7Q111.7 285.7 110.6 284.5Q109.4 283.3 109.4 281.7L109.4 281.7Q109.4 280.0 110.6 278.9Q111.7 277.7 113.4 277.7L113.4 277.7Q115.2 277.7 116.3 278.9Q117.5 280.0 117.5 281.7L117.5 281.7Q117.5 283.3 116.3 284.5ZM116.1 320.6Q115.1 321.7 113.4 321.7Q111.8 321.7 110.8 320.6Q109.8 319.6 109.8 317.8L109.8 317.8L109.8 293.2Q109.8 291.5 110.8 290.4Q111.8 289.4 113.4 289.4Q115.1 289.4 116.1 290.4Q117.1 291.5 117.1 293.3L117.1 293.3L117.1 317.8Q117.1 319.6 116.1 320.6ZM129.5 331.1Q128.5 332.1 126.9 332.1Q125.2 332.1 124.2 331.1Q123.2 330.1 123.2 328.3L123.2 328.3L123.2 293.2Q123.2 291.4 124.2 290.4Q125.2 289.4 126.8 289.4L126.8 289.4Q128.4 289.4 129.4 290.4Q130.4 291.4 130.4 293.2L130.4 293.2L130.4 295.4L130.5 295.4Q131.8 292.6 134.4 291.1Q136.9 289.5 140.3 289.5L140.3 289.5Q146.2 289.5 149.7 293.8Q153.2 298.1 153.2 305.6L153.2 305.6Q153.2 313.0 149.7 317.3Q146.3 321.6 140.4 321.6L140.4 321.6Q137.1 321.6 134.5 320.1Q132.0 318.6 130.7 315.9L130.7 315.9L130.5 315.9L130.5 328.3Q130.5 330.1 129.5 331.1ZM138.1 315.6L138.1 315.6Q141.6 315.6 143.7 312.9Q145.7 310.2 145.7 305.6L145.7 305.6Q145.7 301.0 143.6 298.2Q141.6 295.5 138.1 295.5L138.1 295.5Q134.7 295.5 132.6 298.3Q130.5 301.0 130.5 305.6L130.5 305.6Q130.5 310.1 132.6 312.9Q134.7 315.6 138.1 315.6ZM164.6 284.5Q163.4 285.7 161.7 285.7Q160.0 285.7 158.8 284.5Q157.6 283.3 157.6 281.7L157.6 281.7Q157.6 280.0 158.8 278.9Q160.0 277.7 161.7 277.7L161.7 277.7Q163.4 277.7 164.6 278.9Q165.7 280.0 165.7 281.7L165.7 281.7Q165.7 283.3 164.6 284.5ZM164.3 320.6Q163.3 321.7 161.7 321.7Q160 321.7 159.0 320.6Q158.0 319.6 158.0 317.8L158.0 317.8L158.0 293.2Q158.0 291.5 159.0 290.4Q160 289.4 161.7 289.4Q163.3 289.4 164.3 290.4Q165.3 291.5 165.3 293.3L165.3 293.3L165.3 317.8Q165.3 319.6 164.3 320.6ZM183.4 321.7L183.4 321.7Q178.6 321.7 175.3 320.0Q171.9 318.3 170.8 315.5L170.8 315.5Q170.5 314.7 170.5 314.0L170.5 314.0Q170.5 312.7 171.3 311.9Q172.2 311.1 173.5 311.1L173.5 311.1Q175.4 311.1 176.7 312.9L176.7 312.9Q178.0 314.8 179.6 315.6Q181.2 316.4 183.7 316.4L183.7 316.4Q186.3 316.4 187.8 315.4Q189.4 314.3 189.4 312.6L189.4 312.6Q189.4 311.2 188.4 310.3Q187.4 309.5 185.0 308.9L185.0 308.9L180.0 307.8Q170.9 305.8 170.9 298.9L170.9 298.9Q170.9 294.6 174.4 292.0Q177.8 289.4 183.6 289.4L183.6 289.4Q187.9 289.4 191.2 291.3Q194.4 293.1 195.1 295.9L195.1 295.9Q195.3 296.5 195.3 297.0L195.3 297.0Q195.3 298.1 194.5 298.9Q193.8 299.6 192.5 299.6L192.5 299.6Q190.6 299.6 189.7 298.2L189.7 298.2Q188.5 296.5 187.1 295.6Q185.6 294.7 183.4 294.7L183.4 294.7Q181.0 294.7 179.5 295.8Q178.0 296.8 178.0 298.5L178.0 298.5Q178.0 301.3 182.6 302.3L182.6 302.3L187.5 303.4Q192.4 304.5 194.6 306.4Q196.7 308.4 196.7 311.8L196.7 311.8Q196.7 316.3 193.0 319.0Q189.4 321.7 183.4 321.7ZM208.0 284.5Q206.8 285.7 205.1 285.7Q203.4 285.7 202.2 284.5Q201.0 283.3 201.0 281.7L201.0 281.7Q201.0 280.0 202.2 278.9Q203.4 277.7 205.1 277.7L205.1 277.7Q206.8 277.7 208.0 278.9Q209.2 280.0 209.2 281.7L209.2 281.7Q209.2 283.3 208.0 284.5ZM207.8 320.6Q206.8 321.7 205.1 321.7Q203.4 321.7 202.4 320.6Q201.5 319.6 201.5 317.8L201.5 317.8L201.5 293.2Q201.5 291.5 202.4 290.4Q203.4 289.4 205.1 289.4Q206.8 289.4 207.8 290.4Q208.8 291.5 208.8 293.3L208.8 293.3L208.8 317.8Q208.8 319.6 207.8 320.6ZM228.5 321.7L228.5 321.7Q221.7 321.7 217.6 317.4Q213.6 313.0 213.6 305.6L213.6 305.6Q213.6 298.2 217.6 293.8Q221.7 289.4 228.5 289.4L228.5 289.4Q233.0 289.4 236.6 291.5Q240.1 293.6 241.2 296.9L241.2 296.9Q241.6 297.9 241.6 298.6L241.6 298.6Q241.6 300.0 240.7 300.8Q239.8 301.6 238.5 301.6L238.5 301.6Q237.4 301.6 236.7 301.1Q235.9 300.6 235.3 299.5L235.3 299.5Q233.0 295.3 228.7 295.3L228.7 295.3Q225.2 295.3 223.1 298.1Q221.0 300.8 221.0 305.6L221.0 305.6Q221.0 310.4 223.1 313.1Q225.1 315.8 228.6 315.8L228.6 315.8Q233.0 315.8 235.3 311.8L235.3 311.8Q236.0 310.6 236.7 310.1Q237.5 309.6 238.6 309.6L238.6 309.6Q240.0 309.6 240.8 310.4Q241.7 311.2 241.7 312.6L241.7 312.6Q241.7 313.4 241.3 314.4L241.3 314.4Q240.0 317.6 236.4 319.7Q232.9 321.7 228.5 321.7ZM253.3 284.5Q252.1 285.7 250.4 285.7Q248.7 285.7 247.5 284.5Q246.4 283.3 246.4 281.7L246.4 281.7Q246.4 280.0 247.5 278.9Q248.7 277.7 250.4 277.7L250.4 277.7Q252.1 277.7 253.3 278.9Q254.5 280.0 254.5 281.7L254.5 281.7Q254.5 283.3 253.3 284.5ZM253.1 320.6Q252.1 321.7 250.4 321.7Q248.7 321.7 247.8 320.6Q246.8 319.6 246.8 317.8L246.8 317.8L246.8 293.2Q246.8 291.5 247.8 290.4Q248.7 289.4 250.4 289.4Q252.1 289.4 253.1 290.4Q254.1 291.5 254.1 293.3L254.1 293.3L254.1 317.8Q254.1 319.6 253.1 320.6ZM266.5 320.7Q265.5 321.7 263.8 321.7Q262.2 321.7 261.2 320.7Q260.2 319.6 260.2 317.8L260.2 317.8L260.2 293.1Q260.2 291.4 261.1 290.4Q262.1 289.4 263.7 289.4Q265.3 289.4 266.3 290.4Q267.3 291.4 267.3 293.1L267.3 293.1L267.3 295.3L267.4 295.3Q270.1 289.4 277.1 289.4L277.1 289.4Q282.2 289.4 285.0 292.5Q287.9 295.6 287.9 301.0L287.9 301.0L287.9 317.8Q287.9 319.6 286.9 320.7Q285.9 321.7 284.2 321.7Q282.6 321.7 281.6 320.7Q280.6 319.6 280.6 317.8L280.6 317.8L280.6 302.5Q280.6 299.1 279.0 297.4Q277.4 295.6 274.3 295.6L274.3 295.6Q271.2 295.6 269.4 297.7Q267.5 299.7 267.5 303.1L267.5 303.1L267.5 317.8Q267.5 319.6 266.5 320.7ZM307.1 332.8L307.1 332.8Q302.7 332.7 299.4 331.2Q296.1 329.7 294.5 327.1L294.5 327.1Q293.9 326.1 293.9 324.9L293.9 324.9Q293.9 323.7 294.7 322.9Q295.5 322.1 296.9 322.1L296.9 322.1Q298.3 322.1 299.6 323.3L299.6 323.3Q301.4 325.2 303.2 326.1Q305.0 326.9 307.1 327.0L307.1 327.0Q310.8 327.0 312.9 325.1Q315.0 323.2 315.0 320.1L315.0 320.1L315.0 315.2L314.9 315.2Q313.7 317.7 311.1 319.2Q308.4 320.8 305.2 320.8L305.2 320.8Q299.3 320.8 295.8 316.5Q292.4 312.3 292.4 305.2L292.4 305.2Q292.4 297.9 295.8 293.7Q299.3 289.5 305.3 289.5L305.3 289.5Q308.6 289.5 311.1 291.0Q313.6 292.6 315.0 295.3L315.0 295.3L315.1 295.3L315.1 293.1Q315.1 291.4 316.1 290.4Q317.1 289.4 318.7 289.4Q320.3 289.4 321.4 290.4Q322.4 291.4 322.4 293.1L322.4 293.1L322.4 320.1Q322.4 326.0 318.3 329.4Q314.2 332.8 307.1 332.8ZM307.4 315.1L307.4 315.1Q310.9 315.1 313.0 312.4Q315.1 309.8 315.1 305.2L315.1 305.2Q315.1 300.7 313.0 298.0Q310.9 295.3 307.4 295.3L307.4 295.3Q303.9 295.3 301.9 298.0Q299.9 300.7 299.9 305.2L299.9 305.2Q299.9 309.8 301.9 312.5Q303.9 315.1 307.4 315.1Z M354.1 321.7L354.1 321.7Q347.0 321.7 343.0 317.5Q339.0 313.2 339.0 305.7L339.0 305.7Q339.0 298.2 343.0 293.8Q347.0 289.4 353.7 289.4L353.7 289.4Q360.1 289.4 364.0 293.4Q368.0 297.5 368.0 303.9L368.0 303.9Q368.0 305.5 367.1 306.4Q366.2 307.3 364.6 307.3L364.6 307.3L346.3 307.3L346.3 307.5Q346.3 311.4 348.4 313.8Q350.5 316.1 354.1 316.1L354.1 316.1Q356.5 316.1 358.3 315.1Q360.1 314.2 361.8 311.9L361.8 311.9Q362.9 310.8 364.3 310.8L364.3 310.8Q365.5 310.8 366.4 311.5Q367.2 312.3 367.2 313.6L367.2 313.6Q367.2 314.4 366.7 315.4L366.7 315.4Q365.2 318.4 361.9 320.0Q358.5 321.7 354.1 321.7ZM346.4 302.5L346.4 302.5L360.9 302.5Q360.7 299.1 358.8 297.1Q356.8 295.0 353.7 295.0Q350.7 295.0 348.6 297.1Q346.6 299.2 346.4 302.5ZM379.2 320.7Q378.2 321.7 376.6 321.7Q374.9 321.7 373.9 320.7Q372.9 319.6 372.9 317.8L372.9 317.8L372.9 282.1Q372.9 280.2 373.9 279.2Q374.9 278.2 376.6 278.2Q378.2 278.2 379.2 279.2Q380.2 280.2 380.2 282.1L380.2 282.1L380.2 317.8Q380.2 319.6 379.2 320.7ZM393.1 284.5Q391.9 285.7 390.2 285.7Q388.5 285.7 387.3 284.5Q386.2 283.3 386.2 281.7L386.2 281.7Q386.2 280.0 387.3 278.9Q388.5 277.7 390.2 277.7L390.2 277.7Q391.9 277.7 393.1 278.9Q394.3 280.0 394.3 281.7L394.3 281.7Q394.3 283.3 393.1 284.5ZM392.9 320.6Q391.9 321.7 390.2 321.7Q388.5 321.7 387.6 320.6Q386.6 319.6 386.6 317.8L386.6 317.8L386.6 293.2Q386.6 291.5 387.6 290.4Q388.5 289.4 390.2 289.4Q391.9 289.4 392.9 290.4Q393.9 291.5 393.9 293.3L393.9 293.3L393.9 317.8Q393.9 319.6 392.9 320.6ZM402.0 313.4L402.0 313.4L402.0 295.6L400.1 295.6Q398.7 295.6 397.9 294.9Q397.1 294.1 397.1 292.8L397.1 292.8Q397.1 291.5 397.9 290.8Q398.7 290.0 400.1 290.0L400.1 290.0L402.0 290.0L402.0 285.9Q402.0 284.1 403.0 283.1Q404.0 282.1 405.7 282.1L405.7 282.1Q407.4 282.1 408.3 283.1Q409.3 284.1 409.3 285.9L409.3 285.9L409.3 290.0L412.7 290.0Q414.1 290.0 414.8 290.8Q415.6 291.5 415.6 292.8L415.6 292.8Q415.6 294.1 414.8 294.9Q414.0 295.6 412.7 295.6L412.7 295.6L409.3 295.6L409.3 311.8Q409.3 313.6 410.0 314.4Q410.7 315.2 412.2 315.4L412.2 315.4L412.8 315.4Q415.7 315.7 415.7 318.1L415.7 318.1Q415.7 319.7 414.4 320.6Q413.0 321.4 410.5 321.4L410.5 321.4L410.2 321.4Q402.0 321.4 402.0 313.4ZM425.2 321.4L425.2 321.4Q423.4 321.4 422.2 320.2Q421.0 319.0 421.0 317.2L421.0 317.2Q421.0 315.4 422.2 314.2Q423.4 313.0 425.2 313.0L425.2 313.0Q427.0 313.0 428.2 314.2Q429.4 315.4 429.4 317.2L429.4 317.2Q429.4 319.0 428.2 320.2Q427.0 321.4 425.2 321.4Z M452.8 321.6L452.8 321.6Q451.0 321.6 450.0 320.5Q449.0 319.5 449.0 317.7L449.0 317.7L449.0 282.2Q449.0 280.4 450.0 279.3Q451.0 278.3 452.8 278.3L452.8 278.3Q454.6 278.3 455.6 279.3Q456.6 280.4 456.6 282.2L456.6 282.2L456.6 317.7Q456.6 319.5 455.6 320.6Q454.6 321.6 452.8 321.6ZM474.9 321.6L474.9 321.6Q469.0 321.6 465.5 317.2Q462.0 312.9 462.0 305.5L462.0 305.5Q462.0 298.2 465.5 293.8Q469.0 289.5 474.9 289.5L474.9 289.5Q478.2 289.5 480.7 291.0Q483.2 292.6 484.5 295.2L484.5 295.2L484.7 295.2L484.7 282.1Q484.7 280.2 485.7 279.2Q486.7 278.2 488.3 278.2Q489.9 278.2 491.0 279.2Q492.0 280.2 492.0 282.1L492.0 282.1L492.0 318.0Q492.0 319.7 491.0 320.7Q490.0 321.7 488.4 321.7L488.4 321.7Q486.7 321.7 485.7 320.7Q484.7 319.7 484.7 318.0L484.7 318.0L484.7 315.6L484.5 315.6Q483.3 318.4 480.9 320.0Q478.4 321.6 474.9 321.6ZM477.1 315.6L477.1 315.6Q480.5 315.6 482.6 312.9Q484.7 310.2 484.7 305.6L484.7 305.6Q484.7 301.0 482.6 298.2Q480.5 295.5 477.1 295.5L477.1 295.5Q473.6 295.5 471.5 298.2Q469.5 300.9 469.5 305.6L469.5 305.6Q469.5 310.2 471.5 312.9Q473.5 315.6 477.1 315.6Z "/><defs><clipPath id="satori_bc-id-0-1"><rect x="0" y="441" width="1200" height="189"/></clipPath></defs><mask id="satori_om-id-0-1"><rect x="0" y="442" width="1200" height="188" fill="#fff"/><path width="1200" height="189" fill="none" stroke="#000" stroke-width="2" d="M0,441 A0,0 0 0 1 0,441 h1200 A0,0 0 0 1 1200,441"/></mask><path width="1200" height="189" clip-path="url(#satori_bc-id-0-1)" fill="none" stroke="#dbdbdb" stroke-width="2" d="M0,441 A0,0 0 0 1 0,441 h1200 A0,0 0 0 1 1200,441"/><mask id="satori_om-id-0-1-0"><rect x="40" y="482" width="209" height="108" fill="#fff"/></mask><clipPath id="satori_cp-id-0-1-0-0"><rect x="40" y="504" width="64" height="64"/></clipPath><mask id="satori_om-id-0-1-0-0"><rect x="40" y="504" width="64" height="64" fill="#fff"/></mask><image x="40" y="504" width="64" height="64" href="data:image/svg+xml;utf8,%3Csvg  xmlns=%22http://www.w3.org/2000/svg%22 width=%2264%22 height=%2264%22 viewBox=%220 0 128 128%22%3E%3Cpath fill=%22%23224d67%22 d=%22M22.5 14.8c2.9 1.3 99 44 99 44c2.7 1.2 2.9 3.1 2 12.4c-1 10.5-1.9 37.8-40.2 42.9c-24.6 3.2-55.9-4.3-70.9-27.2C-6 58.8 11 23.4 14.8 17.7c2.4-3.5 4.8-4.2 7.7-2.9%22%3E%3C/path%3E%3Cpath fill=%22%23f0f4c3%22 d=%22M121.5 58.8c-.3-.2-92-40.8-98.9-43.9C9.6 31.5-3.8 76 27.9 96.2c33.6 21.5 78.7-10.2 93.6-37.4%22%3E%3C/path%3E%3Cpath fill=%22%23f0f4c3%22 d=%22M117.7 57c-.3-.2-86.7-38.4-93.2-41.3c-12.2 15.5-23.9 59.1 5.7 78c31.4 20.2 73.6-11.2 87.5-36.7%22%3E%3C/path%3E%3Cpath fill=%22%23cb2a42%22 d=%22M56.2 37.6L19.5 48.2c-2.5.8-4.4 2.8-5 5.3c-1.9 8.5.8 23.3 8.9 29.8c3.5 2.7 8.6 1.8 10.8-2.1L58.5 41c1.3-1.7.5-4.2-2.3-3.4m14.3 2.9s14.6 30.1 16 33s6.3 4.7 9.9 2.8c10.7-5.6 15.5-12.4 19.2-20.2c-8.9-3.9-42.4-18.8-42.4-18.8c-2.4-1.1-4 .6-2.7 3.2m-8.6 1.9C60.3 45.1 39.5 81 37.6 84.1c-1.9 3.2-.7 7.5 2.7 9.2c12.3 6.5 30.9.4 39.6-7c2.2-1.9 4.5-5.1 3.2-8.2S68.9 44.6 67.8 42.3c-1.2-2.7-4.1-2.8-5.9.1%22%3E%3C/path%3E%3Cpath fill=%22%23f0f4c3%22 d=%22M52.2 42.2c-1.4.4-10.1 3-11.1 3.4c-1.4.5-2.2 1.7-1.9 2.5c.3.9 1.7 1.1 3.1.6c.8-.3 7.1-3.9 9.5-5.2c-3.1 2.4-10.2 9.4-11.1 10.3c-1.4 1.5-1.7 3.4-.8 4.3c1 .9 2.9.5 4.3-1c1.2-1.3 8.5-12.8 9.1-13.9s.4-1.4-1.1-1m10.1 16.4c0-2.2 1.4-10.3 1.8-12.3c.4-1.6 1.5-1.8 1.8.5s1.7 9.7 1.7 11.8s-1.2 3.3-2.7 3.3c-1.4 0-2.6-1.1-2.6-3.3M79.9 49c-1.2-1.8-3.3-4.9-4.1-6.1c-.7-1.2.1-2.1 1.8-.9s4 2.9 5.4 4c1.6 1.3 1.9 3 .8 4s-2.7.8-3.9-1%22%3E%3C/path%3E%3Cellipse cx=%2287.3%22 cy=%22103.12%22 fill=%22%23cb2a42%22 rx=%223.4%22 ry=%222.3%22 transform=%22rotate(-27.098 87.298 103.126)%22%3E%3C/ellipse%3E%3Cellipse cx=%2298.89%22 cy=%22103.82%22 fill=%22%23cb2a42%22 rx=%223.4%22 ry=%222.3%22 transform=%22rotate(-30.642 98.887 103.818)%22%3E%3C/ellipse%3E%3Cellipse cx=%22102.02%22 cy=%2293.8%22 fill=%22%23cb2a42%22 rx=%223.4%22 ry=%222.3%22 transform=%22rotate(-37.16 102.017 93.797)%22%3E%3C/ellipse%3E%3Cpath fill=%22%23cb2a42%22 d=%22M57.6 30.3c-8.3-3.7-24.4-10.7-29.6-13c-3.6 2.2-9.7 11.4-11.2 21.2c-.6 3.6 1.7 5.9 5.3 4.9c0 0 33.7-9.3 35.3-9.7c1.6-.5 2-2.6.2-3.4%22%3E%3C/path%3E%3C/svg%3E" preserveAspectRatio="none" clip-path="url(#satori_cp-id-0-1-0-0)" mask="url(#satori_om-id-0-1-0-0)"/><mask id="satori_om-id-0-1-0-0-0"><rect x="40" y="504" width="0" height="64" fill="#fff"/></mask><mask id="satori_om-id-0-1-0-0-1"><rect x="40" y="504" width="0" height="64" fill="#fff"/></mask><mask id="satori_om-id-0-1-0-0-2"><rect x="40" y="504" width="0" height="64" fill="#fff"/></mask><mask id="satori_om-id-0-1-0-0-3"><rect x="40" y="504" width="0" height="64" fill="#fff"/></mask><mask id="satori_om-id-0-1-0-0-4"><rect x="40" y="504" width="0" height="64" fill="#fff"/></mask><mask id="satori_om-id-0-1-0-0-5"><rect x="40" y="504" width="0" height="64" fill="#fff"/></mask><mask id="satori_om-id-0-1-0-0-6"><rect x="40" y="504" width="0" height="64" fill="#fff"/></mask><mask id="satori_om-id-0-1-0-0-7"><rect x="40" y="504" width="0" height="64" fill="#fff"/></mask><mask id="satori_om-id-0-1-0-0-8"><rect x="40" y="504" width="0" height="64" fill="#fff"/></mask><mask id="satori_om-id-0-1-0-1"><rect x="116" y="512" width="133" height="48" fill="#fff"/></mask><path fill="#545454" d="M133.9 553.6L133.9 553.6Q126.4 553.6 122.1 549.0Q117.8 544.3 117.8 536.1L117.8 536.1Q117.8 528.0 122.1 523.3Q126.4 518.7 133.7 518.7L133.7 518.7Q138.4 518.7 142.0 520.7Q145.5 522.7 147.2 526.3L147.2 526.3Q147.9 527.7 147.9 529.0L147.9 529.0Q147.9 530.4 147.1 531.2Q146.2 532.0 144.8 532.0L144.8 532.0Q143.6 532.0 142.8 531.5Q142.0 530.9 141.5 529.7L141.5 529.7Q140.3 527.1 138.3 525.8Q136.3 524.5 133.8 524.5L133.8 524.5Q129.8 524.5 127.4 527.7Q125.0 530.8 125.0 536.1L125.0 536.1Q125.0 541.5 127.3 544.7Q129.7 547.8 133.8 547.8L133.8 547.8Q139.3 547.8 141.5 542.8L141.5 542.8Q142.1 541.6 142.8 541.1Q143.5 540.5 144.7 540.5L144.7 540.5Q146.2 540.5 147.1 541.4Q148.0 542.3 148.0 543.7L148.0 543.7Q148.0 544.8 147.4 546.1L147.4 546.1Q145.8 549.6 142.3 551.6Q138.7 553.6 133.9 553.6ZM158.6 523.8Q157.5 524.8 156.0 524.8Q154.4 524.8 153.4 523.8Q152.3 522.8 152.3 521.3L152.3 521.3Q152.3 519.8 153.4 518.8Q154.4 517.7 156.0 517.7Q157.5 517.7 158.6 518.8Q159.6 519.8 159.6 521.3L159.6 521.3Q159.6 522.8 158.6 523.8ZM158.5 552.6Q157.6 553.6 156.0 553.6Q154.4 553.6 153.5 552.6Q152.5 551.7 152.5 550.0L152.5 550.0L152.5 531.0Q152.5 529.3 153.5 528.4Q154.4 527.4 156.0 527.4Q157.6 527.4 158.5 528.4Q159.4 529.3 159.4 531.0L159.4 531.0L159.4 550.0Q159.4 551.7 158.5 552.6ZM165.8 546.6L165.8 546.6L165.8 533.1L164.4 533.1Q163.2 533.1 162.5 532.4Q161.8 531.7 161.8 530.5Q161.8 529.3 162.5 528.6Q163.2 527.9 164.4 527.9L164.4 527.9L165.8 527.9L165.8 525.1Q165.8 523.5 166.7 522.5Q167.6 521.6 169.2 521.6Q170.8 521.6 171.7 522.5Q172.6 523.5 172.6 525.1L172.6 525.1L172.6 527.9L175.0 527.9Q176.2 527.9 176.9 528.6Q177.6 529.3 177.6 530.5Q177.6 531.7 176.9 532.4Q176.2 533.1 175.0 533.1L175.0 533.1L172.6 533.1L172.6 545.1Q172.6 546.5 173.1 547.1Q173.6 547.7 174.7 547.8L174.7 547.8L175.1 547.8Q176.4 548.0 177.1 548.5Q177.7 549.1 177.7 550.3L177.7 550.3Q177.7 551.8 176.4 552.6Q175.1 553.3 172.9 553.3L172.9 553.3L172.6 553.3Q165.8 553.3 165.8 546.6ZM184.4 553.6L184.4 553.6Q182.8 553.6 181.9 552.6Q181.0 551.7 181.0 550.0L181.0 550.0L181.0 530.9Q181.0 529.3 181.9 528.3Q182.8 527.4 184.3 527.4L184.3 527.4Q185.8 527.4 186.6 528.3Q187.5 529.3 187.5 530.9L187.5 530.9L187.5 532.5L187.7 532.5Q188.2 530.2 189.6 528.9Q191 527.5 192.9 527.5L192.9 527.5Q194.3 527.5 195.0 528.2L195.0 528.2Q196.0 528.9 196.0 530.7L196.0 530.7Q196.0 532.3 195.0 533.2L195.0 533.2Q194.0 534.0 192.1 534.1L192.1 534.1Q189.8 534.1 188.8 535.3Q187.8 536.5 187.8 538.8L187.8 538.8L187.8 550.0Q187.8 551.7 186.9 552.6Q186.0 553.6 184.4 553.6ZM207.4 553.5L207.4 553.5Q203.3 553.5 200.8 551.0Q198.3 548.5 198.3 544.1L198.3 544.1L198.3 531.0Q198.3 529.3 199.3 528.4Q200.2 527.4 201.8 527.4Q203.3 527.4 204.2 528.4Q205.2 529.3 205.2 531.0L205.2 531.0L205.2 542.7Q205.2 545.2 206.4 546.5Q207.6 547.8 209.9 547.8Q212.1 547.8 213.5 546.3Q214.8 544.8 214.8 542.3L214.8 542.3L214.8 531.0Q214.8 529.3 215.8 528.4Q216.7 527.4 218.2 527.4Q219.8 527.4 220.7 528.4Q221.7 529.3 221.7 531.0L221.7 531.0L221.7 550.1Q221.7 551.8 220.8 552.7Q219.9 553.6 218.4 553.6Q216.8 553.6 215.9 552.7Q215.0 551.8 215.0 550.1L215.0 550.1L215.0 548.5L214.9 548.5Q212.9 553.5 207.4 553.5ZM236.4 553.6L236.4 553.6Q232.1 553.6 229.3 552.2Q226.5 550.9 225.5 548.6L225.5 548.6Q225.3 547.9 225.3 547.3L225.3 547.3Q225.3 546.1 226.1 545.4Q226.9 544.7 228.1 544.7L228.1 544.7Q229.6 544.7 231.0 546.2L231.0 546.2Q232.1 547.6 233.3 548.2Q234.6 548.8 236.5 548.8L236.5 548.8Q238.4 548.8 239.5 548.1Q240.6 547.3 240.6 546.1L240.6 546.1Q240.6 545.1 239.9 544.5Q239.1 543.9 237.3 543.5L237.3 543.5L233.1 542.6Q229.4 541.8 227.5 539.9Q225.7 538.1 225.7 535.3L225.7 535.3Q225.7 531.7 228.6 529.5Q231.5 527.4 236.3 527.4L236.3 527.4Q240.1 527.4 242.8 528.9Q245.5 530.4 246.2 532.6L246.2 532.6Q246.3 533.2 246.3 533.6L246.3 533.6Q246.3 534.7 245.7 535.3Q245 536.0 243.7 536.0L243.7 536.0Q242.1 536.0 241.2 534.9L241.2 534.9Q240.2 533.6 239.1 532.9Q237.9 532.2 236.2 532.2L236.2 532.2Q234.5 532.2 233.4 533.0Q232.3 533.7 232.3 534.9L232.3 534.9Q232.3 535.9 233.1 536.6Q233.9 537.2 235.8 537.6L235.8 537.6L239.9 538.5Q243.9 539.4 245.7 541.0Q247.5 542.6 247.5 545.4L247.5 545.4Q247.5 549.1 244.4 551.4Q241.3 553.6 236.4 553.6Z "/><mask id="satori_om-id-0-1-1"><rect x="951" y="524" width="209" height="36" fill="#fff"/></mask><path fill="#8e8e8e" d="M954.9 552.6Q954.5 552.9 954.0 552.9Q953.4 552.9 953.1 552.6Q952.8 552.2 952.8 551.7L952.8 551.7L952.8 532.6Q952.8 532.0 953.1 531.6Q953.5 531.3 954.1 531.3Q954.6 531.3 955.0 531.6Q955.3 532.0 955.3 532.6L955.3 532.6L955.3 540.0L955.4 540.0Q956.1 538.7 957.4 537.9Q958.7 537.2 960.3 537.2L960.3 537.2Q963.2 537.2 964.9 539.3Q966.7 541.5 966.7 545.0L966.7 545.0Q966.7 548.6 964.9 550.8Q963.2 552.9 960.2 552.9L960.2 552.9Q958.6 552.9 957.3 552.2Q956.0 551.4 955.3 550.1L955.3 550.1L955.2 550.1L955.2 551.7Q955.2 552.2 954.9 552.6ZM959.7 550.7L959.7 550.7Q961.8 550.7 962.9 549.2Q964.1 547.7 964.1 545.0L964.1 545.0Q964.1 542.5 962.9 540.9Q961.8 539.4 959.7 539.4L959.7 539.4Q957.8 539.4 956.6 541.0Q955.3 542.5 955.3 545.0L955.3 545.0Q955.3 547.6 956.6 549.1Q957.8 550.7 959.7 550.7ZM970.8 558.4L970.8 558.4Q969.9 558.4 969.4 558.0Q968.9 557.7 968.9 557.1L968.9 557.1Q968.9 556.7 969.1 556.4Q969.4 556.2 969.9 556.2L969.9 556.2Q970.1 556.2 970.3 556.2Q970.5 556.2 970.7 556.2L970.7 556.2Q972.4 556.2 973.2 553.7L973.2 553.7L973.6 552.7L968.3 539.0Q968.2 538.6 968.2 538.3L968.2 538.3Q968.2 537.8 968.6 537.5Q968.9 537.2 969.5 537.2L969.5 537.2Q970.4 537.2 970.7 538.1L970.7 538.1L974.9 550.1L975.0 550.1L979.2 538.1Q979.3 537.6 979.6 537.4Q979.9 537.2 980.4 537.2L980.4 537.2Q980.9 537.2 981.3 537.5Q981.6 537.8 981.6 538.3L981.6 538.3Q981.6 538.6 981.5 539.0L981.5 539.0L975.9 553.7Q974.9 556.4 973.8 557.4Q972.7 558.4 970.8 558.4Z M990.5 552.9L990.5 552.9Q989.9 552.9 989.5 552.5Q989.2 552.2 989.2 551.7L989.2 551.7Q989.2 551.4 989.3 551.0L989.3 551.0L996.1 532.6Q996.6 531.3 997.8 531.3L997.8 531.3Q999.0 531.3 999.5 532.6L999.5 532.6L1006.3 551.0Q1006.5 551.4 1006.5 551.7L1006.5 551.7Q1006.5 552.2 1006.1 552.5Q1005.7 552.9 1005.2 552.9L1005.2 552.9Q1004.2 552.9 1003.9 551.9L1003.9 551.9L1002.0 546.6L993.6 546.6L991.8 551.9Q991.4 552.9 990.5 552.9ZM997.8 534.7L994.4 544.4L1001.2 544.4L997.9 534.7L997.8 534.7ZM1011.1 552.5Q1010.8 552.9 1010.2 552.9Q1009.7 552.9 1009.3 552.5Q1008.9 552.2 1008.9 551.6L1008.9 551.6L1008.9 538.5Q1008.9 537.9 1009.3 537.5Q1009.6 537.2 1010.1 537.2Q1010.7 537.2 1011 537.5Q1011.3 537.9 1011.3 538.5L1011.3 538.5L1011.3 539.9L1011.4 539.9Q1011.7 538.7 1012.7 537.9Q1013.7 537.2 1014.9 537.2L1014.9 537.2Q1015.7 537.2 1016.1 537.5L1016.1 537.5Q1016.4 537.8 1016.4 538.4L1016.4 538.4Q1016.4 539.0 1016.0 539.3L1016.0 539.3Q1015.6 539.6 1014.8 539.6L1014.8 539.6Q1013.1 539.6 1012.3 540.6Q1011.5 541.6 1011.5 543.2L1011.5 543.2L1011.5 551.6Q1011.5 552.2 1011.1 552.5ZM1019.0 549.1L1019.0 549.1L1019.0 539.5L1017.7 539.5Q1017.2 539.5 1016.9 539.3Q1016.6 539.0 1016.6 538.5L1016.6 538.5Q1016.6 538.0 1016.9 537.7Q1017.2 537.4 1017.7 537.4L1017.7 537.4L1019.0 537.4L1019.0 534.8Q1019.0 534.2 1019.4 533.8Q1019.7 533.5 1020.3 533.5Q1020.8 533.5 1021.2 533.8Q1021.5 534.2 1021.5 534.8L1021.5 534.8L1021.5 537.4L1023.5 537.4Q1024.1 537.4 1024.4 537.7Q1024.7 538.0 1024.7 538.5L1024.7 538.5Q1024.7 539.0 1024.4 539.3Q1024.1 539.5 1023.5 539.5L1023.5 539.5L1021.5 539.5L1021.5 548.6Q1021.5 549.6 1021.9 550.0Q1022.3 550.5 1023.3 550.6L1023.3 550.6L1023.5 550.6Q1024.7 550.7 1024.7 551.6L1024.7 551.6Q1024.7 552.2 1024.3 552.5Q1023.9 552.8 1022.9 552.8L1022.9 552.8L1022.7 552.8Q1019.0 552.8 1019.0 549.1ZM1033.6 552.9L1033.6 552.9Q1030.2 552.9 1028.4 550.9Q1026.5 548.8 1026.5 545.1L1026.5 545.1Q1026.5 541.5 1028.4 539.3Q1030.2 537.2 1033.4 537.2L1033.4 537.2Q1036.3 537.2 1038.2 539.1Q1040.0 541.1 1040.0 544.3L1040.0 544.3Q1040.0 544.9 1039.6 545.3Q1039.3 545.7 1038.6 545.7L1038.6 545.7L1029.1 545.7Q1029.1 548.0 1030.3 549.4Q1031.5 550.7 1033.5 550.7L1033.5 550.7Q1034.9 550.7 1035.8 550.2Q1036.7 549.6 1037.6 548.3L1037.6 548.3Q1038.0 547.8 1038.6 547.8L1038.6 547.8Q1039.1 547.8 1039.4 548.1Q1039.7 548.4 1039.7 548.9L1039.7 548.9Q1039.7 549.2 1039.5 549.7L1039.5 549.7Q1038.8 551.2 1037.2 552.1Q1035.7 552.9 1033.6 552.9ZM1029.1 543.7L1029.1 543.7L1037.4 543.7Q1037.3 541.8 1036.2 540.6Q1035.1 539.4 1033.3 539.4L1033.3 539.4Q1031.6 539.4 1030.4 540.6Q1029.2 541.8 1029.1 543.7ZM1044.8 552.5Q1044.4 552.9 1043.9 552.9Q1043.3 552.9 1042.9 552.5Q1042.6 552.2 1042.6 551.6L1042.6 551.6L1042.6 538.5Q1042.6 537.9 1042.9 537.5Q1043.3 537.2 1043.8 537.2Q1044.3 537.2 1044.6 537.5Q1045.0 537.9 1045.0 538.5L1045.0 538.5L1045.0 539.9L1045.0 539.9Q1045.6 538.6 1046.7 537.9Q1047.9 537.2 1049.4 537.2L1049.4 537.2Q1050.9 537.2 1052.0 537.9Q1053.1 538.7 1053.6 540.1L1053.6 540.1L1053.7 540.1Q1054.3 538.7 1055.6 537.9Q1056.9 537.2 1058.5 537.2L1058.5 537.2Q1060.7 537.2 1062.1 538.5Q1063.4 539.9 1063.4 542.1L1063.4 542.1L1063.4 551.6Q1063.4 552.2 1063.1 552.5Q1062.7 552.9 1062.2 552.9Q1061.6 552.9 1061.2 552.5Q1060.9 552.2 1060.9 551.6L1060.9 551.6L1060.9 542.7Q1060.9 541.2 1060.1 540.3Q1059.2 539.4 1057.7 539.4Q1056.2 539.4 1055.3 540.4Q1054.3 541.4 1054.3 543.0L1054.3 543.0L1054.3 551.6Q1054.3 552.2 1053.9 552.5Q1053.6 552.9 1053.0 552.9Q1052.4 552.9 1052.1 552.5Q1051.7 552.2 1051.7 551.6L1051.7 551.6L1051.7 542.5Q1051.7 541.1 1050.9 540.2Q1050.0 539.4 1048.6 539.4L1048.6 539.4Q1047.1 539.4 1046.1 540.5Q1045.1 541.5 1045.1 543.1L1045.1 543.1L1045.1 551.6Q1045.1 552.2 1044.8 552.5Z M1075.5 552.5Q1075.1 552.9 1074.5 552.9Q1073.9 552.9 1073.6 552.5Q1073.2 552.1 1073.2 551.5L1073.2 551.5L1073.2 532.7Q1073.2 532.1 1073.6 531.7Q1073.9 531.3 1074.5 531.3Q1075.1 531.3 1075.5 531.7Q1075.9 532.1 1075.9 532.7L1075.9 532.7L1075.9 541.8L1076.0 541.8L1085.4 531.8Q1085.9 531.3 1086.5 531.3L1086.5 531.3Q1087.0 531.3 1087.3 531.7Q1087.7 532.0 1087.7 532.5L1087.7 532.5Q1087.7 533.0 1087.3 533.3L1087.3 533.3L1080.1 540.9L1088.2 550.6Q1088.5 551.1 1088.5 551.6L1088.5 551.6Q1088.5 552.2 1088.2 552.5Q1087.8 552.9 1087.3 552.9L1087.3 552.9Q1086.6 552.9 1086.1 552.2L1086.1 552.2L1078.2 542.8L1075.9 545.3L1075.9 551.5Q1075.9 552.1 1075.5 552.5ZM1096.5 552.9L1096.5 552.9Q1094.0 552.9 1092.6 551.4Q1091.2 549.9 1091.2 547.3L1091.2 547.3L1091.2 538.5Q1091.2 537.9 1091.6 537.5Q1091.9 537.2 1092.5 537.2Q1093.0 537.2 1093.4 537.5Q1093.8 537.9 1093.8 538.5L1093.8 538.5L1093.8 546.9Q1093.8 550.7 1097.3 550.7L1097.3 550.7Q1099.1 550.7 1100.2 549.5Q1101.2 548.3 1101.2 546.4L1101.2 546.4L1101.2 538.5Q1101.2 537.9 1101.6 537.5Q1102.0 537.2 1102.5 537.2Q1103.1 537.2 1103.4 537.5Q1103.8 537.9 1103.8 538.5L1103.8 538.5L1103.8 551.6Q1103.8 552.2 1103.5 552.6Q1103.1 552.9 1102.6 552.9Q1102.1 552.9 1101.7 552.6Q1101.4 552.2 1101.4 551.6L1101.4 551.6L1101.4 550.2L1101.3 550.2Q1099.9 552.9 1096.5 552.9ZM1107.9 549.1L1107.9 549.1L1107.9 539.5L1106.6 539.5Q1106.1 539.5 1105.8 539.3Q1105.5 539.0 1105.5 538.5L1105.5 538.5Q1105.5 538.0 1105.8 537.7Q1106.1 537.4 1106.6 537.4L1106.6 537.4L1107.9 537.4L1107.9 534.8Q1107.9 534.2 1108.3 533.8Q1108.6 533.5 1109.2 533.5Q1109.7 533.5 1110.1 533.8Q1110.5 534.2 1110.5 534.8L1110.5 534.8L1110.5 537.4L1112.4 537.4Q1113.0 537.4 1113.3 537.7Q1113.6 538.0 1113.6 538.5L1113.6 538.5Q1113.6 539.0 1113.3 539.3Q1113.0 539.5 1112.4 539.5L1112.4 539.5L1110.5 539.5L1110.5 548.6Q1110.5 549.6 1110.9 550.0Q1111.3 550.5 1112.2 550.6L1112.2 550.6L1112.4 550.6Q1113.6 550.7 1113.6 551.6L1113.6 551.6Q1113.6 552.2 1113.2 552.5Q1112.8 552.8 1111.8 552.8L1111.8 552.8L1111.6 552.8Q1107.9 552.8 1107.9 549.1ZM1121.4 552.9L1121.4 552.9Q1119.4 552.9 1117.9 552.1Q1116.4 551.2 1115.9 549.8L1115.9 549.8Q1115.7 549.5 1115.7 549.2L1115.7 549.2Q1115.7 548.7 1116.1 548.4Q1116.4 548.2 1116.9 548.2L1116.9 548.2Q1117.6 548.2 1118.0 548.9L1118.0 548.9Q1118.6 550.0 1119.4 550.4Q1120.2 550.8 1121.6 550.8L1121.6 550.8Q1123.1 550.8 1124.0 550.2Q1124.9 549.6 1124.9 548.6L1124.9 548.6Q1124.9 547.7 1124.4 547.3Q1123.8 546.8 1122.5 546.5L1122.5 546.5L1120.2 545.9Q1115.9 544.8 1115.9 541.6L1115.9 541.6Q1115.9 539.6 1117.5 538.4Q1119.0 537.2 1121.6 537.2L1121.6 537.2Q1123.5 537.2 1125.0 538.1Q1126.5 539.0 1126.8 540.4L1126.8 540.4Q1126.8 540.6 1126.8 540.8L1126.8 540.8Q1126.8 541.2 1126.5 541.5Q1126.3 541.8 1125.8 541.8L1125.8 541.8Q1125.0 541.8 1124.7 541.1L1124.7 541.1Q1124.2 540.1 1123.4 539.7Q1122.7 539.3 1121.5 539.3L1121.5 539.3Q1120.1 539.3 1119.2 539.9Q1118.4 540.5 1118.4 541.5L1118.4 541.5Q1118.4 543.1 1120.9 543.7L1120.9 543.7L1123.1 544.2Q1125.5 544.8 1126.5 545.8Q1127.5 546.7 1127.5 548.4L1127.5 548.4Q1127.5 550.4 1125.8 551.7Q1124.1 552.9 1121.4 552.9ZM1134.5 552.9L1134.5 552.9Q1132.3 552.9 1130.9 551.7Q1129.5 550.4 1129.5 548.4L1129.5 548.4Q1129.5 546.4 1130.9 545.2Q1132.3 544.1 1135.0 543.9L1135.0 543.9L1139.4 543.7L1139.4 542.4Q1139.4 541.0 1138.5 540.2Q1137.6 539.4 1136.0 539.4L1136.0 539.4Q1134.8 539.4 1133.9 539.9Q1133.0 540.4 1132.4 541.5L1132.4 541.5Q1132.1 542.1 1131.3 542.1L1131.3 542.1Q1130.8 542.1 1130.5 541.8Q1130.2 541.5 1130.2 541.0Q1130.2 540.5 1130.5 539.9L1130.5 539.9Q1131.2 538.7 1132.7 537.9Q1134.2 537.2 1136.1 537.2L1136.1 537.2Q1138.8 537.2 1140.3 538.5Q1141.9 539.9 1141.9 542.1L1141.9 542.1L1141.9 551.6Q1141.9 552.2 1141.6 552.6Q1141.2 552.9 1140.7 552.9L1140.7 552.9Q1140.2 552.9 1139.8 552.6Q1139.5 552.2 1139.5 551.6L1139.5 551.6L1139.5 550.0L1139.4 550.0Q1138.8 551.3 1137.4 552.1Q1136.1 552.9 1134.5 552.9ZM1135.1 550.8L1135.1 550.8Q1136.9 550.8 1138.1 549.6Q1139.4 548.5 1139.4 546.9L1139.4 546.9L1139.4 545.6L1135.3 545.9Q1133.7 546.0 1132.9 546.6Q1132.1 547.3 1132.1 548.4Q1132.1 549.4 1132.9 550.1Q1133.7 550.8 1135.1 550.8ZM1147.3 552.5Q1147.0 552.9 1146.4 552.9Q1145.9 552.9 1145.5 552.5Q1145.2 552.2 1145.2 551.6L1145.2 551.6L1145.2 538.5Q1145.2 537.9 1145.5 537.5Q1145.8 537.2 1146.4 537.2Q1146.9 537.2 1147.2 537.5Q1147.6 537.9 1147.6 538.5L1147.6 538.5L1147.6 539.9L1147.6 539.9Q1148.3 538.6 1149.5 537.9Q1150.7 537.2 1152.4 537.2L1152.4 537.2Q1154.9 537.2 1156.3 538.7Q1157.7 540.2 1157.7 542.8L1157.7 542.8L1157.7 551.6Q1157.7 552.2 1157.4 552.5Q1157.0 552.9 1156.4 552.9Q1155.9 552.9 1155.5 552.5Q1155.2 552.2 1155.2 551.6L1155.2 551.6L1155.2 543.2Q1155.2 541.4 1154.3 540.4Q1153.4 539.4 1151.7 539.4L1151.7 539.4Q1149.9 539.4 1148.8 540.6Q1147.7 541.8 1147.7 543.7L1147.7 543.7L1147.7 551.6Q1147.7 552.2 1147.3 552.5Z "/></svg>