<svg width="1200" height="630" viewBox="0 0 1200 630" xmlns="http://www.w3.org/2000/svg"><mask id="satori_om-id"><rect x="0" y="0" width="1200" height="630" fill="#fff"/></mask><mask id="satori_om-id-0"><rect x="0" y="0" width="1200" height="630" fill="#fff"/></mask><rect x="0" y="0" width="1200" height="630" fill="#f2f2f2"/><mask id="satori_om-id-0-0"><rect x="0" y="0" width="1200" height="441" fill="#fff"/></mask><mask id="satori_om-id-0-0-0"><rect x="40" y="136" width="1120" height="36" fill="#fff"/></mask><path fill="#8e8e8e" d="M49.1 164.5Q48.6 164.9 47.9 164.9Q47.1 164.9 46.7 164.5Q46.2 164.1 46.0 163.3L46.0 163.3L41.1 145.8Q41.0 145.2 41.0 144.8L41.0 144.8Q41.0 144.1 41.4 143.7Q41.8 143.3 42.6 143.3L42.6 143.3Q43.9 143.3 44.2 144.7L44.2 144.7L48.0 160.1L48.1 160.1L52.2 144.9Q52.5 144.1 52.9 143.7Q53.3 143.3 54.1 143.3L54.1 143.3Q54.8 143.3 55.3 143.7Q55.7 144.1 55.9 144.9L55.9 144.9L60.1 160.1L60.2 160.1L64.0 144.7Q64.3 143.3 65.6 143.3L65.6 143.3Q66.3 143.3 66.8 143.7Q67.2 144.1 67.2 144.8L67.2 144.8Q67.2 145.2 67.1 145.8L67.1 145.8L62.2 163.3Q61.9 164.1 61.5 164.5Q61.0 164.9 60.3 164.9L60.3 164.9Q59.5 164.9 59.1 164.5Q58.6 164.2 58.4 163.3L58.4 163.3L54.2 148.7L54.0 148.7L49.8 163.3Q49.6 164.1 49.1 164.5ZM76.4 165.0L76.4 165.0Q72.9 165.0 71.0 162.9Q69.0 160.8 69.0 157.0L69.0 157.0Q69.0 153.4 71.0 151.2Q72.9 149.0 76.2 149.0L76.2 149.0Q79.3 149.0 81.2 151.0Q83.1 153.0 83.1 156.1L83.1 156.1Q83.1 156.9 82.7 157.3Q82.3 157.8 81.6 157.8L81.6 157.8L72.2 157.8L72.2 157.8Q72.2 159.9 73.3 161.2Q74.5 162.4 76.3 162.4L76.3 162.4Q77.6 162.4 78.5 161.9Q79.4 161.4 80.3 160.2L80.3 160.2Q80.8 159.6 81.4 159.6L81.4 159.6Q82.0 159.6 82.4 160.0Q82.8 160.3 82.8 160.9L82.8 160.9Q82.8 161.3 82.5 161.8L82.5 161.8Q81.8 163.3 80.2 164.1Q78.6 165.0 76.4 165.0ZM72.3 155.5L72.3 155.5L80.0 155.5Q79.9 153.7 78.9 152.6Q77.8 151.5 76.2 151.5L76.2 151.5Q74.5 151.5 73.5 152.6Q72.4 153.7 72.3 155.5ZM91.4 164.9L91.4 164.9Q88.4 164.9 86.7 162.8Q84.9 160.6 84.9 157.0Q84.9 153.3 86.6 151.2Q88.4 149.0 91.3 149.0L91.3 149.0Q93.0 149.0 94.2 149.8Q95.5 150.5 96.2 151.8L96.2 151.8L96.2 151.8L96.2 144.9Q96.2 144.1 96.7 143.7Q97.1 143.2 97.8 143.2L97.8 143.2Q98.5 143.2 99.0 143.7Q99.4 144.2 99.4 144.9L99.4 144.9L99.4 163.4Q99.4 164.1 99.0 164.5Q98.5 164.9 97.8 164.9L97.8 164.9Q97.1 164.9 96.7 164.5Q96.2 164.1 96.2 163.4L96.2 163.4L96.2 161.9L96.2 161.9Q95.6 163.3 94.3 164.1Q93.1 164.9 91.4 164.9ZM92.2 162.2L92.2 162.2Q94.0 162.2 95.1 160.8Q96.3 159.4 96.3 157.0L96.3 157.0Q96.3 154.6 95.1 153.1Q94.0 151.7 92.2 151.7L92.2 151.7Q90.3 151.7 89.2 153.1Q88.1 154.5 88.1 157.0L88.1 157.0Q88.1 159.4 89.2 160.8Q90.3 162.2 92.2 162.2ZM104.2 164.9L104.2 164.9Q103.5 164.9 103.1 164.5Q102.6 164.0 102.6 163.3L102.6 163.3L102.6 150.6Q102.6 149.8 103.0 149.4Q103.5 149.0 104.1 149.0Q104.8 149.0 105.3 149.4Q105.7 149.9 105.7 150.6L105.7 150.6L105.7 151.8L105.8 151.8Q107.1 149.0 110.6 149.0L110.6 149.0Q113.1 149.0 114.5 150.5Q115.9 152.0 115.9 154.7L115.9 154.7L115.9 163.3Q115.9 164.0 115.5 164.5Q115.0 164.9 114.3 164.9L114.3 164.9Q113.6 164.9 113.2 164.5Q112.7 164.0 112.7 163.3L112.7 163.3L112.7 155.3Q112.7 153.5 111.9 152.6Q111.1 151.7 109.5 151.7L109.5 151.7Q107.8 151.7 106.8 152.8Q105.8 153.9 105.8 155.7L105.8 155.7L105.8 163.3Q105.8 164.0 105.4 164.5Q104.9 164.9 104.2 164.9ZM125.6 165.0L125.6 165.0Q122.2 165.0 120.2 162.9Q118.3 160.8 118.3 157.0L118.3 157.0Q118.3 153.4 120.2 151.2Q122.2 149.0 125.4 149.0L125.4 149.0Q128.5 149.0 130.4 151.0Q132.4 153.0 132.4 156.1L132.4 156.1Q132.4 156.9 131.9 157.3Q131.5 157.8 130.8 157.8L130.8 157.8L121.5 157.8L121.5 157.8Q121.5 159.9 122.6 161.2Q123.7 162.4 125.6 162.4L125.6 162.4Q126.9 162.4 127.8 161.9Q128.7 161.4 129.6 160.2L129.6 160.2Q130.0 159.6 130.7 159.6L130.7 159.6Q131.3 159.6 131.6 160.0Q132.0 160.3 132.0 160.9L132.0 160.9Q132.0 161.3 131.8 161.8L131.8 161.8Q131.0 163.3 129.4 164.1Q127.8 165.0 125.6 165.0ZM121.5 155.5L121.5 155.5L129.2 155.5Q129.1 153.7 128.1 152.6Q127.1 151.5 125.4 151.5L125.4 151.5Q123.8 151.5 122.7 152.6Q121.6 153.7 121.5 155.5ZM140.5 165.0L140.5 165.0Q138.2 165.0 136.7 164.1Q135.1 163.3 134.5 161.8L134.5 161.8Q134.4 161.5 134.4 161.2L134.4 161.2Q134.4 160.6 134.7 160.2Q135.1 159.9 135.7 159.9L135.7 159.9Q136.5 159.9 137.1 160.7L137.1 160.7Q137.7 161.7 138.5 162.1Q139.3 162.5 140.6 162.5L140.6 162.5Q142.0 162.5 142.8 162.0Q143.7 161.4 143.7 160.5L143.7 160.5Q143.7 159.7 143.2 159.3Q142.6 158.8 141.4 158.5L141.4 158.5L139.0 158.0Q134.5 156.9 134.5 153.6L134.5 153.6Q134.5 151.5 136.2 150.2Q137.9 149.0 140.6 149.0L140.6 149.0Q142.7 149.0 144.2 149.9Q145.8 150.8 146.1 152.2L146.1 152.2Q146.2 152.6 146.2 152.7L146.2 152.7Q146.2 153.2 145.8 153.5Q145.5 153.9 144.9 153.9L144.9 153.9Q144.1 153.9 143.7 153.2L143.7 153.2Q143.1 152.3 142.4 151.8Q141.6 151.4 140.5 151.4L140.5 151.4Q139.2 151.4 138.4 152.0Q137.6 152.5 137.6 153.4L137.6 153.4Q137.6 154.9 140.0 155.5L140.0 155.5L142.4 156.0Q144.8 156.6 145.8 157.5Q146.9 158.5 146.9 160.2L146.9 160.2Q146.9 162.3 145.1 163.6Q143.3 165.0 140.5 165.0ZM155.1 164.9L155.1 164.9Q152.2 164.9 150.4 162.8Q148.6 160.6 148.6 157.0Q148.6 153.3 150.4 151.2Q152.1 149.0 155.1 149.0L155.1 149.0Q156.7 149.0 158.0 149.8Q159.2 150.5 159.9 151.8L159.9 151.8L160.0 151.8L160.0 144.9Q160.0 144.1 160.4 143.7Q160.8 143.2 161.6 143.2L161.6 143.2Q162.3 143.2 162.7 143.7Q163.1 144.2 163.1 144.9L163.1 144.9L163.1 163.4Q163.1 164.1 162.7 164.5Q162.3 164.9 161.6 164.9L161.6 164.9Q160.9 164.9 160.4 164.5Q160.0 164.1 160.0 163.4L160.0 163.4L160.0 161.9L159.9 161.9Q159.3 163.3 158.1 164.1Q156.8 164.9 155.1 164.9ZM155.9 162.2L155.9 162.2Q157.8 162.2 158.9 160.8Q160.0 159.4 160.0 157.0L160.0 157.0Q160.0 154.6 158.9 153.1Q157.8 151.7 155.9 151.7L155.9 151.7Q154.1 151.7 153.0 153.1Q151.9 154.5 151.9 157.0L151.9 157.0Q151.9 159.4 153.0 160.8Q154.1 162.2 155.9 162.2ZM170.9 164.9L170.9 164.9Q168.6 164.9 167.2 163.6Q165.7 162.3 165.7 160.3L165.7 160.3Q165.7 158.3 167.2 157.1Q168.7 155.9 171.5 155.7L171.5 155.7L175.7 155.5L175.7 154.3Q175.7 153.0 174.9 152.3Q174.1 151.6 172.6 151.6L172.6 151.6Q171.5 151.6 170.7 152.0Q169.9 152.5 169.2 153.5L169.2 153.5Q168.7 154.2 167.9 154.2L167.9 154.2Q167.3 154.2 166.9 153.8Q166.5 153.4 166.5 152.9L166.5 152.9Q166.5 152.3 166.8 151.8L166.8 151.8Q167.4 150.5 169.0 149.8Q170.6 149.0 172.7 149.0L172.7 149.0Q175.5 149.0 177.2 150.4Q178.9 151.7 178.9 154.0L178.9 154.0L178.9 163.3Q178.9 164.1 178.4 164.5Q178.0 164.9 177.3 164.9L177.3 164.9Q176.7 164.9 176.3 164.5Q175.8 164.1 175.8 163.4L175.8 163.4L175.8 162.1L175.7 162.1Q175.1 163.4 173.7 164.2Q172.4 164.9 170.9 164.9ZM171.7 162.4L171.7 162.4Q173.4 162.4 174.6 161.4Q175.7 160.4 175.7 158.9L175.7 158.9L175.7 157.7L171.9 157.9Q170.5 158.0 169.7 158.6Q168.9 159.2 168.9 160.2L168.9 160.2Q168.9 161.2 169.7 161.8Q170.5 162.4 171.7 162.4ZM183.8 170.4L183.8 170.4Q182.7 170.4 182.1 170.0Q181.5 169.6 181.5 168.9L181.5 168.9Q181.5 168.4 181.9 168.1Q182.2 167.8 182.8 167.8L182.8 167.8Q182.9 167.8 183.2 167.8Q183.4 167.8 183.6 167.8L183.6 167.8Q185.2 167.8 185.9 165.7L185.9 165.7L186.2 164.8L181.1 151.3Q180.9 150.9 180.9 150.4L180.9 150.4Q180.9 149.8 181.4 149.4Q181.8 149.0 182.5 149.0L182.5 149.0Q183.1 149.0 183.5 149.3Q183.8 149.5 184.0 150.2L184.0 150.2L188.0 161.8L188.0 161.8L191.9 150.2Q192.1 149.5 192.5 149.3Q192.9 149.0 193.5 149.0L193.5 149.0Q194.1 149.0 194.6 149.4Q195.0 149.8 195.0 150.4L195.0 150.4Q195.0 150.8 194.8 151.3L194.8 151.3L189.5 165.4Q188.5 168.2 187.2 169.3Q186.0 170.4 183.8 170.4Z M216.4 164.7L204.8 164.7Q204.0 164.7 203.6 164.3Q203.2 163.9 203.2 163.3L203.2 163.3Q203.2 162.8 203.4 162.5Q203.6 162.1 204.1 161.6L204.1 161.6L210.7 154.9Q212.8 152.8 213.5 151.7Q214.1 150.6 214.1 149.3L214.1 149.3Q214.1 147.8 213.1 146.8Q212.1 145.8 210.5 145.8L210.5 145.8Q207.3 145.8 206.2 149.0L206.2 149.0Q206.0 149.5 205.6 149.8Q205.3 150.0 204.7 150.0L204.7 150.0Q204.1 150.0 203.7 149.6Q203.3 149.3 203.3 148.6L203.3 148.6Q203.3 148.3 203.4 148.0L203.4 148.0Q203.5 147.1 204.1 146.3Q204.6 145.4 205.5 144.7Q206.4 144.0 207.7 143.6Q209.0 143.1 210.5 143.1L210.5 143.1Q213.5 143.1 215.4 144.8Q217.4 146.5 217.4 149.1L217.4 149.1Q217.4 150.9 216.4 152.5Q215.4 154.0 212.7 156.8L212.7 156.8L207.7 161.8L207.7 161.9L216.4 161.9Q217.1 161.9 217.5 162.3Q217.9 162.7 217.9 163.3L217.9 163.3Q217.9 163.9 217.5 164.3Q217.1 164.7 216.4 164.7L216.4 164.7ZM233.8 164.7L222.1 164.7Q221.4 164.7 221.0 164.3Q220.6 163.9 220.6 163.3L220.6 163.3Q220.6 162.8 220.8 162.5Q220.9 162.1 221.5 161.6L221.5 161.6L228.1 154.9Q230.2 152.8 230.8 151.7Q231.5 150.6 231.5 149.3L231.5 149.3Q231.5 147.8 230.5 146.8Q229.4 145.8 227.8 145.8L227.8 145.8Q224.7 145.8 223.6 149.0L223.6 149.0Q223.4 149.5 223.0 149.8Q222.7 150.0 222.1 150.0L222.1 150.0Q221.4 150.0 221.0 149.6Q220.7 149.3 220.7 148.6L220.7 148.6Q220.7 148.3 220.7 148.0L220.7 148.0Q220.9 147.1 221.5 146.3Q222.0 145.4 222.9 144.7Q223.8 144.0 225.0 143.6Q226.3 143.1 227.9 143.1L227.9 143.1Q230.9 143.1 232.8 144.8Q234.8 146.5 234.8 149.1L234.8 149.1Q234.8 150.9 233.8 152.5Q232.8 154.0 230.1 156.8L230.1 156.8L225.0 161.8L225.0 161.9L233.8 161.9Q234.5 161.9 234.9 162.3Q235.2 162.7 235.2 163.3L235.2 163.3Q235.2 163.9 234.9 164.3Q234.5 164.7 233.8 164.7L233.8 164.7Z M247.2 164.4Q246.8 164.9 246.0 164.9Q245.3 164.9 244.8 164.4Q244.4 164.0 244.4 163.2L244.4 163.2L244.4 145.2Q244.4 144.4 244.8 144.0Q245.3 143.5 246.0 143.5L246.0 143.5L256.3 143.5Q257.0 143.5 257.4 143.9Q257.8 144.3 257.8 144.9Q257.8 145.6 257.4 146.0Q257.0 146.4 256.3 146.4L256.3 146.4L247.7 146.4L247.7 153.0L255.5 153.0Q256.2 153.0 256.6 153.4Q257.0 153.8 257.0 154.4Q257.0 155.1 256.6 155.4Q256.2 155.8 255.5 155.8L255.5 155.8L247.7 155.8L247.7 163.2Q247.7 164.0 247.2 164.4ZM266.7 165.0L266.7 165.0Q263.3 165.0 261.3 162.9Q259.4 160.8 259.4 157.0L259.4 157.0Q259.4 153.4 261.3 151.2Q263.3 149.0 266.5 149.0L266.5 149.0Q269.6 149.0 271.5 151.0Q273.5 153.0 273.5 156.1L273.5 156.1Q273.5 156.9 273.0 157.3Q272.6 157.8 271.9 157.8L271.9 157.8L262.6 157.8L262.6 157.8Q262.6 159.9 263.7 161.2Q264.8 162.4 266.7 162.4L266.7 162.4Q268.0 162.4 268.9 161.9Q269.8 161.4 270.7 160.2L270.7 160.2Q271.1 159.6 271.8 159.6L271.8 159.6Q272.4 159.6 272.7 160.0Q273.1 160.3 273.1 160.9L273.1 160.9Q273.1 161.3 272.9 161.8L272.9 161.8Q272.1 163.3 270.5 164.1Q268.9 165.0 266.7 165.0ZM262.6 155.5L262.6 155.5L270.3 155.5Q270.2 153.7 269.2 152.6Q268.2 151.5 266.5 151.5L266.5 151.5Q264.9 151.5 263.8 152.6Q262.7 153.7 262.6 155.5ZM277.5 164.9L277.5 164.9Q276.8 164.9 276.4 164.5Q276.0 164.1 276.0 163.4L276.0 163.4L276.0 144.9Q276.0 144.2 276.5 143.7Q276.9 143.2 277.6 143.2Q278.3 143.2 278.7 143.7Q279.2 144.2 279.2 144.9L279.2 144.9L279.2 151.9L279.3 151.9Q280.0 150.5 281.2 149.8Q282.5 149.0 284.1 149.0L284.1 149.0Q287.0 149.0 288.8 151.2Q290.5 153.3 290.5 157.0L290.5 157.0Q290.5 160.6 288.8 162.8Q287.0 164.9 284.1 164.9L284.1 164.9Q282.4 164.9 281.2 164.2Q279.9 163.4 279.2 162.0L279.2 162.0L279.1 162.0L279.1 163.4Q279.1 164.1 278.7 164.5Q278.2 164.9 277.5 164.9ZM283.3 162.2L283.3 162.2Q285.1 162.2 286.2 160.8Q287.3 159.4 287.3 157.0L287.3 157.0Q287.3 154.5 286.2 153.1Q285.1 151.7 283.3 151.7L283.3 151.7Q281.5 151.7 280.3 153.1Q279.2 154.6 279.2 157.0L279.2 157.0Q279.2 159.3 280.3 160.8Q281.5 162.2 283.3 162.2ZM294.6 164.9L294.6 164.9Q293.9 164.9 293.4 164.5Q293.0 164.0 293.0 163.3L293.0 163.3L293.0 150.6Q293.0 149.9 293.4 149.4Q293.8 149.0 294.5 149.0L294.5 149.0Q295.2 149.0 295.6 149.4Q296.0 149.9 296.0 150.6L296.0 150.6L296.0 151.9L296.1 151.9Q296.4 150.6 297.3 149.8Q298.3 149.0 299.5 149.0L299.5 149.0Q300.3 149.0 300.7 149.4L300.7 149.4Q301.1 149.7 301.1 150.5L301.1 150.5Q301.1 151.2 300.7 151.6L300.7 151.6Q300.2 152.0 299.2 152.0L299.2 152.0Q297.7 152.0 296.9 153.0Q296.2 153.9 296.2 155.4L296.2 155.4L296.2 163.3Q296.2 164.0 295.7 164.5Q295.3 164.9 294.6 164.9ZM308.2 164.9L308.2 164.9Q305.6 164.9 304.2 163.4Q302.8 161.9 302.8 159.2L302.8 159.2L302.8 150.7Q302.8 149.9 303.2 149.4Q303.6 149.0 304.3 149.0L304.3 149.0Q305.0 149.0 305.5 149.4Q305.9 149.9 305.9 150.7L305.9 150.7L305.9 158.6Q305.9 160.4 306.8 161.3Q307.6 162.2 309.2 162.2L309.2 162.2Q310.9 162.2 311.9 161.1Q312.9 160.0 312.9 158.2L312.9 158.2L312.9 150.7Q312.9 149.9 313.3 149.4Q313.8 149.0 314.5 149.0L314.5 149.0Q315.2 149.0 315.6 149.4Q316.0 149.9 316.0 150.7L316.0 150.7L316.0 163.3Q316.0 164.1 315.6 164.5Q315.2 164.9 314.5 164.9Q313.9 164.9 313.4 164.5Q313.0 164.1 313.0 163.3L313.0 163.3L313.0 162.1L312.9 162.1Q311.6 164.9 308.2 164.9ZM323.7 164.9L323.7 164.9Q321.4 164.9 320.0 163.6Q318.5 162.3 318.5 160.3L318.5 160.3Q318.5 158.3 320.0 157.1Q321.5 155.9 324.3 155.7L324.3 155.7L328.5 155.5L328.5 154.3Q328.5 153.0 327.7 152.3Q326.9 151.6 325.4 151.6L325.4 151.6Q324.3 151.6 323.5 152.0Q322.7 152.5 322.0 153.5L322.0 153.5Q321.5 154.2 320.7 154.2L320.7 154.2Q320.1 154.2 319.7 153.8Q319.3 153.4 319.3 152.9L319.3 152.9Q319.3 152.3 319.6 151.8L319.6 151.8Q320.2 150.5 321.8 149.8Q323.4 149.0 325.5 149.0L325.5 149.0Q328.3 149.0 330.0 150.4Q331.7 151.7 331.7 154.0L331.7 154.0L331.7 163.3Q331.7 164.1 331.2 164.5Q330.8 164.9 330.1 164.9L330.1 164.9Q329.5 164.9 329.1 164.5Q328.6 164.1 328.6 163.4L328.6 163.4L328.6 162.1L328.5 162.1Q327.9 163.4 326.5 164.2Q325.2 164.9 323.7 164.9ZM324.5 162.4L324.5 162.4Q326.2 162.4 327.4 161.4Q328.5 160.4 328.5 158.9L328.5 158.9L328.5 157.7L324.7 157.9Q323.3 158.0 322.5 158.6Q321.7 159.2 321.7 160.2L321.7 160.2Q321.7 161.2 322.5 161.8Q323.3 162.4 324.5 162.4ZM336.3 164.9L336.3 164.9Q335.6 164.9 335.1 164.5Q334.7 164.0 334.7 163.3L334.7 163.3L334.7 150.6Q334.7 149.9 335.1 149.4Q335.5 149.0 336.2 149.0L336.2 149.0Q336.9 149.0 337.3 149.4Q337.7 149.9 337.7 150.6L337.7 150.6L337.7 151.9L337.8 151.9Q338.1 150.6 339.1 149.8Q340 149.0 341.2 149.0L341.2 149.0Q342.0 149.0 342.4 149.4L342.4 149.4Q342.8 149.7 342.8 150.5L342.8 150.5Q342.8 151.2 342.4 151.6L342.4 151.6Q341.9 152.0 340.9 152.0L340.9 152.0Q339.4 152.0 338.6 153.0Q337.9 153.9 337.9 155.4L337.9 155.4L337.9 163.3Q337.9 164.0 337.4 164.5Q337.0 164.9 336.3 164.9ZM346.5 170.4L346.5 170.4Q345.4 170.4 344.8 170.0Q344.2 169.6 344.2 168.9L344.2 168.9Q344.2 168.4 344.5 168.1Q344.8 167.8 345.4 167.8L345.4 167.8Q345.6 167.8 345.8 167.8Q346.0 167.8 346.2 167.8L346.2 167.8Q347.8 167.8 348.6 165.7L348.6 165.7L348.9 164.8L343.7 151.3Q343.5 150.9 343.5 150.4L343.5 150.4Q343.5 149.8 344.0 149.4Q344.5 149.0 345.2 149.0L345.2 149.0Q345.8 149.0 346.1 149.3Q346.5 149.5 346.7 150.2L346.7 150.2L350.6 161.8L350.6 161.8L354.6 150.2Q354.8 149.5 355.1 149.3Q355.5 149.0 356.1 149.0L356.1 149.0Q356.8 149.0 357.2 149.4Q357.6 149.8 357.6 150.4L357.6 150.4Q357.6 150.8 357.5 151.3L357.5 151.3L352.1 165.4Q351.1 168.2 349.9 169.3Q348.6 170.4 346.5 170.4Z M379.1 164.7L367.4 164.7Q366.7 164.7 366.3 164.3Q365.8 163.9 365.8 163.3L365.8 163.3Q365.8 162.8 366.0 162.5Q366.2 162.1 366.7 161.6L366.7 161.6L373.4 154.9Q375.4 152.8 376.1 151.7Q376.8 150.6 376.8 149.3L376.8 149.3Q376.8 147.8 375.7 146.8Q374.7 145.8 373.1 145.8L373.1 145.8Q370.0 145.8 368.9 149.0L368.9 149.0Q368.6 149.5 368.3 149.8Q367.9 150.0 367.4 150.0L367.4 150.0Q366.7 150.0 366.3 149.6Q365.9 149.3 365.9 148.6L365.9 148.6Q365.9 148.3 366.0 148.0L366.0 148.0Q366.2 147.1 366.7 146.3Q367.3 145.4 368.2 144.7Q369.0 144.0 370.3 143.6Q371.6 143.1 373.1 143.1L373.1 143.1Q376.2 143.1 378.1 144.8Q380.0 146.5 380.0 149.1L380.0 149.1Q380.0 150.9 379.0 152.5Q378.1 154.0 375.3 156.8L375.3 156.8L370.3 161.8L370.3 161.9L379.1 161.9Q379.7 161.9 380.1 162.3Q380.5 162.7 380.5 163.3L380.5 163.3Q380.5 163.9 380.1 164.3Q379.7 164.7 379.1 164.7L379.1 164.7ZM396.9 162.1Q394.8 165.1 391.0 165.1Q387.2 165.1 385.1 162.1Q382.9 159.2 382.9 154.1L382.9 154.1Q382.9 149.0 385.1 146.1Q387.2 143.1 391.0 143.1L391.0 143.1Q394.8 143.1 396.9 146.1Q399.1 149.0 399.1 154.1L399.1 154.1Q399.1 159.1 396.9 162.1ZM391.0 162.3L391.0 162.3Q393.3 162.3 394.5 160.1Q395.8 157.9 395.8 154.1L395.8 154.1Q395.8 150.3 394.5 148.1Q393.3 145.9 391.0 145.9Q388.8 145.9 387.5 148.1Q386.2 150.3 386.2 154.1L386.2 154.1Q386.2 157.9 387.5 160.1Q388.7 162.3 391.0 162.3ZM415.2 164.7L403.5 164.7Q402.8 164.7 402.3 164.3Q401.9 163.9 401.9 163.3L401.9 163.3Q401.9 162.8 402.1 162.5Q402.3 162.1 402.8 161.6L402.8 161.6L409.4 154.9Q411.5 152.8 412.2 151.7Q412.9 150.6 412.9 149.3L412.9 149.3Q412.9 147.8 411.8 146.8Q410.8 145.8 409.2 145.8L409.2 145.8Q406.1 145.8 405.0 149.0L405.0 149.0Q404.7 149.5 404.4 149.8Q404.0 150.0 403.5 150.0L403.5 150.0Q402.8 150.0 402.4 149.6Q402.0 149.3 402.0 148.6L402.0 148.6Q402.0 148.3 402.1 148.0L402.1 148.0Q402.3 147.1 402.8 146.3Q403.4 145.4 404.2 144.7Q405.1 144.0 406.4 143.6Q407.7 143.1 409.2 143.1L409.2 143.1Q412.2 143.1 414.2 144.8Q416.1 146.5 416.1 149.1L416.1 149.1Q416.1 150.9 415.1 152.5Q414.2 154.0 411.4 156.8L411.4 156.8L406.4 161.8L406.4 161.9L415.2 161.9Q415.8 161.9 416.2 162.3Q416.6 162.7 416.6 163.3L416.6 163.3Q416.6 163.9 416.2 164.3Q415.8 164.7 415.2 164.7L415.2 164.7ZM426.7 165.1L426.7 165.1Q424.2 165.1 422.4 164.1Q420.7 163.2 419.7 161.6L419.7 161.6Q419.3 160.8 419.3 160.0L419.3 160.0Q419.3 159.3 419.7 158.9Q420.1 158.5 420.8 158.5L420.8 158.5Q421.3 158.5 421.7 158.8Q422.0 159.1 422.3 159.6L422.3 159.6Q423.4 162.3 426.8 162.3L426.8 162.3Q428.7 162.3 429.9 161.3Q431.1 160.4 431.1 158.8L431.1 158.8Q431.1 157.0 429.9 156.0Q428.7 155.0 426.5 155.0L426.5 155.0L425.1 155.0Q424.5 155.0 424.1 154.7Q423.7 154.3 423.7 153.8Q423.7 153.2 424.1 152.8Q424.5 152.5 425.1 152.5L425.1 152.5L426.4 152.5Q428.2 152.5 429.4 151.5Q430.5 150.6 430.5 149.1L430.5 149.1Q430.5 147.6 429.5 146.7Q428.5 145.8 426.7 145.8L426.7 145.8Q425.2 145.8 424.2 146.5Q423.2 147.1 422.6 148.5L422.6 148.5Q422.4 149.1 422.1 149.4Q421.7 149.6 421.2 149.6L421.2 149.6Q420.5 149.6 420.1 149.3Q419.7 148.9 419.7 148.2L419.7 148.2Q419.7 147.4 420.1 146.6L420.1 146.6Q421.0 145.0 422.7 144.1Q424.4 143.1 426.7 143.1L426.7 143.1Q429.9 143.1 431.8 144.7Q433.7 146.2 433.7 148.6L433.7 148.6Q433.7 150.6 432.5 151.9Q431.2 153.2 429.2 153.6L429.2 153.6L429.2 153.7Q431.6 153.9 433.0 155.3Q434.4 156.6 434.4 158.8L434.4 158.8Q434.4 161.6 432.2 163.3Q430.1 165.1 426.7 165.1Z "/><mask id="satori_om-id-0-0-1"><rect x="40" y="217" width="1120" height="83" fill="#fff"/></mask><path fill="#224d67" d="M57.8 280.1L57.8 280.1Q56.1 280.1 55.1 279.1Q54.1 278.0 54.1 276.2L54.1 276.2L54.1 243.7L44.4 243.7Q42.8 243.7 41.9 242.8Q40.9 242.0 40.9 240.5Q40.9 239.0 41.9 238.2Q42.8 237.3 44.4 237.3L44.4 237.3L71.3 237.3Q72.8 237.3 73.8 238.2Q74.7 239.0 74.7 240.5Q74.7 242.0 73.8 242.8Q72.8 243.7 71.3 243.7L71.3 243.7L61.6 243.7L61.6 276.2Q61.6 278.0 60.6 279.1Q59.6 280.1 57.8 280.1ZM85.1 279.2Q84.2 280.2 82.5 280.2Q80.9 280.2 79.9 279.2Q78.8 278.1 78.8 276.3L78.8 276.3L78.8 240.5Q78.8 238.7 79.8 237.7Q80.8 236.7 82.5 236.7L82.5 236.7Q84.2 236.7 85.1 237.7Q86.1 238.7 86.1 240.5L86.1 240.5L86.1 253.9L86.2 253.9Q87.5 251.0 90.0 249.5Q92.5 247.9 96.0 247.9L96.0 247.9Q101.1 247.9 104.0 251.1Q106.9 254.2 106.9 259.6L106.9 259.6L106.9 276.3Q106.9 278.1 105.9 279.2Q104.9 280.2 103.2 280.2Q101.6 280.2 100.6 279.2Q99.6 278.1 99.6 276.3L99.6 276.3L99.6 261.1Q99.6 257.8 98.0 255.9Q96.3 254.1 93.2 254.1L93.2 254.1Q89.9 254.1 88.0 256.2Q86.1 258.3 86.1 261.7L86.1 261.7L86.1 276.3Q86.1 278.1 85.1 279.2ZM119.4 243.0Q118.2 244.2 116.5 244.2Q114.8 244.2 113.7 243.0Q112.5 241.8 112.5 240.2L112.5 240.2Q112.5 238.5 113.7 237.4Q114.8 236.2 116.5 236.2L116.5 236.2Q118.3 236.2 119.4 237.4Q120.6 238.5 120.6 240.2L120.6 240.2Q120.6 241.8 119.4 243.0ZM119.2 279.1Q118.2 280.2 116.5 280.2Q114.9 280.2 113.9 279.1Q112.9 278.1 112.9 276.3L112.9 276.3L112.9 251.7Q112.9 250.0 113.9 248.9Q114.9 247.9 116.5 247.9Q118.2 247.9 119.2 248.9Q120.2 250.0 120.2 251.8L120.2 251.8L120.2 276.3Q120.2 278.1 119.2 279.1ZM138.3 280.2L138.3 280.2Q133.5 280.2 130.1 278.5Q126.8 276.8 125.6 274.0L125.6 274.0Q125.3 273.2 125.3 272.5L125.3 272.5Q125.3 271.2 126.2 270.4Q127.0 269.6 128.4 269.6L128.4 269.6Q130.2 269.6 131.6 271.4L131.6 271.4Q132.8 273.3 134.4 274.1Q136.0 274.9 138.6 274.9L138.6 274.9Q141.1 274.9 142.7 273.9Q144.2 272.8 144.2 271.1L144.2 271.1Q144.2 269.7 143.2 268.8Q142.2 268.0 139.8 267.4L139.8 267.4L134.8 266.3Q125.8 264.3 125.8 257.4L125.8 257.4Q125.8 253.1 129.2 250.5Q132.7 247.9 138.4 247.9L138.4 247.9Q142.8 247.9 146.0 249.8Q149.2 251.6 150.0 254.4L150.0 254.4Q150.1 255.0 150.1 255.5L150.1 255.5Q150.1 256.6 149.4 257.4Q148.7 258.1 147.3 258.1L147.3 258.1Q145.5 258.1 144.5 256.7L144.5 256.7Q143.4 255.0 141.9 254.1Q140.4 253.2 138.2 253.2L138.2 253.2Q135.8 253.2 134.3 254.3Q132.8 255.3 132.8 257.0L132.8 257.0Q132.8 259.8 137.4 260.8L137.4 260.8L142.4 261.9Q147.3 263.0 149.4 264.9Q151.5 266.9 151.5 270.3L151.5 270.3Q151.5 274.8 147.9 277.5Q144.2 280.2 138.3 280.2Z M174.4 289.6Q173.4 290.6 171.8 290.6Q170.1 290.6 169.1 289.6Q168.1 288.6 168.1 286.8L168.1 286.8L168.1 251.7Q168.1 249.9 169.1 248.9Q170.1 247.9 171.7 247.9L171.7 247.9Q173.3 247.9 174.3 248.9Q175.3 249.9 175.3 251.7L175.3 251.7L175.3 253.9L175.4 253.9Q176.8 251.1 179.3 249.6Q181.9 248.0 185.2 248.0L185.2 248.0Q191.1 248.0 194.6 252.3Q198.1 256.6 198.1 264.1L198.1 264.1Q198.1 271.5 194.6 275.8Q191.2 280.1 185.3 280.1L185.3 280.1Q182.0 280.1 179.4 278.6Q176.9 277.1 175.6 274.4L175.6 274.4L175.4 274.4L175.4 286.8Q175.4 288.6 174.4 289.6ZM183.0 274.1L183.0 274.1Q186.5 274.1 188.6 271.4Q190.6 268.7 190.6 264.1L190.6 264.1Q190.6 259.5 188.5 256.7Q186.5 254.0 183.0 254.0L183.0 254.0Q179.6 254.0 177.5 256.8Q175.4 259.5 175.4 264.1L175.4 264.1Q175.4 268.6 177.5 271.4Q179.6 274.1 183.0 274.1ZM227.5 275.9Q223.4 280.2 216.5 280.2Q209.6 280.2 205.6 275.9Q201.5 271.6 201.5 264.1L201.5 264.1Q201.5 256.6 205.6 252.2Q209.7 247.9 216.5 247.9L216.5 247.9Q223.4 247.9 227.5 252.2Q231.5 256.6 231.5 264.1L231.5 264.1Q231.5 271.6 227.5 275.9ZM210.9 271.7Q213.0 274.4 216.5 274.4Q220.0 274.4 222.1 271.7Q224.1 269.0 224.1 264.1L224.1 264.1Q224.1 259.2 222.1 256.4Q220.0 253.7 216.5 253.7L216.5 253.7Q213.0 253.7 211.0 256.4Q208.9 259.2 208.9 264.1L208.9 264.1Q208.9 269.0 210.9 271.7ZM248.2 280.2L248.2 280.2Q243.4 280.2 240.0 278.5Q236.7 276.8 235.6 274.0L235.6 274.0Q235.3 273.2 235.3 272.5L235.3 272.5Q235.3 271.2 236.1 270.4Q237.0 269.6 238.3 269.6L238.3 269.6Q240.1 269.6 241.5 271.4L241.5 271.4Q242.7 273.3 244.3 274.1Q245.9 274.9 248.5 274.9L248.5 274.9Q251.1 274.9 252.6 273.9Q254.1 272.8 254.1 271.1L254.1 271.1Q254.1 269.7 253.1 268.8Q252.1 268.0 249.8 267.4L249.8 267.4L244.7 266.3Q235.7 264.3 235.7 257.4L235.7 257.4Q235.7 253.1 239.1 250.5Q242.6 247.9 248.3 247.9L248.3 247.9Q252.7 247.9 255.9 249.8Q259.2 251.6 259.9 254.4L259.9 254.4Q260.0 255.0 260.0 255.5L260.0 255.5Q260.0 256.6 259.3 257.4Q258.6 258.1 257.2 258.1L257.2 258.1Q255.4 258.1 254.5 256.7L254.5 256.7Q253.3 255.0 251.8 254.1Q250.4 253.2 248.2 253.2L248.2 253.2Q245.8 253.2 244.3 254.3Q242.8 255.3 242.8 257.0L242.8 257.0Q242.8 259.8 247.3 260.8L247.3 260.8L252.3 261.9Q257.2 263.0 259.3 264.9Q261.5 266.9 261.5 270.3L261.5 270.3Q261.5 274.8 257.8 277.5Q254.2 280.2 248.2 280.2ZM268.1 271.9L268.1 271.9L268.1 254.1L266.1 254.1Q264.8 254.1 264.0 253.4Q263.2 252.6 263.2 251.3L263.2 251.3Q263.2 250.0 264.0 249.3Q264.7 248.5 266.1 248.5L266.1 248.5L268.1 248.5L268.1 244.4Q268.1 242.6 269.1 241.6Q270.0 240.6 271.7 240.6L271.7 240.6Q273.4 240.6 274.4 241.6Q275.4 242.6 275.4 244.4L275.4 244.4L275.4 248.5L278.7 248.5Q280.1 248.5 280.9 249.3Q281.7 250.0 281.7 251.3L281.7 251.3Q281.7 252.6 280.9 253.4Q280.1 254.1 278.7 254.1L278.7 254.1L275.4 254.1L275.4 270.3Q275.4 272.1 276.0 272.9Q276.7 273.7 278.3 273.9L278.3 273.9L278.8 273.9Q281.8 274.2 281.8 276.6L281.8 276.6Q281.8 278.2 280.4 279.1Q279.1 279.9 276.5 279.9L276.5 279.9L276.3 279.9Q268.1 279.9 268.1 271.9Z M309.8 280.1L309.8 280.1Q303.9 280.1 300.4 275.7Q296.9 271.4 296.9 264.0L296.9 264.0Q296.9 256.7 300.4 252.3Q303.9 248.0 309.8 248.0L309.8 248.0Q313.1 248.0 315.6 249.5Q318.1 251.1 319.4 253.7L319.4 253.7L319.6 253.7L319.6 240.6Q319.6 238.7 320.6 237.7Q321.6 236.7 323.2 236.7Q324.9 236.7 325.9 237.7Q326.9 238.7 326.9 240.6L326.9 240.6L326.9 276.5Q326.9 278.2 325.9 279.2Q324.9 280.2 323.3 280.2L323.3 280.2Q321.6 280.2 320.6 279.2Q319.6 278.2 319.6 276.5L319.6 276.5L319.6 274.1L319.4 274.1Q318.3 276.9 315.8 278.5Q313.3 280.1 309.8 280.1ZM312.0 274.1L312.0 274.1Q315.4 274.1 317.5 271.4Q319.6 268.7 319.6 264.1L319.6 264.1Q319.6 259.5 317.5 256.7Q315.4 254.0 312.0 254.0L312.0 254.0Q308.5 254.0 306.4 256.7Q304.4 259.4 304.4 264.1L304.4 264.1Q304.4 268.7 306.4 271.4Q308.4 274.1 312.0 274.1ZM357.7 275.9Q353.6 280.2 346.7 280.2Q339.9 280.2 335.8 275.9Q331.7 271.6 331.7 264.1L331.7 264.1Q331.7 256.6 335.8 252.2Q339.9 247.9 346.7 247.9L346.7 247.9Q353.6 247.9 357.7 252.2Q361.8 256.6 361.8 264.1L361.8 264.1Q361.8 271.6 357.7 275.9ZM341.2 271.7Q343.2 274.4 346.7 274.4Q350.3 274.4 352.3 271.7Q354.4 269.0 354.4 264.1L354.4 264.1Q354.4 259.2 352.3 256.4Q350.3 253.7 346.7 253.7L346.7 253.7Q343.3 253.7 341.2 256.4Q339.1 259.2 339.1 264.1L339.1 264.1Q339.1 269.0 341.2 271.7ZM380.3 280.2L380.3 280.2Q373.1 280.2 369.2 276.0Q365.2 271.7 365.2 264.2L365.2 264.2Q365.2 256.7 369.2 252.3Q373.1 247.9 379.8 247.9L379.8 247.9Q386.2 247.9 390.2 251.9Q394.1 256.0 394.1 262.4L394.1 262.4Q394.1 264.0 393.2 264.9Q392.4 265.8 390.7 265.8L390.7 265.8L372.4 265.8L372.4 266.0Q372.4 269.9 374.5 272.3Q376.7 274.6 380.2 274.6L380.2 274.6Q382.7 274.6 384.4 273.6Q386.2 272.7 388.0 270.4L388.0 270.4Q389.0 269.3 390.4 269.3L390.4 269.3Q391.7 269.3 392.5 270.0Q393.3 270.8 393.3 272.1L393.3 272.1Q393.3 272.9 392.9 273.9L392.9 273.9Q391.3 276.9 388.0 278.5Q384.7 280.2 380.3 280.2ZM372.5 261.0L372.5 261.0L387.0 261.0Q386.9 257.6 384.9 255.6Q382.9 253.5 379.9 253.5Q376.8 253.5 374.7 255.6Q372.7 257.7 372.5 261.0ZM410.8 280.2L410.8 280.2Q406.0 280.2 402.6 278.5Q399.3 276.8 398.2 274.0L398.2 274.0Q397.9 273.2 397.9 272.5L397.9 272.5Q397.9 271.2 398.7 270.4Q399.6 269.6 400.9 269.6L400.9 269.6Q402.7 269.6 404.1 271.4L404.1 271.4Q405.3 273.3 406.9 274.1Q408.5 274.9 411.1 274.9L411.1 274.9Q413.7 274.9 415.2 273.9Q416.7 272.8 416.7 271.1L416.7 271.1Q416.7 269.7 415.7 268.8Q414.7 268.0 412.4 267.4L412.4 267.4L407.3 266.3Q398.3 264.3 398.3 257.4L398.3 257.4Q398.3 253.1 401.7 250.5Q405.2 247.9 410.9 247.9L410.9 247.9Q415.3 247.9 418.5 249.8Q421.8 251.6 422.5 254.4L422.5 254.4Q422.6 255.0 422.6 255.5L422.6 255.5Q422.6 256.6 421.9 257.4Q421.2 258.1 419.8 258.1L419.8 258.1Q418.0 258.1 417.1 256.7L417.1 256.7Q415.9 255.0 414.4 254.1Q412.9 253.2 410.8 253.2L410.8 253.2Q408.3 253.2 406.9 254.3Q405.4 255.3 405.4 257.0L405.4 257.0Q405.4 259.8 409.9 260.8L409.9 260.8L414.9 261.9Q419.8 263.0 421.9 264.9Q424.1 266.9 424.1 270.3L424.1 270.3Q424.1 274.8 420.4 277.5Q416.8 280.2 410.8 280.2ZM434.9 279.2Q433.9 280.2 432.3 280.2Q430.6 280.2 429.6 279.2Q428.7 278.1 428.7 276.3L428.7 276.3L428.7 251.6Q428.7 249.9 429.6 248.9Q430.5 247.9 432.1 247.9Q433.8 247.9 434.7 248.9Q435.7 249.9 435.7 251.6L435.7 251.6L435.7 253.8L435.9 253.8Q438.5 247.9 445.6 247.9L445.6 247.9Q450.7 247.9 453.5 251.0Q456.3 254.1 456.3 259.5L456.3 259.5L456.3 276.3Q456.3 278.1 455.3 279.2Q454.3 280.2 452.7 280.2Q451.0 280.2 450.0 279.2Q449.0 278.1 449.0 276.3L449.0 276.3L449.0 261.0Q449.0 257.6 447.4 255.9Q445.9 254.1 442.8 254.1L442.8 254.1Q439.7 254.1 437.8 256.2Q435.9 258.2 435.9 261.6L435.9 261.6L435.9 276.3Q435.9 278.1 434.9 279.2ZM468.1 252.9Q467.2 253.8 465.8 253.8Q464.4 253.8 463.5 252.9Q462.6 252.0 462.6 250.6L462.6 250.6L462.6 239.9Q462.6 238.5 463.5 237.6Q464.4 236.7 465.8 236.7Q467.2 236.7 468.1 237.6Q469.0 238.5 469.0 239.9L469.0 239.9L469.0 250.6Q469.0 252.0 468.1 252.9ZM477.4 271.9L477.4 271.9L477.4 254.1L475.5 254.1Q474.1 254.1 473.3 253.4Q472.5 252.6 472.5 251.3L472.5 251.3Q472.5 250.0 473.3 249.3Q474.1 248.5 475.5 248.5L475.5 248.5L477.4 248.5L477.4 244.4Q477.4 242.6 478.4 241.6Q479.4 240.6 481.1 240.6L481.1 240.6Q482.8 240.6 483.7 241.6Q484.7 242.6 484.7 244.4L484.7 244.4L484.7 248.5L488.1 248.5Q489.5 248.5 490.2 249.3Q491.0 250.0 491.0 251.3L491.0 251.3Q491.0 252.6 490.2 253.4Q489.4 254.1 488.1 254.1L488.1 254.1L484.7 254.1L484.7 270.3Q484.7 272.1 485.4 272.9Q486.1 273.7 487.7 273.9L487.7 273.9L488.2 273.9Q491.1 274.2 491.1 276.6L491.1 276.6Q491.1 278.2 489.8 279.1Q488.4 279.9 485.9 279.9L485.9 279.9L485.6 279.9Q477.4 279.9 477.4 271.9Z M514.1 279.2Q513.1 280.2 511.4 280.2Q509.8 280.2 508.8 279.2Q507.8 278.1 507.8 276.3L507.8 276.3L507.8 240.5Q507.8 238.7 508.7 237.7Q509.7 236.7 511.4 236.7L511.4 236.7Q513.1 236.7 514.0 237.7Q515.0 238.7 515.0 240.5L515.0 240.5L515.0 253.9L515.1 253.9Q516.4 251.0 518.9 249.5Q521.4 247.9 524.9 247.9L524.9 247.9Q530.0 247.9 532.9 251.1Q535.8 254.2 535.8 259.6L535.8 259.6L535.8 276.3Q535.8 278.1 534.8 279.2Q533.8 280.2 532.1 280.2Q530.5 280.2 529.5 279.2Q528.5 278.1 528.5 276.3L528.5 276.3L528.5 261.1Q528.5 257.8 526.9 255.9Q525.2 254.1 522.1 254.1L522.1 254.1Q518.8 254.1 516.9 256.2Q515.0 258.3 515.0 261.7L515.0 261.7L515.0 276.3Q515.0 278.1 514.1 279.2ZM550.7 280.1L550.7 280.1Q546.2 280.1 543.3 277.5Q540.4 274.9 540.4 270.7L540.4 270.7Q540.4 266.6 543.4 264.2Q546.5 261.8 552.2 261.4L552.2 261.4L560.4 260.9L560.4 258.7Q560.4 256.3 558.9 254.9Q557.3 253.6 554.6 253.6L554.6 253.6Q552.4 253.6 550.9 254.4Q549.4 255.2 548.1 257.2L548.1 257.2Q547.0 258.7 545.1 258.7L545.1 258.7Q543.8 258.7 542.9 257.9Q542.1 257.1 542.1 255.8L542.1 255.8Q542.1 254.8 542.6 253.8L542.6 253.8Q543.7 251.1 547.1 249.5Q550.4 247.9 554.9 247.9L554.9 247.9Q560.7 247.9 564.1 250.7Q567.6 253.5 567.6 258.2L567.6 258.2L567.6 276.5Q567.6 278.2 566.6 279.2Q565.6 280.2 564.1 280.2L564.1 280.2Q562.5 280.2 561.6 279.3Q560.7 278.4 560.6 276.8L560.6 276.8L560.6 274.6L560.4 274.6Q559.1 277.1 556.4 278.6Q553.8 280.1 550.7 280.1ZM553.0 274.6L553.0 274.6Q556.1 274.6 558.2 272.7Q560.4 270.8 560.4 268.1L560.4 268.1L560.4 265.7L553.2 266.1Q550.6 266.3 549.1 267.4Q547.7 268.6 547.7 270.4L547.7 270.4Q547.7 272.3 549.1 273.4Q550.6 274.6 553.0 274.6ZM585.9 280.2L585.9 280.2Q583.9 280.2 582.7 279.3Q581.5 278.4 580.8 276.4L580.8 276.4L572.0 253.3Q571.6 252.2 571.6 251.2L571.6 251.2Q571.6 249.8 572.6 248.8Q573.7 247.9 575.3 247.9L575.3 247.9Q577.9 247.9 578.7 250.8L578.7 250.8L585.8 272.8L586.0 272.8L593.1 250.8Q593.9 247.9 596.5 247.9L596.5 247.9Q598.0 247.9 599.0 248.8Q600.0 249.8 600.0 251.2L600.0 251.2Q600.0 252.2 599.7 253.2L599.7 253.2L590.9 276.4Q590.3 278.3 589.0 279.3Q587.8 280.2 585.9 280.2ZM617.9 280.2L617.9 280.2Q610.8 280.2 606.8 276.0Q602.9 271.7 602.9 264.2L602.9 264.2Q602.9 256.7 606.8 252.3Q610.8 247.9 617.5 247.9L617.5 247.9Q623.9 247.9 627.9 251.9Q631.8 256.0 631.8 262.4L631.8 262.4Q631.8 264.0 630.9 264.9Q630.0 265.8 628.4 265.8L628.4 265.8L610.1 265.8L610.1 266.0Q610.1 269.9 612.2 272.3Q614.3 274.6 617.9 274.6L617.9 274.6Q620.3 274.6 622.1 273.6Q623.9 272.7 625.6 270.4L625.6 270.4Q626.7 269.3 628.1 269.3L628.1 269.3Q629.4 269.3 630.2 270.0Q631.0 270.8 631.0 272.1L631.0 272.1Q631.0 272.9 630.5 273.9L630.5 273.9Q629.0 276.9 625.7 278.5Q622.4 280.2 617.9 280.2ZM610.2 261.0L610.2 261.0L624.7 261.0Q624.6 257.6 622.6 255.6Q620.6 253.5 617.6 253.5Q614.5 253.5 612.4 255.6Q610.4 257.7 610.2 261.0Z M657.6 280.1L657.6 280.1Q653.1 280.1 650.2 277.5Q647.3 274.9 647.3 270.7L647.3 270.7Q647.3 266.6 650.3 264.2Q653.4 261.8 659.1 261.4L659.1 261.4L667.3 260.9L667.3 258.7Q667.3 256.3 665.8 254.9Q664.2 253.6 661.5 253.6L661.5 253.6Q659.3 253.6 657.8 254.4Q656.3 255.2 655 257.2L655 257.2Q653.9 258.7 652.0 258.7L652.0 258.7Q650.7 258.7 649.8 257.9Q649.0 257.1 649.0 255.8L649.0 255.8Q649.0 254.8 649.5 253.8L649.5 253.8Q650.6 251.1 654.0 249.5Q657.3 247.9 661.8 247.9L661.8 247.9Q667.6 247.9 671.0 250.7Q674.5 253.5 674.5 258.2L674.5 258.2L674.5 276.5Q674.5 278.2 673.5 279.2Q672.5 280.2 671.0 280.2L671.0 280.2Q669.4 280.2 668.5 279.3Q667.6 278.4 667.5 276.8L667.5 276.8L667.5 274.6L667.3 274.6Q666.0 277.1 663.3 278.6Q660.7 280.1 657.6 280.1ZM659.9 274.6L659.9 274.6Q663.0 274.6 665.1 272.7Q667.3 270.8 667.3 268.1L667.3 268.1L667.3 265.7L660.1 266.1Q657.5 266.3 656.0 267.4Q654.6 268.6 654.6 270.4L654.6 270.4Q654.6 272.3 656.0 273.4Q657.5 274.6 659.9 274.6ZM686.7 279.2Q685.6 280.2 684.0 280.2Q682.4 280.2 681.4 279.2Q680.4 278.1 680.4 276.3L680.4 276.3L680.4 251.6Q680.4 249.9 681.3 248.9Q682.2 247.9 683.9 247.9Q685.5 247.9 686.5 248.9Q687.5 249.9 687.5 251.6L687.5 251.6L687.5 253.8L687.6 253.8Q690.2 247.9 697.3 247.9L697.3 247.9Q702.4 247.9 705.2 251.0Q708.0 254.1 708.0 259.5L708.0 259.5L708.0 276.3Q708.0 278.1 707.0 279.2Q706.0 280.2 704.4 280.2Q702.8 280.2 701.7 279.2Q700.7 278.1 700.7 276.3L700.7 276.3L700.7 261.0Q700.7 257.6 699.2 255.9Q697.6 254.1 694.5 254.1L694.5 254.1Q691.4 254.1 689.5 256.2Q687.7 258.2 687.7 261.6L687.7 261.6L687.7 276.3Q687.7 278.1 686.7 279.2ZM718.3 291.1L718.3 291.1Q715.8 291.1 714.5 290.2Q713.2 289.3 713.2 287.7L713.2 287.7Q713.2 286.6 714.0 285.9Q714.7 285.2 716.0 285.2L716.0 285.2Q716.3 285.2 716.8 285.2Q717.2 285.2 717.6 285.2L717.6 285.2Q720.6 285.2 722.0 281.7L722.0 281.7L722.5 280.1L712.4 253.4Q712.0 252.2 712.0 251.3L712.0 251.3Q712.0 249.8 713.0 248.9Q714.1 247.9 715.7 247.9L715.7 247.9Q717.1 247.9 717.9 248.6Q718.7 249.3 719.2 250.8L719.2 250.8L726.6 273.4L726.7 273.4L734.1 250.8Q734.6 249.3 735.4 248.6Q736.3 247.9 737.6 247.9L737.6 247.9Q739.2 247.9 740.2 248.8Q741.2 249.8 741.2 251.2L741.2 251.2Q741.2 252.2 740.8 253.3L740.8 253.3L730.6 280.7Q728.4 286.5 725.7 288.8Q723.0 291.1 718.3 291.1Z M770.8 280.2L770.8 280.2Q764.0 280.2 760.0 275.9Q755.9 271.5 755.9 264.1L755.9 264.1Q755.9 256.7 759.9 252.3Q764.0 247.9 770.8 247.9L770.8 247.9Q775.3 247.9 778.9 250.0Q782.4 252.1 783.6 255.4L783.6 255.4Q783.9 256.4 783.9 257.1L783.9 257.1Q783.9 258.5 783.0 259.3Q782.1 260.1 780.8 260.1L780.8 260.1Q779.7 260.1 779.0 259.6Q778.3 259.1 777.6 258.0L777.6 258.0Q775.3 253.8 771.0 253.8L771.0 253.8Q767.5 253.8 765.4 256.6Q763.3 259.3 763.3 264.1L763.3 264.1Q763.3 268.9 765.4 271.6Q767.4 274.3 771.0 274.3L771.0 274.3Q775.3 274.3 777.6 270.3L777.6 270.3Q778.3 269.1 779.1 268.6Q779.8 268.1 780.9 268.1L780.9 268.1Q782.3 268.1 783.1 268.9Q784.0 269.7 784.0 271.1L784.0 271.1Q784.0 271.9 783.6 272.9L783.6 272.9Q782.3 276.1 778.7 278.2Q775.2 280.2 770.8 280.2ZM813.6 275.9Q809.5 280.2 802.7 280.2Q795.8 280.2 791.7 275.9Q787.6 271.6 787.6 264.1L787.6 264.1Q787.6 256.6 791.7 252.2Q795.8 247.9 802.7 247.9L802.7 247.9Q809.5 247.9 813.6 252.2Q817.7 256.6 817.7 264.1L817.7 264.1Q817.7 271.6 813.6 275.9ZM797.1 271.7Q799.1 274.4 802.7 274.4Q806.2 274.4 808.2 271.7Q810.3 269.0 810.3 264.1L810.3 264.1Q810.3 259.2 808.2 256.4Q806.2 253.7 802.7 253.7L802.7 253.7Q799.2 253.7 797.1 256.4Q795.0 259.2 795.0 264.1L795.0 264.1Q795.0 269.0 797.1 271.7ZM828.7 279.2Q827.6 280.2 826.0 280.2Q824.4 280.2 823.4 279.2Q822.4 278.1 822.4 276.3L822.4 276.3L822.4 251.6Q822.4 249.9 823.3 248.9Q824.2 247.9 825.9 247.9Q827.5 247.9 828.5 248.9Q829.5 249.9 829.5 251.6L829.5 251.6L829.5 253.8L829.6 253.8Q832.2 247.9 839.3 247.9L839.3 247.9Q844.4 247.9 847.2 251.0Q850.0 254.1 850.0 259.5L850.0 259.5L850.0 276.3Q850.0 278.1 849.0 279.2Q848.0 280.2 846.4 280.2Q844.8 280.2 843.7 279.2Q842.7 278.1 842.7 276.3L842.7 276.3L842.7 261.0Q842.7 257.6 841.2 255.9Q839.6 254.1 836.5 254.1L836.5 254.1Q833.4 254.1 831.5 256.2Q829.7 258.2 829.7 261.6L829.7 261.6L829.7 276.3Q829.7 278.1 828.7 279.2ZM857.9 271.9L857.9 271.9L857.9 254.1L855.9 254.1Q854.6 254.1 853.8 253.4Q853.0 252.6 853.0 251.3L853.0 251.3Q853.0 250.0 853.8 249.3Q854.5 248.5 855.9 248.5L855.9 248.5L857.9 248.5L857.9 244.4Q857.9 242.6 858.9 241.6Q859.8 240.6 861.5 240.6L861.5 240.6Q863.2 240.6 864.2 241.6Q865.2 242.6 865.2 244.4L865.2 244.4L865.2 248.5L868.5 248.5Q869.9 248.5 870.7 249.3Q871.5 250.0 871.5 251.3L871.5 251.3Q871.5 252.6 870.7 253.4Q869.9 254.1 868.5 254.1L868.5 254.1L865.2 254.1L865.2 270.3Q865.2 272.1 865.8 272.9Q866.5 273.7 868.1 273.9L868.1 273.9L868.6 273.9Q871.6 274.2 871.6 276.6L871.6 276.6Q871.6 278.2 870.2 279.1Q868.9 279.9 866.3 279.9L866.3 279.9L866.1 279.9Q857.9 279.9 857.9 271.9ZM889.8 280.2L889.8 280.2Q882.7 280.2 878.7 276.0Q874.7 271.7 874.7 264.2L874.7 264.2Q874.7 256.7 878.7 252.3Q882.7 247.9 889.4 247.9L889.4 247.9Q895.7 247.9 899.7 251.9Q903.7 256.0 903.7 262.4L903.7 262.4Q903.7 264.0 902.8 264.9Q901.9 265.8 900.3 265.8L900.3 265.8L882.0 265.8L882.0 266.0Q882.0 269.9 884.1 272.3Q886.2 274.6 889.7 274.6L889.7 274.6Q892.2 274.6 894.0 273.6Q895.7 272.7 897.5 270.4L897.5 270.4Q898.5 269.3 900.0 269.3L900.0 269.3Q901.2 269.3 902.0 270.0Q902.9 270.8 902.9 272.1L902.9 272.1Q902.9 272.9 902.4 273.9L902.4 273.9Q900.8 276.9 897.5 278.5Q894.2 280.2 889.8 280.2ZM882.0 261.0L882.0 261.0L896.5 261.0Q896.4 257.6 894.4 255.6Q892.5 253.5 889.4 253.5Q886.3 253.5 884.3 255.6Q882.2 257.7 882.0 261.0ZM914.6 279.2Q913.6 280.2 912.0 280.2Q910.4 280.2 909.4 279.2Q908.4 278.1 908.4 276.3L908.4 276.3L908.4 251.6Q908.4 249.9 909.3 248.9Q910.2 247.9 911.8 247.9Q913.5 247.9 914.5 248.9Q915.4 249.9 915.4 251.6L915.4 251.6L915.4 253.8L915.6 253.8Q918.2 247.9 925.3 247.9L925.3 247.9Q930.4 247.9 933.2 251.0Q936.0 254.1 936.0 259.5L936.0 259.5L936.0 276.3Q936.0 278.1 935.0 279.2Q934.0 280.2 932.4 280.2Q930.7 280.2 929.7 279.2Q928.7 278.1 928.7 276.3L928.7 276.3L928.7 261.0Q928.7 257.6 927.2 255.9Q925.6 254.1 922.5 254.1L922.5 254.1Q919.4 254.1 917.5 256.2Q915.7 258.2 915.7 261.6L915.7 261.6L915.7 276.3Q915.7 278.1 914.6 279.2ZM943.9 271.9L943.9 271.9L943.9 254.1L941.9 254.1Q940.6 254.1 939.8 253.4Q939.0 252.6 939.0 251.3L939.0 251.3Q939.0 250.0 939.8 249.3Q940.5 248.5 941.9 248.5L941.9 248.5L943.9 248.5L943.9 244.4Q943.9 242.6 944.8 241.6Q945.8 240.6 947.5 240.6L947.5 240.6Q949.2 240.6 950.2 241.6Q951.2 242.6 951.2 244.4L951.2 244.4L951.2 248.5L954.5 248.5Q955.9 248.5 956.7 249.3Q957.5 250.0 957.5 251.3L957.5 251.3Q957.5 252.6 956.7 253.4Q955.9 254.1 954.5 254.1L954.5 254.1L951.2 254.1L951.2 270.3Q951.2 272.1 951.8 272.9Q952.5 273.7 954.1 273.9L954.1 273.9L954.6 273.9Q957.5 274.2 957.5 276.6L957.5 276.6Q957.5 278.2 956.2 279.1Q954.9 279.9 952.3 279.9L952.3 279.9L952.0 279.9Q943.9 279.9 943.9 271.9Z "/><defs><clipPath id="satori_bc-id-0-1"><rect x="0" y="441" width="1200" height="189"/></clipPath></defs><mask id="satori_om-id-0-1"><rect x="0" y="442" width="1200" height="188" fill="#fff"/><path width="1200" height="189" fill="none" stroke="#000" stroke-width="2" d="M0,441 A0,0 0 0 1 0,441 h1200 A0,0 0 0 1 1200,441"/></mask><path width="1200" height="189" clip-path="url(#satori_bc-id-0-1)" fill="none" stroke="#dbdbdb" stroke-width="2" d="M0,441 A0,0 0 0 1 0,441 h1200 A0,0 0 0 1 1200,441"/><mask id="satori_om-id-0-1-0"><rect x="40" y="482" width="209" height="108" fill="#fff"/></mask><clipPath id="satori_cp-id-0-1-0-0"><rect x="40" y="504" width="64" height="64"/></clipPath><mask id="satori_om-id-0-1-0-0"><rect x="40" y="504" width="64" height="64" fill="#fff"/></mask><image x="40" y="504" width="64" height="64" href="data:image/svg+xml;utf8,%3Csvg  xmlns=%22http://www.w3.org/2000/svg%22 width=%2264%22 height=%2264%22 viewBox=%220 0 128 128%22%3E%3Cpath fill=%22%23224d67%22 d=%22M22.5 14.8c2.9 1.3 99 44 99 44c2.7 1.2 2.9 3.1 2 12.4c-1 10.5-1.9 37.8-40.2 42.9c-24.6 3.2-55.9-4.3-70.9-27.2C-6 58.8 11 23.4 14.8 17.7c2.4-3.5 4.8-4.2 7.7-2.9%22%3E%3C/path%3E%3Cpath fill=%22%23f0f4c3%22 d=%22M121.5 58.8c-.3-.2-92-40.8-98.9-43.9C9.6 31.5-3.8 76 27.9 96.2c33.6 21.5 78.7-10.2 93.6-37.4%22%3E%3C/path%3E%3Cpath fill=%22%23f0f4c3%22 d=%22M117.7 57c-.3-.2-86.7-38.4-93.2-41.3c-12.2 15.5-23.9 59.1 5.7 78c31.4 20.2 73.6-11.2 87.5-36.7%22%3E%3C/path%3E%3Cpath fill=%22%23cb2a42%22 d=%22M56.2 37.6L19.5 48.2c-2.5.8-4.4 2.8-5 5.3c-1.9 8.5.8 23.3 8.9 29.8c3.5 2.7 8.6 1.8 10.8-2.1L58.5 41c1.3-1.7.5-4.2-2.3-3.4m14.3 2.9s14.6 30.1 16 33s6.3 4.7 9.9 2.8c10.7-5.6 15.5-12.4 19.2-20.2c-8.9-3.9-42.4-18.8-42.4-18.8c-2.4-1.1-4 .6-2.7 3.2m-8.6 1.9C60.3 45.1 39.5 81 37.6 84.1c-1.9 3.2-.7 7.5 2.7 9.2c12.3 6.5 30.9.4 39.6-7c2.2-1.9 4.5-5.1 3.2-8.2S68.9 44.6 67.8 42.3c-1.2-2.7-4.1-2.8-5.9.1%22%3E%3C/path%3E%3Cpath fill=%22%23f0f4c3%22 d=%22M52.2 42.2c-1.4.4-10.1 3-11.1 3.4c-1.4.5-2.2 1.7-1.9 2.5c.3.9 1.7 1.1 3.1.6c.8-.3 7.1-3.9 9.5-5.2c-3.1 2.4-10.2 9.4-11.1 10.3c-1.4 1.5-1.7 3.4-.8 4.3c1 .9 2.9.5 4.3-1c1.2-1.3 8.5-12.8 9.1-13.9s.4-1.4-1.1-1m10.1 16.4c0-2.2 1.4-10.3 1.8-12.3c.4-1.6 1.5-1.8 1.8.5s1.7 9.7 1.7 11.8s-1.2 3.3-2.7 3.3c-1.4 0-2.6-1.1-2.6-3.3M79.9 49c-1.2-1.8-3.3-4.9-4.1-6.1c-.7-1.2.1-2.1 1.8-.9s4 2.9 5.4 4c1.6 1.3 1.9 3 .8 4s-2.7.8-3.9-1%22%3E%3C/path%3E%3Cellipse cx=%2287.3%22 cy=%22103.12%22 fill=%22%23cb2a42%22 rx=%223.4%22 ry=%222.3%22 transform=%22rotate(-27.098 87.298 103.126)%22%3E%3C/ellipse%3E%3Cellipse cx=%2298.89%22 cy=%22103.82%22 fill=%22%23cb2a42%22 rx=%223.4%22 ry=%222.3%22 transform=%22rotate(-30.642 98.887 103.818)%22%3E%3C/ellipse%3E%3Cellipse cx=%22102.02%22 cy=%2293.8%22 fill=%22%23cb2a42%22 rx=%223.4%22 ry=%222.3%22 transform=%22rotate(-37.16 102.017 93.797)%22%3E%3C/ellipse%3E%3Cpath fill=%22%23cb2a42%22 d=%22M57.6 30.3c-8.3-3.7-24.4-10.7-29.6-13c-3.6 2.2-9.7 11.4-11.2 21.2c-.6 3.6 1.7 5.9 5.3 4.9c0 0 33.7-9.3 35.3-9.7c1.6-.5 2-2.6.2-3.4%22%3E%3C/path%3E%3C/svg%3E" preserveAspectRatio="none" clip-path="url(#satori_cp-id-0-1-0-0)" mask="url(#satori_om-id-0-1-0-0)"/><mask id="satori_om-id-0-1-0-0-0"><rect x="40" y="504" width="0" height="64" fill="#fff"/></mask><mask id="satori_om-id-0-1-0-0-1"><rect x="40" y="504" width="0" height="64" fill="#fff"/></mask><mask id="satori_om-id-0-1-0-0-2"><rect x="40" y="504" width="0" height="64" fill="#fff"/></mask><mask id="satori_om-id-0-1-0-0-3"><rect x="40" y="504" width="0" height="64" fill="#fff"/></mask><mask id="satori_om-id-0-1-0-0-4"><rect x="40" y="504" width="0" height="64" fill="#fff"/></mask><mask id="satori_om-id-0-1-0-0-5"><rect x="40" y="504" width="0" height="64" fill="#fff"/></mask><mask id="satori_om-id-0-1-0-0-6"><rect x="40" y="504" width="0" height="64" fill="#fff"/></mask><mask id="satori_om-id-0-1-0-0-7"><rect x="40" y="504" width="0" height="64" fill="#fff"/></mask><mask id="satori_om-id-0-1-0-0-8"><rect x="40" y="504" width="0" height="64" fill="#fff"/></mask><mask id="satori_om-id-0-1-0-1"><rect x="116" y="512" width="133" height="48" fill="#fff"/></mask><path fill="#545454" d="M133.9 553.6L133.9 553.6Q126.4 553.6 122.1 549.0Q117.8 544.3 117.8 536.1L117.8 536.1Q117.8 528.0 122.1 523.3Q126.4 518.7 133.7 518.7L133.7 518.7Q138.4 518.7 142.0 520.7Q145.5 522.7 147.2 526.3L147.2 526.3Q147.9 527.7 147.9 529.0L147.9 529.0Q147.9 530.4 147.1 531.2Q146.2 532.0 144.8 532.0L144.8 532.0Q143.6 532.0 142.8 531.5Q142.0 530.9 141.5 529.7L141.5 529.7Q140.3 527.1 138.3 525.8Q136.3 524.5 133.8 524.5L133.8 524.5Q129.8 524.5 127.4 527.7Q125.0 530.8 125.0 536.1L125.0 536.1Q125.0 541.5 127.3 544.7Q129.7 547.8 133.8 547.8L133.8 547.8Q139.3 547.8 141.5 542.8L141.5 542.8Q142.1 541.6 142.8 541.1Q143.5 540.5 144.7 540.5L144.7 540.5Q146.2 540.5 147.1 541.4Q148.0 542.3 148.0 543.7L148.0 543.7Q148.0 544.8 147.4 546.1L147.4 546.1Q145.8 549.6 142.3 551.6Q138.7 553.6 133.9 553.6ZM158.6 523.8Q157.5 524.8 156.0 524.8Q154.4 524.8 153.4 523.8Q152.3 522.8 152.3 521.3L152.3 521.3Q152.3 519.8 153.4 518.8Q154.4 517.7 156.0 517.7Q157.5 517.7 158.6 518.8Q159.6 519.8 159.6 521.3L159.6 521.3Q159.6 522.8 158.6 523.8ZM158.5 552.6Q157.6 553.6 156.0 553.6Q154.4 553.6 153.5 552.6Q152.5 551.7 152.5 550.0L152.5 550.0L152.5 531.0Q152.5 529.3 153.5 528.4Q154.4 527.4 156.0 527.4Q157.6 527.4 158.5 528.4Q159.4 529.3 159.4 531.0L159.4 531.0L159.4 550.0Q159.4 551.7 158.5 552.6ZM165.8 546.6L165.8 546.6L165.8 533.1L164.4 533.1Q163.2 533.1 162.5 532.4Q161.8 531.7 161.8 530.5Q161.8 529.3 162.5 528.6Q163.2 527.9 164.4 527.9L164.4 527.9L165.8 527.9L165.8 525.1Q165.8 523.5 166.7 522.5Q167.6 521.6 169.2 521.6Q170.8 521.6 171.7 522.5Q172.6 523.5 172.6 525.1L172.6 525.1L172.6 527.9L175.0 527.9Q176.2 527.9 176.9 528.6Q177.6 529.3 177.6 530.5Q177.6 531.7 176.9 532.4Q176.2 533.1 175.0 533.1L175.0 533.1L172.6 533.1L172.6 545.1Q172.6 546.5 173.1 547.1Q173.6 547.7 174.7 547.8L174.7 547.8L175.1 547.8Q176.4 548.0 177.1 548.5Q177.7 549.1 177.7 550.3L177.7 550.3Q177.7 551.8 176.4 552.6Q175.1 553.3 172.9 553.3L172.9 553.3L172.6 553.3Q165.8 553.3 165.8 546.6ZM184.4 553.6L184.4 553.6Q182.8 553.6 181.9 552.6Q181.0 551.7 181.0 550.0L181.0 550.0L181.0 530.9Q181.0 529.3 181.9 528.3Q182.8 527.4 184.3 527.4L184.3 527.4Q185.8 527.4 186.6 528.3Q187.5 529.3 187.5 530.9L187.5 530.9L187.5 532.5L187.7 532.5Q188.2 530.2 189.6 528.9Q191 527.5 192.9 527.5L192.9 527.5Q194.3 527.5 195.0 528.2L195.0 528.2Q196.0 528.9 196.0 530.7L196.0 530.7Q196.0 532.3 195.0 533.2L195.0 533.2Q194.0 534.0 192.1 534.1L192.1 534.1Q189.8 534.1 188.8 535.3Q187.8 536.5 187.8 538.8L187.8 538.8L187.8 550.0Q187.8 551.7 186.9 552.6Q186.0 553.6 184.4 553.6ZM207.4 553.5L207.4 553.5Q203.3 553.5 200.8 551.0Q198.3 548.5 198.3 544.1L198.3 544.1L198.3 531.0Q198.3 529.3 199.3 528.4Q200.2 527.4 201.8 527.4Q203.3 527.4 204.2 528.4Q205.2 529.3 205.2 531.0L205.2 531.0L205.2 542.7Q205.2 545.2 206.4 546.5Q207.6 547.8 209.9 547.8Q212.1 547.8 213.5 546.3Q214.8 544.8 214.8 542.3L214.8 542.3L214.8 531.0Q214.8 529.3 215.8 528.4Q216.7 527.4 218.2 527.4Q219.8 527.4 220.7 528.4Q221.7 529.3 221.7 531.0L221.7 531.0L221.7 550.1Q221.7 551.8 220.8 552.7Q219.9 553.6 218.4 553.6Q216.8 553.6 215.9 552.7Q215.0 551.8 215.0 550.1L215.0 550.1L215.0 548.5L214.9 548.5Q212.9 553.5 207.4 553.5ZM236.4 553.6L236.4 553.6Q232.1 553.6 229.3 552.2Q226.5 550.9 225.5 548.6L225.5 548.6Q225.3 547.9 225.3 547.3L225.3 547.3Q225.3 546.1 226.1 545.4Q226.9 544.7 228.1 544.7L228.1 544.7Q229.6 544.7 231.0 546.2L231.0 546.2Q232.1 547.6 233.3 548.2Q234.6 548.8 236.5 548.8L236.5 548.8Q238.4 548.8 239.5 548.1Q240.6 547.3 240.6 546.1L240.6 546.1Q240.6 545.1 239.9 544.5Q239.1 543.9 237.3 543.5L237.3 543.5L233.1 542.6Q229.4 541.8 227.5 539.9Q225.7 538.1 225.7 535.3L225.7 535.3Q225.7 531.7 228.6 529.5Q231.5 527.4 236.3 527.4L236.3 527.4Q240.1 527.4 242.8 528.9Q245.5 530.4 246.2 532.6L246.2 532.6Q246.3 533.2 246.3 533.6L246.3 533.6Q246.3 534.7 245.7 535.3Q245 536.0 243.7 536.0L243.7 536.0Q242.1 536.0 241.2 534.9L241.2 534.9Q240.2 533.6 239.1 532.9Q237.9 532.2 236.2 532.2L236.2 532.2Q234.5 532.2 233.4 533.0Q232.3 533.7 232.3 534.9L232.3 534.9Q232.3 535.9 233.1 536.6Q233.9 537.2 235.8 537.6L235.8 537.6L239.9 538.5Q243.9 539.4 245.7 541.0Q247.5 542.6 247.5 545.4L247.5 545.4Q247.5 549.1 244.4 551.4Q241.3 553.6 236.4 553.6Z "/><mask id="satori_om-id-0-1-1"><rect x="951" y="524" width="209" height="36" fill="#fff"/></mask><path fill="#8e8e8e" d="M954.9 552.6Q954.5 552.9 954.0 552.9Q953.4 552.9 953.1 552.6Q952.8 552.2 952.8 551.7L952.8 551.7L952.8 532.6Q952.8 532.0 953.1 531.6Q953.5 531.3 954.1 531.3Q954.6 531.3 955.0 531.6Q955.3 532.0 955.3 532.6L955.3 532.6L955.3 540.0L955.4 540.0Q956.1 538.7 957.4 537.9Q958.7 537.2 960.3 537.2L960.3 537.2Q963.2 537.2 964.9 539.3Q966.7 541.5 966.7 545.0L966.7 545.0Q966.7 548.6 964.9 550.8Q963.2 552.9 960.2 552.9L960.2 552.9Q958.6 552.9 957.3 552.2Q956.0 551.4 955.3 550.1L955.3 550.1L955.2 550.1L955.2 551.7Q955.2 552.2 954.9 552.6ZM959.7 550.7L959.7 550.7Q961.8 550.7 962.9 549.2Q964.1 547.7 964.1 545.0L964.1 545.0Q964.1 542.5 962.9 540.9Q961.8 539.4 959.7 539.4L959.7 539.4Q957.8 539.4 956.6 541.0Q955.3 542.5 955.3 545.0L955.3 545.0Q955.3 547.6 956.6 549.1Q957.8 550.7 959.7 550.7ZM970.8 558.4L970.8 558.4Q969.9 558.4 969.4 558.0Q968.9 557.7 968.9 557.1L968.9 557.1Q968.9 556.7 969.1 556.4Q969.4 556.2 969.9 556.2L969.9 556.2Q970.1 556.2 970.3 556.2Q970.5 556.2 970.7 556.2L970.7 556.2Q972.4 556.2 973.2 553.7L973.2 553.7L973.6 552.7L968.3 539.0Q968.2 538.6 968.2 538.3L968.2 538.3Q968.2 537.8 968.6 537.5Q968.9 537.2 969.5 537.2L969.5 537.2Q970.4 537.2 970.7 538.1L970.7 538.1L974.9 550.1L975.0 550.1L979.2 538.1Q979.3 537.6 979.6 537.4Q979.9 537.2 980.4 537.2L980.4 537.2Q980.9 537.2 981.3 537.5Q981.6 537.8 981.6 538.3L981.6 538.3Q981.6 538.6 981.5 539.0L981.5 539.0L975.9 553.7Q974.9 556.4 973.8 557.4Q972.7 558.4 970.8 558.4Z M990.5 552.9L990.5 552.9Q989.9 552.9 989.5 552.5Q989.2 552.2 989.2 551.7L989.2 551.7Q989.2 551.4 989.3 551.0L989.3 551.0L996.1 532.6Q996.6 531.3 997.8 531.3L997.8 531.3Q999.0 531.3 999.5 532.6L999.5 532.6L1006.3 551.0Q1006.5 551.4 1006.5 551.7L1006.5 551.7Q1006.5 552.2 1006.1 552.5Q1005.7 552.9 1005.2 552.9L1005.2 552.9Q1004.2 552.9 1003.9 551.9L1003.9 551.9L1002.0 546.6L993.6 546.6L991.8 551.9Q991.4 552.9 990.5 552.9ZM997.8 534.7L994.4 544.4L1001.2 544.4L997.9 534.7L997.8 534.7ZM1011.1 552.5Q1010.8 552.9 1010.2 552.9Q1009.7 552.9 1009.3 552.5Q1008.9 552.2 1008.9 551.6L1008.9 551.6L1008.9 538.5Q1008.9 537.9 1009.3 537.5Q1009.6 537.2 1010.1 537.2Q1010.7 537.2 1011 537.5Q1011.3 537.9 1011.3 538.5L1011.3 538.5L1011.3 539.9L1011.4 539.9Q1011.7 538.7 1012.7 537.9Q1013.7 537.2 1014.9 537.2L1014.9 537.2Q1015.7 537.2 1016.1 537.5L1016.1 537.5Q1016.4 537.8 1016.4 538.4L1016.4 538.4Q1016.4 539.0 1016.0 539.3L1016.0 539.3Q1015.6 539.6 1014.8 539.6L1014.8 539.6Q1013.1 539.6 1012.3 540.6Q1011.5 541.6 1011.5 543.2L1011.5 543.2L1011.5 551.6Q1011.5 552.2 1011.1 552.5ZM1019.0 549.1L1019.0 549.1L1019.0 539.5L1017.7 539.5Q1017.2 539.5 1016.9 539.3Q1016.6 539.0 1016.6 538.5L1016.6 538.5Q1016.6 538.0 1016.9 537.7Q1017.2 537.4 1017.7 537.4L1017.7 537.4L1019.0 537.4L1019.0 534.8Q1019.0 534.2 1019.4 533.8Q1019.7 533.5 1020.3 533.5Q1020.8 533.5 1021.2 533.8Q1021.5 534.2 1021.5 534.8L1021.5 534.8L1021.5 537.4L1023.5 537.4Q1024.1 537.4 1024.4 537.7Q1024.7 538.0 1024.7 538.5L1024.7 538.5Q1024.7 539.0 1024.4 539.3Q1024.1 539.5 1023.5 539.5L1023.5 539.5L1021.5 539.5L1021.5 548.6Q1021.5 549.6 1021.9 550.0Q1022.3 550.5 1023.3 550.6L1023.3 550.6L1023.5 550.6Q1024.7 550.7 1024.7 551.6L1024.7 551.6Q1024.7 552.2 1024.3 552.5Q1023.9 552.8 1022.9 552.8L1022.9 552.8L1022.7 552.8Q1019.0 552.8 1019.0 549.1ZM1033.6 552.9L1033.6 552.9Q1030.2 552.9 1028.4 550.9Q1026.5 548.8 1026.5 545.1L1026.5 545.1Q1026.5 541.5 1028.4 539.3Q1030.2 537.2 1033.4 537.2L1033.4 537.2Q1036.3 537.2 1038.2 539.1Q1040.0 541.1 1040.0 544.3L1040.0 544.3Q1040.0 544.9 1039.6 545.3Q1039.3 545.7 1038.6 545.7L1038.6 545.7L1029.1 545.7Q1029.1 548.0 1030.3 549.4Q1031.5 550.7 1033.5 550.7L1033.5 550.7Q1034.9 550.7 1035.8 550.2Q1036.7 549.6 1037.6 548.3L1037.6 548.3Q1038.0 547.8 1038.6 547.8L1038.6 547.8Q1039.1 547.8 1039.4 548.1Q1039.7 548.4 1039.7 548.9L1039.7 548.9Q1039.7 549.2 1039.5 549.7L1039.5 549.7Q1038.8 551.2 1037.2 552.1Q1035.7 552.9 1033.6 552.9ZM1029.1 543.7L1029.1 543.7L1037.4 543.7Q1037.3 541.8 1036.2 540.6Q1035.1 539.4 1033.3 539.4L1033.3 539.4Q1031.6 539.4 1030.4 540.6Q1029.2 541.8 1029.1 543.7ZM1044.8 552.5Q1044.4 552.9 1043.9 552.9Q1043.3 552.9 1042.9 552.5Q1042.6 552.2 1042.6 551.6L1042.6 551.6L1042.6 538.5Q1042.6 537.9 1042.9 537.5Q1043.3 537.2 1043.8 537.2Q1044.3 537.2 1044.6 537.5Q1045.0 537.9 1045.0 538.5L1045.0 538.5L1045.0 539.9L1045.0 539.9Q1045.6 538.6 1046.7 537.9Q1047.9 537.2 1049.4 537.2L1049.4 537.2Q1050.9 537.2 1052.0 537.9Q1053.1 538.7 1053.6 540.1L1053.6 540.1L1053.7 540.1Q1054.3 538.7 1055.6 537.9Q1056.9 537.2 1058.5 537.2L1058.5 537.2Q1060.7 537.2 1062.1 538.5Q1063.4 539.9 1063.4 542.1L1063.4 542.1L1063.4 551.6Q1063.4 552.2 1063.1 552.5Q1062.7 552.9 1062.2 552.9Q1061.6 552.9 1061.2 552.5Q1060.9 552.2 1060.9 551.6L1060.9 551.6L1060.9 542.7Q1060.9 541.2 1060.1 540.3Q1059.2 539.4 1057.7 539.4Q1056.2 539.4 1055.3 540.4Q1054.3 541.4 1054.3 543.0L1054.3 543.0L1054.3 551.6Q1054.3 552.2 1053.9 552.5Q1053.6 552.9 1053.0 552.9Q1052.4 552.9 1052.1 552.5Q1051.7 552.2 1051.7 551.6L1051.7 551.6L1051.7 542.5Q1051.7 541.1 1050.9 540.2Q1050.0 539.4 1048.6 539.4L1048.6 539.4Q1047.1 539.4 1046.1 540.5Q1045.1 541.5 1045.1 543.1L1045.1 543.1L1045.1 551.6Q1045.1 552.2 1044.8 552.5Z M1075.5 552.5Q1075.1 552.9 1074.5 552.9Q1073.9 552.9 1073.6 552.5Q1073.2 552.1 1073.2 551.5L1073.2 551.5L1073.2 532.7Q1073.2 532.1 1073.6 531.7Q1073.9 531.3 1074.5 531.3Q1075.1 531.3 1075.5 531.7Q1075.9 532.1 1075.9 532.7L1075.9 532.7L1075.9 541.8L1076.0 541.8L1085.4 531.8Q1085.9 531.3 1086.5 531.3L1086.5 531.3Q1087.0 531.3 1087.3 531.7Q1087.7 532.0 1087.7 532.5L1087.7 532.5Q1087.7 533.0 1087.3 533.3L1087.3 533.3L1080.1 540.9L1088.2 550.6Q1088.5 551.1 1088.5 551.6L1088.5 551.6Q1088.5 552.2 1088.2 552.5Q1087.8 552.9 1087.3 552.9L1087.3 552.9Q1086.6 552.9 1086.1 552.2L1086.1 552.2L1078.2 542.8L1075.9 545.3L1075.9 551.5Q1075.9 552.1 1075.5 552.5ZM1096.5 552.9L1096.5 552.9Q1094.0 552.9 1092.6 551.4Q1091.2 549.9 1091.2 547.3L1091.2 547.3L1091.2 538.5Q1091.2 537.9 1091.6 537.5Q1091.9 537.2 1092.5 537.2Q1093.0 537.2 1093.4 537.5Q1093.8 537.9 1093.8 538.5L1093.8 538.5L1093.8 546.9Q1093.8 550.7 1097.3 550.7L1097.3 550.7Q1099.1 550.7 1100.2 549.5Q1101.2 548.3 1101.2 546.4L1101.2 546.4L1101.2 538.5Q1101.2 537.9 1101.6 537.5Q1102.0 537.2 1102.5 537.2Q1103.1 537.2 1103.4 537.5Q1103.8 537.9 1103.8 538.5L1103.8 538.5L1103.8 551.6Q1103.8 552.2 1103.5 552.6Q1103.1 552.9 1102.6 552.9Q1102.1 552.9 1101.7 552.6Q1101.4 552.2 1101.4 551.6L1101.4 551.6L1101.4 550.2L1101.3 550.2Q1099.9 552.9 1096.5 552.9ZM1107.9 549.1L1107.9 549.1L1107.9 539.5L1106.6 539.5Q1106.1 539.5 1105.8 539.3Q1105.5 539.0 1105.5 538.5L1105.5 538.5Q1105.5 538.0 1105.8 537.7Q1106.1 537.4 1106.6 537.4L1106.6 537.4L1107.9 537.4L1107.9 534.8Q1107.9 534.2 1108.3 533.8Q1108.6 533.5 1109.2 533.5Q1109.7 533.5 1110.1 533.8Q1110.5 534.2 1110.5 534.8L1110.5 534.8L1110.5 537.4L1112.4 537.4Q1113.0 537.4 1113.3 537.7Q1113.6 538.0 1113.6 538.5L1113.6 538.5Q1113.6 539.0 1113.3 539.3Q1113.0 539.5 1112.4 539.5L1112.4 539.5L1110.5 539.5L1110.5 548.6Q1110.5 549.6 1110.9 550.0Q1111.3 550.5 1112.2 550.6L1112.2 550.6L1112.4 550.6Q1113.6 550.7 1113.6 551.6L1113.6 551.6Q1113.6 552.2 1113.2 552.5Q1112.8 552.8 1111.8 552.8L1111.8 552.8L1111.6 552.8Q1107.9 552.8 1107.9 549.1ZM1121.4 552.9L1121.4 552.9Q1119.4 552.9 1117.9 552.1Q1116.4 551.2 1115.9 549.8L1115.9 549.8Q1115.7 549.5 1115.7 549.2L1115.7 549.2Q1115.7 548.7 1116.1 548.4Q1116.4 548.2 1116.9 548.2L1116.9 548.2Q1117.6 548.2 1118.0 548.9L1118.0 548.9Q1118.6 550.0 1119.4 550.4Q1120.2 550.8 1121.6 550.8L1121.6 550.8Q1123.1 550.8 1124.0 550.2Q1124.9 549.6 1124.9 548.6L1124.9 548.6Q1124.9 547.7 1124.4 547.3Q1123.8 546.8 1122.5 546.5L1122.5 546.5L1120.2 545.9Q1115.9 544.8 1115.9 541.6L1115.9 541.6Q1115.9 539.6 1117.5 538.4Q1119.0 537.2 1121.6 537.2L1121.6 537.2Q1123.5 537.2 1125.0 538.1Q1126.5 539.0 1126.8 540.4L1126.8 540.4Q1126.8 540.6 1126.8 540.8L1126.8 540.8Q1126.8 541.2 1126.5 541.5Q1126.3 541.8 1125.8 541.8L1125.8 541.8Q1125.0 541.8 1124.7 541.1L1124.7 541.1Q1124.2 540.1 1123.4 539.7Q1122.7 539.3 1121.5 539.3L1121.5 539.3Q1120.1 539.3 1119.2 539.9Q1118.4 540.5 1118.4 541.5L1118.4 541.5Q1118.4 543.1 1120.9 543.7L1120.9 543.7L1123.1 544.2Q1125.5 544.8 1126.5 545.8Q1127.5 546.7 1127.5 548.4L1127.5 548.4Q1127.5 550.4 1125.8 551.7Q1124.1 552.9 1121.4 552.9ZM1134.5 552.9L1134.5 552.9Q1132.3 552.9 1130.9 551.7Q1129.5 550.4 1129.5 548.4L1129.5 548.4Q1129.5 546.4 1130.9 545.2Q1132.3 544.1 1135.0 543.9L1135.0 543.9L1139.4 543.7L1139.4 542.4Q1139.4 541.0 1138.5 540.2Q1137.6 539.4 1136.0 539.4L1136.0 539.4Q1134.8 539.4 1133.9 539.9Q1133.0 540.4 1132.4 541.5L1132.4 541.5Q1132.1 542.1 1131.3 542.1L1131.3 542.1Q1130.8 542.1 1130.5 541.8Q1130.2 541.5 1130.2 541.0Q1130.2 540.5 1130.5 539.9L1130.5 539.9Q1131.2 538.7 1132.7 537.9Q1134.2 537.2 1136.1 537.2L1136.1 537.2Q1138.8 537.2 1140.3 538.5Q1141.9 539.9 1141.9 542.1L1141.9 542.1L1141.9 551.6Q1141.9 552.2 1141.6 552.6Q1141.2 552.9 1140.7 552.9L1140.7 552.9Q1140.2 552.9 1139.8 552.6Q1139.5 552.2 1139.5 551.6L1139.5 551.6L1139.5 550.0L1139.4 550.0Q1138.8 551.3 1137.4 552.1Q1136.1 552.9 1134.5 552.9ZM1135.1 550.8L1135.1 550.8Q1136.9 550.8 1138.1 549.6Q1139.4 548.5 1139.4 546.9L1139.4 546.9L1139.4 545.6L1135.3 545.9Q1133.7 546.0 1132.9 546.6Q1132.1 547.3 1132.1 548.4Q1132.1 549.4 1132.9 550.1Q1133.7 550.8 1135.1 550.8ZM1147.3 552.5Q1147.0 552.9 1146.4 552.9Q1145.9 552.9 1145.5 552.5Q1145.2 552.2 1145.2 551.6L1145.2 551.6L1145.2 538.5Q1145.2 537.9 1145.5 537.5Q1145.8 537.2 1146.4 537.2Q1146.9 537.2 1147.2 537.5Q1147.6 537.9 1147.6 538.5L1147.6 538.5L1147.6 539.9L1147.6 539.9Q1148.3 538.6 1149.5 537.9Q1150.7 537.2 1152.4 537.2L1152.4 537.2Q1154.9 537.2 1156.3 538.7Q1157.7 540.2 1157.7 542.8L1157.7 542.8L1157.7 551.6Q1157.7 552.2 1157.4 552.5Q1157.0 552.9 1156.4 552.9Q1155.9 552.9 1155.5 552.5Q1155.2 552.2 1155.2 551.6L1155.2 551.6L1155.2 543.2Q1155.2 541.4 1154.3 540.4Q1153.4 539.4 1151.7 539.4L1151.7 539.4Q1149.9 539.4 1148.8 540.6Q1147.7 541.8 1147.7 543.7L1147.7 543.7L1147.7 551.6Q1147.7 552.2 1147.3 552.5Z "/></svg>