<svg width="1200" height="630" viewBox="0 0 1200 630" xmlns="http://www.w3.org/2000/svg"><mask id="satori_om-id"><rect x="0" y="0" width="1200" height="630" fill="#fff"/></mask><mask id="satori_om-id-0"><rect x="0" y="0" width="1200" height="630" fill="#fff"/></mask><rect x="0" y="0" width="1200" height="630" fill="#f2f2f2"/><mask id="satori_om-id-0-0"><rect x="0" y="0" width="1200" height="441" fill="#fff"/></mask><mask id="satori_om-id-0-0-0"><rect x="40" y="136" width="1120" height="36" fill="#fff"/></mask><path fill="#8e8e8e" d="M49.2 165.0L49.2 165.0Q46.2 165.0 44.1 163.9Q42.1 162.7 41.4 160.8L41.4 160.8Q41.2 160.2 41.2 159.8L41.2 159.8Q41.2 159.0 41.6 158.6Q42.1 158.2 42.7 158.2L42.7 158.2Q43.8 158.2 44.3 159.3L44.3 159.3Q44.8 160.8 46.1 161.5Q47.4 162.2 49.3 162.2L49.3 162.2Q51.3 162.2 52.6 161.3Q53.9 160.4 53.9 159.0L53.9 159.0Q53.9 157.7 53.0 156.9Q52.1 156.1 50.0 155.7L50.0 155.7L47.6 155.2Q44.5 154.5 43.0 153.1Q41.5 151.6 41.5 149.3L41.5 149.3Q41.5 146.6 43.7 144.9Q45.8 143.2 49.2 143.2L49.2 143.2Q51.9 143.2 53.9 144.4Q55.9 145.6 56.5 147.7L56.5 147.7Q56.6 148.0 56.6 148.5L56.6 148.5Q56.6 149.1 56.2 149.5Q55.8 149.9 55.2 149.9L55.2 149.9Q54.1 149.9 53.6 148.8L53.6 148.8Q52.6 146.0 49.1 146.0L49.1 146.0Q47.3 146.0 46.0 146.8Q44.8 147.7 44.8 149.1L44.8 149.1Q44.8 150.3 45.7 151.1Q46.7 151.8 48.7 152.3L48.7 152.3L51.0 152.7Q54.3 153.4 55.8 154.8Q57.2 156.2 57.2 158.5L57.2 158.5Q57.2 161.5 55.0 163.3Q52.9 165.0 49.2 165.0ZM65.1 164.9L65.1 164.9Q62.6 164.9 61.2 163.4Q59.7 161.9 59.7 159.2L59.7 159.2L59.7 150.7Q59.7 149.9 60.1 149.4Q60.6 149.0 61.3 149.0L61.3 149.0Q62.0 149.0 62.4 149.4Q62.9 149.9 62.9 150.7L62.9 150.7L62.9 158.6Q62.9 160.4 63.7 161.3Q64.6 162.2 66.2 162.2L66.2 162.2Q67.9 162.2 68.9 161.1Q69.8 160.0 69.8 158.2L69.8 158.2L69.8 150.7Q69.8 149.9 70.3 149.4Q70.7 149.0 71.4 149.0L71.4 149.0Q72.1 149.0 72.6 149.4Q73.0 149.9 73.0 150.7L73.0 150.7L73.0 163.3Q73.0 164.1 72.6 164.5Q72.2 164.9 71.5 164.9Q70.8 164.9 70.4 164.5Q70.0 164.1 70.0 163.3L70.0 163.3L70.0 162.1L69.9 162.1Q68.6 164.9 65.1 164.9ZM77.7 164.9L77.7 164.9Q77.0 164.9 76.6 164.5Q76.1 164.0 76.1 163.3L76.1 163.3L76.1 150.6Q76.1 149.8 76.5 149.4Q76.9 149.0 77.6 149.0Q78.3 149.0 78.7 149.4Q79.2 149.9 79.2 150.6L79.2 150.6L79.2 151.8L79.2 151.8Q80.6 149.0 84.1 149.0L84.1 149.0Q86.6 149.0 88.0 150.5Q89.4 152.0 89.4 154.7L89.4 154.7L89.4 163.3Q89.4 164.0 89.0 164.5Q88.5 164.9 87.8 164.9L87.8 164.9Q87.1 164.9 86.7 164.5Q86.2 164.0 86.2 163.3L86.2 163.3L86.2 155.3Q86.2 153.5 85.4 152.6Q84.6 151.7 82.9 151.7L82.9 151.7Q81.3 151.7 80.3 152.8Q79.3 153.9 79.3 155.7L79.3 155.7L79.3 163.3Q79.3 164.0 78.8 164.5Q78.4 164.9 77.7 164.9ZM98.2 164.9L98.2 164.9Q95.3 164.9 93.5 162.8Q91.8 160.6 91.8 157.0Q91.8 153.3 93.5 151.2Q95.3 149.0 98.2 149.0L98.2 149.0Q99.8 149.0 101.1 149.8Q102.4 150.5 103.0 151.8L103.0 151.8L103.1 151.8L103.1 144.9Q103.1 144.1 103.5 143.7Q104.0 143.2 104.7 143.2L104.7 143.2Q105.4 143.2 105.8 143.7Q106.3 144.2 106.3 144.9L106.3 144.9L106.3 163.4Q106.3 164.1 105.9 164.5Q105.4 164.9 104.7 164.9L104.7 164.9Q104.0 164.9 103.6 164.5Q103.1 164.1 103.1 163.4L103.1 163.4L103.1 161.9L103.1 161.9Q102.4 163.3 101.2 164.1Q100.0 164.9 98.2 164.9ZM99.1 162.2L99.1 162.2Q100.9 162.2 102.0 160.8Q103.1 159.4 103.1 157.0L103.1 157.0Q103.1 154.6 102.0 153.1Q100.9 151.7 99.1 151.7L99.1 151.7Q97.2 151.7 96.1 153.1Q95.0 154.5 95.0 157.0L95.0 157.0Q95.0 159.4 96.1 160.8Q97.2 162.2 99.1 162.2ZM114.0 164.9L114.0 164.9Q111.8 164.9 110.3 163.6Q108.9 162.3 108.9 160.3L108.9 160.3Q108.9 158.3 110.4 157.1Q111.9 155.9 114.6 155.7L114.6 155.7L118.9 155.5L118.9 154.3Q118.9 153.0 118.0 152.3Q117.2 151.6 115.8 151.6L115.8 151.6Q114.6 151.6 113.8 152.0Q113.0 152.5 112.3 153.5L112.3 153.5Q111.9 154.2 111.1 154.2L111.1 154.2Q110.5 154.2 110.1 153.8Q109.7 153.4 109.7 152.9L109.7 152.9Q109.7 152.3 110.0 151.8L110.0 151.8Q110.6 150.5 112.2 149.8Q113.8 149.0 115.9 149.0L115.9 149.0Q118.7 149.0 120.3 150.4Q122.0 151.7 122.0 154.0L122.0 154.0L122.0 163.3Q122.0 164.1 121.6 164.5Q121.2 164.9 120.5 164.9L120.5 164.9Q119.8 164.9 119.4 164.5Q119.0 164.1 119.0 163.4L119.0 163.4L119.0 162.1L118.9 162.1Q118.2 163.4 116.9 164.2Q115.6 164.9 114.0 164.9ZM114.9 162.4L114.9 162.4Q116.6 162.4 117.7 161.4Q118.9 160.4 118.9 158.9L118.9 158.9L118.9 157.7L115.0 157.9Q113.6 158.0 112.9 158.6Q112.1 159.2 112.1 160.2L112.1 160.2Q112.1 161.2 112.9 161.8Q113.6 162.4 114.9 162.4ZM127.0 170.4L127.0 170.4Q125.9 170.4 125.3 170.0Q124.7 169.6 124.7 168.9L124.7 168.9Q124.7 168.4 125.0 168.1Q125.4 167.8 125.9 167.8L125.9 167.8Q126.1 167.8 126.3 167.8Q126.6 167.8 126.7 167.8L126.7 167.8Q128.3 167.8 129.1 165.7L129.1 165.7L129.4 164.8L124.2 151.3Q124.1 150.9 124.1 150.4L124.1 150.4Q124.1 149.8 124.5 149.4Q125.0 149.0 125.7 149.0L125.7 149.0Q126.3 149.0 126.6 149.3Q127.0 149.5 127.2 150.2L127.2 150.2L131.1 161.8L131.2 161.8L135.1 150.2Q135.3 149.5 135.6 149.3Q136.0 149.0 136.6 149.0L136.6 149.0Q137.3 149.0 137.7 149.4Q138.1 149.8 138.1 150.4L138.1 150.4Q138.1 150.8 138.0 151.3L138.0 151.3L132.6 165.4Q131.6 168.2 130.4 169.3Q129.1 170.4 127.0 170.4Z M159.6 164.7L147.9 164.7Q147.2 164.7 146.8 164.3Q146.3 163.9 146.3 163.3L146.3 163.3Q146.3 162.8 146.5 162.5Q146.7 162.1 147.3 161.6L147.3 161.6L153.9 154.9Q155.9 152.8 156.6 151.7Q157.3 150.6 157.3 149.3L157.3 149.3Q157.3 147.8 156.3 146.8Q155.2 145.8 153.6 145.8L153.6 145.8Q150.5 145.8 149.4 149.0L149.4 149.0Q149.1 149.5 148.8 149.8Q148.5 150.0 147.9 150.0L147.9 150.0Q147.2 150.0 146.8 149.6Q146.4 149.3 146.4 148.6L146.4 148.6Q146.4 148.3 146.5 148.0L146.5 148.0Q146.7 147.1 147.2 146.3Q147.8 145.4 148.7 144.7Q149.5 144.0 150.8 143.6Q152.1 143.1 153.6 143.1L153.6 143.1Q156.7 143.1 158.6 144.8Q160.5 146.5 160.5 149.1L160.5 149.1Q160.5 150.9 159.5 152.5Q158.6 154.0 155.8 156.8L155.8 156.8L150.8 161.8L150.8 161.9L159.6 161.9Q160.2 161.9 160.6 162.3Q161.0 162.7 161.0 163.3L161.0 163.3Q161.0 163.9 160.6 164.3Q160.2 164.7 159.6 164.7L159.6 164.7ZM171.7 165.1L171.7 165.1Q169.3 165.1 167.4 163.9Q165.6 162.6 164.5 160.3L164.5 160.3Q163.4 157.9 163.4 154.4L163.4 154.4Q163.4 149.1 165.7 146.1Q167.9 143.1 171.9 143.1L171.9 143.1Q174.1 143.1 175.8 144.0Q177.5 144.9 178.4 146.5L178.4 146.5Q178.7 147.1 178.7 147.7L178.7 147.7Q178.7 148.3 178.3 148.7Q177.9 149.1 177.3 149.1L177.3 149.1Q176.8 149.1 176.5 148.8Q176.1 148.6 175.7 148.0L175.7 148.0Q174.2 145.9 171.8 145.9L171.8 145.9Q169.3 145.9 168.0 148.0Q166.7 150.1 166.6 154.0L166.6 154.0L166.6 154.2L166.6 154.2Q167.3 152.7 168.9 151.7Q170.4 150.8 172.5 150.8L172.5 150.8Q175.5 150.8 177.5 152.8Q179.5 154.7 179.5 157.8L179.5 157.8Q179.5 160.9 177.3 163.0Q175.1 165.1 171.7 165.1ZM171.7 162.3L171.7 162.3Q173.6 162.3 174.9 161.0Q176.2 159.7 176.2 157.9L176.2 157.9Q176.2 155.9 174.9 154.7Q173.7 153.5 171.7 153.5Q169.8 153.5 168.5 154.7Q167.2 155.9 167.2 157.8L167.2 157.8Q167.2 159.7 168.5 161.0Q169.8 162.3 171.7 162.3Z M193.6 165.0L193.6 165.0Q191.5 165.0 189.8 164.0Q188.2 163.0 187.6 161.3L187.6 161.3Q187.3 160.4 187.3 159.8L187.3 159.8Q187.3 159.0 187.7 158.6Q188.1 158.1 188.8 158.1L188.8 158.1Q190.0 158.1 190.4 159.5L190.4 159.5Q190.7 160.8 191.6 161.4Q192.4 162.1 193.6 162.1L193.6 162.1Q195.2 162.1 196.1 161.1Q196.9 160.2 196.9 158.4L196.9 158.4L196.9 145.0Q196.9 144.2 197.4 143.7Q197.8 143.3 198.6 143.3Q199.3 143.3 199.8 143.7Q200.2 144.2 200.2 145.0L200.2 145.0L200.2 158.4Q200.2 161.5 198.5 163.3Q196.7 165.0 193.6 165.0ZM208.3 164.9L208.3 164.9Q206.0 164.9 204.6 163.6Q203.1 162.3 203.1 160.3L203.1 160.3Q203.1 158.3 204.6 157.1Q206.1 155.9 208.9 155.7L208.9 155.7L213.1 155.5L213.1 154.3Q213.1 153.0 212.3 152.3Q211.4 151.6 210.0 151.6L210.0 151.6Q208.8 151.6 208.0 152.0Q207.2 152.5 206.6 153.5L206.6 153.5Q206.1 154.2 205.3 154.2L205.3 154.2Q204.7 154.2 204.3 153.8Q203.9 153.4 203.9 152.9L203.9 152.9Q203.9 152.3 204.2 151.8L204.2 151.8Q204.8 150.5 206.4 149.8Q208.0 149.0 210.1 149.0L210.1 149.0Q212.9 149.0 214.6 150.4Q216.2 151.7 216.2 154.0L216.2 154.0L216.2 163.3Q216.2 164.1 215.8 164.5Q215.4 164.9 214.7 164.9L214.7 164.9Q214.1 164.9 213.6 164.5Q213.2 164.1 213.2 163.4L213.2 163.4L213.2 162.1L213.1 162.1Q212.5 163.4 211.1 164.2Q209.8 164.9 208.3 164.9ZM209.1 162.4L209.1 162.4Q210.8 162.4 211.9 161.4Q213.1 160.4 213.1 158.9L213.1 158.9L213.1 157.7L209.3 157.9Q207.9 158.0 207.1 158.6Q206.3 159.2 206.3 160.2L206.3 160.2Q206.3 161.2 207.1 161.8Q207.9 162.4 209.1 162.4ZM220.9 164.9L220.9 164.9Q220.2 164.9 219.7 164.5Q219.3 164.0 219.3 163.3L219.3 163.3L219.3 150.6Q219.3 149.8 219.7 149.4Q220.1 149.0 220.8 149.0Q221.5 149.0 221.9 149.4Q222.3 149.9 222.3 150.6L222.3 150.6L222.3 151.8L222.4 151.8Q223.8 149.0 227.2 149.0L227.2 149.0Q229.8 149.0 231.2 150.5Q232.6 152.0 232.6 154.7L232.6 154.7L232.6 163.3Q232.6 164.0 232.1 164.5Q231.7 164.9 231.0 164.9L231.0 164.9Q230.3 164.9 229.8 164.5Q229.4 164.0 229.4 163.3L229.4 163.3L229.4 155.3Q229.4 153.5 228.6 152.6Q227.7 151.7 226.1 151.7L226.1 151.7Q224.5 151.7 223.5 152.8Q222.5 153.9 222.5 155.7L222.5 155.7L222.5 163.3Q222.5 164.0 222.0 164.5Q221.6 164.9 220.9 164.9ZM241.0 164.9L241.0 164.9Q238.4 164.9 237.0 163.4Q235.6 161.9 235.6 159.2L235.6 159.2L235.6 150.7Q235.6 149.9 236.0 149.4Q236.4 149.0 237.1 149.0L237.1 149.0Q237.8 149.0 238.3 149.4Q238.7 149.9 238.7 150.7L238.7 150.7L238.7 158.6Q238.7 160.4 239.6 161.3Q240.4 162.2 242.0 162.2L242.0 162.2Q243.7 162.2 244.7 161.1Q245.7 160.0 245.7 158.2L245.7 158.2L245.7 150.7Q245.7 149.9 246.1 149.4Q246.6 149.0 247.3 149.0L247.3 149.0Q248.0 149.0 248.4 149.4Q248.8 149.9 248.8 150.7L248.8 150.7L248.8 163.3Q248.8 164.1 248.4 164.5Q248.0 164.9 247.3 164.9Q246.6 164.9 246.2 164.5Q245.8 164.1 245.8 163.3L245.8 163.3L245.8 162.1L245.7 162.1Q244.4 164.9 241.0 164.9ZM256.5 164.9L256.5 164.9Q254.2 164.9 252.8 163.6Q251.3 162.3 251.3 160.3L251.3 160.3Q251.3 158.3 252.8 157.1Q254.3 155.9 257.1 155.7L257.1 155.7L261.3 155.5L261.3 154.3Q261.3 153.0 260.5 152.3Q259.7 151.6 258.2 151.6L258.2 151.6Q257.0 151.6 256.2 152.0Q255.4 152.5 254.8 153.5L254.8 153.5Q254.3 154.2 253.5 154.2L253.5 154.2Q252.9 154.2 252.5 153.8Q252.1 153.4 252.1 152.9L252.1 152.9Q252.1 152.3 252.4 151.8L252.4 151.8Q253.0 150.5 254.6 149.8Q256.2 149.0 258.3 149.0L258.3 149.0Q261.1 149.0 262.8 150.4Q264.4 151.7 264.4 154.0L264.4 154.0L264.4 163.3Q264.4 164.1 264.0 164.5Q263.6 164.9 262.9 164.9L262.9 164.9Q262.3 164.9 261.8 164.5Q261.4 164.1 261.4 163.4L261.4 163.4L261.4 162.1L261.3 162.1Q260.7 163.4 259.3 164.2Q258.0 164.9 256.5 164.9ZM257.3 162.4L257.3 162.4Q259.0 162.4 260.2 161.4Q261.3 160.4 261.3 158.9L261.3 158.9L261.3 157.7L257.5 157.9Q256.1 158.0 255.3 158.6Q254.5 159.2 254.5 160.2L254.5 160.2Q254.5 161.2 255.3 161.8Q256.1 162.4 257.3 162.4ZM269.1 164.9L269.1 164.9Q268.4 164.9 267.9 164.5Q267.5 164.0 267.5 163.3L267.5 163.3L267.5 150.6Q267.5 149.9 267.9 149.4Q268.3 149.0 269.0 149.0L269.0 149.0Q269.7 149.0 270.1 149.4Q270.5 149.9 270.5 150.6L270.5 150.6L270.5 151.9L270.6 151.9Q270.9 150.6 271.8 149.8Q272.8 149.0 274.0 149.0L274.0 149.0Q274.8 149.0 275.2 149.4L275.2 149.4Q275.6 149.7 275.6 150.5L275.6 150.5Q275.6 151.2 275.2 151.6L275.2 151.6Q274.7 152.0 273.7 152.0L273.7 152.0Q272.2 152.0 271.4 153.0Q270.7 153.9 270.7 155.4L270.7 155.4L270.7 163.3Q270.7 164.0 270.2 164.5Q269.8 164.9 269.1 164.9ZM279.3 170.4L279.3 170.4Q278.2 170.4 277.6 170.0Q277.0 169.6 277.0 168.9L277.0 168.9Q277.0 168.4 277.3 168.1Q277.6 167.8 278.2 167.8L278.2 167.8Q278.4 167.8 278.6 167.8Q278.8 167.8 279.0 167.8L279.0 167.8Q280.6 167.8 281.4 165.7L281.4 165.7L281.7 164.8L276.5 151.3Q276.3 150.9 276.3 150.4L276.3 150.4Q276.3 149.8 276.8 149.4Q277.2 149.0 277.9 149.0L277.9 149.0Q278.5 149.0 278.9 149.3Q279.3 149.5 279.5 150.2L279.5 150.2L283.4 161.8L283.4 161.8L287.4 150.2Q287.6 149.5 287.9 149.3Q288.3 149.0 288.9 149.0L288.9 149.0Q289.6 149.0 290.0 149.4Q290.4 149.8 290.4 150.4L290.4 150.4Q290.4 150.8 290.3 151.3L290.3 151.3L284.9 165.4Q283.9 168.2 282.6 169.3Q281.4 170.4 279.3 170.4Z M311.9 164.7L300.2 164.7Q299.5 164.7 299.0 164.3Q298.6 163.9 298.6 163.3L298.6 163.3Q298.6 162.8 298.8 162.5Q299.0 162.1 299.5 161.6L299.5 161.6L306.1 154.9Q308.2 152.8 308.9 151.7Q309.6 150.6 309.6 149.3L309.6 149.3Q309.6 147.8 308.5 146.8Q307.5 145.8 305.9 145.8L305.9 145.8Q302.8 145.8 301.7 149.0L301.7 149.0Q301.4 149.5 301.1 149.8Q300.7 150.0 300.2 150.0L300.2 150.0Q299.5 150.0 299.1 149.6Q298.7 149.3 298.7 148.6L298.7 148.6Q298.7 148.3 298.8 148.0L298.8 148.0Q299.0 147.1 299.5 146.3Q300.1 145.4 300.9 144.7Q301.8 144.0 303.1 143.6Q304.4 143.1 305.9 143.1L305.9 143.1Q308.9 143.1 310.9 144.8Q312.8 146.5 312.8 149.1L312.8 149.1Q312.8 150.9 311.8 152.5Q310.8 154.0 308.1 156.8L308.1 156.8L303.1 161.8L303.1 161.9L311.9 161.9Q312.5 161.9 312.9 162.3Q313.3 162.7 313.3 163.3L313.3 163.3Q313.3 163.9 312.9 164.3Q312.5 164.7 311.9 164.7L311.9 164.7ZM329.7 162.1Q327.6 165.1 323.8 165.1Q320.0 165.1 317.9 162.1Q315.7 159.2 315.7 154.1L315.7 154.1Q315.7 149.0 317.9 146.1Q320.0 143.1 323.8 143.1L323.8 143.1Q327.6 143.1 329.7 146.1Q331.9 149.0 331.9 154.1L331.9 154.1Q331.9 159.1 329.7 162.1ZM323.8 162.3L323.8 162.3Q326.1 162.3 327.3 160.1Q328.6 157.9 328.6 154.1L328.6 154.1Q328.6 150.3 327.3 148.1Q326.1 145.9 323.8 145.9Q321.5 145.9 320.3 148.1Q319.0 150.3 319.0 154.1L319.0 154.1Q319.0 157.9 320.3 160.1Q321.5 162.3 323.8 162.3ZM348.0 164.7L336.3 164.7Q335.5 164.7 335.1 164.3Q334.7 163.9 334.7 163.3L334.7 163.3Q334.7 162.8 334.9 162.5Q335.1 162.1 335.6 161.6L335.6 161.6L342.2 154.9Q344.3 152.8 345.0 151.7Q345.7 150.6 345.7 149.3L345.7 149.3Q345.7 147.8 344.6 146.8Q343.6 145.8 342.0 145.8L342.0 145.8Q338.9 145.8 337.7 149.0L337.7 149.0Q337.5 149.5 337.2 149.8Q336.8 150.0 336.3 150.0L336.3 150.0Q335.6 150.0 335.2 149.6Q334.8 149.3 334.8 148.6L334.8 148.6Q334.8 148.3 334.9 148.0L334.9 148.0Q335.1 147.1 335.6 146.3Q336.2 145.4 337.0 144.7Q337.9 144.0 339.2 143.6Q340.5 143.1 342.0 143.1L342.0 143.1Q345.0 143.1 347.0 144.8Q348.9 146.5 348.9 149.1L348.9 149.1Q348.9 150.9 347.9 152.5Q346.9 154.0 344.2 156.8L344.2 156.8L339.2 161.8L339.2 161.9L348.0 161.9Q348.6 161.9 349.0 162.3Q349.4 162.7 349.4 163.3L349.4 163.3Q349.4 163.9 349.0 164.3Q348.6 164.7 348.0 164.7L348.0 164.7ZM359.7 165.1L359.7 165.1Q357.3 165.1 355.5 164.0Q353.6 162.9 352.8 161.2L352.8 161.2Q352.5 160.5 352.5 159.8L352.5 159.8Q352.5 159.1 352.9 158.7Q353.3 158.3 353.9 158.3L353.9 158.3Q354.5 158.3 354.8 158.6Q355.2 158.8 355.4 159.4L355.4 159.4Q355.9 160.8 357.1 161.5Q358.2 162.3 359.8 162.3L359.8 162.3Q361.8 162.3 363.0 161.0Q364.3 159.8 364.3 157.8L364.3 157.8Q364.3 155.8 363.0 154.6Q361.7 153.4 359.8 153.4L359.8 153.4Q357.7 153.4 356.3 154.7L356.3 154.7Q355.6 155.5 355.3 155.6Q354.9 155.8 354.3 155.8L354.3 155.8Q353.6 155.8 353.1 155.4Q352.7 154.9 352.8 154.2L352.8 154.2L352.8 153.9L353.5 145.8Q353.6 144.6 354.2 144.0Q354.8 143.5 356.0 143.5L356.0 143.5L365.0 143.5Q365.6 143.5 366.0 143.9Q366.4 144.3 366.4 144.9Q366.4 145.5 366.0 145.9Q365.6 146.3 365.0 146.3L365.0 146.3L356.3 146.3L355.7 152.9L355.8 152.9Q356.5 151.9 357.7 151.3Q359.0 150.8 360.5 150.8L360.5 150.8Q363.6 150.8 365.5 152.7Q367.5 154.6 367.5 157.7L367.5 157.7Q367.5 161.0 365.3 163.0Q363.1 165.1 359.7 165.1Z "/><mask id="satori_om-id-0-0-1"><rect x="40" y="217" width="1120" height="83" fill="#fff"/></mask><path fill="#224d67" d="M50.3 279.1Q49.3 280.2 47.5 280.2Q45.7 280.2 44.7 279.1Q43.7 278.1 43.7 276.2L43.7 276.2L43.7 241.2Q43.7 239.4 44.7 238.3Q45.7 237.3 47.5 237.3L47.5 237.3L60.5 237.3Q67.3 237.3 71.2 240.8Q75.1 244.4 75.1 250.5L75.1 250.5Q75.1 254.6 73.1 257.8Q71.1 261.0 67.4 262.4L67.4 262.4L74.1 274.1Q74.9 275.5 74.9 276.7L74.9 276.7Q74.9 278.2 73.8 279.2Q72.8 280.2 71.1 280.2L71.1 280.2Q69.8 280.2 69.0 279.6Q68.2 279.0 67.3 277.4L67.3 277.4L59.7 263.7L51.3 263.7L51.3 276.2Q51.3 278.1 50.3 279.1ZM51.3 243.4L51.3 257.9L59.8 257.9Q63.4 257.9 65.4 256.0Q67.4 254.1 67.4 250.6L67.4 250.6Q67.4 247.3 65.3 245.4Q63.2 243.4 59.7 243.4L59.7 243.4L51.3 243.4ZM94.3 280.2L94.3 280.2Q87.2 280.2 83.2 276.0Q79.2 271.7 79.2 264.2L79.2 264.2Q79.2 256.7 83.2 252.3Q87.2 247.9 93.9 247.9L93.9 247.9Q100.2 247.9 104.2 251.9Q108.2 256.0 108.2 262.4L108.2 262.4Q108.2 264.0 107.3 264.9Q106.4 265.8 104.8 265.8L104.8 265.8L86.5 265.8L86.5 266.0Q86.5 269.9 88.6 272.3Q90.7 274.6 94.2 274.6L94.2 274.6Q96.7 274.6 98.5 273.6Q100.2 272.7 102.0 270.4L102.0 270.4Q103.0 269.3 104.5 269.3L104.5 269.3Q105.7 269.3 106.5 270.0Q107.4 270.8 107.4 272.1L107.4 272.1Q107.4 272.9 106.9 273.9L106.9 273.9Q105.3 276.9 102.0 278.5Q98.7 280.2 94.3 280.2ZM86.5 261.0L86.5 261.0L101.0 261.0Q100.9 257.6 98.9 255.6Q97.0 253.5 93.9 253.5Q90.8 253.5 88.8 255.6Q86.7 257.7 86.5 261.0ZM116.5 280.2L116.5 280.2Q114.8 280.2 113.8 279.2Q112.9 278.1 112.9 276.3L112.9 276.3L112.9 251.6Q112.9 249.9 113.8 248.9Q114.8 247.9 116.3 247.9Q117.9 247.9 118.9 248.9Q119.9 249.9 119.9 251.6L119.9 251.6L119.9 253.9L120.0 253.9Q121.0 251.2 123.4 249.5Q125.7 247.9 128.9 247.9L128.9 247.9Q132.1 247.9 134.4 249.6Q136.7 251.2 137.5 254.2L137.5 254.2L137.7 254.2Q138.8 251.3 141.4 249.6Q144.0 247.9 147.4 247.9L147.4 247.9Q152.0 247.9 154.7 250.8Q157.5 253.6 157.5 258.3L157.5 258.3L157.5 276.3Q157.5 278.1 156.5 279.1Q155.5 280.2 153.9 280.2L153.9 280.2Q152.2 280.2 151.2 279.1Q150.2 278.1 150.2 276.3L150.2 276.3L150.2 260.1Q150.2 257.2 148.8 255.6Q147.3 254.1 144.6 254.1L144.6 254.1Q142.0 254.1 140.4 255.8Q138.7 257.6 138.7 260.4L138.7 260.4L138.7 276.3Q138.7 278.1 137.8 279.2Q136.8 280.2 135.2 280.2L135.2 280.2Q133.5 280.2 132.6 279.2Q131.6 278.1 131.6 276.3L131.6 276.3L131.6 259.7Q131.6 257.1 130.2 255.6Q128.7 254.1 126.1 254.1L126.1 254.1Q123.5 254.1 121.8 255.9Q120.2 257.8 120.2 260.6L120.2 260.6L120.2 276.3Q120.2 278.1 119.1 279.1Q118.1 280.2 116.5 280.2ZM172.5 280.1L172.5 280.1Q167.9 280.1 165.0 277.5Q162.1 274.9 162.1 270.7L162.1 270.7Q162.1 266.6 165.1 264.2Q168.2 261.8 173.9 261.4L173.9 261.4L182.1 260.9L182.1 258.7Q182.1 256.3 180.6 254.9Q179.0 253.6 176.3 253.6L176.3 253.6Q174.2 253.6 172.7 254.4Q171.2 255.2 169.8 257.2L169.8 257.2Q168.7 258.7 166.9 258.7L166.9 258.7Q165.5 258.7 164.6 257.9Q163.8 257.1 163.8 255.8L163.8 255.8Q163.8 254.8 164.3 253.8L164.3 253.8Q165.4 251.1 168.8 249.5Q172.2 247.9 176.6 247.9L176.6 247.9Q182.4 247.9 185.9 250.7Q189.3 253.5 189.3 258.2L189.3 258.2L189.3 276.5Q189.3 278.2 188.3 279.2Q187.4 280.2 185.8 280.2L185.8 280.2Q184.3 280.2 183.3 279.3Q182.4 278.4 182.3 276.8L182.3 276.8L182.3 274.6L182.1 274.6Q180.8 277.1 178.2 278.6Q175.5 280.1 172.5 280.1ZM174.7 274.6L174.7 274.6Q177.8 274.6 180.0 272.7Q182.1 270.8 182.1 268.1L182.1 268.1L182.1 265.7L174.9 266.1Q172.3 266.3 170.8 267.4Q169.4 268.6 169.4 270.4L169.4 270.4Q169.4 272.3 170.8 273.4Q172.3 274.6 174.7 274.6ZM201.5 279.1Q200.5 280.2 198.8 280.2Q197.1 280.2 196.2 279.1Q195.2 278.1 195.2 276.3L195.2 276.3L195.2 251.6Q195.2 249.9 196.1 248.9Q197.1 247.9 198.7 247.9L198.7 247.9Q200.2 247.9 201.2 248.9Q202.1 249.9 202.1 251.6L202.1 251.6L202.1 254.0L202.3 254.0Q202.9 251.3 204.8 249.6Q206.6 248.0 208.9 248.0L208.9 248.0Q210.6 248.0 211.5 248.8L211.5 248.8Q212.5 249.6 212.5 251.4L212.5 251.4Q212.5 253.1 211.4 254.0L211.4 254.0Q210.4 254.9 208.2 255.0L208.2 255.0Q202.5 255.0 202.5 261.4L202.5 261.4L202.5 276.3Q202.5 278.1 201.5 279.1ZM222.3 279.2Q221.3 280.2 219.7 280.2Q218.0 280.2 217.0 279.2Q216.0 278.1 216.0 276.3L216.0 276.3L216.0 240.6Q216.0 238.7 217.0 237.7Q218.0 236.7 219.7 236.7Q221.3 236.7 222.3 237.7Q223.3 238.7 223.3 240.6L223.3 240.6L223.3 261.4L223.4 261.4L235.6 249.3Q236.9 247.9 238.4 247.9L238.4 247.9Q239.8 247.9 240.7 248.8Q241.6 249.7 241.6 251.0L241.6 251.0Q241.6 252.5 240.3 253.7L240.3 253.7L231.5 262.1L241.2 274.3Q242.2 275.7 242.2 276.9L242.2 276.9Q242.2 278.3 241.2 279.3Q240.2 280.2 238.7 280.2L238.7 280.2Q237.6 280.2 236.9 279.7Q236.2 279.3 235.4 278.1L235.4 278.1L226.1 266.3L223.3 268.9L223.3 276.3Q223.3 278.1 222.3 279.2ZM263.7 265.7L250.4 265.7Q248.9 265.7 247.9 264.8Q246.9 263.9 246.9 262.4Q246.9 260.9 247.9 260.0Q248.9 259.2 250.4 259.2L250.4 259.2L263.7 259.2Q265.2 259.2 266.2 260.0Q267.1 260.9 267.1 262.4Q267.1 263.9 266.2 264.8Q265.2 265.7 263.7 265.7L263.7 265.7ZM280.4 279.1Q279.4 280.2 277.7 280.2Q275.9 280.2 274.9 279.1Q273.9 278.1 273.9 276.2L273.9 276.2L273.9 241.2Q273.9 239.4 274.9 238.3Q275.9 237.3 277.7 237.3L277.7 237.3L290.7 237.3Q297.5 237.3 301.4 240.8Q305.3 244.4 305.3 250.5L305.3 250.5Q305.3 254.6 303.2 257.8Q301.2 261.0 297.6 262.4L297.6 262.4L304.3 274.1Q305.1 275.5 305.1 276.7L305.1 276.7Q305.1 278.2 304.0 279.2Q302.9 280.2 301.3 280.2L301.3 280.2Q299.9 280.2 299.1 279.6Q298.3 279.0 297.4 277.4L297.4 277.4L289.9 263.7L281.4 263.7L281.4 276.2Q281.4 278.1 280.4 279.1ZM281.4 243.4L281.4 257.9L290.0 257.9Q293.6 257.9 295.6 256.0Q297.5 254.1 297.5 250.6L297.5 250.6Q297.5 247.3 295.5 245.4Q293.4 243.4 289.8 243.4L289.8 243.4L281.4 243.4ZM324.4 280.2L324.4 280.2Q317.3 280.2 313.3 276.0Q309.4 271.7 309.4 264.2L309.4 264.2Q309.4 256.7 313.3 252.3Q317.3 247.9 324.0 247.9L324.0 247.9Q330.4 247.9 334.4 251.9Q338.3 256.0 338.3 262.4L338.3 262.4Q338.3 264.0 337.4 264.9Q336.5 265.8 334.9 265.8L334.9 265.8L316.6 265.8L316.6 266.0Q316.6 269.9 318.7 272.3Q320.8 274.6 324.4 274.6L324.4 274.6Q326.8 274.6 328.6 273.6Q330.4 272.7 332.1 270.4L332.1 270.4Q333.2 269.3 334.6 269.3L334.6 269.3Q335.9 269.3 336.7 270.0Q337.5 270.8 337.5 272.1L337.5 272.1Q337.5 272.9 337.0 273.9L337.0 273.9Q335.5 276.9 332.2 278.5Q328.9 280.2 324.4 280.2ZM316.7 261.0L316.7 261.0L331.2 261.0Q331.1 257.6 329.1 255.6Q327.1 253.5 324.1 253.5Q321.0 253.5 318.9 255.6Q316.9 257.7 316.7 261.0ZM349.5 279.2Q348.5 280.2 346.9 280.2Q345.2 280.2 344.2 279.2Q343.2 278.1 343.2 276.3L343.2 276.3L343.2 240.5Q343.2 238.7 344.2 237.7Q345.2 236.7 346.8 236.7L346.8 236.7Q348.5 236.7 349.5 237.7Q350.4 238.7 350.4 240.5L350.4 240.5L350.4 253.9L350.6 253.9Q351.8 251.0 354.4 249.5Q356.9 247.9 360.4 247.9L360.4 247.9Q365.5 247.9 368.4 251.1Q371.3 254.2 371.3 259.6L371.3 259.6L371.3 276.3Q371.3 278.1 370.2 279.2Q369.2 280.2 367.6 280.2Q366.0 280.2 365.0 279.2Q364.0 278.1 364.0 276.3L364.0 276.3L364.0 261.1Q364.0 257.8 362.3 255.9Q360.7 254.1 357.6 254.1L357.6 254.1Q354.3 254.1 352.4 256.2Q350.5 258.3 350.5 261.7L350.5 261.7L350.5 276.3Q350.5 278.1 349.5 279.2ZM381.5 291.1L381.5 291.1Q379.1 291.1 377.8 290.2Q376.5 289.3 376.5 287.7L376.5 287.7Q376.5 286.6 377.2 285.9Q378.0 285.2 379.2 285.2L379.2 285.2Q379.5 285.2 380.0 285.2Q380.5 285.2 380.8 285.2L380.8 285.2Q383.8 285.2 385.2 281.7L385.2 281.7L385.8 280.1L375.6 253.4Q375.2 252.2 375.2 251.3L375.2 251.3Q375.2 249.8 376.3 248.9Q377.3 247.9 378.9 247.9L378.9 247.9Q380.3 247.9 381.1 248.6Q382.0 249.3 382.4 250.8L382.4 250.8L389.8 273.4L390.0 273.4L397.4 250.8Q397.8 249.3 398.7 248.6Q399.5 247.9 400.9 247.9L400.9 247.9Q402.4 247.9 403.4 248.8Q404.4 249.8 404.4 251.2L404.4 251.2Q404.4 252.2 404.0 253.3L404.0 253.3L393.8 280.7Q391.7 286.5 388.9 288.8Q386.2 291.1 381.5 291.1ZM414.7 289.6Q413.7 290.6 412.0 290.6Q410.4 290.6 409.4 289.6Q408.4 288.6 408.4 286.8L408.4 286.8L408.4 251.7Q408.4 249.9 409.4 248.9Q410.4 247.9 412.0 247.9L412.0 247.9Q413.6 247.9 414.5 248.9Q415.5 249.9 415.5 251.7L415.5 251.7L415.5 253.9L415.7 253.9Q417.0 251.1 419.6 249.6Q422.1 248.0 425.5 248.0L425.5 248.0Q431.4 248.0 434.9 252.3Q438.3 256.6 438.3 264.1L438.3 264.1Q438.3 271.5 434.9 275.8Q431.4 280.1 425.6 280.1L425.6 280.1Q422.2 280.1 419.7 278.6Q417.1 277.1 415.8 274.4L415.8 274.4L415.7 274.4L415.7 286.8Q415.7 288.6 414.7 289.6ZM423.2 274.1L423.2 274.1Q426.8 274.1 428.8 271.4Q430.9 268.7 430.9 264.1L430.9 264.1Q430.9 259.5 428.8 256.7Q426.7 254.0 423.2 254.0L423.2 254.0Q419.8 254.0 417.8 256.8Q415.7 259.5 415.6 264.1L415.6 264.1Q415.7 268.6 417.8 271.4Q419.8 274.1 423.2 274.1ZM456.8 280.2L456.8 280.2Q449.7 280.2 445.7 276.0Q441.7 271.7 441.7 264.2L441.7 264.2Q441.7 256.7 445.7 252.3Q449.7 247.9 456.4 247.9L456.4 247.9Q462.8 247.9 466.8 251.9Q470.7 256.0 470.7 262.4L470.7 262.4Q470.7 264.0 469.8 264.9Q468.9 265.8 467.3 265.8L467.3 265.8L449.0 265.8L449.0 266.0Q449.0 269.9 451.1 272.3Q453.2 274.6 456.8 274.6L456.8 274.6Q459.2 274.6 461.0 273.6Q462.8 272.7 464.5 270.4L464.5 270.4Q465.6 269.3 467.0 269.3L467.0 269.3Q468.3 269.3 469.1 270.0Q469.9 270.8 469.9 272.1L469.9 272.1Q469.9 272.9 469.4 273.9L469.4 273.9Q467.9 276.9 464.6 278.5Q461.3 280.2 456.8 280.2ZM449.1 261.0L449.1 261.0L463.6 261.0Q463.5 257.6 461.5 255.6Q459.5 253.5 456.5 253.5Q453.4 253.5 451.3 255.6Q449.3 257.7 449.1 261.0Z "/><defs><clipPath id="satori_bc-id-0-1"><rect x="0" y="441" width="1200" height="189"/></clipPath></defs><mask id="satori_om-id-0-1"><rect x="0" y="442" width="1200" height="188" fill="#fff"/><path width="1200" height="189" fill="none" stroke="#000" stroke-width="2" d="M0,441 A0,0 0 0 1 0,441 h1200 A0,0 0 0 1 1200,441"/></mask><path width="1200" height="189" clip-path="url(#satori_bc-id-0-1)" fill="none" stroke="#dbdbdb" stroke-width="2" d="M0,441 A0,0 0 0 1 0,441 h1200 A0,0 0 0 1 1200,441"/><mask id="satori_om-id-0-1-0"><rect x="40" y="482" width="209" height="108" fill="#fff"/></mask><clipPath id="satori_cp-id-0-1-0-0"><rect x="40" y="504" width="64" height="64"/></clipPath><mask id="satori_om-id-0-1-0-0"><rect x="40" y="504" width="64" height="64" fill="#fff"/></mask><image x="40" y="504" width="64" height="64" href="data:image/svg+xml;utf8,%3Csvg  xmlns=%22http://www.w3.org/2000/svg%22 width=%2264%22 height=%2264%22 viewBox=%220 0 128 128%22%3E%3Cpath fill=%22%23224d67%22 d=%22M22.5 14.8c2.9 1.3 99 44 99 44c2.7 1.2 2.9 3.1 2 12.4c-1 10.5-1.9 37.8-40.2 42.9c-24.6 3.2-55.9-4.3-70.9-27.2C-6 58.8 11 23.4 14.8 17.7c2.4-3.5 4.8-4.2 7.7-2.9%22%3E%3C/path%3E%3Cpath fill=%22%23f0f4c3%22 d=%22M121.5 58.8c-.3-.2-92-40.8-98.9-43.9C9.6 31.5-3.8 76 27.9 96.2c33.6 21.5 78.7-10.2 93.6-37.4%22%3E%3C/path%3E%3Cpath fill=%22%23f0f4c3%22 d=%22M117.7 57c-.3-.2-86.7-38.4-93.2-41.3c-12.2 15.5-23.9 59.1 5.7 78c31.4 20.2 73.6-11.2 87.5-36.7%22%3E%3C/path%3E%3Cpath fill=%22%23cb2a42%22 d=%22M56.2 37.6L19.5 48.2c-2.5.8-4.4 2.8-5 5.3c-1.9 8.5.8 23.3 8.9 29.8c3.5 2.7 8.6 1.8 10.8-2.1L58.5 41c1.3-1.7.5-4.2-2.3-3.4m14.3 2.9s14.6 30.1 16 33s6.3 4.7 9.9 2.8c10.7-5.6 15.5-12.4 19.2-20.2c-8.9-3.9-42.4-18.8-42.4-18.8c-2.4-1.1-4 .6-2.7 3.2m-8.6 1.9C60.3 45.1 39.5 81 37.6 84.1c-1.9 3.2-.7 7.5 2.7 9.2c12.3 6.5 30.9.4 39.6-7c2.2-1.9 4.5-5.1 3.2-8.2S68.9 44.6 67.8 42.3c-1.2-2.7-4.1-2.8-5.9.1%22%3E%3C/path%3E%3Cpath fill=%22%23f0f4c3%22 d=%22M52.2 42.2c-1.4.4-10.1 3-11.1 3.4c-1.4.5-2.2 1.7-1.9 2.5c.3.9 1.7 1.1 3.1.6c.8-.3 7.1-3.9 9.5-5.2c-3.1 2.4-10.2 9.4-11.1 10.3c-1.4 1.5-1.7 3.4-.8 4.3c1 .9 2.9.5 4.3-1c1.2-1.3 8.5-12.8 9.1-13.9s.4-1.4-1.1-1m10.1 16.4c0-2.2 1.4-10.3 1.8-12.3c.4-1.6 1.5-1.8 1.8.5s1.7 9.7 1.7 11.8s-1.2 3.3-2.7 3.3c-1.4 0-2.6-1.1-2.6-3.3M79.9 49c-1.2-1.8-3.3-4.9-4.1-6.1c-.7-1.2.1-2.1 1.8-.9s4 2.9 5.4 4c1.6 1.3 1.9 3 .8 4s-2.7.8-3.9-1%22%3E%3C/path%3E%3Cellipse cx=%2287.3%22 cy=%22103.12%22 fill=%22%23cb2a42%22 rx=%223.4%22 ry=%222.3%22 transform=%22rotate(-27.098 87.298 103.126)%22%3E%3C/ellipse%3E%3Cellipse cx=%2298.89%22 cy=%22103.82%22 fill=%22%23cb2a42%22 rx=%223.4%22 ry=%222.3%22 transform=%22rotate(-30.642 98.887 103.818)%22%3E%3C/ellipse%3E%3Cellipse cx=%22102.02%22 cy=%2293.8%22 fill=%22%23cb2a42%22 rx=%223.4%22 ry=%222.3%22 transform=%22rotate(-37.16 102.017 93.797)%22%3E%3C/ellipse%3E%3Cpath fill=%22%23cb2a42%22 d=%22M57.6 30.3c-8.3-3.7-24.4-10.7-29.6-13c-3.6 2.2-9.7 11.4-11.2 21.2c-.6 3.6 1.7 5.9 5.3 4.9c0 0 33.7-9.3 35.3-9.7c1.6-.5 2-2.6.2-3.4%22%3E%3C/path%3E%3C/svg%3E" preserveAspectRatio="none" clip-path="url(#satori_cp-id-0-1-0-0)" mask="url(#satori_om-id-0-1-0-0)"/><mask id="satori_om-id-0-1-0-0-0"><rect x="40" y="504" width="0" height="64" fill="#fff"/></mask><mask id="satori_om-id-0-1-0-0-1"><rect x="40" y="504" width="0" height="64" fill="#fff"/></mask><mask id="satori_om-id-0-1-0-0-2"><rect x="40" y="504" width="0" height="64" fill="#fff"/></mask><mask id="satori_om-id-0-1-0-0-3"><rect x="40" y="504" width="0" height="64" fill="#fff"/></mask><mask id="satori_om-id-0-1-0-0-4"><rect x="40" y="504" width="0" height="64" fill="#fff"/></mask><mask id="satori_om-id-0-1-0-0-5"><rect x="40" y="504" width="0" height="64" fill="#fff"/></mask><mask id="satori_om-id-0-1-0-0-6"><rect x="40" y="504" width="0" height="64" fill="#fff"/></mask><mask id="satori_om-id-0-1-0-0-7"><rect x="40" y="504" width="0" height="64" fill="#fff"/></mask><mask id="satori_om-id-0-1-0-0-8"><rect x="40" y="504" width="0" height="64" fill="#fff"/></mask><mask id="satori_om-id-0-1-0-1"><rect x="116" y="512" width="133" height="48" fill="#fff"/></mask><path fill="#545454" d="M133.9 553.6L133.9 553.6Q126.4 553.6 122.1 549.0Q117.8 544.3 117.8 536.1L117.8 536.1Q117.8 528.0 122.1 523.3Q126.4 518.7 133.7 518.7L133.7 518.7Q138.4 518.7 142.0 520.7Q145.5 522.7 147.2 526.3L147.2 526.3Q147.9 527.7 147.9 529.0L147.9 529.0Q147.9 530.4 147.1 531.2Q146.2 532.0 144.8 532.0L144.8 532.0Q143.6 532.0 142.8 531.5Q142.0 530.9 141.5 529.7L141.5 529.7Q140.3 527.1 138.3 525.8Q136.3 524.5 133.8 524.5L133.8 524.5Q129.8 524.5 127.4 527.7Q125.0 530.8 125.0 536.1L125.0 536.1Q125.0 541.5 127.3 544.7Q129.7 547.8 133.8 547.8L133.8 547.8Q139.3 547.8 141.5 542.8L141.5 542.8Q142.1 541.6 142.8 541.1Q143.5 540.5 144.7 540.5L144.7 540.5Q146.2 540.5 147.1 541.4Q148.0 542.3 148.0 543.7L148.0 543.7Q148.0 544.8 147.4 546.1L147.4 546.1Q145.8 549.6 142.3 551.6Q138.7 553.6 133.9 553.6ZM158.6 523.8Q157.5 524.8 156.0 524.8Q154.4 524.8 153.4 523.8Q152.3 522.8 152.3 521.3L152.3 521.3Q152.3 519.8 153.4 518.8Q154.4 517.7 156.0 517.7Q157.5 517.7 158.6 518.8Q159.6 519.8 159.6 521.3L159.6 521.3Q159.6 522.8 158.6 523.8ZM158.5 552.6Q157.6 553.6 156.0 553.6Q154.4 553.6 153.5 552.6Q152.5 551.7 152.5 550.0L152.5 550.0L152.5 531.0Q152.5 529.3 153.5 528.4Q154.4 527.4 156.0 527.4Q157.6 527.4 158.5 528.4Q159.4 529.3 159.4 531.0L159.4 531.0L159.4 550.0Q159.4 551.7 158.5 552.6ZM165.8 546.6L165.8 546.6L165.8 533.1L164.4 533.1Q163.2 533.1 162.5 532.4Q161.8 531.7 161.8 530.5Q161.8 529.3 162.5 528.6Q163.2 527.9 164.4 527.9L164.4 527.9L165.8 527.9L165.8 525.1Q165.8 523.5 166.7 522.5Q167.6 521.6 169.2 521.6Q170.8 521.6 171.7 522.5Q172.6 523.5 172.6 525.1L172.6 525.1L172.6 527.9L175.0 527.9Q176.2 527.9 176.9 528.6Q177.6 529.3 177.6 530.5Q177.6 531.7 176.9 532.4Q176.2 533.1 175.0 533.1L175.0 533.1L172.6 533.1L172.6 545.1Q172.6 546.5 173.1 547.1Q173.6 547.7 174.7 547.8L174.7 547.8L175.1 547.8Q176.4 548.0 177.1 548.5Q177.7 549.1 177.7 550.3L177.7 550.3Q177.7 551.8 176.4 552.6Q175.1 553.3 172.9 553.3L172.9 553.3L172.6 553.3Q165.8 553.3 165.8 546.6ZM184.4 553.6L184.4 553.6Q182.8 553.6 181.9 552.6Q181.0 551.7 181.0 550.0L181.0 550.0L181.0 530.9Q181.0 529.3 181.9 528.3Q182.8 527.4 184.3 527.4L184.3 527.4Q185.8 527.4 186.6 528.3Q187.5 529.3 187.5 530.9L187.5 530.9L187.5 532.5L187.7 532.5Q188.2 530.2 189.6 528.9Q191 527.5 192.9 527.5L192.9 527.5Q194.3 527.5 195.0 528.2L195.0 528.2Q196.0 528.9 196.0 530.7L196.0 530.7Q196.0 532.3 195.0 533.2L195.0 533.2Q194.0 534.0 192.1 534.1L192.1 534.1Q189.8 534.1 188.8 535.3Q187.8 536.5 187.8 538.8L187.8 538.8L187.8 550.0Q187.8 551.7 186.9 552.6Q186.0 553.6 184.4 553.6ZM207.4 553.5L207.4 553.5Q203.3 553.5 200.8 551.0Q198.3 548.5 198.3 544.1L198.3 544.1L198.3 531.0Q198.3 529.3 199.3 528.4Q200.2 527.4 201.8 527.4Q203.3 527.4 204.2 528.4Q205.2 529.3 205.2 531.0L205.2 531.0L205.2 542.7Q205.2 545.2 206.4 546.5Q207.6 547.8 209.9 547.8Q212.1 547.8 213.5 546.3Q214.8 544.8 214.8 542.3L214.8 542.3L214.8 531.0Q214.8 529.3 215.8 528.4Q216.7 527.4 218.2 527.4Q219.8 527.4 220.7 528.4Q221.7 529.3 221.7 531.0L221.7 531.0L221.7 550.1Q221.7 551.8 220.8 552.7Q219.9 553.6 218.4 553.6Q216.8 553.6 215.9 552.7Q215.0 551.8 215.0 550.1L215.0 550.1L215.0 548.5L214.9 548.5Q212.9 553.5 207.4 553.5ZM236.4 553.6L236.4 553.6Q232.1 553.6 229.3 552.2Q226.5 550.9 225.5 548.6L225.5 548.6Q225.3 547.9 225.3 547.3L225.3 547.3Q225.3 546.1 226.1 545.4Q226.9 544.7 228.1 544.7L228.1 544.7Q229.6 544.7 231.0 546.2L231.0 546.2Q232.1 547.6 233.3 548.2Q234.6 548.8 236.5 548.8L236.5 548.8Q238.4 548.8 239.5 548.1Q240.6 547.3 240.6 546.1L240.6 546.1Q240.6 545.1 239.9 544.5Q239.1 543.9 237.3 543.5L237.3 543.5L233.1 542.6Q229.4 541.8 227.5 539.9Q225.7 538.1 225.7 535.3L225.7 535.3Q225.7 531.7 228.6 529.5Q231.5 527.4 236.3 527.4L236.3 527.4Q240.1 527.4 242.8 528.9Q245.5 530.4 246.2 532.6L246.2 532.6Q246.3 533.2 246.3 533.6L246.3 533.6Q246.3 534.7 245.7 535.3Q245 536.0 243.7 536.0L243.7 536.0Q242.1 536.0 241.2 534.9L241.2 534.9Q240.2 533.6 239.1 532.9Q237.9 532.2 236.2 532.2L236.2 532.2Q234.5 532.2 233.4 533.0Q232.3 533.7 232.3 534.9L232.3 534.9Q232.3 535.9 233.1 536.6Q233.9 537.2 235.8 537.6L235.8 537.6L239.9 538.5Q243.9 539.4 245.7 541.0Q247.5 542.6 247.5 545.4L247.5 545.4Q247.5 549.1 244.4 551.4Q241.3 553.6 236.4 553.6Z "/><mask id="satori_om-id-0-1-1"><rect x="951" y="524" width="209" height="36" fill="#fff"/></mask><path fill="#8e8e8e" d="M954.9 552.6Q954.5 552.9 954.0 552.9Q953.4 552.9 953.1 552.6Q952.8 552.2 952.8 551.7L952.8 551.7L952.8 532.6Q952.8 532.0 953.1 531.6Q953.5 531.3 954.1 531.3Q954.6 531.3 955.0 531.6Q955.3 532.0 955.3 532.6L955.3 532.6L955.3 540.0L955.4 540.0Q956.1 538.7 957.4 537.9Q958.7 537.2 960.3 537.2L960.3 537.2Q963.2 537.2 964.9 539.3Q966.7 541.5 966.7 545.0L966.7 545.0Q966.7 548.6 964.9 550.8Q963.2 552.9 960.2 552.9L960.2 552.9Q958.6 552.9 957.3 552.2Q956.0 551.4 955.3 550.1L955.3 550.1L955.2 550.1L955.2 551.7Q955.2 552.2 954.9 552.6ZM959.7 550.7L959.7 550.7Q961.8 550.7 962.9 549.2Q964.1 547.7 964.1 545.0L964.1 545.0Q964.1 542.5 962.9 540.9Q961.8 539.4 959.7 539.4L959.7 539.4Q957.8 539.4 956.6 541.0Q955.3 542.5 955.3 545.0L955.3 545.0Q955.3 547.6 956.6 549.1Q957.8 550.7 959.7 550.7ZM970.8 558.4L970.8 558.4Q969.9 558.4 969.4 558.0Q968.9 557.7 968.9 557.1L968.9 557.1Q968.9 556.7 969.1 556.4Q969.4 556.2 969.9 556.2L969.9 556.2Q970.1 556.2 970.3 556.2Q970.5 556.2 970.7 556.2L970.7 556.2Q972.4 556.2 973.2 553.7L973.2 553.7L973.6 552.7L968.3 539.0Q968.2 538.6 968.2 538.3L968.2 538.3Q968.2 537.8 968.6 537.5Q968.9 537.2 969.5 537.2L969.5 537.2Q970.4 537.2 970.7 538.1L970.7 538.1L974.9 550.1L975.0 550.1L979.2 538.1Q979.3 537.6 979.6 537.4Q979.9 537.2 980.4 537.2L980.4 537.2Q980.9 537.2 981.3 537.5Q981.6 537.8 981.6 538.3L981.6 538.3Q981.6 538.6 981.5 539.0L981.5 539.0L975.9 553.7Q974.9 556.4 973.8 557.4Q972.7 558.4 970.8 558.4Z M990.5 552.9L990.5 552.9Q989.9 552.9 989.5 552.5Q989.2 552.2 989.2 551.7L989.2 551.7Q989.2 551.4 989.3 551.0L989.3 551.0L996.1 532.6Q996.6 531.3 997.8 531.3L997.8 531.3Q999.0 531.3 999.5 532.6L999.5 532.6L1006.3 551.0Q1006.5 551.4 1006.5 551.7L1006.5 551.7Q1006.5 552.2 1006.1 552.5Q1005.7 552.9 1005.2 552.9L1005.2 552.9Q1004.2 552.9 1003.9 551.9L1003.9 551.9L1002.0 546.6L993.6 546.6L991.8 551.9Q991.4 552.9 990.5 552.9ZM997.8 534.7L994.4 544.4L1001.2 544.4L997.9 534.7L997.8 534.7ZM1011.1 552.5Q1010.8 552.9 1010.2 552.9Q1009.7 552.9 1009.3 552.5Q1008.9 552.2 1008.9 551.6L1008.9 551.6L1008.9 538.5Q1008.9 537.9 1009.3 537.5Q1009.6 537.2 1010.1 537.2Q1010.7 537.2 1011 537.5Q1011.3 537.9 1011.3 538.5L1011.3 538.5L1011.3 539.9L1011.4 539.9Q1011.7 538.7 1012.7 537.9Q1013.7 537.2 1014.9 537.2L1014.9 537.2Q1015.7 537.2 1016.1 537.5L1016.1 537.5Q1016.4 537.8 1016.4 538.4L1016.4 538.4Q1016.4 539.0 1016.0 539.3L1016.0 539.3Q1015.6 539.6 1014.8 539.6L1014.8 539.6Q1013.1 539.6 1012.3 540.6Q1011.5 541.6 1011.5 543.2L1011.5 543.2L1011.5 551.6Q1011.5 552.2 1011.1 552.5ZM1019.0 549.1L1019.0 549.1L1019.0 539.5L1017.7 539.5Q1017.2 539.5 1016.9 539.3Q1016.6 539.0 1016.6 538.5L1016.6 538.5Q1016.6 538.0 1016.9 537.7Q1017.2 537.4 1017.7 537.4L1017.7 537.4L1019.0 537.4L1019.0 534.8Q1019.0 534.2 1019.4 533.8Q1019.7 533.5 1020.3 533.5Q1020.8 533.5 1021.2 533.8Q1021.5 534.2 1021.5 534.8L1021.5 534.8L1021.5 537.4L1023.5 537.4Q1024.1 537.4 1024.4 537.7Q1024.7 538.0 1024.7 538.5L1024.7 538.5Q1024.7 539.0 1024.4 539.3Q1024.1 539.5 1023.5 539.5L1023.5 539.5L1021.5 539.5L1021.5 548.6Q1021.5 549.6 1021.9 550.0Q1022.3 550.5 1023.3 550.6L1023.3 550.6L1023.5 550.6Q1024.7 550.7 1024.7 551.6L1024.7 551.6Q1024.7 552.2 1024.3 552.5Q1023.9 552.8 1022.9 552.8L1022.9 552.8L1022.7 552.8Q1019.0 552.8 1019.0 549.1ZM1033.6 552.9L1033.6 552.9Q1030.2 552.9 1028.4 550.9Q1026.5 548.8 1026.5 545.1L1026.5 545.1Q1026.5 541.5 1028.4 539.3Q1030.2 537.2 1033.4 537.2L1033.4 537.2Q1036.3 537.2 1038.2 539.1Q1040.0 541.1 1040.0 544.3L1040.0 544.3Q1040.0 544.9 1039.6 545.3Q1039.3 545.7 1038.6 545.7L1038.6 545.7L1029.1 545.7Q1029.1 548.0 1030.3 549.4Q1031.5 550.7 1033.5 550.7L1033.5 550.7Q1034.9 550.7 1035.8 550.2Q1036.7 549.6 1037.6 548.3L1037.6 548.3Q1038.0 547.8 1038.6 547.8L1038.6 547.8Q1039.1 547.8 1039.4 548.1Q1039.7 548.4 1039.7 548.9L1039.7 548.9Q1039.7 549.2 1039.5 549.7L1039.5 549.7Q1038.8 551.2 1037.2 552.1Q1035.7 552.9 1033.6 552.9ZM1029.1 543.7L1029.1 543.7L1037.4 543.7Q1037.3 541.8 1036.2 540.6Q1035.1 539.4 1033.3 539.4L1033.3 539.4Q1031.6 539.4 1030.4 540.6Q1029.2 541.8 1029.1 543.7ZM1044.8 552.5Q1044.4 552.9 1043.9 552.9Q1043.3 552.9 1042.9 552.5Q1042.6 552.2 1042.6 551.6L1042.6 551.6L1042.6 538.5Q1042.6 537.9 1042.9 537.5Q1043.3 537.2 1043.8 537.2Q1044.3 537.2 1044.6 537.5Q1045.0 537.9 1045.0 538.5L1045.0 538.5L1045.0 539.9L1045.0 539.9Q1045.6 538.6 1046.7 537.9Q1047.9 537.2 1049.4 537.2L1049.4 537.2Q1050.9 537.2 1052.0 537.9Q1053.1 538.7 1053.6 540.1L1053.6 540.1L1053.7 540.1Q1054.3 538.7 1055.6 537.9Q1056.9 537.2 1058.5 537.2L1058.5 537.2Q1060.7 537.2 1062.1 538.5Q1063.4 539.9 1063.4 542.1L1063.4 542.1L1063.4 551.6Q1063.4 552.2 1063.1 552.5Q1062.7 552.9 1062.2 552.9Q1061.6 552.9 1061.2 552.5Q1060.9 552.2 1060.9 551.6L1060.9 551.6L1060.9 542.7Q1060.9 541.2 1060.1 540.3Q1059.2 539.4 1057.7 539.4Q1056.2 539.4 1055.3 540.4Q1054.3 541.4 1054.3 543.0L1054.3 543.0L1054.3 551.6Q1054.3 552.2 1053.9 552.5Q1053.6 552.9 1053.0 552.9Q1052.4 552.9 1052.1 552.5Q1051.7 552.2 1051.7 551.6L1051.7 551.6L1051.7 542.5Q1051.7 541.1 1050.9 540.2Q1050.0 539.4 1048.6 539.4L1048.6 539.4Q1047.1 539.4 1046.1 540.5Q1045.1 541.5 1045.1 543.1L1045.1 543.1L1045.1 551.6Q1045.1 552.2 1044.8 552.5Z M1075.5 552.5Q1075.1 552.9 1074.5 552.9Q1073.9 552.9 1073.6 552.5Q1073.2 552.1 1073.2 551.5L1073.2 551.5L1073.2 532.7Q1073.2 532.1 1073.6 531.7Q1073.9 531.3 1074.5 531.3Q1075.1 531.3 1075.5 531.7Q1075.9 532.1 1075.9 532.7L1075.9 532.7L1075.9 541.8L1076.0 541.8L1085.4 531.8Q1085.9 531.3 1086.5 531.3L1086.5 531.3Q1087.0 531.3 1087.3 531.7Q1087.7 532.0 1087.7 532.5L1087.7 532.5Q1087.7 533.0 1087.3 533.3L1087.3 533.3L1080.1 540.9L1088.2 550.6Q1088.5 551.1 1088.5 551.6L1088.5 551.6Q1088.5 552.2 1088.2 552.5Q1087.8 552.9 1087.3 552.9L1087.3 552.9Q1086.6 552.9 1086.1 552.2L1086.1 552.2L1078.2 542.8L1075.9 545.3L1075.9 551.5Q1075.9 552.1 1075.5 552.5ZM1096.5 552.9L1096.5 552.9Q1094.0 552.9 1092.6 551.4Q1091.2 549.9 1091.2 547.3L1091.2 547.3L1091.2 538.5Q1091.2 537.9 1091.6 537.5Q1091.9 537.2 1092.5 537.2Q1093.0 537.2 1093.4 537.5Q1093.8 537.9 1093.8 538.5L1093.8 538.5L1093.8 546.9Q1093.8 550.7 1097.3 550.7L1097.3 550.7Q1099.1 550.7 1100.2 549.5Q1101.2 548.3 1101.2 546.4L1101.2 546.4L1101.2 538.5Q1101.2 537.9 1101.6 537.5Q1102.0 537.2 1102.5 537.2Q1103.1 537.2 1103.4 537.5Q1103.8 537.9 1103.8 538.5L1103.8 538.5L1103.8 551.6Q1103.8 552.2 1103.5 552.6Q1103.1 552.9 1102.6 552.9Q1102.1 552.9 1101.7 552.6Q1101.4 552.2 1101.4 551.6L1101.4 551.6L1101.4 550.2L1101.3 550.2Q1099.9 552.9 1096.5 552.9ZM1107.9 549.1L1107.9 549.1L1107.9 539.5L1106.6 539.5Q1106.1 539.5 1105.8 539.3Q1105.5 539.0 1105.5 538.5L1105.5 538.5Q1105.5 538.0 1105.8 537.7Q1106.1 537.4 1106.6 537.4L1106.6 537.4L1107.9 537.4L1107.9 534.8Q1107.9 534.2 1108.3 533.8Q1108.6 533.5 1109.2 533.5Q1109.7 533.5 1110.1 533.8Q1110.5 534.2 1110.5 534.8L1110.5 534.8L1110.5 537.4L1112.4 537.4Q1113.0 537.4 1113.3 537.7Q1113.6 538.0 1113.6 538.5L1113.6 538.5Q1113.6 539.0 1113.3 539.3Q1113.0 539.5 1112.4 539.5L1112.4 539.5L1110.5 539.5L1110.5 548.6Q1110.5 549.6 1110.9 550.0Q1111.3 550.5 1112.2 550.6L1112.2 550.6L1112.4 550.6Q1113.6 550.7 1113.6 551.6L1113.6 551.6Q1113.6 552.2 1113.2 552.5Q1112.8 552.8 1111.8 552.8L1111.8 552.8L1111.6 552.8Q1107.9 552.8 1107.9 549.1ZM1121.4 552.9L1121.4 552.9Q1119.4 552.9 1117.9 552.1Q1116.4 551.2 1115.9 549.8L1115.9 549.8Q1115.7 549.5 1115.7 549.2L1115.7 549.2Q1115.7 548.7 1116.1 548.4Q1116.4 548.2 1116.9 548.2L1116.9 548.2Q1117.6 548.2 1118.0 548.9L1118.0 548.9Q1118.6 550.0 1119.4 550.4Q1120.2 550.8 1121.6 550.8L1121.6 550.8Q1123.1 550.8 1124.0 550.2Q1124.9 549.6 1124.9 548.6L1124.9 548.6Q1124.9 547.7 1124.4 547.3Q1123.8 546.8 1122.5 546.5L1122.5 546.5L1120.2 545.9Q1115.9 544.8 1115.9 541.6L1115.9 541.6Q1115.9 539.6 1117.5 538.4Q1119.0 537.2 1121.6 537.2L1121.6 537.2Q1123.5 537.2 1125.0 538.1Q1126.5 539.0 1126.8 540.4L1126.8 540.4Q1126.8 540.6 1126.8 540.8L1126.8 540.8Q1126.8 541.2 1126.5 541.5Q1126.3 541.8 1125.8 541.8L1125.8 541.8Q1125.0 541.8 1124.7 541.1L1124.7 541.1Q1124.2 540.1 1123.4 539.7Q1122.7 539.3 1121.5 539.3L1121.5 539.3Q1120.1 539.3 1119.2 539.9Q1118.4 540.5 1118.4 541.5L1118.4 541.5Q1118.4 543.1 1120.9 543.7L1120.9 543.7L1123.1 544.2Q1125.5 544.8 1126.5 545.8Q1127.5 546.7 1127.5 548.4L1127.5 548.4Q1127.5 550.4 1125.8 551.7Q1124.1 552.9 1121.4 552.9ZM1134.5 552.9L1134.5 552.9Q1132.3 552.9 1130.9 551.7Q1129.5 550.4 1129.5 548.4L1129.5 548.4Q1129.5 546.4 1130.9 545.2Q1132.3 544.1 1135.0 543.9L1135.0 543.9L1139.4 543.7L1139.4 542.4Q1139.4 541.0 1138.5 540.2Q1137.6 539.4 1136.0 539.4L1136.0 539.4Q1134.8 539.4 1133.9 539.9Q1133.0 540.4 1132.4 541.5L1132.4 541.5Q1132.1 542.1 1131.3 542.1L1131.3 542.1Q1130.8 542.1 1130.5 541.8Q1130.2 541.5 1130.2 541.0Q1130.2 540.5 1130.5 539.9L1130.5 539.9Q1131.2 538.7 1132.7 537.9Q1134.2 537.2 1136.1 537.2L1136.1 537.2Q1138.8 537.2 1140.3 538.5Q1141.9 539.9 1141.9 542.1L1141.9 542.1L1141.9 551.6Q1141.9 552.2 1141.6 552.6Q1141.2 552.9 1140.7 552.9L1140.7 552.9Q1140.2 552.9 1139.8 552.6Q1139.5 552.2 1139.5 551.6L1139.5 551.6L1139.5 550.0L1139.4 550.0Q1138.8 551.3 1137.4 552.1Q1136.1 552.9 1134.5 552.9ZM1135.1 550.8L1135.1 550.8Q1136.9 550.8 1138.1 549.6Q1139.4 548.5 1139.4 546.9L1139.4 546.9L1139.4 545.6L1135.3 545.9Q1133.7 546.0 1132.9 546.6Q1132.1 547.3 1132.1 548.4Q1132.1 549.4 1132.9 550.1Q1133.7 550.8 1135.1 550.8ZM1147.3 552.5Q1147.0 552.9 1146.4 552.9Q1145.9 552.9 1145.5 552.5Q1145.2 552.2 1145.2 551.6L1145.2 551.6L1145.2 538.5Q1145.2 537.9 1145.5 537.5Q1145.8 537.2 1146.4 537.2Q1146.9 537.2 1147.2 537.5Q1147.6 537.9 1147.6 538.5L1147.6 538.5L1147.6 539.9L1147.6 539.9Q1148.3 538.6 1149.5 537.9Q1150.7 537.2 1152.4 537.2L1152.4 537.2Q1154.9 537.2 1156.3 538.7Q1157.7 540.2 1157.7 542.8L1157.7 542.8L1157.7 551.6Q1157.7 552.2 1157.4 552.5Q1157.0 552.9 1156.4 552.9Q1155.9 552.9 1155.5 552.5Q1155.2 552.2 1155.2 551.6L1155.2 551.6L1155.2 543.2Q1155.2 541.4 1154.3 540.4Q1153.4 539.4 1151.7 539.4L1151.7 539.4Q1149.9 539.4 1148.8 540.6Q1147.7 541.8 1147.7 543.7L1147.7 543.7L1147.7 551.6Q1147.7 552.2 1147.3 552.5Z "/></svg>