<svg width="1200" height="630" viewBox="0 0 1200 630" xmlns="http://www.w3.org/2000/svg"><mask id="satori_om-id"><rect x="0" y="0" width="1200" height="630" fill="#fff"/></mask><mask id="satori_om-id-0"><rect x="0" y="0" width="1200" height="630" fill="#fff"/></mask><rect x="0" y="0" width="1200" height="630" fill="#f2f2f2"/><mask id="satori_om-id-0-0"><rect x="0" y="0" width="1200" height="441" fill="#fff"/></mask><mask id="satori_om-id-0-0-0"><rect x="40" y="95" width="1120" height="36" fill="#fff"/></mask><path fill="#8e8e8e" d="M49.2 124.0L49.2 124.0Q46.2 124.0 44.1 122.9Q42.1 121.7 41.4 119.8L41.4 119.8Q41.2 119.2 41.2 118.8L41.2 118.8Q41.2 118.0 41.6 117.6Q42.1 117.2 42.7 117.2L42.7 117.2Q43.8 117.2 44.3 118.3L44.3 118.3Q44.8 119.8 46.1 120.5Q47.4 121.2 49.3 121.2L49.3 121.2Q51.3 121.2 52.6 120.3Q53.9 119.4 53.9 118.0L53.9 118.0Q53.9 116.7 53.0 115.9Q52.1 115.1 50.0 114.7L50.0 114.7L47.6 114.2Q44.5 113.5 43.0 112.1Q41.5 110.6 41.5 108.3L41.5 108.3Q41.5 105.6 43.7 103.9Q45.8 102.2 49.2 102.2L49.2 102.2Q51.9 102.2 53.9 103.4Q55.9 104.6 56.5 106.7L56.5 106.7Q56.6 107.0 56.6 107.5L56.6 107.5Q56.6 108.1 56.2 108.5Q55.8 108.9 55.2 108.9L55.2 108.9Q54.1 108.9 53.6 107.8L53.6 107.8Q52.6 105.0 49.1 105.0L49.1 105.0Q47.3 105.0 46.0 105.8Q44.8 106.7 44.8 108.1L44.8 108.1Q44.8 109.3 45.7 110.1Q46.7 110.8 48.7 111.3L48.7 111.3L51.0 111.7Q54.3 112.4 55.8 113.8Q57.2 115.2 57.2 117.5L57.2 117.5Q57.2 120.5 55.0 122.3Q52.9 124.0 49.2 124.0ZM65.1 123.9L65.1 123.9Q62.6 123.9 61.2 122.4Q59.7 120.9 59.7 118.2L59.7 118.2L59.7 109.7Q59.7 108.9 60.1 108.4Q60.6 108.0 61.3 108.0L61.3 108.0Q62.0 108.0 62.4 108.4Q62.9 108.9 62.9 109.7L62.9 109.7L62.9 117.6Q62.9 119.4 63.7 120.3Q64.6 121.2 66.2 121.2L66.2 121.2Q67.9 121.2 68.9 120.1Q69.8 119.0 69.8 117.2L69.8 117.2L69.8 109.7Q69.8 108.9 70.3 108.4Q70.7 108.0 71.4 108.0L71.4 108.0Q72.1 108.0 72.6 108.4Q73.0 108.9 73.0 109.7L73.0 109.7L73.0 122.3Q73.0 123.1 72.6 123.5Q72.2 123.9 71.5 123.9Q70.8 123.9 70.4 123.5Q70.0 123.1 70.0 122.3L70.0 122.3L70.0 121.1L69.9 121.1Q68.6 123.9 65.1 123.9ZM77.7 123.9L77.7 123.9Q77.0 123.9 76.6 123.5Q76.1 123.0 76.1 122.3L76.1 122.3L76.1 109.6Q76.1 108.8 76.5 108.4Q76.9 108.0 77.6 108.0Q78.3 108.0 78.7 108.4Q79.2 108.9 79.2 109.6L79.2 109.6L79.2 110.8L79.2 110.8Q80.6 108.0 84.1 108.0L84.1 108.0Q86.6 108.0 88.0 109.5Q89.4 111.0 89.4 113.7L89.4 113.7L89.4 122.3Q89.4 123.0 89.0 123.5Q88.5 123.9 87.8 123.9L87.8 123.9Q87.1 123.9 86.7 123.5Q86.2 123.0 86.2 122.3L86.2 122.3L86.2 114.3Q86.2 112.5 85.4 111.6Q84.6 110.7 82.9 110.7L82.9 110.7Q81.3 110.7 80.3 111.8Q79.3 112.9 79.3 114.7L79.3 114.7L79.3 122.3Q79.3 123.0 78.8 123.5Q78.4 123.9 77.7 123.9ZM98.2 123.9L98.2 123.9Q95.3 123.9 93.5 121.8Q91.8 119.6 91.8 116.0Q91.8 112.3 93.5 110.2Q95.3 108.0 98.2 108.0L98.2 108.0Q99.8 108.0 101.1 108.8Q102.4 109.5 103.0 110.8L103.0 110.8L103.1 110.8L103.1 103.9Q103.1 103.1 103.5 102.7Q104.0 102.2 104.7 102.2L104.7 102.2Q105.4 102.2 105.8 102.7Q106.3 103.2 106.3 103.9L106.3 103.9L106.3 122.4Q106.3 123.1 105.9 123.5Q105.4 123.9 104.7 123.9L104.7 123.9Q104.0 123.9 103.6 123.5Q103.1 123.1 103.1 122.4L103.1 122.4L103.1 120.9L103.1 120.9Q102.4 122.3 101.2 123.1Q100.0 123.9 98.2 123.9ZM99.1 121.2L99.1 121.2Q100.9 121.2 102.0 119.8Q103.1 118.4 103.1 116.0L103.1 116.0Q103.1 113.6 102.0 112.1Q100.9 110.7 99.1 110.7L99.1 110.7Q97.2 110.7 96.1 112.1Q95.0 113.5 95.0 116.0L95.0 116.0Q95.0 118.4 96.1 119.8Q97.2 121.2 99.1 121.2ZM114.0 123.9L114.0 123.9Q111.8 123.9 110.3 122.6Q108.9 121.3 108.9 119.3L108.9 119.3Q108.9 117.3 110.4 116.1Q111.9 114.9 114.6 114.7L114.6 114.7L118.9 114.5L118.9 113.3Q118.9 112.0 118.0 111.3Q117.2 110.6 115.8 110.6L115.8 110.6Q114.6 110.6 113.8 111.0Q113.0 111.5 112.3 112.5L112.3 112.5Q111.9 113.2 111.1 113.2L111.1 113.2Q110.5 113.2 110.1 112.8Q109.7 112.4 109.7 111.9L109.7 111.9Q109.7 111.3 110.0 110.8L110.0 110.8Q110.6 109.5 112.2 108.8Q113.8 108.0 115.9 108.0L115.9 108.0Q118.7 108.0 120.3 109.4Q122.0 110.7 122.0 113.0L122.0 113.0L122.0 122.3Q122.0 123.1 121.6 123.5Q121.2 123.9 120.5 123.9L120.5 123.9Q119.8 123.9 119.4 123.5Q119.0 123.1 119.0 122.4L119.0 122.4L119.0 121.1L118.9 121.1Q118.2 122.4 116.9 123.2Q115.6 123.9 114.0 123.9ZM114.9 121.4L114.9 121.4Q116.6 121.4 117.7 120.4Q118.9 119.4 118.9 117.9L118.9 117.9L118.9 116.7L115.0 116.9Q113.6 117.0 112.9 117.6Q112.1 118.2 112.1 119.2L112.1 119.2Q112.1 120.2 112.9 120.8Q113.6 121.4 114.9 121.4ZM127.0 129.4L127.0 129.4Q125.9 129.4 125.3 129.0Q124.7 128.6 124.7 127.9L124.7 127.9Q124.7 127.4 125.0 127.1Q125.4 126.8 125.9 126.8L125.9 126.8Q126.1 126.8 126.3 126.8Q126.6 126.8 126.7 126.8L126.7 126.8Q128.3 126.8 129.1 124.7L129.1 124.7L129.4 123.8L124.2 110.3Q124.1 109.9 124.1 109.4L124.1 109.4Q124.1 108.8 124.5 108.4Q125.0 108.0 125.7 108.0L125.7 108.0Q126.3 108.0 126.6 108.3Q127.0 108.5 127.2 109.2L127.2 109.2L131.1 120.8L131.2 120.8L135.1 109.2Q135.3 108.5 135.6 108.3Q136.0 108.0 136.6 108.0L136.6 108.0Q137.3 108.0 137.7 108.4Q138.1 108.8 138.1 109.4L138.1 109.4Q138.1 109.8 138.0 110.3L138.0 110.3L132.6 124.4Q131.6 127.2 130.4 128.3Q129.1 129.4 127.0 129.4Z M153.5 124.1L153.5 124.1Q151.1 124.1 149.3 123.0Q147.6 122.0 146.9 120.6L146.9 120.6Q146.5 120.0 146.5 119.5L146.5 119.5Q146.5 118.9 146.9 118.5Q147.3 118.1 147.9 118.1L147.9 118.1Q148.4 118.1 148.8 118.4Q149.2 118.6 149.6 119.2L149.6 119.2Q150.4 120.3 151.3 120.8Q152.2 121.3 153.5 121.3L153.5 121.3Q156.0 121.3 157.4 119.2Q158.7 117.1 158.8 113.2L158.8 113.2L158.8 113.0L158.7 113.0Q158.1 114.5 156.5 115.5Q154.9 116.4 152.9 116.4L152.9 116.4Q149.9 116.4 147.9 114.4Q145.9 112.5 145.9 109.4L145.9 109.4Q145.9 106.3 148.1 104.2Q150.3 102.1 153.6 102.1L153.6 102.1Q156.1 102.1 157.9 103.3Q159.8 104.5 160.8 106.8L160.8 106.8Q161.9 109.3 161.9 112.8L161.9 112.8Q161.9 118.1 159.7 121.1Q157.5 124.1 153.5 124.1ZM153.6 113.7L153.6 113.7Q155.6 113.7 156.9 112.5Q158.1 111.3 158.1 109.4L158.1 109.4Q158.1 107.5 156.9 106.2Q155.6 104.9 153.7 104.9L153.7 104.9Q151.8 104.9 150.5 106.2Q149.1 107.5 149.1 109.3L149.1 109.3Q149.1 111.2 150.4 112.5Q151.7 113.7 153.6 113.7Z M174.1 123.4Q173.7 123.9 172.9 123.9Q172.1 123.9 171.7 123.4Q171.3 123.0 171.3 122.2L171.3 122.2L171.3 104.2Q171.3 103.4 171.7 103.0Q172.1 102.5 172.9 102.5L172.9 102.5L183.1 102.5Q183.8 102.5 184.3 102.9Q184.7 103.3 184.7 103.9Q184.7 104.6 184.3 105.0Q183.8 105.4 183.1 105.4L183.1 105.4L174.5 105.4L174.5 112.0L182.4 112.0Q183.0 112.0 183.4 112.4Q183.8 112.8 183.8 113.4Q183.8 114.1 183.4 114.4Q183.0 114.8 182.4 114.8L182.4 114.8L174.5 114.8L174.5 122.2Q174.5 123.0 174.1 123.4ZM193.6 124.0L193.6 124.0Q190.1 124.0 188.2 121.9Q186.2 119.8 186.2 116.0L186.2 116.0Q186.2 112.4 188.2 110.2Q190.1 108.0 193.4 108.0L193.4 108.0Q196.5 108.0 198.4 110.0Q200.3 112.0 200.3 115.1L200.3 115.1Q200.3 115.9 199.9 116.3Q199.5 116.8 198.7 116.8L198.7 116.8L189.4 116.8L189.4 116.8Q189.4 118.9 190.5 120.2Q191.6 121.4 193.5 121.4L193.5 121.4Q194.8 121.4 195.7 120.9Q196.6 120.4 197.5 119.2L197.5 119.2Q198.0 118.6 198.6 118.6L198.6 118.6Q199.2 118.6 199.6 119.0Q199.9 119.3 199.9 119.9L199.9 119.9Q199.9 120.3 199.7 120.8L199.7 120.8Q199.0 122.3 197.4 123.1Q195.8 124.0 193.6 124.0ZM189.4 114.5L189.4 114.5L197.1 114.5Q197.1 112.7 196.1 111.6Q195.0 110.5 193.4 110.5L193.4 110.5Q191.7 110.5 190.6 111.6Q189.6 112.7 189.4 114.5ZM204.4 123.9L204.4 123.9Q203.7 123.9 203.3 123.5Q202.9 123.1 202.9 122.4L202.9 122.4L202.9 103.9Q202.9 103.2 203.3 102.7Q203.8 102.2 204.5 102.2Q205.2 102.2 205.6 102.7Q206.0 103.2 206.0 103.9L206.0 103.9L206.0 110.9L206.1 110.9Q206.8 109.5 208.1 108.8Q209.4 108.0 211.0 108.0L211.0 108.0Q213.9 108.0 215.7 110.2Q217.4 112.3 217.4 116.0L217.4 116.0Q217.4 119.6 215.7 121.8Q213.9 123.9 211.0 123.9L211.0 123.9Q209.3 123.9 208.0 123.2Q206.7 122.4 206.0 121.0L206.0 121.0L206.0 121.0L206.0 122.4Q206.0 123.1 205.5 123.5Q205.1 123.9 204.4 123.9ZM210.1 121.2L210.1 121.2Q212.0 121.2 213.1 119.8Q214.2 118.4 214.2 116.0L214.2 116.0Q214.2 113.5 213.1 112.1Q212.0 110.7 210.1 110.7L210.1 110.7Q208.3 110.7 207.2 112.1Q206.0 113.6 206.0 116.0L206.0 116.0Q206.0 118.3 207.2 119.8Q208.3 121.2 210.1 121.2ZM221.4 123.9L221.4 123.9Q220.7 123.9 220.3 123.5Q219.9 123.0 219.9 122.3L219.9 122.3L219.9 109.6Q219.9 108.9 220.3 108.4Q220.7 108.0 221.4 108.0L221.4 108.0Q222.0 108.0 222.4 108.4Q222.9 108.9 222.9 109.6L222.9 109.6L222.9 110.9L222.9 110.9Q223.3 109.6 224.2 108.8Q225.1 108.0 226.3 108.0L226.3 108.0Q227.1 108.0 227.6 108.4L227.6 108.4Q228.0 108.7 228.0 109.5L228.0 109.5Q228.0 110.2 227.5 110.6L227.5 110.6Q227.0 111.0 226.1 111.0L226.1 111.0Q224.5 111.0 223.8 112.0Q223.0 112.9 223.0 114.4L223.0 114.4L223.0 122.3Q223.0 123.0 222.6 123.5Q222.1 123.9 221.4 123.9ZM235.0 123.9L235.0 123.9Q232.5 123.9 231.1 122.4Q229.6 120.9 229.6 118.2L229.6 118.2L229.6 109.7Q229.6 108.9 230.1 108.4Q230.5 108.0 231.2 108.0L231.2 108.0Q231.9 108.0 232.3 108.4Q232.8 108.9 232.8 109.7L232.8 109.7L232.8 117.6Q232.8 119.4 233.6 120.3Q234.5 121.2 236.1 121.2L236.1 121.2Q237.8 121.2 238.8 120.1Q239.7 119.0 239.7 117.2L239.7 117.2L239.7 109.7Q239.7 108.9 240.2 108.4Q240.6 108.0 241.3 108.0L241.3 108.0Q242.0 108.0 242.5 108.4Q242.9 108.9 242.9 109.7L242.9 109.7L242.9 122.3Q242.9 123.1 242.5 123.5Q242.1 123.9 241.4 123.9Q240.7 123.9 240.3 123.5Q239.9 123.1 239.9 122.3L239.9 122.3L239.9 121.1L239.8 121.1Q238.5 123.9 235.0 123.9ZM250.5 123.9L250.5 123.9Q248.3 123.9 246.8 122.6Q245.4 121.3 245.4 119.3L245.4 119.3Q245.4 117.3 246.9 116.1Q248.4 114.9 251.1 114.7L251.1 114.7L255.4 114.5L255.4 113.3Q255.4 112.0 254.5 111.3Q253.7 110.6 252.3 110.6L252.3 110.6Q251.1 110.6 250.3 111.0Q249.5 111.5 248.9 112.5L248.9 112.5Q248.4 113.2 247.6 113.2L247.6 113.2Q247.0 113.2 246.6 112.8Q246.2 112.4 246.2 111.9L246.2 111.9Q246.2 111.3 246.5 110.8L246.5 110.8Q247.1 109.5 248.7 108.8Q250.3 108.0 252.4 108.0L252.4 108.0Q255.2 108.0 256.8 109.4Q258.5 110.7 258.5 113.0L258.5 113.0L258.5 122.3Q258.5 123.1 258.1 123.5Q257.7 123.9 257.0 123.9L257.0 123.9Q256.3 123.9 255.9 123.5Q255.5 123.1 255.5 122.4L255.5 122.4L255.5 121.1L255.4 121.1Q254.7 122.4 253.4 123.2Q252.1 123.9 250.5 123.9ZM251.4 121.4L251.4 121.4Q253.1 121.4 254.2 120.4Q255.4 119.4 255.4 117.9L255.4 117.9L255.4 116.7L251.6 116.9Q250.1 117.0 249.4 117.6Q248.6 118.2 248.6 119.2L248.6 119.2Q248.6 120.2 249.4 120.8Q250.1 121.4 251.4 121.4ZM263.2 123.9L263.2 123.9Q262.4 123.9 262.0 123.5Q261.6 123.0 261.6 122.3L261.6 122.3L261.6 109.6Q261.6 108.9 262.0 108.4Q262.4 108.0 263.1 108.0L263.1 108.0Q263.7 108.0 264.2 108.4Q264.6 108.9 264.6 109.6L264.6 109.6L264.6 110.9L264.6 110.9Q265.0 109.6 265.9 108.8Q266.9 108.0 268.0 108.0L268.0 108.0Q268.9 108.0 269.3 108.4L269.3 108.4Q269.7 108.7 269.7 109.5L269.7 109.5Q269.7 110.2 269.2 110.6L269.2 110.6Q268.8 111.0 267.8 111.0L267.8 111.0Q266.2 111.0 265.5 112.0Q264.7 112.9 264.7 114.4L264.7 114.4L264.7 122.3Q264.7 123.0 264.3 123.5Q263.9 123.9 263.2 123.9ZM273.3 129.4L273.3 129.4Q272.2 129.4 271.6 129.0Q271.0 128.6 271.0 127.9L271.0 127.9Q271.0 127.4 271.4 127.1Q271.7 126.8 272.3 126.8L272.3 126.8Q272.4 126.8 272.7 126.8Q272.9 126.8 273.1 126.8L273.1 126.8Q274.7 126.8 275.4 124.7L275.4 124.7L275.7 123.8L270.6 110.3Q270.4 109.9 270.4 109.4L270.4 109.4Q270.4 108.8 270.9 108.4Q271.3 108.0 272.0 108.0L272.0 108.0Q272.6 108.0 273.0 108.3Q273.3 108.5 273.5 109.2L273.5 109.2L277.5 120.8L277.5 120.8L281.5 109.2Q281.6 108.5 282.0 108.3Q282.4 108.0 283.0 108.0L283.0 108.0Q283.6 108.0 284.1 108.4Q284.5 108.8 284.5 109.4L284.5 109.4Q284.5 109.8 284.3 110.3L284.3 110.3L279.0 124.4Q278.0 127.2 276.7 128.3Q275.5 129.4 273.3 129.4Z M305.9 123.7L294.3 123.7Q293.5 123.7 293.1 123.3Q292.7 122.9 292.7 122.3L292.7 122.3Q292.7 121.8 292.9 121.5Q293.1 121.1 293.6 120.6L293.6 120.6L300.2 113.9Q302.3 111.8 303.0 110.7Q303.6 109.6 303.6 108.3L303.6 108.3Q303.6 106.8 302.6 105.8Q301.6 104.8 300.0 104.8L300.0 104.8Q296.8 104.8 295.7 108.0L295.7 108.0Q295.5 108.5 295.1 108.8Q294.8 109.0 294.2 109.0L294.2 109.0Q293.6 109.0 293.2 108.6Q292.8 108.3 292.8 107.6L292.8 107.6Q292.8 107.3 292.9 107.0L292.9 107.0Q293.1 106.1 293.6 105.3Q294.2 104.4 295.0 103.7Q295.9 103.0 297.2 102.6Q298.5 102.1 300.0 102.1L300.0 102.1Q303.0 102.1 304.9 103.8Q306.9 105.5 306.9 108.1L306.9 108.1Q306.9 109.9 305.9 111.5Q304.9 113.0 302.2 115.8L302.2 115.8L297.2 120.8L297.2 120.9L305.9 120.9Q306.6 120.9 307.0 121.3Q307.4 121.7 307.4 122.3L307.4 122.3Q307.4 122.9 307.0 123.3Q306.6 123.7 305.9 123.7L305.9 123.7ZM323.8 121.1Q321.7 124.1 317.9 124.1Q314.1 124.1 311.9 121.1Q309.8 118.2 309.8 113.1L309.8 113.1Q309.8 108.0 311.9 105.1Q314.1 102.1 317.9 102.1L317.9 102.1Q321.6 102.1 323.8 105.1Q325.9 108.0 325.9 113.1L325.9 113.1Q325.9 118.1 323.8 121.1ZM317.9 121.3L317.9 121.3Q320.1 121.3 321.4 119.1Q322.6 116.9 322.6 113.1L322.6 113.1Q322.6 109.3 321.4 107.1Q320.1 104.9 317.9 104.9Q315.6 104.9 314.4 107.1Q313.1 109.3 313.1 113.1L313.1 113.1Q313.1 116.9 314.3 119.1Q315.6 121.3 317.9 121.3ZM342.0 123.7L330.3 123.7Q329.6 123.7 329.2 123.3Q328.8 122.9 328.8 122.3L328.8 122.3Q328.8 121.8 329.0 121.5Q329.2 121.1 329.7 120.6L329.7 120.6L336.3 113.9Q338.4 111.8 339.1 110.7Q339.7 109.6 339.7 108.3L339.7 108.3Q339.7 106.8 338.7 105.8Q337.7 104.8 336.1 104.8L336.1 104.8Q332.9 104.8 331.8 108.0L331.8 108.0Q331.6 108.5 331.2 108.8Q330.9 109.0 330.3 109.0L330.3 109.0Q329.7 109.0 329.3 108.6Q328.9 108.3 328.9 107.6L328.9 107.6Q328.9 107.3 329.0 107.0L329.0 107.0Q329.1 106.1 329.7 105.3Q330.2 104.4 331.1 103.7Q332.0 103.0 333.3 102.6Q334.6 102.1 336.1 102.1L336.1 102.1Q339.1 102.1 341.0 103.8Q343.0 105.5 343.0 108.1L343.0 108.1Q343.0 109.9 342.0 111.5Q341.0 113.0 338.3 115.8L338.3 115.8L333.2 120.8L333.2 120.9L342.0 120.9Q342.7 120.9 343.1 121.3Q343.5 121.7 343.5 122.3L343.5 122.3Q343.5 122.9 343.1 123.3Q342.7 123.7 342.0 123.7L342.0 123.7ZM353.8 124.1L353.8 124.1Q351.4 124.1 349.5 123.0Q347.6 121.9 346.9 120.2L346.9 120.2Q346.5 119.5 346.5 118.8L346.5 118.8Q346.5 118.1 346.9 117.7Q347.3 117.3 348.0 117.3L348.0 117.3Q348.5 117.3 348.9 117.6Q349.2 117.8 349.5 118.4L349.5 118.4Q350.0 119.8 351.1 120.5Q352.2 121.3 353.8 121.3L353.8 121.3Q355.8 121.3 357.1 120.0Q358.3 118.8 358.3 116.8L358.3 116.8Q358.3 114.8 357.1 113.6Q355.8 112.4 353.8 112.4L353.8 112.4Q351.7 112.4 350.4 113.7L350.4 113.7Q349.7 114.5 349.3 114.6Q349.0 114.8 348.4 114.8L348.4 114.8Q347.6 114.8 347.2 114.4Q346.8 113.9 346.8 113.2L346.8 113.2L346.8 112.9L347.5 104.8Q347.6 103.6 348.2 103.0Q348.8 102.5 350.0 102.5L350.0 102.5L359.0 102.5Q359.7 102.5 360.1 102.9Q360.5 103.3 360.5 103.9Q360.5 104.5 360.1 104.9Q359.7 105.3 359.0 105.3L359.0 105.3L350.4 105.3L349.8 111.9L349.8 111.9Q350.5 110.9 351.8 110.3Q353.0 109.8 354.6 109.8L354.6 109.8Q357.7 109.8 359.6 111.7Q361.5 113.6 361.5 116.7L361.5 116.7Q361.5 120.0 359.4 122.0Q357.2 124.1 353.8 124.1Z "/><mask id="satori_om-id-0-0-1"><rect x="40" y="176" width="1120" height="165" fill="#fff"/></mask><path fill="#224d67" d="M47.5 239.1L47.5 239.1Q45.7 239.1 44.7 238.0Q43.7 237.0 43.7 235.2L43.7 235.2L43.7 199.7Q43.7 197.9 44.7 196.8Q45.7 195.8 47.5 195.8L47.5 195.8Q49.3 195.8 50.3 196.8Q51.3 197.9 51.3 199.7L51.3 199.7L51.3 213.9L71.8 213.9L71.8 199.7Q71.8 197.9 72.8 196.8Q73.8 195.8 75.6 195.8L75.6 195.8Q77.4 195.8 78.4 196.8Q79.4 197.9 79.4 199.7L79.4 199.7L79.4 235.2Q79.4 237.0 78.4 238.1Q77.4 239.1 75.6 239.1L75.6 239.1Q73.8 239.1 72.8 238.1Q71.8 237.0 71.8 235.2L71.8 235.2L71.8 220.2L51.3 220.2L51.3 235.2Q51.3 237.0 50.3 238.1Q49.3 239.1 47.5 239.1ZM110.8 234.9Q106.7 239.2 99.8 239.2Q92.9 239.2 88.9 234.9Q84.8 230.6 84.8 223.1L84.8 223.1Q84.8 215.6 88.9 211.2Q93.0 206.9 99.8 206.9L99.8 206.9Q106.7 206.9 110.8 211.2Q114.9 215.6 114.9 223.1L114.9 223.1Q114.9 230.6 110.8 234.9ZM94.3 230.7Q96.3 233.4 99.8 233.4Q103.3 233.4 105.4 230.7Q107.4 228.0 107.4 223.1L107.4 223.1Q107.4 218.2 105.4 215.4Q103.3 212.7 99.8 212.7L99.8 212.7Q96.3 212.7 94.3 215.4Q92.2 218.2 92.2 223.1L92.2 223.1Q92.2 228.0 94.3 230.7ZM129.4 239.2L129.4 239.2Q127.5 239.2 126.4 238.3Q125.4 237.4 124.8 235.4L124.8 235.4L118.0 212.2Q117.7 210.9 117.7 210.0L117.7 210.0Q117.7 208.7 118.7 207.8Q119.7 206.9 121.2 206.9L121.2 206.9Q123.9 206.9 124.6 210.0L124.6 210.0L129.8 231.4L129.9 231.4L135.3 210.2Q136.1 206.9 139.5 206.9L139.5 206.9Q142.8 206.9 143.6 210.2L143.6 210.2L149.0 231.4L149.2 231.4L154.4 210.0Q155.0 206.9 157.7 206.9L157.7 206.9Q159.3 206.9 160.2 207.8Q161.2 208.6 161.2 210.0L161.2 210.0Q161.2 210.9 160.8 212.2L160.8 212.2L154.1 235.4Q153.6 237.3 152.4 238.3Q151.3 239.2 149.5 239.2L149.5 239.2Q147.5 239.2 146.4 238.3Q145.3 237.4 144.8 235.4L144.8 235.4L139.5 215.9L139.3 215.9L134.0 235.4Q133.1 239.2 129.4 239.2Z M179.3 230.9L179.3 230.9L179.3 213.1L177.4 213.1Q176.0 213.1 175.2 212.4Q174.4 211.6 174.4 210.3L174.4 210.3Q174.4 209.0 175.2 208.3Q176.0 207.5 177.4 207.5L177.4 207.5L179.3 207.5L179.3 203.4Q179.3 201.6 180.3 200.6Q181.3 199.6 183.0 199.6L183.0 199.6Q184.7 199.6 185.6 200.6Q186.6 201.6 186.6 203.4L186.6 203.4L186.6 207.5L190 207.5Q191.4 207.5 192.2 208.3Q192.9 209.0 192.9 210.3L192.9 210.3Q192.9 211.6 192.1 212.4Q191.3 213.1 190 213.1L190 213.1L186.6 213.1L186.6 229.3Q186.6 231.1 187.3 231.9Q188.0 232.7 189.6 232.9L189.6 232.9L190.1 232.9Q193.0 233.2 193.0 235.6L193.0 235.6Q193.0 237.2 191.7 238.1Q190.3 238.9 187.8 238.9L187.8 238.9L187.5 238.9Q179.3 238.9 179.3 230.9ZM222.1 234.9Q218.1 239.2 211.2 239.2Q204.3 239.2 200.2 234.9Q196.2 230.6 196.2 223.1L196.2 223.1Q196.2 215.6 200.3 211.2Q204.4 206.9 211.2 206.9L211.2 206.9Q218.0 206.9 222.1 211.2Q226.2 215.6 226.2 223.1L226.2 223.1Q226.2 230.6 222.1 234.9ZM205.6 230.7Q207.7 233.4 211.2 233.4Q214.7 233.4 216.7 230.7Q218.8 228.0 218.8 223.1L218.8 223.1Q218.8 218.2 216.7 215.4Q214.7 212.7 211.2 212.7L211.2 212.7Q207.7 212.7 205.6 215.4Q203.6 218.2 203.6 223.1L203.6 223.1Q203.6 228.0 205.6 230.7Z M262.0 239.3L262.0 239.3Q252.8 239.3 247.5 233.4Q242.2 227.6 242.2 217.4L242.2 217.4Q242.2 207.3 247.5 201.5Q252.8 195.6 261.8 195.6L261.8 195.6Q267.7 195.6 272.1 198.2Q276.5 200.8 278.6 205.4L278.6 205.4Q279.3 206.9 279.3 208.3L279.3 208.3Q279.3 209.8 278.4 210.7Q277.5 211.6 276.0 211.6L276.0 211.6Q273.4 211.6 272.3 208.9L272.3 208.9Q270.8 205.6 268.1 203.8Q265.4 202.0 261.9 202.0L261.9 202.0Q256.4 202.0 253.2 206.2Q249.9 210.4 249.9 217.4L249.9 217.4Q249.9 224.5 253.2 228.7Q256.4 232.9 261.9 232.9L261.9 232.9Q269.5 232.9 272.4 226.3L272.4 226.3Q273.0 225.0 273.7 224.4Q274.5 223.9 275.8 223.9L275.8 223.9Q277.3 223.9 278.3 224.8Q279.3 225.7 279.3 227.2L279.3 227.2Q279.3 228.6 278.6 230.1L278.6 230.1Q276.5 234.4 272.2 236.8Q267.8 239.3 262.0 239.3ZM291.4 238.1Q290.4 239.2 288.7 239.2Q287.0 239.2 286.0 238.1Q285.1 237.1 285.1 235.3L285.1 235.3L285.1 210.6Q285.1 208.9 286.0 207.9Q287.0 206.9 288.6 206.9L288.6 206.9Q290.1 206.9 291.0 207.9Q292.0 208.9 292.0 210.6L292.0 210.6L292.0 213.0L292.2 213.0Q292.8 210.3 294.6 208.6Q296.5 207.0 298.8 207.0L298.8 207.0Q300.5 207.0 301.4 207.8L301.4 207.8Q302.4 208.6 302.4 210.4L302.4 210.4Q302.4 212.1 301.3 213.0L301.3 213.0Q300.3 213.9 298.1 214.0L298.1 214.0Q292.4 214.0 292.4 220.4L292.4 220.4L292.4 235.3Q292.4 237.1 291.4 238.1ZM319.5 239.2L319.5 239.2Q312.4 239.2 308.4 235.0Q304.4 230.7 304.4 223.2L304.4 223.2Q304.4 215.7 308.4 211.3Q312.4 206.9 319.1 206.9L319.1 206.9Q325.4 206.9 329.4 210.9Q333.4 215.0 333.4 221.4L333.4 221.4Q333.4 223.0 332.5 223.9Q331.6 224.8 330.0 224.8L330.0 224.8L311.7 224.8L311.7 225.0Q311.7 228.9 313.8 231.3Q315.9 233.6 319.4 233.6L319.4 233.6Q321.9 233.6 323.7 232.6Q325.4 231.7 327.2 229.4L327.2 229.4Q328.3 228.3 329.7 228.3L329.7 228.3Q330.9 228.3 331.8 229.0Q332.6 229.8 332.6 231.1L332.6 231.1Q332.6 231.9 332.1 232.9L332.1 232.9Q330.5 235.9 327.2 237.5Q323.9 239.2 319.5 239.2ZM311.7 220.0L311.7 220.0L326.2 220.0Q326.1 216.6 324.2 214.6Q322.2 212.5 319.1 212.5Q316.0 212.5 314.0 214.6Q311.9 216.7 311.7 220.0ZM347.2 239.1L347.2 239.1Q342.6 239.1 339.7 236.5Q336.8 233.9 336.8 229.7L336.8 229.7Q336.8 225.6 339.9 223.2Q342.9 220.8 348.6 220.4L348.6 220.4L356.8 219.9L356.8 217.7Q356.8 215.3 355.3 213.9Q353.8 212.6 351.0 212.6L351.0 212.6Q348.9 212.6 347.4 213.4Q345.9 214.2 344.5 216.2L344.5 216.2Q343.4 217.7 341.6 217.7L341.6 217.7Q340.2 217.7 339.4 216.9Q338.5 216.1 338.5 214.8L338.5 214.8Q338.5 213.8 339.0 212.8L339.0 212.8Q340.2 210.1 343.5 208.5Q346.9 206.9 351.3 206.9L351.3 206.9Q357.1 206.9 360.6 209.7Q364.1 212.5 364.1 217.2L364.1 217.2L364.1 235.5Q364.1 237.2 363.1 238.2Q362.1 239.2 360.5 239.2L360.5 239.2Q359.0 239.2 358.0 238.3Q357.1 237.4 357.0 235.8L357.0 235.8L357.0 233.6L356.9 233.6Q355.6 236.1 352.9 237.6Q350.2 239.1 347.2 239.1ZM349.4 233.6L349.4 233.6Q352.5 233.6 354.7 231.7Q356.8 229.8 356.8 227.1L356.8 227.1L356.8 224.7L349.6 225.1Q347.0 225.3 345.6 226.4Q344.1 227.6 344.1 229.4L344.1 229.4Q344.1 231.3 345.6 232.4Q347.0 233.6 349.4 233.6ZM371.9 230.9L371.9 230.9L371.9 213.1L370.0 213.1Q368.6 213.1 367.8 212.4Q367.0 211.6 367.0 210.3L367.0 210.3Q367.0 209.0 367.8 208.3Q368.6 207.5 370.0 207.5L370.0 207.5L371.9 207.5L371.9 203.4Q371.9 201.6 372.9 200.6Q373.9 199.6 375.6 199.6L375.6 199.6Q377.3 199.6 378.2 200.6Q379.2 201.6 379.2 203.4L379.2 203.4L379.2 207.5L382.6 207.5Q384.0 207.5 384.8 208.3Q385.5 209.0 385.5 210.3L385.5 210.3Q385.5 211.6 384.7 212.4Q383.9 213.1 382.6 213.1L382.6 213.1L379.2 213.1L379.2 229.3Q379.2 231.1 379.9 231.9Q380.6 232.7 382.2 232.9L382.2 232.9L382.7 232.9Q385.6 233.2 385.6 235.6L385.6 235.6Q385.6 237.2 384.3 238.1Q382.9 238.9 380.4 238.9L380.4 238.9L380.1 238.9Q371.9 238.9 371.9 230.9ZM403.8 239.2L403.8 239.2Q396.7 239.2 392.7 235.0Q388.8 230.7 388.8 223.2L388.8 223.2Q388.8 215.7 392.7 211.3Q396.7 206.9 403.4 206.9L403.4 206.9Q409.8 206.9 413.8 210.9Q417.7 215.0 417.7 221.4L417.7 221.4Q417.7 223.0 416.8 223.9Q415.9 224.8 414.3 224.8L414.3 224.8L396.0 224.8L396.0 225.0Q396.0 228.9 398.1 231.3Q400.2 233.6 403.8 233.6L403.8 233.6Q406.2 233.6 408.0 232.6Q409.8 231.7 411.5 229.4L411.5 229.4Q412.6 228.3 414.0 228.3L414.0 228.3Q415.3 228.3 416.1 229.0Q416.9 229.8 416.9 231.1L416.9 231.1Q416.9 231.9 416.4 232.9L416.4 232.9Q414.9 235.9 411.6 237.5Q408.3 239.2 403.8 239.2ZM396.1 220.0L396.1 220.0L410.6 220.0Q410.5 216.6 408.5 214.6Q406.5 212.5 403.5 212.5Q400.4 212.5 398.3 214.6Q396.3 216.7 396.1 220.0Z M443.5 239.1L443.5 239.1Q439.0 239.1 436.1 236.5Q433.2 233.9 433.2 229.7L433.2 229.7Q433.2 225.6 436.2 223.2Q439.3 220.8 445.0 220.4L445.0 220.4L453.2 219.9L453.2 217.7Q453.2 215.3 451.7 213.9Q450.1 212.6 447.4 212.6L447.4 212.6Q445.2 212.6 443.7 213.4Q442.2 214.2 440.9 216.2L440.9 216.2Q439.8 217.7 437.9 217.7L437.9 217.7Q436.6 217.7 435.7 216.9Q434.9 216.1 434.9 214.8L434.9 214.8Q434.9 213.8 435.4 212.8L435.4 212.8Q436.5 210.1 439.9 208.5Q443.2 206.9 447.7 206.9L447.7 206.9Q453.5 206.9 456.9 209.7Q460.4 212.5 460.4 217.2L460.4 217.2L460.4 235.5Q460.4 237.2 459.4 238.2Q458.4 239.2 456.9 239.2L456.9 239.2Q455.3 239.2 454.4 238.3Q453.5 237.4 453.4 235.8L453.4 235.8L453.4 233.6L453.2 233.6Q451.9 236.1 449.2 237.6Q446.6 239.1 443.5 239.1ZM445.8 233.6L445.8 233.6Q448.9 233.6 451.0 231.7Q453.2 229.8 453.2 227.1L453.2 227.1L453.2 224.7L446.0 225.1Q443.4 225.3 441.9 226.4Q440.5 227.6 440.5 229.4L440.5 229.4Q440.5 231.3 441.9 232.4Q443.4 233.6 445.8 233.6Z M482.8 239.1L482.8 239.1Q481.0 239.1 480.0 238.0Q479.0 237.0 479.0 235.2L479.0 235.2L479.0 200.2Q479.0 198.4 480.0 197.3Q481.0 196.3 482.8 196.3L482.8 196.3L503.0 196.3Q504.6 196.3 505.5 197.2Q506.5 198.0 506.5 199.5Q506.5 201.0 505.5 201.8Q504.6 202.7 503.0 202.7L503.0 202.7L486.6 202.7L486.6 215.2L501.5 215.2Q503.0 215.2 503.9 216.0Q504.8 216.8 504.8 218.2Q504.8 219.7 503.9 220.5Q503.0 221.3 501.5 221.3L501.5 221.3L486.6 221.3L486.6 235.2Q486.6 237.0 485.6 238.1Q484.6 239.1 482.8 239.1ZM535.4 234.9Q531.3 239.2 524.5 239.2Q517.6 239.2 513.5 234.9Q509.4 230.6 509.4 223.1L509.4 223.1Q509.4 215.6 513.5 211.2Q517.6 206.9 524.5 206.9L524.5 206.9Q531.3 206.9 535.4 211.2Q539.5 215.6 539.5 223.1L539.5 223.1Q539.5 230.6 535.4 234.9ZM518.9 230.7Q520.9 233.4 524.5 233.4Q528.0 233.4 530.0 230.7Q532.1 228.0 532.1 223.1L532.1 223.1Q532.1 218.2 530.0 215.4Q528.0 212.7 524.5 212.7L524.5 212.7Q521.0 212.7 518.9 215.4Q516.8 218.2 516.8 223.1L516.8 223.1Q516.8 228.0 518.9 230.7ZM550.5 238.2Q549.4 239.2 547.8 239.2Q546.2 239.2 545.2 238.2Q544.2 237.1 544.2 235.3L544.2 235.3L544.2 210.6Q544.2 208.9 545.1 207.9Q546.0 206.9 547.7 206.9Q549.3 206.9 550.3 207.9Q551.3 208.9 551.3 210.6L551.3 210.6L551.3 212.8L551.4 212.8Q554.0 206.9 561.1 206.9L561.1 206.9Q566.2 206.9 569.0 210.0Q571.8 213.1 571.8 218.5L571.8 218.5L571.8 235.3Q571.8 237.1 570.8 238.2Q569.8 239.2 568.2 239.2Q566.6 239.2 565.5 238.2Q564.5 237.1 564.5 235.3L564.5 235.3L564.5 220.0Q564.5 216.6 563.0 214.9Q561.4 213.1 558.3 213.1L558.3 213.1Q555.2 213.1 553.3 215.2Q551.5 217.2 551.5 220.6L551.5 220.6L551.5 235.3Q551.5 237.1 550.5 238.2ZM579.7 230.9L579.7 230.9L579.7 213.1L577.7 213.1Q576.4 213.1 575.6 212.4Q574.8 211.6 574.8 210.3L574.8 210.3Q574.8 209.0 575.6 208.3Q576.3 207.5 577.7 207.5L577.7 207.5L579.7 207.5L579.7 203.4Q579.7 201.6 580.7 200.6Q581.6 199.6 583.3 199.6L583.3 199.6Q585.0 199.6 586.0 200.6Q587.0 201.6 587.0 203.4L587.0 203.4L587.0 207.5L590.3 207.5Q591.7 207.5 592.5 208.3Q593.3 209.0 593.3 210.3L593.3 210.3Q593.3 211.6 592.5 212.4Q591.7 213.1 590.3 213.1L590.3 213.1L587.0 213.1L587.0 229.3Q587.0 231.1 587.6 231.9Q588.3 232.7 589.9 232.9L589.9 232.9L590.4 232.9Q593.4 233.2 593.4 235.6L593.4 235.6Q593.4 237.2 592.0 238.1Q590.7 238.9 588.1 238.9L588.1 238.9L587.9 238.9Q579.7 238.9 579.7 230.9Z M625.4 239.3L625.4 239.3Q619.3 239.3 615.1 237.0Q611.0 234.7 609.7 231.0L609.7 231.0Q609.3 229.9 609.3 228.8L609.3 228.8Q609.3 227.2 610.2 226.3Q611.1 225.3 612.6 225.3L612.6 225.3Q613.9 225.3 614.7 225.9Q615.6 226.4 616.2 227.7L616.2 227.7Q617.1 230.4 619.6 231.7Q622.1 233.0 625.6 233.0L625.6 233.0Q629.5 233.0 631.9 231.3Q634.3 229.6 634.3 227.0L634.3 227.0Q634.3 224.7 632.5 223.2Q630.8 221.8 626.7 220.9L626.7 220.9L622.2 220.0Q609.7 217.4 609.7 208.1L609.7 208.1Q609.7 202.5 614.1 199.1Q618.5 195.6 625.4 195.6L625.4 195.6Q631.1 195.6 635.1 198.0Q639.2 200.4 640.4 204.5L640.4 204.5Q640.7 205.2 640.7 206.3L640.7 206.3Q640.7 207.6 639.8 208.5Q638.9 209.4 637.4 209.4L637.4 209.4Q635.0 209.4 633.8 207.0L633.8 207.0Q631.7 201.9 625.4 201.9L625.4 201.9Q621.8 201.9 619.6 203.4Q617.4 205.0 617.4 207.6L617.4 207.6Q617.4 209.8 619.1 211.2Q620.8 212.7 624.7 213.5L624.7 213.5L629.3 214.4Q635.9 215.8 638.9 218.6Q641.9 221.4 641.9 226.1L641.9 226.1Q641.9 232.2 637.5 235.7Q633.0 239.3 625.4 239.3ZM657.7 239.1L657.7 239.1Q652.7 239.1 649.7 236.0Q646.7 233.0 646.7 227.6L646.7 227.6L646.7 210.7Q646.7 209.0 647.7 207.9Q648.7 206.9 650.3 206.9Q652.0 206.9 653.0 207.9Q654.0 209.0 654.0 210.8L654.0 210.8L654.0 226.1Q654.0 229.5 655.6 231.2Q657.2 233.0 660.3 233.0L660.3 233.0Q663.4 233.0 665.3 230.9Q667.1 228.9 667.1 225.5L667.1 225.5L667.1 210.7Q667.1 209.0 668.1 207.9Q669.1 206.9 670.8 206.9L670.8 206.9Q672.4 206.9 673.4 207.9Q674.4 209.0 674.4 210.8L674.4 210.8L674.4 235.5Q674.4 237.2 673.4 238.2Q672.5 239.2 670.9 239.2L670.9 239.2Q669.3 239.2 668.3 238.2Q667.4 237.2 667.4 235.5L667.4 235.5L667.4 233.2L667.2 233.2Q664.6 239.1 657.7 239.1ZM686.7 238.2Q685.7 239.2 684.1 239.2Q682.5 239.2 681.5 238.2Q680.5 237.3 680.5 235.5L680.5 235.5L680.5 199.6Q680.5 197.7 681.6 196.7Q682.6 195.7 684.2 195.7Q685.8 195.7 686.8 196.7Q687.8 197.7 687.8 199.6L687.8 199.6L687.8 212.9L688.0 212.9Q689.4 210.1 691.9 208.5Q694.5 207.0 697.7 207.0L697.7 207.0Q703.6 207.0 707.1 211.3Q710.5 215.6 710.5 223.1L710.5 223.1Q710.5 230.5 707.1 234.8Q703.6 239.1 697.7 239.1L697.7 239.1Q694.3 239.1 691.8 237.6Q689.2 236.0 687.8 233.3L687.8 233.3L687.7 233.3L687.7 235.5Q687.7 237.2 686.7 238.2ZM695.5 233.1L695.5 233.1Q699.0 233.1 701.0 230.4Q703.1 227.7 703.1 223.1Q703.1 218.4 701.0 215.7Q699.0 213.0 695.5 213.0L695.5 213.0Q692.1 213.0 690.0 215.8Q687.8 218.5 687.8 223.1L687.8 223.1Q687.8 227.6 690.0 230.3Q692.1 233.1 695.5 233.1ZM727.2 239.2L727.2 239.2Q722.4 239.2 719.0 237.5Q715.7 235.8 714.6 233.0L714.6 233.0Q714.3 232.2 714.3 231.5L714.3 231.5Q714.3 230.2 715.1 229.4Q716.0 228.6 717.3 228.6L717.3 228.6Q719.1 228.6 720.5 230.4L720.5 230.4Q721.7 232.3 723.3 233.1Q724.9 233.9 727.5 233.9L727.5 233.9Q730.1 233.9 731.6 232.9Q733.1 231.8 733.1 230.1L733.1 230.1Q733.1 228.7 732.1 227.8Q731.1 227.0 728.8 226.4L728.8 226.4L723.7 225.3Q714.7 223.3 714.7 216.4L714.7 216.4Q714.7 212.1 718.1 209.5Q721.6 206.9 727.3 206.9L727.3 206.9Q731.7 206.9 735.0 208.8Q738.2 210.6 738.9 213.4L738.9 213.4Q739.1 214.0 739.1 214.5L739.1 214.5Q739.1 215.6 738.3 216.4Q737.6 217.1 736.2 217.1L736.2 217.1Q734.4 217.1 733.5 215.7L733.5 215.7Q732.3 214.0 730.8 213.1Q729.4 212.2 727.2 212.2L727.2 212.2Q724.8 212.2 723.3 213.3Q721.8 214.3 721.8 216.0L721.8 216.0Q721.8 218.8 726.3 219.8L726.3 219.8L731.3 220.9Q736.2 222.0 738.3 223.9Q740.5 225.9 740.5 229.3L740.5 229.3Q740.5 233.8 736.8 236.5Q733.2 239.2 727.2 239.2ZM758.9 239.2L758.9 239.2Q751.7 239.2 747.8 235.0Q743.8 230.7 743.8 223.2L743.8 223.2Q743.8 215.7 747.8 211.3Q751.7 206.9 758.4 206.9L758.4 206.9Q764.8 206.9 768.8 210.9Q772.7 215.0 772.7 221.4L772.7 221.4Q772.7 223.0 771.9 223.9Q771.0 224.8 769.3 224.8L769.3 224.8L751.0 224.8L751.0 225.0Q751.0 228.9 753.1 231.3Q755.3 233.6 758.8 233.6L758.8 233.6Q761.3 233.6 763.0 232.6Q764.8 231.7 766.6 229.4L766.6 229.4Q767.6 228.3 769.0 228.3L769.0 228.3Q770.3 228.3 771.1 229.0Q772.0 229.8 772.0 231.1L772.0 231.1Q772.0 231.9 771.5 232.9L771.5 232.9Q769.9 235.9 766.6 237.5Q763.3 239.2 758.9 239.2ZM751.1 220.0L751.1 220.0L765.6 220.0Q765.5 216.6 763.5 214.6Q761.6 212.5 758.5 212.5Q755.4 212.5 753.3 214.6Q751.3 216.7 751.1 220.0ZM779.5 230.9L779.5 230.9L779.5 213.1L777.5 213.1Q776.1 213.1 775.4 212.4Q774.6 211.6 774.6 210.3L774.6 210.3Q774.6 209.0 775.3 208.3Q776.1 207.5 777.5 207.5L777.5 207.5L779.5 207.5L779.5 203.4Q779.5 201.6 780.4 200.6Q781.4 199.6 783.1 199.6L783.1 199.6Q784.8 199.6 785.8 200.6Q786.7 201.6 786.7 203.4L786.7 203.4L786.7 207.5L790.1 207.5Q791.5 207.5 792.3 208.3Q793.0 209.0 793.0 210.3L793.0 210.3Q793.0 211.6 792.3 212.4Q791.5 213.1 790.1 213.1L790.1 213.1L786.7 213.1L786.7 229.3Q786.7 231.1 787.4 231.9Q788.1 232.7 789.7 232.9L789.7 232.9L790.2 232.9Q793.1 233.2 793.1 235.6L793.1 235.6Q793.1 237.2 791.8 238.1Q790.4 238.9 787.9 238.9L787.9 238.9L787.6 238.9Q779.5 238.9 779.5 230.9Z M819.4 239.2L819.4 239.2Q817.5 239.2 816.5 238.3Q815.4 237.4 814.8 235.4L814.8 235.4L808.1 212.2Q807.7 210.9 807.7 210.0L807.7 210.0Q807.7 208.7 808.7 207.8Q809.7 206.9 811.2 206.9L811.2 206.9Q814.0 206.9 814.6 210.0L814.6 210.0L819.8 231.4L819.9 231.4L825.4 210.2Q826.1 206.9 829.5 206.9L829.5 206.9Q832.9 206.9 833.6 210.2L833.6 210.2L839.1 231.4L839.2 231.4L844.4 210.0Q845.1 206.9 847.7 206.9L847.7 206.9Q849.3 206.9 850.3 207.8Q851.2 208.6 851.2 210.0L851.2 210.0Q851.2 210.9 850.8 212.2L850.8 212.2L844.1 235.4Q843.6 237.3 842.5 238.3Q841.4 239.2 839.5 239.2L839.5 239.2Q837.5 239.2 836.4 238.3Q835.3 237.4 834.8 235.4L834.8 235.4L829.5 215.9L829.3 215.9L824.0 235.4Q823.1 239.2 819.4 239.2ZM862.0 202.0Q860.8 203.2 859.1 203.2Q857.4 203.2 856.3 202.0Q855.1 200.8 855.1 199.2L855.1 199.2Q855.1 197.5 856.3 196.4Q857.4 195.2 859.1 195.2L859.1 195.2Q860.9 195.2 862.0 196.4Q863.2 197.5 863.2 199.2L863.2 199.2Q863.2 200.8 862.0 202.0ZM861.8 238.1Q860.8 239.2 859.1 239.2Q857.5 239.2 856.5 238.1Q855.5 237.1 855.5 235.3L855.5 235.3L855.5 210.7Q855.5 209.0 856.5 207.9Q857.5 206.9 859.1 206.9Q860.8 206.9 861.8 207.9Q862.8 209.0 862.8 210.8L862.8 210.8L862.8 235.3Q862.8 237.1 861.8 238.1ZM870.9 230.9L870.9 230.9L870.9 213.1L869.0 213.1Q867.6 213.1 866.8 212.4Q866.1 211.6 866.1 210.3L866.1 210.3Q866.1 209.0 866.8 208.3Q867.6 207.5 869.0 207.5L869.0 207.5L870.9 207.5L870.9 203.4Q870.9 201.6 871.9 200.6Q872.9 199.6 874.6 199.6L874.6 199.6Q876.3 199.6 877.3 200.6Q878.2 201.6 878.2 203.4L878.2 203.4L878.2 207.5L881.6 207.5Q883.0 207.5 883.8 208.3Q884.5 209.0 884.5 210.3L884.5 210.3Q884.5 211.6 883.8 212.4Q883.0 213.1 881.6 213.1L881.6 213.1L878.2 213.1L878.2 229.3Q878.2 231.1 878.9 231.9Q879.6 232.7 881.2 232.9L881.2 232.9L881.7 232.9Q884.6 233.2 884.6 235.6L884.6 235.6Q884.6 237.2 883.3 238.1Q881.9 238.9 879.4 238.9L879.4 238.9L879.1 238.9Q870.9 238.9 870.9 230.9ZM895.6 238.2Q894.6 239.2 892.9 239.2Q891.3 239.2 890.3 238.2Q889.3 237.1 889.3 235.3L889.3 235.3L889.3 199.5Q889.3 197.7 890.2 196.7Q891.2 195.7 892.9 195.7L892.9 195.7Q894.6 195.7 895.5 196.7Q896.5 197.7 896.5 199.5L896.5 199.5L896.5 212.9L896.6 212.9Q897.9 210.0 900.4 208.5Q902.9 206.9 906.4 206.9L906.4 206.9Q911.5 206.9 914.4 210.1Q917.3 213.2 917.3 218.6L917.3 218.6L917.3 235.3Q917.3 237.1 916.3 238.2Q915.3 239.2 913.6 239.2Q912.0 239.2 911.0 238.2Q910 237.1 910 235.3L910 235.3L910 220.1Q910 216.8 908.4 214.9Q906.7 213.1 903.6 213.1L903.6 213.1Q900.3 213.1 898.4 215.2Q896.6 217.3 896.6 220.7L896.6 220.7L896.6 235.3Q896.6 237.1 895.6 238.2Z M57.8 321.6L57.8 321.6Q56.1 321.6 55.1 320.6Q54.1 319.5 54.1 317.7L54.1 317.7L54.1 285.2L44.4 285.2Q42.8 285.2 41.9 284.3Q40.9 283.5 40.9 282.0Q40.9 280.5 41.9 279.7Q42.8 278.8 44.4 278.8L44.4 278.8L71.3 278.8Q72.8 278.8 73.8 279.7Q74.7 280.5 74.7 282.0Q74.7 283.5 73.8 284.3Q72.8 285.2 71.3 285.2L71.3 285.2L61.6 285.2L61.6 317.7Q61.6 319.5 60.6 320.6Q59.6 321.6 57.8 321.6ZM84.9 320.6Q83.9 321.7 82.3 321.7Q80.6 321.7 79.6 320.6Q78.6 319.6 78.6 317.8L78.6 317.8L78.6 293.1Q78.6 291.4 79.6 290.4Q80.5 289.4 82.1 289.4L82.1 289.4Q83.7 289.4 84.6 290.4Q85.6 291.4 85.6 293.1L85.6 293.1L85.6 295.5L85.7 295.5Q86.4 292.8 88.2 291.1Q90.0 289.5 92.4 289.5L92.4 289.5Q94.1 289.5 95.0 290.3L95.0 290.3Q96.0 291.1 96.0 292.9L96.0 292.9Q96.0 294.6 94.9 295.5L94.9 295.5Q93.8 296.4 91.7 296.5L91.7 296.5Q85.9 296.5 85.9 302.9L85.9 302.9L85.9 317.8Q85.9 319.6 84.9 320.6ZM108.4 321.6L108.4 321.6Q103.8 321.6 100.9 319.0Q98.0 316.4 98.0 312.2L98.0 312.2Q98.0 308.1 101.1 305.7Q104.1 303.3 109.8 302.9L109.8 302.9L118.0 302.4L118.0 300.2Q118.0 297.8 116.5 296.4Q115.0 295.1 112.2 295.1L112.2 295.1Q110.1 295.1 108.6 295.9Q107.1 296.7 105.7 298.7L105.7 298.7Q104.6 300.2 102.8 300.2L102.8 300.2Q101.4 300.2 100.6 299.4Q99.7 298.6 99.7 297.3L99.7 297.3Q99.7 296.3 100.2 295.3L100.2 295.3Q101.4 292.6 104.7 291.0Q108.1 289.4 112.5 289.4L112.5 289.4Q118.3 289.4 121.8 292.2Q125.3 295.0 125.3 299.7L125.3 299.7L125.3 318.0Q125.3 319.7 124.3 320.7Q123.3 321.7 121.7 321.7L121.7 321.7Q120.2 321.7 119.2 320.8Q118.3 319.9 118.2 318.3L118.2 318.3L118.2 316.1L118.1 316.1Q116.8 318.6 114.1 320.1Q111.4 321.6 108.4 321.6ZM110.6 316.1L110.6 316.1Q113.7 316.1 115.9 314.2Q118.0 312.3 118.0 309.6L118.0 309.6L118.0 307.2L110.8 307.6Q108.2 307.8 106.8 308.9Q105.3 310.1 105.3 311.9L105.3 311.9Q105.3 313.8 106.8 314.9Q108.2 316.1 110.6 316.1ZM137.4 320.7Q136.4 321.7 134.7 321.7Q133.1 321.7 132.1 320.7Q131.1 319.6 131.1 317.8L131.1 317.8L131.1 293.1Q131.1 291.4 132.1 290.4Q133.0 289.4 134.6 289.4Q136.2 289.4 137.2 290.4Q138.2 291.4 138.2 293.1L138.2 293.1L138.2 295.3L138.3 295.3Q141.0 289.4 148.0 289.4L148.0 289.4Q153.1 289.4 155.9 292.5Q158.8 295.6 158.8 301.0L158.8 301.0L158.8 317.8Q158.8 319.6 157.8 320.7Q156.8 321.7 155.1 321.7Q153.5 321.7 152.5 320.7Q151.5 319.6 151.5 317.8L151.5 317.8L151.5 302.5Q151.5 299.1 149.9 297.4Q148.3 295.6 145.3 295.6L145.3 295.6Q142.1 295.6 140.3 297.7Q138.4 299.7 138.4 303.1L138.4 303.1L138.4 317.8Q138.4 319.6 137.4 320.7ZM176.6 321.7L176.6 321.7Q171.7 321.7 168.4 320.0Q165.1 318.3 163.9 315.5L163.9 315.5Q163.6 314.7 163.6 314.0L163.6 314.0Q163.6 312.7 164.5 311.9Q165.3 311.1 166.7 311.1L166.7 311.1Q168.5 311.1 169.8 312.9L169.8 312.9Q171.1 314.8 172.7 315.6Q174.3 316.4 176.8 316.4L176.8 316.4Q179.4 316.4 181.0 315.4Q182.5 314.3 182.5 312.6L182.5 312.6Q182.5 311.2 181.5 310.3Q180.5 309.5 178.1 308.9L178.1 308.9L173.1 307.8Q164.0 305.8 164.0 298.9L164.0 298.9Q164.0 294.6 167.5 292.0Q171.0 289.4 176.7 289.4L176.7 289.4Q181.1 289.4 184.3 291.3Q187.5 293.1 188.3 295.9L188.3 295.9Q188.4 296.5 188.4 297.0L188.4 297.0Q188.4 298.1 187.7 298.9Q187.0 299.6 185.6 299.6L185.6 299.6Q183.8 299.6 182.8 298.2L182.8 298.2Q181.7 296.5 180.2 295.6Q178.7 294.7 176.5 294.7L176.5 294.7Q174.1 294.7 172.6 295.8Q171.1 296.8 171.1 298.5L171.1 298.5Q171.1 301.3 175.7 302.3L175.7 302.3L180.7 303.4Q185.6 304.5 187.7 306.4Q189.8 308.4 189.8 311.8L189.8 311.8Q189.8 316.3 186.2 319.0Q182.5 321.7 176.6 321.7ZM202.8 320.7Q201.8 321.7 200.1 321.7Q198.4 321.7 197.4 320.7Q196.4 319.7 196.4 317.9L196.4 317.9L196.4 295.6L194.5 295.6Q193.3 295.6 192.5 294.9Q191.7 294.2 191.7 292.9L191.7 292.9Q191.7 291.6 192.5 290.9Q193.3 290.1 194.5 290.1L194.5 290.1L196.4 290.1L196.4 287.4Q196.4 278.5 205 278.5L205 278.5Q207.8 278.5 209.2 279.3Q210.6 280.1 210.6 281.5L210.6 281.5Q210.6 283.2 209.0 283.6L209.0 283.6Q208.3 283.8 207.4 283.8L207.4 283.8Q205.4 283.9 204.5 284.8Q203.6 285.7 203.6 287.7L203.6 287.7L203.6 290.1L207.5 290.1Q208.8 290.1 209.6 290.9Q210.3 291.6 210.3 292.9L210.3 292.9Q210.3 294.2 209.6 294.9Q208.8 295.6 207.5 295.6L207.5 295.6L203.7 295.6L203.7 317.9Q203.7 319.7 202.8 320.7ZM239.3 317.4Q235.3 321.7 228.4 321.7Q221.5 321.7 217.4 317.4Q213.3 313.1 213.3 305.6L213.3 305.6Q213.3 298.1 217.5 293.7Q221.6 289.4 228.4 289.4L228.4 289.4Q235.2 289.4 239.3 293.7Q243.4 298.1 243.4 305.6L243.4 305.6Q243.4 313.1 239.3 317.4ZM222.8 313.2Q224.9 315.9 228.4 315.9Q231.9 315.9 233.9 313.2Q236.0 310.5 236.0 305.6L236.0 305.6Q236.0 300.7 233.9 297.9Q231.9 295.2 228.4 295.2L228.4 295.2Q224.9 295.2 222.8 297.9Q220.8 300.7 220.8 305.6L220.8 305.6Q220.8 310.5 222.8 313.2ZM254.4 320.7Q253.4 321.7 251.7 321.7Q250.1 321.7 249.1 320.7Q248.1 319.6 248.1 317.8L248.1 317.8L248.1 293.1Q248.1 291.4 249.0 290.4Q250.0 289.4 251.6 289.4Q253.2 289.4 254.2 290.4Q255.2 291.4 255.2 293.1L255.2 293.1L255.2 295.3L255.3 295.3Q258.0 289.4 265 289.4L265 289.4Q270.1 289.4 272.9 292.5Q275.8 295.6 275.8 301.0L275.8 301.0L275.8 317.8Q275.8 319.6 274.8 320.7Q273.8 321.7 272.1 321.7Q270.5 321.7 269.5 320.7Q268.5 319.6 268.5 317.8L268.5 317.8L268.5 302.5Q268.5 299.1 266.9 297.4Q265.3 295.6 262.2 295.6L262.2 295.6Q259.1 295.6 257.3 297.7Q255.4 299.7 255.4 303.1L255.4 303.1L255.4 317.8Q255.4 319.6 254.4 320.7ZM283.6 313.4L283.6 313.4L283.6 295.6L281.6 295.6Q280.3 295.6 279.5 294.9Q278.7 294.1 278.7 292.8L278.7 292.8Q278.7 291.5 279.5 290.8Q280.3 290.0 281.6 290.0L281.6 290.0L283.6 290.0L283.6 285.9Q283.6 284.1 284.6 283.1Q285.6 282.1 287.3 282.1L287.3 282.1Q288.9 282.1 289.9 283.1Q290.9 284.1 290.9 285.9L290.9 285.9L290.9 290.0L294.3 290.0Q295.6 290.0 296.4 290.8Q297.2 291.5 297.2 292.8L297.2 292.8Q297.2 294.1 296.4 294.9Q295.6 295.6 294.3 295.6L294.3 295.6L290.9 295.6L290.9 311.8Q290.9 313.6 291.6 314.4Q292.2 315.2 293.8 315.4L293.8 315.4L294.4 315.4Q297.3 315.7 297.3 318.1L297.3 318.1Q297.3 319.7 295.9 320.6Q294.6 321.4 292.1 321.4L292.1 321.4L291.8 321.4Q283.6 321.4 283.6 313.4ZM315.5 321.7L315.5 321.7Q308.4 321.7 304.4 317.5Q300.4 313.2 300.4 305.7L300.4 305.7Q300.4 298.2 304.4 293.8Q308.4 289.4 315.1 289.4L315.1 289.4Q321.5 289.4 325.4 293.4Q329.4 297.5 329.4 303.9L329.4 303.9Q329.4 305.5 328.5 306.4Q327.6 307.3 326.0 307.3L326.0 307.3L307.7 307.3L307.7 307.5Q307.7 311.4 309.8 313.8Q311.9 316.1 315.4 316.1L315.4 316.1Q317.9 316.1 319.7 315.1Q321.5 314.2 323.2 311.9L323.2 311.9Q324.3 310.8 325.7 310.8L325.7 310.8Q326.9 310.8 327.8 311.5Q328.6 312.3 328.6 313.6L328.6 313.6Q328.6 314.4 328.1 315.4L328.1 315.4Q326.6 318.4 323.2 320.0Q319.9 321.7 315.5 321.7ZM307.7 302.5L307.7 302.5L322.2 302.5Q322.1 299.1 320.2 297.1Q318.2 295.0 315.1 295.0Q312.1 295.0 310 297.1Q307.9 299.2 307.7 302.5ZM340.4 320.6Q339.4 321.7 337.7 321.7Q336.0 321.7 335.1 320.6Q334.1 319.6 334.1 317.8L334.1 317.8L334.1 293.1Q334.1 291.4 335.0 290.4Q336.0 289.4 337.6 289.4L337.6 289.4Q339.1 289.4 340.1 290.4Q341.0 291.4 341.0 293.1L341.0 293.1L341.0 295.5L341.2 295.5Q341.8 292.8 343.6 291.1Q345.5 289.5 347.8 289.5L347.8 289.5Q349.5 289.5 350.4 290.3L350.4 290.3Q351.4 291.1 351.4 292.9L351.4 292.9Q351.4 294.6 350.3 295.5L350.3 295.5Q349.3 296.4 347.1 296.5L347.1 296.5Q341.4 296.5 341.4 302.9L341.4 302.9L341.4 317.8Q341.4 319.6 340.4 320.6Z "/><defs><clipPath id="satori_bc-id-0-1"><rect x="0" y="441" width="1200" height="189"/></clipPath></defs><mask id="satori_om-id-0-1"><rect x="0" y="442" width="1200" height="188" fill="#fff"/><path width="1200" height="189" fill="none" stroke="#000" stroke-width="2" d="M0,441 A0,0 0 0 1 0,441 h1200 A0,0 0 0 1 1200,441"/></mask><path width="1200" height="189" clip-path="url(#satori_bc-id-0-1)" fill="none" stroke="#dbdbdb" stroke-width="2" d="M0,441 A0,0 0 0 1 0,441 h1200 A0,0 0 0 1 1200,441"/><mask id="satori_om-id-0-1-0"><rect x="40" y="482" width="209" height="108" fill="#fff"/></mask><clipPath id="satori_cp-id-0-1-0-0"><rect x="40" y="504" width="64" height="64"/></clipPath><mask id="satori_om-id-0-1-0-0"><rect x="40" y="504" width="64" height="64" fill="#fff"/></mask><image x="40" y="504" width="64" height="64" href="data:image/svg+xml;utf8,%3Csvg  xmlns=%22http://www.w3.org/2000/svg%22 width=%2264%22 height=%2264%22 viewBox=%220 0 128 128%22%3E%3Cpath fill=%22%23224d67%22 d=%22M22.5 14.8c2.9 1.3 99 44 99 44c2.7 1.2 2.9 3.1 2 12.4c-1 10.5-1.9 37.8-40.2 42.9c-24.6 3.2-55.9-4.3-70.9-27.2C-6 58.8 11 23.4 14.8 17.7c2.4-3.5 4.8-4.2 7.7-2.9%22%3E%3C/path%3E%3Cpath fill=%22%23f0f4c3%22 d=%22M121.5 58.8c-.3-.2-92-40.8-98.9-43.9C9.6 31.5-3.8 76 27.9 96.2c33.6 21.5 78.7-10.2 93.6-37.4%22%3E%3C/path%3E%3Cpath fill=%22%23f0f4c3%22 d=%22M117.7 57c-.3-.2-86.7-38.4-93.2-41.3c-12.2 15.5-23.9 59.1 5.7 78c31.4 20.2 73.6-11.2 87.5-36.7%22%3E%3C/path%3E%3Cpath fill=%22%23cb2a42%22 d=%22M56.2 37.6L19.5 48.2c-2.5.8-4.4 2.8-5 5.3c-1.9 8.5.8 23.3 8.9 29.8c3.5 2.7 8.6 1.8 10.8-2.1L58.5 41c1.3-1.7.5-4.2-2.3-3.4m14.3 2.9s14.6 30.1 16 33s6.3 4.7 9.9 2.8c10.7-5.6 15.5-12.4 19.2-20.2c-8.9-3.9-42.4-18.8-42.4-18.8c-2.4-1.1-4 .6-2.7 3.2m-8.6 1.9C60.3 45.1 39.5 81 37.6 84.1c-1.9 3.2-.7 7.5 2.7 9.2c12.3 6.5 30.9.4 39.6-7c2.2-1.9 4.5-5.1 3.2-8.2S68.9 44.6 67.8 42.3c-1.2-2.7-4.1-2.8-5.9.1%22%3E%3C/path%3E%3Cpath fill=%22%23f0f4c3%22 d=%22M52.2 42.2c-1.4.4-10.1 3-11.1 3.4c-1.4.5-2.2 1.7-1.9 2.5c.3.9 1.7 1.1 3.1.6c.8-.3 7.1-3.9 9.5-5.2c-3.1 2.4-10.2 9.4-11.1 10.3c-1.4 1.5-1.7 3.4-.8 4.3c1 .9 2.9.5 4.3-1c1.2-1.3 8.5-12.8 9.1-13.9s.4-1.4-1.1-1m10.1 16.4c0-2.2 1.4-10.3 1.8-12.3c.4-1.6 1.5-1.8 1.8.5s1.7 9.7 1.7 11.8s-1.2 3.3-2.7 3.3c-1.4 0-2.6-1.1-2.6-3.3M79.9 49c-1.2-1.8-3.3-4.9-4.1-6.1c-.7-1.2.1-2.1 1.8-.9s4 2.9 5.4 4c1.6 1.3 1.9 3 .8 4s-2.7.8-3.9-1%22%3E%3C/path%3E%3Cellipse cx=%2287.3%22 cy=%22103.12%22 fill=%22%23cb2a42%22 rx=%223.4%22 ry=%222.3%22 transform=%22rotate(-27.098 87.298 103.126)%22%3E%3C/ellipse%3E%3Cellipse cx=%2298.89%22 cy=%22103.82%22 fill=%22%23cb2a42%22 rx=%223.4%22 ry=%222.3%22 transform=%22rotate(-30.642 98.887 103.818)%22%3E%3C/ellipse%3E%3Cellipse cx=%22102.02%22 cy=%2293.8%22 fill=%22%23cb2a42%22 rx=%223.4%22 ry=%222.3%22 transform=%22rotate(-37.16 102.017 93.797)%22%3E%3C/ellipse%3E%3Cpath fill=%22%23cb2a42%22 d=%22M57.6 30.3c-8.3-3.7-24.4-10.7-29.6-13c-3.6 2.2-9.7 11.4-11.2 21.2c-.6 3.6 1.7 5.9 5.3 4.9c0 0 33.7-9.3 35.3-9.7c1.6-.5 2-2.6.2-3.4%22%3E%3C/path%3E%3C/svg%3E" preserveAspectRatio="none" clip-path="url(#satori_cp-id-0-1-0-0)" mask="url(#satori_om-id-0-1-0-0)"/><mask id="satori_om-id-0-1-0-0-0"><rect x="40" y="504" width="0" height="64" fill="#fff"/></mask><mask id="satori_om-id-0-1-0-0-1"><rect x="40" y="504" width="0" height="64" fill="#fff"/></mask><mask id="satori_om-id-0-1-0-0-2"><rect x="40" y="504" width="0" height="64" fill="#fff"/></mask><mask id="satori_om-id-0-1-0-0-3"><rect x="40" y="504" width="0" height="64" fill="#fff"/></mask><mask id="satori_om-id-0-1-0-0-4"><rect x="40" y="504" width="0" height="64" fill="#fff"/></mask><mask id="satori_om-id-0-1-0-0-5"><rect x="40" y="504" width="0" height="64" fill="#fff"/></mask><mask id="satori_om-id-0-1-0-0-6"><rect x="40" y="504" width="0" height="64" fill="#fff"/></mask><mask id="satori_om-id-0-1-0-0-7"><rect x="40" y="504" width="0" height="64" fill="#fff"/></mask><mask id="satori_om-id-0-1-0-0-8"><rect x="40" y="504" width="0" height="64" fill="#fff"/></mask><mask id="satori_om-id-0-1-0-1"><rect x="116" y="512" width="133" height="48" fill="#fff"/></mask><path fill="#545454" d="M133.9 553.6L133.9 553.6Q126.4 553.6 122.1 549.0Q117.8 544.3 117.8 536.1L117.8 536.1Q117.8 528.0 122.1 523.3Q126.4 518.7 133.7 518.7L133.7 518.7Q138.4 518.7 142.0 520.7Q145.5 522.7 147.2 526.3L147.2 526.3Q147.9 527.7 147.9 529.0L147.9 529.0Q147.9 530.4 147.1 531.2Q146.2 532.0 144.8 532.0L144.8 532.0Q143.6 532.0 142.8 531.5Q142.0 530.9 141.5 529.7L141.5 529.7Q140.3 527.1 138.3 525.8Q136.3 524.5 133.8 524.5L133.8 524.5Q129.8 524.5 127.4 527.7Q125.0 530.8 125.0 536.1L125.0 536.1Q125.0 541.5 127.3 544.7Q129.7 547.8 133.8 547.8L133.8 547.8Q139.3 547.8 141.5 542.8L141.5 542.8Q142.1 541.6 142.8 541.1Q143.5 540.5 144.7 540.5L144.7 540.5Q146.2 540.5 147.1 541.4Q148.0 542.3 148.0 543.7L148.0 543.7Q148.0 544.8 147.4 546.1L147.4 546.1Q145.8 549.6 142.3 551.6Q138.7 553.6 133.9 553.6ZM158.6 523.8Q157.5 524.8 156.0 524.8Q154.4 524.8 153.4 523.8Q152.3 522.8 152.3 521.3L152.3 521.3Q152.3 519.8 153.4 518.8Q154.4 517.7 156.0 517.7Q157.5 517.7 158.6 518.8Q159.6 519.8 159.6 521.3L159.6 521.3Q159.6 522.8 158.6 523.8ZM158.5 552.6Q157.6 553.6 156.0 553.6Q154.4 553.6 153.5 552.6Q152.5 551.7 152.5 550.0L152.5 550.0L152.5 531.0Q152.5 529.3 153.5 528.4Q154.4 527.4 156.0 527.4Q157.6 527.4 158.5 528.4Q159.4 529.3 159.4 531.0L159.4 531.0L159.4 550.0Q159.4 551.7 158.5 552.6ZM165.8 546.6L165.8 546.6L165.8 533.1L164.4 533.1Q163.2 533.1 162.5 532.4Q161.8 531.7 161.8 530.5Q161.8 529.3 162.5 528.6Q163.2 527.9 164.4 527.9L164.4 527.9L165.8 527.9L165.8 525.1Q165.8 523.5 166.7 522.5Q167.6 521.6 169.2 521.6Q170.8 521.6 171.7 522.5Q172.6 523.5 172.6 525.1L172.6 525.1L172.6 527.9L175.0 527.9Q176.2 527.9 176.9 528.6Q177.6 529.3 177.6 530.5Q177.6 531.7 176.9 532.4Q176.2 533.1 175.0 533.1L175.0 533.1L172.6 533.1L172.6 545.1Q172.6 546.5 173.1 547.1Q173.6 547.7 174.7 547.8L174.7 547.8L175.1 547.8Q176.4 548.0 177.1 548.5Q177.7 549.1 177.7 550.3L177.7 550.3Q177.7 551.8 176.4 552.6Q175.1 553.3 172.9 553.3L172.9 553.3L172.6 553.3Q165.8 553.3 165.8 546.6ZM184.4 553.6L184.4 553.6Q182.8 553.6 181.9 552.6Q181.0 551.7 181.0 550.0L181.0 550.0L181.0 530.9Q181.0 529.3 181.9 528.3Q182.8 527.4 184.3 527.4L184.3 527.4Q185.8 527.4 186.6 528.3Q187.5 529.3 187.5 530.9L187.5 530.9L187.5 532.5L187.7 532.5Q188.2 530.2 189.6 528.9Q191 527.5 192.9 527.5L192.9 527.5Q194.3 527.5 195.0 528.2L195.0 528.2Q196.0 528.9 196.0 530.7L196.0 530.7Q196.0 532.3 195.0 533.2L195.0 533.2Q194.0 534.0 192.1 534.1L192.1 534.1Q189.8 534.1 188.8 535.3Q187.8 536.5 187.8 538.8L187.8 538.8L187.8 550.0Q187.8 551.7 186.9 552.6Q186.0 553.6 184.4 553.6ZM207.4 553.5L207.4 553.5Q203.3 553.5 200.8 551.0Q198.3 548.5 198.3 544.1L198.3 544.1L198.3 531.0Q198.3 529.3 199.3 528.4Q200.2 527.4 201.8 527.4Q203.3 527.4 204.2 528.4Q205.2 529.3 205.2 531.0L205.2 531.0L205.2 542.7Q205.2 545.2 206.4 546.5Q207.6 547.8 209.9 547.8Q212.1 547.8 213.5 546.3Q214.8 544.8 214.8 542.3L214.8 542.3L214.8 531.0Q214.8 529.3 215.8 528.4Q216.7 527.4 218.2 527.4Q219.8 527.4 220.7 528.4Q221.7 529.3 221.7 531.0L221.7 531.0L221.7 550.1Q221.7 551.8 220.8 552.7Q219.9 553.6 218.4 553.6Q216.8 553.6 215.9 552.7Q215.0 551.8 215.0 550.1L215.0 550.1L215.0 548.5L214.9 548.5Q212.9 553.5 207.4 553.5ZM236.4 553.6L236.4 553.6Q232.1 553.6 229.3 552.2Q226.5 550.9 225.5 548.6L225.5 548.6Q225.3 547.9 225.3 547.3L225.3 547.3Q225.3 546.1 226.1 545.4Q226.9 544.7 228.1 544.7L228.1 544.7Q229.6 544.7 231.0 546.2L231.0 546.2Q232.1 547.6 233.3 548.2Q234.6 548.8 236.5 548.8L236.5 548.8Q238.4 548.8 239.5 548.1Q240.6 547.3 240.6 546.1L240.6 546.1Q240.6 545.1 239.9 544.5Q239.1 543.9 237.3 543.5L237.3 543.5L233.1 542.6Q229.4 541.8 227.5 539.9Q225.7 538.1 225.7 535.3L225.7 535.3Q225.7 531.7 228.6 529.5Q231.5 527.4 236.3 527.4L236.3 527.4Q240.1 527.4 242.8 528.9Q245.5 530.4 246.2 532.6L246.2 532.6Q246.3 533.2 246.3 533.6L246.3 533.6Q246.3 534.7 245.7 535.3Q245 536.0 243.7 536.0L243.7 536.0Q242.1 536.0 241.2 534.9L241.2 534.9Q240.2 533.6 239.1 532.9Q237.9 532.2 236.2 532.2L236.2 532.2Q234.5 532.2 233.4 533.0Q232.3 533.7 232.3 534.9L232.3 534.9Q232.3 535.9 233.1 536.6Q233.9 537.2 235.8 537.6L235.8 537.6L239.9 538.5Q243.9 539.4 245.7 541.0Q247.5 542.6 247.5 545.4L247.5 545.4Q247.5 549.1 244.4 551.4Q241.3 553.6 236.4 553.6Z "/><mask id="satori_om-id-0-1-1"><rect x="951" y="524" width="209" height="36" fill="#fff"/></mask><path fill="#8e8e8e" d="M954.9 552.6Q954.5 552.9 954.0 552.9Q953.4 552.9 953.1 552.6Q952.8 552.2 952.8 551.7L952.8 551.7L952.8 532.6Q952.8 532.0 953.1 531.6Q953.5 531.3 954.1 531.3Q954.6 531.3 955.0 531.6Q955.3 532.0 955.3 532.6L955.3 532.6L955.3 540.0L955.4 540.0Q956.1 538.7 957.4 537.9Q958.7 537.2 960.3 537.2L960.3 537.2Q963.2 537.2 964.9 539.3Q966.7 541.5 966.7 545.0L966.7 545.0Q966.7 548.6 964.9 550.8Q963.2 552.9 960.2 552.9L960.2 552.9Q958.6 552.9 957.3 552.2Q956.0 551.4 955.3 550.1L955.3 550.1L955.2 550.1L955.2 551.7Q955.2 552.2 954.9 552.6ZM959.7 550.7L959.7 550.7Q961.8 550.7 962.9 549.2Q964.1 547.7 964.1 545.0L964.1 545.0Q964.1 542.5 962.9 540.9Q961.8 539.4 959.7 539.4L959.7 539.4Q957.8 539.4 956.6 541.0Q955.3 542.5 955.3 545.0L955.3 545.0Q955.3 547.6 956.6 549.1Q957.8 550.7 959.7 550.7ZM970.8 558.4L970.8 558.4Q969.9 558.4 969.4 558.0Q968.9 557.7 968.9 557.1L968.9 557.1Q968.9 556.7 969.1 556.4Q969.4 556.2 969.9 556.2L969.9 556.2Q970.1 556.2 970.3 556.2Q970.5 556.2 970.7 556.2L970.7 556.2Q972.4 556.2 973.2 553.7L973.2 553.7L973.6 552.7L968.3 539.0Q968.2 538.6 968.2 538.3L968.2 538.3Q968.2 537.8 968.6 537.5Q968.9 537.2 969.5 537.2L969.5 537.2Q970.4 537.2 970.7 538.1L970.7 538.1L974.9 550.1L975.0 550.1L979.2 538.1Q979.3 537.6 979.6 537.4Q979.9 537.2 980.4 537.2L980.4 537.2Q980.9 537.2 981.3 537.5Q981.6 537.8 981.6 538.3L981.6 538.3Q981.6 538.6 981.5 539.0L981.5 539.0L975.9 553.7Q974.9 556.4 973.8 557.4Q972.7 558.4 970.8 558.4Z M990.5 552.9L990.5 552.9Q989.9 552.9 989.5 552.5Q989.2 552.2 989.2 551.7L989.2 551.7Q989.2 551.4 989.3 551.0L989.3 551.0L996.1 532.6Q996.6 531.3 997.8 531.3L997.8 531.3Q999.0 531.3 999.5 532.6L999.5 532.6L1006.3 551.0Q1006.5 551.4 1006.5 551.7L1006.5 551.7Q1006.5 552.2 1006.1 552.5Q1005.7 552.9 1005.2 552.9L1005.2 552.9Q1004.2 552.9 1003.9 551.9L1003.9 551.9L1002.0 546.6L993.6 546.6L991.8 551.9Q991.4 552.9 990.5 552.9ZM997.8 534.7L994.4 544.4L1001.2 544.4L997.9 534.7L997.8 534.7ZM1011.1 552.5Q1010.8 552.9 1010.2 552.9Q1009.7 552.9 1009.3 552.5Q1008.9 552.2 1008.9 551.6L1008.9 551.6L1008.9 538.5Q1008.9 537.9 1009.3 537.5Q1009.6 537.2 1010.1 537.2Q1010.7 537.2 1011 537.5Q1011.3 537.9 1011.3 538.5L1011.3 538.5L1011.3 539.9L1011.4 539.9Q1011.7 538.7 1012.7 537.9Q1013.7 537.2 1014.9 537.2L1014.9 537.2Q1015.7 537.2 1016.1 537.5L1016.1 537.5Q1016.4 537.8 1016.4 538.4L1016.4 538.4Q1016.4 539.0 1016.0 539.3L1016.0 539.3Q1015.6 539.6 1014.8 539.6L1014.8 539.6Q1013.1 539.6 1012.3 540.6Q1011.5 541.6 1011.5 543.2L1011.5 543.2L1011.5 551.6Q1011.5 552.2 1011.1 552.5ZM1019.0 549.1L1019.0 549.1L1019.0 539.5L1017.7 539.5Q1017.2 539.5 1016.9 539.3Q1016.6 539.0 1016.6 538.5L1016.6 538.5Q1016.6 538.0 1016.9 537.7Q1017.2 537.4 1017.7 537.4L1017.7 537.4L1019.0 537.4L1019.0 534.8Q1019.0 534.2 1019.4 533.8Q1019.7 533.5 1020.3 533.5Q1020.8 533.5 1021.2 533.8Q1021.5 534.2 1021.5 534.8L1021.5 534.8L1021.5 537.4L1023.5 537.4Q1024.1 537.4 1024.4 537.7Q1024.7 538.0 1024.7 538.5L1024.7 538.5Q1024.7 539.0 1024.4 539.3Q1024.1 539.5 1023.5 539.5L1023.5 539.5L1021.5 539.5L1021.5 548.6Q1021.5 549.6 1021.9 550.0Q1022.3 550.5 1023.3 550.6L1023.3 550.6L1023.5 550.6Q1024.7 550.7 1024.7 551.6L1024.7 551.6Q1024.7 552.2 1024.3 552.5Q1023.9 552.8 1022.9 552.8L1022.9 552.8L1022.7 552.8Q1019.0 552.8 1019.0 549.1ZM1033.6 552.9L1033.6 552.9Q1030.2 552.9 1028.4 550.9Q1026.5 548.8 1026.5 545.1L1026.5 545.1Q1026.5 541.5 1028.4 539.3Q1030.2 537.2 1033.4 537.2L1033.4 537.2Q1036.3 537.2 1038.2 539.1Q1040.0 541.1 1040.0 544.3L1040.0 544.3Q1040.0 544.9 1039.6 545.3Q1039.3 545.7 1038.6 545.7L1038.6 545.7L1029.1 545.7Q1029.1 548.0 1030.3 549.4Q1031.5 550.7 1033.5 550.7L1033.5 550.7Q1034.9 550.7 1035.8 550.2Q1036.7 549.6 1037.6 548.3L1037.6 548.3Q1038.0 547.8 1038.6 547.8L1038.6 547.8Q1039.1 547.8 1039.4 548.1Q1039.7 548.4 1039.7 548.9L1039.7 548.9Q1039.7 549.2 1039.5 549.7L1039.5 549.7Q1038.8 551.2 1037.2 552.1Q1035.7 552.9 1033.6 552.9ZM1029.1 543.7L1029.1 543.7L1037.4 543.7Q1037.3 541.8 1036.2 540.6Q1035.1 539.4 1033.3 539.4L1033.3 539.4Q1031.6 539.4 1030.4 540.6Q1029.2 541.8 1029.1 543.7ZM1044.8 552.5Q1044.4 552.9 1043.9 552.9Q1043.3 552.9 1042.9 552.5Q1042.6 552.2 1042.6 551.6L1042.6 551.6L1042.6 538.5Q1042.6 537.9 1042.9 537.5Q1043.3 537.2 1043.8 537.2Q1044.3 537.2 1044.6 537.5Q1045.0 537.9 1045.0 538.5L1045.0 538.5L1045.0 539.9L1045.0 539.9Q1045.6 538.6 1046.7 537.9Q1047.9 537.2 1049.4 537.2L1049.4 537.2Q1050.9 537.2 1052.0 537.9Q1053.1 538.7 1053.6 540.1L1053.6 540.1L1053.7 540.1Q1054.3 538.7 1055.6 537.9Q1056.9 537.2 1058.5 537.2L1058.5 537.2Q1060.7 537.2 1062.1 538.5Q1063.4 539.9 1063.4 542.1L1063.4 542.1L1063.4 551.6Q1063.4 552.2 1063.1 552.5Q1062.7 552.9 1062.2 552.9Q1061.6 552.9 1061.2 552.5Q1060.9 552.2 1060.9 551.6L1060.9 551.6L1060.9 542.7Q1060.9 541.2 1060.1 540.3Q1059.2 539.4 1057.7 539.4Q1056.2 539.4 1055.3 540.4Q1054.3 541.4 1054.3 543.0L1054.3 543.0L1054.3 551.6Q1054.3 552.2 1053.9 552.5Q1053.6 552.9 1053.0 552.9Q1052.4 552.9 1052.1 552.5Q1051.7 552.2 1051.7 551.6L1051.7 551.6L1051.7 542.5Q1051.7 541.1 1050.9 540.2Q1050.0 539.4 1048.6 539.4L1048.6 539.4Q1047.1 539.4 1046.1 540.5Q1045.1 541.5 1045.1 543.1L1045.1 543.1L1045.1 551.6Q1045.1 552.2 1044.8 552.5Z M1075.5 552.5Q1075.1 552.9 1074.5 552.9Q1073.9 552.9 1073.6 552.5Q1073.2 552.1 1073.2 551.5L1073.2 551.5L1073.2 532.7Q1073.2 532.1 1073.6 531.7Q1073.9 531.3 1074.5 531.3Q1075.1 531.3 1075.5 531.7Q1075.9 532.1 1075.9 532.7L1075.9 532.7L1075.9 541.8L1076.0 541.8L1085.4 531.8Q1085.9 531.3 1086.5 531.3L1086.5 531.3Q1087.0 531.3 1087.3 531.7Q1087.7 532.0 1087.7 532.5L1087.7 532.5Q1087.7 533.0 1087.3 533.3L1087.3 533.3L1080.1 540.9L1088.2 550.6Q1088.5 551.1 1088.5 551.6L1088.5 551.6Q1088.5 552.2 1088.2 552.5Q1087.8 552.9 1087.3 552.9L1087.3 552.9Q1086.6 552.9 1086.1 552.2L1086.1 552.2L1078.2 542.8L1075.9 545.3L1075.9 551.5Q1075.9 552.1 1075.5 552.5ZM1096.5 552.9L1096.5 552.9Q1094.0 552.9 1092.6 551.4Q1091.2 549.9 1091.2 547.3L1091.2 547.3L1091.2 538.5Q1091.2 537.9 1091.6 537.5Q1091.9 537.2 1092.5 537.2Q1093.0 537.2 1093.4 537.5Q1093.8 537.9 1093.8 538.5L1093.8 538.5L1093.8 546.9Q1093.8 550.7 1097.3 550.7L1097.3 550.7Q1099.1 550.7 1100.2 549.5Q1101.2 548.3 1101.2 546.4L1101.2 546.4L1101.2 538.5Q1101.2 537.9 1101.6 537.5Q1102.0 537.2 1102.5 537.2Q1103.1 537.2 1103.4 537.5Q1103.8 537.9 1103.8 538.5L1103.8 538.5L1103.8 551.6Q1103.8 552.2 1103.5 552.6Q1103.1 552.9 1102.6 552.9Q1102.1 552.9 1101.7 552.6Q1101.4 552.2 1101.4 551.6L1101.4 551.6L1101.4 550.2L1101.3 550.2Q1099.9 552.9 1096.5 552.9ZM1107.9 549.1L1107.9 549.1L1107.9 539.5L1106.6 539.5Q1106.1 539.5 1105.8 539.3Q1105.5 539.0 1105.5 538.5L1105.5 538.5Q1105.5 538.0 1105.8 537.7Q1106.1 537.4 1106.6 537.4L1106.6 537.4L1107.9 537.4L1107.9 534.8Q1107.9 534.2 1108.3 533.8Q1108.6 533.5 1109.2 533.5Q1109.7 533.5 1110.1 533.8Q1110.5 534.2 1110.5 534.8L1110.5 534.8L1110.5 537.4L1112.4 537.4Q1113.0 537.4 1113.3 537.7Q1113.6 538.0 1113.6 538.5L1113.6 538.5Q1113.6 539.0 1113.3 539.3Q1113.0 539.5 1112.4 539.5L1112.4 539.5L1110.5 539.5L1110.5 548.6Q1110.5 549.6 1110.9 550.0Q1111.3 550.5 1112.2 550.6L1112.2 550.6L1112.4 550.6Q1113.6 550.7 1113.6 551.6L1113.6 551.6Q1113.6 552.2 1113.2 552.5Q1112.8 552.8 1111.8 552.8L1111.8 552.8L1111.6 552.8Q1107.9 552.8 1107.9 549.1ZM1121.4 552.9L1121.4 552.9Q1119.4 552.9 1117.9 552.1Q1116.4 551.2 1115.9 549.8L1115.9 549.8Q1115.7 549.5 1115.7 549.2L1115.7 549.2Q1115.7 548.7 1116.1 548.4Q1116.4 548.2 1116.9 548.2L1116.9 548.2Q1117.6 548.2 1118.0 548.9L1118.0 548.9Q1118.6 550.0 1119.4 550.4Q1120.2 550.8 1121.6 550.8L1121.6 550.8Q1123.1 550.8 1124.0 550.2Q1124.9 549.6 1124.9 548.6L1124.9 548.6Q1124.9 547.7 1124.4 547.3Q1123.8 546.8 1122.5 546.5L1122.5 546.5L1120.2 545.9Q1115.9 544.8 1115.9 541.6L1115.9 541.6Q1115.9 539.6 1117.5 538.4Q1119.0 537.2 1121.6 537.2L1121.6 537.2Q1123.5 537.2 1125.0 538.1Q1126.5 539.0 1126.8 540.4L1126.8 540.4Q1126.8 540.6 1126.8 540.8L1126.8 540.8Q1126.8 541.2 1126.5 541.5Q1126.3 541.8 1125.8 541.8L1125.8 541.8Q1125.0 541.8 1124.7 541.1L1124.7 541.1Q1124.2 540.1 1123.4 539.7Q1122.7 539.3 1121.5 539.3L1121.5 539.3Q1120.1 539.3 1119.2 539.9Q1118.4 540.5 1118.4 541.5L1118.4 541.5Q1118.4 543.1 1120.9 543.7L1120.9 543.7L1123.1 544.2Q1125.5 544.8 1126.5 545.8Q1127.5 546.7 1127.5 548.4L1127.5 548.4Q1127.5 550.4 1125.8 551.7Q1124.1 552.9 1121.4 552.9ZM1134.5 552.9L1134.5 552.9Q1132.3 552.9 1130.9 551.7Q1129.5 550.4 1129.5 548.4L1129.5 548.4Q1129.5 546.4 1130.9 545.2Q1132.3 544.1 1135.0 543.9L1135.0 543.9L1139.4 543.7L1139.4 542.4Q1139.4 541.0 1138.5 540.2Q1137.6 539.4 1136.0 539.4L1136.0 539.4Q1134.8 539.4 1133.9 539.9Q1133.0 540.4 1132.4 541.5L1132.4 541.5Q1132.1 542.1 1131.3 542.1L1131.3 542.1Q1130.8 542.1 1130.5 541.8Q1130.2 541.5 1130.2 541.0Q1130.2 540.5 1130.5 539.9L1130.5 539.9Q1131.2 538.7 1132.7 537.9Q1134.2 537.2 1136.1 537.2L1136.1 537.2Q1138.8 537.2 1140.3 538.5Q1141.9 539.9 1141.9 542.1L1141.9 542.1L1141.9 551.6Q1141.9 552.2 1141.6 552.6Q1141.2 552.9 1140.7 552.9L1140.7 552.9Q1140.2 552.9 1139.8 552.6Q1139.5 552.2 1139.5 551.6L1139.5 551.6L1139.5 550.0L1139.4 550.0Q1138.8 551.3 1137.4 552.1Q1136.1 552.9 1134.5 552.9ZM1135.1 550.8L1135.1 550.8Q1136.9 550.8 1138.1 549.6Q1139.4 548.5 1139.4 546.9L1139.4 546.9L1139.4 545.6L1135.3 545.9Q1133.7 546.0 1132.9 546.6Q1132.1 547.3 1132.1 548.4Q1132.1 549.4 1132.9 550.1Q1133.7 550.8 1135.1 550.8ZM1147.3 552.5Q1147.0 552.9 1146.4 552.9Q1145.9 552.9 1145.5 552.5Q1145.2 552.2 1145.2 551.6L1145.2 551.6L1145.2 538.5Q1145.2 537.9 1145.5 537.5Q1145.8 537.2 1146.4 537.2Q1146.9 537.2 1147.2 537.5Q1147.6 537.9 1147.6 538.5L1147.6 538.5L1147.6 539.9L1147.6 539.9Q1148.3 538.6 1149.5 537.9Q1150.7 537.2 1152.4 537.2L1152.4 537.2Q1154.9 537.2 1156.3 538.7Q1157.7 540.2 1157.7 542.8L1157.7 542.8L1157.7 551.6Q1157.7 552.2 1157.4 552.5Q1157.0 552.9 1156.4 552.9Q1155.9 552.9 1155.5 552.5Q1155.2 552.2 1155.2 551.6L1155.2 551.6L1155.2 543.2Q1155.2 541.4 1154.3 540.4Q1153.4 539.4 1151.7 539.4L1151.7 539.4Q1149.9 539.4 1148.8 540.6Q1147.7 541.8 1147.7 543.7L1147.7 543.7L1147.7 551.6Q1147.7 552.2 1147.3 552.5Z "/></svg>