<svg width="1200" height="630" viewBox="0 0 1200 630" xmlns="http://www.w3.org/2000/svg"><mask id="satori_om-id"><rect x="0" y="0" width="1200" height="630" fill="#fff"/></mask><mask id="satori_om-id-0"><rect x="0" y="0" width="1200" height="630" fill="#fff"/></mask><rect x="0" y="0" width="1200" height="630" fill="#f2f2f2"/><mask id="satori_om-id-0-0"><rect x="0" y="0" width="1200" height="441" fill="#fff"/></mask><mask id="satori_om-id-0-0-0"><rect x="40" y="136" width="1120" height="36" fill="#fff"/></mask><path fill="#8e8e8e" d="M44.5 164.5Q44.1 164.9 43.4 164.9Q42.7 164.9 42.3 164.5Q41.9 164.1 41.9 163.3L41.9 163.3L41.9 145.4Q41.9 144.4 42.5 143.9Q43.1 143.3 44.1 143.3L44.1 143.3Q44.9 143.3 45.4 143.7Q46.0 144.1 46.3 145.0L46.3 145.0L52.6 160.2L52.7 160.2L58.9 145.0Q59.3 144.1 59.9 143.7Q60.4 143.3 61.3 143.3L61.3 143.3Q62.2 143.3 62.8 143.8Q63.3 144.4 63.3 145.4L63.3 145.4L63.3 163.3Q63.3 164.1 62.9 164.5Q62.5 164.9 61.8 164.9L61.8 164.9Q61.1 164.9 60.7 164.5Q60.3 164.1 60.3 163.3L60.3 163.3L60.3 149.1L60.2 149.1L54.3 163.3Q53.8 164.5 52.6 164.5L52.6 164.5Q51.4 164.5 50.9 163.3L50.9 163.3L45.0 149.1L44.9 149.1L44.9 163.3Q44.9 164.1 44.5 164.5ZM78.8 162.8Q76.8 165.0 73.5 165.0Q70.1 165.0 68.2 162.8Q66.2 160.7 66.2 157.0L66.2 157.0Q66.2 153.3 68.2 151.1Q70.1 149.0 73.5 149.0Q76.8 149.0 78.8 151.1Q80.8 153.3 80.8 157.0L80.8 157.0Q80.8 160.7 78.8 162.8ZM73.5 162.3L73.5 162.3Q75.4 162.3 76.5 160.9Q77.6 159.5 77.6 157.0L77.6 157.0Q77.6 154.4 76.5 153.0Q75.3 151.6 73.5 151.6Q71.6 151.6 70.5 153.0Q69.4 154.4 69.4 157.0L69.4 157.0Q69.4 159.5 70.5 160.9Q71.6 162.3 73.5 162.3ZM84.8 164.9L84.8 164.9Q84.1 164.9 83.7 164.5Q83.2 164.0 83.2 163.3L83.2 163.3L83.2 150.6Q83.2 149.8 83.6 149.4Q84.0 149.0 84.7 149.0Q85.4 149.0 85.8 149.4Q86.3 149.9 86.3 150.6L86.3 150.6L86.3 151.8L86.3 151.8Q87.7 149.0 91.2 149.0L91.2 149.0Q93.7 149.0 95.1 150.5Q96.5 152.0 96.5 154.7L96.5 154.7L96.5 163.3Q96.5 164.0 96.1 164.5Q95.6 164.9 94.9 164.9L94.9 164.9Q94.2 164.9 93.8 164.5Q93.3 164.0 93.3 163.3L93.3 163.3L93.3 155.3Q93.3 153.5 92.5 152.6Q91.7 151.7 90.1 151.7L90.1 151.7Q88.4 151.7 87.4 152.8Q86.4 153.9 86.4 155.7L86.4 155.7L86.4 163.3Q86.4 164.0 86.0 164.5Q85.5 164.9 84.8 164.9ZM105.3 164.9L105.3 164.9Q102.4 164.9 100.6 162.8Q98.9 160.6 98.9 157.0Q98.9 153.3 100.6 151.2Q102.4 149.0 105.3 149.0L105.3 149.0Q106.9 149.0 108.2 149.8Q109.5 150.5 110.2 151.8L110.2 151.8L110.2 151.8L110.2 144.9Q110.2 144.1 110.6 143.7Q111.1 143.2 111.8 143.2L111.8 143.2Q112.5 143.2 112.9 143.7Q113.4 144.2 113.4 144.9L113.4 144.9L113.4 163.4Q113.4 164.1 113.0 164.5Q112.5 164.9 111.8 164.9L111.8 164.9Q111.1 164.9 110.7 164.5Q110.2 164.1 110.2 163.4L110.2 163.4L110.2 161.9L110.2 161.9Q109.6 163.3 108.3 164.1Q107.1 164.9 105.3 164.9ZM106.2 162.2L106.2 162.2Q108.0 162.2 109.1 160.8Q110.2 159.4 110.2 157.0L110.2 157.0Q110.2 154.6 109.1 153.1Q108.0 151.7 106.2 151.7L106.2 151.7Q104.3 151.7 103.2 153.1Q102.1 154.5 102.1 157.0L102.1 157.0Q102.1 159.4 103.2 160.8Q104.3 162.2 106.2 162.2ZM121.1 164.9L121.1 164.9Q118.9 164.9 117.4 163.6Q116.0 162.3 116.0 160.3L116.0 160.3Q116.0 158.3 117.5 157.1Q119.0 155.9 121.7 155.7L121.7 155.7L126.0 155.5L126.0 154.3Q126.0 153.0 125.1 152.3Q124.3 151.6 122.9 151.6L122.9 151.6Q121.7 151.6 120.9 152.0Q120.1 152.5 119.5 153.5L119.5 153.5Q119.0 154.2 118.2 154.2L118.2 154.2Q117.6 154.2 117.2 153.8Q116.8 153.4 116.8 152.9L116.8 152.9Q116.8 152.3 117.1 151.8L117.1 151.8Q117.7 150.5 119.3 149.8Q120.9 149.0 123.0 149.0L123.0 149.0Q125.8 149.0 127.4 150.4Q129.1 151.7 129.1 154.0L129.1 154.0L129.1 163.3Q129.1 164.1 128.7 164.5Q128.3 164.9 127.6 164.9L127.6 164.9Q126.9 164.9 126.5 164.5Q126.1 164.1 126.1 163.4L126.1 163.4L126.1 162.1L126.0 162.1Q125.3 163.4 124.0 164.2Q122.7 164.9 121.1 164.9ZM122.0 162.4L122.0 162.4Q123.7 162.4 124.8 161.4Q126.0 160.4 126.0 158.9L126.0 158.9L126.0 157.7L122.1 157.9Q120.7 158.0 120.0 158.6Q119.2 159.2 119.2 160.2L119.2 160.2Q119.2 161.2 120.0 161.8Q120.7 162.4 122.0 162.4ZM134.1 170.4L134.1 170.4Q133.0 170.4 132.4 170.0Q131.8 169.6 131.8 168.9L131.8 168.9Q131.8 168.4 132.1 168.1Q132.5 167.8 133.0 167.8L133.0 167.8Q133.2 167.8 133.4 167.8Q133.7 167.8 133.9 167.8L133.9 167.8Q135.4 167.8 136.2 165.7L136.2 165.7L136.5 164.8L131.3 151.3Q131.2 150.9 131.2 150.4L131.2 150.4Q131.2 149.8 131.6 149.4Q132.1 149.0 132.8 149.0L132.8 149.0Q133.4 149.0 133.7 149.3Q134.1 149.5 134.3 150.2L134.3 150.2L138.2 161.8L138.3 161.8L142.2 150.2Q142.4 149.5 142.8 149.3Q143.1 149.0 143.7 149.0L143.7 149.0Q144.4 149.0 144.8 149.4Q145.2 149.8 145.2 150.4L145.2 150.4Q145.2 150.8 145.1 151.3L145.1 151.3L139.7 165.4Q138.7 168.2 137.5 169.3Q136.2 170.4 134.1 170.4Z M160.9 165.1L160.9 165.1Q158.4 165.1 156.6 164.1Q154.8 163.2 153.9 161.6L153.9 161.6Q153.5 160.8 153.5 160.0L153.5 160.0Q153.5 159.3 153.9 158.9Q154.3 158.5 154.9 158.5L154.9 158.5Q155.5 158.5 155.8 158.8Q156.1 159.1 156.4 159.6L156.4 159.6Q157.5 162.3 160.9 162.3L160.9 162.3Q162.8 162.3 164.0 161.3Q165.2 160.4 165.2 158.8L165.2 158.8Q165.2 157.0 164.0 156.0Q162.8 155.0 160.7 155.0L160.7 155.0L159.3 155.0Q158.6 155.0 158.3 154.7Q157.9 154.3 157.9 153.8Q157.9 153.2 158.3 152.8Q158.6 152.5 159.3 152.5L159.3 152.5L160.6 152.5Q162.4 152.5 163.5 151.5Q164.6 150.6 164.6 149.1L164.6 149.1Q164.6 147.6 163.7 146.7Q162.7 145.8 160.9 145.8L160.9 145.8Q159.3 145.8 158.3 146.5Q157.3 147.1 156.8 148.5L156.8 148.5Q156.5 149.1 156.2 149.4Q155.9 149.6 155.3 149.6L155.3 149.6Q154.6 149.6 154.3 149.3Q153.9 148.9 153.9 148.2L153.9 148.2Q153.9 147.4 154.3 146.6L154.3 146.6Q155.1 145.0 156.8 144.1Q158.5 143.1 160.9 143.1L160.9 143.1Q164.0 143.1 165.9 144.7Q167.8 146.2 167.8 148.6L167.8 148.6Q167.8 150.6 166.6 151.9Q165.4 153.2 163.4 153.6L163.4 153.6L163.4 153.7Q165.7 153.9 167.1 155.3Q168.6 156.6 168.6 158.8L168.6 158.8Q168.6 161.6 166.4 163.3Q164.2 165.1 160.9 165.1ZM185.3 162.1Q183.2 165.1 179.4 165.1Q175.6 165.1 173.5 162.1Q171.3 159.2 171.3 154.1L171.3 154.1Q171.3 149.0 173.5 146.1Q175.6 143.1 179.4 143.1L179.4 143.1Q183.2 143.1 185.3 146.1Q187.5 149.0 187.5 154.1L187.5 154.1Q187.5 159.1 185.3 162.1ZM179.4 162.3L179.4 162.3Q181.7 162.3 182.9 160.1Q184.2 157.9 184.2 154.1L184.2 154.1Q184.2 150.3 182.9 148.1Q181.7 145.9 179.4 145.9Q177.2 145.9 175.9 148.1Q174.6 150.3 174.6 154.1L174.6 154.1Q174.6 157.9 175.9 160.1Q177.1 162.3 179.4 162.3Z M201.8 165.0L201.8 165.0Q199.6 165.0 198.0 164.0Q196.4 163.0 195.8 161.3L195.8 161.3Q195.4 160.4 195.4 159.8L195.4 159.8Q195.4 159.0 195.9 158.6Q196.3 158.1 197.0 158.1L197.0 158.1Q198.2 158.1 198.6 159.5L198.6 159.5Q198.9 160.8 199.7 161.4Q200.6 162.1 201.8 162.1L201.8 162.1Q203.4 162.1 204.2 161.1Q205.1 160.2 205.1 158.4L205.1 158.4L205.1 145.0Q205.1 144.2 205.5 143.7Q206.0 143.3 206.7 143.3Q207.5 143.3 207.9 143.7Q208.4 144.2 208.4 145.0L208.4 145.0L208.4 158.4Q208.4 161.5 206.6 163.3Q204.9 165.0 201.8 165.0ZM216.4 164.9L216.4 164.9Q214.2 164.9 212.7 163.6Q211.3 162.3 211.3 160.3L211.3 160.3Q211.3 158.3 212.8 157.1Q214.3 155.9 217.0 155.7L217.0 155.7L221.3 155.5L221.3 154.3Q221.3 153.0 220.4 152.3Q219.6 151.6 218.2 151.6L218.2 151.6Q217.0 151.6 216.2 152.0Q215.4 152.5 214.8 153.5L214.8 153.5Q214.3 154.2 213.5 154.2L213.5 154.2Q212.9 154.2 212.5 153.8Q212.1 153.4 212.1 152.9L212.1 152.9Q212.1 152.3 212.4 151.8L212.4 151.8Q213.0 150.5 214.6 149.8Q216.2 149.0 218.3 149.0L218.3 149.0Q221.1 149.0 222.7 150.4Q224.4 151.7 224.4 154.0L224.4 154.0L224.4 163.3Q224.4 164.1 224.0 164.5Q223.6 164.9 222.9 164.9L222.9 164.9Q222.2 164.9 221.8 164.5Q221.4 164.1 221.4 163.4L221.4 163.4L221.4 162.1L221.3 162.1Q220.6 163.4 219.3 164.2Q218.0 164.9 216.4 164.9ZM217.3 162.4L217.3 162.4Q219.0 162.4 220.1 161.4Q221.3 160.4 221.3 158.9L221.3 158.9L221.3 157.7L217.5 157.9Q216.0 158.0 215.3 158.6Q214.5 159.2 214.5 160.2L214.5 160.2Q214.5 161.2 215.3 161.8Q216.0 162.4 217.3 162.4ZM229.1 164.9L229.1 164.9Q228.3 164.9 227.9 164.5Q227.5 164.0 227.5 163.3L227.5 163.3L227.5 150.6Q227.5 149.8 227.9 149.4Q228.3 149.0 229.0 149.0Q229.7 149.0 230.1 149.4Q230.5 149.9 230.5 150.6L230.5 150.6L230.5 151.8L230.6 151.8Q231.9 149.0 235.4 149.0L235.4 149.0Q237.9 149.0 239.4 150.5Q240.8 152.0 240.8 154.7L240.8 154.7L240.8 163.3Q240.8 164.0 240.3 164.5Q239.9 164.9 239.2 164.9L239.2 164.9Q238.5 164.9 238.0 164.5Q237.6 164.0 237.6 163.3L237.6 163.3L237.6 155.3Q237.6 153.5 236.8 152.6Q235.9 151.7 234.3 151.7L234.3 151.7Q232.6 151.7 231.6 152.8Q230.6 153.9 230.6 155.7L230.6 155.7L230.6 163.3Q230.6 164.0 230.2 164.5Q229.8 164.9 229.1 164.9ZM249.1 164.9L249.1 164.9Q246.6 164.9 245.2 163.4Q243.7 161.9 243.7 159.2L243.7 159.2L243.7 150.7Q243.7 149.9 244.2 149.4Q244.6 149.0 245.3 149.0L245.3 149.0Q246.0 149.0 246.5 149.4Q246.9 149.9 246.9 150.7L246.9 150.7L246.9 158.6Q246.9 160.4 247.7 161.3Q248.6 162.2 250.2 162.2L250.2 162.2Q251.9 162.2 252.9 161.1Q253.9 160.0 253.9 158.2L253.9 158.2L253.9 150.7Q253.9 149.9 254.3 149.4Q254.7 149.0 255.4 149.0L255.4 149.0Q256.2 149.0 256.6 149.4Q257.0 149.9 257.0 150.7L257.0 150.7L257.0 163.3Q257.0 164.1 256.6 164.5Q256.2 164.9 255.5 164.9Q254.8 164.9 254.4 164.5Q254.0 164.1 254.0 163.3L254.0 163.3L254.0 162.1L253.9 162.1Q252.6 164.9 249.1 164.9ZM264.6 164.9L264.6 164.9Q262.4 164.9 260.9 163.6Q259.5 162.3 259.5 160.3L259.5 160.3Q259.5 158.3 261.0 157.1Q262.5 155.9 265.2 155.7L265.2 155.7L269.5 155.5L269.5 154.3Q269.5 153.0 268.6 152.3Q267.8 151.6 266.4 151.6L266.4 151.6Q265.2 151.6 264.4 152.0Q263.6 152.5 263.0 153.5L263.0 153.5Q262.5 154.2 261.7 154.2L261.7 154.2Q261.1 154.2 260.7 153.8Q260.3 153.4 260.3 152.9L260.3 152.9Q260.3 152.3 260.6 151.8L260.6 151.8Q261.2 150.5 262.8 149.8Q264.4 149.0 266.5 149.0L266.5 149.0Q269.3 149.0 271.0 150.4Q272.6 151.7 272.6 154.0L272.6 154.0L272.6 163.3Q272.6 164.1 272.2 164.5Q271.8 164.9 271.1 164.9L271.1 164.9Q270.4 164.9 270.0 164.5Q269.6 164.1 269.6 163.4L269.6 163.4L269.6 162.1L269.5 162.1Q268.9 163.4 267.5 164.2Q266.2 164.9 264.6 164.9ZM265.5 162.4L265.5 162.4Q267.2 162.4 268.3 161.4Q269.5 160.4 269.5 158.9L269.5 158.9L269.5 157.7L265.7 157.9Q264.2 158.0 263.5 158.6Q262.7 159.2 262.7 160.2L262.7 160.2Q262.7 161.2 263.5 161.8Q264.3 162.4 265.5 162.4ZM277.3 164.9L277.3 164.9Q276.5 164.9 276.1 164.5Q275.7 164.0 275.7 163.3L275.7 163.3L275.7 150.6Q275.7 149.9 276.1 149.4Q276.5 149.0 277.2 149.0L277.2 149.0Q277.8 149.0 278.3 149.4Q278.7 149.9 278.7 150.6L278.7 150.6L278.7 151.9L278.8 151.9Q279.1 150.6 280.0 149.8Q281.0 149.0 282.1 149.0L282.1 149.0Q283.0 149.0 283.4 149.4L283.4 149.4Q283.8 149.7 283.8 150.5L283.8 150.5Q283.8 151.2 283.3 151.6L283.3 151.6Q282.9 152.0 281.9 152.0L281.9 152.0Q280.3 152.0 279.6 153.0Q278.8 153.9 278.8 155.4L278.8 155.4L278.8 163.3Q278.8 164.0 278.4 164.5Q278.0 164.9 277.3 164.9ZM287.4 170.4L287.4 170.4Q286.3 170.4 285.7 170.0Q285.2 169.6 285.2 168.9L285.2 168.9Q285.2 168.4 285.5 168.1Q285.8 167.8 286.4 167.8L286.4 167.8Q286.5 167.8 286.8 167.8Q287.0 167.8 287.2 167.8L287.2 167.8Q288.8 167.8 289.6 165.7L289.6 165.7L289.8 164.8L284.7 151.3Q284.5 150.9 284.5 150.4L284.5 150.4Q284.5 149.8 285.0 149.4Q285.4 149.0 286.1 149.0L286.1 149.0Q286.7 149.0 287.1 149.3Q287.4 149.5 287.6 150.2L287.6 150.2L291.6 161.8L291.6 161.8L295.6 150.2Q295.7 149.5 296.1 149.3Q296.5 149.0 297.1 149.0L297.1 149.0Q297.7 149.0 298.2 149.4Q298.6 149.8 298.6 150.4L298.6 150.4Q298.6 150.8 298.4 151.3L298.4 151.3L293.1 165.4Q292.1 168.2 290.8 169.3Q289.6 170.4 287.4 170.4Z M320.0 164.7L308.4 164.7Q307.6 164.7 307.2 164.3Q306.8 163.9 306.8 163.3L306.8 163.3Q306.8 162.8 307.0 162.5Q307.2 162.1 307.7 161.6L307.7 161.6L314.3 154.9Q316.4 152.8 317.1 151.7Q317.7 150.6 317.7 149.3L317.7 149.3Q317.7 147.8 316.7 146.8Q315.7 145.8 314.1 145.8L314.1 145.8Q310.9 145.8 309.8 149.0L309.8 149.0Q309.6 149.5 309.3 149.8Q308.9 150.0 308.3 150.0L308.3 150.0Q307.7 150.0 307.3 149.6Q306.9 149.3 306.9 148.6L306.9 148.6Q306.9 148.3 307.0 148.0L307.0 148.0Q307.2 147.1 307.7 146.3Q308.3 145.4 309.1 144.7Q310.0 144.0 311.3 143.6Q312.6 143.1 314.1 143.1L314.1 143.1Q317.1 143.1 319.1 144.8Q321.0 146.5 321.0 149.1L321.0 149.1Q321.0 150.9 320.0 152.5Q319.0 154.0 316.3 156.8L316.3 156.8L311.3 161.8L311.3 161.9L320.0 161.9Q320.7 161.9 321.1 162.3Q321.5 162.7 321.5 163.3L321.5 163.3Q321.5 163.9 321.1 164.3Q320.7 164.7 320.0 164.7L320.0 164.7ZM337.9 162.1Q335.8 165.1 332.0 165.1Q328.2 165.1 326.0 162.1Q323.9 159.2 323.9 154.1L323.9 154.1Q323.9 149.0 326.0 146.1Q328.2 143.1 332.0 143.1L332.0 143.1Q335.7 143.1 337.9 146.1Q340.0 149.0 340.0 154.1L340.0 154.1Q340.0 159.1 337.9 162.1ZM332.0 162.3L332.0 162.3Q334.2 162.3 335.5 160.1Q336.7 157.9 336.7 154.1L336.7 154.1Q336.7 150.3 335.5 148.1Q334.2 145.9 332.0 145.9Q329.7 145.9 328.5 148.1Q327.2 150.3 327.2 154.1L327.2 154.1Q327.2 157.9 328.4 160.1Q329.7 162.3 332.0 162.3ZM356.1 164.7L344.5 164.7Q343.7 164.7 343.3 164.3Q342.9 163.9 342.9 163.3L342.9 163.3Q342.9 162.8 343.1 162.5Q343.3 162.1 343.8 161.6L343.8 161.6L350.4 154.9Q352.5 152.8 353.2 151.7Q353.8 150.6 353.8 149.3L353.8 149.3Q353.8 147.8 352.8 146.8Q351.8 145.8 350.2 145.8L350.2 145.8Q347.0 145.8 345.9 149.0L345.9 149.0Q345.7 149.5 345.3 149.8Q345.0 150.0 344.4 150.0L344.4 150.0Q343.8 150.0 343.4 149.6Q343.0 149.3 343.0 148.6L343.0 148.6Q343.0 148.3 343.1 148.0L343.1 148.0Q343.3 147.1 343.8 146.3Q344.4 145.4 345.2 144.7Q346.1 144.0 347.4 143.6Q348.7 143.1 350.2 143.1L350.2 143.1Q353.2 143.1 355.1 144.8Q357.1 146.5 357.1 149.1L357.1 149.1Q357.1 150.9 356.1 152.5Q355.1 154.0 352.4 156.8L352.4 156.8L347.4 161.8L347.4 161.9L356.1 161.9Q356.8 161.9 357.2 162.3Q357.6 162.7 357.6 163.3L357.6 163.3Q357.6 163.9 357.2 164.3Q356.8 164.7 356.1 164.7L356.1 164.7ZM367.7 165.1L367.7 165.1Q365.2 165.1 363.4 164.1Q361.6 163.2 360.7 161.6L360.7 161.6Q360.3 160.8 360.3 160.0L360.3 160.0Q360.3 159.3 360.7 158.9Q361.1 158.5 361.8 158.5L361.8 158.5Q362.3 158.5 362.6 158.8Q363.0 159.1 363.2 159.6L363.2 159.6Q364.4 162.3 367.7 162.3L367.7 162.3Q369.6 162.3 370.8 161.3Q372.0 160.4 372.0 158.8L372.0 158.8Q372.1 157.0 370.8 156.0Q369.6 155.0 367.5 155.0L367.5 155.0L366.1 155.0Q365.5 155.0 365.1 154.7Q364.7 154.3 364.7 153.8Q364.7 153.2 365.1 152.8Q365.5 152.5 366.1 152.5L366.1 152.5L367.4 152.5Q369.2 152.5 370.3 151.5Q371.5 150.6 371.5 149.1L371.5 149.1Q371.5 147.6 370.5 146.7Q369.5 145.8 367.7 145.8L367.7 145.8Q366.1 145.8 365.1 146.5Q364.2 147.1 363.6 148.5L363.6 148.5Q363.3 149.1 363.0 149.4Q362.7 149.6 362.1 149.6L362.1 149.6Q361.4 149.6 361.1 149.3Q360.7 148.9 360.7 148.2L360.7 148.2Q360.7 147.4 361.1 146.6L361.1 146.6Q361.9 145.0 363.6 144.1Q365.3 143.1 367.7 143.1L367.7 143.1Q370.9 143.1 372.8 144.7Q374.6 146.2 374.6 148.6L374.6 148.6Q374.6 150.6 373.4 151.9Q372.2 153.2 370.2 153.6L370.2 153.6L370.2 153.7Q372.5 153.9 374.0 155.3Q375.4 156.6 375.4 158.8L375.4 158.8Q375.4 161.6 373.2 163.3Q371.1 165.1 367.7 165.1Z "/><mask id="satori_om-id-0-0-1"><rect x="40" y="217" width="1120" height="83" fill="#fff"/></mask><path fill="#224d67" d="M61.1 280.3L61.1 280.3Q53.2 280.3 48.4 276.0Q43.7 271.7 43.7 264.7L43.7 264.7L43.7 240.7Q43.7 238.9 44.7 237.8Q45.7 236.8 47.5 236.8L47.5 236.8Q49.3 236.8 50.3 237.8Q51.3 238.9 51.3 240.7L51.3 240.7L51.3 264.0Q51.3 268.4 53.9 271.0Q56.5 273.7 61.1 273.7Q65.7 273.7 68.3 271.0Q70.9 268.4 70.9 264.0L70.9 264.0L70.9 240.7Q70.9 238.9 71.9 237.8Q72.9 236.8 74.7 236.8L74.7 236.8Q76.5 236.8 77.5 237.8Q78.5 238.9 78.5 240.7L78.5 240.7L78.5 264.7Q78.5 271.7 73.8 276.0Q69.1 280.3 61.1 280.3ZM91.5 279.2Q90.5 280.2 88.8 280.2Q87.2 280.2 86.2 279.2Q85.2 278.1 85.2 276.3L85.2 276.3L85.2 251.6Q85.2 249.9 86.1 248.9Q87.1 247.9 88.7 247.9Q90.3 247.9 91.3 248.9Q92.3 249.9 92.3 251.6L92.3 251.6L92.3 253.8L92.4 253.8Q95.1 247.9 102.1 247.9L102.1 247.9Q107.2 247.9 110.0 251.0Q112.9 254.1 112.9 259.5L112.9 259.5L112.9 276.3Q112.9 278.1 111.9 279.2Q110.9 280.2 109.2 280.2Q107.6 280.2 106.6 279.2Q105.6 278.1 105.6 276.3L105.6 276.3L105.6 261.0Q105.6 257.6 104.0 255.9Q102.4 254.1 99.4 254.1L99.4 254.1Q96.2 254.1 94.4 256.2Q92.5 258.2 92.5 261.6L92.5 261.6L92.5 276.3Q92.5 278.1 91.5 279.2ZM125.4 243.0Q124.2 244.2 122.5 244.2Q120.8 244.2 119.6 243.0Q118.5 241.8 118.5 240.2L118.5 240.2Q118.5 238.5 119.6 237.4Q120.8 236.2 122.5 236.2L122.5 236.2Q124.2 236.2 125.4 237.4Q126.6 238.5 126.6 240.2L126.6 240.2Q126.6 241.8 125.4 243.0ZM125.2 279.1Q124.2 280.2 122.5 280.2Q120.8 280.2 119.8 279.1Q118.9 278.1 118.9 276.3L118.9 276.3L118.9 251.7Q118.9 250.0 119.8 248.9Q120.8 247.9 122.5 247.9Q124.2 247.9 125.2 248.9Q126.2 250.0 126.2 251.8L126.2 251.8L126.2 276.3Q126.2 278.1 125.2 279.1ZM143.8 280.1L143.8 280.1Q137.9 280.1 134.5 275.7Q131.0 271.4 131.0 264.0Q131.0 256.6 134.5 252.3Q138.0 248.0 143.9 248.0L143.9 248.0Q147.2 248.0 149.8 249.6Q152.3 251.2 153.7 253.9L153.7 253.9L153.8 253.9L153.8 251.7Q153.8 249.9 154.8 248.9Q155.7 247.9 157.4 247.9Q159.1 247.9 160.0 248.9Q161.0 249.9 161.0 251.7L161.0 251.7L161.0 286.8Q161.0 288.6 160.0 289.6Q158.9 290.6 157.3 290.6Q155.7 290.6 154.7 289.6Q153.7 288.6 153.7 286.8L153.7 286.8L153.7 274.3L153.5 274.3Q152.3 277.0 149.7 278.5Q147.1 280.1 143.8 280.1ZM146.0 274.1L146.0 274.1Q149.5 274.1 151.6 271.4Q153.7 268.6 153.7 264.1Q153.7 259.5 151.6 256.7Q149.5 254.0 146.0 254.0L146.0 254.0Q142.5 254.0 140.5 256.7Q138.5 259.4 138.5 264.1Q138.5 268.7 140.5 271.4Q142.5 274.1 146.0 274.1ZM177.8 280.1L177.8 280.1Q172.7 280.1 169.7 277.0Q166.8 274.0 166.8 268.6L166.8 268.6L166.8 251.7Q166.8 250.0 167.8 248.9Q168.8 247.9 170.4 247.9Q172.0 247.9 173.1 248.9Q174.1 250.0 174.1 251.8L174.1 251.8L174.1 267.1Q174.1 270.5 175.7 272.2Q177.3 274.0 180.3 274.0L180.3 274.0Q183.5 274.0 185.3 271.9Q187.2 269.9 187.2 266.5L187.2 266.5L187.2 251.7Q187.2 250.0 188.2 248.9Q189.2 247.9 190.8 247.9L190.8 247.9Q192.4 247.9 193.4 248.9Q194.5 250.0 194.5 251.8L194.5 251.8L194.5 276.5Q194.5 278.2 193.5 279.2Q192.5 280.2 191.0 280.2L191.0 280.2Q189.4 280.2 188.4 279.2Q187.4 278.2 187.4 276.5L187.4 276.5L187.4 274.2L187.3 274.2Q184.7 280.1 177.8 280.1ZM214.2 280.2L214.2 280.2Q207.1 280.2 203.1 276.0Q199.1 271.7 199.1 264.2L199.1 264.2Q199.1 256.7 203.1 252.3Q207.1 247.9 213.8 247.9L213.8 247.9Q220.1 247.9 224.1 251.9Q228.1 256.0 228.1 262.4L228.1 262.4Q228.1 264.0 227.2 264.9Q226.3 265.8 224.7 265.8L224.7 265.8L206.4 265.8L206.4 266.0Q206.4 269.9 208.5 272.3Q210.6 274.6 214.1 274.6L214.1 274.6Q216.6 274.6 218.4 273.6Q220.1 272.7 221.9 270.4L221.9 270.4Q223.0 269.3 224.4 269.3L224.4 269.3Q225.6 269.3 226.5 270.0Q227.3 270.8 227.3 272.1L227.3 272.1Q227.3 272.9 226.8 273.9L226.8 273.9Q225.2 276.9 221.9 278.5Q218.6 280.2 214.2 280.2ZM206.4 261.0L206.4 261.0L220.9 261.0Q220.8 257.6 218.9 255.6Q216.9 253.5 213.8 253.5Q210.7 253.5 208.7 255.6Q206.6 257.7 206.4 261.0Z M246.8 271.9L246.8 271.9L246.8 254.1L244.8 254.1Q243.5 254.1 242.7 253.4Q241.9 252.6 241.9 251.3L241.9 251.3Q241.9 250.0 242.7 249.3Q243.5 248.5 244.8 248.5L244.8 248.5L246.8 248.5L246.8 244.4Q246.8 242.6 247.8 241.6Q248.8 240.6 250.5 240.6L250.5 240.6Q252.1 240.6 253.1 241.6Q254.1 242.6 254.1 244.4L254.1 244.4L254.1 248.5L257.5 248.5Q258.8 248.5 259.6 249.3Q260.4 250.0 260.4 251.3L260.4 251.3Q260.4 252.6 259.6 253.4Q258.8 254.1 257.5 254.1L257.5 254.1L254.1 254.1L254.1 270.3Q254.1 272.1 254.8 272.9Q255.4 273.7 257.0 273.9L257.0 273.9L257.6 273.9Q260.5 274.2 260.5 276.6L260.5 276.6Q260.5 278.2 259.1 279.1Q257.8 279.9 255.3 279.9L255.3 279.9L255.0 279.9Q246.8 279.9 246.8 271.9ZM274.0 280.1L274.0 280.1Q269.5 280.1 266.6 277.5Q263.7 274.9 263.7 270.7L263.7 270.7Q263.7 266.6 266.7 264.2Q269.8 261.8 275.5 261.4L275.5 261.4L283.7 260.9L283.7 258.7Q283.7 256.3 282.2 254.9Q280.6 253.6 277.9 253.6L277.9 253.6Q275.7 253.6 274.2 254.4Q272.7 255.2 271.4 257.2L271.4 257.2Q270.3 258.7 268.4 258.7L268.4 258.7Q267.1 258.7 266.2 257.9Q265.4 257.1 265.4 255.8L265.4 255.8Q265.4 254.8 265.8 253.8L265.8 253.8Q267.0 251.1 270.4 249.5Q273.7 247.9 278.2 247.9L278.2 247.9Q284.0 247.9 287.4 250.7Q290.9 253.5 290.9 258.2L290.9 258.2L290.9 276.5Q290.9 278.2 289.9 279.2Q288.9 280.2 287.4 280.2L287.4 280.2Q285.8 280.2 284.9 279.3Q284.0 278.4 283.9 276.8L283.9 276.8L283.9 274.6L283.7 274.6Q282.4 277.1 279.7 278.6Q277.1 280.1 274.0 280.1ZM276.3 274.6L276.3 274.6Q279.4 274.6 281.5 272.7Q283.7 270.8 283.7 268.1L283.7 268.1L283.7 265.7L276.5 266.1Q273.8 266.3 272.4 267.4Q270.9 268.6 270.9 270.4L270.9 270.4Q270.9 272.3 272.4 273.4Q273.8 274.6 276.3 274.6ZM310.1 291.3L310.1 291.3Q305.8 291.2 302.5 289.7Q299.2 288.2 297.5 285.6L297.5 285.6Q296.9 284.6 296.9 283.4L296.9 283.4Q296.9 282.2 297.8 281.4Q298.6 280.6 300.0 280.6L300.0 280.6Q301.4 280.6 302.6 281.8L302.6 281.8Q304.5 283.7 306.3 284.6Q308.0 285.4 310.2 285.5L310.2 285.5Q313.9 285.5 316.0 283.6Q318.1 281.7 318.1 278.6L318.1 278.6L318.1 273.7L318.0 273.7Q316.7 276.2 314.1 277.7Q311.5 279.3 308.2 279.3L308.2 279.3Q302.4 279.3 298.9 275.0Q295.5 270.8 295.5 263.7L295.5 263.7Q295.5 256.4 298.9 252.2Q302.4 248.0 308.4 248.0L308.4 248.0Q311.6 248.0 314.1 249.5Q316.7 251.1 318.0 253.8L318.0 253.8L318.1 253.8L318.1 251.6Q318.1 249.9 319.2 248.9Q320.2 247.9 321.8 247.9Q323.4 247.9 324.4 248.9Q325.4 249.9 325.4 251.6L325.4 251.6L325.4 278.6Q325.4 284.5 321.4 287.9Q317.3 291.3 310.1 291.3ZM310.5 273.6L310.5 273.6Q314.0 273.6 316.1 270.9Q318.2 268.3 318.2 263.7L318.2 263.7Q318.2 259.2 316.1 256.5Q314.0 253.8 310.5 253.8L310.5 253.8Q307.0 253.8 305.0 256.5Q302.9 259.2 302.9 263.7L302.9 263.7Q302.9 268.3 305.0 271.0Q307.0 273.6 310.5 273.6ZM343.4 280.2L343.4 280.2Q338.5 280.2 335.2 278.5Q331.9 276.8 330.7 274.0L330.7 274.0Q330.4 273.2 330.4 272.5L330.4 272.5Q330.4 271.2 331.3 270.4Q332.1 269.6 333.5 269.6L333.5 269.6Q335.3 269.6 336.6 271.4L336.6 271.4Q337.9 273.3 339.5 274.1Q341.1 274.9 343.6 274.9L343.6 274.9Q346.2 274.9 347.7 273.9Q349.3 272.8 349.3 271.1L349.3 271.1Q349.3 269.7 348.3 268.8Q347.3 268.0 344.9 267.4L344.9 267.4L339.9 266.3Q330.8 264.3 330.8 257.4L330.8 257.4Q330.8 253.1 334.3 250.5Q337.7 247.9 343.5 247.9L343.5 247.9Q347.9 247.9 351.1 249.8Q354.3 251.6 355.1 254.4L355.1 254.4Q355.2 255.0 355.2 255.5L355.2 255.5Q355.2 256.6 354.5 257.4Q353.7 258.1 352.4 258.1L352.4 258.1Q350.5 258.1 349.6 256.7L349.6 256.7Q348.5 255.0 347.0 254.1Q345.5 253.2 343.3 253.2L343.3 253.2Q340.9 253.2 339.4 254.3Q337.9 255.3 337.9 257.0L337.9 257.0Q337.9 259.8 342.5 260.8L342.5 260.8L347.4 261.9Q352.4 263.0 354.5 264.9Q356.6 266.9 356.6 270.3L356.6 270.3Q356.6 274.8 353.0 277.5Q349.3 280.2 343.4 280.2Z M385.6 280.2L385.6 280.2Q383.6 280.2 382.4 279.3Q381.3 278.4 380.5 276.4L380.5 276.4L371.8 253.3Q371.4 252.2 371.4 251.2L371.4 251.2Q371.4 249.8 372.4 248.8Q373.4 247.9 375.0 247.9L375.0 247.9Q377.7 247.9 378.5 250.8L378.5 250.8L385.6 272.8L385.7 272.8L392.8 250.8Q393.6 247.9 396.3 247.9L396.3 247.9Q397.8 247.9 398.8 248.8Q399.8 249.8 399.8 251.2L399.8 251.2Q399.8 252.2 399.4 253.2L399.4 253.2L390.7 276.4Q390.0 278.3 388.8 279.3Q387.6 280.2 385.6 280.2ZM413.0 280.1L413.0 280.1Q408.5 280.1 405.6 277.5Q402.6 274.9 402.6 270.7L402.6 270.7Q402.6 266.6 405.7 264.2Q408.8 261.8 414.4 261.4L414.4 261.4L422.7 260.9L422.7 258.7Q422.7 256.3 421.1 254.9Q419.6 253.6 416.9 253.6L416.9 253.6Q414.7 253.6 413.2 254.4Q411.7 255.2 410.4 257.2L410.4 257.2Q409.3 258.7 407.4 258.7L407.4 258.7Q406.1 258.7 405.2 257.9Q404.3 257.1 404.3 255.8L404.3 255.8Q404.3 254.8 404.8 253.8L404.8 253.8Q406.0 251.1 409.4 249.5Q412.7 247.9 417.2 247.9L417.2 247.9Q422.9 247.9 426.4 250.7Q429.9 253.5 429.9 258.2L429.9 258.2L429.9 276.5Q429.9 278.2 428.9 279.2Q427.9 280.2 426.3 280.2L426.3 280.2Q424.8 280.2 423.9 279.3Q422.9 278.4 422.9 276.8L422.9 276.8L422.9 274.6L422.7 274.6Q421.4 277.1 418.7 278.6Q416.1 280.1 413.0 280.1ZM415.2 274.6L415.2 274.6Q418.3 274.6 420.5 272.7Q422.7 270.8 422.7 268.1L422.7 268.1L422.7 265.7L415.5 266.1Q412.8 266.3 411.4 267.4Q409.9 268.6 409.9 270.4L409.9 270.4Q409.9 272.3 411.4 273.4Q412.8 274.6 415.2 274.6ZM442.2 279.2Q441.3 280.2 439.6 280.2Q438.0 280.2 437.0 279.2Q435.9 278.1 435.9 276.3L435.9 276.3L435.9 240.6Q435.9 238.7 437.0 237.7Q438.0 236.7 439.6 236.7Q441.3 236.7 442.2 237.7Q443.2 238.7 443.2 240.6L443.2 240.6L443.2 276.3Q443.2 278.1 442.2 279.2ZM456.1 243.0Q455.0 244.2 453.3 244.2Q451.6 244.2 450.4 243.0Q449.2 241.8 449.2 240.2L449.2 240.2Q449.2 238.5 450.4 237.4Q451.6 236.2 453.3 236.2L453.3 236.2Q455.0 236.2 456.2 237.4Q457.3 238.5 457.3 240.2L457.3 240.2Q457.3 241.8 456.1 243.0ZM455.9 279.1Q454.9 280.2 453.3 280.2Q451.6 280.2 450.6 279.1Q449.6 278.1 449.6 276.3L449.6 276.3L449.6 251.7Q449.6 250.0 450.6 248.9Q451.6 247.9 453.3 247.9Q454.9 247.9 455.9 248.9Q456.9 250.0 456.9 251.8L456.9 251.8L456.9 276.3Q456.9 278.1 455.9 279.1ZM474.6 280.1L474.6 280.1Q468.8 280.1 465.3 275.7Q461.8 271.4 461.8 264.0L461.8 264.0Q461.8 256.7 465.3 252.3Q468.8 248.0 474.6 248.0L474.6 248.0Q477.9 248.0 480.5 249.5Q483.0 251.1 484.3 253.7L484.3 253.7L484.4 253.7L484.4 240.6Q484.4 238.7 485.4 237.7Q486.4 236.7 488.1 236.7Q489.7 236.7 490.7 237.7Q491.7 238.7 491.7 240.6L491.7 240.6L491.7 276.5Q491.7 278.2 490.7 279.2Q489.7 280.2 488.1 280.2L488.1 280.2Q486.5 280.2 485.5 279.2Q484.4 278.2 484.4 276.5L484.4 276.5L484.4 274.1L484.3 274.1Q483.1 276.9 480.6 278.5Q478.2 280.1 474.6 280.1ZM476.8 274.1L476.8 274.1Q480.3 274.1 482.4 271.4Q484.5 268.7 484.5 264.1L484.5 264.1Q484.5 259.5 482.4 256.7Q480.3 254.0 476.8 254.0L476.8 254.0Q473.3 254.0 471.3 256.7Q469.2 259.4 469.2 264.1L469.2 264.1Q469.2 268.7 471.3 271.4Q473.3 274.1 476.8 274.1ZM507.0 280.1L507.0 280.1Q502.4 280.1 499.5 277.5Q496.6 274.9 496.6 270.7L496.6 270.7Q496.6 266.6 499.7 264.2Q502.7 261.8 508.4 261.4L508.4 261.4L516.6 260.9L516.6 258.7Q516.6 256.3 515.1 254.9Q513.6 253.6 510.8 253.6L510.8 253.6Q508.7 253.6 507.2 254.4Q505.7 255.2 504.3 257.2L504.3 257.2Q503.2 258.7 501.4 258.7L501.4 258.7Q500.0 258.7 499.2 257.9Q498.3 257.1 498.3 255.8L498.3 255.8Q498.3 254.8 498.8 253.8L498.8 253.8Q500.0 251.1 503.3 249.5Q506.7 247.9 511.1 247.9L511.1 247.9Q516.9 247.9 520.4 250.7Q523.8 253.5 523.8 258.2L523.8 258.2L523.8 276.5Q523.8 278.2 522.9 279.2Q521.9 280.2 520.3 280.2L520.3 280.2Q518.8 280.2 517.8 279.3Q516.9 278.4 516.8 276.8L516.8 276.8L516.8 274.6L516.7 274.6Q515.3 277.1 512.7 278.6Q510.0 280.1 507.0 280.1ZM509.2 274.6L509.2 274.6Q512.3 274.6 514.5 272.7Q516.6 270.8 516.6 268.1L516.6 268.1L516.6 265.7L509.4 266.1Q506.8 266.3 505.3 267.4Q503.9 268.6 503.9 270.4L503.9 270.4Q503.9 272.3 505.3 273.4Q506.8 274.6 509.2 274.6ZM531.7 271.9L531.7 271.9L531.7 254.1L529.8 254.1Q528.4 254.1 527.6 253.4Q526.8 252.6 526.8 251.3L526.8 251.3Q526.8 250.0 527.6 249.3Q528.4 248.5 529.8 248.5L529.8 248.5L531.7 248.5L531.7 244.4Q531.7 242.6 532.7 241.6Q533.7 240.6 535.4 240.6L535.4 240.6Q537.1 240.6 538.0 241.6Q539.0 242.6 539.0 244.4L539.0 244.4L539.0 248.5L542.4 248.5Q543.8 248.5 544.5 249.3Q545.3 250.0 545.3 251.3L545.3 251.3Q545.3 252.6 544.5 253.4Q543.7 254.1 542.4 254.1L542.4 254.1L539.0 254.1L539.0 270.3Q539.0 272.1 539.7 272.9Q540.4 273.7 541.9 273.9L541.9 273.9L542.5 273.9Q545.4 274.2 545.4 276.6L545.4 276.6Q545.4 278.2 544.1 279.1Q542.7 279.9 540.2 279.9L540.2 279.9L539.9 279.9Q531.7 279.9 531.7 271.9ZM556.5 243.0Q555.3 244.2 553.6 244.2Q551.9 244.2 550.8 243.0Q549.6 241.8 549.6 240.2L549.6 240.2Q549.6 238.5 550.8 237.4Q551.9 236.2 553.6 236.2L553.6 236.2Q555.4 236.2 556.5 237.4Q557.7 238.5 557.7 240.2L557.7 240.2Q557.7 241.8 556.5 243.0ZM556.3 279.1Q555.3 280.2 553.6 280.2Q552.0 280.2 551.0 279.1Q550 278.1 550 276.3L550 276.3L550 251.7Q550 250.0 551.0 248.9Q552.0 247.9 553.6 247.9Q555.3 247.9 556.3 248.9Q557.3 250.0 557.3 251.8L557.3 251.8L557.3 276.3Q557.3 278.1 556.3 279.1ZM588.1 275.9Q584.0 280.2 577.2 280.2Q570.3 280.2 566.2 275.9Q562.1 271.6 562.1 264.1L562.1 264.1Q562.1 256.6 566.2 252.2Q570.3 247.9 577.2 247.9L577.2 247.9Q584.0 247.9 588.1 252.2Q592.2 256.6 592.2 264.1L592.2 264.1Q592.2 271.6 588.1 275.9ZM571.6 271.7Q573.6 274.4 577.2 274.4Q580.7 274.4 582.7 271.7Q584.8 269.0 584.8 264.1L584.8 264.1Q584.8 259.2 582.7 256.4Q580.7 253.7 577.2 253.7L577.2 253.7Q573.7 253.7 571.6 256.4Q569.5 259.2 569.5 264.1L569.5 264.1Q569.5 269.0 571.6 271.7ZM603.2 279.2Q602.1 280.2 600.5 280.2Q598.9 280.2 597.9 279.2Q596.9 278.1 596.9 276.3L596.9 276.3L596.9 251.6Q596.9 249.9 597.8 248.9Q598.8 247.9 600.4 247.9Q602.0 247.9 603.0 248.9Q604.0 249.9 604.0 251.6L604.0 251.6L604.0 253.8L604.1 253.8Q606.7 247.9 613.8 247.9L613.8 247.9Q618.9 247.9 621.7 251.0Q624.5 254.1 624.5 259.5L624.5 259.5L624.5 276.3Q624.5 278.1 623.5 279.2Q622.5 280.2 620.9 280.2Q619.3 280.2 618.2 279.2Q617.2 278.1 617.2 276.3L617.2 276.3L617.2 261.0Q617.2 257.6 615.7 255.9Q614.1 254.1 611.0 254.1L611.0 254.1Q607.9 254.1 606.0 256.2Q604.2 258.2 604.2 261.6L604.2 261.6L604.2 276.3Q604.2 278.1 603.2 279.2Z "/><defs><clipPath id="satori_bc-id-0-1"><rect x="0" y="441" width="1200" height="189"/></clipPath></defs><mask id="satori_om-id-0-1"><rect x="0" y="442" width="1200" height="188" fill="#fff"/><path width="1200" height="189" fill="none" stroke="#000" stroke-width="2" d="M0,441 A0,0 0 0 1 0,441 h1200 A0,0 0 0 1 1200,441"/></mask><path width="1200" height="189" clip-path="url(#satori_bc-id-0-1)" fill="none" stroke="#dbdbdb" stroke-width="2" d="M0,441 A0,0 0 0 1 0,441 h1200 A0,0 0 0 1 1200,441"/><mask id="satori_om-id-0-1-0"><rect x="40" y="482" width="209" height="108" fill="#fff"/></mask><clipPath id="satori_cp-id-0-1-0-0"><rect x="40" y="504" width="64" height="64"/></clipPath><mask id="satori_om-id-0-1-0-0"><rect x="40" y="504" width="64" height="64" fill="#fff"/></mask><image x="40" y="504" width="64" height="64" href="data:image/svg+xml;utf8,%3Csvg  xmlns=%22http://www.w3.org/2000/svg%22 width=%2264%22 height=%2264%22 viewBox=%220 0 128 128%22%3E%3Cpath fill=%22%23224d67%22 d=%22M22.5 14.8c2.9 1.3 99 44 99 44c2.7 1.2 2.9 3.1 2 12.4c-1 10.5-1.9 37.8-40.2 42.9c-24.6 3.2-55.9-4.3-70.9-27.2C-6 58.8 11 23.4 14.8 17.7c2.4-3.5 4.8-4.2 7.7-2.9%22%3E%3C/path%3E%3Cpath fill=%22%23f0f4c3%22 d=%22M121.5 58.8c-.3-.2-92-40.8-98.9-43.9C9.6 31.5-3.8 76 27.9 96.2c33.6 21.5 78.7-10.2 93.6-37.4%22%3E%3C/path%3E%3Cpath fill=%22%23f0f4c3%22 d=%22M117.7 57c-.3-.2-86.7-38.4-93.2-41.3c-12.2 15.5-23.9 59.1 5.7 78c31.4 20.2 73.6-11.2 87.5-36.7%22%3E%3C/path%3E%3Cpath fill=%22%23cb2a42%22 d=%22M56.2 37.6L19.5 48.2c-2.5.8-4.4 2.8-5 5.3c-1.9 8.5.8 23.3 8.9 29.8c3.5 2.7 8.6 1.8 10.8-2.1L58.5 41c1.3-1.7.5-4.2-2.3-3.4m14.3 2.9s14.6 30.1 16 33s6.3 4.7 9.9 2.8c10.7-5.6 15.5-12.4 19.2-20.2c-8.9-3.9-42.4-18.8-42.4-18.8c-2.4-1.1-4 .6-2.7 3.2m-8.6 1.9C60.3 45.1 39.5 81 37.6 84.1c-1.9 3.2-.7 7.5 2.7 9.2c12.3 6.5 30.9.4 39.6-7c2.2-1.9 4.5-5.1 3.2-8.2S68.9 44.6 67.8 42.3c-1.2-2.7-4.1-2.8-5.9.1%22%3E%3C/path%3E%3Cpath fill=%22%23f0f4c3%22 d=%22M52.2 42.2c-1.4.4-10.1 3-11.1 3.4c-1.4.5-2.2 1.7-1.9 2.5c.3.9 1.7 1.1 3.1.6c.8-.3 7.1-3.9 9.5-5.2c-3.1 2.4-10.2 9.4-11.1 10.3c-1.4 1.5-1.7 3.4-.8 4.3c1 .9 2.9.5 4.3-1c1.2-1.3 8.5-12.8 9.1-13.9s.4-1.4-1.1-1m10.1 16.4c0-2.2 1.4-10.3 1.8-12.3c.4-1.6 1.5-1.8 1.8.5s1.7 9.7 1.7 11.8s-1.2 3.3-2.7 3.3c-1.4 0-2.6-1.1-2.6-3.3M79.9 49c-1.2-1.8-3.3-4.9-4.1-6.1c-.7-1.2.1-2.1 1.8-.9s4 2.9 5.4 4c1.6 1.3 1.9 3 .8 4s-2.7.8-3.9-1%22%3E%3C/path%3E%3Cellipse cx=%2287.3%22 cy=%22103.12%22 fill=%22%23cb2a42%22 rx=%223.4%22 ry=%222.3%22 transform=%22rotate(-27.098 87.298 103.126)%22%3E%3C/ellipse%3E%3Cellipse cx=%2298.89%22 cy=%22103.82%22 fill=%22%23cb2a42%22 rx=%223.4%22 ry=%222.3%22 transform=%22rotate(-30.642 98.887 103.818)%22%3E%3C/ellipse%3E%3Cellipse cx=%22102.02%22 cy=%2293.8%22 fill=%22%23cb2a42%22 rx=%223.4%22 ry=%222.3%22 transform=%22rotate(-37.16 102.017 93.797)%22%3E%3C/ellipse%3E%3Cpath fill=%22%23cb2a42%22 d=%22M57.6 30.3c-8.3-3.7-24.4-10.7-29.6-13c-3.6 2.2-9.7 11.4-11.2 21.2c-.6 3.6 1.7 5.9 5.3 4.9c0 0 33.7-9.3 35.3-9.7c1.6-.5 2-2.6.2-3.4%22%3E%3C/path%3E%3C/svg%3E" preserveAspectRatio="none" clip-path="url(#satori_cp-id-0-1-0-0)" mask="url(#satori_om-id-0-1-0-0)"/><mask id="satori_om-id-0-1-0-0-0"><rect x="40" y="504" width="0" height="64" fill="#fff"/></mask><mask id="satori_om-id-0-1-0-0-1"><rect x="40" y="504" width="0" height="64" fill="#fff"/></mask><mask id="satori_om-id-0-1-0-0-2"><rect x="40" y="504" width="0" height="64" fill="#fff"/></mask><mask id="satori_om-id-0-1-0-0-3"><rect x="40" y="504" width="0" height="64" fill="#fff"/></mask><mask id="satori_om-id-0-1-0-0-4"><rect x="40" y="504" width="0" height="64" fill="#fff"/></mask><mask id="satori_om-id-0-1-0-0-5"><rect x="40" y="504" width="0" height="64" fill="#fff"/></mask><mask id="satori_om-id-0-1-0-0-6"><rect x="40" y="504" width="0" height="64" fill="#fff"/></mask><mask id="satori_om-id-0-1-0-0-7"><rect x="40" y="504" width="0" height="64" fill="#fff"/></mask><mask id="satori_om-id-0-1-0-0-8"><rect x="40" y="504" width="0" height="64" fill="#fff"/></mask><mask id="satori_om-id-0-1-0-1"><rect x="116" y="512" width="133" height="48" fill="#fff"/></mask><path fill="#545454" d="M133.9 553.6L133.9 553.6Q126.4 553.6 122.1 549.0Q117.8 544.3 117.8 536.1L117.8 536.1Q117.8 528.0 122.1 523.3Q126.4 518.7 133.7 518.7L133.7 518.7Q138.4 518.7 142.0 520.7Q145.5 522.7 147.2 526.3L147.2 526.3Q147.9 527.7 147.9 529.0L147.9 529.0Q147.9 530.4 147.1 531.2Q146.2 532.0 144.8 532.0L144.8 532.0Q143.6 532.0 142.8 531.5Q142.0 530.9 141.5 529.7L141.5 529.7Q140.3 527.1 138.3 525.8Q136.3 524.5 133.8 524.5L133.8 524.5Q129.8 524.5 127.4 527.7Q125.0 530.8 125.0 536.1L125.0 536.1Q125.0 541.5 127.3 544.7Q129.7 547.8 133.8 547.8L133.8 547.8Q139.3 547.8 141.5 542.8L141.5 542.8Q142.1 541.6 142.8 541.1Q143.5 540.5 144.7 540.5L144.7 540.5Q146.2 540.5 147.1 541.4Q148.0 542.3 148.0 543.7L148.0 543.7Q148.0 544.8 147.4 546.1L147.4 546.1Q145.8 549.6 142.3 551.6Q138.7 553.6 133.9 553.6ZM158.6 523.8Q157.5 524.8 156.0 524.8Q154.4 524.8 153.4 523.8Q152.3 522.8 152.3 521.3L152.3 521.3Q152.3 519.8 153.4 518.8Q154.4 517.7 156.0 517.7Q157.5 517.7 158.6 518.8Q159.6 519.8 159.6 521.3L159.6 521.3Q159.6 522.8 158.6 523.8ZM158.5 552.6Q157.6 553.6 156.0 553.6Q154.4 553.6 153.5 552.6Q152.5 551.7 152.5 550.0L152.5 550.0L152.5 531.0Q152.5 529.3 153.5 528.4Q154.4 527.4 156.0 527.4Q157.6 527.4 158.5 528.4Q159.4 529.3 159.4 531.0L159.4 531.0L159.4 550.0Q159.4 551.7 158.5 552.6ZM165.8 546.6L165.8 546.6L165.8 533.1L164.4 533.1Q163.2 533.1 162.5 532.4Q161.8 531.7 161.8 530.5Q161.8 529.3 162.5 528.6Q163.2 527.9 164.4 527.9L164.4 527.9L165.8 527.9L165.8 525.1Q165.8 523.5 166.7 522.5Q167.6 521.6 169.2 521.6Q170.8 521.6 171.7 522.5Q172.6 523.5 172.6 525.1L172.6 525.1L172.6 527.9L175.0 527.9Q176.2 527.9 176.9 528.6Q177.6 529.3 177.6 530.5Q177.6 531.7 176.9 532.4Q176.2 533.1 175.0 533.1L175.0 533.1L172.6 533.1L172.6 545.1Q172.6 546.5 173.1 547.1Q173.6 547.7 174.7 547.8L174.7 547.8L175.1 547.8Q176.4 548.0 177.1 548.5Q177.7 549.1 177.7 550.3L177.7 550.3Q177.7 551.8 176.4 552.6Q175.1 553.3 172.9 553.3L172.9 553.3L172.6 553.3Q165.8 553.3 165.8 546.6ZM184.4 553.6L184.4 553.6Q182.8 553.6 181.9 552.6Q181.0 551.7 181.0 550.0L181.0 550.0L181.0 530.9Q181.0 529.3 181.9 528.3Q182.8 527.4 184.3 527.4L184.3 527.4Q185.8 527.4 186.6 528.3Q187.5 529.3 187.5 530.9L187.5 530.9L187.5 532.5L187.7 532.5Q188.2 530.2 189.6 528.9Q191 527.5 192.9 527.5L192.9 527.5Q194.3 527.5 195.0 528.2L195.0 528.2Q196.0 528.9 196.0 530.7L196.0 530.7Q196.0 532.3 195.0 533.2L195.0 533.2Q194.0 534.0 192.1 534.1L192.1 534.1Q189.8 534.1 188.8 535.3Q187.8 536.5 187.8 538.8L187.8 538.8L187.8 550.0Q187.8 551.7 186.9 552.6Q186.0 553.6 184.4 553.6ZM207.4 553.5L207.4 553.5Q203.3 553.5 200.8 551.0Q198.3 548.5 198.3 544.1L198.3 544.1L198.3 531.0Q198.3 529.3 199.3 528.4Q200.2 527.4 201.8 527.4Q203.3 527.4 204.2 528.4Q205.2 529.3 205.2 531.0L205.2 531.0L205.2 542.7Q205.2 545.2 206.4 546.5Q207.6 547.8 209.9 547.8Q212.1 547.8 213.5 546.3Q214.8 544.8 214.8 542.3L214.8 542.3L214.8 531.0Q214.8 529.3 215.8 528.4Q216.7 527.4 218.2 527.4Q219.8 527.4 220.7 528.4Q221.7 529.3 221.7 531.0L221.7 531.0L221.7 550.1Q221.7 551.8 220.8 552.7Q219.9 553.6 218.4 553.6Q216.8 553.6 215.9 552.7Q215.0 551.8 215.0 550.1L215.0 550.1L215.0 548.5L214.9 548.5Q212.9 553.5 207.4 553.5ZM236.4 553.6L236.4 553.6Q232.1 553.6 229.3 552.2Q226.5 550.9 225.5 548.6L225.5 548.6Q225.3 547.9 225.3 547.3L225.3 547.3Q225.3 546.1 226.1 545.4Q226.9 544.7 228.1 544.7L228.1 544.7Q229.6 544.7 231.0 546.2L231.0 546.2Q232.1 547.6 233.3 548.2Q234.6 548.8 236.5 548.8L236.5 548.8Q238.4 548.8 239.5 548.1Q240.6 547.3 240.6 546.1L240.6 546.1Q240.6 545.1 239.9 544.5Q239.1 543.9 237.3 543.5L237.3 543.5L233.1 542.6Q229.4 541.8 227.5 539.9Q225.7 538.1 225.7 535.3L225.7 535.3Q225.7 531.7 228.6 529.5Q231.5 527.4 236.3 527.4L236.3 527.4Q240.1 527.4 242.8 528.9Q245.5 530.4 246.2 532.6L246.2 532.6Q246.3 533.2 246.3 533.6L246.3 533.6Q246.3 534.7 245.7 535.3Q245 536.0 243.7 536.0L243.7 536.0Q242.1 536.0 241.2 534.9L241.2 534.9Q240.2 533.6 239.1 532.9Q237.9 532.2 236.2 532.2L236.2 532.2Q234.5 532.2 233.4 533.0Q232.3 533.7 232.3 534.9L232.3 534.9Q232.3 535.9 233.1 536.6Q233.9 537.2 235.8 537.6L235.8 537.6L239.9 538.5Q243.9 539.4 245.7 541.0Q247.5 542.6 247.5 545.4L247.5 545.4Q247.5 549.1 244.4 551.4Q241.3 553.6 236.4 553.6Z "/><mask id="satori_om-id-0-1-1"><rect x="951" y="524" width="209" height="36" fill="#fff"/></mask><path fill="#8e8e8e" d="M954.9 552.6Q954.5 552.9 954.0 552.9Q953.4 552.9 953.1 552.6Q952.8 552.2 952.8 551.7L952.8 551.7L952.8 532.6Q952.8 532.0 953.1 531.6Q953.5 531.3 954.1 531.3Q954.6 531.3 955.0 531.6Q955.3 532.0 955.3 532.6L955.3 532.6L955.3 540.0L955.4 540.0Q956.1 538.7 957.4 537.9Q958.7 537.2 960.3 537.2L960.3 537.2Q963.2 537.2 964.9 539.3Q966.7 541.5 966.7 545.0L966.7 545.0Q966.7 548.6 964.9 550.8Q963.2 552.9 960.2 552.9L960.2 552.9Q958.6 552.9 957.3 552.2Q956.0 551.4 955.3 550.1L955.3 550.1L955.2 550.1L955.2 551.7Q955.2 552.2 954.9 552.6ZM959.7 550.7L959.7 550.7Q961.8 550.7 962.9 549.2Q964.1 547.7 964.1 545.0L964.1 545.0Q964.1 542.5 962.9 540.9Q961.8 539.4 959.7 539.4L959.7 539.4Q957.8 539.4 956.6 541.0Q955.3 542.5 955.3 545.0L955.3 545.0Q955.3 547.6 956.6 549.1Q957.8 550.7 959.7 550.7ZM970.8 558.4L970.8 558.4Q969.9 558.4 969.4 558.0Q968.9 557.7 968.9 557.1L968.9 557.1Q968.9 556.7 969.1 556.4Q969.4 556.2 969.9 556.2L969.9 556.2Q970.1 556.2 970.3 556.2Q970.5 556.2 970.7 556.2L970.7 556.2Q972.4 556.2 973.2 553.7L973.2 553.7L973.6 552.7L968.3 539.0Q968.2 538.6 968.2 538.3L968.2 538.3Q968.2 537.8 968.6 537.5Q968.9 537.2 969.5 537.2L969.5 537.2Q970.4 537.2 970.7 538.1L970.7 538.1L974.9 550.1L975.0 550.1L979.2 538.1Q979.3 537.6 979.6 537.4Q979.9 537.2 980.4 537.2L980.4 537.2Q980.9 537.2 981.3 537.5Q981.6 537.8 981.6 538.3L981.6 538.3Q981.6 538.6 981.5 539.0L981.5 539.0L975.9 553.7Q974.9 556.4 973.8 557.4Q972.7 558.4 970.8 558.4Z M990.5 552.9L990.5 552.9Q989.9 552.9 989.5 552.5Q989.2 552.2 989.2 551.7L989.2 551.7Q989.2 551.4 989.3 551.0L989.3 551.0L996.1 532.6Q996.6 531.3 997.8 531.3L997.8 531.3Q999.0 531.3 999.5 532.6L999.5 532.6L1006.3 551.0Q1006.5 551.4 1006.5 551.7L1006.5 551.7Q1006.5 552.2 1006.1 552.5Q1005.7 552.9 1005.2 552.9L1005.2 552.9Q1004.2 552.9 1003.9 551.9L1003.9 551.9L1002.0 546.6L993.6 546.6L991.8 551.9Q991.4 552.9 990.5 552.9ZM997.8 534.7L994.4 544.4L1001.2 544.4L997.9 534.7L997.8 534.7ZM1011.1 552.5Q1010.8 552.9 1010.2 552.9Q1009.7 552.9 1009.3 552.5Q1008.9 552.2 1008.9 551.6L1008.9 551.6L1008.9 538.5Q1008.9 537.9 1009.3 537.5Q1009.6 537.2 1010.1 537.2Q1010.7 537.2 1011 537.5Q1011.3 537.9 1011.3 538.5L1011.3 538.5L1011.3 539.9L1011.4 539.9Q1011.7 538.7 1012.7 537.9Q1013.7 537.2 1014.9 537.2L1014.9 537.2Q1015.7 537.2 1016.1 537.5L1016.1 537.5Q1016.4 537.8 1016.4 538.4L1016.4 538.4Q1016.4 539.0 1016.0 539.3L1016.0 539.3Q1015.6 539.6 1014.8 539.6L1014.8 539.6Q1013.1 539.6 1012.3 540.6Q1011.5 541.6 1011.5 543.2L1011.5 543.2L1011.5 551.6Q1011.5 552.2 1011.1 552.5ZM1019.0 549.1L1019.0 549.1L1019.0 539.5L1017.7 539.5Q1017.2 539.5 1016.9 539.3Q1016.6 539.0 1016.6 538.5L1016.6 538.5Q1016.6 538.0 1016.9 537.7Q1017.2 537.4 1017.7 537.4L1017.7 537.4L1019.0 537.4L1019.0 534.8Q1019.0 534.2 1019.4 533.8Q1019.7 533.5 1020.3 533.5Q1020.8 533.5 1021.2 533.8Q1021.5 534.2 1021.5 534.8L1021.5 534.8L1021.5 537.4L1023.5 537.4Q1024.1 537.4 1024.4 537.7Q1024.7 538.0 1024.7 538.5L1024.7 538.5Q1024.7 539.0 1024.4 539.3Q1024.1 539.5 1023.5 539.5L1023.5 539.5L1021.5 539.5L1021.5 548.6Q1021.5 549.6 1021.9 550.0Q1022.3 550.5 1023.3 550.6L1023.3 550.6L1023.5 550.6Q1024.7 550.7 1024.7 551.6L1024.7 551.6Q1024.7 552.2 1024.3 552.5Q1023.9 552.8 1022.9 552.8L1022.9 552.8L1022.7 552.8Q1019.0 552.8 1019.0 549.1ZM1033.6 552.9L1033.6 552.9Q1030.2 552.9 1028.4 550.9Q1026.5 548.8 1026.5 545.1L1026.5 545.1Q1026.5 541.5 1028.4 539.3Q1030.2 537.2 1033.4 537.2L1033.4 537.2Q1036.3 537.2 1038.2 539.1Q1040.0 541.1 1040.0 544.3L1040.0 544.3Q1040.0 544.9 1039.6 545.3Q1039.3 545.7 1038.6 545.7L1038.6 545.7L1029.1 545.7Q1029.1 548.0 1030.3 549.4Q1031.5 550.7 1033.5 550.7L1033.5 550.7Q1034.9 550.7 1035.8 550.2Q1036.7 549.6 1037.6 548.3L1037.6 548.3Q1038.0 547.8 1038.6 547.8L1038.6 547.8Q1039.1 547.8 1039.4 548.1Q1039.7 548.4 1039.7 548.9L1039.7 548.9Q1039.7 549.2 1039.5 549.7L1039.5 549.7Q1038.8 551.2 1037.2 552.1Q1035.7 552.9 1033.6 552.9ZM1029.1 543.7L1029.1 543.7L1037.4 543.7Q1037.3 541.8 1036.2 540.6Q1035.1 539.4 1033.3 539.4L1033.3 539.4Q1031.6 539.4 1030.4 540.6Q1029.2 541.8 1029.1 543.7ZM1044.8 552.5Q1044.4 552.9 1043.9 552.9Q1043.3 552.9 1042.9 552.5Q1042.6 552.2 1042.6 551.6L1042.6 551.6L1042.6 538.5Q1042.6 537.9 1042.9 537.5Q1043.3 537.2 1043.8 537.2Q1044.3 537.2 1044.6 537.5Q1045.0 537.9 1045.0 538.5L1045.0 538.5L1045.0 539.9L1045.0 539.9Q1045.6 538.6 1046.7 537.9Q1047.9 537.2 1049.4 537.2L1049.4 537.2Q1050.9 537.2 1052.0 537.9Q1053.1 538.7 1053.6 540.1L1053.6 540.1L1053.7 540.1Q1054.3 538.7 1055.6 537.9Q1056.9 537.2 1058.5 537.2L1058.5 537.2Q1060.7 537.2 1062.1 538.5Q1063.4 539.9 1063.4 542.1L1063.4 542.1L1063.4 551.6Q1063.4 552.2 1063.1 552.5Q1062.7 552.9 1062.2 552.9Q1061.6 552.9 1061.2 552.5Q1060.9 552.2 1060.9 551.6L1060.9 551.6L1060.9 542.7Q1060.9 541.2 1060.1 540.3Q1059.2 539.4 1057.7 539.4Q1056.2 539.4 1055.3 540.4Q1054.3 541.4 1054.3 543.0L1054.3 543.0L1054.3 551.6Q1054.3 552.2 1053.9 552.5Q1053.6 552.9 1053.0 552.9Q1052.4 552.9 1052.1 552.5Q1051.7 552.2 1051.7 551.6L1051.7 551.6L1051.7 542.5Q1051.7 541.1 1050.9 540.2Q1050.0 539.4 1048.6 539.4L1048.6 539.4Q1047.1 539.4 1046.1 540.5Q1045.1 541.5 1045.1 543.1L1045.1 543.1L1045.1 551.6Q1045.1 552.2 1044.8 552.5Z M1075.5 552.5Q1075.1 552.9 1074.5 552.9Q1073.9 552.9 1073.6 552.5Q1073.2 552.1 1073.2 551.5L1073.2 551.5L1073.2 532.7Q1073.2 532.1 1073.6 531.7Q1073.9 531.3 1074.5 531.3Q1075.1 531.3 1075.5 531.7Q1075.9 532.1 1075.9 532.7L1075.9 532.7L1075.9 541.8L1076.0 541.8L1085.4 531.8Q1085.9 531.3 1086.5 531.3L1086.5 531.3Q1087.0 531.3 1087.3 531.7Q1087.7 532.0 1087.7 532.5L1087.7 532.5Q1087.7 533.0 1087.3 533.3L1087.3 533.3L1080.1 540.9L1088.2 550.6Q1088.5 551.1 1088.5 551.6L1088.5 551.6Q1088.5 552.2 1088.2 552.5Q1087.8 552.9 1087.3 552.9L1087.3 552.9Q1086.6 552.9 1086.1 552.2L1086.1 552.2L1078.2 542.8L1075.9 545.3L1075.9 551.5Q1075.9 552.1 1075.5 552.5ZM1096.5 552.9L1096.5 552.9Q1094.0 552.9 1092.6 551.4Q1091.2 549.9 1091.2 547.3L1091.2 547.3L1091.2 538.5Q1091.2 537.9 1091.6 537.5Q1091.9 537.2 1092.5 537.2Q1093.0 537.2 1093.4 537.5Q1093.8 537.9 1093.8 538.5L1093.8 538.5L1093.8 546.9Q1093.8 550.7 1097.3 550.7L1097.3 550.7Q1099.1 550.7 1100.2 549.5Q1101.2 548.3 1101.2 546.4L1101.2 546.4L1101.2 538.5Q1101.2 537.9 1101.6 537.5Q1102.0 537.2 1102.5 537.2Q1103.1 537.2 1103.4 537.5Q1103.8 537.9 1103.8 538.5L1103.8 538.5L1103.8 551.6Q1103.8 552.2 1103.5 552.6Q1103.1 552.9 1102.6 552.9Q1102.1 552.9 1101.7 552.6Q1101.4 552.2 1101.4 551.6L1101.4 551.6L1101.4 550.2L1101.3 550.2Q1099.9 552.9 1096.5 552.9ZM1107.9 549.1L1107.9 549.1L1107.9 539.5L1106.6 539.5Q1106.1 539.5 1105.8 539.3Q1105.5 539.0 1105.5 538.5L1105.5 538.5Q1105.5 538.0 1105.8 537.7Q1106.1 537.4 1106.6 537.4L1106.6 537.4L1107.9 537.4L1107.9 534.8Q1107.9 534.2 1108.3 533.8Q1108.6 533.5 1109.2 533.5Q1109.7 533.5 1110.1 533.8Q1110.5 534.2 1110.5 534.8L1110.5 534.8L1110.5 537.4L1112.4 537.4Q1113.0 537.4 1113.3 537.7Q1113.6 538.0 1113.6 538.5L1113.6 538.5Q1113.6 539.0 1113.3 539.3Q1113.0 539.5 1112.4 539.5L1112.4 539.5L1110.5 539.5L1110.5 548.6Q1110.5 549.6 1110.9 550.0Q1111.3 550.5 1112.2 550.6L1112.2 550.6L1112.4 550.6Q1113.6 550.7 1113.6 551.6L1113.6 551.6Q1113.6 552.2 1113.2 552.5Q1112.8 552.8 1111.8 552.8L1111.8 552.8L1111.6 552.8Q1107.9 552.8 1107.9 549.1ZM1121.4 552.9L1121.4 552.9Q1119.4 552.9 1117.9 552.1Q1116.4 551.2 1115.9 549.8L1115.9 549.8Q1115.7 549.5 1115.7 549.2L1115.7 549.2Q1115.7 548.7 1116.1 548.4Q1116.4 548.2 1116.9 548.2L1116.9 548.2Q1117.6 548.2 1118.0 548.9L1118.0 548.9Q1118.6 550.0 1119.4 550.4Q1120.2 550.8 1121.6 550.8L1121.6 550.8Q1123.1 550.8 1124.0 550.2Q1124.9 549.6 1124.9 548.6L1124.9 548.6Q1124.9 547.7 1124.4 547.3Q1123.8 546.8 1122.5 546.5L1122.5 546.5L1120.2 545.9Q1115.9 544.8 1115.9 541.6L1115.9 541.6Q1115.9 539.6 1117.5 538.4Q1119.0 537.2 1121.6 537.2L1121.6 537.2Q1123.5 537.2 1125.0 538.1Q1126.5 539.0 1126.8 540.4L1126.8 540.4Q1126.8 540.6 1126.8 540.8L1126.8 540.8Q1126.8 541.2 1126.5 541.5Q1126.3 541.8 1125.8 541.8L1125.8 541.8Q1125.0 541.8 1124.7 541.1L1124.7 541.1Q1124.2 540.1 1123.4 539.7Q1122.7 539.3 1121.5 539.3L1121.5 539.3Q1120.1 539.3 1119.2 539.9Q1118.4 540.5 1118.4 541.5L1118.4 541.5Q1118.4 543.1 1120.9 543.7L1120.9 543.7L1123.1 544.2Q1125.5 544.8 1126.5 545.8Q1127.5 546.7 1127.5 548.4L1127.5 548.4Q1127.5 550.4 1125.8 551.7Q1124.1 552.9 1121.4 552.9ZM1134.5 552.9L1134.5 552.9Q1132.3 552.9 1130.9 551.7Q1129.5 550.4 1129.5 548.4L1129.5 548.4Q1129.5 546.4 1130.9 545.2Q1132.3 544.1 1135.0 543.9L1135.0 543.9L1139.4 543.7L1139.4 542.4Q1139.4 541.0 1138.5 540.2Q1137.6 539.4 1136.0 539.4L1136.0 539.4Q1134.8 539.4 1133.9 539.9Q1133.0 540.4 1132.4 541.5L1132.4 541.5Q1132.1 542.1 1131.3 542.1L1131.3 542.1Q1130.8 542.1 1130.5 541.8Q1130.2 541.5 1130.2 541.0Q1130.2 540.5 1130.5 539.9L1130.5 539.9Q1131.2 538.7 1132.7 537.9Q1134.2 537.2 1136.1 537.2L1136.1 537.2Q1138.8 537.2 1140.3 538.5Q1141.9 539.9 1141.9 542.1L1141.9 542.1L1141.9 551.6Q1141.9 552.2 1141.6 552.6Q1141.2 552.9 1140.7 552.9L1140.7 552.9Q1140.2 552.9 1139.8 552.6Q1139.5 552.2 1139.5 551.6L1139.5 551.6L1139.5 550.0L1139.4 550.0Q1138.8 551.3 1137.4 552.1Q1136.1 552.9 1134.5 552.9ZM1135.1 550.8L1135.1 550.8Q1136.9 550.8 1138.1 549.6Q1139.4 548.5 1139.4 546.9L1139.4 546.9L1139.4 545.6L1135.3 545.9Q1133.7 546.0 1132.9 546.6Q1132.1 547.3 1132.1 548.4Q1132.1 549.4 1132.9 550.1Q1133.7 550.8 1135.1 550.8ZM1147.3 552.5Q1147.0 552.9 1146.4 552.9Q1145.9 552.9 1145.5 552.5Q1145.2 552.2 1145.2 551.6L1145.2 551.6L1145.2 538.5Q1145.2 537.9 1145.5 537.5Q1145.8 537.2 1146.4 537.2Q1146.9 537.2 1147.2 537.5Q1147.6 537.9 1147.6 538.5L1147.6 538.5L1147.6 539.9L1147.6 539.9Q1148.3 538.6 1149.5 537.9Q1150.7 537.2 1152.4 537.2L1152.4 537.2Q1154.9 537.2 1156.3 538.7Q1157.7 540.2 1157.7 542.8L1157.7 542.8L1157.7 551.6Q1157.7 552.2 1157.4 552.5Q1157.0 552.9 1156.4 552.9Q1155.9 552.9 1155.5 552.5Q1155.2 552.2 1155.2 551.6L1155.2 551.6L1155.2 543.2Q1155.2 541.4 1154.3 540.4Q1153.4 539.4 1151.7 539.4L1151.7 539.4Q1149.9 539.4 1148.8 540.6Q1147.7 541.8 1147.7 543.7L1147.7 543.7L1147.7 551.6Q1147.7 552.2 1147.3 552.5Z "/></svg>