<svg width="1200" height="630" viewBox="0 0 1200 630" xmlns="http://www.w3.org/2000/svg"><mask id="satori_om-id"><rect x="0" y="0" width="1200" height="630" fill="#fff"/></mask><mask id="satori_om-id-0"><rect x="0" y="0" width="1200" height="630" fill="#fff"/></mask><rect x="0" y="0" width="1200" height="630" fill="#f2f2f2"/><mask id="satori_om-id-0-0"><rect x="0" y="0" width="1200" height="441" fill="#fff"/></mask><mask id="satori_om-id-0-0-0"><rect x="40" y="136" width="1120" height="36" fill="#fff"/></mask><path fill="#8e8e8e" d="M44.8 164.4Q44.4 164.9 43.6 164.9Q42.8 164.9 42.4 164.4Q41.9 164.0 41.9 163.2L41.9 163.2L41.9 145.2Q41.9 144.4 42.4 144.0Q42.8 143.5 43.6 143.5L43.6 143.5L53.8 143.5Q54.5 143.5 55.0 143.9Q55.4 144.3 55.4 144.9Q55.4 145.6 55.0 146.0Q54.5 146.4 53.8 146.4L53.8 146.4L45.2 146.4L45.2 153.0L53.1 153.0Q53.7 153.0 54.1 153.4Q54.5 153.8 54.5 154.4Q54.5 155.1 54.1 155.4Q53.7 155.8 53.1 155.8L53.1 155.8L45.2 155.8L45.2 163.2Q45.2 164.0 44.8 164.4ZM59.2 164.9L59.2 164.9Q58.5 164.9 58.1 164.5Q57.6 164.0 57.6 163.3L57.6 163.3L57.6 150.6Q57.6 149.9 58.0 149.4Q58.5 149.0 59.1 149.0L59.1 149.0Q59.8 149.0 60.2 149.4Q60.6 149.9 60.6 150.6L60.6 150.6L60.6 151.9L60.7 151.9Q61.0 150.6 62.0 149.8Q62.9 149.0 64.1 149.0L64.1 149.0Q64.9 149.0 65.3 149.4L65.3 149.4Q65.8 149.7 65.8 150.5L65.8 150.5Q65.8 151.2 65.3 151.6L65.3 151.6Q64.8 152.0 63.8 152.0L63.8 152.0Q62.3 152.0 61.5 153.0Q60.8 153.9 60.8 155.4L60.8 155.4L60.8 163.3Q60.8 164.0 60.3 164.5Q59.9 164.9 59.2 164.9ZM70.5 146.4Q69.9 146.9 69.2 146.9Q68.4 146.9 67.9 146.4Q67.3 145.9 67.3 145.1L67.3 145.1Q67.3 144.3 67.9 143.8Q68.4 143.3 69.2 143.3L69.2 143.3Q69.9 143.3 70.5 143.8Q71.0 144.3 71.0 145.1L71.0 145.1Q71.0 145.9 70.5 146.4ZM70.3 164.5Q69.9 164.9 69.2 164.9Q68.4 164.9 68.0 164.5Q67.6 164.0 67.6 163.3L67.6 163.3L67.6 150.7Q67.6 149.9 68.0 149.4Q68.4 149.0 69.2 149.0Q69.9 149.0 70.3 149.4Q70.7 149.9 70.7 150.7L70.7 150.7L70.7 163.3Q70.7 164.0 70.3 164.5ZM79.8 164.9L79.8 164.9Q76.8 164.9 75.1 162.8Q73.3 160.6 73.3 157.0Q73.3 153.3 75.0 151.2Q76.8 149.0 79.7 149.0L79.7 149.0Q81.4 149.0 82.6 149.8Q83.9 150.5 84.6 151.8L84.6 151.8L84.6 151.8L84.6 144.9Q84.6 144.1 85.1 143.7Q85.5 143.2 86.2 143.2L86.2 143.2Q86.9 143.2 87.4 143.7Q87.8 144.2 87.8 144.9L87.8 144.9L87.8 163.4Q87.8 164.1 87.4 164.5Q86.9 164.9 86.2 164.9L86.2 164.9Q85.5 164.9 85.1 164.5Q84.6 164.1 84.6 163.4L84.6 163.4L84.6 161.9L84.6 161.9Q84.0 163.3 82.7 164.1Q81.5 164.9 79.8 164.9ZM80.6 162.2L80.6 162.2Q82.4 162.2 83.5 160.8Q84.6 159.4 84.6 157.0L84.6 157.0Q84.6 154.6 83.5 153.1Q82.4 151.7 80.6 151.7L80.6 151.7Q78.7 151.7 77.6 153.1Q76.5 154.5 76.5 157.0L76.5 157.0Q76.5 159.4 77.6 160.8Q78.7 162.2 80.6 162.2ZM95.5 164.9L95.5 164.9Q93.3 164.9 91.8 163.6Q90.4 162.3 90.4 160.3L90.4 160.3Q90.4 158.3 91.9 157.1Q93.4 155.9 96.1 155.7L96.1 155.7L100.4 155.5L100.4 154.3Q100.4 153.0 99.5 152.3Q98.7 151.6 97.3 151.6L97.3 151.6Q96.1 151.6 95.3 152.0Q94.5 152.5 93.9 153.5L93.9 153.5Q93.4 154.2 92.6 154.2L92.6 154.2Q92.0 154.2 91.6 153.8Q91.2 153.4 91.2 152.9L91.2 152.9Q91.2 152.3 91.5 151.8L91.5 151.8Q92.1 150.5 93.7 149.8Q95.3 149.0 97.4 149.0L97.4 149.0Q100.2 149.0 101.9 150.4Q103.5 151.7 103.5 154.0L103.5 154.0L103.5 163.3Q103.5 164.1 103.1 164.5Q102.7 164.9 102.0 164.9L102.0 164.9Q101.3 164.9 100.9 164.5Q100.5 164.1 100.5 163.4L100.5 163.4L100.5 162.1L100.4 162.1Q99.8 163.4 98.4 164.2Q97.1 164.9 95.5 164.9ZM96.4 162.4L96.4 162.4Q98.1 162.4 99.2 161.4Q100.4 160.4 100.4 158.9L100.4 158.9L100.4 157.7L96.6 157.9Q95.1 158.0 94.4 158.6Q93.6 159.2 93.6 160.2L93.6 160.2Q93.6 161.2 94.4 161.8Q95.2 162.4 96.4 162.4ZM108.5 170.4L108.5 170.4Q107.4 170.4 106.8 170.0Q106.2 169.6 106.2 168.9L106.2 168.9Q106.2 168.4 106.5 168.1Q106.9 167.8 107.4 167.8L107.4 167.8Q107.6 167.8 107.8 167.8Q108.1 167.8 108.3 167.8L108.3 167.8Q109.9 167.8 110.6 165.7L110.6 165.7L110.9 164.8L105.7 151.3Q105.6 150.9 105.6 150.4L105.6 150.4Q105.6 149.8 106.0 149.4Q106.5 149.0 107.2 149.0L107.2 149.0Q107.8 149.0 108.1 149.3Q108.5 149.5 108.7 150.2L108.7 150.2L112.6 161.8L112.7 161.8L116.6 150.2Q116.8 149.5 117.2 149.3Q117.5 149.0 118.1 149.0L118.1 149.0Q118.8 149.0 119.2 149.4Q119.7 149.8 119.7 150.4L119.7 150.4Q119.7 150.8 119.5 151.3L119.5 151.3L114.2 165.4Q113.1 168.2 111.9 169.3Q110.6 170.4 108.5 170.4Z M135.9 165.1L135.9 165.1Q133.4 165.1 131.6 163.9Q129.7 162.6 128.7 160.3L128.7 160.3Q127.6 157.9 127.6 154.4L127.6 154.4Q127.6 149.1 129.8 146.1Q132.0 143.1 136.0 143.1L136.0 143.1Q138.2 143.1 139.9 144.0Q141.7 144.9 142.5 146.5L142.5 146.5Q142.9 147.1 142.9 147.7L142.9 147.7Q142.9 148.3 142.5 148.7Q142.1 149.1 141.4 149.1L141.4 149.1Q141.0 149.1 140.6 148.8Q140.2 148.6 139.8 148.0L139.8 148.0Q138.4 145.9 136.0 145.9L136.0 145.9Q133.5 145.9 132.1 148.0Q130.8 150.1 130.7 154.0L130.7 154.0L130.7 154.2L130.8 154.2Q131.4 152.7 133.0 151.7Q134.6 150.8 136.6 150.8L136.6 150.8Q139.7 150.8 141.6 152.8Q143.6 154.7 143.6 157.8L143.6 157.8Q143.6 160.9 141.4 163.0Q139.2 165.1 135.9 165.1ZM135.8 162.3L135.8 162.3Q137.7 162.3 139.0 161.0Q140.3 159.7 140.3 157.9L140.3 157.9Q140.3 155.9 139.1 154.7Q137.8 153.5 135.9 153.5Q133.9 153.5 132.6 154.7Q131.4 155.9 131.4 157.8L131.4 157.8Q131.4 159.7 132.7 161.0Q134.0 162.3 135.8 162.3Z M160.2 164.7L154.4 164.7Q153.6 164.7 153.2 164.2Q152.7 163.8 152.7 163.0L152.7 163.0L152.7 145.2Q152.7 144.4 153.2 144.0Q153.6 143.5 154.4 143.5L154.4 143.5L160.2 143.5Q164.9 143.5 167.6 146.3Q170.2 149.1 170.2 154.1L170.2 154.1Q170.2 159.1 167.6 161.9Q164.9 164.7 160.2 164.7L160.2 164.7ZM156.0 146.4L156.0 161.8L159.9 161.8Q163.3 161.8 165.1 159.8Q166.9 157.8 166.9 154.1L166.9 154.1Q166.9 150.4 165.1 148.4Q163.3 146.4 159.9 146.4L159.9 146.4L156.0 146.4ZM179.6 165.0L179.6 165.0Q176.1 165.0 174.2 162.9Q172.3 160.8 172.3 157.0L172.3 157.0Q172.3 153.4 174.2 151.2Q176.1 149.0 179.4 149.0L179.4 149.0Q182.5 149.0 184.4 151.0Q186.3 153.0 186.3 156.1L186.3 156.1Q186.3 156.9 185.9 157.3Q185.5 157.8 184.8 157.8L184.8 157.8L175.5 157.8L175.5 157.8Q175.5 159.9 176.6 161.2Q177.7 162.4 179.6 162.4L179.6 162.4Q180.8 162.4 181.8 161.9Q182.7 161.4 183.5 160.2L183.5 160.2Q184.0 159.6 184.7 159.6L184.7 159.6Q185.2 159.6 185.6 160.0Q186.0 160.3 186.0 160.9L186.0 160.9Q186.0 161.3 185.8 161.8L185.8 161.8Q185.0 163.3 183.4 164.1Q181.8 165.0 179.6 165.0ZM175.5 155.5L175.5 155.5L183.2 155.5Q183.1 153.7 182.1 152.6Q181.0 151.5 179.4 151.5L179.4 151.5Q177.8 151.5 176.7 152.6Q175.6 153.7 175.5 155.5ZM195.4 165.0L195.4 165.0Q192.1 165.0 190.1 162.8Q188.1 160.7 188.1 157.0L188.1 157.0Q188.1 153.3 190.1 151.2Q192.1 149.0 195.3 149.0L195.3 149.0Q197.6 149.0 199.3 150.0Q201.0 151.1 201.5 152.7L201.5 152.7Q201.7 153.1 201.7 153.4L201.7 153.4Q201.7 154.0 201.3 154.4Q200.9 154.7 200.3 154.7L200.3 154.7Q199.8 154.7 199.5 154.5Q199.2 154.3 198.9 153.8L198.9 153.8Q198.3 152.7 197.5 152.1Q196.6 151.6 195.4 151.6L195.4 151.6Q193.5 151.6 192.4 153.1Q191.3 154.5 191.3 157.0L191.3 157.0Q191.3 159.4 192.4 160.9Q193.5 162.3 195.4 162.3L195.4 162.3Q197.7 162.3 198.9 160.2L198.9 160.2Q199.2 159.6 199.6 159.4Q199.9 159.2 200.4 159.2L200.4 159.2Q201.0 159.2 201.3 159.6Q201.7 159.9 201.7 160.5L201.7 160.5Q201.7 160.9 201.5 161.3L201.5 161.3Q200.9 162.9 199.2 163.9Q197.5 165.0 195.4 165.0ZM211.0 165.0L211.0 165.0Q207.5 165.0 205.5 162.9Q203.6 160.8 203.6 157.0L203.6 157.0Q203.6 153.4 205.5 151.2Q207.5 149.0 210.7 149.0L210.7 149.0Q213.8 149.0 215.7 151.0Q217.7 153.0 217.7 156.1L217.7 156.1Q217.7 156.9 217.3 157.3Q216.8 157.8 216.1 157.8L216.1 157.8L206.8 157.8L206.8 157.8Q206.8 159.9 207.9 161.2Q209.0 162.4 210.9 162.4L210.9 162.4Q212.2 162.4 213.1 161.9Q214.0 161.4 214.9 160.2L214.9 160.2Q215.3 159.6 216.0 159.6L216.0 159.6Q216.6 159.6 216.9 160.0Q217.3 160.3 217.3 160.9L217.3 160.9Q217.3 161.3 217.1 161.8L217.1 161.8Q216.3 163.3 214.7 164.1Q213.1 165.0 211.0 165.0ZM206.8 155.5L206.8 155.5L214.5 155.5Q214.4 153.7 213.4 152.6Q212.4 151.5 210.7 151.5L210.7 151.5Q209.1 151.5 208.0 152.6Q206.9 153.7 206.8 155.5ZM222.8 164.5Q222.4 164.9 221.7 164.9Q221.0 164.9 220.5 164.5Q220.1 164.0 220.1 163.3L220.1 163.3L220.1 150.6Q220.1 149.9 220.5 149.4Q221.0 149.0 221.6 149.0Q222.3 149.0 222.7 149.4Q223.1 149.8 223.1 150.6L223.1 150.6L223.1 151.8L223.2 151.8Q223.7 150.5 224.9 149.8Q226.0 149.0 227.6 149.0L227.6 149.0Q229.2 149.0 230.3 149.8Q231.4 150.6 231.9 152.0L231.9 152.0L232.0 152.0Q232.6 150.6 233.9 149.8Q235.1 149.0 236.8 149.0L236.8 149.0Q239.1 149.0 240.4 150.4Q241.8 151.8 241.8 154.1L241.8 154.1L241.8 163.3Q241.8 164.0 241.4 164.5Q240.9 164.9 240.2 164.9Q239.5 164.9 239.1 164.5Q238.6 164.0 238.6 163.3L238.6 163.3L238.6 154.8Q238.6 153.3 237.9 152.5Q237.1 151.7 235.7 151.7Q234.3 151.7 233.4 152.6Q232.5 153.6 232.5 155.0L232.5 155.0L232.5 163.3Q232.5 164.0 232.1 164.5Q231.7 164.9 231.0 164.9Q230.2 164.9 229.8 164.5Q229.4 164.0 229.4 163.3L229.4 163.3L229.4 154.6Q229.4 153.3 228.6 152.5Q227.8 151.7 226.5 151.7L226.5 151.7Q225.1 151.7 224.2 152.7Q223.3 153.6 223.3 155.1L223.3 155.1L223.3 163.3Q223.3 164.0 222.8 164.5ZM246.5 164.9L246.5 164.9Q245.8 164.9 245.4 164.5Q245.0 164.1 245.0 163.4L245.0 163.4L245.0 144.9Q245.0 144.2 245.4 143.7Q245.9 143.2 246.6 143.2Q247.3 143.2 247.7 143.7Q248.1 144.2 248.1 144.9L248.1 144.9L248.1 151.9L248.2 151.9Q248.9 150.5 250.2 149.8Q251.5 149.0 253.1 149.0L253.1 149.0Q256.0 149.0 257.8 151.2Q259.5 153.3 259.5 157.0L259.5 157.0Q259.5 160.6 257.8 162.8Q256.0 164.9 253.1 164.9L253.1 164.9Q251.4 164.9 250.1 164.2Q248.8 163.4 248.1 162.0L248.1 162.0L248.1 162.0L248.1 163.4Q248.1 164.1 247.6 164.5Q247.2 164.9 246.5 164.9ZM252.2 162.2L252.2 162.2Q254.1 162.2 255.2 160.8Q256.3 159.4 256.3 157.0L256.3 157.0Q256.3 154.5 255.2 153.1Q254.1 151.7 252.2 151.7L252.2 151.7Q250.4 151.7 249.3 153.1Q248.1 154.6 248.1 157.0L248.1 157.0Q248.1 159.3 249.3 160.8Q250.4 162.2 252.2 162.2ZM268.6 165.0L268.6 165.0Q265.1 165.0 263.2 162.9Q261.3 160.8 261.3 157.0L261.3 157.0Q261.3 153.4 263.2 151.2Q265.1 149.0 268.4 149.0L268.4 149.0Q271.5 149.0 273.4 151.0Q275.3 153.0 275.3 156.1L275.3 156.1Q275.3 156.9 274.9 157.3Q274.5 157.8 273.8 157.8L273.8 157.8L264.5 157.8L264.5 157.8Q264.5 159.9 265.6 161.2Q266.7 162.4 268.6 162.4L268.6 162.4Q269.8 162.4 270.8 161.9Q271.7 161.4 272.5 160.2L272.5 160.2Q273.0 159.6 273.7 159.6L273.7 159.6Q274.2 159.6 274.6 160.0Q275.0 160.3 275.0 160.9L275.0 160.9Q275.0 161.3 274.8 161.8L274.8 161.8Q274.0 163.3 272.4 164.1Q270.8 165.0 268.6 165.0ZM264.5 155.5L264.5 155.5L272.2 155.5Q272.1 153.7 271.1 152.6Q270.1 151.5 268.4 151.5L268.4 151.5Q266.8 151.5 265.7 152.6Q264.6 153.7 264.5 155.5ZM279.4 164.9L279.4 164.9Q278.7 164.9 278.2 164.5Q277.8 164.0 277.8 163.3L277.8 163.3L277.8 150.6Q277.8 149.9 278.2 149.4Q278.6 149.0 279.3 149.0L279.3 149.0Q280.0 149.0 280.4 149.4Q280.8 149.9 280.8 150.6L280.8 150.6L280.8 151.9L280.9 151.9Q281.2 150.6 282.1 149.8Q283.1 149.0 284.2 149.0L284.2 149.0Q285.1 149.0 285.5 149.4L285.5 149.4Q285.9 149.7 285.9 150.5L285.9 150.5Q285.9 151.2 285.4 151.6L285.4 151.6Q285.0 152.0 284.0 152.0L284.0 152.0Q282.4 152.0 281.7 153.0Q281.0 153.9 281.0 155.4L281.0 155.4L281.0 163.3Q281.0 164.0 280.5 164.5Q280.1 164.9 279.4 164.9Z M307.0 164.7L295.3 164.7Q294.5 164.7 294.1 164.3Q293.7 163.9 293.7 163.3L293.7 163.3Q293.7 162.8 293.9 162.5Q294.1 162.1 294.6 161.6L294.6 161.6L301.2 154.9Q303.3 152.8 304.0 151.7Q304.7 150.6 304.7 149.3L304.7 149.3Q304.7 147.8 303.6 146.8Q302.6 145.8 301.0 145.8L301.0 145.8Q297.9 145.8 296.7 149.0L296.7 149.0Q296.5 149.5 296.2 149.8Q295.8 150.0 295.3 150.0L295.3 150.0Q294.6 150.0 294.2 149.6Q293.8 149.3 293.8 148.6L293.8 148.6Q293.8 148.3 293.9 148.0L293.9 148.0Q294.1 147.1 294.6 146.3Q295.2 145.4 296.0 144.7Q296.9 144.0 298.2 143.6Q299.5 143.1 301.0 143.1L301.0 143.1Q304.0 143.1 306.0 144.8Q307.9 146.5 307.9 149.1L307.9 149.1Q307.9 150.9 306.9 152.5Q305.9 154.0 303.2 156.8L303.2 156.8L298.2 161.8L298.2 161.9L307.0 161.9Q307.6 161.9 308.0 162.3Q308.4 162.7 308.4 163.3L308.4 163.3Q308.4 163.9 308.0 164.3Q307.6 164.7 307.0 164.7L307.0 164.7ZM324.8 162.1Q322.7 165.1 318.9 165.1Q315.1 165.1 312.9 162.1Q310.8 159.2 310.8 154.1L310.8 154.1Q310.8 149.0 313.0 146.1Q315.1 143.1 318.9 143.1L318.9 143.1Q322.7 143.1 324.8 146.1Q327.0 149.0 327.0 154.1L327.0 154.1Q327.0 159.1 324.8 162.1ZM318.9 162.3L318.9 162.3Q321.2 162.3 322.4 160.1Q323.7 157.9 323.7 154.1L323.7 154.1Q323.7 150.3 322.4 148.1Q321.1 145.9 318.9 145.9Q316.6 145.9 315.4 148.1Q314.1 150.3 314.1 154.1L314.1 154.1Q314.1 157.9 315.4 160.1Q316.6 162.3 318.9 162.3ZM343.0 164.7L331.4 164.7Q330.6 164.7 330.2 164.3Q329.8 163.9 329.8 163.3L329.8 163.3Q329.8 162.8 330.0 162.5Q330.2 162.1 330.7 161.6L330.7 161.6L337.3 154.9Q339.4 152.8 340.1 151.7Q340.8 150.6 340.8 149.3L340.8 149.3Q340.8 147.8 339.7 146.8Q338.7 145.8 337.1 145.8L337.1 145.8Q334.0 145.8 332.8 149.0L332.8 149.0Q332.6 149.5 332.3 149.8Q331.9 150.0 331.4 150.0L331.4 150.0Q330.7 150.0 330.3 149.6Q329.9 149.3 329.9 148.6L329.9 148.6Q329.9 148.3 330.0 148.0L330.0 148.0Q330.2 147.1 330.7 146.3Q331.3 145.4 332.1 144.7Q333.0 144.0 334.3 143.6Q335.6 143.1 337.1 143.1L337.1 143.1Q340.1 143.1 342.1 144.8Q344.0 146.5 344.0 149.1L344.0 149.1Q344.0 150.9 343.0 152.5Q342.0 154.0 339.3 156.8L339.3 156.8L334.3 161.8L334.3 161.9L343.0 161.9Q343.7 161.9 344.1 162.3Q344.5 162.7 344.5 163.3L344.5 163.3Q344.5 163.9 344.1 164.3Q343.7 164.7 343.0 164.7L343.0 164.7ZM358.9 164.9L358.9 164.9Q358.2 164.9 357.7 164.5Q357.3 164.0 357.3 163.3L357.3 163.3L357.3 160.5L348.6 160.5Q347.7 160.5 347.2 160.0Q346.7 159.4 346.7 158.6L346.7 158.6Q346.7 157.6 347.4 156.3L347.4 156.3Q349.3 153.0 354.3 145.7L354.3 145.7Q355.2 144.3 356.0 143.8Q356.7 143.2 357.8 143.2L357.8 143.2Q359.0 143.2 359.7 143.9Q360.4 144.5 360.4 145.7L360.4 145.7L360.4 157.7L362.1 157.7Q362.8 157.7 363.2 158.1Q363.6 158.5 363.6 159.1Q363.6 159.7 363.2 160.1Q362.8 160.5 362.1 160.5L362.1 160.5L360.4 160.5L360.4 163.3Q360.4 164.0 360.0 164.5Q359.6 164.9 358.9 164.9ZM349.8 157.8L357.3 157.8L357.3 146.1L357.3 146.1Q351.9 153.9 349.8 157.7L349.8 157.7L349.8 157.8Z "/><mask id="satori_om-id-0-0-1"><rect x="40" y="217" width="1120" height="83" fill="#fff"/></mask><path fill="#224d67" d="M45.6 280.1L45.6 280.1Q43.8 280.1 42.8 279.1Q41.8 278.2 41.8 276.6L41.8 276.6Q41.8 275.6 42.3 274.3L42.3 274.3L54.5 240.9Q55.3 238.8 56.6 237.8Q58.0 236.8 60.0 236.8L60.0 236.8Q62.1 236.8 63.4 237.8Q64.8 238.7 65.5 240.9L65.5 240.9L77.9 274.3Q78.3 275.7 78.3 276.6L78.3 276.6Q78.3 278.1 77.3 279.1Q76.2 280.1 74.6 280.1L74.6 280.1Q73.0 280.1 72.1 279.3Q71.2 278.6 70.7 276.9L70.7 276.9L67.9 268.8L52.1 268.8L49.3 276.8Q48.8 278.6 47.9 279.3Q47.0 280.1 45.6 280.1ZM59.9 244.8L53.9 262.8L66.1 262.8L60.1 244.8L59.9 244.8ZM94.7 280.1L94.7 280.1Q88.8 280.1 85.3 275.7Q81.8 271.4 81.8 264.0L81.8 264.0Q81.8 256.7 85.3 252.3Q88.8 248.0 94.7 248.0L94.7 248.0Q98.0 248.0 100.5 249.5Q103.0 251.1 104.3 253.7L104.3 253.7L104.5 253.7L104.5 240.6Q104.5 238.7 105.5 237.7Q106.5 236.7 108.1 236.7Q109.8 236.7 110.8 237.7Q111.8 238.7 111.8 240.6L111.8 240.6L111.8 276.5Q111.8 278.2 110.8 279.2Q109.8 280.2 108.2 280.2L108.2 280.2Q106.5 280.2 105.5 279.2Q104.5 278.2 104.5 276.5L104.5 276.5L104.5 274.1L104.3 274.1Q103.2 276.9 100.7 278.5Q98.2 280.1 94.7 280.1ZM96.9 274.1L96.9 274.1Q100.4 274.1 102.4 271.4Q104.5 268.7 104.5 264.1L104.5 264.1Q104.5 259.5 102.4 256.7Q100.4 254.0 96.9 254.0L96.9 254.0Q93.4 254.0 91.3 256.7Q89.3 259.4 89.3 264.1L89.3 264.1Q89.3 268.7 91.3 271.4Q93.3 274.1 96.9 274.1ZM129.5 280.1L129.5 280.1Q123.6 280.1 120.1 275.7Q116.6 271.4 116.6 264.0L116.6 264.0Q116.6 256.7 120.1 252.3Q123.6 248.0 129.5 248.0L129.5 248.0Q132.8 248.0 135.3 249.5Q137.9 251.1 139.1 253.7L139.1 253.7L139.3 253.7L139.3 240.6Q139.3 238.7 140.3 237.7Q141.3 236.7 142.9 236.7Q144.6 236.7 145.6 237.7Q146.6 238.7 146.6 240.6L146.6 240.6L146.6 276.5Q146.6 278.2 145.6 279.2Q144.6 280.2 143.0 280.2L143.0 280.2Q141.3 280.2 140.3 279.2Q139.3 278.2 139.3 276.5L139.3 276.5L139.3 274.1L139.1 274.1Q138.0 276.9 135.5 278.5Q133.0 280.1 129.5 280.1ZM131.7 274.1L131.7 274.1Q135.2 274.1 137.2 271.4Q139.3 268.7 139.3 264.1L139.3 264.1Q139.3 259.5 137.2 256.7Q135.2 254.0 131.7 254.0L131.7 254.0Q128.2 254.0 126.1 256.7Q124.1 259.4 124.1 264.1L124.1 264.1Q124.1 268.7 126.1 271.4Q128.2 274.1 131.7 274.1ZM159.4 243.0Q158.2 244.2 156.5 244.2Q154.8 244.2 153.6 243.0Q152.5 241.8 152.5 240.2L152.5 240.2Q152.5 238.5 153.6 237.4Q154.8 236.2 156.5 236.2L156.5 236.2Q158.2 236.2 159.4 237.4Q160.6 238.5 160.6 240.2L160.6 240.2Q160.6 241.8 159.4 243.0ZM159.2 279.1Q158.2 280.2 156.5 280.2Q154.8 280.2 153.9 279.1Q152.9 278.1 152.9 276.3L152.9 276.3L152.9 251.7Q152.9 250.0 153.9 248.9Q154.8 247.9 156.5 247.9Q158.2 247.9 159.2 248.9Q160.2 250.0 160.2 251.8L160.2 251.8L160.2 276.3Q160.2 278.1 159.2 279.1ZM172.6 279.2Q171.6 280.2 169.9 280.2Q168.3 280.2 167.3 279.2Q166.3 278.1 166.3 276.3L166.3 276.3L166.3 251.6Q166.3 249.9 167.2 248.9Q168.2 247.9 169.8 247.9Q171.4 247.9 172.4 248.9Q173.4 249.9 173.4 251.6L173.4 251.6L173.4 253.8L173.5 253.8Q176.2 247.9 183.2 247.9L183.2 247.9Q188.3 247.9 191.1 251.0Q194.0 254.1 194.0 259.5L194.0 259.5L194.0 276.3Q194.0 278.1 193.0 279.2Q192.0 280.2 190.3 280.2Q188.7 280.2 187.7 279.2Q186.7 278.1 186.7 276.3L186.7 276.3L186.7 261.0Q186.7 257.6 185.1 255.9Q183.5 254.1 180.4 254.1L180.4 254.1Q177.3 254.1 175.5 256.2Q173.6 258.2 173.6 261.6L173.6 261.6L173.6 276.3Q173.6 278.1 172.6 279.2ZM213.2 291.3L213.2 291.3Q208.8 291.2 205.5 289.7Q202.2 288.2 200.6 285.6L200.6 285.6Q200.0 284.6 200.0 283.4L200.0 283.4Q200.0 282.2 200.8 281.4Q201.6 280.6 203.0 280.6L203.0 280.6Q204.4 280.6 205.7 281.8L205.7 281.8Q207.5 283.7 209.3 284.6Q211.1 285.4 213.2 285.5L213.2 285.5Q216.9 285.5 219.0 283.6Q221.1 281.7 221.1 278.6L221.1 278.6L221.1 273.7L221.0 273.7Q219.8 276.2 217.2 277.7Q214.6 279.3 211.3 279.3L211.3 279.3Q205.4 279.3 202.0 275.0Q198.5 270.8 198.5 263.7L198.5 263.7Q198.5 256.4 202.0 252.2Q205.4 248.0 211.4 248.0L211.4 248.0Q214.7 248.0 217.2 249.5Q219.7 251.1 221.1 253.8L221.1 253.8L221.2 253.8L221.2 251.6Q221.2 249.9 222.2 248.9Q223.2 247.9 224.8 247.9Q226.4 247.9 227.5 248.9Q228.5 249.9 228.5 251.6L228.5 251.6L228.5 278.6Q228.5 284.5 224.4 287.9Q220.3 291.3 213.2 291.3ZM213.5 273.6L213.5 273.6Q217.0 273.6 219.1 270.9Q221.2 268.3 221.2 263.7L221.2 263.7Q221.2 259.2 219.1 256.5Q217.0 253.8 213.5 253.8L213.5 253.8Q210.0 253.8 208.0 256.5Q206.0 259.2 206.0 263.7L206.0 263.7Q206.0 268.3 208.0 271.0Q210.0 273.6 213.5 273.6Z M259.6 280.1L259.6 280.1Q257.8 280.1 256.8 279.2Q255.7 278.3 255.2 276.3L255.2 276.3L245.8 242.6Q245.4 241.3 245.4 240.2L245.4 240.2Q245.4 238.7 246.4 237.7Q247.5 236.8 249.2 236.8L249.2 236.8Q252.1 236.8 252.8 240.0L252.8 240.0L259.9 269.3L260.1 269.3L267.9 240.4Q268.3 238.5 269.3 237.7Q270.3 236.8 272.0 236.8L272.0 236.8Q275.1 236.8 276.0 240.3L276.0 240.3L283.8 269.3L284.0 269.3L291.1 240.0Q291.8 236.8 294.7 236.8L294.7 236.8Q296.4 236.8 297.4 237.7Q298.5 238.7 298.5 240.2L298.5 240.2Q298.5 241.2 298.1 242.6L298.1 242.6L288.7 276.3Q288.1 278.3 287.1 279.2Q286.1 280.1 284.4 280.1L284.4 280.1Q282.5 280.1 281.5 279.2Q280.5 278.3 279.9 276.3L279.9 276.3L272.1 249.0L271.8 249.0L264.0 276.3Q263.4 278.3 262.4 279.2Q261.3 280.1 259.6 280.1ZM317.2 280.2L317.2 280.2Q310.1 280.2 306.1 276.0Q302.1 271.7 302.1 264.2L302.1 264.2Q302.1 256.7 306.1 252.3Q310.1 247.9 316.8 247.9L316.8 247.9Q323.2 247.9 327.2 251.9Q331.1 256.0 331.1 262.4L331.1 262.4Q331.1 264.0 330.2 264.9Q329.3 265.8 327.7 265.8L327.7 265.8L309.4 265.8L309.4 266.0Q309.4 269.9 311.5 272.3Q313.6 274.6 317.2 274.6L317.2 274.6Q319.6 274.6 321.4 273.6Q323.2 272.7 324.9 270.4L324.9 270.4Q326.0 269.3 327.4 269.3L327.4 269.3Q328.7 269.3 329.5 270.0Q330.3 270.8 330.3 272.1L330.3 272.1Q330.3 272.9 329.8 273.9L329.8 273.9Q328.3 276.9 325.0 278.5Q321.7 280.2 317.2 280.2ZM309.5 261.0L309.5 261.0L324.0 261.0Q323.9 257.6 321.9 255.6Q319.9 253.5 316.9 253.5Q313.8 253.5 311.7 255.6Q309.7 257.7 309.5 261.0ZM342.2 279.2Q341.2 280.2 339.6 280.2Q337.9 280.2 337.0 279.2Q336.0 278.3 336.0 276.5L336.0 276.5L336.0 240.6Q336.0 238.7 337.0 237.7Q338.0 236.7 339.7 236.7Q341.3 236.7 342.3 237.7Q343.3 238.7 343.3 240.6L343.3 240.6L343.3 253.9L343.5 253.9Q344.8 251.1 347.4 249.5Q349.9 248.0 353.2 248.0L353.2 248.0Q359.1 248.0 362.6 252.3Q366.0 256.6 366.0 264.1L366.0 264.1Q366.0 271.5 362.6 275.8Q359.1 280.1 353.2 280.1L353.2 280.1Q349.8 280.1 347.3 278.6Q344.7 277.0 343.3 274.3L343.3 274.3L343.2 274.3L343.2 276.5Q343.2 278.2 342.2 279.2ZM351.0 274.1L351.0 274.1Q354.4 274.1 356.5 271.4Q358.5 268.7 358.5 264.1Q358.5 259.4 356.5 256.7Q354.4 254.0 351.0 254.0L351.0 254.0Q347.6 254.0 345.4 256.8Q343.3 259.5 343.3 264.1L343.3 264.1Q343.3 268.6 345.4 271.3Q347.6 274.1 351.0 274.1ZM374.3 280.2L374.3 280.2Q372.7 280.2 371.7 279.2Q370.7 278.1 370.7 276.3L370.7 276.3L370.7 251.6Q370.7 249.9 371.7 248.9Q372.6 247.9 374.2 247.9Q375.8 247.9 376.7 248.9Q377.7 249.9 377.7 251.6L377.7 251.6L377.7 253.9L377.9 253.9Q378.9 251.2 381.2 249.5Q383.6 247.9 386.7 247.9L386.7 247.9Q390.0 247.9 392.3 249.6Q394.5 251.2 395.4 254.2L395.4 254.2L395.5 254.2Q396.7 251.3 399.3 249.6Q401.8 247.9 405.2 247.9L405.2 247.9Q409.8 247.9 412.6 250.8Q415.4 253.6 415.4 258.3L415.4 258.3L415.4 276.3Q415.4 278.1 414.4 279.1Q413.4 280.2 411.7 280.2L411.7 280.2Q410.0 280.2 409.1 279.1Q408.1 278.1 408.1 276.3L408.1 276.3L408.1 260.1Q408.1 257.2 406.6 255.6Q405.2 254.1 402.5 254.1L402.5 254.1Q399.9 254.1 398.2 255.8Q396.6 257.6 396.6 260.4L396.6 260.4L396.6 276.3Q396.6 278.1 395.6 279.2Q394.7 280.2 393.0 280.2L393.0 280.2Q391.4 280.2 390.4 279.2Q389.5 278.1 389.5 276.3L389.5 276.3L389.5 259.7Q389.5 257.1 388.0 255.6Q386.5 254.1 384.0 254.1L384.0 254.1Q381.3 254.1 379.7 255.9Q378.0 257.8 378.0 260.6L378.0 260.6L378.0 276.3Q378.0 278.1 377.0 279.1Q376.0 280.2 374.3 280.2ZM435.0 280.2L435.0 280.2Q427.9 280.2 423.9 276.0Q419.9 271.7 419.9 264.2L419.9 264.2Q419.9 256.7 423.9 252.3Q427.9 247.9 434.6 247.9L434.6 247.9Q440.9 247.9 444.9 251.9Q448.9 256.0 448.9 262.4L448.9 262.4Q448.9 264.0 448.0 264.9Q447.1 265.8 445.5 265.8L445.5 265.8L427.2 265.8L427.2 266.0Q427.2 269.9 429.3 272.3Q431.4 274.6 434.9 274.6L434.9 274.6Q437.4 274.6 439.2 273.6Q440.9 272.7 442.7 270.4L442.7 270.4Q443.7 269.3 445.1 269.3L445.1 269.3Q446.4 269.3 447.2 270.0Q448.1 270.8 448.1 272.1L448.1 272.1Q448.1 272.9 447.6 273.9L447.6 273.9Q446.0 276.9 442.7 278.5Q439.4 280.2 435.0 280.2ZM427.2 261.0L427.2 261.0L441.7 261.0Q441.6 257.6 439.6 255.6Q437.7 253.5 434.6 253.5Q431.5 253.5 429.5 255.6Q427.4 257.7 427.2 261.0ZM459.8 279.2Q458.8 280.2 457.2 280.2Q455.5 280.2 454.6 279.2Q453.6 278.1 453.6 276.3L453.6 276.3L453.6 251.6Q453.6 249.9 454.5 248.9Q455.4 247.9 457.0 247.9Q458.7 247.9 459.6 248.9Q460.6 249.9 460.6 251.6L460.6 251.6L460.6 253.8L460.8 253.8Q463.4 247.9 470.5 247.9L470.5 247.9Q475.6 247.9 478.4 251.0Q481.2 254.1 481.2 259.5L481.2 259.5L481.2 276.3Q481.2 278.1 480.2 279.2Q479.2 280.2 477.6 280.2Q475.9 280.2 474.9 279.2Q473.9 278.1 473.9 276.3L473.9 276.3L473.9 261.0Q473.9 257.6 472.3 255.9Q470.8 254.1 467.7 254.1L467.7 254.1Q464.6 254.1 462.7 256.2Q460.8 258.2 460.8 261.6L460.8 261.6L460.8 276.3Q460.8 278.1 459.8 279.2ZM489.1 271.9L489.1 271.9L489.1 254.1L487.1 254.1Q485.8 254.1 485.0 253.4Q484.2 252.6 484.2 251.3L484.2 251.3Q484.2 250.0 484.9 249.3Q485.7 248.5 487.1 248.5L487.1 248.5L489.1 248.5L489.1 244.4Q489.1 242.6 490.0 241.6Q491.0 240.6 492.7 240.6L492.7 240.6Q494.4 240.6 495.4 241.6Q496.4 242.6 496.4 244.4L496.4 244.4L496.4 248.5L499.7 248.5Q501.1 248.5 501.9 249.3Q502.7 250.0 502.7 251.3L502.7 251.3Q502.7 252.6 501.9 253.4Q501.1 254.1 499.7 254.1L499.7 254.1L496.4 254.1L496.4 270.3Q496.4 272.1 497.0 272.9Q497.7 273.7 499.3 273.9L499.3 273.9L499.8 273.9Q502.7 274.2 502.7 276.6L502.7 276.6Q502.7 278.2 501.4 279.1Q500.0 279.9 497.5 279.9L497.5 279.9L497.2 279.9Q489.1 279.9 489.1 271.9ZM513.9 243.0Q512.7 244.2 511.0 244.2Q509.3 244.2 508.1 243.0Q506.9 241.8 506.9 240.2L506.9 240.2Q506.9 238.5 508.1 237.4Q509.3 236.2 511.0 236.2L511.0 236.2Q512.7 236.2 513.9 237.4Q515.0 238.5 515.0 240.2L515.0 240.2Q515.0 241.8 513.9 243.0ZM513.6 279.1Q512.6 280.2 511.0 280.2Q509.3 280.2 508.3 279.1Q507.3 278.1 507.3 276.3L507.3 276.3L507.3 251.7Q507.3 250.0 508.3 248.9Q509.3 247.9 511.0 247.9Q512.6 247.9 513.6 248.9Q514.6 250.0 514.6 251.8L514.6 251.8L514.6 276.3Q514.6 278.1 513.6 279.1ZM545.5 275.9Q541.4 280.2 534.5 280.2Q527.6 280.2 523.5 275.9Q519.5 271.6 519.5 264.1L519.5 264.1Q519.5 256.6 523.6 252.2Q527.7 247.9 534.5 247.9L534.5 247.9Q541.4 247.9 545.4 252.2Q549.5 256.6 549.5 264.1L549.5 264.1Q549.5 271.6 545.5 275.9ZM528.9 271.7Q531.0 274.4 534.5 274.4Q538.0 274.4 540.1 271.7Q542.1 269.0 542.1 264.1L542.1 264.1Q542.1 259.2 540.1 256.4Q538.0 253.7 534.5 253.7L534.5 253.7Q531.0 253.7 529.0 256.4Q526.9 259.2 526.9 264.1L526.9 264.1Q526.9 269.0 528.9 271.7ZM560.5 279.2Q559.5 280.2 557.9 280.2Q556.2 280.2 555.2 279.2Q554.2 278.1 554.2 276.3L554.2 276.3L554.2 251.6Q554.2 249.9 555.2 248.9Q556.1 247.9 557.7 247.9Q559.3 247.9 560.3 248.9Q561.3 249.9 561.3 251.6L561.3 251.6L561.3 253.8L561.5 253.8Q564.1 247.9 571.1 247.9L571.1 247.9Q576.2 247.9 579.0 251.0Q581.9 254.1 581.9 259.5L581.9 259.5L581.9 276.3Q581.9 278.1 580.9 279.2Q579.9 280.2 578.2 280.2Q576.6 280.2 575.6 279.2Q574.6 278.1 574.6 276.3L574.6 276.3L574.6 261.0Q574.6 257.6 573.0 255.9Q571.4 254.1 568.4 254.1L568.4 254.1Q565.2 254.1 563.4 256.2Q561.5 258.2 561.5 261.6L561.5 261.6L561.5 276.3Q561.5 278.1 560.5 279.2ZM599.7 280.2L599.7 280.2Q594.9 280.2 591.5 278.5Q588.2 276.8 587.0 274.0L587.0 274.0Q586.7 273.2 586.7 272.5L586.7 272.5Q586.7 271.2 587.6 270.4Q588.4 269.6 589.8 269.6L589.8 269.6Q591.6 269.6 592.9 271.4L592.9 271.4Q594.2 273.3 595.8 274.1Q597.4 274.9 600.0 274.9L600.0 274.9Q602.5 274.9 604.1 273.9Q605.6 272.8 605.6 271.1L605.6 271.1Q605.6 269.7 604.6 268.8Q603.6 268.0 601.2 267.4L601.2 267.4L596.2 266.3Q587.1 264.3 587.1 257.4L587.1 257.4Q587.1 253.1 590.6 250.5Q594.1 247.9 599.8 247.9L599.8 247.9Q604.2 247.9 607.4 249.8Q610.6 251.6 611.4 254.4L611.4 254.4Q611.5 255.0 611.5 255.5L611.5 255.5Q611.5 256.6 610.8 257.4Q610.1 258.1 608.7 258.1L608.7 258.1Q606.9 258.1 605.9 256.7L605.9 256.7Q604.8 255.0 603.3 254.1Q601.8 253.2 599.6 253.2L599.6 253.2Q597.2 253.2 595.7 254.3Q594.2 255.3 594.2 257.0L594.2 257.0Q594.2 259.8 598.8 260.8L598.8 260.8L603.8 261.9Q608.7 263.0 610.8 264.9Q612.9 266.9 612.9 270.3L612.9 270.3Q612.9 274.8 609.3 277.5Q605.6 280.2 599.7 280.2Z M631.6 271.9L631.6 271.9L631.6 254.1L629.6 254.1Q628.3 254.1 627.5 253.4Q626.7 252.6 626.7 251.3L626.7 251.3Q626.7 250.0 627.4 249.3Q628.2 248.5 629.6 248.5L629.6 248.5L631.6 248.5L631.6 244.4Q631.6 242.6 632.5 241.6Q633.5 240.6 635.2 240.6L635.2 240.6Q636.9 240.6 637.9 241.6Q638.9 242.6 638.9 244.4L638.9 244.4L638.9 248.5L642.2 248.5Q643.6 248.5 644.4 249.3Q645.2 250.0 645.2 251.3L645.2 251.3Q645.2 252.6 644.4 253.4Q643.6 254.1 642.2 254.1L642.2 254.1L638.9 254.1L638.9 270.3Q638.9 272.1 639.5 272.9Q640.2 273.7 641.8 273.9L641.8 273.9L642.3 273.9Q645.2 274.2 645.2 276.6L645.2 276.6Q645.2 278.2 643.9 279.1Q642.5 279.9 640.0 279.9L640.0 279.9L639.7 279.9Q631.6 279.9 631.6 271.9ZM674.4 275.9Q670.3 280.2 663.4 280.2Q656.5 280.2 652.5 275.9Q648.4 271.6 648.4 264.1L648.4 264.1Q648.4 256.6 652.5 252.2Q656.6 247.9 663.4 247.9L663.4 247.9Q670.3 247.9 674.4 252.2Q678.4 256.6 678.4 264.1L678.4 264.1Q678.4 271.6 674.4 275.9ZM657.8 271.7Q659.9 274.4 663.4 274.4Q666.9 274.4 669.0 271.7Q671.0 269.0 671.0 264.1L671.0 264.1Q671.0 259.2 669.0 256.4Q666.9 253.7 663.4 253.7L663.4 253.7Q659.9 253.7 657.9 256.4Q655.8 259.2 655.8 264.1L655.8 264.1Q655.8 269.0 657.8 271.7Z M697.7 280.1L697.7 280.1Q696.0 280.1 694.9 279.1Q693.9 278.2 693.9 276.6L693.9 276.6Q693.9 275.6 694.4 274.3L694.4 274.3L706.7 240.9Q707.4 238.8 708.8 237.8Q710.1 236.8 712.2 236.8L712.2 236.8Q714.2 236.8 715.6 237.8Q716.9 238.7 717.7 240.9L717.7 240.9L730 274.3Q730.5 275.7 730.5 276.6L730.5 276.6Q730.5 278.1 729.4 279.1Q728.4 280.1 726.7 280.1L726.7 280.1Q725.2 280.1 724.3 279.3Q723.3 278.6 722.9 276.9L722.9 276.9L720.1 268.8L704.3 268.8L701.5 276.8Q701.0 278.6 700.1 279.3Q699.2 280.1 697.7 280.1ZM712.0 244.8L706.1 262.8L718.2 262.8L712.2 244.8L712.0 244.8ZM747.2 280.2L747.2 280.2Q742.4 280.2 739.1 278.5Q735.7 276.8 734.6 274.0L734.6 274.0Q734.3 273.2 734.3 272.5L734.3 272.5Q734.3 271.2 735.1 270.4Q736.0 269.6 737.3 269.6L737.3 269.6Q739.1 269.6 740.5 271.4L740.5 271.4Q741.7 273.3 743.3 274.1Q744.9 274.9 747.5 274.9L747.5 274.9Q750.1 274.9 751.6 273.9Q753.1 272.8 753.1 271.1L753.1 271.1Q753.1 269.7 752.1 268.8Q751.2 268.0 748.8 267.4L748.8 267.4L743.7 266.3Q734.7 264.3 734.7 257.4L734.7 257.4Q734.7 253.1 738.1 250.5Q741.6 247.9 747.3 247.9L747.3 247.9Q751.7 247.9 755.0 249.8Q758.2 251.6 758.9 254.4L758.9 254.4Q759.1 255.0 759.1 255.5L759.1 255.5Q759.1 256.6 758.3 257.4Q757.6 258.1 756.3 258.1L756.3 258.1Q754.4 258.1 753.5 256.7L753.5 256.7Q752.3 255.0 750.8 254.1Q749.4 253.2 747.2 253.2L747.2 253.2Q744.8 253.2 743.3 254.3Q741.8 255.3 741.8 257.0L741.8 257.0Q741.8 259.8 746.3 260.8L746.3 260.8L751.3 261.9Q756.2 263.0 758.3 264.9Q760.5 266.9 760.5 270.3L760.5 270.3Q760.5 274.8 756.8 277.5Q753.2 280.2 747.2 280.2ZM767.1 271.9L767.1 271.9L767.1 254.1L765.1 254.1Q763.8 254.1 763.0 253.4Q762.2 252.6 762.2 251.3L762.2 251.3Q762.2 250.0 763.0 249.3Q763.8 248.5 765.1 248.5L765.1 248.5L767.1 248.5L767.1 244.4Q767.1 242.6 768.1 241.6Q769.1 240.6 770.8 240.6L770.8 240.6Q772.4 240.6 773.4 241.6Q774.4 242.6 774.4 244.4L774.4 244.4L774.4 248.5L777.8 248.5Q779.1 248.5 779.9 249.3Q780.7 250.0 780.7 251.3L780.7 251.3Q780.7 252.6 779.9 253.4Q779.1 254.1 777.8 254.1L777.8 254.1L774.4 254.1L774.4 270.3Q774.4 272.1 775.1 272.9Q775.7 273.7 777.3 273.9L777.3 273.9L777.8 273.9Q780.8 274.2 780.8 276.6L780.8 276.6Q780.8 278.2 779.4 279.1Q778.1 279.9 775.6 279.9L775.6 279.9L775.3 279.9Q767.1 279.9 767.1 271.9ZM791.5 279.1Q790.5 280.2 788.8 280.2Q787.2 280.2 786.2 279.1Q785.2 278.1 785.2 276.3L785.2 276.3L785.2 251.6Q785.2 249.9 786.1 248.9Q787.1 247.9 788.7 247.9L788.7 247.9Q790.2 247.9 791.2 248.9Q792.1 249.9 792.1 251.6L792.1 251.6L792.1 254.0L792.3 254.0Q792.9 251.3 794.8 249.6Q796.6 248.0 798.9 248.0L798.9 248.0Q800.6 248.0 801.5 248.8L801.5 248.8Q802.5 249.6 802.5 251.4L802.5 251.4Q802.5 253.1 801.5 254.0L801.5 254.0Q800.4 254.9 798.2 255.0L798.2 255.0Q792.5 255.0 792.5 261.4L792.5 261.4L792.5 276.3Q792.5 278.1 791.5 279.1ZM830.5 275.9Q826.4 280.2 819.6 280.2Q812.7 280.2 808.6 275.9Q804.5 271.6 804.5 264.1L804.5 264.1Q804.5 256.6 808.6 252.2Q812.7 247.9 819.6 247.9L819.6 247.9Q826.4 247.9 830.5 252.2Q834.6 256.6 834.6 264.1L834.6 264.1Q834.6 271.6 830.5 275.9ZM814.0 271.7Q816.0 274.4 819.6 274.4Q823.1 274.4 825.1 271.7Q827.2 269.0 827.2 264.1L827.2 264.1Q827.2 259.2 825.1 256.4Q823.1 253.7 819.6 253.7L819.6 253.7Q816.1 253.7 814.0 256.4Q811.9 259.2 811.9 264.1L811.9 264.1Q811.9 269.0 814.0 271.7Z M870.3 280.3L870.3 280.3Q861.2 280.3 855.9 274.4Q850.6 268.6 850.6 258.4L850.6 258.4Q850.6 248.3 855.9 242.5Q861.2 236.6 870.2 236.6L870.2 236.6Q876.0 236.6 880.5 239.2Q884.9 241.8 887.0 246.4L887.0 246.4Q887.7 247.9 887.7 249.3L887.7 249.3Q887.7 250.8 886.8 251.7Q885.9 252.6 884.3 252.6L884.3 252.6Q881.8 252.6 880.6 249.9L880.6 249.9Q879.2 246.6 876.5 244.8Q873.7 243.0 870.2 243.0L870.2 243.0Q864.8 243.0 861.6 247.2Q858.3 251.4 858.3 258.4L858.3 258.4Q858.3 265.5 861.5 269.7Q864.8 273.9 870.3 273.9L870.3 273.9Q877.9 273.9 880.8 267.3L880.8 267.3Q881.3 266.0 882.1 265.4Q882.9 264.9 884.1 264.9L884.1 264.9Q885.7 264.9 886.7 265.8Q887.6 266.7 887.6 268.2L887.6 268.2Q887.6 269.6 886.9 271.1L886.9 271.1Q884.9 275.4 880.6 277.8Q876.2 280.3 870.3 280.3ZM900.1 243.0Q899.0 244.2 897.3 244.2Q895.6 244.2 894.4 243.0Q893.2 241.8 893.2 240.2L893.2 240.2Q893.2 238.5 894.4 237.4Q895.6 236.2 897.3 236.2L897.3 236.2Q899.0 236.2 900.2 237.4Q901.3 238.5 901.3 240.2L901.3 240.2Q901.3 241.8 900.1 243.0ZM899.9 279.1Q898.9 280.2 897.3 280.2Q895.6 280.2 894.6 279.1Q893.6 278.1 893.6 276.3L893.6 276.3L893.6 251.7Q893.6 250.0 894.6 248.9Q895.6 247.9 897.3 247.9Q898.9 247.9 899.9 248.9Q900.9 250.0 900.9 251.8L900.9 251.8L900.9 276.3Q900.9 278.1 899.9 279.1ZM909.1 271.9L909.1 271.9L909.1 254.1L907.1 254.1Q905.8 254.1 905.0 253.4Q904.2 252.6 904.2 251.3L904.2 251.3Q904.2 250.0 904.9 249.3Q905.7 248.5 907.1 248.5L907.1 248.5L909.1 248.5L909.1 244.4Q909.1 242.6 910.0 241.6Q911.0 240.6 912.7 240.6L912.7 240.6Q914.4 240.6 915.4 241.6Q916.4 242.6 916.4 244.4L916.4 244.4L916.4 248.5L919.7 248.5Q921.1 248.5 921.9 249.3Q922.7 250.0 922.7 251.3L922.7 251.3Q922.7 252.6 921.9 253.4Q921.1 254.1 919.7 254.1L919.7 254.1L916.4 254.1L916.4 270.3Q916.4 272.1 917.0 272.9Q917.7 273.7 919.3 273.9L919.3 273.9L919.8 273.9Q922.7 274.2 922.7 276.6L922.7 276.6Q922.7 278.2 921.4 279.1Q920.0 279.9 917.5 279.9L917.5 279.9L917.2 279.9Q909.1 279.9 909.1 271.9ZM933.5 279.1Q932.5 280.2 930.8 280.2Q929.1 280.2 928.1 279.1Q927.2 278.1 927.2 276.3L927.2 276.3L927.2 251.6Q927.2 249.9 928.1 248.9Q929.1 247.9 930.7 247.9L930.7 247.9Q932.2 247.9 933.1 248.9Q934.1 249.9 934.1 251.6L934.1 251.6L934.1 254.0L934.3 254.0Q934.9 251.3 936.7 249.6Q938.6 248.0 940.9 248.0L940.9 248.0Q942.6 248.0 943.5 248.8L943.5 248.8Q944.5 249.6 944.5 251.4L944.5 251.4Q944.5 253.1 943.4 254.0L943.4 254.0Q942.4 254.9 940.2 255.0L940.2 255.0Q934.5 255.0 934.5 261.4L934.5 261.4L934.5 276.3Q934.5 278.1 933.5 279.1ZM958.7 280.1L958.7 280.1Q953.6 280.1 950.6 277.0Q947.6 274.0 947.6 268.6L947.6 268.6L947.6 251.7Q947.6 250.0 948.6 248.9Q949.6 247.9 951.3 247.9Q952.9 247.9 953.9 248.9Q954.9 250.0 954.9 251.8L954.9 251.8L954.9 267.1Q954.9 270.5 956.5 272.2Q958.1 274.0 961.2 274.0L961.2 274.0Q964.3 274.0 966.2 271.9Q968.0 269.9 968.0 266.5L968.0 266.5L968.0 251.7Q968.0 250.0 969.0 248.9Q970.1 247.9 971.7 247.9L971.7 247.9Q973.3 247.9 974.3 248.9Q975.3 250.0 975.3 251.8L975.3 251.8L975.3 276.5Q975.3 278.2 974.4 279.2Q973.4 280.2 971.8 280.2L971.8 280.2Q970.2 280.2 969.3 279.2Q968.3 278.2 968.3 276.5L968.3 276.5L968.3 274.2L968.2 274.2Q965.6 280.1 958.7 280.1ZM993.3 280.2L993.3 280.2Q988.4 280.2 985.1 278.5Q981.7 276.8 980.6 274.0L980.6 274.0Q980.3 273.2 980.3 272.5L980.3 272.5Q980.3 271.2 981.2 270.4Q982.0 269.6 983.4 269.6L983.4 269.6Q985.2 269.6 986.5 271.4L986.5 271.4Q987.8 273.3 989.4 274.1Q991.0 274.9 993.5 274.9L993.5 274.9Q996.1 274.9 997.6 273.9Q999.2 272.8 999.2 271.1L999.2 271.1Q999.2 269.7 998.2 268.8Q997.2 268.0 994.8 267.4L994.8 267.4L989.8 266.3Q980.7 264.3 980.7 257.4L980.7 257.4Q980.7 253.1 984.2 250.5Q987.6 247.9 993.4 247.9L993.4 247.9Q997.8 247.9 1001.0 249.8Q1004.2 251.6 1005.0 254.4L1005.0 254.4Q1005.1 255.0 1005.1 255.5L1005.1 255.5Q1005.1 256.6 1004.4 257.4Q1003.6 258.1 1002.3 258.1L1002.3 258.1Q1000.4 258.1 999.5 256.7L999.5 256.7Q998.4 255.0 996.9 254.1Q995.4 253.2 993.2 253.2L993.2 253.2Q990.8 253.2 989.3 254.3Q987.8 255.3 987.8 257.0L987.8 257.0Q987.8 259.8 992.4 260.8L992.4 260.8L997.3 261.9Q1002.3 263.0 1004.4 264.9Q1006.5 266.9 1006.5 270.3L1006.5 270.3Q1006.5 274.8 1002.9 277.5Q999.2 280.2 993.3 280.2Z "/><defs><clipPath id="satori_bc-id-0-1"><rect x="0" y="441" width="1200" height="189"/></clipPath></defs><mask id="satori_om-id-0-1"><rect x="0" y="442" width="1200" height="188" fill="#fff"/><path width="1200" height="189" fill="none" stroke="#000" stroke-width="2" d="M0,441 A0,0 0 0 1 0,441 h1200 A0,0 0 0 1 1200,441"/></mask><path width="1200" height="189" clip-path="url(#satori_bc-id-0-1)" fill="none" stroke="#dbdbdb" stroke-width="2" d="M0,441 A0,0 0 0 1 0,441 h1200 A0,0 0 0 1 1200,441"/><mask id="satori_om-id-0-1-0"><rect x="40" y="482" width="209" height="108" fill="#fff"/></mask><clipPath id="satori_cp-id-0-1-0-0"><rect x="40" y="504" width="64" height="64"/></clipPath><mask id="satori_om-id-0-1-0-0"><rect x="40" y="504" width="64" height="64" fill="#fff"/></mask><image x="40" y="504" width="64" height="64" href="data:image/svg+xml;utf8,%3Csvg  xmlns=%22http://www.w3.org/2000/svg%22 width=%2264%22 height=%2264%22 viewBox=%220 0 128 128%22%3E%3Cpath fill=%22%23224d67%22 d=%22M22.5 14.8c2.9 1.3 99 44 99 44c2.7 1.2 2.9 3.1 2 12.4c-1 10.5-1.9 37.8-40.2 42.9c-24.6 3.2-55.9-4.3-70.9-27.2C-6 58.8 11 23.4 14.8 17.7c2.4-3.5 4.8-4.2 7.7-2.9%22%3E%3C/path%3E%3Cpath fill=%22%23f0f4c3%22 d=%22M121.5 58.8c-.3-.2-92-40.8-98.9-43.9C9.6 31.5-3.8 76 27.9 96.2c33.6 21.5 78.7-10.2 93.6-37.4%22%3E%3C/path%3E%3Cpath fill=%22%23f0f4c3%22 d=%22M117.7 57c-.3-.2-86.7-38.4-93.2-41.3c-12.2 15.5-23.9 59.1 5.7 78c31.4 20.2 73.6-11.2 87.5-36.7%22%3E%3C/path%3E%3Cpath fill=%22%23cb2a42%22 d=%22M56.2 37.6L19.5 48.2c-2.5.8-4.4 2.8-5 5.3c-1.9 8.5.8 23.3 8.9 29.8c3.5 2.7 8.6 1.8 10.8-2.1L58.5 41c1.3-1.7.5-4.2-2.3-3.4m14.3 2.9s14.6 30.1 16 33s6.3 4.7 9.9 2.8c10.7-5.6 15.5-12.4 19.2-20.2c-8.9-3.9-42.4-18.8-42.4-18.8c-2.4-1.1-4 .6-2.7 3.2m-8.6 1.9C60.3 45.1 39.5 81 37.6 84.1c-1.9 3.2-.7 7.5 2.7 9.2c12.3 6.5 30.9.4 39.6-7c2.2-1.9 4.5-5.1 3.2-8.2S68.9 44.6 67.8 42.3c-1.2-2.7-4.1-2.8-5.9.1%22%3E%3C/path%3E%3Cpath fill=%22%23f0f4c3%22 d=%22M52.2 42.2c-1.4.4-10.1 3-11.1 3.4c-1.4.5-2.2 1.7-1.9 2.5c.3.9 1.7 1.1 3.1.6c.8-.3 7.1-3.9 9.5-5.2c-3.1 2.4-10.2 9.4-11.1 10.3c-1.4 1.5-1.7 3.4-.8 4.3c1 .9 2.9.5 4.3-1c1.2-1.3 8.5-12.8 9.1-13.9s.4-1.4-1.1-1m10.1 16.4c0-2.2 1.4-10.3 1.8-12.3c.4-1.6 1.5-1.8 1.8.5s1.7 9.7 1.7 11.8s-1.2 3.3-2.7 3.3c-1.4 0-2.6-1.1-2.6-3.3M79.9 49c-1.2-1.8-3.3-4.9-4.1-6.1c-.7-1.2.1-2.1 1.8-.9s4 2.9 5.4 4c1.6 1.3 1.9 3 .8 4s-2.7.8-3.9-1%22%3E%3C/path%3E%3Cellipse cx=%2287.3%22 cy=%22103.12%22 fill=%22%23cb2a42%22 rx=%223.4%22 ry=%222.3%22 transform=%22rotate(-27.098 87.298 103.126)%22%3E%3C/ellipse%3E%3Cellipse cx=%2298.89%22 cy=%22103.82%22 fill=%22%23cb2a42%22 rx=%223.4%22 ry=%222.3%22 transform=%22rotate(-30.642 98.887 103.818)%22%3E%3C/ellipse%3E%3Cellipse cx=%22102.02%22 cy=%2293.8%22 fill=%22%23cb2a42%22 rx=%223.4%22 ry=%222.3%22 transform=%22rotate(-37.16 102.017 93.797)%22%3E%3C/ellipse%3E%3Cpath fill=%22%23cb2a42%22 d=%22M57.6 30.3c-8.3-3.7-24.4-10.7-29.6-13c-3.6 2.2-9.7 11.4-11.2 21.2c-.6 3.6 1.7 5.9 5.3 4.9c0 0 33.7-9.3 35.3-9.7c1.6-.5 2-2.6.2-3.4%22%3E%3C/path%3E%3C/svg%3E" preserveAspectRatio="none" clip-path="url(#satori_cp-id-0-1-0-0)" mask="url(#satori_om-id-0-1-0-0)"/><mask id="satori_om-id-0-1-0-0-0"><rect x="40" y="504" width="0" height="64" fill="#fff"/></mask><mask id="satori_om-id-0-1-0-0-1"><rect x="40" y="504" width="0" height="64" fill="#fff"/></mask><mask id="satori_om-id-0-1-0-0-2"><rect x="40" y="504" width="0" height="64" fill="#fff"/></mask><mask id="satori_om-id-0-1-0-0-3"><rect x="40" y="504" width="0" height="64" fill="#fff"/></mask><mask id="satori_om-id-0-1-0-0-4"><rect x="40" y="504" width="0" height="64" fill="#fff"/></mask><mask id="satori_om-id-0-1-0-0-5"><rect x="40" y="504" width="0" height="64" fill="#fff"/></mask><mask id="satori_om-id-0-1-0-0-6"><rect x="40" y="504" width="0" height="64" fill="#fff"/></mask><mask id="satori_om-id-0-1-0-0-7"><rect x="40" y="504" width="0" height="64" fill="#fff"/></mask><mask id="satori_om-id-0-1-0-0-8"><rect x="40" y="504" width="0" height="64" fill="#fff"/></mask><mask id="satori_om-id-0-1-0-1"><rect x="116" y="512" width="133" height="48" fill="#fff"/></mask><path fill="#545454" d="M133.9 553.6L133.9 553.6Q126.4 553.6 122.1 549.0Q117.8 544.3 117.8 536.1L117.8 536.1Q117.8 528.0 122.1 523.3Q126.4 518.7 133.7 518.7L133.7 518.7Q138.4 518.7 142.0 520.7Q145.5 522.7 147.2 526.3L147.2 526.3Q147.9 527.7 147.9 529.0L147.9 529.0Q147.9 530.4 147.1 531.2Q146.2 532.0 144.8 532.0L144.8 532.0Q143.6 532.0 142.8 531.5Q142.0 530.9 141.5 529.7L141.5 529.7Q140.3 527.1 138.3 525.8Q136.3 524.5 133.8 524.5L133.8 524.5Q129.8 524.5 127.4 527.7Q125.0 530.8 125.0 536.1L125.0 536.1Q125.0 541.5 127.3 544.7Q129.7 547.8 133.8 547.8L133.8 547.8Q139.3 547.8 141.5 542.8L141.5 542.8Q142.1 541.6 142.8 541.1Q143.5 540.5 144.7 540.5L144.7 540.5Q146.2 540.5 147.1 541.4Q148.0 542.3 148.0 543.7L148.0 543.7Q148.0 544.8 147.4 546.1L147.4 546.1Q145.8 549.6 142.3 551.6Q138.7 553.6 133.9 553.6ZM158.6 523.8Q157.5 524.8 156.0 524.8Q154.4 524.8 153.4 523.8Q152.3 522.8 152.3 521.3L152.3 521.3Q152.3 519.8 153.4 518.8Q154.4 517.7 156.0 517.7Q157.5 517.7 158.6 518.8Q159.6 519.8 159.6 521.3L159.6 521.3Q159.6 522.8 158.6 523.8ZM158.5 552.6Q157.6 553.6 156.0 553.6Q154.4 553.6 153.5 552.6Q152.5 551.7 152.5 550.0L152.5 550.0L152.5 531.0Q152.5 529.3 153.5 528.4Q154.4 527.4 156.0 527.4Q157.6 527.4 158.5 528.4Q159.4 529.3 159.4 531.0L159.4 531.0L159.4 550.0Q159.4 551.7 158.5 552.6ZM165.8 546.6L165.8 546.6L165.8 533.1L164.4 533.1Q163.2 533.1 162.5 532.4Q161.8 531.7 161.8 530.5Q161.8 529.3 162.5 528.6Q163.2 527.9 164.4 527.9L164.4 527.9L165.8 527.9L165.8 525.1Q165.8 523.5 166.7 522.5Q167.6 521.6 169.2 521.6Q170.8 521.6 171.7 522.5Q172.6 523.5 172.6 525.1L172.6 525.1L172.6 527.9L175.0 527.9Q176.2 527.9 176.9 528.6Q177.6 529.3 177.6 530.5Q177.6 531.7 176.9 532.4Q176.2 533.1 175.0 533.1L175.0 533.1L172.6 533.1L172.6 545.1Q172.6 546.5 173.1 547.1Q173.6 547.7 174.7 547.8L174.7 547.8L175.1 547.8Q176.4 548.0 177.1 548.5Q177.7 549.1 177.7 550.3L177.7 550.3Q177.7 551.8 176.4 552.6Q175.1 553.3 172.9 553.3L172.9 553.3L172.6 553.3Q165.8 553.3 165.8 546.6ZM184.4 553.6L184.4 553.6Q182.8 553.6 181.9 552.6Q181.0 551.7 181.0 550.0L181.0 550.0L181.0 530.9Q181.0 529.3 181.9 528.3Q182.8 527.4 184.3 527.4L184.3 527.4Q185.8 527.4 186.6 528.3Q187.5 529.3 187.5 530.9L187.5 530.9L187.5 532.5L187.7 532.5Q188.2 530.2 189.6 528.9Q191 527.5 192.9 527.5L192.9 527.5Q194.3 527.5 195.0 528.2L195.0 528.2Q196.0 528.9 196.0 530.7L196.0 530.7Q196.0 532.3 195.0 533.2L195.0 533.2Q194.0 534.0 192.1 534.1L192.1 534.1Q189.8 534.1 188.8 535.3Q187.8 536.5 187.8 538.8L187.8 538.8L187.8 550.0Q187.8 551.7 186.9 552.6Q186.0 553.6 184.4 553.6ZM207.4 553.5L207.4 553.5Q203.3 553.5 200.8 551.0Q198.3 548.5 198.3 544.1L198.3 544.1L198.3 531.0Q198.3 529.3 199.3 528.4Q200.2 527.4 201.8 527.4Q203.3 527.4 204.2 528.4Q205.2 529.3 205.2 531.0L205.2 531.0L205.2 542.7Q205.2 545.2 206.4 546.5Q207.6 547.8 209.9 547.8Q212.1 547.8 213.5 546.3Q214.8 544.8 214.8 542.3L214.8 542.3L214.8 531.0Q214.8 529.3 215.8 528.4Q216.7 527.4 218.2 527.4Q219.8 527.4 220.7 528.4Q221.7 529.3 221.7 531.0L221.7 531.0L221.7 550.1Q221.7 551.8 220.8 552.7Q219.9 553.6 218.4 553.6Q216.8 553.6 215.9 552.7Q215.0 551.8 215.0 550.1L215.0 550.1L215.0 548.5L214.9 548.5Q212.9 553.5 207.4 553.5ZM236.4 553.6L236.4 553.6Q232.1 553.6 229.3 552.2Q226.5 550.9 225.5 548.6L225.5 548.6Q225.3 547.9 225.3 547.3L225.3 547.3Q225.3 546.1 226.1 545.4Q226.9 544.7 228.1 544.7L228.1 544.7Q229.6 544.7 231.0 546.2L231.0 546.2Q232.1 547.6 233.3 548.2Q234.6 548.8 236.5 548.8L236.5 548.8Q238.4 548.8 239.5 548.1Q240.6 547.3 240.6 546.1L240.6 546.1Q240.6 545.1 239.9 544.5Q239.1 543.9 237.3 543.5L237.3 543.5L233.1 542.6Q229.4 541.8 227.5 539.9Q225.7 538.1 225.7 535.3L225.7 535.3Q225.7 531.7 228.6 529.5Q231.5 527.4 236.3 527.4L236.3 527.4Q240.1 527.4 242.8 528.9Q245.5 530.4 246.2 532.6L246.2 532.6Q246.3 533.2 246.3 533.6L246.3 533.6Q246.3 534.7 245.7 535.3Q245 536.0 243.7 536.0L243.7 536.0Q242.1 536.0 241.2 534.9L241.2 534.9Q240.2 533.6 239.1 532.9Q237.9 532.2 236.2 532.2L236.2 532.2Q234.5 532.2 233.4 533.0Q232.3 533.7 232.3 534.9L232.3 534.9Q232.3 535.9 233.1 536.6Q233.9 537.2 235.8 537.6L235.8 537.6L239.9 538.5Q243.9 539.4 245.7 541.0Q247.5 542.6 247.5 545.4L247.5 545.4Q247.5 549.1 244.4 551.4Q241.3 553.6 236.4 553.6Z "/><mask id="satori_om-id-0-1-1"><rect x="951" y="524" width="209" height="36" fill="#fff"/></mask><path fill="#8e8e8e" d="M954.9 552.6Q954.5 552.9 954.0 552.9Q953.4 552.9 953.1 552.6Q952.8 552.2 952.8 551.7L952.8 551.7L952.8 532.6Q952.8 532.0 953.1 531.6Q953.5 531.3 954.1 531.3Q954.6 531.3 955.0 531.6Q955.3 532.0 955.3 532.6L955.3 532.6L955.3 540.0L955.4 540.0Q956.1 538.7 957.4 537.9Q958.7 537.2 960.3 537.2L960.3 537.2Q963.2 537.2 964.9 539.3Q966.7 541.5 966.7 545.0L966.7 545.0Q966.7 548.6 964.9 550.8Q963.2 552.9 960.2 552.9L960.2 552.9Q958.6 552.9 957.3 552.2Q956.0 551.4 955.3 550.1L955.3 550.1L955.2 550.1L955.2 551.7Q955.2 552.2 954.9 552.6ZM959.7 550.7L959.7 550.7Q961.8 550.7 962.9 549.2Q964.1 547.7 964.1 545.0L964.1 545.0Q964.1 542.5 962.9 540.9Q961.8 539.4 959.7 539.4L959.7 539.4Q957.8 539.4 956.6 541.0Q955.3 542.5 955.3 545.0L955.3 545.0Q955.3 547.6 956.6 549.1Q957.8 550.7 959.7 550.7ZM970.8 558.4L970.8 558.4Q969.9 558.4 969.4 558.0Q968.9 557.7 968.9 557.1L968.9 557.1Q968.9 556.7 969.1 556.4Q969.4 556.2 969.9 556.2L969.9 556.2Q970.1 556.2 970.3 556.2Q970.5 556.2 970.7 556.2L970.7 556.2Q972.4 556.2 973.2 553.7L973.2 553.7L973.6 552.7L968.3 539.0Q968.2 538.6 968.2 538.3L968.2 538.3Q968.2 537.8 968.6 537.5Q968.9 537.2 969.5 537.2L969.5 537.2Q970.4 537.2 970.7 538.1L970.7 538.1L974.9 550.1L975.0 550.1L979.2 538.1Q979.3 537.6 979.6 537.4Q979.9 537.2 980.4 537.2L980.4 537.2Q980.9 537.2 981.3 537.5Q981.6 537.8 981.6 538.3L981.6 538.3Q981.6 538.6 981.5 539.0L981.5 539.0L975.9 553.7Q974.9 556.4 973.8 557.4Q972.7 558.4 970.8 558.4Z M990.5 552.9L990.5 552.9Q989.9 552.9 989.5 552.5Q989.2 552.2 989.2 551.7L989.2 551.7Q989.2 551.4 989.3 551.0L989.3 551.0L996.1 532.6Q996.6 531.3 997.8 531.3L997.8 531.3Q999.0 531.3 999.5 532.6L999.5 532.6L1006.3 551.0Q1006.5 551.4 1006.5 551.7L1006.5 551.7Q1006.5 552.2 1006.1 552.5Q1005.7 552.9 1005.2 552.9L1005.2 552.9Q1004.2 552.9 1003.9 551.9L1003.9 551.9L1002.0 546.6L993.6 546.6L991.8 551.9Q991.4 552.9 990.5 552.9ZM997.8 534.7L994.4 544.4L1001.2 544.4L997.9 534.7L997.8 534.7ZM1011.1 552.5Q1010.8 552.9 1010.2 552.9Q1009.7 552.9 1009.3 552.5Q1008.9 552.2 1008.9 551.6L1008.9 551.6L1008.9 538.5Q1008.9 537.9 1009.3 537.5Q1009.6 537.2 1010.1 537.2Q1010.7 537.2 1011 537.5Q1011.3 537.9 1011.3 538.5L1011.3 538.5L1011.3 539.9L1011.4 539.9Q1011.7 538.7 1012.7 537.9Q1013.7 537.2 1014.9 537.2L1014.9 537.2Q1015.7 537.2 1016.1 537.5L1016.1 537.5Q1016.4 537.8 1016.4 538.4L1016.4 538.4Q1016.4 539.0 1016.0 539.3L1016.0 539.3Q1015.6 539.6 1014.8 539.6L1014.8 539.6Q1013.1 539.6 1012.3 540.6Q1011.5 541.6 1011.5 543.2L1011.5 543.2L1011.5 551.6Q1011.5 552.2 1011.1 552.5ZM1019.0 549.1L1019.0 549.1L1019.0 539.5L1017.7 539.5Q1017.2 539.5 1016.9 539.3Q1016.6 539.0 1016.6 538.5L1016.6 538.5Q1016.6 538.0 1016.9 537.7Q1017.2 537.4 1017.7 537.4L1017.7 537.4L1019.0 537.4L1019.0 534.8Q1019.0 534.2 1019.4 533.8Q1019.7 533.5 1020.3 533.5Q1020.8 533.5 1021.2 533.8Q1021.5 534.2 1021.5 534.8L1021.5 534.8L1021.5 537.4L1023.5 537.4Q1024.1 537.4 1024.4 537.7Q1024.7 538.0 1024.7 538.5L1024.7 538.5Q1024.7 539.0 1024.4 539.3Q1024.1 539.5 1023.5 539.5L1023.5 539.5L1021.5 539.5L1021.5 548.6Q1021.5 549.6 1021.9 550.0Q1022.3 550.5 1023.3 550.6L1023.3 550.6L1023.5 550.6Q1024.7 550.7 1024.7 551.6L1024.7 551.6Q1024.7 552.2 1024.3 552.5Q1023.9 552.8 1022.9 552.8L1022.9 552.8L1022.7 552.8Q1019.0 552.8 1019.0 549.1ZM1033.6 552.9L1033.6 552.9Q1030.2 552.9 1028.4 550.9Q1026.5 548.8 1026.5 545.1L1026.5 545.1Q1026.5 541.5 1028.4 539.3Q1030.2 537.2 1033.4 537.2L1033.4 537.2Q1036.3 537.2 1038.2 539.1Q1040.0 541.1 1040.0 544.3L1040.0 544.3Q1040.0 544.9 1039.6 545.3Q1039.3 545.7 1038.6 545.7L1038.6 545.7L1029.1 545.7Q1029.1 548.0 1030.3 549.4Q1031.5 550.7 1033.5 550.7L1033.5 550.7Q1034.9 550.7 1035.8 550.2Q1036.7 549.6 1037.6 548.3L1037.6 548.3Q1038.0 547.8 1038.6 547.8L1038.6 547.8Q1039.1 547.8 1039.4 548.1Q1039.7 548.4 1039.7 548.9L1039.7 548.9Q1039.7 549.2 1039.5 549.7L1039.5 549.7Q1038.8 551.2 1037.2 552.1Q1035.7 552.9 1033.6 552.9ZM1029.1 543.7L1029.1 543.7L1037.4 543.7Q1037.3 541.8 1036.2 540.6Q1035.1 539.4 1033.3 539.4L1033.3 539.4Q1031.6 539.4 1030.4 540.6Q1029.2 541.8 1029.1 543.7ZM1044.8 552.5Q1044.4 552.9 1043.9 552.9Q1043.3 552.9 1042.9 552.5Q1042.6 552.2 1042.6 551.6L1042.6 551.6L1042.6 538.5Q1042.6 537.9 1042.9 537.5Q1043.3 537.2 1043.8 537.2Q1044.3 537.2 1044.6 537.5Q1045.0 537.9 1045.0 538.5L1045.0 538.5L1045.0 539.9L1045.0 539.9Q1045.6 538.6 1046.7 537.9Q1047.9 537.2 1049.4 537.2L1049.4 537.2Q1050.9 537.2 1052.0 537.9Q1053.1 538.7 1053.6 540.1L1053.6 540.1L1053.7 540.1Q1054.3 538.7 1055.6 537.9Q1056.9 537.2 1058.5 537.2L1058.5 537.2Q1060.7 537.2 1062.1 538.5Q1063.4 539.9 1063.4 542.1L1063.4 542.1L1063.4 551.6Q1063.4 552.2 1063.1 552.5Q1062.7 552.9 1062.2 552.9Q1061.6 552.9 1061.2 552.5Q1060.9 552.2 1060.9 551.6L1060.9 551.6L1060.9 542.7Q1060.9 541.2 1060.1 540.3Q1059.2 539.4 1057.7 539.4Q1056.2 539.4 1055.3 540.4Q1054.3 541.4 1054.3 543.0L1054.3 543.0L1054.3 551.6Q1054.3 552.2 1053.9 552.5Q1053.6 552.9 1053.0 552.9Q1052.4 552.9 1052.1 552.5Q1051.7 552.2 1051.7 551.6L1051.7 551.6L1051.7 542.5Q1051.7 541.1 1050.9 540.2Q1050.0 539.4 1048.6 539.4L1048.6 539.4Q1047.1 539.4 1046.1 540.5Q1045.1 541.5 1045.1 543.1L1045.1 543.1L1045.1 551.6Q1045.1 552.2 1044.8 552.5Z M1075.5 552.5Q1075.1 552.9 1074.5 552.9Q1073.9 552.9 1073.6 552.5Q1073.2 552.1 1073.2 551.5L1073.2 551.5L1073.2 532.7Q1073.2 532.1 1073.6 531.7Q1073.9 531.3 1074.5 531.3Q1075.1 531.3 1075.5 531.7Q1075.9 532.1 1075.9 532.7L1075.9 532.7L1075.9 541.8L1076.0 541.8L1085.4 531.8Q1085.9 531.3 1086.5 531.3L1086.5 531.3Q1087.0 531.3 1087.3 531.7Q1087.7 532.0 1087.7 532.5L1087.7 532.5Q1087.7 533.0 1087.3 533.3L1087.3 533.3L1080.1 540.9L1088.2 550.6Q1088.5 551.1 1088.5 551.6L1088.5 551.6Q1088.5 552.2 1088.2 552.5Q1087.8 552.9 1087.3 552.9L1087.3 552.9Q1086.6 552.9 1086.1 552.2L1086.1 552.2L1078.2 542.8L1075.9 545.3L1075.9 551.5Q1075.9 552.1 1075.5 552.5ZM1096.5 552.9L1096.5 552.9Q1094.0 552.9 1092.6 551.4Q1091.2 549.9 1091.2 547.3L1091.2 547.3L1091.2 538.5Q1091.2 537.9 1091.6 537.5Q1091.9 537.2 1092.5 537.2Q1093.0 537.2 1093.4 537.5Q1093.8 537.9 1093.8 538.5L1093.8 538.5L1093.8 546.9Q1093.8 550.7 1097.3 550.7L1097.3 550.7Q1099.1 550.7 1100.2 549.5Q1101.2 548.3 1101.2 546.4L1101.2 546.4L1101.2 538.5Q1101.2 537.9 1101.6 537.5Q1102.0 537.2 1102.5 537.2Q1103.1 537.2 1103.4 537.5Q1103.8 537.9 1103.8 538.5L1103.8 538.5L1103.8 551.6Q1103.8 552.2 1103.5 552.6Q1103.1 552.9 1102.6 552.9Q1102.1 552.9 1101.7 552.6Q1101.4 552.2 1101.4 551.6L1101.4 551.6L1101.4 550.2L1101.3 550.2Q1099.9 552.9 1096.5 552.9ZM1107.9 549.1L1107.9 549.1L1107.9 539.5L1106.6 539.5Q1106.1 539.5 1105.8 539.3Q1105.5 539.0 1105.5 538.5L1105.5 538.5Q1105.5 538.0 1105.8 537.7Q1106.1 537.4 1106.6 537.4L1106.6 537.4L1107.9 537.4L1107.9 534.8Q1107.9 534.2 1108.3 533.8Q1108.6 533.5 1109.2 533.5Q1109.7 533.5 1110.1 533.8Q1110.5 534.2 1110.5 534.8L1110.5 534.8L1110.5 537.4L1112.4 537.4Q1113.0 537.4 1113.3 537.7Q1113.6 538.0 1113.6 538.5L1113.6 538.5Q1113.6 539.0 1113.3 539.3Q1113.0 539.5 1112.4 539.5L1112.4 539.5L1110.5 539.5L1110.5 548.6Q1110.5 549.6 1110.9 550.0Q1111.3 550.5 1112.2 550.6L1112.2 550.6L1112.4 550.6Q1113.6 550.7 1113.6 551.6L1113.6 551.6Q1113.6 552.2 1113.2 552.5Q1112.8 552.8 1111.8 552.8L1111.8 552.8L1111.6 552.8Q1107.9 552.8 1107.9 549.1ZM1121.4 552.9L1121.4 552.9Q1119.4 552.9 1117.9 552.1Q1116.4 551.2 1115.9 549.8L1115.9 549.8Q1115.7 549.5 1115.7 549.2L1115.7 549.2Q1115.7 548.7 1116.1 548.4Q1116.4 548.2 1116.9 548.2L1116.9 548.2Q1117.6 548.2 1118.0 548.9L1118.0 548.9Q1118.6 550.0 1119.4 550.4Q1120.2 550.8 1121.6 550.8L1121.6 550.8Q1123.1 550.8 1124.0 550.2Q1124.9 549.6 1124.9 548.6L1124.9 548.6Q1124.9 547.7 1124.4 547.3Q1123.8 546.8 1122.5 546.5L1122.5 546.5L1120.2 545.9Q1115.9 544.8 1115.9 541.6L1115.9 541.6Q1115.9 539.6 1117.5 538.4Q1119.0 537.2 1121.6 537.2L1121.6 537.2Q1123.5 537.2 1125.0 538.1Q1126.5 539.0 1126.8 540.4L1126.8 540.4Q1126.8 540.6 1126.8 540.8L1126.8 540.8Q1126.8 541.2 1126.5 541.5Q1126.3 541.8 1125.8 541.8L1125.8 541.8Q1125.0 541.8 1124.7 541.1L1124.7 541.1Q1124.2 540.1 1123.4 539.7Q1122.7 539.3 1121.5 539.3L1121.5 539.3Q1120.1 539.3 1119.2 539.9Q1118.4 540.5 1118.4 541.5L1118.4 541.5Q1118.4 543.1 1120.9 543.7L1120.9 543.7L1123.1 544.2Q1125.5 544.8 1126.5 545.8Q1127.5 546.7 1127.5 548.4L1127.5 548.4Q1127.5 550.4 1125.8 551.7Q1124.1 552.9 1121.4 552.9ZM1134.5 552.9L1134.5 552.9Q1132.3 552.9 1130.9 551.7Q1129.5 550.4 1129.5 548.4L1129.5 548.4Q1129.5 546.4 1130.9 545.2Q1132.3 544.1 1135.0 543.9L1135.0 543.9L1139.4 543.7L1139.4 542.4Q1139.4 541.0 1138.5 540.2Q1137.6 539.4 1136.0 539.4L1136.0 539.4Q1134.8 539.4 1133.9 539.9Q1133.0 540.4 1132.4 541.5L1132.4 541.5Q1132.1 542.1 1131.3 542.1L1131.3 542.1Q1130.8 542.1 1130.5 541.8Q1130.2 541.5 1130.2 541.0Q1130.2 540.5 1130.5 539.9L1130.5 539.9Q1131.2 538.7 1132.7 537.9Q1134.2 537.2 1136.1 537.2L1136.1 537.2Q1138.8 537.2 1140.3 538.5Q1141.9 539.9 1141.9 542.1L1141.9 542.1L1141.9 551.6Q1141.9 552.2 1141.6 552.6Q1141.2 552.9 1140.7 552.9L1140.7 552.9Q1140.2 552.9 1139.8 552.6Q1139.5 552.2 1139.5 551.6L1139.5 551.6L1139.5 550.0L1139.4 550.0Q1138.8 551.3 1137.4 552.1Q1136.1 552.9 1134.5 552.9ZM1135.1 550.8L1135.1 550.8Q1136.9 550.8 1138.1 549.6Q1139.4 548.5 1139.4 546.9L1139.4 546.9L1139.4 545.6L1135.3 545.9Q1133.7 546.0 1132.9 546.6Q1132.1 547.3 1132.1 548.4Q1132.1 549.4 1132.9 550.1Q1133.7 550.8 1135.1 550.8ZM1147.3 552.5Q1147.0 552.9 1146.4 552.9Q1145.9 552.9 1145.5 552.5Q1145.2 552.2 1145.2 551.6L1145.2 551.6L1145.2 538.5Q1145.2 537.9 1145.5 537.5Q1145.8 537.2 1146.4 537.2Q1146.9 537.2 1147.2 537.5Q1147.6 537.9 1147.6 538.5L1147.6 538.5L1147.6 539.9L1147.6 539.9Q1148.3 538.6 1149.5 537.9Q1150.7 537.2 1152.4 537.2L1152.4 537.2Q1154.9 537.2 1156.3 538.7Q1157.7 540.2 1157.7 542.8L1157.7 542.8L1157.7 551.6Q1157.7 552.2 1157.4 552.5Q1157.0 552.9 1156.4 552.9Q1155.9 552.9 1155.5 552.5Q1155.2 552.2 1155.2 551.6L1155.2 551.6L1155.2 543.2Q1155.2 541.4 1154.3 540.4Q1153.4 539.4 1151.7 539.4L1151.7 539.4Q1149.9 539.4 1148.8 540.6Q1147.7 541.8 1147.7 543.7L1147.7 543.7L1147.7 551.6Q1147.7 552.2 1147.3 552.5Z "/></svg>