<svg width="1200" height="630" viewBox="0 0 1200 630" xmlns="http://www.w3.org/2000/svg"><mask id="satori_om-id"><rect x="0" y="0" width="1200" height="630" fill="#fff"/></mask><mask id="satori_om-id-0"><rect x="0" y="0" width="1200" height="630" fill="#fff"/></mask><rect x="0" y="0" width="1200" height="630" fill="#f2f2f2"/><mask id="satori_om-id-0-0"><rect x="0" y="0" width="1200" height="441" fill="#fff"/></mask><mask id="satori_om-id-0-0-0"><rect x="40" y="136" width="1120" height="36" fill="#fff"/></mask><path fill="#8e8e8e" d="M44.5 164.5Q44.1 164.9 43.4 164.9Q42.7 164.9 42.3 164.5Q41.9 164.1 41.9 163.3L41.9 163.3L41.9 145.4Q41.9 144.4 42.5 143.9Q43.1 143.3 44.1 143.3L44.1 143.3Q44.9 143.3 45.4 143.7Q46.0 144.1 46.3 145.0L46.3 145.0L52.6 160.2L52.7 160.2L58.9 145.0Q59.3 144.1 59.9 143.7Q60.4 143.3 61.3 143.3L61.3 143.3Q62.2 143.3 62.8 143.8Q63.3 144.4 63.3 145.4L63.3 145.4L63.3 163.3Q63.3 164.1 62.9 164.5Q62.5 164.9 61.8 164.9L61.8 164.9Q61.1 164.9 60.7 164.5Q60.3 164.1 60.3 163.3L60.3 163.3L60.3 149.1L60.2 149.1L54.3 163.3Q53.8 164.5 52.6 164.5L52.6 164.5Q51.4 164.5 50.9 163.3L50.9 163.3L45.0 149.1L44.9 149.1L44.9 163.3Q44.9 164.1 44.5 164.5ZM78.8 162.8Q76.8 165.0 73.5 165.0Q70.1 165.0 68.2 162.8Q66.2 160.7 66.2 157.0L66.2 157.0Q66.2 153.3 68.2 151.1Q70.1 149.0 73.5 149.0Q76.8 149.0 78.8 151.1Q80.8 153.3 80.8 157.0L80.8 157.0Q80.8 160.7 78.8 162.8ZM73.5 162.3L73.5 162.3Q75.4 162.3 76.5 160.9Q77.6 159.5 77.6 157.0L77.6 157.0Q77.6 154.4 76.5 153.0Q75.3 151.6 73.5 151.6Q71.6 151.6 70.5 153.0Q69.4 154.4 69.4 157.0L69.4 157.0Q69.4 159.5 70.5 160.9Q71.6 162.3 73.5 162.3ZM84.8 164.9L84.8 164.9Q84.1 164.9 83.7 164.5Q83.2 164.0 83.2 163.3L83.2 163.3L83.2 150.6Q83.2 149.8 83.6 149.4Q84.0 149.0 84.7 149.0Q85.4 149.0 85.8 149.4Q86.3 149.9 86.3 150.6L86.3 150.6L86.3 151.8L86.3 151.8Q87.7 149.0 91.2 149.0L91.2 149.0Q93.7 149.0 95.1 150.5Q96.5 152.0 96.5 154.7L96.5 154.7L96.5 163.3Q96.5 164.0 96.1 164.5Q95.6 164.9 94.9 164.9L94.9 164.9Q94.2 164.9 93.8 164.5Q93.3 164.0 93.3 163.3L93.3 163.3L93.3 155.3Q93.3 153.5 92.5 152.6Q91.7 151.7 90.1 151.7L90.1 151.7Q88.4 151.7 87.4 152.8Q86.4 153.9 86.4 155.7L86.4 155.7L86.4 163.3Q86.4 164.0 86.0 164.5Q85.5 164.9 84.8 164.9ZM105.3 164.9L105.3 164.9Q102.4 164.9 100.6 162.8Q98.9 160.6 98.9 157.0Q98.9 153.3 100.6 151.2Q102.4 149.0 105.3 149.0L105.3 149.0Q106.9 149.0 108.2 149.8Q109.5 150.5 110.2 151.8L110.2 151.8L110.2 151.8L110.2 144.9Q110.2 144.1 110.6 143.7Q111.1 143.2 111.8 143.2L111.8 143.2Q112.5 143.2 112.9 143.7Q113.4 144.2 113.4 144.9L113.4 144.9L113.4 163.4Q113.4 164.1 113.0 164.5Q112.5 164.9 111.8 164.9L111.8 164.9Q111.1 164.9 110.7 164.5Q110.2 164.1 110.2 163.4L110.2 163.4L110.2 161.9L110.2 161.9Q109.6 163.3 108.3 164.1Q107.1 164.9 105.3 164.9ZM106.2 162.2L106.2 162.2Q108.0 162.2 109.1 160.8Q110.2 159.4 110.2 157.0L110.2 157.0Q110.2 154.6 109.1 153.1Q108.0 151.7 106.2 151.7L106.2 151.7Q104.3 151.7 103.2 153.1Q102.1 154.5 102.1 157.0L102.1 157.0Q102.1 159.4 103.2 160.8Q104.3 162.2 106.2 162.2ZM121.1 164.9L121.1 164.9Q118.9 164.9 117.4 163.6Q116.0 162.3 116.0 160.3L116.0 160.3Q116.0 158.3 117.5 157.1Q119.0 155.9 121.7 155.7L121.7 155.7L126.0 155.5L126.0 154.3Q126.0 153.0 125.1 152.3Q124.3 151.6 122.9 151.6L122.9 151.6Q121.7 151.6 120.9 152.0Q120.1 152.5 119.5 153.5L119.5 153.5Q119.0 154.2 118.2 154.2L118.2 154.2Q117.6 154.2 117.2 153.8Q116.8 153.4 116.8 152.9L116.8 152.9Q116.8 152.3 117.1 151.8L117.1 151.8Q117.7 150.5 119.3 149.8Q120.9 149.0 123.0 149.0L123.0 149.0Q125.8 149.0 127.4 150.4Q129.1 151.7 129.1 154.0L129.1 154.0L129.1 163.3Q129.1 164.1 128.7 164.5Q128.3 164.9 127.6 164.9L127.6 164.9Q126.9 164.9 126.5 164.5Q126.1 164.1 126.1 163.4L126.1 163.4L126.1 162.1L126.0 162.1Q125.3 163.4 124.0 164.2Q122.7 164.9 121.1 164.9ZM122.0 162.4L122.0 162.4Q123.7 162.4 124.8 161.4Q126.0 160.4 126.0 158.9L126.0 158.9L126.0 157.7L122.1 157.9Q120.7 158.0 120.0 158.6Q119.2 159.2 119.2 160.2L119.2 160.2Q119.2 161.2 120.0 161.8Q120.7 162.4 122.0 162.4ZM134.1 170.4L134.1 170.4Q133.0 170.4 132.4 170.0Q131.8 169.6 131.8 168.9L131.8 168.9Q131.8 168.4 132.1 168.1Q132.5 167.8 133.0 167.8L133.0 167.8Q133.2 167.8 133.4 167.8Q133.7 167.8 133.9 167.8L133.9 167.8Q135.4 167.8 136.2 165.7L136.2 165.7L136.5 164.8L131.3 151.3Q131.2 150.9 131.2 150.4L131.2 150.4Q131.2 149.8 131.6 149.4Q132.1 149.0 132.8 149.0L132.8 149.0Q133.4 149.0 133.7 149.3Q134.1 149.5 134.3 150.2L134.3 150.2L138.2 161.8L138.3 161.8L142.2 150.2Q142.4 149.5 142.8 149.3Q143.1 149.0 143.7 149.0L143.7 149.0Q144.4 149.0 144.8 149.4Q145.2 149.8 145.2 150.4L145.2 150.4Q145.2 150.8 145.1 151.3L145.1 151.3L139.7 165.4Q138.7 168.2 137.5 169.3Q136.2 170.4 134.1 170.4Z M160.9 165.1L160.9 165.1Q158.4 165.1 156.6 164.1Q154.8 163.2 153.9 161.6L153.9 161.6Q153.5 160.8 153.5 160.0L153.5 160.0Q153.5 159.3 153.9 158.9Q154.3 158.5 154.9 158.5L154.9 158.5Q155.5 158.5 155.8 158.8Q156.1 159.1 156.4 159.6L156.4 159.6Q157.5 162.3 160.9 162.3L160.9 162.3Q162.8 162.3 164.0 161.3Q165.2 160.4 165.2 158.8L165.2 158.8Q165.2 157.0 164.0 156.0Q162.8 155.0 160.7 155.0L160.7 155.0L159.3 155.0Q158.6 155.0 158.3 154.7Q157.9 154.3 157.9 153.8Q157.9 153.2 158.3 152.8Q158.6 152.5 159.3 152.5L159.3 152.5L160.6 152.5Q162.4 152.5 163.5 151.5Q164.6 150.6 164.6 149.1L164.6 149.1Q164.6 147.6 163.7 146.7Q162.7 145.8 160.9 145.8L160.9 145.8Q159.3 145.8 158.3 146.5Q157.3 147.1 156.8 148.5L156.8 148.5Q156.5 149.1 156.2 149.4Q155.9 149.6 155.3 149.6L155.3 149.6Q154.6 149.6 154.3 149.3Q153.9 148.9 153.9 148.2L153.9 148.2Q153.9 147.4 154.3 146.6L154.3 146.6Q155.1 145.0 156.8 144.1Q158.5 143.1 160.9 143.1L160.9 143.1Q164.0 143.1 165.9 144.7Q167.8 146.2 167.8 148.6L167.8 148.6Q167.8 150.6 166.6 151.9Q165.4 153.2 163.4 153.6L163.4 153.6L163.4 153.7Q165.7 153.9 167.1 155.3Q168.6 156.6 168.6 158.8L168.6 158.8Q168.6 161.6 166.4 163.3Q164.2 165.1 160.9 165.1Z M180.9 164.4Q180.5 164.9 179.7 164.9Q178.9 164.9 178.5 164.4Q178.1 164.0 178.1 163.2L178.1 163.2L178.1 145.2Q178.1 144.4 178.5 144.0Q178.9 143.5 179.7 143.5L179.7 143.5L190.0 143.5Q190.6 143.5 191.1 143.9Q191.5 144.3 191.5 144.9Q191.5 145.6 191.1 146.0Q190.6 146.4 190.0 146.4L190.0 146.4L181.3 146.4L181.3 153.0L189.2 153.0Q189.8 153.0 190.2 153.4Q190.7 153.8 190.7 154.4Q190.7 155.1 190.2 155.4Q189.8 155.8 189.2 155.8L189.2 155.8L181.3 155.8L181.3 163.2Q181.3 164.0 180.9 164.4ZM200.4 165.0L200.4 165.0Q196.9 165.0 195.0 162.9Q193.0 160.8 193.0 157.0L193.0 157.0Q193.0 153.4 195.0 151.2Q196.9 149.0 200.2 149.0L200.2 149.0Q203.3 149.0 205.2 151.0Q207.1 153.0 207.1 156.1L207.1 156.1Q207.1 156.9 206.7 157.3Q206.3 157.8 205.6 157.8L205.6 157.8L196.2 157.8L196.2 157.8Q196.2 159.9 197.3 161.2Q198.5 162.4 200.3 162.4L200.3 162.4Q201.6 162.4 202.5 161.9Q203.4 161.4 204.3 160.2L204.3 160.2Q204.8 159.6 205.4 159.6L205.4 159.6Q206.0 159.6 206.4 160.0Q206.8 160.3 206.8 160.9L206.8 160.9Q206.8 161.3 206.5 161.8L206.5 161.8Q205.8 163.3 204.2 164.1Q202.6 165.0 200.4 165.0ZM196.3 155.5L196.3 155.5L204.0 155.5Q203.9 153.7 202.9 152.6Q201.8 151.5 200.2 151.5L200.2 151.5Q198.5 151.5 197.5 152.6Q196.4 153.7 196.3 155.5ZM211.2 164.9L211.2 164.9Q210.5 164.9 210.1 164.5Q209.7 164.1 209.7 163.4L209.7 163.4L209.7 144.9Q209.7 144.2 210.1 143.7Q210.6 143.2 211.3 143.2Q212.0 143.2 212.4 143.7Q212.9 144.2 212.9 144.9L212.9 144.9L212.9 151.9L212.9 151.9Q213.6 150.5 214.9 149.8Q216.2 149.0 217.8 149.0L217.8 149.0Q220.7 149.0 222.5 151.2Q224.2 153.3 224.2 157.0L224.2 157.0Q224.2 160.6 222.5 162.8Q220.7 164.9 217.8 164.9L217.8 164.9Q216.1 164.9 214.8 164.2Q213.5 163.4 212.8 162.0L212.8 162.0L212.8 162.0L212.8 163.4Q212.8 164.1 212.3 164.5Q211.9 164.9 211.2 164.9ZM216.9 162.2L216.9 162.2Q218.8 162.2 219.9 160.8Q221.0 159.4 221.0 157.0L221.0 157.0Q221.0 154.5 219.9 153.1Q218.8 151.7 216.9 151.7L216.9 151.7Q215.1 151.7 214.0 153.1Q212.8 154.6 212.8 157.0L212.8 157.0Q212.8 159.3 214.0 160.8Q215.1 162.2 216.9 162.2ZM228.2 164.9L228.2 164.9Q227.5 164.9 227.1 164.5Q226.7 164.0 226.7 163.3L226.7 163.3L226.7 150.6Q226.7 149.9 227.1 149.4Q227.5 149.0 228.2 149.0L228.2 149.0Q228.8 149.0 229.3 149.4Q229.7 149.9 229.7 150.6L229.7 150.6L229.7 151.9L229.7 151.9Q230.1 150.6 231.0 149.8Q232.0 149.0 233.1 149.0L233.1 149.0Q234.0 149.0 234.4 149.4L234.4 149.4Q234.8 149.7 234.8 150.5L234.8 150.5Q234.8 151.2 234.3 151.6L234.3 151.6Q233.9 152.0 232.9 152.0L232.9 152.0Q231.3 152.0 230.6 153.0Q229.8 153.9 229.8 155.4L229.8 155.4L229.8 163.3Q229.8 164.0 229.4 164.5Q229.0 164.9 228.2 164.9ZM241.8 164.9L241.8 164.9Q239.3 164.9 237.9 163.4Q236.4 161.9 236.4 159.2L236.4 159.2L236.4 150.7Q236.4 149.9 236.9 149.4Q237.3 149.0 238.0 149.0L238.0 149.0Q238.7 149.0 239.2 149.4Q239.6 149.9 239.6 150.7L239.6 150.7L239.6 158.6Q239.6 160.4 240.4 161.3Q241.3 162.2 242.9 162.2L242.9 162.2Q244.6 162.2 245.6 161.1Q246.6 160.0 246.6 158.2L246.6 158.2L246.6 150.7Q246.6 149.9 247.0 149.4Q247.4 149.0 248.1 149.0L248.1 149.0Q248.9 149.0 249.3 149.4Q249.7 149.9 249.7 150.7L249.7 150.7L249.7 163.3Q249.7 164.1 249.3 164.5Q248.9 164.9 248.2 164.9Q247.5 164.9 247.1 164.5Q246.7 164.1 246.7 163.3L246.7 163.3L246.7 162.1L246.6 162.1Q245.3 164.9 241.8 164.9ZM257.4 164.9L257.4 164.9Q255.1 164.9 253.6 163.6Q252.2 162.3 252.2 160.3L252.2 160.3Q252.2 158.3 253.7 157.1Q255.2 155.9 257.9 155.7L257.9 155.7L262.2 155.5L262.2 154.3Q262.2 153.0 261.4 152.3Q260.5 151.6 259.1 151.6L259.1 151.6Q257.9 151.6 257.1 152.0Q256.3 152.5 255.7 153.5L255.7 153.5Q255.2 154.2 254.4 154.2L254.4 154.2Q253.8 154.2 253.4 153.8Q253.0 153.4 253.0 152.9L253.0 152.9Q253.0 152.3 253.3 151.8L253.3 151.8Q253.9 150.5 255.5 149.8Q257.1 149.0 259.2 149.0L259.2 149.0Q262.0 149.0 263.7 150.4Q265.3 151.7 265.3 154.0L265.3 154.0L265.3 163.3Q265.3 164.1 264.9 164.5Q264.5 164.9 263.8 164.9L263.8 164.9Q263.1 164.9 262.7 164.5Q262.3 164.1 262.3 163.4L262.3 163.4L262.3 162.1L262.2 162.1Q261.6 163.4 260.2 164.2Q258.9 164.9 257.4 164.9ZM258.2 162.4L258.2 162.4Q259.9 162.4 261.0 161.4Q262.2 160.4 262.2 158.9L262.2 158.9L262.2 157.7L258.4 157.9Q256.9 158.0 256.2 158.6Q255.4 159.2 255.4 160.2L255.4 160.2Q255.4 161.2 256.2 161.8Q257.0 162.4 258.2 162.4ZM270.0 164.9L270.0 164.9Q269.2 164.9 268.8 164.5Q268.4 164.0 268.4 163.3L268.4 163.3L268.4 150.6Q268.4 149.9 268.8 149.4Q269.2 149.0 269.9 149.0L269.9 149.0Q270.6 149.0 271.0 149.4Q271.4 149.9 271.4 150.6L271.4 150.6L271.4 151.9L271.5 151.9Q271.8 150.6 272.7 149.8Q273.7 149.0 274.8 149.0L274.8 149.0Q275.7 149.0 276.1 149.4L276.1 149.4Q276.5 149.7 276.5 150.5L276.5 150.5Q276.5 151.2 276.0 151.6L276.0 151.6Q275.6 152.0 274.6 152.0L274.6 152.0Q273.0 152.0 272.3 153.0Q271.5 153.9 271.5 155.4L271.5 155.4L271.5 163.3Q271.5 164.0 271.1 164.5Q270.7 164.9 270.0 164.9ZM280.1 170.4L280.1 170.4Q279.0 170.4 278.4 170.0Q277.9 169.6 277.9 168.9L277.9 168.9Q277.9 168.4 278.2 168.1Q278.5 167.8 279.1 167.8L279.1 167.8Q279.3 167.8 279.5 167.8Q279.7 167.8 279.9 167.8L279.9 167.8Q281.5 167.8 282.3 165.7L282.3 165.7L282.5 164.8L277.4 151.3Q277.2 150.9 277.2 150.4L277.2 150.4Q277.2 149.8 277.7 149.4Q278.1 149.0 278.8 149.0L278.8 149.0Q279.4 149.0 279.8 149.3Q280.1 149.5 280.4 150.2L280.4 150.2L284.3 161.8L284.3 161.8L288.3 150.2Q288.5 149.5 288.8 149.3Q289.2 149.0 289.8 149.0L289.8 149.0Q290.4 149.0 290.9 149.4Q291.3 149.8 291.3 150.4L291.3 150.4Q291.3 150.8 291.1 151.3L291.1 151.3L285.8 165.4Q284.8 168.2 283.5 169.3Q282.3 170.4 280.1 170.4Z M312.7 164.7L301.1 164.7Q300.3 164.7 299.9 164.3Q299.5 163.9 299.5 163.3L299.5 163.3Q299.5 162.8 299.7 162.5Q299.9 162.1 300.4 161.6L300.4 161.6L307.0 154.9Q309.1 152.8 309.8 151.7Q310.5 150.6 310.5 149.3L310.5 149.3Q310.5 147.8 309.4 146.8Q308.4 145.8 306.8 145.8L306.8 145.8Q303.6 145.8 302.5 149.0L302.5 149.0Q302.3 149.5 302.0 149.8Q301.6 150.0 301.0 150.0L301.0 150.0Q300.4 150.0 300.0 149.6Q299.6 149.3 299.6 148.6L299.6 148.6Q299.6 148.3 299.7 148.0L299.7 148.0Q299.9 147.1 300.4 146.3Q301.0 145.4 301.8 144.7Q302.7 144.0 304.0 143.6Q305.3 143.1 306.8 143.1L306.8 143.1Q309.8 143.1 311.8 144.8Q313.7 146.5 313.7 149.1L313.7 149.1Q313.7 150.9 312.7 152.5Q311.7 154.0 309.0 156.8L309.0 156.8L304.0 161.8L304.0 161.9L312.7 161.9Q313.4 161.9 313.8 162.3Q314.2 162.7 314.2 163.3L314.2 163.3Q314.2 163.9 313.8 164.3Q313.4 164.7 312.7 164.7L312.7 164.7ZM330.6 162.1Q328.5 165.1 324.7 165.1Q320.9 165.1 318.7 162.1Q316.6 159.2 316.6 154.1L316.6 154.1Q316.6 149.0 318.7 146.1Q320.9 143.1 324.7 143.1L324.7 143.1Q328.4 143.1 330.6 146.1Q332.7 149.0 332.7 154.1L332.7 154.1Q332.7 159.1 330.6 162.1ZM324.7 162.3L324.7 162.3Q326.9 162.3 328.2 160.1Q329.4 157.9 329.4 154.1L329.4 154.1Q329.4 150.3 328.2 148.1Q326.9 145.9 324.7 145.9Q322.4 145.9 321.2 148.1Q319.9 150.3 319.9 154.1L319.9 154.1Q319.9 157.9 321.1 160.1Q322.4 162.3 324.7 162.3ZM348.8 164.7L337.2 164.7Q336.4 164.7 336.0 164.3Q335.6 163.9 335.6 163.3L335.6 163.3Q335.6 162.8 335.8 162.5Q336.0 162.1 336.5 161.6L336.5 161.6L343.1 154.9Q345.2 152.8 345.9 151.7Q346.5 150.6 346.5 149.3L346.5 149.3Q346.5 147.8 345.5 146.8Q344.5 145.8 342.9 145.8L342.9 145.8Q339.7 145.8 338.6 149.0L338.6 149.0Q338.4 149.5 338.1 149.8Q337.7 150.0 337.1 150.0L337.1 150.0Q336.5 150.0 336.1 149.6Q335.7 149.3 335.7 148.6L335.7 148.6Q335.7 148.3 335.8 148.0L335.8 148.0Q336.0 147.1 336.5 146.3Q337.1 145.4 337.9 144.7Q338.8 144.0 340.1 143.6Q341.4 143.1 342.9 143.1L342.9 143.1Q345.9 143.1 347.9 144.8Q349.8 146.5 349.8 149.1L349.8 149.1Q349.8 150.9 348.8 152.5Q347.8 154.0 345.1 156.8L345.1 156.8L340.1 161.8L340.1 161.9L348.8 161.9Q349.5 161.9 349.9 162.3Q350.3 162.7 350.3 163.3L350.3 163.3Q350.3 163.9 349.9 164.3Q349.5 164.7 348.8 164.7L348.8 164.7ZM360.6 165.1L360.6 165.1Q358.2 165.1 356.3 164.0Q354.4 162.9 353.7 161.2L353.7 161.2Q353.4 160.5 353.4 159.8L353.4 159.8Q353.4 159.1 353.7 158.7Q354.1 158.3 354.8 158.3L354.8 158.3Q355.4 158.3 355.7 158.6Q356.0 158.8 356.3 159.4L356.3 159.4Q356.8 160.8 357.9 161.5Q359.0 162.3 360.6 162.3L360.6 162.3Q362.6 162.3 363.9 161.0Q365.2 159.8 365.2 157.8L365.2 157.8Q365.2 155.8 363.9 154.6Q362.6 153.4 360.6 153.4L360.6 153.4Q358.5 153.4 357.2 154.7L357.2 154.7Q356.5 155.5 356.1 155.6Q355.8 155.8 355.2 155.8L355.2 155.8Q354.4 155.8 354.0 155.4Q353.6 154.9 353.6 154.2L353.6 154.2L353.6 153.9L354.3 145.8Q354.4 144.6 355.0 144.0Q355.6 143.5 356.9 143.5L356.9 143.5L365.9 143.5Q366.5 143.5 366.9 143.9Q367.3 144.3 367.3 144.9Q367.3 145.5 366.9 145.9Q366.5 146.3 365.9 146.3L365.9 146.3L357.2 146.3L356.6 152.9L356.6 152.9Q357.3 151.9 358.6 151.3Q359.8 150.8 361.4 150.8L361.4 150.8Q364.5 150.8 366.4 152.7Q368.4 154.6 368.4 157.7L368.4 157.7Q368.4 161.0 366.2 163.0Q364.0 165.1 360.6 165.1Z "/><mask id="satori_om-id-0-0-1"><rect x="40" y="217" width="1120" height="83" fill="#fff"/></mask><path fill="#224d67" d="M47.5 280.1L47.5 280.1Q45.7 280.1 44.7 279.0Q43.7 278.0 43.7 276.2L43.7 276.2L43.7 241.2Q43.7 239.4 44.7 238.3Q45.7 237.3 47.5 237.3L47.5 237.3L67.7 237.3Q69.3 237.3 70.2 238.2Q71.2 239.0 71.2 240.5Q71.2 242.0 70.2 242.8Q69.3 243.7 67.7 243.7L67.7 243.7L51.3 243.7L51.3 256.2L66.2 256.2Q67.7 256.2 68.6 257.0Q69.5 257.8 69.5 259.2Q69.5 260.7 68.6 261.5Q67.7 262.3 66.2 262.3L66.2 262.3L51.3 262.3L51.3 276.2Q51.3 278.0 50.3 279.1Q49.3 280.1 47.5 280.1ZM81.9 279.2Q80.9 280.2 79.3 280.2Q77.6 280.2 76.6 279.2Q75.6 278.1 75.6 276.3L75.6 276.3L75.6 240.6Q75.6 238.7 76.6 237.7Q77.6 236.7 79.3 236.7Q80.9 236.7 81.9 237.7Q82.9 238.7 82.9 240.6L82.9 240.6L82.9 276.3Q82.9 278.1 81.9 279.2ZM102.9 280.2L102.9 280.2Q95.8 280.2 91.8 276.0Q87.8 271.7 87.8 264.2L87.8 264.2Q87.8 256.7 91.8 252.3Q95.8 247.9 102.5 247.9L102.5 247.9Q108.9 247.9 112.8 251.9Q116.8 256.0 116.8 262.4L116.8 262.4Q116.8 264.0 115.9 264.9Q115.0 265.8 113.4 265.8L113.4 265.8L95.1 265.8L95.1 266.0Q95.1 269.9 97.2 272.3Q99.3 274.6 102.9 274.6L102.9 274.6Q105.3 274.6 107.1 273.6Q108.9 272.7 110.6 270.4L110.6 270.4Q111.7 269.3 113.1 269.3L113.1 269.3Q114.4 269.3 115.2 270.0Q116.0 270.8 116.0 272.1L116.0 272.1Q116.0 272.9 115.5 273.9L115.5 273.9Q114.0 276.9 110.7 278.5Q107.4 280.2 102.9 280.2ZM95.2 261.0L95.2 261.0L109.7 261.0Q109.6 257.6 107.6 255.6Q105.6 253.5 102.5 253.5Q99.5 253.5 97.4 255.6Q95.4 257.7 95.2 261.0ZM123.9 280.2L123.9 280.2Q122.4 280.2 121.5 279.3Q120.5 278.5 120.5 277.1L120.5 277.1Q120.5 276.0 121.4 274.7L121.4 274.7L129.3 264.1L121.5 253.4Q120.7 252.3 120.7 251.1L120.7 251.1Q120.7 249.7 121.8 248.8Q122.8 247.9 124.3 247.9L124.3 247.9Q125.3 247.9 126.0 248.3Q126.7 248.8 127.4 249.9L127.4 249.9L133.8 259.4L134.0 259.4L140.3 249.9Q141.0 248.8 141.7 248.4Q142.4 247.9 143.3 247.9L143.3 247.9Q144.9 247.9 145.8 248.8Q146.8 249.6 146.8 251.0L146.8 251.0Q146.8 252.2 145.9 253.4L145.9 253.4L138.2 263.9L145.9 274.7Q146.7 275.9 146.7 276.9L146.7 276.9Q146.7 278.4 145.7 279.3Q144.7 280.2 143.2 280.2L143.2 280.2Q141.5 280.2 140.3 278.4L140.3 278.4L133.6 268.4L133.5 268.4L126.8 278.3Q126.1 279.3 125.5 279.8Q124.8 280.2 123.9 280.2ZM158.6 243.0Q157.4 244.2 155.7 244.2Q154.0 244.2 152.8 243.0Q151.7 241.8 151.7 240.2L151.7 240.2Q151.7 238.5 152.8 237.4Q154.0 236.2 155.7 236.2L155.7 236.2Q157.4 236.2 158.6 237.4Q159.8 238.5 159.8 240.2L159.8 240.2Q159.8 241.8 158.6 243.0ZM158.4 279.1Q157.4 280.2 155.7 280.2Q154.0 280.2 153.0 279.1Q152.1 278.1 152.1 276.3L152.1 276.3L152.1 251.7Q152.1 250.0 153.0 248.9Q154.0 247.9 155.7 247.9Q157.4 247.9 158.4 248.9Q159.4 250.0 159.4 251.8L159.4 251.8L159.4 276.3Q159.4 278.1 158.4 279.1ZM171.8 279.2Q170.8 280.2 169.2 280.2Q167.6 280.2 166.7 279.2Q165.7 278.3 165.7 276.5L165.7 276.5L165.7 240.6Q165.7 238.7 166.7 237.7Q167.7 236.7 169.3 236.7Q171.0 236.7 172.0 237.7Q173.0 238.7 173.0 240.6L173.0 240.6L173.0 253.9L173.2 253.9Q174.5 251.1 177.1 249.5Q179.6 248.0 182.9 248.0L182.9 248.0Q188.8 248.0 192.2 252.3Q195.7 256.6 195.7 264.1L195.7 264.1Q195.7 271.5 192.2 275.8Q188.8 280.1 182.9 280.1L182.9 280.1Q179.5 280.1 176.9 278.6Q174.4 277.0 173.0 274.3L173.0 274.3L172.8 274.3L172.8 276.5Q172.8 278.2 171.8 279.2ZM180.6 274.1L180.6 274.1Q184.1 274.1 186.2 271.4Q188.2 268.7 188.2 264.1Q188.2 259.4 186.2 256.7Q184.1 254.0 180.6 254.0L180.6 254.0Q177.2 254.0 175.1 256.8Q172.9 259.5 172.9 264.1L172.9 264.1Q172.9 268.6 175.1 271.3Q177.2 274.1 180.6 274.1ZM206.9 279.2Q205.9 280.2 204.2 280.2Q202.6 280.2 201.6 279.2Q200.6 278.1 200.6 276.3L200.6 276.3L200.6 240.6Q200.6 238.7 201.6 237.7Q202.6 236.7 204.2 236.7Q205.9 236.7 206.9 237.7Q207.9 238.7 207.9 240.6L207.9 240.6L207.9 276.3Q207.9 278.1 206.9 279.2ZM227.9 280.2L227.9 280.2Q220.8 280.2 216.8 276.0Q212.8 271.7 212.8 264.2L212.8 264.2Q212.8 256.7 216.8 252.3Q220.8 247.9 227.5 247.9L227.5 247.9Q233.8 247.9 237.8 251.9Q241.8 256.0 241.8 262.4L241.8 262.4Q241.8 264.0 240.9 264.9Q240.0 265.8 238.4 265.8L238.4 265.8L220.1 265.8L220.1 266.0Q220.1 269.9 222.2 272.3Q224.3 274.6 227.8 274.6L227.8 274.6Q230.3 274.6 232.1 273.6Q233.8 272.7 235.6 270.4L235.6 270.4Q236.6 269.3 238.0 269.3L238.0 269.3Q239.3 269.3 240.1 270.0Q241.0 270.8 241.0 272.1L241.0 272.1Q241.0 272.9 240.5 273.9L240.5 273.9Q238.9 276.9 235.6 278.5Q232.3 280.2 227.9 280.2ZM220.1 261.0L220.1 261.0L234.6 261.0Q234.5 257.6 232.5 255.6Q230.6 253.5 227.5 253.5Q224.4 253.5 222.4 255.6Q220.3 257.7 220.1 261.0Z M273.3 280.1L273.3 280.1Q271.5 280.1 270.5 279.1Q269.5 278.0 269.5 276.2L269.5 276.2L269.5 243.7L259.9 243.7Q258.3 243.7 257.4 242.8Q256.4 242.0 256.4 240.5Q256.4 239.0 257.4 238.2Q258.3 237.3 259.9 237.3L259.9 237.3L286.7 237.3Q288.3 237.3 289.3 238.2Q290.2 239.0 290.2 240.5Q290.2 242.0 289.2 242.8Q288.3 243.7 286.7 243.7L286.7 243.7L277.1 243.7L277.1 276.2Q277.1 278.0 276.1 279.1Q275.1 280.1 273.3 280.1ZM300.6 279.2Q299.6 280.2 298.0 280.2Q296.3 280.2 295.3 279.2Q294.3 278.1 294.3 276.3L294.3 276.3L294.3 240.5Q294.3 238.7 295.3 237.7Q296.3 236.7 297.9 236.7L297.9 236.7Q299.6 236.7 300.6 237.7Q301.5 238.7 301.5 240.5L301.5 240.5L301.5 253.9L301.7 253.9Q302.9 251.0 305.5 249.5Q308.0 247.9 311.5 247.9L311.5 247.9Q316.6 247.9 319.5 251.1Q322.4 254.2 322.4 259.6L322.4 259.6L322.4 276.3Q322.4 278.1 321.4 279.2Q320.3 280.2 318.7 280.2Q317.1 280.2 316.1 279.2Q315.1 278.1 315.1 276.3L315.1 276.3L315.1 261.1Q315.1 257.8 313.4 255.9Q311.8 254.1 308.7 254.1L308.7 254.1Q305.4 254.1 303.5 256.2Q301.6 258.3 301.6 261.7L301.6 261.7L301.6 276.3Q301.6 278.1 300.6 279.2ZM342.0 280.2L342.0 280.2Q334.9 280.2 330.9 276.0Q326.9 271.7 326.9 264.2L326.9 264.2Q326.9 256.7 330.9 252.3Q334.9 247.9 341.6 247.9L341.6 247.9Q347.9 247.9 351.9 251.9Q355.9 256.0 355.9 262.4L355.9 262.4Q355.9 264.0 355.0 264.9Q354.1 265.8 352.5 265.8L352.5 265.8L334.2 265.8L334.2 266.0Q334.2 269.9 336.3 272.3Q338.4 274.6 341.9 274.6L341.9 274.6Q344.4 274.6 346.2 273.6Q347.9 272.7 349.7 270.4L349.7 270.4Q350.8 269.3 352.2 269.3L352.2 269.3Q353.4 269.3 354.3 270.0Q355.1 270.8 355.1 272.1L355.1 272.1Q355.1 272.9 354.6 273.9L354.6 273.9Q353.0 276.9 349.7 278.5Q346.4 280.2 342.0 280.2ZM334.2 261.0L334.2 261.0L348.7 261.0Q348.6 257.6 346.7 255.6Q344.7 253.5 341.6 253.5Q338.5 253.5 336.5 255.6Q334.4 257.7 334.2 261.0ZM364.2 280.2L364.2 280.2Q362.5 280.2 361.5 279.2Q360.6 278.1 360.6 276.3L360.6 276.3L360.6 251.6Q360.6 249.9 361.5 248.9Q362.5 247.9 364.1 247.9Q365.6 247.9 366.6 248.9Q367.6 249.9 367.6 251.6L367.6 251.6L367.6 253.9L367.7 253.9Q368.7 251.2 371.1 249.5Q373.4 247.9 376.6 247.9L376.6 247.9Q379.8 247.9 382.1 249.6Q384.4 251.2 385.2 254.2L385.2 254.2L385.4 254.2Q386.5 251.3 389.1 249.6Q391.7 247.9 395.1 247.9L395.1 247.9Q399.7 247.9 402.4 250.8Q405.2 253.6 405.2 258.3L405.2 258.3L405.2 276.3Q405.2 278.1 404.2 279.1Q403.2 280.2 401.6 280.2L401.6 280.2Q399.9 280.2 398.9 279.1Q397.9 278.1 397.9 276.3L397.9 276.3L397.9 260.1Q397.9 257.2 396.5 255.6Q395.0 254.1 392.4 254.1L392.4 254.1Q389.7 254.1 388.1 255.8Q386.4 257.6 386.4 260.4L386.4 260.4L386.4 276.3Q386.4 278.1 385.5 279.2Q384.5 280.2 382.9 280.2L382.9 280.2Q381.2 280.2 380.3 279.2Q379.3 278.1 379.3 276.3L379.3 276.3L379.3 259.7Q379.3 257.1 377.9 255.6Q376.4 254.1 373.8 254.1L373.8 254.1Q371.2 254.1 369.5 255.9Q367.9 257.8 367.9 260.6L367.9 260.6L367.9 276.3Q367.9 278.1 366.9 279.1Q365.8 280.2 364.2 280.2ZM417.7 243.0Q416.6 244.2 414.9 244.2Q413.2 244.2 412.0 243.0Q410.8 241.8 410.8 240.2L410.8 240.2Q410.8 238.5 412.0 237.4Q413.2 236.2 414.9 236.2L414.9 236.2Q416.6 236.2 417.8 237.4Q418.9 238.5 418.9 240.2L418.9 240.2Q418.9 241.8 417.7 243.0ZM417.5 279.1Q416.5 280.2 414.9 280.2Q413.2 280.2 412.2 279.1Q411.2 278.1 411.2 276.3L411.2 276.3L411.2 251.7Q411.2 250.0 412.2 248.9Q413.2 247.9 414.9 247.9Q416.5 247.9 417.5 248.9Q418.5 250.0 418.5 251.8L418.5 251.8L418.5 276.3Q418.5 278.1 417.5 279.1ZM430.9 279.2Q429.9 280.2 428.3 280.2Q426.6 280.2 425.6 279.2Q424.6 278.1 424.6 276.3L424.6 276.3L424.6 251.6Q424.6 249.9 425.6 248.9Q426.5 247.9 428.1 247.9Q429.7 247.9 430.7 248.9Q431.7 249.9 431.7 251.6L431.7 251.6L431.7 253.8L431.9 253.8Q434.5 247.9 441.5 247.9L441.5 247.9Q446.6 247.9 449.5 251.0Q452.3 254.1 452.3 259.5L452.3 259.5L452.3 276.3Q452.3 278.1 451.3 279.2Q450.3 280.2 448.7 280.2Q447.0 280.2 446.0 279.2Q445 278.1 445 276.3L445 276.3L445 261.0Q445 257.6 443.4 255.9Q441.9 254.1 438.8 254.1L438.8 254.1Q435.7 254.1 433.8 256.2Q431.9 258.2 431.9 261.6L431.9 261.6L431.9 276.3Q431.9 278.1 430.9 279.2ZM471.5 291.3L471.5 291.3Q467.1 291.2 463.8 289.7Q460.5 288.2 458.9 285.6L458.9 285.6Q458.3 284.6 458.3 283.4L458.3 283.4Q458.3 282.2 459.1 281.4Q460.0 280.6 461.3 280.6L461.3 280.6Q462.8 280.6 464.0 281.8L464.0 281.8Q465.9 283.7 467.6 284.6Q469.4 285.4 471.6 285.5L471.6 285.5Q475.2 285.5 477.4 283.6Q479.5 281.7 479.5 278.6L479.5 278.6L479.5 273.7L479.3 273.7Q478.1 276.2 475.5 277.7Q472.9 279.3 469.6 279.3L469.6 279.3Q463.8 279.3 460.3 275.0Q456.8 270.8 456.8 263.7L456.8 263.7Q456.8 256.4 460.3 252.2Q463.8 248.0 469.8 248.0L469.8 248.0Q473.0 248.0 475.5 249.5Q478.0 251.1 479.4 253.8L479.4 253.8L479.5 253.8L479.5 251.6Q479.5 249.9 480.5 248.9Q481.6 247.9 483.2 247.9Q484.8 247.9 485.8 248.9Q486.8 249.9 486.8 251.6L486.8 251.6L486.8 278.6Q486.8 284.5 482.7 287.9Q478.7 291.3 471.5 291.3ZM471.8 273.6L471.8 273.6Q475.4 273.6 477.4 270.9Q479.5 268.3 479.5 263.7L479.5 263.7Q479.5 259.2 477.4 256.5Q475.3 253.8 471.8 253.8L471.8 253.8Q468.4 253.8 466.3 256.5Q464.3 259.2 464.3 263.7L464.3 263.7Q464.3 268.3 466.3 271.0Q468.4 273.6 471.8 273.6Z M520.4 280.3L520.4 280.3Q514.2 280.3 510.1 278.0Q505.9 275.7 504.7 272.0L504.7 272.0Q504.3 270.9 504.3 269.8L504.3 269.8Q504.3 268.2 505.2 267.3Q506.1 266.3 507.6 266.3L507.6 266.3Q508.9 266.3 509.7 266.9Q510.5 267.4 511.2 268.7L511.2 268.7Q512.1 271.4 514.6 272.7Q517.1 274.0 520.6 274.0L520.6 274.0Q524.4 274.0 526.9 272.3Q529.3 270.6 529.3 268.0L529.3 268.0Q529.3 265.7 527.5 264.2Q525.7 262.8 521.7 261.9L521.7 261.9L517.1 261.0Q504.7 258.4 504.7 249.1L504.7 249.1Q504.7 243.5 509.1 240.1Q513.5 236.6 520.4 236.6L520.4 236.6Q526.0 236.6 530.1 239.0Q534.1 241.4 535.4 245.5L535.4 245.5Q535.7 246.2 535.7 247.3L535.7 247.3Q535.7 248.6 534.8 249.5Q533.9 250.4 532.4 250.4L532.4 250.4Q529.9 250.4 528.8 248.0L528.8 248.0Q526.7 242.9 520.4 242.9L520.4 242.9Q516.8 242.9 514.6 244.4Q512.3 246.0 512.3 248.6L512.3 248.6Q512.3 250.8 514.1 252.2Q515.8 253.7 519.7 254.5L519.7 254.5L524.2 255.4Q530.9 256.8 533.9 259.6Q536.9 262.4 536.9 267.1L536.9 267.1Q536.9 273.2 532.5 276.7Q528.0 280.3 520.4 280.3ZM546.3 291.1L546.3 291.1Q543.8 291.1 542.5 290.2Q541.2 289.3 541.2 287.7L541.2 287.7Q541.2 286.6 542.0 285.9Q542.7 285.2 544.0 285.2L544.0 285.2Q544.3 285.2 544.7 285.2Q545.2 285.2 545.5 285.2L545.5 285.2Q548.5 285.2 550.0 281.7L550.0 281.7L550.5 280.1L540.3 253.4Q539.9 252.2 539.9 251.3L539.9 251.3Q539.9 249.8 541.0 248.9Q542.1 247.9 543.7 247.9L543.7 247.9Q545.0 247.9 545.9 248.6Q546.7 249.3 547.2 250.8L547.2 250.8L554.6 273.4L554.7 273.4L562.1 250.8Q562.6 249.3 563.4 248.6Q564.2 247.9 565.6 247.9L565.6 247.9Q567.2 247.9 568.2 248.8Q569.2 249.8 569.2 251.2L569.2 251.2Q569.2 252.2 568.8 253.3L568.8 253.3L558.5 280.7Q556.4 286.5 553.7 288.8Q550.9 291.1 546.3 291.1ZM585.1 280.2L585.1 280.2Q580.3 280.2 577.0 278.5Q573.6 276.8 572.5 274.0L572.5 274.0Q572.2 273.2 572.2 272.5L572.2 272.5Q572.2 271.2 573.0 270.4Q573.9 269.6 575.2 269.6L575.2 269.6Q577.0 269.6 578.4 271.4L578.4 271.4Q579.6 273.3 581.2 274.1Q582.8 274.9 585.4 274.9L585.4 274.9Q588.0 274.9 589.5 273.9Q591.0 272.8 591.0 271.1L591.0 271.1Q591.0 269.7 590.0 268.8Q589.1 268.0 586.7 267.4L586.7 267.4L581.6 266.3Q572.6 264.3 572.6 257.4L572.6 257.4Q572.6 253.1 576.0 250.5Q579.5 247.9 585.2 247.9L585.2 247.9Q589.6 247.9 592.9 249.8Q596.1 251.6 596.8 254.4L596.8 254.4Q597.0 255.0 597.0 255.5L597.0 255.5Q597.0 256.6 596.2 257.4Q595.5 258.1 594.2 258.1L594.2 258.1Q592.3 258.1 591.4 256.7L591.4 256.7Q590.2 255.0 588.7 254.1Q587.3 253.2 585.1 253.2L585.1 253.2Q582.7 253.2 581.2 254.3Q579.7 255.3 579.7 257.0L579.7 257.0Q579.7 259.8 584.2 260.8L584.2 260.8L589.2 261.9Q594.1 263.0 596.2 264.9Q598.4 266.9 598.4 270.3L598.4 270.3Q598.4 274.8 594.7 277.5Q591.1 280.2 585.1 280.2ZM605.0 271.9L605.0 271.9L605.0 254.1L603.0 254.1Q601.7 254.1 600.9 253.4Q600.1 252.6 600.1 251.3L600.1 251.3Q600.1 250.0 600.9 249.3Q601.7 248.5 603.0 248.5L603.0 248.5L605.0 248.5L605.0 244.4Q605.0 242.6 606.0 241.6Q607.0 240.6 608.7 240.6L608.7 240.6Q610.3 240.6 611.3 241.6Q612.3 242.6 612.3 244.4L612.3 244.4L612.3 248.5L615.7 248.5Q617.0 248.5 617.8 249.3Q618.6 250.0 618.6 251.3L618.6 251.3Q618.6 252.6 617.8 253.4Q617.0 254.1 615.7 254.1L615.7 254.1L612.3 254.1L612.3 270.3Q612.3 272.1 613.0 272.9Q613.6 273.7 615.2 273.9L615.2 273.9L615.7 273.9Q618.7 274.2 618.7 276.6L618.7 276.6Q618.7 278.2 617.3 279.1Q616.0 279.9 613.5 279.9L613.5 279.9L613.2 279.9Q605.0 279.9 605.0 271.9ZM636.9 280.2L636.9 280.2Q629.8 280.2 625.8 276.0Q621.8 271.7 621.8 264.2L621.8 264.2Q621.8 256.7 625.8 252.3Q629.8 247.9 636.5 247.9L636.5 247.9Q642.8 247.9 646.8 251.9Q650.8 256.0 650.8 262.4L650.8 262.4Q650.8 264.0 649.9 264.9Q649.0 265.8 647.4 265.8L647.4 265.8L629.1 265.8L629.1 266.0Q629.1 269.9 631.2 272.3Q633.3 274.6 636.8 274.6L636.8 274.6Q639.3 274.6 641.1 273.6Q642.8 272.7 644.6 270.4L644.6 270.4Q645.7 269.3 647.1 269.3L647.1 269.3Q648.3 269.3 649.2 270.0Q650.0 270.8 650.0 272.1L650.0 272.1Q650.0 272.9 649.5 273.9L649.5 273.9Q647.9 276.9 644.6 278.5Q641.3 280.2 636.9 280.2ZM629.1 261.0L629.1 261.0L643.6 261.0Q643.5 257.6 641.6 255.6Q639.6 253.5 636.5 253.5Q633.4 253.5 631.4 255.6Q629.3 257.7 629.1 261.0ZM659.1 280.2L659.1 280.2Q657.4 280.2 656.5 279.2Q655.5 278.1 655.5 276.3L655.5 276.3L655.5 251.6Q655.5 249.9 656.4 248.9Q657.4 247.9 659.0 247.9Q660.5 247.9 661.5 248.9Q662.5 249.9 662.5 251.6L662.5 251.6L662.5 253.9L662.6 253.9Q663.6 251.2 666.0 249.5Q668.3 247.9 671.5 247.9L671.5 247.9Q674.7 247.9 677.0 249.6Q679.3 251.2 680.1 254.2L680.1 254.2L680.3 254.2Q681.4 251.3 684.0 249.6Q686.6 247.9 690.0 247.9L690.0 247.9Q694.6 247.9 697.3 250.8Q700.1 253.6 700.1 258.3L700.1 258.3L700.1 276.3Q700.1 278.1 699.1 279.1Q698.1 280.2 696.5 280.2L696.5 280.2Q694.8 280.2 693.8 279.1Q692.8 278.1 692.8 276.3L692.8 276.3L692.8 260.1Q692.8 257.2 691.4 255.6Q689.9 254.1 687.3 254.1L687.3 254.1Q684.6 254.1 683.0 255.8Q681.3 257.6 681.3 260.4L681.3 260.4L681.3 276.3Q681.3 278.1 680.4 279.2Q679.4 280.2 677.8 280.2L677.8 280.2Q676.1 280.2 675.2 279.2Q674.2 278.1 674.2 276.3L674.2 276.3L674.2 259.7Q674.2 257.1 672.8 255.6Q671.3 254.1 668.7 254.1L668.7 254.1Q666.1 254.1 664.4 255.9Q662.8 257.8 662.8 260.6L662.8 260.6L662.8 276.3Q662.8 278.1 661.8 279.1Q660.7 280.2 659.1 280.2Z "/><defs><clipPath id="satori_bc-id-0-1"><rect x="0" y="441" width="1200" height="189"/></clipPath></defs><mask id="satori_om-id-0-1"><rect x="0" y="442" width="1200" height="188" fill="#fff"/><path width="1200" height="189" fill="none" stroke="#000" stroke-width="2" d="M0,441 A0,0 0 0 1 0,441 h1200 A0,0 0 0 1 1200,441"/></mask><path width="1200" height="189" clip-path="url(#satori_bc-id-0-1)" fill="none" stroke="#dbdbdb" stroke-width="2" d="M0,441 A0,0 0 0 1 0,441 h1200 A0,0 0 0 1 1200,441"/><mask id="satori_om-id-0-1-0"><rect x="40" y="482" width="209" height="108" fill="#fff"/></mask><clipPath id="satori_cp-id-0-1-0-0"><rect x="40" y="504" width="64" height="64"/></clipPath><mask id="satori_om-id-0-1-0-0"><rect x="40" y="504" width="64" height="64" fill="#fff"/></mask><image x="40" y="504" width="64" height="64" href="data:image/svg+xml;utf8,%3Csvg  xmlns=%22http://www.w3.org/2000/svg%22 width=%2264%22 height=%2264%22 viewBox=%220 0 128 128%22%3E%3Cpath fill=%22%23224d67%22 d=%22M22.5 14.8c2.9 1.3 99 44 99 44c2.7 1.2 2.9 3.1 2 12.4c-1 10.5-1.9 37.8-40.2 42.9c-24.6 3.2-55.9-4.3-70.9-27.2C-6 58.8 11 23.4 14.8 17.7c2.4-3.5 4.8-4.2 7.7-2.9%22%3E%3C/path%3E%3Cpath fill=%22%23f0f4c3%22 d=%22M121.5 58.8c-.3-.2-92-40.8-98.9-43.9C9.6 31.5-3.8 76 27.9 96.2c33.6 21.5 78.7-10.2 93.6-37.4%22%3E%3C/path%3E%3Cpath fill=%22%23f0f4c3%22 d=%22M117.7 57c-.3-.2-86.7-38.4-93.2-41.3c-12.2 15.5-23.9 59.1 5.7 78c31.4 20.2 73.6-11.2 87.5-36.7%22%3E%3C/path%3E%3Cpath fill=%22%23cb2a42%22 d=%22M56.2 37.6L19.5 48.2c-2.5.8-4.4 2.8-5 5.3c-1.9 8.5.8 23.3 8.9 29.8c3.5 2.7 8.6 1.8 10.8-2.1L58.5 41c1.3-1.7.5-4.2-2.3-3.4m14.3 2.9s14.6 30.1 16 33s6.3 4.7 9.9 2.8c10.7-5.6 15.5-12.4 19.2-20.2c-8.9-3.9-42.4-18.8-42.4-18.8c-2.4-1.1-4 .6-2.7 3.2m-8.6 1.9C60.3 45.1 39.5 81 37.6 84.1c-1.9 3.2-.7 7.5 2.7 9.2c12.3 6.5 30.9.4 39.6-7c2.2-1.9 4.5-5.1 3.2-8.2S68.9 44.6 67.8 42.3c-1.2-2.7-4.1-2.8-5.9.1%22%3E%3C/path%3E%3Cpath fill=%22%23f0f4c3%22 d=%22M52.2 42.2c-1.4.4-10.1 3-11.1 3.4c-1.4.5-2.2 1.7-1.9 2.5c.3.9 1.7 1.1 3.1.6c.8-.3 7.1-3.9 9.5-5.2c-3.1 2.4-10.2 9.4-11.1 10.3c-1.4 1.5-1.7 3.4-.8 4.3c1 .9 2.9.5 4.3-1c1.2-1.3 8.5-12.8 9.1-13.9s.4-1.4-1.1-1m10.1 16.4c0-2.2 1.4-10.3 1.8-12.3c.4-1.6 1.5-1.8 1.8.5s1.7 9.7 1.7 11.8s-1.2 3.3-2.7 3.3c-1.4 0-2.6-1.1-2.6-3.3M79.9 49c-1.2-1.8-3.3-4.9-4.1-6.1c-.7-1.2.1-2.1 1.8-.9s4 2.9 5.4 4c1.6 1.3 1.9 3 .8 4s-2.7.8-3.9-1%22%3E%3C/path%3E%3Cellipse cx=%2287.3%22 cy=%22103.12%22 fill=%22%23cb2a42%22 rx=%223.4%22 ry=%222.3%22 transform=%22rotate(-27.098 87.298 103.126)%22%3E%3C/ellipse%3E%3Cellipse cx=%2298.89%22 cy=%22103.82%22 fill=%22%23cb2a42%22 rx=%223.4%22 ry=%222.3%22 transform=%22rotate(-30.642 98.887 103.818)%22%3E%3C/ellipse%3E%3Cellipse cx=%22102.02%22 cy=%2293.8%22 fill=%22%23cb2a42%22 rx=%223.4%22 ry=%222.3%22 transform=%22rotate(-37.16 102.017 93.797)%22%3E%3C/ellipse%3E%3Cpath fill=%22%23cb2a42%22 d=%22M57.6 30.3c-8.3-3.7-24.4-10.7-29.6-13c-3.6 2.2-9.7 11.4-11.2 21.2c-.6 3.6 1.7 5.9 5.3 4.9c0 0 33.7-9.3 35.3-9.7c1.6-.5 2-2.6.2-3.4%22%3E%3C/path%3E%3C/svg%3E" preserveAspectRatio="none" clip-path="url(#satori_cp-id-0-1-0-0)" mask="url(#satori_om-id-0-1-0-0)"/><mask id="satori_om-id-0-1-0-0-0"><rect x="40" y="504" width="0" height="64" fill="#fff"/></mask><mask id="satori_om-id-0-1-0-0-1"><rect x="40" y="504" width="0" height="64" fill="#fff"/></mask><mask id="satori_om-id-0-1-0-0-2"><rect x="40" y="504" width="0" height="64" fill="#fff"/></mask><mask id="satori_om-id-0-1-0-0-3"><rect x="40" y="504" width="0" height="64" fill="#fff"/></mask><mask id="satori_om-id-0-1-0-0-4"><rect x="40" y="504" width="0" height="64" fill="#fff"/></mask><mask id="satori_om-id-0-1-0-0-5"><rect x="40" y="504" width="0" height="64" fill="#fff"/></mask><mask id="satori_om-id-0-1-0-0-6"><rect x="40" y="504" width="0" height="64" fill="#fff"/></mask><mask id="satori_om-id-0-1-0-0-7"><rect x="40" y="504" width="0" height="64" fill="#fff"/></mask><mask id="satori_om-id-0-1-0-0-8"><rect x="40" y="504" width="0" height="64" fill="#fff"/></mask><mask id="satori_om-id-0-1-0-1"><rect x="116" y="512" width="133" height="48" fill="#fff"/></mask><path fill="#545454" d="M133.9 553.6L133.9 553.6Q126.4 553.6 122.1 549.0Q117.8 544.3 117.8 536.1L117.8 536.1Q117.8 528.0 122.1 523.3Q126.4 518.7 133.7 518.7L133.7 518.7Q138.4 518.7 142.0 520.7Q145.5 522.7 147.2 526.3L147.2 526.3Q147.9 527.7 147.9 529.0L147.9 529.0Q147.9 530.4 147.1 531.2Q146.2 532.0 144.8 532.0L144.8 532.0Q143.6 532.0 142.8 531.5Q142.0 530.9 141.5 529.7L141.5 529.7Q140.3 527.1 138.3 525.8Q136.3 524.5 133.8 524.5L133.8 524.5Q129.8 524.5 127.4 527.7Q125.0 530.8 125.0 536.1L125.0 536.1Q125.0 541.5 127.3 544.7Q129.7 547.8 133.8 547.8L133.8 547.8Q139.3 547.8 141.5 542.8L141.5 542.8Q142.1 541.6 142.8 541.1Q143.5 540.5 144.7 540.5L144.7 540.5Q146.2 540.5 147.1 541.4Q148.0 542.3 148.0 543.7L148.0 543.7Q148.0 544.8 147.4 546.1L147.4 546.1Q145.8 549.6 142.3 551.6Q138.7 553.6 133.9 553.6ZM158.6 523.8Q157.5 524.8 156.0 524.8Q154.4 524.8 153.4 523.8Q152.3 522.8 152.3 521.3L152.3 521.3Q152.3 519.8 153.4 518.8Q154.4 517.7 156.0 517.7Q157.5 517.7 158.6 518.8Q159.6 519.8 159.6 521.3L159.6 521.3Q159.6 522.8 158.6 523.8ZM158.5 552.6Q157.6 553.6 156.0 553.6Q154.4 553.6 153.5 552.6Q152.5 551.7 152.5 550.0L152.5 550.0L152.5 531.0Q152.5 529.3 153.5 528.4Q154.4 527.4 156.0 527.4Q157.6 527.4 158.5 528.4Q159.4 529.3 159.4 531.0L159.4 531.0L159.4 550.0Q159.4 551.7 158.5 552.6ZM165.8 546.6L165.8 546.6L165.8 533.1L164.4 533.1Q163.2 533.1 162.5 532.4Q161.8 531.7 161.8 530.5Q161.8 529.3 162.5 528.6Q163.2 527.9 164.4 527.9L164.4 527.9L165.8 527.9L165.8 525.1Q165.8 523.5 166.7 522.5Q167.6 521.6 169.2 521.6Q170.8 521.6 171.7 522.5Q172.6 523.5 172.6 525.1L172.6 525.1L172.6 527.9L175.0 527.9Q176.2 527.9 176.9 528.6Q177.6 529.3 177.6 530.5Q177.6 531.7 176.9 532.4Q176.2 533.1 175.0 533.1L175.0 533.1L172.6 533.1L172.6 545.1Q172.6 546.5 173.1 547.1Q173.6 547.7 174.7 547.8L174.7 547.8L175.1 547.8Q176.4 548.0 177.1 548.5Q177.7 549.1 177.7 550.3L177.7 550.3Q177.7 551.8 176.4 552.6Q175.1 553.3 172.9 553.3L172.9 553.3L172.6 553.3Q165.8 553.3 165.8 546.6ZM184.4 553.6L184.4 553.6Q182.8 553.6 181.9 552.6Q181.0 551.7 181.0 550.0L181.0 550.0L181.0 530.9Q181.0 529.3 181.9 528.3Q182.8 527.4 184.3 527.4L184.3 527.4Q185.8 527.4 186.6 528.3Q187.5 529.3 187.5 530.9L187.5 530.9L187.5 532.5L187.7 532.5Q188.2 530.2 189.6 528.9Q191 527.5 192.9 527.5L192.9 527.5Q194.3 527.5 195.0 528.2L195.0 528.2Q196.0 528.9 196.0 530.7L196.0 530.7Q196.0 532.3 195.0 533.2L195.0 533.2Q194.0 534.0 192.1 534.1L192.1 534.1Q189.8 534.1 188.8 535.3Q187.8 536.5 187.8 538.8L187.8 538.8L187.8 550.0Q187.8 551.7 186.9 552.6Q186.0 553.6 184.4 553.6ZM207.4 553.5L207.4 553.5Q203.3 553.5 200.8 551.0Q198.3 548.5 198.3 544.1L198.3 544.1L198.3 531.0Q198.3 529.3 199.3 528.4Q200.2 527.4 201.8 527.4Q203.3 527.4 204.2 528.4Q205.2 529.3 205.2 531.0L205.2 531.0L205.2 542.7Q205.2 545.2 206.4 546.5Q207.6 547.8 209.9 547.8Q212.1 547.8 213.5 546.3Q214.8 544.8 214.8 542.3L214.8 542.3L214.8 531.0Q214.8 529.3 215.8 528.4Q216.7 527.4 218.2 527.4Q219.8 527.4 220.7 528.4Q221.7 529.3 221.7 531.0L221.7 531.0L221.7 550.1Q221.7 551.8 220.8 552.7Q219.9 553.6 218.4 553.6Q216.8 553.6 215.9 552.7Q215.0 551.8 215.0 550.1L215.0 550.1L215.0 548.5L214.9 548.5Q212.9 553.5 207.4 553.5ZM236.4 553.6L236.4 553.6Q232.1 553.6 229.3 552.2Q226.5 550.9 225.5 548.6L225.5 548.6Q225.3 547.9 225.3 547.3L225.3 547.3Q225.3 546.1 226.1 545.4Q226.9 544.7 228.1 544.7L228.1 544.7Q229.6 544.7 231.0 546.2L231.0 546.2Q232.1 547.6 233.3 548.2Q234.6 548.8 236.5 548.8L236.5 548.8Q238.4 548.8 239.5 548.1Q240.6 547.3 240.6 546.1L240.6 546.1Q240.6 545.1 239.9 544.5Q239.1 543.9 237.3 543.5L237.3 543.5L233.1 542.6Q229.4 541.8 227.5 539.9Q225.7 538.1 225.7 535.3L225.7 535.3Q225.7 531.7 228.6 529.5Q231.5 527.4 236.3 527.4L236.3 527.4Q240.1 527.4 242.8 528.9Q245.5 530.4 246.2 532.6L246.2 532.6Q246.3 533.2 246.3 533.6L246.3 533.6Q246.3 534.7 245.7 535.3Q245 536.0 243.7 536.0L243.7 536.0Q242.1 536.0 241.2 534.9L241.2 534.9Q240.2 533.6 239.1 532.9Q237.9 532.2 236.2 532.2L236.2 532.2Q234.5 532.2 233.4 533.0Q232.3 533.7 232.3 534.9L232.3 534.9Q232.3 535.9 233.1 536.6Q233.9 537.2 235.8 537.6L235.8 537.6L239.9 538.5Q243.9 539.4 245.7 541.0Q247.5 542.6 247.5 545.4L247.5 545.4Q247.5 549.1 244.4 551.4Q241.3 553.6 236.4 553.6Z "/><mask id="satori_om-id-0-1-1"><rect x="951" y="524" width="209" height="36" fill="#fff"/></mask><path fill="#8e8e8e" d="M954.9 552.6Q954.5 552.9 954.0 552.9Q953.4 552.9 953.1 552.6Q952.8 552.2 952.8 551.7L952.8 551.7L952.8 532.6Q952.8 532.0 953.1 531.6Q953.5 531.3 954.1 531.3Q954.6 531.3 955.0 531.6Q955.3 532.0 955.3 532.6L955.3 532.6L955.3 540.0L955.4 540.0Q956.1 538.7 957.4 537.9Q958.7 537.2 960.3 537.2L960.3 537.2Q963.2 537.2 964.9 539.3Q966.7 541.5 966.7 545.0L966.7 545.0Q966.7 548.6 964.9 550.8Q963.2 552.9 960.2 552.9L960.2 552.9Q958.6 552.9 957.3 552.2Q956.0 551.4 955.3 550.1L955.3 550.1L955.2 550.1L955.2 551.7Q955.2 552.2 954.9 552.6ZM959.7 550.7L959.7 550.7Q961.8 550.7 962.9 549.2Q964.1 547.7 964.1 545.0L964.1 545.0Q964.1 542.5 962.9 540.9Q961.8 539.4 959.7 539.4L959.7 539.4Q957.8 539.4 956.6 541.0Q955.3 542.5 955.3 545.0L955.3 545.0Q955.3 547.6 956.6 549.1Q957.8 550.7 959.7 550.7ZM970.8 558.4L970.8 558.4Q969.9 558.4 969.4 558.0Q968.9 557.7 968.9 557.1L968.9 557.1Q968.9 556.7 969.1 556.4Q969.4 556.2 969.9 556.2L969.9 556.2Q970.1 556.2 970.3 556.2Q970.5 556.2 970.7 556.2L970.7 556.2Q972.4 556.2 973.2 553.7L973.2 553.7L973.6 552.7L968.3 539.0Q968.2 538.6 968.2 538.3L968.2 538.3Q968.2 537.8 968.6 537.5Q968.9 537.2 969.5 537.2L969.5 537.2Q970.4 537.2 970.7 538.1L970.7 538.1L974.9 550.1L975.0 550.1L979.2 538.1Q979.3 537.6 979.6 537.4Q979.9 537.2 980.4 537.2L980.4 537.2Q980.9 537.2 981.3 537.5Q981.6 537.8 981.6 538.3L981.6 538.3Q981.6 538.6 981.5 539.0L981.5 539.0L975.9 553.7Q974.9 556.4 973.8 557.4Q972.7 558.4 970.8 558.4Z M990.5 552.9L990.5 552.9Q989.9 552.9 989.5 552.5Q989.2 552.2 989.2 551.7L989.2 551.7Q989.2 551.4 989.3 551.0L989.3 551.0L996.1 532.6Q996.6 531.3 997.8 531.3L997.8 531.3Q999.0 531.3 999.5 532.6L999.5 532.6L1006.3 551.0Q1006.5 551.4 1006.5 551.7L1006.5 551.7Q1006.5 552.2 1006.1 552.5Q1005.7 552.9 1005.2 552.9L1005.2 552.9Q1004.2 552.9 1003.9 551.9L1003.9 551.9L1002.0 546.6L993.6 546.6L991.8 551.9Q991.4 552.9 990.5 552.9ZM997.8 534.7L994.4 544.4L1001.2 544.4L997.9 534.7L997.8 534.7ZM1011.1 552.5Q1010.8 552.9 1010.2 552.9Q1009.7 552.9 1009.3 552.5Q1008.9 552.2 1008.9 551.6L1008.9 551.6L1008.9 538.5Q1008.9 537.9 1009.3 537.5Q1009.6 537.2 1010.1 537.2Q1010.7 537.2 1011 537.5Q1011.3 537.9 1011.3 538.5L1011.3 538.5L1011.3 539.9L1011.4 539.9Q1011.7 538.7 1012.7 537.9Q1013.7 537.2 1014.9 537.2L1014.9 537.2Q1015.7 537.2 1016.1 537.5L1016.1 537.5Q1016.4 537.8 1016.4 538.4L1016.4 538.4Q1016.4 539.0 1016.0 539.3L1016.0 539.3Q1015.6 539.6 1014.8 539.6L1014.8 539.6Q1013.1 539.6 1012.3 540.6Q1011.5 541.6 1011.5 543.2L1011.5 543.2L1011.5 551.6Q1011.5 552.2 1011.1 552.5ZM1019.0 549.1L1019.0 549.1L1019.0 539.5L1017.7 539.5Q1017.2 539.5 1016.9 539.3Q1016.6 539.0 1016.6 538.5L1016.6 538.5Q1016.6 538.0 1016.9 537.7Q1017.2 537.4 1017.7 537.4L1017.7 537.4L1019.0 537.4L1019.0 534.8Q1019.0 534.2 1019.4 533.8Q1019.7 533.5 1020.3 533.5Q1020.8 533.5 1021.2 533.8Q1021.5 534.2 1021.5 534.8L1021.5 534.8L1021.5 537.4L1023.5 537.4Q1024.1 537.4 1024.4 537.7Q1024.7 538.0 1024.7 538.5L1024.7 538.5Q1024.7 539.0 1024.4 539.3Q1024.1 539.5 1023.5 539.5L1023.5 539.5L1021.5 539.5L1021.5 548.6Q1021.5 549.6 1021.9 550.0Q1022.3 550.5 1023.3 550.6L1023.3 550.6L1023.5 550.6Q1024.7 550.7 1024.7 551.6L1024.7 551.6Q1024.7 552.2 1024.3 552.5Q1023.9 552.8 1022.9 552.8L1022.9 552.8L1022.7 552.8Q1019.0 552.8 1019.0 549.1ZM1033.6 552.9L1033.6 552.9Q1030.2 552.9 1028.4 550.9Q1026.5 548.8 1026.5 545.1L1026.5 545.1Q1026.5 541.5 1028.4 539.3Q1030.2 537.2 1033.4 537.2L1033.4 537.2Q1036.3 537.2 1038.2 539.1Q1040.0 541.1 1040.0 544.3L1040.0 544.3Q1040.0 544.9 1039.6 545.3Q1039.3 545.7 1038.6 545.7L1038.6 545.7L1029.1 545.7Q1029.1 548.0 1030.3 549.4Q1031.5 550.7 1033.5 550.7L1033.5 550.7Q1034.9 550.7 1035.8 550.2Q1036.7 549.6 1037.6 548.3L1037.6 548.3Q1038.0 547.8 1038.6 547.8L1038.6 547.8Q1039.1 547.8 1039.4 548.1Q1039.7 548.4 1039.7 548.9L1039.7 548.9Q1039.7 549.2 1039.5 549.7L1039.5 549.7Q1038.8 551.2 1037.2 552.1Q1035.7 552.9 1033.6 552.9ZM1029.1 543.7L1029.1 543.7L1037.4 543.7Q1037.3 541.8 1036.2 540.6Q1035.1 539.4 1033.3 539.4L1033.3 539.4Q1031.6 539.4 1030.4 540.6Q1029.2 541.8 1029.1 543.7ZM1044.8 552.5Q1044.4 552.9 1043.9 552.9Q1043.3 552.9 1042.9 552.5Q1042.6 552.2 1042.6 551.6L1042.6 551.6L1042.6 538.5Q1042.6 537.9 1042.9 537.5Q1043.3 537.2 1043.8 537.2Q1044.3 537.2 1044.6 537.5Q1045.0 537.9 1045.0 538.5L1045.0 538.5L1045.0 539.9L1045.0 539.9Q1045.6 538.6 1046.7 537.9Q1047.9 537.2 1049.4 537.2L1049.4 537.2Q1050.9 537.2 1052.0 537.9Q1053.1 538.7 1053.6 540.1L1053.6 540.1L1053.7 540.1Q1054.3 538.7 1055.6 537.9Q1056.9 537.2 1058.5 537.2L1058.5 537.2Q1060.7 537.2 1062.1 538.5Q1063.4 539.9 1063.4 542.1L1063.4 542.1L1063.4 551.6Q1063.4 552.2 1063.1 552.5Q1062.7 552.9 1062.2 552.9Q1061.6 552.9 1061.2 552.5Q1060.9 552.2 1060.9 551.6L1060.9 551.6L1060.9 542.7Q1060.9 541.2 1060.1 540.3Q1059.2 539.4 1057.7 539.4Q1056.2 539.4 1055.3 540.4Q1054.3 541.4 1054.3 543.0L1054.3 543.0L1054.3 551.6Q1054.3 552.2 1053.9 552.5Q1053.6 552.9 1053.0 552.9Q1052.4 552.9 1052.1 552.5Q1051.7 552.2 1051.7 551.6L1051.7 551.6L1051.7 542.5Q1051.7 541.1 1050.9 540.2Q1050.0 539.4 1048.6 539.4L1048.6 539.4Q1047.1 539.4 1046.1 540.5Q1045.1 541.5 1045.1 543.1L1045.1 543.1L1045.1 551.6Q1045.1 552.2 1044.8 552.5Z M1075.5 552.5Q1075.1 552.9 1074.5 552.9Q1073.9 552.9 1073.6 552.5Q1073.2 552.1 1073.2 551.5L1073.2 551.5L1073.2 532.7Q1073.2 532.1 1073.6 531.7Q1073.9 531.3 1074.5 531.3Q1075.1 531.3 1075.5 531.7Q1075.9 532.1 1075.9 532.7L1075.9 532.7L1075.9 541.8L1076.0 541.8L1085.4 531.8Q1085.9 531.3 1086.5 531.3L1086.5 531.3Q1087.0 531.3 1087.3 531.7Q1087.7 532.0 1087.7 532.5L1087.7 532.5Q1087.7 533.0 1087.3 533.3L1087.3 533.3L1080.1 540.9L1088.2 550.6Q1088.5 551.1 1088.5 551.6L1088.5 551.6Q1088.5 552.2 1088.2 552.5Q1087.8 552.9 1087.3 552.9L1087.3 552.9Q1086.6 552.9 1086.1 552.2L1086.1 552.2L1078.2 542.8L1075.9 545.3L1075.9 551.5Q1075.9 552.1 1075.5 552.5ZM1096.5 552.9L1096.5 552.9Q1094.0 552.9 1092.6 551.4Q1091.2 549.9 1091.2 547.3L1091.2 547.3L1091.2 538.5Q1091.2 537.9 1091.6 537.5Q1091.9 537.2 1092.5 537.2Q1093.0 537.2 1093.4 537.5Q1093.8 537.9 1093.8 538.5L1093.8 538.5L1093.8 546.9Q1093.8 550.7 1097.3 550.7L1097.3 550.7Q1099.1 550.7 1100.2 549.5Q1101.2 548.3 1101.2 546.4L1101.2 546.4L1101.2 538.5Q1101.2 537.9 1101.6 537.5Q1102.0 537.2 1102.5 537.2Q1103.1 537.2 1103.4 537.5Q1103.8 537.9 1103.8 538.5L1103.8 538.5L1103.8 551.6Q1103.8 552.2 1103.5 552.6Q1103.1 552.9 1102.6 552.9Q1102.1 552.9 1101.7 552.6Q1101.4 552.2 1101.4 551.6L1101.4 551.6L1101.4 550.2L1101.3 550.2Q1099.9 552.9 1096.5 552.9ZM1107.9 549.1L1107.9 549.1L1107.9 539.5L1106.6 539.5Q1106.1 539.5 1105.8 539.3Q1105.5 539.0 1105.5 538.5L1105.5 538.5Q1105.5 538.0 1105.8 537.7Q1106.1 537.4 1106.6 537.4L1106.6 537.4L1107.9 537.4L1107.9 534.8Q1107.9 534.2 1108.3 533.8Q1108.6 533.5 1109.2 533.5Q1109.7 533.5 1110.1 533.8Q1110.5 534.2 1110.5 534.8L1110.5 534.8L1110.5 537.4L1112.4 537.4Q1113.0 537.4 1113.3 537.7Q1113.6 538.0 1113.6 538.5L1113.6 538.5Q1113.6 539.0 1113.3 539.3Q1113.0 539.5 1112.4 539.5L1112.4 539.5L1110.5 539.5L1110.5 548.6Q1110.5 549.6 1110.9 550.0Q1111.3 550.5 1112.2 550.6L1112.2 550.6L1112.4 550.6Q1113.6 550.7 1113.6 551.6L1113.6 551.6Q1113.6 552.2 1113.2 552.5Q1112.8 552.8 1111.8 552.8L1111.8 552.8L1111.6 552.8Q1107.9 552.8 1107.9 549.1ZM1121.4 552.9L1121.4 552.9Q1119.4 552.9 1117.9 552.1Q1116.4 551.2 1115.9 549.8L1115.9 549.8Q1115.7 549.5 1115.7 549.2L1115.7 549.2Q1115.7 548.7 1116.1 548.4Q1116.4 548.2 1116.9 548.2L1116.9 548.2Q1117.6 548.2 1118.0 548.9L1118.0 548.9Q1118.6 550.0 1119.4 550.4Q1120.2 550.8 1121.6 550.8L1121.6 550.8Q1123.1 550.8 1124.0 550.2Q1124.9 549.6 1124.9 548.6L1124.9 548.6Q1124.9 547.7 1124.4 547.3Q1123.8 546.8 1122.5 546.5L1122.5 546.5L1120.2 545.9Q1115.9 544.8 1115.9 541.6L1115.9 541.6Q1115.9 539.6 1117.5 538.4Q1119.0 537.2 1121.6 537.2L1121.6 537.2Q1123.5 537.2 1125.0 538.1Q1126.5 539.0 1126.8 540.4L1126.8 540.4Q1126.8 540.6 1126.8 540.8L1126.8 540.8Q1126.8 541.2 1126.5 541.5Q1126.3 541.8 1125.8 541.8L1125.8 541.8Q1125.0 541.8 1124.7 541.1L1124.7 541.1Q1124.2 540.1 1123.4 539.7Q1122.7 539.3 1121.5 539.3L1121.5 539.3Q1120.1 539.3 1119.2 539.9Q1118.4 540.5 1118.4 541.5L1118.4 541.5Q1118.4 543.1 1120.9 543.7L1120.9 543.7L1123.1 544.2Q1125.5 544.8 1126.5 545.8Q1127.5 546.7 1127.5 548.4L1127.5 548.4Q1127.5 550.4 1125.8 551.7Q1124.1 552.9 1121.4 552.9ZM1134.5 552.9L1134.5 552.9Q1132.3 552.9 1130.9 551.7Q1129.5 550.4 1129.5 548.4L1129.5 548.4Q1129.5 546.4 1130.9 545.2Q1132.3 544.1 1135.0 543.9L1135.0 543.9L1139.4 543.7L1139.4 542.4Q1139.4 541.0 1138.5 540.2Q1137.6 539.4 1136.0 539.4L1136.0 539.4Q1134.8 539.4 1133.9 539.9Q1133.0 540.4 1132.4 541.5L1132.4 541.5Q1132.1 542.1 1131.3 542.1L1131.3 542.1Q1130.8 542.1 1130.5 541.8Q1130.2 541.5 1130.2 541.0Q1130.2 540.5 1130.5 539.9L1130.5 539.9Q1131.2 538.7 1132.7 537.9Q1134.2 537.2 1136.1 537.2L1136.1 537.2Q1138.8 537.2 1140.3 538.5Q1141.9 539.9 1141.9 542.1L1141.9 542.1L1141.9 551.6Q1141.9 552.2 1141.6 552.6Q1141.2 552.9 1140.7 552.9L1140.7 552.9Q1140.2 552.9 1139.8 552.6Q1139.5 552.2 1139.5 551.6L1139.5 551.6L1139.5 550.0L1139.4 550.0Q1138.8 551.3 1137.4 552.1Q1136.1 552.9 1134.5 552.9ZM1135.1 550.8L1135.1 550.8Q1136.9 550.8 1138.1 549.6Q1139.4 548.5 1139.4 546.9L1139.4 546.9L1139.4 545.6L1135.3 545.9Q1133.7 546.0 1132.9 546.6Q1132.1 547.3 1132.1 548.4Q1132.1 549.4 1132.9 550.1Q1133.7 550.8 1135.1 550.8ZM1147.3 552.5Q1147.0 552.9 1146.4 552.9Q1145.9 552.9 1145.5 552.5Q1145.2 552.2 1145.2 551.6L1145.2 551.6L1145.2 538.5Q1145.2 537.9 1145.5 537.5Q1145.8 537.2 1146.4 537.2Q1146.9 537.2 1147.2 537.5Q1147.6 537.9 1147.6 538.5L1147.6 538.5L1147.6 539.9L1147.6 539.9Q1148.3 538.6 1149.5 537.9Q1150.7 537.2 1152.4 537.2L1152.4 537.2Q1154.9 537.2 1156.3 538.7Q1157.7 540.2 1157.7 542.8L1157.7 542.8L1157.7 551.6Q1157.7 552.2 1157.4 552.5Q1157.0 552.9 1156.4 552.9Q1155.9 552.9 1155.5 552.5Q1155.2 552.2 1155.2 551.6L1155.2 551.6L1155.2 543.2Q1155.2 541.4 1154.3 540.4Q1153.4 539.4 1151.7 539.4L1151.7 539.4Q1149.9 539.4 1148.8 540.6Q1147.7 541.8 1147.7 543.7L1147.7 543.7L1147.7 551.6Q1147.7 552.2 1147.3 552.5Z "/></svg>