<svg width="1200" height="630" viewBox="0 0 1200 630" xmlns="http://www.w3.org/2000/svg"><mask id="satori_om-id"><rect x="0" y="0" width="1200" height="630" fill="#fff"/></mask><mask id="satori_om-id-0"><rect x="0" y="0" width="1200" height="630" fill="#fff"/></mask><rect x="0" y="0" width="1200" height="630" fill="#f2f2f2"/><mask id="satori_om-id-0-0"><rect x="0" y="0" width="1200" height="441" fill="#fff"/></mask><mask id="satori_om-id-0-0-0"><rect x="40" y="95" width="1120" height="36" fill="#fff"/></mask><path fill="#8e8e8e" d="M49.2 124.0L49.2 124.0Q46.2 124.0 44.1 122.9Q42.1 121.7 41.4 119.8L41.4 119.8Q41.2 119.2 41.2 118.8L41.2 118.8Q41.2 118.0 41.6 117.6Q42.1 117.2 42.7 117.2L42.7 117.2Q43.8 117.2 44.3 118.3L44.3 118.3Q44.8 119.8 46.1 120.5Q47.4 121.2 49.3 121.2L49.3 121.2Q51.3 121.2 52.6 120.3Q53.9 119.4 53.9 118.0L53.9 118.0Q53.9 116.7 53.0 115.9Q52.1 115.1 50.0 114.7L50.0 114.7L47.6 114.2Q44.5 113.5 43.0 112.1Q41.5 110.6 41.5 108.3L41.5 108.3Q41.5 105.6 43.7 103.9Q45.8 102.2 49.2 102.2L49.2 102.2Q51.9 102.2 53.9 103.4Q55.9 104.6 56.5 106.7L56.5 106.7Q56.6 107.0 56.6 107.5L56.6 107.5Q56.6 108.1 56.2 108.5Q55.8 108.9 55.2 108.9L55.2 108.9Q54.1 108.9 53.6 107.8L53.6 107.8Q52.6 105.0 49.1 105.0L49.1 105.0Q47.3 105.0 46.0 105.8Q44.8 106.7 44.8 108.1L44.8 108.1Q44.8 109.3 45.7 110.1Q46.7 110.8 48.7 111.3L48.7 111.3L51.0 111.7Q54.3 112.4 55.8 113.8Q57.2 115.2 57.2 117.5L57.2 117.5Q57.2 120.5 55.0 122.3Q52.9 124.0 49.2 124.0ZM65.1 123.9L65.1 123.9Q62.6 123.9 61.2 122.4Q59.7 120.9 59.7 118.2L59.7 118.2L59.7 109.7Q59.7 108.9 60.1 108.4Q60.6 108.0 61.3 108.0L61.3 108.0Q62.0 108.0 62.4 108.4Q62.9 108.9 62.9 109.7L62.9 109.7L62.9 117.6Q62.9 119.4 63.7 120.3Q64.6 121.2 66.2 121.2L66.2 121.2Q67.9 121.2 68.9 120.1Q69.8 119.0 69.8 117.2L69.8 117.2L69.8 109.7Q69.8 108.9 70.3 108.4Q70.7 108.0 71.4 108.0L71.4 108.0Q72.1 108.0 72.6 108.4Q73.0 108.9 73.0 109.7L73.0 109.7L73.0 122.3Q73.0 123.1 72.6 123.5Q72.2 123.9 71.5 123.9Q70.8 123.9 70.4 123.5Q70.0 123.1 70.0 122.3L70.0 122.3L70.0 121.1L69.9 121.1Q68.6 123.9 65.1 123.9ZM77.7 123.9L77.7 123.9Q77.0 123.9 76.6 123.5Q76.1 123.0 76.1 122.3L76.1 122.3L76.1 109.6Q76.1 108.8 76.5 108.4Q76.9 108.0 77.6 108.0Q78.3 108.0 78.7 108.4Q79.2 108.9 79.2 109.6L79.2 109.6L79.2 110.8L79.2 110.8Q80.6 108.0 84.1 108.0L84.1 108.0Q86.6 108.0 88.0 109.5Q89.4 111.0 89.4 113.7L89.4 113.7L89.4 122.3Q89.4 123.0 89.0 123.5Q88.5 123.9 87.8 123.9L87.8 123.9Q87.1 123.9 86.7 123.5Q86.2 123.0 86.2 122.3L86.2 122.3L86.2 114.3Q86.2 112.5 85.4 111.6Q84.6 110.7 82.9 110.7L82.9 110.7Q81.3 110.7 80.3 111.8Q79.3 112.9 79.3 114.7L79.3 114.7L79.3 122.3Q79.3 123.0 78.8 123.5Q78.4 123.9 77.7 123.9ZM98.2 123.9L98.2 123.9Q95.3 123.9 93.5 121.8Q91.8 119.6 91.8 116.0Q91.8 112.3 93.5 110.2Q95.3 108.0 98.2 108.0L98.2 108.0Q99.8 108.0 101.1 108.8Q102.4 109.5 103.0 110.8L103.0 110.8L103.1 110.8L103.1 103.9Q103.1 103.1 103.5 102.7Q104.0 102.2 104.7 102.2L104.7 102.2Q105.4 102.2 105.8 102.7Q106.3 103.2 106.3 103.9L106.3 103.9L106.3 122.4Q106.3 123.1 105.9 123.5Q105.4 123.9 104.7 123.9L104.7 123.9Q104.0 123.9 103.6 123.5Q103.1 123.1 103.1 122.4L103.1 122.4L103.1 120.9L103.1 120.9Q102.4 122.3 101.2 123.1Q100.0 123.9 98.2 123.9ZM99.1 121.2L99.1 121.2Q100.9 121.2 102.0 119.8Q103.1 118.4 103.1 116.0L103.1 116.0Q103.1 113.6 102.0 112.1Q100.9 110.7 99.1 110.7L99.1 110.7Q97.2 110.7 96.1 112.1Q95.0 113.5 95.0 116.0L95.0 116.0Q95.0 118.4 96.1 119.8Q97.2 121.2 99.1 121.2ZM114.0 123.9L114.0 123.9Q111.8 123.9 110.3 122.6Q108.9 121.3 108.9 119.3L108.9 119.3Q108.9 117.3 110.4 116.1Q111.9 114.9 114.6 114.7L114.6 114.7L118.9 114.5L118.9 113.3Q118.9 112.0 118.0 111.3Q117.2 110.6 115.8 110.6L115.8 110.6Q114.6 110.6 113.8 111.0Q113.0 111.5 112.3 112.5L112.3 112.5Q111.9 113.2 111.1 113.2L111.1 113.2Q110.5 113.2 110.1 112.8Q109.7 112.4 109.7 111.9L109.7 111.9Q109.7 111.3 110.0 110.8L110.0 110.8Q110.6 109.5 112.2 108.8Q113.8 108.0 115.9 108.0L115.9 108.0Q118.7 108.0 120.3 109.4Q122.0 110.7 122.0 113.0L122.0 113.0L122.0 122.3Q122.0 123.1 121.6 123.5Q121.2 123.9 120.5 123.9L120.5 123.9Q119.8 123.9 119.4 123.5Q119.0 123.1 119.0 122.4L119.0 122.4L119.0 121.1L118.9 121.1Q118.2 122.4 116.9 123.2Q115.6 123.9 114.0 123.9ZM114.9 121.4L114.9 121.4Q116.6 121.4 117.7 120.4Q118.9 119.4 118.9 117.9L118.9 117.9L118.9 116.7L115.0 116.9Q113.6 117.0 112.9 117.6Q112.1 118.2 112.1 119.2L112.1 119.2Q112.1 120.2 112.9 120.8Q113.6 121.4 114.9 121.4ZM127.0 129.4L127.0 129.4Q125.9 129.4 125.3 129.0Q124.7 128.6 124.7 127.9L124.7 127.9Q124.7 127.4 125.0 127.1Q125.4 126.8 125.9 126.8L125.9 126.8Q126.1 126.8 126.3 126.8Q126.6 126.8 126.7 126.8L126.7 126.8Q128.3 126.8 129.1 124.7L129.1 124.7L129.4 123.8L124.2 110.3Q124.1 109.9 124.1 109.4L124.1 109.4Q124.1 108.8 124.5 108.4Q125.0 108.0 125.7 108.0L125.7 108.0Q126.3 108.0 126.6 108.3Q127.0 108.5 127.2 109.2L127.2 109.2L131.1 120.8L131.2 120.8L135.1 109.2Q135.3 108.5 135.6 108.3Q136.0 108.0 136.6 108.0L136.6 108.0Q137.3 108.0 137.7 108.4Q138.1 108.8 138.1 109.4L138.1 109.4Q138.1 109.8 138.0 110.3L138.0 110.3L132.6 124.4Q131.6 127.2 130.4 128.3Q129.1 129.4 127.0 129.4ZM142.6 120.1L142.6 120.1Q143.3 120.1 143.7 120.5Q144.1 120.8 144.1 121.4L144.1 121.4Q144.1 121.8 144.0 122.3L144.0 122.3L142.7 127.3Q142.4 128.4 141.4 128.4L141.4 128.4Q140.8 128.4 140.5 128.1Q140.1 127.7 140.1 127.2L140.1 127.2Q140.1 127.1 140.2 126.8L140.2 126.8L141.1 121.4Q141.3 120.1 142.6 120.1Z M167.5 123.7L155.8 123.7Q155.0 123.7 154.6 123.3Q154.2 122.9 154.2 122.3L154.2 122.3Q154.2 121.8 154.4 121.5Q154.6 121.1 155.1 120.6L155.1 120.6L161.7 113.9Q163.8 111.8 164.5 110.7Q165.2 109.6 165.2 108.3L165.2 108.3Q165.2 106.8 164.1 105.8Q163.1 104.8 161.5 104.8L161.5 104.8Q158.4 104.8 157.2 108.0L157.2 108.0Q157.0 108.5 156.7 108.8Q156.3 109.0 155.8 109.0L155.8 109.0Q155.1 109.0 154.7 108.6Q154.3 108.3 154.3 107.6L154.3 107.6Q154.3 107.3 154.4 107.0L154.4 107.0Q154.6 106.1 155.1 105.3Q155.7 104.4 156.5 103.7Q157.4 103.0 158.7 102.6Q160 102.1 161.5 102.1L161.5 102.1Q164.5 102.1 166.5 103.8Q168.4 105.5 168.4 108.1L168.4 108.1Q168.4 109.9 167.4 111.5Q166.4 113.0 163.7 115.8L163.7 115.8L158.7 120.8L158.7 120.9L167.5 120.9Q168.1 120.9 168.5 121.3Q168.9 121.7 168.9 122.3L168.9 122.3Q168.9 122.9 168.5 123.3Q168.1 123.7 167.5 123.7L167.5 123.7ZM184.8 123.7L173.2 123.7Q172.4 123.7 172.0 123.3Q171.6 122.9 171.6 122.3L171.6 122.3Q171.6 121.8 171.8 121.5Q172.0 121.1 172.5 120.6L172.5 120.6L179.1 113.9Q181.2 111.8 181.9 110.7Q182.5 109.6 182.5 108.3L182.5 108.3Q182.5 106.8 181.5 105.8Q180.5 104.8 178.9 104.8L178.9 104.8Q175.7 104.8 174.6 108.0L174.6 108.0Q174.4 108.5 174.0 108.8Q173.7 109.0 173.1 109.0L173.1 109.0Q172.5 109.0 172.1 108.6Q171.7 108.3 171.7 107.6L171.7 107.6Q171.7 107.3 171.8 107.0L171.8 107.0Q172.0 106.1 172.5 105.3Q173.1 104.4 173.9 103.7Q174.8 103.0 176.1 102.6Q177.4 102.1 178.9 102.1L178.9 102.1Q181.9 102.1 183.8 103.8Q185.8 105.5 185.8 108.1L185.8 108.1Q185.8 109.9 184.8 111.5Q183.8 113.0 181.1 115.8L181.1 115.8L176.1 120.8L176.1 120.9L184.8 120.9Q185.5 120.9 185.9 121.3Q186.3 121.7 186.3 122.3L186.3 122.3Q186.3 122.9 185.9 123.3Q185.5 123.7 184.8 123.7L184.8 123.7Z M202.9 123.7L197.1 123.7Q196.3 123.7 195.9 123.2Q195.4 122.8 195.4 122.0L195.4 122.0L195.4 104.2Q195.4 103.4 195.9 103.0Q196.3 102.5 197.1 102.5L197.1 102.5L202.9 102.5Q207.6 102.5 210.2 105.3Q212.9 108.1 212.9 113.1L212.9 113.1Q212.9 118.1 210.2 120.9Q207.6 123.7 202.9 123.7L202.9 123.7ZM198.7 105.4L198.7 120.8L202.6 120.8Q205.9 120.8 207.7 118.8Q209.5 116.8 209.5 113.1L209.5 113.1Q209.5 109.4 207.7 107.4Q205.9 105.4 202.6 105.4L202.6 105.4L198.7 105.4ZM222.3 124.0L222.3 124.0Q218.8 124.0 216.9 121.9Q214.9 119.8 214.9 116.0L214.9 116.0Q214.9 112.4 216.9 110.2Q218.8 108.0 222.1 108.0L222.1 108.0Q225.2 108.0 227.1 110.0Q229.0 112.0 229.0 115.1L229.0 115.1Q229.0 115.9 228.6 116.3Q228.2 116.8 227.4 116.8L227.4 116.8L218.1 116.8L218.1 116.8Q218.1 118.9 219.2 120.2Q220.3 121.4 222.2 121.4L222.2 121.4Q223.5 121.4 224.4 120.9Q225.3 120.4 226.2 119.2L226.2 119.2Q226.7 118.6 227.3 118.6L227.3 118.6Q227.9 118.6 228.3 119.0Q228.6 119.3 228.6 119.9L228.6 119.9Q228.6 120.3 228.4 120.8L228.4 120.8Q227.7 122.3 226.1 123.1Q224.5 124.0 222.3 124.0ZM218.1 114.5L218.1 114.5L225.8 114.5Q225.8 112.7 224.8 111.6Q223.7 110.5 222.1 110.5L222.1 110.5Q220.4 110.5 219.3 111.6Q218.3 112.7 218.1 114.5ZM238.0 124.0L238.0 124.0Q234.7 124.0 232.7 121.8Q230.8 119.7 230.8 116.0L230.8 116.0Q230.8 112.3 232.7 110.2Q234.7 108.0 238.0 108.0L238.0 108.0Q240.2 108.0 242.0 109.0Q243.7 110.1 244.2 111.7L244.2 111.7Q244.4 112.1 244.4 112.4L244.4 112.4Q244.4 113.0 244.0 113.4Q243.6 113.7 243.0 113.7L243.0 113.7Q242.5 113.7 242.2 113.5Q241.9 113.3 241.6 112.8L241.6 112.8Q241.0 111.7 240.1 111.1Q239.3 110.6 238.1 110.6L238.1 110.6Q236.2 110.6 235.1 112.1Q234.0 113.5 234.0 116.0L234.0 116.0Q234.0 118.4 235.1 119.9Q236.2 121.3 238.1 121.3L238.1 121.3Q240.4 121.3 241.6 119.2L241.6 119.2Q241.9 118.6 242.2 118.4Q242.5 118.2 243.0 118.2L243.0 118.2Q243.6 118.2 244.0 118.6Q244.4 118.9 244.4 119.5L244.4 119.5Q244.4 119.9 244.2 120.3L244.2 120.3Q243.6 121.9 241.9 122.9Q240.2 124.0 238.0 124.0ZM253.6 124.0L253.6 124.0Q250.1 124.0 248.2 121.9Q246.3 119.8 246.3 116.0L246.3 116.0Q246.3 112.4 248.2 110.2Q250.1 108.0 253.4 108.0L253.4 108.0Q256.5 108.0 258.4 110.0Q260.3 112.0 260.3 115.1L260.3 115.1Q260.3 115.9 259.9 116.3Q259.5 116.8 258.8 116.8L258.8 116.8L249.5 116.8L249.5 116.8Q249.5 118.9 250.6 120.2Q251.7 121.4 253.6 121.4L253.6 121.4Q254.8 121.4 255.8 120.9Q256.7 120.4 257.5 119.2L257.5 119.2Q258.0 118.6 258.7 118.6L258.7 118.6Q259.2 118.6 259.6 119.0Q260.0 119.3 260.0 119.9L260.0 119.9Q260.0 120.3 259.8 120.8L259.8 120.8Q259.0 122.3 257.4 123.1Q255.8 124.0 253.6 124.0ZM249.5 114.5L249.5 114.5L257.2 114.5Q257.1 112.7 256.1 111.6Q255.1 110.5 253.4 110.5L253.4 110.5Q251.8 110.5 250.7 111.6Q249.6 112.7 249.5 114.5ZM265.5 123.5Q265.1 123.9 264.4 123.9Q263.7 123.9 263.2 123.5Q262.8 123.0 262.8 122.3L262.8 122.3L262.8 109.6Q262.8 108.9 263.2 108.4Q263.6 108.0 264.3 108.0Q265.0 108.0 265.4 108.4Q265.8 108.8 265.8 109.6L265.8 109.6L265.8 110.8L265.9 110.8Q266.4 109.5 267.6 108.8Q268.7 108.0 270.3 108.0L270.3 108.0Q271.9 108.0 273.0 108.8Q274.1 109.6 274.6 111.0L274.6 111.0L274.6 111.0Q275.2 109.6 276.5 108.8Q277.8 108.0 279.4 108.0L279.4 108.0Q281.7 108.0 283.1 109.4Q284.5 110.8 284.5 113.1L284.5 113.1L284.5 122.3Q284.5 123.0 284.0 123.5Q283.6 123.9 282.9 123.9Q282.2 123.9 281.7 123.5Q281.3 123.0 281.3 122.3L281.3 122.3L281.3 113.8Q281.3 112.3 280.5 111.5Q279.8 110.7 278.4 110.7Q277.0 110.7 276.1 111.6Q275.2 112.6 275.2 114.0L275.2 114.0L275.2 122.3Q275.2 123.0 274.8 123.5Q274.3 123.9 273.6 123.9Q272.9 123.9 272.5 123.5Q272.1 123.0 272.1 122.3L272.1 122.3L272.1 113.6Q272.1 112.3 271.3 111.5Q270.5 110.7 269.2 110.7L269.2 110.7Q267.8 110.7 266.9 111.7Q266.0 112.6 266.0 114.1L266.0 114.1L266.0 122.3Q266.0 123.0 265.5 123.5ZM289.2 123.9L289.2 123.9Q288.5 123.9 288.1 123.5Q287.6 123.1 287.6 122.4L287.6 122.4L287.6 103.9Q287.6 103.2 288.1 102.7Q288.5 102.2 289.2 102.2Q289.9 102.2 290.4 102.7Q290.8 103.2 290.8 103.9L290.8 103.9L290.8 110.9L290.9 110.9Q291.6 109.5 292.9 108.8Q294.1 108.0 295.8 108.0L295.8 108.0Q298.7 108.0 300.4 110.2Q302.2 112.3 302.2 116.0L302.2 116.0Q302.2 119.6 300.4 121.8Q298.7 123.9 295.7 123.9L295.7 123.9Q294.1 123.9 292.8 123.2Q291.5 122.4 290.8 121.0L290.8 121.0L290.7 121.0L290.7 122.4Q290.7 123.1 290.3 123.5Q289.9 123.9 289.2 123.9ZM294.9 121.2L294.9 121.2Q296.8 121.2 297.8 119.8Q298.9 118.4 298.9 116.0L298.9 116.0Q298.9 113.5 297.8 112.1Q296.7 110.7 294.9 110.7L294.9 110.7Q293.1 110.7 291.9 112.1Q290.8 113.6 290.8 116.0L290.8 116.0Q290.8 118.3 291.9 119.8Q293.1 121.2 294.9 121.2ZM311.3 124.0L311.3 124.0Q307.8 124.0 305.9 121.9Q303.9 119.8 303.9 116.0L303.9 116.0Q303.9 112.4 305.9 110.2Q307.8 108.0 311.1 108.0L311.1 108.0Q314.2 108.0 316.1 110.0Q318.0 112.0 318.0 115.1L318.0 115.1Q318.0 115.9 317.6 116.3Q317.2 116.8 316.4 116.8L316.4 116.8L307.1 116.8L307.1 116.8Q307.1 118.9 308.2 120.2Q309.3 121.4 311.2 121.4L311.2 121.4Q312.5 121.4 313.4 120.9Q314.3 120.4 315.2 119.2L315.2 119.2Q315.7 118.6 316.3 118.6L316.3 118.6Q316.9 118.6 317.3 119.0Q317.6 119.3 317.6 119.9L317.6 119.9Q317.6 120.3 317.4 120.8L317.4 120.8Q316.7 122.3 315.1 123.1Q313.5 124.0 311.3 124.0ZM307.1 114.5L307.1 114.5L314.8 114.5Q314.8 112.7 313.8 111.6Q312.7 110.5 311.1 110.5L311.1 110.5Q309.4 110.5 308.3 111.6Q307.3 112.7 307.1 114.5ZM322.0 123.9L322.0 123.9Q321.3 123.9 320.9 123.5Q320.5 123.0 320.5 122.3L320.5 122.3L320.5 109.6Q320.5 108.9 320.9 108.4Q321.3 108.0 322.0 108.0L322.0 108.0Q322.6 108.0 323.0 108.4Q323.5 108.9 323.5 109.6L323.5 109.6L323.5 110.9L323.5 110.9Q323.9 109.6 324.8 108.8Q325.7 108.0 326.9 108.0L326.9 108.0Q327.8 108.0 328.2 108.4L328.2 108.4Q328.6 108.7 328.6 109.5L328.6 109.5Q328.6 110.2 328.1 110.6L328.1 110.6Q327.7 111.0 326.7 111.0L326.7 111.0Q325.1 111.0 324.4 112.0Q323.6 112.9 323.6 114.4L323.6 114.4L323.6 122.3Q323.6 123.0 323.2 123.5Q322.7 123.9 322.0 123.9Z M349.6 123.7L337.9 123.7Q337.2 123.7 336.8 123.3Q336.4 122.9 336.4 122.3L336.4 122.3Q336.4 121.8 336.6 121.5Q336.8 121.1 337.3 120.6L337.3 120.6L343.9 113.9Q346.0 111.8 346.7 110.7Q347.3 109.6 347.3 108.3L347.3 108.3Q347.3 106.8 346.3 105.8Q345.3 104.8 343.7 104.8L343.7 104.8Q340.5 104.8 339.4 108.0L339.4 108.0Q339.2 108.5 338.8 108.8Q338.5 109.0 337.9 109.0L337.9 109.0Q337.3 109.0 336.9 108.6Q336.5 108.3 336.5 107.6L336.5 107.6Q336.5 107.3 336.6 107.0L336.6 107.0Q336.7 106.1 337.3 105.3Q337.8 104.4 338.7 103.7Q339.6 103.0 340.9 102.6Q342.2 102.1 343.7 102.1L343.7 102.1Q346.7 102.1 348.6 103.8Q350.6 105.5 350.6 108.1L350.6 108.1Q350.6 109.9 349.6 111.5Q348.6 113.0 345.9 115.8L345.9 115.8L340.8 120.8L340.8 120.9L349.6 120.9Q350.3 120.9 350.7 121.3Q351.1 121.7 351.1 122.3L351.1 122.3Q351.1 122.9 350.7 123.3Q350.3 123.7 349.6 123.7L349.6 123.7ZM367.5 121.1Q365.4 124.1 361.6 124.1Q357.8 124.1 355.6 121.1Q353.5 118.2 353.5 113.1L353.5 113.1Q353.5 108.0 355.6 105.1Q357.8 102.1 361.6 102.1L361.6 102.1Q365.3 102.1 367.5 105.1Q369.6 108.0 369.6 113.1L369.6 113.1Q369.6 118.1 367.5 121.1ZM361.6 121.3L361.6 121.3Q363.8 121.3 365.1 119.1Q366.3 116.9 366.3 113.1L366.3 113.1Q366.3 109.3 365.1 107.1Q363.8 104.9 361.6 104.9Q359.3 104.9 358.0 107.1Q356.8 109.3 356.8 113.1L356.8 113.1Q356.8 116.9 358.0 119.1Q359.3 121.3 361.6 121.3ZM385.7 123.7L374.0 123.7Q373.3 123.7 372.9 123.3Q372.5 122.9 372.5 122.3L372.5 122.3Q372.5 121.8 372.7 121.5Q372.9 121.1 373.4 120.6L373.4 120.6L380.0 113.9Q382.1 111.8 382.8 110.7Q383.4 109.6 383.4 108.3L383.4 108.3Q383.4 106.8 382.4 105.8Q381.4 104.8 379.8 104.8L379.8 104.8Q376.6 104.8 375.5 108.0L375.5 108.0Q375.3 108.5 374.9 108.8Q374.6 109.0 374.0 109.0L374.0 109.0Q373.4 109.0 373.0 108.6Q372.6 108.3 372.6 107.6L372.6 107.6Q372.6 107.3 372.7 107.0L372.7 107.0Q372.8 106.1 373.4 105.3Q373.9 104.4 374.8 103.7Q375.7 103.0 377.0 102.6Q378.3 102.1 379.8 102.1L379.8 102.1Q382.8 102.1 384.7 103.8Q386.7 105.5 386.7 108.1L386.7 108.1Q386.7 109.9 385.7 111.5Q384.7 113.0 382.0 115.8L382.0 115.8L376.9 120.8L376.9 120.9L385.7 120.9Q386.4 120.9 386.8 121.3Q387.2 121.7 387.2 122.3L387.2 122.3Q387.2 122.9 386.8 123.3Q386.4 123.7 385.7 123.7L385.7 123.7ZM401.5 123.9L401.5 123.9Q400.8 123.9 400.4 123.5Q400.0 123.0 400.0 122.3L400.0 122.3L400.0 119.5L391.3 119.5Q390.4 119.5 389.9 119.0Q389.4 118.4 389.4 117.6L389.4 117.6Q389.4 116.6 390.1 115.3L390.1 115.3Q391.9 112.0 396.9 104.7L396.9 104.7Q397.9 103.3 398.6 102.8Q399.4 102.2 400.4 102.2L400.4 102.2Q401.7 102.2 402.4 102.9Q403.1 103.5 403.1 104.7L403.1 104.7L403.1 116.7L404.8 116.7Q405.4 116.7 405.8 117.1Q406.2 117.5 406.2 118.1Q406.2 118.7 405.8 119.1Q405.4 119.5 404.8 119.5L404.8 119.5L403.1 119.5L403.1 122.3Q403.1 123.0 402.7 123.5Q402.2 123.9 401.5 123.9ZM392.4 116.8L400 116.8L400 105.1L399.9 105.1Q394.5 112.9 392.4 116.7L392.4 116.7L392.4 116.8Z "/><mask id="satori_om-id-0-0-1"><rect x="40" y="176" width="1120" height="165" fill="#fff"/></mask><path fill="#224d67" d="M59.2 238.6L47.5 238.6Q45.7 238.6 44.7 237.5Q43.7 236.5 43.7 234.7L43.7 234.7L43.7 200.2Q43.7 198.4 44.7 197.3Q45.7 196.3 47.5 196.3L47.5 196.3L59.2 196.3Q68.7 196.3 74.0 201.8Q79.3 207.3 79.3 217.3L79.3 217.3Q79.3 227.4 74.0 233.0Q68.7 238.6 59.2 238.6L59.2 238.6ZM51.3 202.7L51.3 232.2L58.4 232.2Q64.8 232.2 68.2 228.4Q71.6 224.6 71.6 217.4L71.6 217.4Q71.6 210.3 68.1 206.5Q64.7 202.7 58.4 202.7L58.4 202.7L51.3 202.7ZM98.3 239.2L98.3 239.2Q91.2 239.2 87.2 235.0Q83.2 230.7 83.2 223.2L83.2 223.2Q83.2 215.7 87.2 211.3Q91.2 206.9 97.9 206.9L97.9 206.9Q104.2 206.9 108.2 210.9Q112.2 215.0 112.2 221.4L112.2 221.4Q112.2 223.0 111.3 223.9Q110.4 224.8 108.8 224.8L108.8 224.8L90.5 224.8L90.5 225.0Q90.5 228.9 92.6 231.3Q94.7 233.6 98.2 233.6L98.2 233.6Q100.7 233.6 102.5 232.6Q104.2 231.7 106.0 229.4L106.0 229.4Q107.1 228.3 108.5 228.3L108.5 228.3Q109.7 228.3 110.6 229.0Q111.4 229.8 111.4 231.1L111.4 231.1Q111.4 231.9 110.9 232.9L110.9 232.9Q109.3 235.9 106.0 237.5Q102.7 239.2 98.3 239.2ZM90.5 220.0L90.5 220.0L105.0 220.0Q104.9 216.6 103.0 214.6Q101.0 212.5 97.9 212.5Q94.8 212.5 92.8 214.6Q90.7 216.7 90.5 220.0ZM130.7 239.2L130.7 239.2Q123.6 239.2 119.6 235.0Q115.6 230.7 115.6 223.2L115.6 223.2Q115.6 215.7 119.6 211.3Q123.6 206.9 130.3 206.9L130.3 206.9Q136.6 206.9 140.6 210.9Q144.6 215.0 144.6 221.4L144.6 221.4Q144.6 223.0 143.7 223.9Q142.8 224.8 141.2 224.8L141.2 224.8L122.9 224.8L122.9 225.0Q122.9 228.9 125.0 231.3Q127.1 233.6 130.6 233.6L130.6 233.6Q133.1 233.6 134.8 232.6Q136.6 231.7 138.4 229.4L138.4 229.4Q139.4 228.3 140.8 228.3L140.8 228.3Q142.1 228.3 142.9 229.0Q143.8 229.8 143.8 231.1L143.8 231.1Q143.8 231.9 143.3 232.9L143.3 232.9Q141.7 235.9 138.4 237.5Q135.1 239.2 130.7 239.2ZM122.9 220.0L122.9 220.0L137.4 220.0Q137.3 216.6 135.3 214.6Q133.4 212.5 130.3 212.5Q127.2 212.5 125.2 214.6Q123.1 216.7 122.9 220.0ZM155.5 248.6Q154.5 249.6 152.9 249.6Q151.2 249.6 150.2 248.6Q149.2 247.6 149.2 245.8L149.2 245.8L149.2 210.7Q149.2 208.9 150.2 207.9Q151.2 206.9 152.8 206.9L152.8 206.9Q154.4 206.9 155.4 207.9Q156.4 208.9 156.4 210.7L156.4 210.7L156.4 212.9L156.5 212.9Q157.9 210.1 160.4 208.6Q163.0 207.0 166.3 207.0L166.3 207.0Q172.2 207.0 175.7 211.3Q179.2 215.6 179.2 223.1L179.2 223.1Q179.2 230.5 175.7 234.8Q172.3 239.1 166.4 239.1L166.4 239.1Q163.1 239.1 160.5 237.6Q158.0 236.1 156.7 233.4L156.7 233.4L156.5 233.4L156.5 245.8Q156.5 247.6 155.5 248.6ZM164.1 233.1L164.1 233.1Q167.6 233.1 169.7 230.4Q171.7 227.7 171.7 223.1L171.7 223.1Q171.7 218.5 169.7 215.7Q167.6 213.0 164.1 213.0L164.1 213.0Q160.7 213.0 158.6 215.8Q156.5 218.5 156.5 223.1L156.5 223.1Q156.5 227.6 158.6 230.4Q160.7 233.1 164.1 233.1ZM195.9 239.2L195.9 239.2Q191.0 239.2 187.7 237.5Q184.3 235.8 183.2 233.0L183.2 233.0Q182.9 232.2 182.9 231.5L182.9 231.5Q182.9 230.2 183.8 229.4Q184.6 228.6 186.0 228.6L186.0 228.6Q187.8 228.6 189.1 230.4L189.1 230.4Q190.4 232.3 192.0 233.1Q193.6 233.9 196.1 233.9L196.1 233.9Q198.7 233.9 200.2 232.9Q201.8 231.8 201.8 230.1L201.8 230.1Q201.8 228.7 200.8 227.8Q199.8 227.0 197.4 226.4L197.4 226.4L192.4 225.3Q183.3 223.3 183.3 216.4L183.3 216.4Q183.3 212.1 186.8 209.5Q190.2 206.9 196.0 206.9L196.0 206.9Q200.4 206.9 203.6 208.8Q206.8 210.6 207.5 213.4L207.5 213.4Q207.7 214.0 207.7 214.5L207.7 214.5Q207.7 215.6 207.0 216.4Q206.2 217.1 204.9 217.1L204.9 217.1Q203.0 217.1 202.1 215.7L202.1 215.7Q201.0 214.0 199.5 213.1Q198.0 212.2 195.8 212.2L195.8 212.2Q193.4 212.2 191.9 213.3Q190.4 214.3 190.4 216.0L190.4 216.0Q190.4 218.8 195.0 219.8L195.0 219.8L199.9 220.9Q204.9 222.0 207.0 223.9Q209.1 225.9 209.1 229.3L209.1 229.3Q209.1 233.8 205.5 236.5Q201.8 239.2 195.9 239.2ZM227.5 239.2L227.5 239.2Q220.4 239.2 216.4 235.0Q212.4 230.7 212.4 223.2L212.4 223.2Q212.4 215.7 216.4 211.3Q220.4 206.9 227.1 206.9L227.1 206.9Q233.4 206.9 237.4 210.9Q241.4 215.0 241.4 221.4L241.4 221.4Q241.4 223.0 240.5 223.9Q239.6 224.8 238.0 224.8L238.0 224.8L219.7 224.8L219.7 225.0Q219.7 228.9 221.8 231.3Q223.9 233.6 227.4 233.6L227.4 233.6Q229.9 233.6 231.7 232.6Q233.4 231.7 235.2 229.4L235.2 229.4Q236.3 228.3 237.7 228.3L237.7 228.3Q238.9 228.3 239.8 229.0Q240.6 229.8 240.6 231.1L240.6 231.1Q240.6 231.9 240.1 232.9L240.1 232.9Q238.5 235.9 235.2 237.5Q231.9 239.2 227.5 239.2ZM219.7 220.0L219.7 220.0L234.2 220.0Q234.1 216.6 232.2 214.6Q230.2 212.5 227.1 212.5Q224.0 212.5 222.0 214.6Q219.9 216.7 219.7 220.0ZM259.9 239.2L259.9 239.2Q252.8 239.2 248.8 235.0Q244.8 230.7 244.8 223.2L244.8 223.2Q244.8 215.7 248.8 211.3Q252.8 206.9 259.5 206.9L259.5 206.9Q265.8 206.9 269.8 210.9Q273.8 215.0 273.8 221.4L273.8 221.4Q273.8 223.0 272.9 223.9Q272.0 224.8 270.4 224.8L270.4 224.8L252.1 224.8L252.1 225.0Q252.1 228.9 254.2 231.3Q256.3 233.6 259.8 233.6L259.8 233.6Q262.3 233.6 264.0 232.6Q265.8 231.7 267.6 229.4L267.6 229.4Q268.6 228.3 270.0 228.3L270.0 228.3Q271.3 228.3 272.1 229.0Q273.0 229.8 273.0 231.1L273.0 231.1Q273.0 231.9 272.5 232.9L272.5 232.9Q270.9 235.9 267.6 237.5Q264.3 239.2 259.9 239.2ZM252.1 220.0L252.1 220.0L266.6 220.0Q266.5 216.6 264.5 214.6Q262.6 212.5 259.5 212.5Q256.4 212.5 254.4 214.6Q252.3 216.7 252.1 220.0ZM285.0 238.2Q284.0 239.2 282.3 239.2Q280.7 239.2 279.7 238.2Q278.7 237.1 278.7 235.3L278.7 235.3L278.7 199.6Q278.7 197.7 279.7 196.7Q280.7 195.7 282.3 195.7Q284.0 195.7 285.0 196.7Q285.9 197.7 285.9 199.6L285.9 199.6L285.9 220.4L286.0 220.4L298.2 208.3Q299.5 206.9 301.1 206.9L301.1 206.9Q302.4 206.9 303.3 207.8Q304.3 208.7 304.3 210.0L304.3 210.0Q304.3 211.5 302.9 212.7L302.9 212.7L294.1 221.1L303.8 233.3Q304.8 234.7 304.8 235.9L304.8 235.9Q304.8 237.3 303.8 238.3Q302.9 239.2 301.4 239.2L301.4 239.2Q300.3 239.2 299.5 238.7Q298.8 238.3 298.0 237.1L298.0 237.1L288.7 225.3L285.9 227.9L285.9 235.3Q285.9 237.1 285.0 238.2Z M340.6 239.3L340.6 239.3Q331.4 239.3 326.2 233.4Q320.9 227.6 320.9 217.4L320.9 217.4Q320.9 207.3 326.2 201.5Q331.5 195.6 340.5 195.6L340.5 195.6Q346.3 195.6 350.8 198.2Q355.2 200.8 357.3 205.4L357.3 205.4Q358.0 206.9 358.0 208.3L358.0 208.3Q358.0 209.8 357.1 210.7Q356.1 211.6 354.6 211.6L354.6 211.6Q352.1 211.6 350.9 208.9L350.9 208.9Q349.5 205.6 346.7 203.8Q344.0 202.0 340.5 202.0L340.5 202.0Q335.1 202.0 331.8 206.2Q328.6 210.4 328.6 217.4L328.6 217.4Q328.6 224.5 331.8 228.7Q335.0 232.9 340.6 232.9L340.6 232.9Q348.2 232.9 351.0 226.3L351.0 226.3Q351.6 225.0 352.4 224.4Q353.2 223.9 354.4 223.9L354.4 223.9Q356.0 223.9 356.9 224.8Q357.9 225.7 357.9 227.2L357.9 227.2Q357.9 228.6 357.2 230.1L357.2 230.1Q355.2 234.4 350.8 236.8Q346.5 239.3 340.6 239.3ZM388.4 234.9Q384.4 239.2 377.5 239.2Q370.6 239.2 366.5 234.9Q362.4 230.6 362.4 223.1L362.4 223.1Q362.4 215.6 366.5 211.2Q370.6 206.9 377.5 206.9L377.5 206.9Q384.3 206.9 388.4 211.2Q392.5 215.6 392.5 223.1L392.5 223.1Q392.5 230.6 388.4 234.9ZM371.9 230.7Q374.0 233.4 377.5 233.4Q381.0 233.4 383.0 230.7Q385.1 228.0 385.1 223.1L385.1 223.1Q385.1 218.2 383.0 215.4Q381.0 212.7 377.5 212.7L377.5 212.7Q374.0 212.7 371.9 215.4Q369.9 218.2 369.9 223.1L369.9 223.1Q369.9 228.0 371.9 230.7ZM408.8 239.1L408.8 239.1Q402.9 239.1 399.4 234.7Q395.9 230.4 395.9 223.0L395.9 223.0Q395.9 215.7 399.4 211.3Q402.9 207.0 408.8 207.0L408.8 207.0Q412.1 207.0 414.6 208.5Q417.1 210.1 418.4 212.7L418.4 212.7L418.6 212.7L418.6 199.6Q418.6 197.7 419.6 196.7Q420.6 195.7 422.2 195.7Q423.8 195.7 424.9 196.7Q425.9 197.7 425.9 199.6L425.9 199.6L425.9 235.5Q425.9 237.2 424.9 238.2Q423.9 239.2 422.3 239.2L422.3 239.2Q420.6 239.2 419.6 238.2Q418.6 237.2 418.6 235.5L418.6 235.5L418.6 233.1L418.4 233.1Q417.3 235.9 414.8 237.5Q412.3 239.1 408.8 239.1ZM411.0 233.1L411.0 233.1Q414.4 233.1 416.5 230.4Q418.6 227.7 418.6 223.1L418.6 223.1Q418.6 218.5 416.5 215.7Q414.4 213.0 411.0 213.0L411.0 213.0Q407.5 213.0 405.4 215.7Q403.4 218.4 403.4 223.1L403.4 223.1Q403.4 227.7 405.4 230.4Q407.4 233.1 411.0 233.1ZM445.8 239.2L445.8 239.2Q438.7 239.2 434.7 235.0Q430.7 230.7 430.7 223.2L430.7 223.2Q430.7 215.7 434.7 211.3Q438.7 206.9 445.4 206.9L445.4 206.9Q451.7 206.9 455.7 210.9Q459.7 215.0 459.7 221.4L459.7 221.4Q459.7 223.0 458.8 223.9Q457.9 224.8 456.3 224.8L456.3 224.8L438.0 224.8L438.0 225.0Q438.0 228.9 440.1 231.3Q442.2 233.6 445.7 233.6L445.7 233.6Q448.2 233.6 450.0 232.6Q451.7 231.7 453.5 229.4L453.5 229.4Q454.6 228.3 456.0 228.3L456.0 228.3Q457.2 228.3 458.1 229.0Q458.9 229.8 458.9 231.1L458.9 231.1Q458.9 231.9 458.4 232.9L458.4 232.9Q456.8 235.9 453.5 237.5Q450.2 239.2 445.8 239.2ZM438.0 220.0L438.0 220.0L452.5 220.0Q452.4 216.6 450.4 214.6Q448.5 212.5 445.4 212.5Q442.3 212.5 440.3 214.6Q438.2 216.7 438.0 220.0Z M479.0 239.1L479.0 239.1Q477.2 239.1 476.2 238.1Q475.1 237.2 475.1 235.6L475.1 235.6Q475.1 234.6 475.6 233.3L475.6 233.3L487.9 199.9Q488.7 197.8 490.0 196.8Q491.3 195.8 493.4 195.8L493.4 195.8Q495.5 195.8 496.8 196.8Q498.1 197.7 498.9 199.9L498.9 199.9L511.2 233.3Q511.7 234.7 511.7 235.6L511.7 235.6Q511.7 237.1 510.7 238.1Q509.6 239.1 508.0 239.1L508.0 239.1Q506.4 239.1 505.5 238.3Q504.6 237.6 504.1 235.9L504.1 235.9L501.3 227.8L485.5 227.8L482.7 235.8Q482.2 237.6 481.3 238.3Q480.4 239.1 479.0 239.1ZM493.3 203.8L487.3 221.8L499.5 221.8L493.5 203.8L493.3 203.8ZM528.5 239.2L528.5 239.2Q523.6 239.2 520.3 237.5Q517.0 235.8 515.8 233.0L515.8 233.0Q515.5 232.2 515.5 231.5L515.5 231.5Q515.5 230.2 516.4 229.4Q517.2 228.6 518.6 228.6L518.6 228.6Q520.4 228.6 521.7 230.4L521.7 230.4Q523.0 232.3 524.6 233.1Q526.2 233.9 528.7 233.9L528.7 233.9Q531.3 233.9 532.8 232.9Q534.4 231.8 534.4 230.1L534.4 230.1Q534.4 228.7 533.4 227.8Q532.4 227.0 530.0 226.4L530.0 226.4L525.0 225.3Q515.9 223.3 515.9 216.4L515.9 216.4Q515.9 212.1 519.4 209.5Q522.8 206.9 528.6 206.9L528.6 206.9Q533.0 206.9 536.2 208.8Q539.4 210.6 540.2 213.4L540.2 213.4Q540.3 214.0 540.3 214.5L540.3 214.5Q540.3 215.6 539.6 216.4Q538.8 217.1 537.5 217.1L537.5 217.1Q535.6 217.1 534.7 215.7L534.7 215.7Q533.6 214.0 532.1 213.1Q530.6 212.2 528.4 212.2L528.4 212.2Q526.0 212.2 524.5 213.3Q523.0 214.3 523.0 216.0L523.0 216.0Q523.0 218.8 527.6 219.8L527.6 219.8L532.5 220.9Q537.5 222.0 539.6 223.9Q541.7 225.9 541.7 229.3L541.7 229.3Q541.7 233.8 538.1 236.5Q534.4 239.2 528.5 239.2ZM558.3 239.2L558.3 239.2Q553.5 239.2 550.1 237.5Q546.8 235.8 545.6 233.0L545.6 233.0Q545.3 232.2 545.3 231.5L545.3 231.5Q545.3 230.2 546.2 229.4Q547.0 228.6 548.4 228.6L548.4 228.6Q550.2 228.6 551.6 230.4L551.6 230.4Q552.8 232.3 554.4 233.1Q556.0 233.9 558.6 233.9L558.6 233.9Q561.1 233.9 562.7 232.9Q564.2 231.8 564.2 230.1L564.2 230.1Q564.2 228.7 563.2 227.8Q562.2 227.0 559.8 226.4L559.8 226.4L554.8 225.3Q545.8 223.3 545.8 216.4L545.8 216.4Q545.8 212.1 549.2 209.5Q552.7 206.9 558.4 206.9L558.4 206.9Q562.8 206.9 566.0 208.8Q569.2 210.6 570.0 213.4L570.0 213.4Q570.1 214.0 570.1 214.5L570.1 214.5Q570.1 215.6 569.4 216.4Q568.7 217.1 567.3 217.1L567.3 217.1Q565.5 217.1 564.5 215.7L564.5 215.7Q563.4 214.0 561.9 213.1Q560.4 212.2 558.2 212.2L558.2 212.2Q555.8 212.2 554.3 213.3Q552.8 214.3 552.8 216.0L552.8 216.0Q552.8 218.8 557.4 219.8L557.4 219.8L562.4 220.9Q567.3 222.0 569.4 223.9Q571.5 225.9 571.5 229.3L571.5 229.3Q571.5 233.8 567.9 236.5Q564.2 239.2 558.3 239.2ZM582.8 202.0Q581.6 203.2 579.9 203.2Q578.2 203.2 577.1 202.0Q575.9 200.8 575.9 199.2L575.9 199.2Q575.9 197.5 577.1 196.4Q578.2 195.2 579.9 195.2L579.9 195.2Q581.7 195.2 582.8 196.4Q584.0 197.5 584.0 199.2L584.0 199.2Q584.0 200.8 582.8 202.0ZM582.6 238.1Q581.6 239.2 579.9 239.2Q578.3 239.2 577.3 238.1Q576.3 237.1 576.3 235.3L576.3 235.3L576.3 210.7Q576.3 209.0 577.3 207.9Q578.3 206.9 579.9 206.9Q581.6 206.9 582.6 207.9Q583.6 209.0 583.6 210.8L583.6 210.8L583.6 235.3Q583.6 237.1 582.6 238.1ZM601.7 239.2L601.7 239.2Q596.9 239.2 593.5 237.5Q590.2 235.8 589.1 233.0L589.1 233.0Q588.8 232.2 588.8 231.5L588.8 231.5Q588.8 230.2 589.6 229.4Q590.5 228.6 591.8 228.6L591.8 228.6Q593.6 228.6 595.0 230.4L595.0 230.4Q596.2 232.3 597.8 233.1Q599.4 233.9 602.0 233.9L602.0 233.9Q604.6 233.9 606.1 232.9Q607.6 231.8 607.6 230.1L607.6 230.1Q607.6 228.7 606.6 227.8Q605.6 227.0 603.3 226.4L603.3 226.4L598.2 225.3Q589.2 223.3 589.2 216.4L589.2 216.4Q589.2 212.1 592.6 209.5Q596.1 206.9 601.8 206.9L601.8 206.9Q606.2 206.9 609.4 208.8Q612.7 210.6 613.4 213.4L613.4 213.4Q613.5 214.0 613.5 214.5L613.5 214.5Q613.5 215.6 612.8 216.4Q612.1 217.1 610.7 217.1L610.7 217.1Q608.9 217.1 607.9 215.7L607.9 215.7Q606.8 214.0 605.3 213.1Q603.8 212.2 601.7 212.2L601.7 212.2Q599.2 212.2 597.8 213.3Q596.3 214.3 596.3 216.0L596.3 216.0Q596.3 218.8 600.8 219.8L600.8 219.8L605.8 220.9Q610.7 222.0 612.8 223.9Q615.0 225.9 615.0 229.3L615.0 229.3Q615.0 233.8 611.3 236.5Q607.7 239.2 601.7 239.2ZM621.6 230.9L621.6 230.9L621.6 213.1L619.6 213.1Q618.3 213.1 617.5 212.4Q616.7 211.6 616.7 210.3L616.7 210.3Q616.7 209.0 617.5 208.3Q618.2 207.5 619.6 207.5L619.6 207.5L621.6 207.5L621.6 203.4Q621.6 201.6 622.6 200.6Q623.5 199.6 625.2 199.6L625.2 199.6Q626.9 199.6 627.9 200.6Q628.9 201.6 628.9 203.4L628.9 203.4L628.9 207.5L632.2 207.5Q633.6 207.5 634.4 208.3Q635.2 209.0 635.2 210.3L635.2 210.3Q635.2 211.6 634.4 212.4Q633.6 213.1 632.2 213.1L632.2 213.1L628.9 213.1L628.9 229.3Q628.9 231.1 629.5 231.9Q630.2 232.7 631.8 232.9L631.8 232.9L632.3 232.9Q635.3 233.2 635.3 235.6L635.3 235.6Q635.3 237.2 633.9 238.1Q632.6 238.9 630.0 238.9L630.0 238.9L629.7 238.9Q621.6 238.9 621.6 230.9ZM648.8 239.1L648.8 239.1Q644.2 239.1 641.3 236.5Q638.4 233.9 638.4 229.7L638.4 229.7Q638.4 225.6 641.5 223.2Q644.5 220.8 650.2 220.4L650.2 220.4L658.5 219.9L658.5 217.7Q658.5 215.3 656.9 213.9Q655.4 212.6 652.7 212.6L652.7 212.6Q650.5 212.6 649.0 213.4Q647.5 214.2 646.2 216.2L646.2 216.2Q645.0 217.7 643.2 217.7L643.2 217.7Q641.8 217.7 641.0 216.9Q640.1 216.1 640.1 214.8L640.1 214.8Q640.1 213.8 640.6 212.8L640.6 212.8Q641.8 210.1 645.1 208.5Q648.5 206.9 652.9 206.9L652.9 206.9Q658.7 206.9 662.2 209.7Q665.7 212.5 665.7 217.2L665.7 217.2L665.7 235.5Q665.7 237.2 664.7 238.2Q663.7 239.2 662.1 239.2L662.1 239.2Q660.6 239.2 659.7 238.3Q658.7 237.4 658.6 235.8L658.6 235.8L658.6 233.6L658.5 233.6Q657.2 236.1 654.5 237.6Q651.8 239.1 648.8 239.1ZM651.0 233.6L651.0 233.6Q654.1 233.6 656.3 231.7Q658.5 229.8 658.5 227.1L658.5 227.1L658.5 224.7L651.3 225.1Q648.6 225.3 647.2 226.4Q645.7 227.6 645.7 229.4L645.7 229.4Q645.7 231.3 647.2 232.4Q648.6 233.6 651.0 233.6ZM677.8 238.2Q676.8 239.2 675.2 239.2Q673.5 239.2 672.5 238.2Q671.5 237.1 671.5 235.3L671.5 235.3L671.5 210.6Q671.5 208.9 672.5 207.9Q673.4 206.9 675.0 206.9Q676.6 206.9 677.6 207.9Q678.6 208.9 678.6 210.6L678.6 210.6L678.6 212.8L678.8 212.8Q681.4 206.9 688.4 206.9L688.4 206.9Q693.5 206.9 696.4 210.0Q699.2 213.1 699.2 218.5L699.2 218.5L699.2 235.3Q699.2 237.1 698.2 238.2Q697.2 239.2 695.5 239.2Q693.9 239.2 692.9 238.2Q691.9 237.1 691.9 235.3L691.9 235.3L691.9 220.0Q691.9 216.6 690.3 214.9Q688.8 213.1 685.7 213.1L685.7 213.1Q682.5 213.1 680.7 215.2Q678.8 217.2 678.8 220.6L678.8 220.6L678.8 235.3Q678.8 237.1 677.8 238.2ZM707.0 230.9L707.0 230.9L707.0 213.1L705.1 213.1Q703.7 213.1 702.9 212.4Q702.1 211.6 702.1 210.3L702.1 210.3Q702.1 209.0 702.9 208.3Q703.7 207.5 705.1 207.5L705.1 207.5L707.0 207.5L707.0 203.4Q707.0 201.6 708.0 200.6Q709.0 199.6 710.7 199.6L710.7 199.6Q712.4 199.6 713.3 200.6Q714.3 201.6 714.3 203.4L714.3 203.4L714.3 207.5L717.7 207.5Q719.1 207.5 719.8 208.3Q720.6 209.0 720.6 210.3L720.6 210.3Q720.6 211.6 719.8 212.4Q719.0 213.1 717.7 213.1L717.7 213.1L714.3 213.1L714.3 229.3Q714.3 231.1 715 231.9Q715.7 232.7 717.3 232.9L717.3 232.9L717.8 232.9Q720.7 233.2 720.7 235.6L720.7 235.6Q720.7 237.2 719.4 238.1Q718.0 238.9 715.5 238.9L715.5 238.9L715.2 238.9Q707.0 238.9 707.0 230.9ZM730.2 217.7L730.2 217.7Q728.4 217.7 727.2 216.5Q726.0 215.3 726.0 213.5Q726.0 211.8 727.2 210.5Q728.4 209.3 730.2 209.3L730.2 209.3Q732.0 209.3 733.2 210.5Q734.4 211.8 734.4 213.5Q734.4 215.3 733.2 216.5Q732.0 217.7 730.2 217.7ZM730.2 238.9L730.2 238.9Q728.4 238.9 727.2 237.7Q726.0 236.5 726.0 234.7L726.0 234.7Q726.0 232.9 727.2 231.7Q728.4 230.5 730.2 230.5L730.2 230.5Q732.0 230.5 733.2 231.7Q734.4 232.9 734.4 234.7L734.4 234.7Q734.4 236.5 733.2 237.7Q732.0 238.9 730.2 238.9Z M759.9 238.1Q759.0 239.1 757.4 239.1Q755.8 239.1 754.9 238.1Q754.0 237.2 754.0 235.5L754.0 235.5L754.0 200.6Q754.0 198.4 755.3 197.1Q756.6 195.8 758.9 195.8L758.9 195.8Q760.8 195.8 762.1 196.7Q763.3 197.6 764.1 199.7L764.1 199.7L775.7 228.2L776.0 228.2L787.6 199.7Q788.4 197.7 789.6 196.7Q790.9 195.8 792.8 195.8L792.8 195.8Q795.1 195.8 796.4 197.1Q797.6 198.4 797.6 200.6L797.6 200.6L797.6 235.5Q797.6 237.2 796.8 238.1Q795.9 239.1 794.2 239.1Q792.6 239.1 791.7 238.1Q790.8 237.2 790.8 235.5L790.8 235.5L790.8 208.6L790.6 208.6L779.4 235.8Q778.4 238.3 775.8 238.3L775.8 238.3Q773.3 238.3 772.3 235.8L772.3 235.8L761.1 208.6L760.8 208.6L760.8 235.5Q760.8 237.2 759.9 238.1ZM808.8 250.1L808.8 250.1Q806.4 250.1 805.1 249.2Q803.8 248.3 803.8 246.7L803.8 246.7Q803.8 245.6 804.5 244.9Q805.3 244.2 806.5 244.2L806.5 244.2Q806.8 244.2 807.3 244.2Q807.8 244.2 808.1 244.2L808.1 244.2Q811.1 244.2 812.5 240.7L812.5 240.7L813.1 239.1L802.9 212.4Q802.5 211.2 802.5 210.3L802.5 210.3Q802.5 208.8 803.5 207.9Q804.6 206.9 806.2 206.9L806.2 206.9Q807.6 206.9 808.4 207.6Q809.2 208.3 809.7 209.8L809.7 209.8L817.1 232.4L817.2 232.4L824.7 209.8Q825.1 208.3 826.0 207.6Q826.8 206.9 828.2 206.9L828.2 206.9Q829.7 206.9 830.7 207.8Q831.7 208.8 831.7 210.2L831.7 210.2Q831.7 211.2 831.3 212.3L831.3 212.3L821.1 239.7Q819.0 245.5 816.2 247.8Q813.5 250.1 808.8 250.1Z M852.2 239.1L852.2 239.1Q850.5 239.1 849.5 238.0Q848.4 237.0 848.4 235.2L848.4 235.2L848.4 200.2Q848.4 198.4 849.5 197.3Q850.5 196.3 852.2 196.3L852.2 196.3L872.4 196.3Q874.0 196.3 875.0 197.2Q875.9 198.0 875.9 199.5Q875.9 201.0 874.9 201.8Q874.0 202.7 872.4 202.7L872.4 202.7L856.0 202.7L856.0 215.2L870.9 215.2Q872.4 215.2 873.3 216.0Q874.2 216.8 874.2 218.2Q874.2 219.7 873.3 220.5Q872.4 221.3 870.9 221.3L870.9 221.3L856.0 221.3L856.0 235.2Q856.0 237.0 855.0 238.1Q854.0 239.1 852.2 239.1ZM893.9 239.2L893.9 239.2Q886.8 239.2 882.8 235.0Q878.9 230.7 878.9 223.2L878.9 223.2Q878.9 215.7 882.8 211.3Q886.8 206.9 893.5 206.9L893.5 206.9Q899.9 206.9 903.9 210.9Q907.8 215.0 907.8 221.4L907.8 221.4Q907.8 223.0 906.9 223.9Q906.0 224.8 904.4 224.8L904.4 224.8L886.1 224.8L886.1 225.0Q886.1 228.9 888.2 231.3Q890.3 233.6 893.9 233.6L893.9 233.6Q896.3 233.6 898.1 232.6Q899.9 231.7 901.7 229.4L901.7 229.4Q902.7 228.3 904.1 228.3L904.1 228.3Q905.4 228.3 906.2 229.0Q907.0 229.8 907.0 231.1L907.0 231.1Q907.0 231.9 906.5 232.9L906.5 232.9Q905.0 235.9 901.7 237.5Q898.4 239.2 893.9 239.2ZM886.2 220.0L886.2 220.0L900.7 220.0Q900.6 216.6 898.6 214.6Q896.6 212.5 893.6 212.5Q890.5 212.5 888.4 214.6Q886.4 216.7 886.2 220.0ZM921.6 239.1L921.6 239.1Q917.1 239.1 914.2 236.5Q911.3 233.9 911.3 229.7L911.3 229.7Q911.3 225.6 914.3 223.2Q917.4 220.8 923.1 220.4L923.1 220.4L931.3 219.9L931.3 217.7Q931.3 215.3 929.8 213.9Q928.2 212.6 925.5 212.6L925.5 212.6Q923.3 212.6 921.8 213.4Q920.3 214.2 919.0 216.2L919.0 216.2Q917.9 217.7 916.0 217.7L916.0 217.7Q914.7 217.7 913.8 216.9Q913.0 216.1 913.0 214.8L913.0 214.8Q913.0 213.8 913.5 212.8L913.5 212.8Q914.6 210.1 918.0 208.5Q921.3 206.9 925.8 206.9L925.8 206.9Q931.6 206.9 935.0 209.7Q938.5 212.5 938.5 217.2L938.5 217.2L938.5 235.5Q938.5 237.2 937.5 238.2Q936.5 239.2 935.0 239.2L935.0 239.2Q933.4 239.2 932.5 238.3Q931.6 237.4 931.5 235.8L931.5 235.8L931.5 233.6L931.3 233.6Q930.0 236.1 927.3 237.6Q924.7 239.1 921.6 239.1ZM923.9 233.6L923.9 233.6Q927.0 233.6 929.1 231.7Q931.3 229.8 931.3 227.1L931.3 227.1L931.3 224.7L924.1 225.1Q921.5 225.3 920.0 226.4Q918.6 227.6 918.6 229.4L918.6 229.4Q918.6 231.3 920.0 232.4Q921.5 233.6 923.9 233.6ZM946.4 230.9L946.4 230.9L946.4 213.1L944.4 213.1Q943.1 213.1 942.3 212.4Q941.5 211.6 941.5 210.3L941.5 210.3Q941.5 209.0 942.3 208.3Q943.0 207.5 944.4 207.5L944.4 207.5L946.4 207.5L946.4 203.4Q946.4 201.6 947.4 200.6Q948.3 199.6 950.0 199.6L950.0 199.6Q951.7 199.6 952.7 200.6Q953.7 201.6 953.7 203.4L953.7 203.4L953.7 207.5L957.1 207.5Q958.4 207.5 959.2 208.3Q960.0 209.0 960.0 210.3L960.0 210.3Q960.0 211.6 959.2 212.4Q958.4 213.1 957.1 213.1L957.1 213.1L953.7 213.1L953.7 229.3Q953.7 231.1 954.4 231.9Q955.0 232.7 956.6 232.9L956.6 232.9L957.1 232.9Q960.1 233.2 960.1 235.6L960.1 235.6Q960.1 237.2 958.7 238.1Q957.4 238.9 954.9 238.9L954.9 238.9L954.6 238.9Q946.4 238.9 946.4 230.9ZM975.4 239.1L975.4 239.1Q970.3 239.1 967.3 236.0Q964.3 233.0 964.3 227.6L964.3 227.6L964.3 210.7Q964.3 209.0 965.3 207.9Q966.3 206.9 968.0 206.9Q969.6 206.9 970.6 207.9Q971.6 209.0 971.6 210.8L971.6 210.8L971.6 226.1Q971.6 229.5 973.2 231.2Q974.8 233.0 977.9 233.0L977.9 233.0Q981.0 233.0 982.9 230.9Q984.7 228.9 984.7 225.5L984.7 225.5L984.7 210.7Q984.7 209.0 985.7 207.9Q986.8 206.9 988.4 206.9L988.4 206.9Q990.0 206.9 991.0 207.9Q992.0 209.0 992.0 210.8L992.0 210.8L992.0 235.5Q992.0 237.2 991.1 238.2Q990.1 239.2 988.5 239.2L988.5 239.2Q986.9 239.2 986.0 238.2Q985 237.2 985 235.5L985 235.5L985 233.2L984.9 233.2Q982.3 239.1 975.4 239.1ZM1004.3 238.1Q1003.3 239.2 1001.6 239.2Q999.9 239.2 999.0 238.1Q998.0 237.1 998.0 235.3L998.0 235.3L998.0 210.6Q998.0 208.9 998.9 207.9Q999.9 206.9 1001.5 206.9L1001.5 206.9Q1003.0 206.9 1004.0 207.9Q1004.9 208.9 1004.9 210.6L1004.9 210.6L1004.9 213.0L1005.1 213.0Q1005.7 210.3 1007.5 208.6Q1009.4 207.0 1011.7 207.0L1011.7 207.0Q1013.4 207.0 1014.3 207.8L1014.3 207.8Q1015.3 208.6 1015.3 210.4L1015.3 210.4Q1015.3 212.1 1014.2 213.0L1014.2 213.0Q1013.2 213.9 1011.0 214.0L1011.0 214.0Q1005.3 214.0 1005.3 220.4L1005.3 220.4L1005.3 235.3Q1005.3 237.1 1004.3 238.1ZM1032.4 239.2L1032.4 239.2Q1025.3 239.2 1021.3 235.0Q1017.3 230.7 1017.3 223.2L1017.3 223.2Q1017.3 215.7 1021.3 211.3Q1025.3 206.9 1032.0 206.9L1032.0 206.9Q1038.3 206.9 1042.3 210.9Q1046.3 215.0 1046.3 221.4L1046.3 221.4Q1046.3 223.0 1045.4 223.9Q1044.5 224.8 1042.9 224.8L1042.9 224.8L1024.6 224.8L1024.6 225.0Q1024.6 228.9 1026.7 231.3Q1028.8 233.6 1032.3 233.6L1032.3 233.6Q1034.8 233.6 1036.6 232.6Q1038.3 231.7 1040.1 229.4L1040.1 229.4Q1041.2 228.3 1042.6 228.3L1042.6 228.3Q1043.8 228.3 1044.7 229.0Q1045.5 229.8 1045.5 231.1L1045.5 231.1Q1045.5 231.9 1045 232.9L1045 232.9Q1043.4 235.9 1040.1 237.5Q1036.8 239.2 1032.4 239.2ZM1024.6 220.0L1024.6 220.0L1039.1 220.0Q1039.0 216.6 1037.1 214.6Q1035.1 212.5 1032.0 212.5Q1028.9 212.5 1026.9 214.6Q1024.8 216.7 1024.6 220.0ZM1063.0 239.2L1063.0 239.2Q1058.1 239.2 1054.8 237.5Q1051.4 235.8 1050.3 233.0L1050.3 233.0Q1050.0 232.2 1050.0 231.5L1050.0 231.5Q1050.0 230.2 1050.9 229.4Q1051.7 228.6 1053.1 228.6L1053.1 228.6Q1054.9 228.6 1056.2 230.4L1056.2 230.4Q1057.5 232.3 1059.1 233.1Q1060.7 233.9 1063.2 233.9L1063.2 233.9Q1065.8 233.9 1067.3 232.9Q1068.9 231.8 1068.9 230.1L1068.9 230.1Q1068.9 228.7 1067.9 227.8Q1066.9 227.0 1064.5 226.4L1064.5 226.4L1059.5 225.3Q1050.4 223.3 1050.4 216.4L1050.4 216.4Q1050.4 212.1 1053.9 209.5Q1057.3 206.9 1063.1 206.9L1063.1 206.9Q1067.5 206.9 1070.7 208.8Q1073.9 210.6 1074.6 213.4L1074.6 213.4Q1074.8 214.0 1074.8 214.5L1074.8 214.5Q1074.8 215.6 1074.1 216.4Q1073.3 217.1 1072.0 217.1L1072.0 217.1Q1070.1 217.1 1069.2 215.7L1069.2 215.7Q1068.1 214.0 1066.6 213.1Q1065.1 212.2 1062.9 212.2L1062.9 212.2Q1060.5 212.2 1059.0 213.3Q1057.5 214.3 1057.5 216.0L1057.5 216.0Q1057.5 218.8 1062.1 219.8L1062.1 219.8L1067.0 220.9Q1072.0 222.0 1074.1 223.9Q1076.2 225.9 1076.2 229.3L1076.2 229.3Q1076.2 233.8 1072.6 236.5Q1068.9 239.2 1063.0 239.2Z M52.1 321.6L52.1 321.6Q47.6 321.6 44.6 319.0Q41.7 316.4 41.7 312.2L41.7 312.2Q41.7 308.1 44.8 305.7Q47.9 303.3 53.5 302.9L53.5 302.9L61.8 302.4L61.8 300.2Q61.8 297.8 60.2 296.4Q58.7 295.1 56.0 295.1L56.0 295.1Q53.8 295.1 52.3 295.9Q50.8 296.7 49.5 298.7L49.5 298.7Q48.3 300.2 46.5 300.2L46.5 300.2Q45.2 300.2 44.3 299.4Q43.4 298.6 43.4 297.3L43.4 297.3Q43.4 296.3 43.9 295.3L43.9 295.3Q45.1 292.6 48.5 291.0Q51.8 289.4 56.3 289.4L56.3 289.4Q62.0 289.4 65.5 292.2Q69.0 295.0 69.0 299.7L69.0 299.7L69.0 318.0Q69.0 319.7 68.0 320.7Q67.0 321.7 65.4 321.7L65.4 321.7Q63.9 321.7 63.0 320.8Q62.0 319.9 61.9 318.3L61.9 318.3L61.9 316.1L61.8 316.1Q60.5 318.6 57.8 320.1Q55.1 321.6 52.1 321.6ZM54.3 316.1L54.3 316.1Q57.4 316.1 59.6 314.2Q61.8 312.3 61.8 309.6L61.8 309.6L61.8 307.2L54.6 307.6Q51.9 307.8 50.5 308.9Q49.0 310.1 49.0 311.9L49.0 311.9Q49.0 313.8 50.5 314.9Q51.9 316.1 54.3 316.1ZM81.1 320.7Q80.1 321.7 78.5 321.7Q76.8 321.7 75.8 320.7Q74.8 319.6 74.8 317.8L74.8 317.8L74.8 293.1Q74.8 291.4 75.8 290.4Q76.7 289.4 78.3 289.4Q79.9 289.4 80.9 290.4Q81.9 291.4 81.9 293.1L81.9 293.1L81.9 295.3L82.1 295.3Q84.7 289.4 91.7 289.4L91.7 289.4Q96.8 289.4 99.7 292.5Q102.5 295.6 102.5 301.0L102.5 301.0L102.5 317.8Q102.5 319.6 101.5 320.7Q100.5 321.7 98.9 321.7Q97.2 321.7 96.2 320.7Q95.2 319.6 95.2 317.8L95.2 317.8L95.2 302.5Q95.2 299.1 93.6 297.4Q92.1 295.6 89.0 295.6L89.0 295.6Q85.8 295.6 84.0 297.7Q82.1 299.7 82.1 303.1L82.1 303.1L82.1 317.8Q82.1 319.6 81.1 320.7ZM119.9 321.6L119.9 321.6Q114.0 321.6 110.5 317.2Q107.0 312.9 107.0 305.5L107.0 305.5Q107.0 298.2 110.5 293.8Q114.0 289.5 119.9 289.5L119.9 289.5Q123.2 289.5 125.7 291.0Q128.3 292.6 129.5 295.2L129.5 295.2L129.7 295.2L129.7 282.1Q129.7 280.2 130.7 279.2Q131.7 278.2 133.3 278.2Q135.0 278.2 136.0 279.2Q137.0 280.2 137.0 282.1L137.0 282.1L137.0 318.0Q137.0 319.7 136.0 320.7Q135.0 321.7 133.4 321.7L133.4 321.7Q131.8 321.7 130.7 320.7Q129.7 319.7 129.7 318.0L129.7 318.0L129.7 315.6L129.6 315.6Q128.4 318.4 125.9 320.0Q123.4 321.6 119.9 321.6ZM122.1 315.6L122.1 315.6Q125.6 315.6 127.7 312.9Q129.7 310.2 129.7 305.6L129.7 305.6Q129.7 301.0 127.7 298.2Q125.6 295.5 122.1 295.5L122.1 295.5Q118.6 295.5 116.6 298.2Q114.5 300.9 114.5 305.6L114.5 305.6Q114.5 310.2 116.5 312.9Q118.6 315.6 122.1 315.6Z M180.2 321.1L159.6 321.1Q157.9 321.1 156.9 320.0Q155.9 319.0 155.9 317.2L155.9 317.2L155.9 282.7Q155.9 280.9 156.9 279.8Q157.9 278.8 159.6 278.8L159.6 278.8L180.2 278.8Q181.8 278.8 182.8 279.7Q183.7 280.5 183.7 282.0Q183.7 283.5 182.8 284.3Q181.8 285.2 180.2 285.2L180.2 285.2L163.4 285.2L163.4 296.6L179.4 296.6Q180.8 296.6 181.7 297.4Q182.6 298.2 182.6 299.6Q182.6 301.0 181.7 301.8Q180.8 302.6 179.4 302.6L179.4 302.6L163.4 302.6L163.4 314.7L180.2 314.7Q181.8 314.7 182.8 315.6Q183.7 316.4 183.7 317.9Q183.7 319.3 182.8 320.2Q181.8 321.1 180.2 321.1L180.2 321.1ZM191.4 321.7L191.4 321.7Q190.0 321.7 189.0 320.8Q188.1 320.0 188.1 318.6L188.1 318.6Q188.1 317.5 189.0 316.2L189.0 316.2L196.9 305.6L189.1 294.9Q188.3 293.8 188.3 292.6L188.3 292.6Q188.3 291.2 189.3 290.3Q190.3 289.4 191.8 289.4L191.8 289.4Q192.9 289.4 193.5 289.8Q194.2 290.3 194.9 291.4L194.9 291.4L201.4 300.9L201.5 300.9L207.9 291.4Q208.6 290.3 209.3 289.9Q210.0 289.4 210.9 289.4L210.9 289.4Q212.4 289.4 213.4 290.3Q214.4 291.1 214.4 292.5L214.4 292.5Q214.4 293.7 213.5 294.9L213.5 294.9L205.7 305.4L213.5 316.2Q214.3 317.4 214.3 318.4L214.3 318.4Q214.3 319.9 213.3 320.8Q212.3 321.7 210.8 321.7L210.8 321.7Q209.0 321.7 207.9 319.9L207.9 319.9L201.2 309.9L201.0 309.9L194.4 319.8Q193.7 320.8 193.0 321.3Q192.4 321.7 191.4 321.7ZM228.6 321.6L228.6 321.6Q224.0 321.6 221.1 319.0Q218.2 316.4 218.2 312.2L218.2 312.2Q218.2 308.1 221.2 305.7Q224.3 303.3 230.0 302.9L230.0 302.9L238.2 302.4L238.2 300.2Q238.2 297.8 236.7 296.4Q235.1 295.1 232.4 295.1L232.4 295.1Q230.3 295.1 228.8 295.9Q227.3 296.7 225.9 298.7L225.9 298.7Q224.8 300.2 223.0 300.2L223.0 300.2Q221.6 300.2 220.7 299.4Q219.9 298.6 219.9 297.3L219.9 297.3Q219.9 296.3 220.4 295.3L220.4 295.3Q221.6 292.6 224.9 291.0Q228.3 289.4 232.7 289.4L232.7 289.4Q238.5 289.4 242.0 292.2Q245.4 295.0 245.4 299.7L245.4 299.7L245.4 318.0Q245.4 319.7 244.4 320.7Q243.5 321.7 241.9 321.7L241.9 321.7Q240.4 321.7 239.4 320.8Q238.5 319.9 238.4 318.3L238.4 318.3L238.4 316.1L238.3 316.1Q236.9 318.6 234.3 320.1Q231.6 321.6 228.6 321.6ZM230.8 316.1L230.8 316.1Q233.9 316.1 236.1 314.2Q238.2 312.3 238.2 309.6L238.2 309.6L238.2 307.2L231.0 307.6Q228.4 307.8 226.9 308.9Q225.5 310.1 225.5 311.9L225.5 311.9Q225.5 313.8 226.9 314.9Q228.4 316.1 230.8 316.1ZM254.9 321.7L254.9 321.7Q253.3 321.7 252.3 320.7Q251.3 319.6 251.3 317.8L251.3 317.8L251.3 293.1Q251.3 291.4 252.2 290.4Q253.2 289.4 254.8 289.4Q256.4 289.4 257.3 290.4Q258.3 291.4 258.3 293.1L258.3 293.1L258.3 295.4L258.4 295.4Q259.5 292.7 261.8 291.0Q264.2 289.4 267.3 289.4L267.3 289.4Q270.6 289.4 272.8 291.1Q275.1 292.7 276.0 295.7L276.0 295.7L276.1 295.7Q277.2 292.8 279.8 291.1Q282.4 289.4 285.8 289.4L285.8 289.4Q290.4 289.4 293.2 292.3Q295.9 295.1 295.9 299.8L295.9 299.8L295.9 317.8Q295.9 319.6 294.9 320.6Q293.9 321.7 292.3 321.7L292.3 321.7Q290.6 321.7 289.6 320.6Q288.6 319.6 288.6 317.8L288.6 317.8L288.6 301.6Q288.6 298.7 287.2 297.1Q285.7 295.6 283.1 295.6L283.1 295.6Q280.4 295.6 278.8 297.3Q277.2 299.1 277.2 301.9L277.2 301.9L277.2 317.8Q277.2 319.6 276.2 320.7Q275.3 321.7 273.6 321.7L273.6 321.7Q271.9 321.7 271.0 320.7Q270.1 319.6 270.1 317.8L270.1 317.8L270.1 301.2Q270.1 298.6 268.6 297.1Q267.1 295.6 264.6 295.6L264.6 295.6Q261.9 295.6 260.3 297.4Q258.6 299.3 258.6 302.1L258.6 302.1L258.6 317.8Q258.6 319.6 257.6 320.6Q256.6 321.7 254.9 321.7ZM308.1 331.1Q307.0 332.1 305.4 332.1Q303.8 332.1 302.8 331.1Q301.8 330.1 301.8 328.3L301.8 328.3L301.8 293.2Q301.8 291.4 302.7 290.4Q303.7 289.4 305.3 289.4L305.3 289.4Q306.9 289.4 307.9 290.4Q308.9 291.4 308.9 293.2L308.9 293.2L308.9 295.4L309.0 295.4Q310.4 292.6 312.9 291.1Q315.5 289.5 318.8 289.5L318.8 289.5Q324.7 289.5 328.2 293.8Q331.7 298.1 331.7 305.6L331.7 305.6Q331.7 313.0 328.3 317.3Q324.8 321.6 318.9 321.6L318.9 321.6Q315.6 321.6 313.0 320.1Q310.5 318.6 309.2 315.9L309.2 315.9L309.1 315.9L309.1 328.3Q309.1 330.1 308.1 331.1ZM316.6 315.6L316.6 315.6Q320.1 315.6 322.2 312.9Q324.2 310.2 324.2 305.6L324.2 305.6Q324.2 301.0 322.2 298.2Q320.1 295.5 316.6 295.5L316.6 295.5Q313.2 295.5 311.1 298.3Q309.0 301.0 309.0 305.6L309.0 305.6Q309.0 310.1 311.1 312.9Q313.2 315.6 316.6 315.6ZM342.9 320.7Q341.9 321.7 340.3 321.7Q338.6 321.7 337.6 320.7Q336.6 319.6 336.6 317.8L336.6 317.8L336.6 282.1Q336.6 280.2 337.6 279.2Q338.6 278.2 340.3 278.2Q341.9 278.2 342.9 279.2Q343.9 280.2 343.9 282.1L343.9 282.1L343.9 317.8Q343.9 319.6 342.9 320.7ZM363.9 321.7L363.9 321.7Q356.8 321.7 352.8 317.5Q348.8 313.2 348.8 305.7L348.8 305.7Q348.8 298.2 352.8 293.8Q356.8 289.4 363.5 289.4L363.5 289.4Q369.9 289.4 373.8 293.4Q377.8 297.5 377.8 303.9L377.8 303.9Q377.8 305.5 376.9 306.4Q376.0 307.3 374.4 307.3L374.4 307.3L356.1 307.3L356.1 307.5Q356.1 311.4 358.2 313.8Q360.3 316.1 363.8 316.1L363.8 316.1Q366.3 316.1 368.1 315.1Q369.9 314.2 371.6 311.9L371.6 311.9Q372.7 310.8 374.1 310.8L374.1 310.8Q375.3 310.8 376.2 311.5Q377.0 312.3 377.0 313.6L377.0 313.6Q377.0 314.4 376.5 315.4L376.5 315.4Q375.0 318.4 371.6 320.0Q368.3 321.7 363.9 321.7ZM356.1 302.5L356.1 302.5L370.6 302.5Q370.5 299.1 368.6 297.1Q366.6 295.0 363.5 295.0Q360.4 295.0 358.4 297.1Q356.3 299.2 356.1 302.5ZM394.5 321.7L394.5 321.7Q389.6 321.7 386.3 320.0Q382.9 318.3 381.8 315.5L381.8 315.5Q381.5 314.7 381.5 314.0L381.5 314.0Q381.5 312.7 382.4 311.9Q383.2 311.1 384.6 311.1L384.6 311.1Q386.4 311.1 387.7 312.9L387.7 312.9Q389.0 314.8 390.6 315.6Q392.2 316.4 394.7 316.4L394.7 316.4Q397.3 316.4 398.8 315.4Q400.4 314.3 400.4 312.6L400.4 312.6Q400.4 311.2 399.4 310.3Q398.4 309.5 396.0 308.9L396.0 308.9L391.0 307.8Q381.9 305.8 381.9 298.9L381.9 298.9Q381.9 294.6 385.4 292.0Q388.8 289.4 394.6 289.4L394.6 289.4Q399.0 289.4 402.2 291.3Q405.4 293.1 406.2 295.9L406.2 295.9Q406.3 296.5 406.3 297.0L406.3 297.0Q406.3 298.1 405.6 298.9Q404.8 299.6 403.5 299.6L403.5 299.6Q401.6 299.6 400.7 298.2L400.7 298.2Q399.6 296.5 398.1 295.6Q396.6 294.7 394.4 294.7L394.4 294.7Q392.0 294.7 390.5 295.8Q389.0 296.8 389.0 298.5L389.0 298.5Q389.0 301.3 393.6 302.3L393.6 302.3L398.5 303.4Q403.5 304.5 405.6 306.4Q407.7 308.4 407.7 311.8L407.7 311.8Q407.7 316.3 404.1 319.0Q400.4 321.7 394.5 321.7Z "/><defs><clipPath id="satori_bc-id-0-1"><rect x="0" y="441" width="1200" height="189"/></clipPath></defs><mask id="satori_om-id-0-1"><rect x="0" y="442" width="1200" height="188" fill="#fff"/><path width="1200" height="189" fill="none" stroke="#000" stroke-width="2" d="M0,441 A0,0 0 0 1 0,441 h1200 A0,0 0 0 1 1200,441"/></mask><path width="1200" height="189" clip-path="url(#satori_bc-id-0-1)" fill="none" stroke="#dbdbdb" stroke-width="2" d="M0,441 A0,0 0 0 1 0,441 h1200 A0,0 0 0 1 1200,441"/><mask id="satori_om-id-0-1-0"><rect x="40" y="482" width="209" height="108" fill="#fff"/></mask><clipPath id="satori_cp-id-0-1-0-0"><rect x="40" y="504" width="64" height="64"/></clipPath><mask id="satori_om-id-0-1-0-0"><rect x="40" y="504" width="64" height="64" fill="#fff"/></mask><image x="40" y="504" width="64" height="64" href="data:image/svg+xml;utf8,%3Csvg  xmlns=%22http://www.w3.org/2000/svg%22 width=%2264%22 height=%2264%22 viewBox=%220 0 128 128%22%3E%3Cpath fill=%22%23224d67%22 d=%22M22.5 14.8c2.9 1.3 99 44 99 44c2.7 1.2 2.9 3.1 2 12.4c-1 10.5-1.9 37.8-40.2 42.9c-24.6 3.2-55.9-4.3-70.9-27.2C-6 58.8 11 23.4 14.8 17.7c2.4-3.5 4.8-4.2 7.7-2.9%22%3E%3C/path%3E%3Cpath fill=%22%23f0f4c3%22 d=%22M121.5 58.8c-.3-.2-92-40.8-98.9-43.9C9.6 31.5-3.8 76 27.9 96.2c33.6 21.5 78.7-10.2 93.6-37.4%22%3E%3C/path%3E%3Cpath fill=%22%23f0f4c3%22 d=%22M117.7 57c-.3-.2-86.7-38.4-93.2-41.3c-12.2 15.5-23.9 59.1 5.7 78c31.4 20.2 73.6-11.2 87.5-36.7%22%3E%3C/path%3E%3Cpath fill=%22%23cb2a42%22 d=%22M56.2 37.6L19.5 48.2c-2.5.8-4.4 2.8-5 5.3c-1.9 8.5.8 23.3 8.9 29.8c3.5 2.7 8.6 1.8 10.8-2.1L58.5 41c1.3-1.7.5-4.2-2.3-3.4m14.3 2.9s14.6 30.1 16 33s6.3 4.7 9.9 2.8c10.7-5.6 15.5-12.4 19.2-20.2c-8.9-3.9-42.4-18.8-42.4-18.8c-2.4-1.1-4 .6-2.7 3.2m-8.6 1.9C60.3 45.1 39.5 81 37.6 84.1c-1.9 3.2-.7 7.5 2.7 9.2c12.3 6.5 30.9.4 39.6-7c2.2-1.9 4.5-5.1 3.2-8.2S68.9 44.6 67.8 42.3c-1.2-2.7-4.1-2.8-5.9.1%22%3E%3C/path%3E%3Cpath fill=%22%23f0f4c3%22 d=%22M52.2 42.2c-1.4.4-10.1 3-11.1 3.4c-1.4.5-2.2 1.7-1.9 2.5c.3.9 1.7 1.1 3.1.6c.8-.3 7.1-3.9 9.5-5.2c-3.1 2.4-10.2 9.4-11.1 10.3c-1.4 1.5-1.7 3.4-.8 4.3c1 .9 2.9.5 4.3-1c1.2-1.3 8.5-12.8 9.1-13.9s.4-1.4-1.1-1m10.1 16.4c0-2.2 1.4-10.3 1.8-12.3c.4-1.6 1.5-1.8 1.8.5s1.7 9.7 1.7 11.8s-1.2 3.3-2.7 3.3c-1.4 0-2.6-1.1-2.6-3.3M79.9 49c-1.2-1.8-3.3-4.9-4.1-6.1c-.7-1.2.1-2.1 1.8-.9s4 2.9 5.4 4c1.6 1.3 1.9 3 .8 4s-2.7.8-3.9-1%22%3E%3C/path%3E%3Cellipse cx=%2287.3%22 cy=%22103.12%22 fill=%22%23cb2a42%22 rx=%223.4%22 ry=%222.3%22 transform=%22rotate(-27.098 87.298 103.126)%22%3E%3C/ellipse%3E%3Cellipse cx=%2298.89%22 cy=%22103.82%22 fill=%22%23cb2a42%22 rx=%223.4%22 ry=%222.3%22 transform=%22rotate(-30.642 98.887 103.818)%22%3E%3C/ellipse%3E%3Cellipse cx=%22102.02%22 cy=%2293.8%22 fill=%22%23cb2a42%22 rx=%223.4%22 ry=%222.3%22 transform=%22rotate(-37.16 102.017 93.797)%22%3E%3C/ellipse%3E%3Cpath fill=%22%23cb2a42%22 d=%22M57.6 30.3c-8.3-3.7-24.4-10.7-29.6-13c-3.6 2.2-9.7 11.4-11.2 21.2c-.6 3.6 1.7 5.9 5.3 4.9c0 0 33.7-9.3 35.3-9.7c1.6-.5 2-2.6.2-3.4%22%3E%3C/path%3E%3C/svg%3E" preserveAspectRatio="none" clip-path="url(#satori_cp-id-0-1-0-0)" mask="url(#satori_om-id-0-1-0-0)"/><mask id="satori_om-id-0-1-0-0-0"><rect x="40" y="504" width="0" height="64" fill="#fff"/></mask><mask id="satori_om-id-0-1-0-0-1"><rect x="40" y="504" width="0" height="64" fill="#fff"/></mask><mask id="satori_om-id-0-1-0-0-2"><rect x="40" y="504" width="0" height="64" fill="#fff"/></mask><mask id="satori_om-id-0-1-0-0-3"><rect x="40" y="504" width="0" height="64" fill="#fff"/></mask><mask id="satori_om-id-0-1-0-0-4"><rect x="40" y="504" width="0" height="64" fill="#fff"/></mask><mask id="satori_om-id-0-1-0-0-5"><rect x="40" y="504" width="0" height="64" fill="#fff"/></mask><mask id="satori_om-id-0-1-0-0-6"><rect x="40" y="504" width="0" height="64" fill="#fff"/></mask><mask id="satori_om-id-0-1-0-0-7"><rect x="40" y="504" width="0" height="64" fill="#fff"/></mask><mask id="satori_om-id-0-1-0-0-8"><rect x="40" y="504" width="0" height="64" fill="#fff"/></mask><mask id="satori_om-id-0-1-0-1"><rect x="116" y="512" width="133" height="48" fill="#fff"/></mask><path fill="#545454" d="M133.9 553.6L133.9 553.6Q126.4 553.6 122.1 549.0Q117.8 544.3 117.8 536.1L117.8 536.1Q117.8 528.0 122.1 523.3Q126.4 518.7 133.7 518.7L133.7 518.7Q138.4 518.7 142.0 520.7Q145.5 522.7 147.2 526.3L147.2 526.3Q147.9 527.7 147.9 529.0L147.9 529.0Q147.9 530.4 147.1 531.2Q146.2 532.0 144.8 532.0L144.8 532.0Q143.6 532.0 142.8 531.5Q142.0 530.9 141.5 529.7L141.5 529.7Q140.3 527.1 138.3 525.8Q136.3 524.5 133.8 524.5L133.8 524.5Q129.8 524.5 127.4 527.7Q125.0 530.8 125.0 536.1L125.0 536.1Q125.0 541.5 127.3 544.7Q129.7 547.8 133.8 547.8L133.8 547.8Q139.3 547.8 141.5 542.8L141.5 542.8Q142.1 541.6 142.8 541.1Q143.5 540.5 144.7 540.5L144.7 540.5Q146.2 540.5 147.1 541.4Q148.0 542.3 148.0 543.7L148.0 543.7Q148.0 544.8 147.4 546.1L147.4 546.1Q145.8 549.6 142.3 551.6Q138.7 553.6 133.9 553.6ZM158.6 523.8Q157.5 524.8 156.0 524.8Q154.4 524.8 153.4 523.8Q152.3 522.8 152.3 521.3L152.3 521.3Q152.3 519.8 153.4 518.8Q154.4 517.7 156.0 517.7Q157.5 517.7 158.6 518.8Q159.6 519.8 159.6 521.3L159.6 521.3Q159.6 522.8 158.6 523.8ZM158.5 552.6Q157.6 553.6 156.0 553.6Q154.4 553.6 153.5 552.6Q152.5 551.7 152.5 550.0L152.5 550.0L152.5 531.0Q152.5 529.3 153.5 528.4Q154.4 527.4 156.0 527.4Q157.6 527.4 158.5 528.4Q159.4 529.3 159.4 531.0L159.4 531.0L159.4 550.0Q159.4 551.7 158.5 552.6ZM165.8 546.6L165.8 546.6L165.8 533.1L164.4 533.1Q163.2 533.1 162.5 532.4Q161.8 531.7 161.8 530.5Q161.8 529.3 162.5 528.6Q163.2 527.9 164.4 527.9L164.4 527.9L165.8 527.9L165.8 525.1Q165.8 523.5 166.7 522.5Q167.6 521.6 169.2 521.6Q170.8 521.6 171.7 522.5Q172.6 523.5 172.6 525.1L172.6 525.1L172.6 527.9L175.0 527.9Q176.2 527.9 176.9 528.6Q177.6 529.3 177.6 530.5Q177.6 531.7 176.9 532.4Q176.2 533.1 175.0 533.1L175.0 533.1L172.6 533.1L172.6 545.1Q172.6 546.5 173.1 547.1Q173.6 547.7 174.7 547.8L174.7 547.8L175.1 547.8Q176.4 548.0 177.1 548.5Q177.7 549.1 177.7 550.3L177.7 550.3Q177.7 551.8 176.4 552.6Q175.1 553.3 172.9 553.3L172.9 553.3L172.6 553.3Q165.8 553.3 165.8 546.6ZM184.4 553.6L184.4 553.6Q182.8 553.6 181.9 552.6Q181.0 551.7 181.0 550.0L181.0 550.0L181.0 530.9Q181.0 529.3 181.9 528.3Q182.8 527.4 184.3 527.4L184.3 527.4Q185.8 527.4 186.6 528.3Q187.5 529.3 187.5 530.9L187.5 530.9L187.5 532.5L187.7 532.5Q188.2 530.2 189.6 528.9Q191 527.5 192.9 527.5L192.9 527.5Q194.3 527.5 195.0 528.2L195.0 528.2Q196.0 528.9 196.0 530.7L196.0 530.7Q196.0 532.3 195.0 533.2L195.0 533.2Q194.0 534.0 192.1 534.1L192.1 534.1Q189.8 534.1 188.8 535.3Q187.8 536.5 187.8 538.8L187.8 538.8L187.8 550.0Q187.8 551.7 186.9 552.6Q186.0 553.6 184.4 553.6ZM207.4 553.5L207.4 553.5Q203.3 553.5 200.8 551.0Q198.3 548.5 198.3 544.1L198.3 544.1L198.3 531.0Q198.3 529.3 199.3 528.4Q200.2 527.4 201.8 527.4Q203.3 527.4 204.2 528.4Q205.2 529.3 205.2 531.0L205.2 531.0L205.2 542.7Q205.2 545.2 206.4 546.5Q207.6 547.8 209.9 547.8Q212.1 547.8 213.5 546.3Q214.8 544.8 214.8 542.3L214.8 542.3L214.8 531.0Q214.8 529.3 215.8 528.4Q216.7 527.4 218.2 527.4Q219.8 527.4 220.7 528.4Q221.7 529.3 221.7 531.0L221.7 531.0L221.7 550.1Q221.7 551.8 220.8 552.7Q219.9 553.6 218.4 553.6Q216.8 553.6 215.9 552.7Q215.0 551.8 215.0 550.1L215.0 550.1L215.0 548.5L214.9 548.5Q212.9 553.5 207.4 553.5ZM236.4 553.6L236.4 553.6Q232.1 553.6 229.3 552.2Q226.5 550.9 225.5 548.6L225.5 548.6Q225.3 547.9 225.3 547.3L225.3 547.3Q225.3 546.1 226.1 545.4Q226.9 544.7 228.1 544.7L228.1 544.7Q229.6 544.7 231.0 546.2L231.0 546.2Q232.1 547.6 233.3 548.2Q234.6 548.8 236.5 548.8L236.5 548.8Q238.4 548.8 239.5 548.1Q240.6 547.3 240.6 546.1L240.6 546.1Q240.6 545.1 239.9 544.5Q239.1 543.9 237.3 543.5L237.3 543.5L233.1 542.6Q229.4 541.8 227.5 539.9Q225.7 538.1 225.7 535.3L225.7 535.3Q225.7 531.7 228.6 529.5Q231.5 527.4 236.3 527.4L236.3 527.4Q240.1 527.4 242.8 528.9Q245.5 530.4 246.2 532.6L246.2 532.6Q246.3 533.2 246.3 533.6L246.3 533.6Q246.3 534.7 245.7 535.3Q245 536.0 243.7 536.0L243.7 536.0Q242.1 536.0 241.2 534.9L241.2 534.9Q240.2 533.6 239.1 532.9Q237.9 532.2 236.2 532.2L236.2 532.2Q234.5 532.2 233.4 533.0Q232.3 533.7 232.3 534.9L232.3 534.9Q232.3 535.9 233.1 536.6Q233.9 537.2 235.8 537.6L235.8 537.6L239.9 538.5Q243.9 539.4 245.7 541.0Q247.5 542.6 247.5 545.4L247.5 545.4Q247.5 549.1 244.4 551.4Q241.3 553.6 236.4 553.6Z "/><mask id="satori_om-id-0-1-1"><rect x="951" y="524" width="209" height="36" fill="#fff"/></mask><path fill="#8e8e8e" d="M954.9 552.6Q954.5 552.9 954.0 552.9Q953.4 552.9 953.1 552.6Q952.8 552.2 952.8 551.7L952.8 551.7L952.8 532.6Q952.8 532.0 953.1 531.6Q953.5 531.3 954.1 531.3Q954.6 531.3 955.0 531.6Q955.3 532.0 955.3 532.6L955.3 532.6L955.3 540.0L955.4 540.0Q956.1 538.7 957.4 537.9Q958.7 537.2 960.3 537.2L960.3 537.2Q963.2 537.2 964.9 539.3Q966.7 541.5 966.7 545.0L966.7 545.0Q966.7 548.6 964.9 550.8Q963.2 552.9 960.2 552.9L960.2 552.9Q958.6 552.9 957.3 552.2Q956.0 551.4 955.3 550.1L955.3 550.1L955.2 550.1L955.2 551.7Q955.2 552.2 954.9 552.6ZM959.7 550.7L959.7 550.7Q961.8 550.7 962.9 549.2Q964.1 547.7 964.1 545.0L964.1 545.0Q964.1 542.5 962.9 540.9Q961.8 539.4 959.7 539.4L959.7 539.4Q957.8 539.4 956.6 541.0Q955.3 542.5 955.3 545.0L955.3 545.0Q955.3 547.6 956.6 549.1Q957.8 550.7 959.7 550.7ZM970.8 558.4L970.8 558.4Q969.9 558.4 969.4 558.0Q968.9 557.7 968.9 557.1L968.9 557.1Q968.9 556.7 969.1 556.4Q969.4 556.2 969.9 556.2L969.9 556.2Q970.1 556.2 970.3 556.2Q970.5 556.2 970.7 556.2L970.7 556.2Q972.4 556.2 973.2 553.7L973.2 553.7L973.6 552.7L968.3 539.0Q968.2 538.6 968.2 538.3L968.2 538.3Q968.2 537.8 968.6 537.5Q968.9 537.2 969.5 537.2L969.5 537.2Q970.4 537.2 970.7 538.1L970.7 538.1L974.9 550.1L975.0 550.1L979.2 538.1Q979.3 537.6 979.6 537.4Q979.9 537.2 980.4 537.2L980.4 537.2Q980.9 537.2 981.3 537.5Q981.6 537.8 981.6 538.3L981.6 538.3Q981.6 538.6 981.5 539.0L981.5 539.0L975.9 553.7Q974.9 556.4 973.8 557.4Q972.7 558.4 970.8 558.4Z M990.5 552.9L990.5 552.9Q989.9 552.9 989.5 552.5Q989.2 552.2 989.2 551.7L989.2 551.7Q989.2 551.4 989.3 551.0L989.3 551.0L996.1 532.6Q996.6 531.3 997.8 531.3L997.8 531.3Q999.0 531.3 999.5 532.6L999.5 532.6L1006.3 551.0Q1006.5 551.4 1006.5 551.7L1006.5 551.7Q1006.5 552.2 1006.1 552.5Q1005.7 552.9 1005.2 552.9L1005.2 552.9Q1004.2 552.9 1003.9 551.9L1003.9 551.9L1002.0 546.6L993.6 546.6L991.8 551.9Q991.4 552.9 990.5 552.9ZM997.8 534.7L994.4 544.4L1001.2 544.4L997.9 534.7L997.8 534.7ZM1011.1 552.5Q1010.8 552.9 1010.2 552.9Q1009.7 552.9 1009.3 552.5Q1008.9 552.2 1008.9 551.6L1008.9 551.6L1008.9 538.5Q1008.9 537.9 1009.3 537.5Q1009.6 537.2 1010.1 537.2Q1010.7 537.2 1011 537.5Q1011.3 537.9 1011.3 538.5L1011.3 538.5L1011.3 539.9L1011.4 539.9Q1011.7 538.7 1012.7 537.9Q1013.7 537.2 1014.9 537.2L1014.9 537.2Q1015.7 537.2 1016.1 537.5L1016.1 537.5Q1016.4 537.8 1016.4 538.4L1016.4 538.4Q1016.4 539.0 1016.0 539.3L1016.0 539.3Q1015.6 539.6 1014.8 539.6L1014.8 539.6Q1013.1 539.6 1012.3 540.6Q1011.5 541.6 1011.5 543.2L1011.5 543.2L1011.5 551.6Q1011.5 552.2 1011.1 552.5ZM1019.0 549.1L1019.0 549.1L1019.0 539.5L1017.7 539.5Q1017.2 539.5 1016.9 539.3Q1016.6 539.0 1016.6 538.5L1016.6 538.5Q1016.6 538.0 1016.9 537.7Q1017.2 537.4 1017.7 537.4L1017.7 537.4L1019.0 537.4L1019.0 534.8Q1019.0 534.2 1019.4 533.8Q1019.7 533.5 1020.3 533.5Q1020.8 533.5 1021.2 533.8Q1021.5 534.2 1021.5 534.8L1021.5 534.8L1021.5 537.4L1023.5 537.4Q1024.1 537.4 1024.4 537.7Q1024.7 538.0 1024.7 538.5L1024.7 538.5Q1024.7 539.0 1024.4 539.3Q1024.1 539.5 1023.5 539.5L1023.5 539.5L1021.5 539.5L1021.5 548.6Q1021.5 549.6 1021.9 550.0Q1022.3 550.5 1023.3 550.6L1023.3 550.6L1023.5 550.6Q1024.7 550.7 1024.7 551.6L1024.7 551.6Q1024.7 552.2 1024.3 552.5Q1023.9 552.8 1022.9 552.8L1022.9 552.8L1022.7 552.8Q1019.0 552.8 1019.0 549.1ZM1033.6 552.9L1033.6 552.9Q1030.2 552.9 1028.4 550.9Q1026.5 548.8 1026.5 545.1L1026.5 545.1Q1026.5 541.5 1028.4 539.3Q1030.2 537.2 1033.4 537.2L1033.4 537.2Q1036.3 537.2 1038.2 539.1Q1040.0 541.1 1040.0 544.3L1040.0 544.3Q1040.0 544.9 1039.6 545.3Q1039.3 545.7 1038.6 545.7L1038.6 545.7L1029.1 545.7Q1029.1 548.0 1030.3 549.4Q1031.5 550.7 1033.5 550.7L1033.5 550.7Q1034.9 550.7 1035.8 550.2Q1036.7 549.6 1037.6 548.3L1037.6 548.3Q1038.0 547.8 1038.6 547.8L1038.6 547.8Q1039.1 547.8 1039.4 548.1Q1039.7 548.4 1039.7 548.9L1039.7 548.9Q1039.7 549.2 1039.5 549.7L1039.5 549.7Q1038.8 551.2 1037.2 552.1Q1035.7 552.9 1033.6 552.9ZM1029.1 543.7L1029.1 543.7L1037.4 543.7Q1037.3 541.8 1036.2 540.6Q1035.1 539.4 1033.3 539.4L1033.3 539.4Q1031.6 539.4 1030.4 540.6Q1029.2 541.8 1029.1 543.7ZM1044.8 552.5Q1044.4 552.9 1043.9 552.9Q1043.3 552.9 1042.9 552.5Q1042.6 552.2 1042.6 551.6L1042.6 551.6L1042.6 538.5Q1042.6 537.9 1042.9 537.5Q1043.3 537.2 1043.8 537.2Q1044.3 537.2 1044.6 537.5Q1045.0 537.9 1045.0 538.5L1045.0 538.5L1045.0 539.9L1045.0 539.9Q1045.6 538.6 1046.7 537.9Q1047.9 537.2 1049.4 537.2L1049.4 537.2Q1050.9 537.2 1052.0 537.9Q1053.1 538.7 1053.6 540.1L1053.6 540.1L1053.7 540.1Q1054.3 538.7 1055.6 537.9Q1056.9 537.2 1058.5 537.2L1058.5 537.2Q1060.7 537.2 1062.1 538.5Q1063.4 539.9 1063.4 542.1L1063.4 542.1L1063.4 551.6Q1063.4 552.2 1063.1 552.5Q1062.7 552.9 1062.2 552.9Q1061.6 552.9 1061.2 552.5Q1060.9 552.2 1060.9 551.6L1060.9 551.6L1060.9 542.7Q1060.9 541.2 1060.1 540.3Q1059.2 539.4 1057.7 539.4Q1056.2 539.4 1055.3 540.4Q1054.3 541.4 1054.3 543.0L1054.3 543.0L1054.3 551.6Q1054.3 552.2 1053.9 552.5Q1053.6 552.9 1053.0 552.9Q1052.4 552.9 1052.1 552.5Q1051.7 552.2 1051.7 551.6L1051.7 551.6L1051.7 542.5Q1051.7 541.1 1050.9 540.2Q1050.0 539.4 1048.6 539.4L1048.6 539.4Q1047.1 539.4 1046.1 540.5Q1045.1 541.5 1045.1 543.1L1045.1 543.1L1045.1 551.6Q1045.1 552.2 1044.8 552.5Z M1075.5 552.5Q1075.1 552.9 1074.5 552.9Q1073.9 552.9 1073.6 552.5Q1073.2 552.1 1073.2 551.5L1073.2 551.5L1073.2 532.7Q1073.2 532.1 1073.6 531.7Q1073.9 531.3 1074.5 531.3Q1075.1 531.3 1075.5 531.7Q1075.9 532.1 1075.9 532.7L1075.9 532.7L1075.9 541.8L1076.0 541.8L1085.4 531.8Q1085.9 531.3 1086.5 531.3L1086.5 531.3Q1087.0 531.3 1087.3 531.7Q1087.7 532.0 1087.7 532.5L1087.7 532.5Q1087.7 533.0 1087.3 533.3L1087.3 533.3L1080.1 540.9L1088.2 550.6Q1088.5 551.1 1088.5 551.6L1088.5 551.6Q1088.5 552.2 1088.2 552.5Q1087.8 552.9 1087.3 552.9L1087.3 552.9Q1086.6 552.9 1086.1 552.2L1086.1 552.2L1078.2 542.8L1075.9 545.3L1075.9 551.5Q1075.9 552.1 1075.5 552.5ZM1096.5 552.9L1096.5 552.9Q1094.0 552.9 1092.6 551.4Q1091.2 549.9 1091.2 547.3L1091.2 547.3L1091.2 538.5Q1091.2 537.9 1091.6 537.5Q1091.9 537.2 1092.5 537.2Q1093.0 537.2 1093.4 537.5Q1093.8 537.9 1093.8 538.5L1093.8 538.5L1093.8 546.9Q1093.8 550.7 1097.3 550.7L1097.3 550.7Q1099.1 550.7 1100.2 549.5Q1101.2 548.3 1101.2 546.4L1101.2 546.4L1101.2 538.5Q1101.2 537.9 1101.6 537.5Q1102.0 537.2 1102.5 537.2Q1103.1 537.2 1103.4 537.5Q1103.8 537.9 1103.8 538.5L1103.8 538.5L1103.8 551.6Q1103.8 552.2 1103.5 552.6Q1103.1 552.9 1102.6 552.9Q1102.1 552.9 1101.7 552.6Q1101.4 552.2 1101.4 551.6L1101.4 551.6L1101.4 550.2L1101.3 550.2Q1099.9 552.9 1096.5 552.9ZM1107.9 549.1L1107.9 549.1L1107.9 539.5L1106.6 539.5Q1106.1 539.5 1105.8 539.3Q1105.5 539.0 1105.5 538.5L1105.5 538.5Q1105.5 538.0 1105.8 537.7Q1106.1 537.4 1106.6 537.4L1106.6 537.4L1107.9 537.4L1107.9 534.8Q1107.9 534.2 1108.3 533.8Q1108.6 533.5 1109.2 533.5Q1109.7 533.5 1110.1 533.8Q1110.5 534.2 1110.5 534.8L1110.5 534.8L1110.5 537.4L1112.4 537.4Q1113.0 537.4 1113.3 537.7Q1113.6 538.0 1113.6 538.5L1113.6 538.5Q1113.6 539.0 1113.3 539.3Q1113.0 539.5 1112.4 539.5L1112.4 539.5L1110.5 539.5L1110.5 548.6Q1110.5 549.6 1110.9 550.0Q1111.3 550.5 1112.2 550.6L1112.2 550.6L1112.4 550.6Q1113.6 550.7 1113.6 551.6L1113.6 551.6Q1113.6 552.2 1113.2 552.5Q1112.8 552.8 1111.8 552.8L1111.8 552.8L1111.6 552.8Q1107.9 552.8 1107.9 549.1ZM1121.4 552.9L1121.4 552.9Q1119.4 552.9 1117.9 552.1Q1116.4 551.2 1115.9 549.8L1115.9 549.8Q1115.7 549.5 1115.7 549.2L1115.7 549.2Q1115.7 548.7 1116.1 548.4Q1116.4 548.2 1116.9 548.2L1116.9 548.2Q1117.6 548.2 1118.0 548.9L1118.0 548.9Q1118.6 550.0 1119.4 550.4Q1120.2 550.8 1121.6 550.8L1121.6 550.8Q1123.1 550.8 1124.0 550.2Q1124.9 549.6 1124.9 548.6L1124.9 548.6Q1124.9 547.7 1124.4 547.3Q1123.8 546.8 1122.5 546.5L1122.5 546.5L1120.2 545.9Q1115.9 544.8 1115.9 541.6L1115.9 541.6Q1115.9 539.6 1117.5 538.4Q1119.0 537.2 1121.6 537.2L1121.6 537.2Q1123.5 537.2 1125.0 538.1Q1126.5 539.0 1126.8 540.4L1126.8 540.4Q1126.8 540.6 1126.8 540.8L1126.8 540.8Q1126.8 541.2 1126.5 541.5Q1126.3 541.8 1125.8 541.8L1125.8 541.8Q1125.0 541.8 1124.7 541.1L1124.7 541.1Q1124.2 540.1 1123.4 539.7Q1122.7 539.3 1121.5 539.3L1121.5 539.3Q1120.1 539.3 1119.2 539.9Q1118.4 540.5 1118.4 541.5L1118.4 541.5Q1118.4 543.1 1120.9 543.7L1120.9 543.7L1123.1 544.2Q1125.5 544.8 1126.5 545.8Q1127.5 546.7 1127.5 548.4L1127.5 548.4Q1127.5 550.4 1125.8 551.7Q1124.1 552.9 1121.4 552.9ZM1134.5 552.9L1134.5 552.9Q1132.3 552.9 1130.9 551.7Q1129.5 550.4 1129.5 548.4L1129.5 548.4Q1129.5 546.4 1130.9 545.2Q1132.3 544.1 1135.0 543.9L1135.0 543.9L1139.4 543.7L1139.4 542.4Q1139.4 541.0 1138.5 540.2Q1137.6 539.4 1136.0 539.4L1136.0 539.4Q1134.8 539.4 1133.9 539.9Q1133.0 540.4 1132.4 541.5L1132.4 541.5Q1132.1 542.1 1131.3 542.1L1131.3 542.1Q1130.8 542.1 1130.5 541.8Q1130.2 541.5 1130.2 541.0Q1130.2 540.5 1130.5 539.9L1130.5 539.9Q1131.2 538.7 1132.7 537.9Q1134.2 537.2 1136.1 537.2L1136.1 537.2Q1138.8 537.2 1140.3 538.5Q1141.9 539.9 1141.9 542.1L1141.9 542.1L1141.9 551.6Q1141.9 552.2 1141.6 552.6Q1141.2 552.9 1140.7 552.9L1140.7 552.9Q1140.2 552.9 1139.8 552.6Q1139.5 552.2 1139.5 551.6L1139.5 551.6L1139.5 550.0L1139.4 550.0Q1138.8 551.3 1137.4 552.1Q1136.1 552.9 1134.5 552.9ZM1135.1 550.8L1135.1 550.8Q1136.9 550.8 1138.1 549.6Q1139.4 548.5 1139.4 546.9L1139.4 546.9L1139.4 545.6L1135.3 545.9Q1133.7 546.0 1132.9 546.6Q1132.1 547.3 1132.1 548.4Q1132.1 549.4 1132.9 550.1Q1133.7 550.8 1135.1 550.8ZM1147.3 552.5Q1147.0 552.9 1146.4 552.9Q1145.9 552.9 1145.5 552.5Q1145.2 552.2 1145.2 551.6L1145.2 551.6L1145.2 538.5Q1145.2 537.9 1145.5 537.5Q1145.8 537.2 1146.4 537.2Q1146.9 537.2 1147.2 537.5Q1147.6 537.9 1147.6 538.5L1147.6 538.5L1147.6 539.9L1147.6 539.9Q1148.3 538.6 1149.5 537.9Q1150.7 537.2 1152.4 537.2L1152.4 537.2Q1154.9 537.2 1156.3 538.7Q1157.7 540.2 1157.7 542.8L1157.7 542.8L1157.7 551.6Q1157.7 552.2 1157.4 552.5Q1157.0 552.9 1156.4 552.9Q1155.9 552.9 1155.5 552.5Q1155.2 552.2 1155.2 551.6L1155.2 551.6L1155.2 543.2Q1155.2 541.4 1154.3 540.4Q1153.4 539.4 1151.7 539.4L1151.7 539.4Q1149.9 539.4 1148.8 540.6Q1147.7 541.8 1147.7 543.7L1147.7 543.7L1147.7 551.6Q1147.7 552.2 1147.3 552.5Z "/></svg>