<svg width="1200" height="630" viewBox="0 0 1200 630" xmlns="http://www.w3.org/2000/svg"><mask id="satori_om-id"><rect x="0" y="0" width="1200" height="630" fill="#fff"/></mask><mask id="satori_om-id-0"><rect x="0" y="0" width="1200" height="630" fill="#fff"/></mask><rect x="0" y="0" width="1200" height="630" fill="#f2f2f2"/><mask id="satori_om-id-0-0"><rect x="0" y="0" width="1200" height="441" fill="#fff"/></mask><mask id="satori_om-id-0-0-0"><rect x="40" y="136" width="1120" height="36" fill="#fff"/></mask><path fill="#8e8e8e" d="M44.5 164.5Q44.1 164.9 43.4 164.9Q42.7 164.9 42.3 164.5Q41.9 164.1 41.9 163.3L41.9 163.3L41.9 145.4Q41.9 144.4 42.5 143.9Q43.1 143.3 44.1 143.3L44.1 143.3Q44.9 143.3 45.4 143.7Q46.0 144.1 46.3 145.0L46.3 145.0L52.6 160.2L52.7 160.2L58.9 145.0Q59.3 144.1 59.9 143.7Q60.4 143.3 61.3 143.3L61.3 143.3Q62.2 143.3 62.8 143.8Q63.3 144.4 63.3 145.4L63.3 145.4L63.3 163.3Q63.3 164.1 62.9 164.5Q62.5 164.9 61.8 164.9L61.8 164.9Q61.1 164.9 60.7 164.5Q60.3 164.1 60.3 163.3L60.3 163.3L60.3 149.1L60.2 149.1L54.3 163.3Q53.8 164.5 52.6 164.5L52.6 164.5Q51.4 164.5 50.9 163.3L50.9 163.3L45.0 149.1L44.9 149.1L44.9 163.3Q44.9 164.1 44.5 164.5ZM78.8 162.8Q76.8 165.0 73.5 165.0Q70.1 165.0 68.2 162.8Q66.2 160.7 66.2 157.0L66.2 157.0Q66.2 153.3 68.2 151.1Q70.1 149.0 73.5 149.0Q76.8 149.0 78.8 151.1Q80.8 153.3 80.8 157.0L80.8 157.0Q80.8 160.7 78.8 162.8ZM73.5 162.3L73.5 162.3Q75.4 162.3 76.5 160.9Q77.6 159.5 77.6 157.0L77.6 157.0Q77.6 154.4 76.5 153.0Q75.3 151.6 73.5 151.6Q71.6 151.6 70.5 153.0Q69.4 154.4 69.4 157.0L69.4 157.0Q69.4 159.5 70.5 160.9Q71.6 162.3 73.5 162.3ZM84.8 164.9L84.8 164.9Q84.1 164.9 83.7 164.5Q83.2 164.0 83.2 163.3L83.2 163.3L83.2 150.6Q83.2 149.8 83.6 149.4Q84.0 149.0 84.7 149.0Q85.4 149.0 85.8 149.4Q86.3 149.9 86.3 150.6L86.3 150.6L86.3 151.8L86.3 151.8Q87.7 149.0 91.2 149.0L91.2 149.0Q93.7 149.0 95.1 150.5Q96.5 152.0 96.5 154.7L96.5 154.7L96.5 163.3Q96.5 164.0 96.1 164.5Q95.6 164.9 94.9 164.9L94.9 164.9Q94.2 164.9 93.8 164.5Q93.3 164.0 93.3 163.3L93.3 163.3L93.3 155.3Q93.3 153.5 92.5 152.6Q91.7 151.7 90.1 151.7L90.1 151.7Q88.4 151.7 87.4 152.8Q86.4 153.9 86.4 155.7L86.4 155.7L86.4 163.3Q86.4 164.0 86.0 164.5Q85.5 164.9 84.8 164.9ZM105.3 164.9L105.3 164.9Q102.4 164.9 100.6 162.8Q98.9 160.6 98.9 157.0Q98.9 153.3 100.6 151.2Q102.4 149.0 105.3 149.0L105.3 149.0Q106.9 149.0 108.2 149.8Q109.5 150.5 110.2 151.8L110.2 151.8L110.2 151.8L110.2 144.9Q110.2 144.1 110.6 143.7Q111.1 143.2 111.8 143.2L111.8 143.2Q112.5 143.2 112.9 143.7Q113.4 144.2 113.4 144.9L113.4 144.9L113.4 163.4Q113.4 164.1 113.0 164.5Q112.5 164.9 111.8 164.9L111.8 164.9Q111.1 164.9 110.7 164.5Q110.2 164.1 110.2 163.4L110.2 163.4L110.2 161.9L110.2 161.9Q109.6 163.3 108.3 164.1Q107.1 164.9 105.3 164.9ZM106.2 162.2L106.2 162.2Q108.0 162.2 109.1 160.8Q110.2 159.4 110.2 157.0L110.2 157.0Q110.2 154.6 109.1 153.1Q108.0 151.7 106.2 151.7L106.2 151.7Q104.3 151.7 103.2 153.1Q102.1 154.5 102.1 157.0L102.1 157.0Q102.1 159.4 103.2 160.8Q104.3 162.2 106.2 162.2ZM121.1 164.9L121.1 164.9Q118.9 164.9 117.4 163.6Q116.0 162.3 116.0 160.3L116.0 160.3Q116.0 158.3 117.5 157.1Q119.0 155.9 121.7 155.7L121.7 155.7L126.0 155.5L126.0 154.3Q126.0 153.0 125.1 152.3Q124.3 151.6 122.9 151.6L122.9 151.6Q121.7 151.6 120.9 152.0Q120.1 152.5 119.5 153.5L119.5 153.5Q119.0 154.2 118.2 154.2L118.2 154.2Q117.6 154.2 117.2 153.8Q116.8 153.4 116.8 152.9L116.8 152.9Q116.8 152.3 117.1 151.8L117.1 151.8Q117.7 150.5 119.3 149.8Q120.9 149.0 123.0 149.0L123.0 149.0Q125.8 149.0 127.4 150.4Q129.1 151.7 129.1 154.0L129.1 154.0L129.1 163.3Q129.1 164.1 128.7 164.5Q128.3 164.9 127.6 164.9L127.6 164.9Q126.9 164.9 126.5 164.5Q126.1 164.1 126.1 163.4L126.1 163.4L126.1 162.1L126.0 162.1Q125.3 163.4 124.0 164.2Q122.7 164.9 121.1 164.9ZM122.0 162.4L122.0 162.4Q123.7 162.4 124.8 161.4Q126.0 160.4 126.0 158.9L126.0 158.9L126.0 157.7L122.1 157.9Q120.7 158.0 120.0 158.6Q119.2 159.2 119.2 160.2L119.2 160.2Q119.2 161.2 120.0 161.8Q120.7 162.4 122.0 162.4ZM134.1 170.4L134.1 170.4Q133.0 170.4 132.4 170.0Q131.8 169.6 131.8 168.9L131.8 168.9Q131.8 168.4 132.1 168.1Q132.5 167.8 133.0 167.8L133.0 167.8Q133.2 167.8 133.4 167.8Q133.7 167.8 133.9 167.8L133.9 167.8Q135.4 167.8 136.2 165.7L136.2 165.7L136.5 164.8L131.3 151.3Q131.2 150.9 131.2 150.4L131.2 150.4Q131.2 149.8 131.6 149.4Q132.1 149.0 132.8 149.0L132.8 149.0Q133.4 149.0 133.7 149.3Q134.1 149.5 134.3 150.2L134.3 150.2L138.2 161.8L138.3 161.8L142.2 150.2Q142.4 149.5 142.8 149.3Q143.1 149.0 143.7 149.0L143.7 149.0Q144.4 149.0 144.8 149.4Q145.2 149.8 145.2 150.4L145.2 150.4Q145.2 150.8 145.1 151.3L145.1 151.3L139.7 165.4Q138.7 168.2 137.5 169.3Q136.2 170.4 134.1 170.4ZM149.7 161.1L149.7 161.1Q150.4 161.1 150.8 161.5Q151.2 161.8 151.2 162.4L151.2 162.4Q151.2 162.8 151.1 163.3L151.1 163.3L149.8 168.3Q149.5 169.4 148.5 169.4L148.5 169.4Q147.9 169.4 147.6 169.1Q147.2 168.7 147.2 168.2L147.2 168.2Q147.2 168.1 147.3 167.8L147.3 167.8L148.2 162.4Q148.4 161.1 149.7 161.1Z M174.6 164.7L162.9 164.7Q162.2 164.7 161.7 164.3Q161.3 163.9 161.3 163.3L161.3 163.3Q161.3 162.8 161.5 162.5Q161.7 162.1 162.2 161.6L162.2 161.6L168.8 154.9Q170.9 152.8 171.6 151.7Q172.3 150.6 172.3 149.3L172.3 149.3Q172.3 147.8 171.2 146.8Q170.2 145.8 168.6 145.8L168.6 145.8Q165.5 145.8 164.4 149.0L164.4 149.0Q164.1 149.5 163.8 149.8Q163.4 150.0 162.9 150.0L162.9 150.0Q162.2 150.0 161.8 149.6Q161.4 149.3 161.4 148.6L161.4 148.6Q161.4 148.3 161.5 148.0L161.5 148.0Q161.7 147.1 162.2 146.3Q162.8 145.4 163.6 144.7Q164.5 144.0 165.8 143.6Q167.1 143.1 168.6 143.1L168.6 143.1Q171.6 143.1 173.6 144.8Q175.5 146.5 175.5 149.1L175.5 149.1Q175.5 150.9 174.5 152.5Q173.5 154.0 170.8 156.8L170.8 156.8L165.8 161.8L165.8 161.9L174.6 161.9Q175.2 161.9 175.6 162.3Q176.0 162.7 176.0 163.3L176.0 163.3Q176.0 163.9 175.6 164.3Q175.2 164.7 174.6 164.7L174.6 164.7ZM191.9 164.7L180.3 164.7Q179.5 164.7 179.1 164.3Q178.7 163.9 178.7 163.3L178.7 163.3Q178.7 162.8 178.9 162.5Q179.1 162.1 179.6 161.6L179.6 161.6L186.2 154.9Q188.3 152.8 189.0 151.7Q189.6 150.6 189.6 149.3L189.6 149.3Q189.6 147.8 188.6 146.8Q187.6 145.8 186.0 145.8L186.0 145.8Q182.8 145.8 181.7 149.0L181.7 149.0Q181.5 149.5 181.2 149.8Q180.8 150.0 180.2 150.0L180.2 150.0Q179.6 150.0 179.2 149.6Q178.8 149.3 178.8 148.6L178.8 148.6Q178.8 148.3 178.9 148.0L178.9 148.0Q179.1 147.1 179.6 146.3Q180.2 145.4 181.0 144.7Q181.9 144.0 183.2 143.6Q184.5 143.1 186.0 143.1L186.0 143.1Q189.0 143.1 191.0 144.8Q192.9 146.5 192.9 149.1L192.9 149.1Q192.9 150.9 191.9 152.5Q190.9 154.0 188.2 156.8L188.2 156.8L183.2 161.8L183.2 161.9L191.9 161.9Q192.6 161.9 193.0 162.3Q193.4 162.7 193.4 163.3L193.4 163.3Q193.4 163.9 193.0 164.3Q192.6 164.7 191.9 164.7L191.9 164.7Z M207.5 165.0L207.5 165.0Q205.4 165.0 203.8 164.0Q202.1 163.0 201.5 161.3L201.5 161.3Q201.2 160.4 201.2 159.8L201.2 159.8Q201.2 159.0 201.6 158.6Q202.0 158.1 202.7 158.1L202.7 158.1Q203.9 158.1 204.3 159.5L204.3 159.5Q204.7 160.8 205.5 161.4Q206.3 162.1 207.5 162.1L207.5 162.1Q209.1 162.1 210.0 161.1Q210.8 160.2 210.8 158.4L210.8 158.4L210.8 145.0Q210.8 144.2 211.3 143.7Q211.7 143.3 212.5 143.3Q213.2 143.3 213.7 143.7Q214.1 144.2 214.1 145.0L214.1 145.0L214.1 158.4Q214.1 161.5 212.4 163.3Q210.6 165.0 207.5 165.0ZM222.2 164.9L222.2 164.9Q219.9 164.9 218.5 163.6Q217.0 162.3 217.0 160.3L217.0 160.3Q217.0 158.3 218.5 157.1Q220.0 155.9 222.8 155.7L222.8 155.7L227.0 155.5L227.0 154.3Q227.0 153.0 226.2 152.3Q225.4 151.6 223.9 151.6L223.9 151.6Q222.8 151.6 222.0 152.0Q221.2 152.5 220.5 153.5L220.5 153.5Q220.0 154.2 219.2 154.2L219.2 154.2Q218.6 154.2 218.2 153.8Q217.8 153.4 217.8 152.9L217.8 152.9Q217.8 152.3 218.1 151.8L218.1 151.8Q218.7 150.5 220.3 149.8Q221.9 149.0 224.0 149.0L224.0 149.0Q226.8 149.0 228.5 150.4Q230.2 151.7 230.2 154.0L230.2 154.0L230.2 163.3Q230.2 164.1 229.7 164.5Q229.3 164.9 228.6 164.9L228.6 164.9Q228.0 164.9 227.6 164.5Q227.1 164.1 227.1 163.4L227.1 163.4L227.1 162.1L227.0 162.1Q226.4 163.4 225.0 164.2Q223.7 164.9 222.2 164.9ZM223.0 162.4L223.0 162.4Q224.7 162.4 225.9 161.4Q227.0 160.4 227.0 158.9L227.0 158.9L227.0 157.7L223.2 157.9Q221.8 158.0 221.0 158.6Q220.2 159.2 220.2 160.2L220.2 160.2Q220.2 161.2 221.0 161.8Q221.8 162.4 223.0 162.4ZM234.8 164.9L234.8 164.9Q234.1 164.9 233.6 164.5Q233.2 164.0 233.2 163.3L233.2 163.3L233.2 150.6Q233.2 149.8 233.6 149.4Q234.0 149.0 234.7 149.0Q235.4 149.0 235.8 149.4Q236.3 149.9 236.3 150.6L236.3 150.6L236.3 151.8L236.3 151.8Q237.7 149.0 241.2 149.0L241.2 149.0Q243.7 149.0 245.1 150.5Q246.5 152.0 246.5 154.7L246.5 154.7L246.5 163.3Q246.5 164.0 246.1 164.5Q245.6 164.9 244.9 164.9L244.9 164.9Q244.2 164.9 243.8 164.5Q243.3 164.0 243.3 163.3L243.3 163.3L243.3 155.3Q243.3 153.5 242.5 152.6Q241.7 151.7 240.0 151.7L240.0 151.7Q238.4 151.7 237.4 152.8Q236.4 153.9 236.4 155.7L236.4 155.7L236.4 163.3Q236.4 164.0 235.9 164.5Q235.5 164.9 234.8 164.9ZM254.9 164.9L254.9 164.9Q252.4 164.9 250.9 163.4Q249.5 161.9 249.5 159.2L249.5 159.2L249.5 150.7Q249.5 149.9 249.9 149.4Q250.3 149.0 251.1 149.0L251.1 149.0Q251.8 149.0 252.2 149.4Q252.6 149.9 252.6 150.7L252.6 150.7L252.6 158.6Q252.6 160.4 253.5 161.3Q254.3 162.2 255.9 162.2L255.9 162.2Q257.6 162.2 258.6 161.1Q259.6 160.0 259.6 158.2L259.6 158.2L259.6 150.7Q259.6 149.9 260.0 149.4Q260.5 149.0 261.2 149.0L261.2 149.0Q261.9 149.0 262.3 149.4Q262.8 149.9 262.8 150.7L262.8 150.7L262.8 163.3Q262.8 164.1 262.3 164.5Q261.9 164.9 261.3 164.9Q260.6 164.9 260.1 164.5Q259.7 164.1 259.7 163.3L259.7 163.3L259.7 162.1L259.7 162.1Q258.3 164.9 254.9 164.9ZM270.4 164.9L270.4 164.9Q268.1 164.9 266.7 163.6Q265.2 162.3 265.2 160.3L265.2 160.3Q265.2 158.3 266.7 157.1Q268.2 155.9 271.0 155.7L271.0 155.7L275.2 155.5L275.2 154.3Q275.2 153.0 274.4 152.3Q273.6 151.6 272.1 151.6L272.1 151.6Q271.0 151.6 270.2 152.0Q269.4 152.5 268.7 153.5L268.7 153.5Q268.2 154.2 267.4 154.2L267.4 154.2Q266.8 154.2 266.4 153.8Q266.1 153.4 266.1 152.9L266.1 152.9Q266.1 152.3 266.3 151.8L266.3 151.8Q266.9 150.5 268.5 149.8Q270.2 149.0 272.2 149.0L272.2 149.0Q275.0 149.0 276.7 150.4Q278.4 151.7 278.4 154.0L278.4 154.0L278.4 163.3Q278.4 164.1 277.9 164.5Q277.5 164.9 276.8 164.9L276.8 164.9Q276.2 164.9 275.8 164.5Q275.3 164.1 275.3 163.4L275.3 163.4L275.3 162.1L275.3 162.1Q274.6 163.4 273.3 164.2Q271.9 164.9 270.4 164.9ZM271.3 162.4L271.3 162.4Q272.9 162.4 274.1 161.4Q275.2 160.4 275.2 158.9L275.2 158.9L275.2 157.7L271.4 157.9Q270.0 158.0 269.2 158.6Q268.4 159.2 268.4 160.2L268.4 160.2Q268.4 161.2 269.2 161.8Q270.0 162.4 271.3 162.4ZM283.0 164.9L283.0 164.9Q282.3 164.9 281.9 164.5Q281.4 164.0 281.4 163.3L281.4 163.3L281.4 150.6Q281.4 149.9 281.8 149.4Q282.3 149.0 282.9 149.0L282.9 149.0Q283.6 149.0 284.0 149.4Q284.4 149.9 284.4 150.6L284.4 150.6L284.4 151.9L284.5 151.9Q284.8 150.6 285.8 149.8Q286.7 149.0 287.9 149.0L287.9 149.0Q288.7 149.0 289.1 149.4L289.1 149.4Q289.6 149.7 289.6 150.5L289.6 150.5Q289.6 151.2 289.1 151.6L289.1 151.6Q288.6 152.0 287.6 152.0L287.6 152.0Q286.1 152.0 285.3 153.0Q284.6 153.9 284.6 155.4L284.6 155.4L284.6 163.3Q284.6 164.0 284.1 164.5Q283.7 164.9 283.0 164.9ZM293.2 170.4L293.2 170.4Q292.1 170.4 291.5 170.0Q290.9 169.6 290.9 168.9L290.9 168.9Q290.9 168.4 291.2 168.1Q291.6 167.8 292.1 167.8L292.1 167.8Q292.3 167.8 292.5 167.8Q292.8 167.8 292.9 167.8L292.9 167.8Q294.5 167.8 295.3 165.7L295.3 165.7L295.6 164.8L290.4 151.3Q290.3 150.9 290.3 150.4L290.3 150.4Q290.3 149.8 290.7 149.4Q291.2 149.0 291.9 149.0L291.9 149.0Q292.5 149.0 292.8 149.3Q293.2 149.5 293.4 150.2L293.4 150.2L297.3 161.8L297.4 161.8L301.3 150.2Q301.5 149.5 301.8 149.3Q302.2 149.0 302.8 149.0L302.8 149.0Q303.5 149.0 303.9 149.4Q304.3 149.8 304.3 150.4L304.3 150.4Q304.3 150.8 304.2 151.3L304.2 151.3L298.8 165.4Q297.8 168.2 296.6 169.3Q295.3 170.4 293.2 170.4Z M325.8 164.7L314.1 164.7Q313.4 164.7 313.0 164.3Q312.5 163.9 312.5 163.3L312.5 163.3Q312.5 162.8 312.7 162.5Q312.9 162.1 313.5 161.6L313.5 161.6L320.1 154.9Q322.1 152.8 322.8 151.7Q323.5 150.6 323.5 149.3L323.5 149.3Q323.5 147.8 322.5 146.8Q321.4 145.8 319.8 145.8L319.8 145.8Q316.7 145.8 315.6 149.0L315.6 149.0Q315.3 149.5 315.0 149.8Q314.7 150.0 314.1 150.0L314.1 150.0Q313.4 150.0 313.0 149.6Q312.6 149.3 312.6 148.6L312.6 148.6Q312.6 148.3 312.7 148.0L312.7 148.0Q312.9 147.1 313.4 146.3Q314.0 145.4 314.9 144.7Q315.7 144.0 317.0 143.6Q318.3 143.1 319.8 143.1L319.8 143.1Q322.9 143.1 324.8 144.8Q326.7 146.5 326.7 149.1L326.7 149.1Q326.7 150.9 325.7 152.5Q324.8 154.0 322.0 156.8L322.0 156.8L317.0 161.8L317.0 161.9L325.8 161.9Q326.4 161.9 326.8 162.3Q327.2 162.7 327.2 163.3L327.2 163.3Q327.2 163.9 326.8 164.3Q326.4 164.7 325.8 164.7L325.8 164.7ZM343.6 162.1Q341.5 165.1 337.7 165.1Q333.9 165.1 331.8 162.1Q329.6 159.2 329.6 154.1L329.6 154.1Q329.6 149.0 331.8 146.1Q333.9 143.1 337.7 143.1L337.7 143.1Q341.5 143.1 343.6 146.1Q345.8 149.0 345.8 154.1L345.8 154.1Q345.8 159.1 343.6 162.1ZM337.7 162.3L337.7 162.3Q340.0 162.3 341.2 160.1Q342.5 157.9 342.5 154.1L342.5 154.1Q342.5 150.3 341.2 148.1Q340.0 145.9 337.7 145.9Q335.5 145.9 334.2 148.1Q332.9 150.3 332.9 154.1L332.9 154.1Q332.9 157.9 334.2 160.1Q335.4 162.3 337.7 162.3ZM361.9 164.7L350.2 164.7Q349.5 164.7 349.1 164.3Q348.6 163.9 348.6 163.3L348.6 163.3Q348.6 162.8 348.8 162.5Q349.0 162.1 349.6 161.6L349.6 161.6L356.2 154.9Q358.2 152.8 358.9 151.7Q359.6 150.6 359.6 149.3L359.6 149.3Q359.6 147.8 358.5 146.8Q357.5 145.8 355.9 145.8L355.9 145.8Q352.8 145.8 351.7 149.0L351.7 149.0Q351.4 149.5 351.1 149.8Q350.8 150.0 350.2 150.0L350.2 150.0Q349.5 150.0 349.1 149.6Q348.7 149.3 348.7 148.6L348.7 148.6Q348.7 148.3 348.8 148.0L348.8 148.0Q349.0 147.1 349.5 146.3Q350.1 145.4 351.0 144.7Q351.8 144.0 353.1 143.6Q354.4 143.1 355.9 143.1L355.9 143.1Q359.0 143.1 360.9 144.8Q362.8 146.5 362.8 149.1L362.8 149.1Q362.8 150.9 361.8 152.5Q360.9 154.0 358.1 156.8L358.1 156.8L353.1 161.8L353.1 161.9L361.9 161.9Q362.5 161.9 362.9 162.3Q363.3 162.7 363.3 163.3L363.3 163.3Q363.3 163.9 362.9 164.3Q362.5 164.7 361.9 164.7L361.9 164.7ZM377.7 164.9L377.7 164.9Q377.0 164.9 376.6 164.5Q376.1 164.0 376.1 163.3L376.1 163.3L376.1 160.5L367.4 160.5Q366.5 160.5 366.0 160.0Q365.5 159.4 365.5 158.6L365.5 158.6Q365.5 157.6 366.2 156.3L366.2 156.3Q368.1 153.0 373.1 145.7L373.1 145.7Q374.0 144.3 374.8 143.8Q375.5 143.2 376.6 143.2L376.6 143.2Q377.9 143.2 378.6 143.9Q379.3 144.5 379.3 145.7L379.3 145.7L379.3 157.7L380.9 157.7Q381.6 157.7 382.0 158.1Q382.4 158.5 382.4 159.1Q382.4 159.7 382.0 160.1Q381.6 160.5 380.9 160.5L380.9 160.5L379.3 160.5L379.3 163.3Q379.3 164.0 378.8 164.5Q378.4 164.9 377.7 164.9ZM368.6 157.8L376.2 157.8L376.2 146.1L376.1 146.1Q370.7 153.9 368.6 157.7L368.6 157.7L368.6 157.8Z "/><mask id="satori_om-id-0-0-1"><rect x="40" y="217" width="1120" height="83" fill="#fff"/></mask><path fill="#224d67" d="M45.6 280.1L45.6 280.1Q43.8 280.1 42.8 279.1Q41.8 278.2 41.8 276.6L41.8 276.6Q41.8 275.6 42.3 274.3L42.3 274.3L54.5 240.9Q55.3 238.8 56.6 237.8Q58.0 236.8 60.0 236.8L60.0 236.8Q62.1 236.8 63.4 237.8Q64.8 238.7 65.5 240.9L65.5 240.9L77.9 274.3Q78.3 275.7 78.3 276.6L78.3 276.6Q78.3 278.1 77.3 279.1Q76.2 280.1 74.6 280.1L74.6 280.1Q73.0 280.1 72.1 279.3Q71.2 278.6 70.7 276.9L70.7 276.9L67.9 268.8L52.1 268.8L49.3 276.8Q48.8 278.6 47.9 279.3Q47.0 280.1 45.6 280.1ZM59.9 244.8L53.9 262.8L66.1 262.8L60.1 244.8L59.9 244.8Z M101.4 289.6Q100.4 290.6 98.7 290.6Q97.1 290.6 96.1 289.6Q95.1 288.6 95.1 286.8L95.1 286.8L95.1 251.7Q95.1 249.9 96.1 248.9Q97.1 247.9 98.7 247.9L98.7 247.9Q100.3 247.9 101.2 248.9Q102.2 249.9 102.2 251.7L102.2 251.7L102.2 253.9L102.4 253.9Q103.7 251.1 106.3 249.6Q108.8 248.0 112.2 248.0L112.2 248.0Q118.1 248.0 121.6 252.3Q125.0 256.6 125.0 264.1L125.0 264.1Q125.0 271.5 121.6 275.8Q118.1 280.1 112.3 280.1L112.3 280.1Q108.9 280.1 106.4 278.6Q103.8 277.1 102.5 274.4L102.5 274.4L102.4 274.4L102.4 286.8Q102.4 288.6 101.4 289.6ZM109.9 274.1L109.9 274.1Q113.5 274.1 115.5 271.4Q117.6 268.7 117.6 264.1L117.6 264.1Q117.6 259.5 115.5 256.7Q113.4 254.0 109.9 254.0L109.9 254.0Q106.5 254.0 104.5 256.8Q102.4 259.5 102.3 264.1L102.3 264.1Q102.4 268.6 104.5 271.4Q106.5 274.1 109.9 274.1ZM154.4 275.9Q150.4 280.2 143.5 280.2Q136.6 280.2 132.5 275.9Q128.4 271.6 128.4 264.1L128.4 264.1Q128.4 256.6 132.5 252.2Q136.7 247.9 143.5 247.9L143.5 247.9Q150.3 247.9 154.4 252.2Q158.5 256.6 158.5 264.1L158.5 264.1Q158.5 271.6 154.4 275.9ZM137.9 271.7Q140.0 274.4 143.5 274.4Q147.0 274.4 149.0 271.7Q151.1 269.0 151.1 264.1L151.1 264.1Q151.1 259.2 149.0 256.4Q147.0 253.7 143.5 253.7L143.5 253.7Q140.0 253.7 137.9 256.4Q135.9 259.2 135.9 264.1L135.9 264.1Q135.9 269.0 137.9 271.7ZM175.2 280.2L175.2 280.2Q170.3 280.2 167.0 278.5Q163.7 276.8 162.5 274.0L162.5 274.0Q162.2 273.2 162.2 272.5L162.2 272.5Q162.2 271.2 163.1 270.4Q163.9 269.6 165.3 269.6L165.3 269.6Q167.1 269.6 168.4 271.4L168.4 271.4Q169.7 273.3 171.3 274.1Q172.9 274.9 175.4 274.9L175.4 274.9Q178.0 274.9 179.6 273.9Q181.1 272.8 181.1 271.1L181.1 271.1Q181.1 269.7 180.1 268.8Q179.1 268.0 176.7 267.4L176.7 267.4L171.7 266.3Q162.6 264.3 162.6 257.4L162.6 257.4Q162.6 253.1 166.1 250.5Q169.6 247.9 175.3 247.9L175.3 247.9Q179.7 247.9 182.9 249.8Q186.1 251.6 186.9 254.4L186.9 254.4Q187.0 255.0 187.0 255.5L187.0 255.5Q187.0 256.6 186.3 257.4Q185.5 258.1 184.2 258.1L184.2 258.1Q182.4 258.1 181.4 256.7L181.4 256.7Q180.3 255.0 178.8 254.1Q177.3 253.2 175.1 253.2L175.1 253.2Q172.7 253.2 171.2 254.3Q169.7 255.3 169.7 257.0L169.7 257.0Q169.7 259.8 174.3 260.8L174.3 260.8L179.2 261.9Q184.2 263.0 186.3 264.9Q188.4 266.9 188.4 270.3L188.4 270.3Q188.4 274.8 184.8 277.5Q181.1 280.2 175.2 280.2ZM195.0 271.9L195.0 271.9L195.0 254.1L193.1 254.1Q191.7 254.1 190.9 253.4Q190.1 252.6 190.1 251.3L190.1 251.3Q190.1 250.0 190.9 249.3Q191.7 248.5 193.1 248.5L193.1 248.5L195.0 248.5L195.0 244.4Q195.0 242.6 196.0 241.6Q197.0 240.6 198.7 240.6L198.7 240.6Q200.4 240.6 201.4 241.6Q202.3 242.6 202.3 244.4L202.3 244.4L202.3 248.5L205.7 248.5Q207.1 248.5 207.9 249.3Q208.6 250.0 208.6 251.3L208.6 251.3Q208.6 252.6 207.8 253.4Q207.1 254.1 205.7 254.1L205.7 254.1L202.3 254.1L202.3 270.3Q202.3 272.1 203.0 272.9Q203.7 273.7 205.3 273.9L205.3 273.9L205.8 273.9Q208.7 274.2 208.7 276.6L208.7 276.6Q208.7 278.2 207.4 279.1Q206.0 279.9 203.5 279.9L203.5 279.9L203.2 279.9Q195.0 279.9 195.0 271.9Z M249.9 275.9Q245.8 280.2 238.9 280.2Q232.0 280.2 227.9 275.9Q223.9 271.6 223.9 264.1L223.9 264.1Q223.9 256.6 228.0 252.2Q232.1 247.9 238.9 247.9L238.9 247.9Q245.8 247.9 249.8 252.2Q253.9 256.6 253.9 264.1L253.9 264.1Q253.9 271.6 249.9 275.9ZM233.3 271.7Q235.4 274.4 238.9 274.4Q242.4 274.4 244.5 271.7Q246.5 269.0 246.5 264.1L246.5 264.1Q246.5 259.2 244.5 256.4Q242.4 253.7 238.9 253.7L238.9 253.7Q235.4 253.7 233.3 256.4Q231.3 259.2 231.3 264.1L231.3 264.1Q231.3 269.0 233.3 271.7ZM266.9 279.2Q266.0 280.2 264.3 280.2Q262.6 280.2 261.6 279.2Q260.6 278.2 260.6 276.4L260.6 276.4L260.6 254.1L258.7 254.1Q257.4 254.1 256.7 253.4Q255.9 252.7 255.9 251.4L255.9 251.4Q255.9 250.1 256.7 249.4Q257.4 248.6 258.7 248.6L258.7 248.6L260.6 248.6L260.6 245.9Q260.6 237.0 269.2 237.0L269.2 237.0Q272.0 237.0 273.4 237.8Q274.8 238.6 274.8 240.0L274.8 240.0Q274.8 241.7 273.2 242.1L273.2 242.1Q272.5 242.3 271.6 242.3L271.6 242.3Q269.6 242.4 268.7 243.3Q267.8 244.2 267.8 246.2L267.8 246.2L267.8 248.6L271.7 248.6Q273.0 248.6 273.7 249.4Q274.5 250.1 274.5 251.4L274.5 251.4Q274.5 252.7 273.7 253.4Q273.0 254.1 271.7 254.1L271.7 254.1L267.9 254.1L267.9 276.4Q267.9 278.2 266.9 279.2Z M297.5 279.1Q296.6 280.1 295.0 280.1Q293.4 280.1 292.5 279.1Q291.6 278.2 291.6 276.5L291.6 276.5L291.6 241.6Q291.6 239.4 292.9 238.1Q294.2 236.8 296.4 236.8L296.4 236.8Q298.4 236.8 299.6 237.7Q300.8 238.6 301.7 240.7L301.7 240.7L313.3 269.2L313.5 269.2L325.1 240.7Q326.0 238.7 327.2 237.7Q328.4 236.8 330.4 236.8L330.4 236.8Q332.6 236.8 333.9 238.1Q335.2 239.4 335.2 241.6L335.2 241.6L335.2 276.5Q335.2 278.2 334.3 279.1Q333.4 280.1 331.8 280.1Q330.2 280.1 329.3 279.1Q328.4 278.2 328.4 276.5L328.4 276.5L328.4 249.6L328.2 249.6L317.0 276.8Q315.9 279.3 313.4 279.3L313.4 279.3Q310.8 279.3 309.8 276.8L309.8 276.8L298.6 249.6L298.4 249.6L298.4 276.5Q298.4 278.2 297.5 279.1ZM351.0 280.1L351.0 280.1Q346.5 280.1 343.6 277.5Q340.7 274.9 340.7 270.7L340.7 270.7Q340.7 266.6 343.7 264.2Q346.8 261.8 352.5 261.4L352.5 261.4L360.7 260.9L360.7 258.7Q360.7 256.3 359.2 254.9Q357.6 253.6 354.9 253.6L354.9 253.6Q352.7 253.6 351.3 254.4Q349.8 255.2 348.4 257.2L348.4 257.2Q347.3 258.7 345.4 258.7L345.4 258.7Q344.1 258.7 343.2 257.9Q342.4 257.1 342.4 255.8L342.4 255.8Q342.4 254.8 342.9 253.8L342.9 253.8Q344.0 251.1 347.4 249.5Q350.8 247.9 355.2 247.9L355.2 247.9Q361.0 247.9 364.4 250.7Q367.9 253.5 367.9 258.2L367.9 258.2L367.9 276.5Q367.9 278.2 366.9 279.2Q366.0 280.2 364.4 280.2L364.4 280.2Q362.9 280.2 361.9 279.3Q361.0 278.4 360.9 276.8L360.9 276.8L360.9 274.6L360.7 274.6Q359.4 277.1 356.8 278.6Q354.1 280.1 351.0 280.1ZM353.3 274.6L353.3 274.6Q356.4 274.6 358.5 272.7Q360.7 270.8 360.7 268.1L360.7 268.1L360.7 265.7L353.5 266.1Q350.9 266.3 349.4 267.4Q348.0 268.6 348.0 270.4L348.0 270.4Q348.0 272.3 349.4 273.4Q350.9 274.6 353.3 274.6ZM380.1 279.1Q379.1 280.2 377.4 280.2Q375.7 280.2 374.8 279.1Q373.8 278.1 373.8 276.3L373.8 276.3L373.8 251.6Q373.8 249.9 374.7 248.9Q375.7 247.9 377.3 247.9L377.3 247.9Q378.8 247.9 379.8 248.9Q380.7 249.9 380.7 251.6L380.7 251.6L380.7 254.0L380.9 254.0Q381.5 251.3 383.3 249.6Q385.2 248.0 387.5 248.0L387.5 248.0Q389.2 248.0 390.1 248.8L390.1 248.8Q391.1 249.6 391.1 251.4L391.1 251.4Q391.1 253.1 390.0 254.0L390.0 254.0Q389.0 254.9 386.8 255.0L386.8 255.0Q381.1 255.0 381.1 261.4L381.1 261.4L381.1 276.3Q381.1 278.1 380.1 279.1ZM400.9 279.2Q399.9 280.2 398.3 280.2Q396.6 280.2 395.6 279.2Q394.6 278.1 394.6 276.3L394.6 276.3L394.6 240.6Q394.6 238.7 395.6 237.7Q396.6 236.7 398.3 236.7Q399.9 236.7 400.9 237.7Q401.9 238.7 401.9 240.6L401.9 240.6L401.9 261.4L402.0 261.4L414.2 249.3Q415.5 247.9 417.0 247.9L417.0 247.9Q418.4 247.9 419.3 248.8Q420.2 249.7 420.2 251.0L420.2 251.0Q420.2 252.5 418.9 253.7L418.9 253.7L410.0 262.1L419.8 274.3Q420.8 275.7 420.8 276.9L420.8 276.9Q420.8 278.3 419.8 279.3Q418.8 280.2 417.3 280.2L417.3 280.2Q416.2 280.2 415.5 279.7Q414.8 279.3 414.0 278.1L414.0 278.1L404.7 266.3L401.9 268.9L401.9 276.3Q401.9 278.1 400.9 279.2ZM437.1 280.1L437.1 280.1Q431.2 280.1 427.7 275.7Q424.2 271.4 424.2 264.0L424.2 264.0Q424.2 256.7 427.7 252.3Q431.2 248.0 437.1 248.0L437.1 248.0Q440.4 248.0 442.9 249.5Q445.5 251.1 446.7 253.7L446.7 253.7L446.9 253.7L446.9 240.6Q446.9 238.7 447.9 237.7Q448.9 236.7 450.5 236.7Q452.2 236.7 453.2 237.7Q454.2 238.7 454.2 240.6L454.2 240.6L454.2 276.5Q454.2 278.2 453.2 279.2Q452.2 280.2 450.6 280.2L450.6 280.2Q449.0 280.2 447.9 279.2Q446.9 278.2 446.9 276.5L446.9 276.5L446.9 274.1L446.8 274.1Q445.6 276.9 443.1 278.5Q440.6 280.1 437.1 280.1ZM439.3 274.1L439.3 274.1Q442.8 274.1 444.9 271.4Q446.9 268.7 446.9 264.1L446.9 264.1Q446.9 259.5 444.9 256.7Q442.8 254.0 439.3 254.0L439.3 254.0Q435.8 254.0 433.8 256.7Q431.7 259.4 431.7 264.1L431.7 264.1Q431.7 268.7 433.7 271.4Q435.8 274.1 439.3 274.1ZM485.0 275.9Q480.9 280.2 474.1 280.2Q467.2 280.2 463.1 275.9Q459.0 271.6 459.0 264.1L459.0 264.1Q459.0 256.6 463.1 252.2Q467.2 247.9 474.1 247.9L474.1 247.9Q480.9 247.9 485.0 252.2Q489.1 256.6 489.1 264.1L489.1 264.1Q489.1 271.6 485.0 275.9ZM468.5 271.7Q470.5 274.4 474.1 274.4Q477.6 274.4 479.6 271.7Q481.7 269.0 481.7 264.1L481.7 264.1Q481.7 259.2 479.6 256.4Q477.6 253.7 474.1 253.7L474.1 253.7Q470.6 253.7 468.5 256.4Q466.4 259.2 466.4 264.1L466.4 264.1Q466.4 269.0 468.5 271.7ZM503.6 280.2L503.6 280.2Q501.7 280.2 500.7 279.3Q499.6 278.4 499.0 276.4L499.0 276.4L492.3 253.2Q491.9 251.9 491.9 251.0L491.9 251.0Q491.9 249.7 492.9 248.8Q493.9 247.9 495.4 247.9L495.4 247.9Q498.2 247.9 498.8 251.0L498.8 251.0L504.0 272.4L504.2 272.4L509.6 251.2Q510.3 247.9 513.7 247.9L513.7 247.9Q517.1 247.9 517.8 251.2L517.8 251.2L523.3 272.4L523.5 272.4L528.6 251.0Q529.3 247.9 532.0 247.9L532.0 247.9Q533.5 247.9 534.5 248.8Q535.4 249.6 535.4 251.0L535.4 251.0Q535.4 251.9 535.1 253.2L535.1 253.2L528.3 276.4Q527.8 278.3 526.7 279.3Q525.6 280.2 523.7 280.2L523.7 280.2Q521.8 280.2 520.6 279.3Q519.5 278.4 519.0 276.4L519.0 276.4L513.7 256.9L513.6 256.9L508.2 276.4Q507.3 280.2 503.6 280.2ZM545.8 279.2Q544.8 280.2 543.2 280.2Q541.5 280.2 540.5 279.2Q539.5 278.1 539.5 276.3L539.5 276.3L539.5 251.6Q539.5 249.9 540.5 248.9Q541.4 247.9 543.0 247.9Q544.6 247.9 545.6 248.9Q546.6 249.9 546.6 251.6L546.6 251.6L546.6 253.8L546.8 253.8Q549.4 247.9 556.4 247.9L556.4 247.9Q561.5 247.9 564.4 251.0Q567.2 254.1 567.2 259.5L567.2 259.5L567.2 276.3Q567.2 278.1 566.2 279.2Q565.2 280.2 563.6 280.2Q561.9 280.2 560.9 279.2Q559.9 278.1 559.9 276.3L559.9 276.3L559.9 261.0Q559.9 257.6 558.3 255.9Q556.8 254.1 553.7 254.1L553.7 254.1Q550.6 254.1 548.7 256.2Q546.8 258.2 546.8 261.6L546.8 261.6L546.8 276.3Q546.8 278.1 545.8 279.2Z M598.8 280.2L598.8 280.2Q591.7 280.2 587.7 276.0Q583.8 271.7 583.8 264.2L583.8 264.2Q583.8 256.7 587.7 252.3Q591.7 247.9 598.4 247.9L598.4 247.9Q604.8 247.9 608.8 251.9Q612.7 256.0 612.7 262.4L612.7 262.4Q612.7 264.0 611.8 264.9Q610.9 265.8 609.3 265.8L609.3 265.8L591.0 265.8L591.0 266.0Q591.0 269.9 593.1 272.3Q595.2 274.6 598.8 274.6L598.8 274.6Q601.2 274.6 603.0 273.6Q604.8 272.7 606.5 270.4L606.5 270.4Q607.6 269.3 609.0 269.3L609.0 269.3Q610.3 269.3 611.1 270.0Q611.9 270.8 611.9 272.1L611.9 272.1Q611.9 272.9 611.4 273.9L611.4 273.9Q609.9 276.9 606.6 278.5Q603.3 280.2 598.8 280.2ZM591.1 261.0L591.1 261.0L605.6 261.0Q605.5 257.6 603.5 255.6Q601.5 253.5 598.5 253.5Q595.4 253.5 593.3 255.6Q591.3 257.7 591.1 261.0ZM623.9 279.2Q622.9 280.2 621.3 280.2Q619.6 280.2 618.6 279.2Q617.6 278.1 617.6 276.3L617.6 276.3L617.6 240.6Q617.6 238.7 618.6 237.7Q619.6 236.7 621.3 236.7Q622.9 236.7 623.9 237.7Q624.9 238.7 624.9 240.6L624.9 240.6L624.9 276.3Q624.9 278.1 623.9 279.2ZM644.9 280.2L644.9 280.2Q637.8 280.2 633.8 276.0Q629.8 271.7 629.8 264.2L629.8 264.2Q629.8 256.7 633.8 252.3Q637.8 247.9 644.5 247.9L644.5 247.9Q650.9 247.9 654.8 251.9Q658.8 256.0 658.8 262.4L658.8 262.4Q658.8 264.0 657.9 264.9Q657.0 265.8 655.4 265.8L655.4 265.8L637.1 265.8L637.1 266.0Q637.1 269.9 639.2 272.3Q641.3 274.6 644.9 274.6L644.9 274.6Q647.3 274.6 649.1 273.6Q650.9 272.7 652.6 270.4L652.6 270.4Q653.7 269.3 655.1 269.3L655.1 269.3Q656.3 269.3 657.2 270.0Q658.0 270.8 658.0 272.1L658.0 272.1Q658.0 272.9 657.5 273.9L657.5 273.9Q656.0 276.9 652.7 278.5Q649.3 280.2 644.9 280.2ZM637.2 261.0L637.2 261.0L651.7 261.0Q651.5 257.6 649.6 255.6Q647.6 253.5 644.5 253.5Q641.5 253.5 639.4 255.6Q637.4 257.7 637.2 261.0ZM667.1 280.2L667.1 280.2Q665.5 280.2 664.5 279.2Q663.5 278.1 663.5 276.3L663.5 276.3L663.5 251.6Q663.5 249.9 664.4 248.9Q665.4 247.9 667.0 247.9Q668.6 247.9 669.5 248.9Q670.5 249.9 670.5 251.6L670.5 251.6L670.5 253.9L670.6 253.9Q671.7 251.2 674.0 249.5Q676.4 247.9 679.5 247.9L679.5 247.9Q682.8 247.9 685.0 249.6Q687.3 251.2 688.2 254.2L688.2 254.2L688.3 254.2Q689.5 251.3 692.0 249.6Q694.6 247.9 698.0 247.9L698.0 247.9Q702.6 247.9 705.4 250.8Q708.1 253.6 708.1 258.3L708.1 258.3L708.1 276.3Q708.1 278.1 707.1 279.1Q706.2 280.2 704.5 280.2L704.5 280.2Q702.8 280.2 701.8 279.1Q700.8 278.1 700.8 276.3L700.8 276.3L700.8 260.1Q700.8 257.2 699.4 255.6Q697.9 254.1 695.3 254.1L695.3 254.1Q692.6 254.1 691.0 255.8Q689.4 257.6 689.4 260.4L689.4 260.4L689.4 276.3Q689.4 278.1 688.4 279.2Q687.5 280.2 685.8 280.2L685.8 280.2Q684.2 280.2 683.2 279.2Q682.3 278.1 682.3 276.3L682.3 276.3L682.3 259.7Q682.3 257.1 680.8 255.6Q679.3 254.1 676.8 254.1L676.8 254.1Q674.1 254.1 672.5 255.9Q670.8 257.8 670.8 260.6L670.8 260.6L670.8 276.3Q670.8 278.1 669.8 279.1Q668.8 280.2 667.1 280.2ZM727.8 280.2L727.8 280.2Q720.7 280.2 716.7 276.0Q712.7 271.7 712.7 264.2L712.7 264.2Q712.7 256.7 716.7 252.3Q720.7 247.9 727.4 247.9L727.4 247.9Q733.7 247.9 737.7 251.9Q741.7 256.0 741.7 262.4L741.7 262.4Q741.7 264.0 740.8 264.9Q739.9 265.8 738.3 265.8L738.3 265.8L720.0 265.8L720.0 266.0Q720.0 269.9 722.1 272.3Q724.2 274.6 727.7 274.6L727.7 274.6Q730.2 274.6 731.9 273.6Q733.7 272.7 735.5 270.4L735.5 270.4Q736.5 269.3 737.9 269.3L737.9 269.3Q739.2 269.3 740.0 270.0Q740.9 270.8 740.9 272.1L740.9 272.1Q740.9 272.9 740.4 273.9L740.4 273.9Q738.8 276.9 735.5 278.5Q732.2 280.2 727.8 280.2ZM720.0 261.0L720.0 261.0L734.5 261.0Q734.4 257.6 732.4 255.6Q730.5 253.5 727.4 253.5Q724.3 253.5 722.3 255.6Q720.2 257.7 720.0 261.0ZM752.6 279.2Q751.6 280.2 750.0 280.2Q748.3 280.2 747.3 279.2Q746.3 278.1 746.3 276.3L746.3 276.3L746.3 251.6Q746.3 249.9 747.3 248.9Q748.2 247.9 749.8 247.9Q751.4 247.9 752.4 248.9Q753.4 249.9 753.4 251.6L753.4 251.6L753.4 253.8L753.6 253.8Q756.2 247.9 763.3 247.9L763.3 247.9Q768.3 247.9 771.2 251.0Q774.0 254.1 774.0 259.5L774.0 259.5L774.0 276.3Q774.0 278.1 773.0 279.2Q772.0 280.2 770.4 280.2Q768.7 280.2 767.7 279.2Q766.7 278.1 766.7 276.3L766.7 276.3L766.7 261.0Q766.7 257.6 765.1 255.9Q763.6 254.1 760.5 254.1L760.5 254.1Q757.4 254.1 755.5 256.2Q753.6 258.2 753.6 261.6L753.6 261.6L753.6 276.3Q753.6 278.1 752.6 279.2ZM781.9 271.9L781.9 271.9L781.9 254.1L779.9 254.1Q778.5 254.1 777.8 253.4Q777.0 252.6 777.0 251.3L777.0 251.3Q777.0 250.0 777.7 249.3Q778.5 248.5 779.9 248.5L779.9 248.5L781.9 248.5L781.9 244.4Q781.9 242.6 782.8 241.6Q783.8 240.6 785.5 240.6L785.5 240.6Q787.2 240.6 788.2 241.6Q789.2 242.6 789.2 244.4L789.2 244.4L789.2 248.5L792.5 248.5Q793.9 248.5 794.7 249.3Q795.4 250.0 795.4 251.3L795.4 251.3Q795.4 252.6 794.7 253.4Q793.9 254.1 792.5 254.1L792.5 254.1L789.2 254.1L789.2 270.3Q789.2 272.1 789.8 272.9Q790.5 273.7 792.1 273.9L792.1 273.9L792.6 273.9Q795.5 274.2 795.5 276.6L795.5 276.6Q795.5 278.2 794.2 279.1Q792.8 279.9 790.3 279.9L790.3 279.9L790.0 279.9Q781.9 279.9 781.9 271.9ZM811.9 280.2L811.9 280.2Q807.1 280.2 803.8 278.5Q800.4 276.8 799.3 274.0L799.3 274.0Q799.0 273.2 799.0 272.5L799.0 272.5Q799.0 271.2 799.8 270.4Q800.7 269.6 802.0 269.6L802.0 269.6Q803.9 269.6 805.2 271.4L805.2 271.4Q806.5 273.3 808.1 274.1Q809.7 274.9 812.2 274.9L812.2 274.9Q814.8 274.9 816.3 273.9Q817.9 272.8 817.9 271.1L817.9 271.1Q817.9 269.7 816.9 268.8Q815.9 268.0 813.5 267.4L813.5 267.4L808.5 266.3Q799.4 264.3 799.4 257.4L799.4 257.4Q799.4 253.1 802.9 250.5Q806.3 247.9 812.1 247.9L812.1 247.9Q816.5 247.9 819.7 249.8Q822.9 251.6 823.6 254.4L823.6 254.4Q823.8 255.0 823.8 255.5L823.8 255.5Q823.8 256.6 823.0 257.4Q822.3 258.1 821.0 258.1L821.0 258.1Q819.1 258.1 818.2 256.7L818.2 256.7Q817.0 255.0 815.6 254.1Q814.1 253.2 811.9 253.2L811.9 253.2Q809.5 253.2 808.0 254.3Q806.5 255.3 806.5 257.0L806.5 257.0Q806.5 259.8 811.1 260.8L811.1 260.8L816.0 261.9Q820.9 263.0 823.1 264.9Q825.2 266.9 825.2 270.3L825.2 270.3Q825.2 274.8 821.5 277.5Q817.9 280.2 811.9 280.2Z "/><defs><clipPath id="satori_bc-id-0-1"><rect x="0" y="441" width="1200" height="189"/></clipPath></defs><mask id="satori_om-id-0-1"><rect x="0" y="442" width="1200" height="188" fill="#fff"/><path width="1200" height="189" fill="none" stroke="#000" stroke-width="2" d="M0,441 A0,0 0 0 1 0,441 h1200 A0,0 0 0 1 1200,441"/></mask><path width="1200" height="189" clip-path="url(#satori_bc-id-0-1)" fill="none" stroke="#dbdbdb" stroke-width="2" d="M0,441 A0,0 0 0 1 0,441 h1200 A0,0 0 0 1 1200,441"/><mask id="satori_om-id-0-1-0"><rect x="40" y="482" width="209" height="108" fill="#fff"/></mask><clipPath id="satori_cp-id-0-1-0-0"><rect x="40" y="504" width="64" height="64"/></clipPath><mask id="satori_om-id-0-1-0-0"><rect x="40" y="504" width="64" height="64" fill="#fff"/></mask><image x="40" y="504" width="64" height="64" href="data:image/svg+xml;utf8,%3Csvg  xmlns=%22http://www.w3.org/2000/svg%22 width=%2264%22 height=%2264%22 viewBox=%220 0 128 128%22%3E%3Cpath fill=%22%23224d67%22 d=%22M22.5 14.8c2.9 1.3 99 44 99 44c2.7 1.2 2.9 3.1 2 12.4c-1 10.5-1.9 37.8-40.2 42.9c-24.6 3.2-55.9-4.3-70.9-27.2C-6 58.8 11 23.4 14.8 17.7c2.4-3.5 4.8-4.2 7.7-2.9%22%3E%3C/path%3E%3Cpath fill=%22%23f0f4c3%22 d=%22M121.5 58.8c-.3-.2-92-40.8-98.9-43.9C9.6 31.5-3.8 76 27.9 96.2c33.6 21.5 78.7-10.2 93.6-37.4%22%3E%3C/path%3E%3Cpath fill=%22%23f0f4c3%22 d=%22M117.7 57c-.3-.2-86.7-38.4-93.2-41.3c-12.2 15.5-23.9 59.1 5.7 78c31.4 20.2 73.6-11.2 87.5-36.7%22%3E%3C/path%3E%3Cpath fill=%22%23cb2a42%22 d=%22M56.2 37.6L19.5 48.2c-2.5.8-4.4 2.8-5 5.3c-1.9 8.5.8 23.3 8.9 29.8c3.5 2.7 8.6 1.8 10.8-2.1L58.5 41c1.3-1.7.5-4.2-2.3-3.4m14.3 2.9s14.6 30.1 16 33s6.3 4.7 9.9 2.8c10.7-5.6 15.5-12.4 19.2-20.2c-8.9-3.9-42.4-18.8-42.4-18.8c-2.4-1.1-4 .6-2.7 3.2m-8.6 1.9C60.3 45.1 39.5 81 37.6 84.1c-1.9 3.2-.7 7.5 2.7 9.2c12.3 6.5 30.9.4 39.6-7c2.2-1.9 4.5-5.1 3.2-8.2S68.9 44.6 67.8 42.3c-1.2-2.7-4.1-2.8-5.9.1%22%3E%3C/path%3E%3Cpath fill=%22%23f0f4c3%22 d=%22M52.2 42.2c-1.4.4-10.1 3-11.1 3.4c-1.4.5-2.2 1.7-1.9 2.5c.3.9 1.7 1.1 3.1.6c.8-.3 7.1-3.9 9.5-5.2c-3.1 2.4-10.2 9.4-11.1 10.3c-1.4 1.5-1.7 3.4-.8 4.3c1 .9 2.9.5 4.3-1c1.2-1.3 8.5-12.8 9.1-13.9s.4-1.4-1.1-1m10.1 16.4c0-2.2 1.4-10.3 1.8-12.3c.4-1.6 1.5-1.8 1.8.5s1.7 9.7 1.7 11.8s-1.2 3.3-2.7 3.3c-1.4 0-2.6-1.1-2.6-3.3M79.9 49c-1.2-1.8-3.3-4.9-4.1-6.1c-.7-1.2.1-2.1 1.8-.9s4 2.9 5.4 4c1.6 1.3 1.9 3 .8 4s-2.7.8-3.9-1%22%3E%3C/path%3E%3Cellipse cx=%2287.3%22 cy=%22103.12%22 fill=%22%23cb2a42%22 rx=%223.4%22 ry=%222.3%22 transform=%22rotate(-27.098 87.298 103.126)%22%3E%3C/ellipse%3E%3Cellipse cx=%2298.89%22 cy=%22103.82%22 fill=%22%23cb2a42%22 rx=%223.4%22 ry=%222.3%22 transform=%22rotate(-30.642 98.887 103.818)%22%3E%3C/ellipse%3E%3Cellipse cx=%22102.02%22 cy=%2293.8%22 fill=%22%23cb2a42%22 rx=%223.4%22 ry=%222.3%22 transform=%22rotate(-37.16 102.017 93.797)%22%3E%3C/ellipse%3E%3Cpath fill=%22%23cb2a42%22 d=%22M57.6 30.3c-8.3-3.7-24.4-10.7-29.6-13c-3.6 2.2-9.7 11.4-11.2 21.2c-.6 3.6 1.7 5.9 5.3 4.9c0 0 33.7-9.3 35.3-9.7c1.6-.5 2-2.6.2-3.4%22%3E%3C/path%3E%3C/svg%3E" preserveAspectRatio="none" clip-path="url(#satori_cp-id-0-1-0-0)" mask="url(#satori_om-id-0-1-0-0)"/><mask id="satori_om-id-0-1-0-0-0"><rect x="40" y="504" width="0" height="64" fill="#fff"/></mask><mask id="satori_om-id-0-1-0-0-1"><rect x="40" y="504" width="0" height="64" fill="#fff"/></mask><mask id="satori_om-id-0-1-0-0-2"><rect x="40" y="504" width="0" height="64" fill="#fff"/></mask><mask id="satori_om-id-0-1-0-0-3"><rect x="40" y="504" width="0" height="64" fill="#fff"/></mask><mask id="satori_om-id-0-1-0-0-4"><rect x="40" y="504" width="0" height="64" fill="#fff"/></mask><mask id="satori_om-id-0-1-0-0-5"><rect x="40" y="504" width="0" height="64" fill="#fff"/></mask><mask id="satori_om-id-0-1-0-0-6"><rect x="40" y="504" width="0" height="64" fill="#fff"/></mask><mask id="satori_om-id-0-1-0-0-7"><rect x="40" y="504" width="0" height="64" fill="#fff"/></mask><mask id="satori_om-id-0-1-0-0-8"><rect x="40" y="504" width="0" height="64" fill="#fff"/></mask><mask id="satori_om-id-0-1-0-1"><rect x="116" y="512" width="133" height="48" fill="#fff"/></mask><path fill="#545454" d="M133.9 553.6L133.9 553.6Q126.4 553.6 122.1 549.0Q117.8 544.3 117.8 536.1L117.8 536.1Q117.8 528.0 122.1 523.3Q126.4 518.7 133.7 518.7L133.7 518.7Q138.4 518.7 142.0 520.7Q145.5 522.7 147.2 526.3L147.2 526.3Q147.9 527.7 147.9 529.0L147.9 529.0Q147.9 530.4 147.1 531.2Q146.2 532.0 144.8 532.0L144.8 532.0Q143.6 532.0 142.8 531.5Q142.0 530.9 141.5 529.7L141.5 529.7Q140.3 527.1 138.3 525.8Q136.3 524.5 133.8 524.5L133.8 524.5Q129.8 524.5 127.4 527.7Q125.0 530.8 125.0 536.1L125.0 536.1Q125.0 541.5 127.3 544.7Q129.7 547.8 133.8 547.8L133.8 547.8Q139.3 547.8 141.5 542.8L141.5 542.8Q142.1 541.6 142.8 541.1Q143.5 540.5 144.7 540.5L144.7 540.5Q146.2 540.5 147.1 541.4Q148.0 542.3 148.0 543.7L148.0 543.7Q148.0 544.8 147.4 546.1L147.4 546.1Q145.8 549.6 142.3 551.6Q138.7 553.6 133.9 553.6ZM158.6 523.8Q157.5 524.8 156.0 524.8Q154.4 524.8 153.4 523.8Q152.3 522.8 152.3 521.3L152.3 521.3Q152.3 519.8 153.4 518.8Q154.4 517.7 156.0 517.7Q157.5 517.7 158.6 518.8Q159.6 519.8 159.6 521.3L159.6 521.3Q159.6 522.8 158.6 523.8ZM158.5 552.6Q157.6 553.6 156.0 553.6Q154.4 553.6 153.5 552.6Q152.5 551.7 152.5 550.0L152.5 550.0L152.5 531.0Q152.5 529.3 153.5 528.4Q154.4 527.4 156.0 527.4Q157.6 527.4 158.5 528.4Q159.4 529.3 159.4 531.0L159.4 531.0L159.4 550.0Q159.4 551.7 158.5 552.6ZM165.8 546.6L165.8 546.6L165.8 533.1L164.4 533.1Q163.2 533.1 162.5 532.4Q161.8 531.7 161.8 530.5Q161.8 529.3 162.5 528.6Q163.2 527.9 164.4 527.9L164.4 527.9L165.8 527.9L165.8 525.1Q165.8 523.5 166.7 522.5Q167.6 521.6 169.2 521.6Q170.8 521.6 171.7 522.5Q172.6 523.5 172.6 525.1L172.6 525.1L172.6 527.9L175.0 527.9Q176.2 527.9 176.9 528.6Q177.6 529.3 177.6 530.5Q177.6 531.7 176.9 532.4Q176.2 533.1 175.0 533.1L175.0 533.1L172.6 533.1L172.6 545.1Q172.6 546.5 173.1 547.1Q173.6 547.7 174.7 547.8L174.7 547.8L175.1 547.8Q176.4 548.0 177.1 548.5Q177.7 549.1 177.7 550.3L177.7 550.3Q177.7 551.8 176.4 552.6Q175.1 553.3 172.9 553.3L172.9 553.3L172.6 553.3Q165.8 553.3 165.8 546.6ZM184.4 553.6L184.4 553.6Q182.8 553.6 181.9 552.6Q181.0 551.7 181.0 550.0L181.0 550.0L181.0 530.9Q181.0 529.3 181.9 528.3Q182.8 527.4 184.3 527.4L184.3 527.4Q185.8 527.4 186.6 528.3Q187.5 529.3 187.5 530.9L187.5 530.9L187.5 532.5L187.7 532.5Q188.2 530.2 189.6 528.9Q191 527.5 192.9 527.5L192.9 527.5Q194.3 527.5 195.0 528.2L195.0 528.2Q196.0 528.9 196.0 530.7L196.0 530.7Q196.0 532.3 195.0 533.2L195.0 533.2Q194.0 534.0 192.1 534.1L192.1 534.1Q189.8 534.1 188.8 535.3Q187.8 536.5 187.8 538.8L187.8 538.8L187.8 550.0Q187.8 551.7 186.9 552.6Q186.0 553.6 184.4 553.6ZM207.4 553.5L207.4 553.5Q203.3 553.5 200.8 551.0Q198.3 548.5 198.3 544.1L198.3 544.1L198.3 531.0Q198.3 529.3 199.3 528.4Q200.2 527.4 201.8 527.4Q203.3 527.4 204.2 528.4Q205.2 529.3 205.2 531.0L205.2 531.0L205.2 542.7Q205.2 545.2 206.4 546.5Q207.6 547.8 209.9 547.8Q212.1 547.8 213.5 546.3Q214.8 544.8 214.8 542.3L214.8 542.3L214.8 531.0Q214.8 529.3 215.8 528.4Q216.7 527.4 218.2 527.4Q219.8 527.4 220.7 528.4Q221.7 529.3 221.7 531.0L221.7 531.0L221.7 550.1Q221.7 551.8 220.8 552.7Q219.9 553.6 218.4 553.6Q216.8 553.6 215.9 552.7Q215.0 551.8 215.0 550.1L215.0 550.1L215.0 548.5L214.9 548.5Q212.9 553.5 207.4 553.5ZM236.4 553.6L236.4 553.6Q232.1 553.6 229.3 552.2Q226.5 550.9 225.5 548.6L225.5 548.6Q225.3 547.9 225.3 547.3L225.3 547.3Q225.3 546.1 226.1 545.4Q226.9 544.7 228.1 544.7L228.1 544.7Q229.6 544.7 231.0 546.2L231.0 546.2Q232.1 547.6 233.3 548.2Q234.6 548.8 236.5 548.8L236.5 548.8Q238.4 548.8 239.5 548.1Q240.6 547.3 240.6 546.1L240.6 546.1Q240.6 545.1 239.9 544.5Q239.1 543.9 237.3 543.5L237.3 543.5L233.1 542.6Q229.4 541.8 227.5 539.9Q225.7 538.1 225.7 535.3L225.7 535.3Q225.7 531.7 228.6 529.5Q231.5 527.4 236.3 527.4L236.3 527.4Q240.1 527.4 242.8 528.9Q245.5 530.4 246.2 532.6L246.2 532.6Q246.3 533.2 246.3 533.6L246.3 533.6Q246.3 534.7 245.7 535.3Q245 536.0 243.7 536.0L243.7 536.0Q242.1 536.0 241.2 534.9L241.2 534.9Q240.2 533.6 239.1 532.9Q237.9 532.2 236.2 532.2L236.2 532.2Q234.5 532.2 233.4 533.0Q232.3 533.7 232.3 534.9L232.3 534.9Q232.3 535.9 233.1 536.6Q233.9 537.2 235.8 537.6L235.8 537.6L239.9 538.5Q243.9 539.4 245.7 541.0Q247.5 542.6 247.5 545.4L247.5 545.4Q247.5 549.1 244.4 551.4Q241.3 553.6 236.4 553.6Z "/><mask id="satori_om-id-0-1-1"><rect x="951" y="524" width="209" height="36" fill="#fff"/></mask><path fill="#8e8e8e" d="M954.9 552.6Q954.5 552.9 954.0 552.9Q953.4 552.9 953.1 552.6Q952.8 552.2 952.8 551.7L952.8 551.7L952.8 532.6Q952.8 532.0 953.1 531.6Q953.5 531.3 954.1 531.3Q954.6 531.3 955.0 531.6Q955.3 532.0 955.3 532.6L955.3 532.6L955.3 540.0L955.4 540.0Q956.1 538.7 957.4 537.9Q958.7 537.2 960.3 537.2L960.3 537.2Q963.2 537.2 964.9 539.3Q966.7 541.5 966.7 545.0L966.7 545.0Q966.7 548.6 964.9 550.8Q963.2 552.9 960.2 552.9L960.2 552.9Q958.6 552.9 957.3 552.2Q956.0 551.4 955.3 550.1L955.3 550.1L955.2 550.1L955.2 551.7Q955.2 552.2 954.9 552.6ZM959.7 550.7L959.7 550.7Q961.8 550.7 962.9 549.2Q964.1 547.7 964.1 545.0L964.1 545.0Q964.1 542.5 962.9 540.9Q961.8 539.4 959.7 539.4L959.7 539.4Q957.8 539.4 956.6 541.0Q955.3 542.5 955.3 545.0L955.3 545.0Q955.3 547.6 956.6 549.1Q957.8 550.7 959.7 550.7ZM970.8 558.4L970.8 558.4Q969.9 558.4 969.4 558.0Q968.9 557.7 968.9 557.1L968.9 557.1Q968.9 556.7 969.1 556.4Q969.4 556.2 969.9 556.2L969.9 556.2Q970.1 556.2 970.3 556.2Q970.5 556.2 970.7 556.2L970.7 556.2Q972.4 556.2 973.2 553.7L973.2 553.7L973.6 552.7L968.3 539.0Q968.2 538.6 968.2 538.3L968.2 538.3Q968.2 537.8 968.6 537.5Q968.9 537.2 969.5 537.2L969.5 537.2Q970.4 537.2 970.7 538.1L970.7 538.1L974.9 550.1L975.0 550.1L979.2 538.1Q979.3 537.6 979.6 537.4Q979.9 537.2 980.4 537.2L980.4 537.2Q980.9 537.2 981.3 537.5Q981.6 537.8 981.6 538.3L981.6 538.3Q981.6 538.6 981.5 539.0L981.5 539.0L975.9 553.7Q974.9 556.4 973.8 557.4Q972.7 558.4 970.8 558.4Z M990.5 552.9L990.5 552.9Q989.9 552.9 989.5 552.5Q989.2 552.2 989.2 551.7L989.2 551.7Q989.2 551.4 989.3 551.0L989.3 551.0L996.1 532.6Q996.6 531.3 997.8 531.3L997.8 531.3Q999.0 531.3 999.5 532.6L999.5 532.6L1006.3 551.0Q1006.5 551.4 1006.5 551.7L1006.5 551.7Q1006.5 552.2 1006.1 552.5Q1005.7 552.9 1005.2 552.9L1005.2 552.9Q1004.2 552.9 1003.9 551.9L1003.9 551.9L1002.0 546.6L993.6 546.6L991.8 551.9Q991.4 552.9 990.5 552.9ZM997.8 534.7L994.4 544.4L1001.2 544.4L997.9 534.7L997.8 534.7ZM1011.1 552.5Q1010.8 552.9 1010.2 552.9Q1009.7 552.9 1009.3 552.5Q1008.9 552.2 1008.9 551.6L1008.9 551.6L1008.9 538.5Q1008.9 537.9 1009.3 537.5Q1009.6 537.2 1010.1 537.2Q1010.7 537.2 1011 537.5Q1011.3 537.9 1011.3 538.5L1011.3 538.5L1011.3 539.9L1011.4 539.9Q1011.7 538.7 1012.7 537.9Q1013.7 537.2 1014.9 537.2L1014.9 537.2Q1015.7 537.2 1016.1 537.5L1016.1 537.5Q1016.4 537.8 1016.4 538.4L1016.4 538.4Q1016.4 539.0 1016.0 539.3L1016.0 539.3Q1015.6 539.6 1014.8 539.6L1014.8 539.6Q1013.1 539.6 1012.3 540.6Q1011.5 541.6 1011.5 543.2L1011.5 543.2L1011.5 551.6Q1011.5 552.2 1011.1 552.5ZM1019.0 549.1L1019.0 549.1L1019.0 539.5L1017.7 539.5Q1017.2 539.5 1016.9 539.3Q1016.6 539.0 1016.6 538.5L1016.6 538.5Q1016.6 538.0 1016.9 537.7Q1017.2 537.4 1017.7 537.4L1017.7 537.4L1019.0 537.4L1019.0 534.8Q1019.0 534.2 1019.4 533.8Q1019.7 533.5 1020.3 533.5Q1020.8 533.5 1021.2 533.8Q1021.5 534.2 1021.5 534.8L1021.5 534.8L1021.5 537.4L1023.5 537.4Q1024.1 537.4 1024.4 537.7Q1024.7 538.0 1024.7 538.5L1024.7 538.5Q1024.7 539.0 1024.4 539.3Q1024.1 539.5 1023.5 539.5L1023.5 539.5L1021.5 539.5L1021.5 548.6Q1021.5 549.6 1021.9 550.0Q1022.3 550.5 1023.3 550.6L1023.3 550.6L1023.5 550.6Q1024.7 550.7 1024.7 551.6L1024.7 551.6Q1024.7 552.2 1024.3 552.5Q1023.9 552.8 1022.9 552.8L1022.9 552.8L1022.7 552.8Q1019.0 552.8 1019.0 549.1ZM1033.6 552.9L1033.6 552.9Q1030.2 552.9 1028.4 550.9Q1026.5 548.8 1026.5 545.1L1026.5 545.1Q1026.5 541.5 1028.4 539.3Q1030.2 537.2 1033.4 537.2L1033.4 537.2Q1036.3 537.2 1038.2 539.1Q1040.0 541.1 1040.0 544.3L1040.0 544.3Q1040.0 544.9 1039.6 545.3Q1039.3 545.7 1038.6 545.7L1038.6 545.7L1029.1 545.7Q1029.1 548.0 1030.3 549.4Q1031.5 550.7 1033.5 550.7L1033.5 550.7Q1034.9 550.7 1035.8 550.2Q1036.7 549.6 1037.6 548.3L1037.6 548.3Q1038.0 547.8 1038.6 547.8L1038.6 547.8Q1039.1 547.8 1039.4 548.1Q1039.7 548.4 1039.7 548.9L1039.7 548.9Q1039.7 549.2 1039.5 549.7L1039.5 549.7Q1038.8 551.2 1037.2 552.1Q1035.7 552.9 1033.6 552.9ZM1029.1 543.7L1029.1 543.7L1037.4 543.7Q1037.3 541.8 1036.2 540.6Q1035.1 539.4 1033.3 539.4L1033.3 539.4Q1031.6 539.4 1030.4 540.6Q1029.2 541.8 1029.1 543.7ZM1044.8 552.5Q1044.4 552.9 1043.9 552.9Q1043.3 552.9 1042.9 552.5Q1042.6 552.2 1042.6 551.6L1042.6 551.6L1042.6 538.5Q1042.6 537.9 1042.9 537.5Q1043.3 537.2 1043.8 537.2Q1044.3 537.2 1044.6 537.5Q1045.0 537.9 1045.0 538.5L1045.0 538.5L1045.0 539.9L1045.0 539.9Q1045.6 538.6 1046.7 537.9Q1047.9 537.2 1049.4 537.2L1049.4 537.2Q1050.9 537.2 1052.0 537.9Q1053.1 538.7 1053.6 540.1L1053.6 540.1L1053.7 540.1Q1054.3 538.7 1055.6 537.9Q1056.9 537.2 1058.5 537.2L1058.5 537.2Q1060.7 537.2 1062.1 538.5Q1063.4 539.9 1063.4 542.1L1063.4 542.1L1063.4 551.6Q1063.4 552.2 1063.1 552.5Q1062.7 552.9 1062.2 552.9Q1061.6 552.9 1061.2 552.5Q1060.9 552.2 1060.9 551.6L1060.9 551.6L1060.9 542.7Q1060.9 541.2 1060.1 540.3Q1059.2 539.4 1057.7 539.4Q1056.2 539.4 1055.3 540.4Q1054.3 541.4 1054.3 543.0L1054.3 543.0L1054.3 551.6Q1054.3 552.2 1053.9 552.5Q1053.6 552.9 1053.0 552.9Q1052.4 552.9 1052.1 552.5Q1051.7 552.2 1051.7 551.6L1051.7 551.6L1051.7 542.5Q1051.7 541.1 1050.9 540.2Q1050.0 539.4 1048.6 539.4L1048.6 539.4Q1047.1 539.4 1046.1 540.5Q1045.1 541.5 1045.1 543.1L1045.1 543.1L1045.1 551.6Q1045.1 552.2 1044.8 552.5Z M1075.5 552.5Q1075.1 552.9 1074.5 552.9Q1073.9 552.9 1073.6 552.5Q1073.2 552.1 1073.2 551.5L1073.2 551.5L1073.2 532.7Q1073.2 532.1 1073.6 531.7Q1073.9 531.3 1074.5 531.3Q1075.1 531.3 1075.5 531.7Q1075.9 532.1 1075.9 532.7L1075.9 532.7L1075.9 541.8L1076.0 541.8L1085.4 531.8Q1085.9 531.3 1086.5 531.3L1086.5 531.3Q1087.0 531.3 1087.3 531.7Q1087.7 532.0 1087.7 532.5L1087.7 532.5Q1087.7 533.0 1087.3 533.3L1087.3 533.3L1080.1 540.9L1088.2 550.6Q1088.5 551.1 1088.5 551.6L1088.5 551.6Q1088.5 552.2 1088.2 552.5Q1087.8 552.9 1087.3 552.9L1087.3 552.9Q1086.6 552.9 1086.1 552.2L1086.1 552.2L1078.2 542.8L1075.9 545.3L1075.9 551.5Q1075.9 552.1 1075.5 552.5ZM1096.5 552.9L1096.5 552.9Q1094.0 552.9 1092.6 551.4Q1091.2 549.9 1091.2 547.3L1091.2 547.3L1091.2 538.5Q1091.2 537.9 1091.6 537.5Q1091.9 537.2 1092.5 537.2Q1093.0 537.2 1093.4 537.5Q1093.8 537.9 1093.8 538.5L1093.8 538.5L1093.8 546.9Q1093.8 550.7 1097.3 550.7L1097.3 550.7Q1099.1 550.7 1100.2 549.5Q1101.2 548.3 1101.2 546.4L1101.2 546.4L1101.2 538.5Q1101.2 537.9 1101.6 537.5Q1102.0 537.2 1102.5 537.2Q1103.1 537.2 1103.4 537.5Q1103.8 537.9 1103.8 538.5L1103.8 538.5L1103.8 551.6Q1103.8 552.2 1103.5 552.6Q1103.1 552.9 1102.6 552.9Q1102.1 552.9 1101.7 552.6Q1101.4 552.2 1101.4 551.6L1101.4 551.6L1101.4 550.2L1101.3 550.2Q1099.9 552.9 1096.5 552.9ZM1107.9 549.1L1107.9 549.1L1107.9 539.5L1106.6 539.5Q1106.1 539.5 1105.8 539.3Q1105.5 539.0 1105.5 538.5L1105.5 538.5Q1105.5 538.0 1105.8 537.7Q1106.1 537.4 1106.6 537.4L1106.6 537.4L1107.9 537.4L1107.9 534.8Q1107.9 534.2 1108.3 533.8Q1108.6 533.5 1109.2 533.5Q1109.7 533.5 1110.1 533.8Q1110.5 534.2 1110.5 534.8L1110.5 534.8L1110.5 537.4L1112.4 537.4Q1113.0 537.4 1113.3 537.7Q1113.6 538.0 1113.6 538.5L1113.6 538.5Q1113.6 539.0 1113.3 539.3Q1113.0 539.5 1112.4 539.5L1112.4 539.5L1110.5 539.5L1110.5 548.6Q1110.5 549.6 1110.9 550.0Q1111.3 550.5 1112.2 550.6L1112.2 550.6L1112.4 550.6Q1113.6 550.7 1113.6 551.6L1113.6 551.6Q1113.6 552.2 1113.2 552.5Q1112.8 552.8 1111.8 552.8L1111.8 552.8L1111.6 552.8Q1107.9 552.8 1107.9 549.1ZM1121.4 552.9L1121.4 552.9Q1119.4 552.9 1117.9 552.1Q1116.4 551.2 1115.9 549.8L1115.9 549.8Q1115.7 549.5 1115.7 549.2L1115.7 549.2Q1115.7 548.7 1116.1 548.4Q1116.4 548.2 1116.9 548.2L1116.9 548.2Q1117.6 548.2 1118.0 548.9L1118.0 548.9Q1118.6 550.0 1119.4 550.4Q1120.2 550.8 1121.6 550.8L1121.6 550.8Q1123.1 550.8 1124.0 550.2Q1124.9 549.6 1124.9 548.6L1124.9 548.6Q1124.9 547.7 1124.4 547.3Q1123.8 546.8 1122.5 546.5L1122.5 546.5L1120.2 545.9Q1115.9 544.8 1115.9 541.6L1115.9 541.6Q1115.9 539.6 1117.5 538.4Q1119.0 537.2 1121.6 537.2L1121.6 537.2Q1123.5 537.2 1125.0 538.1Q1126.5 539.0 1126.8 540.4L1126.8 540.4Q1126.8 540.6 1126.8 540.8L1126.8 540.8Q1126.8 541.2 1126.5 541.5Q1126.3 541.8 1125.8 541.8L1125.8 541.8Q1125.0 541.8 1124.7 541.1L1124.7 541.1Q1124.2 540.1 1123.4 539.7Q1122.7 539.3 1121.5 539.3L1121.5 539.3Q1120.1 539.3 1119.2 539.9Q1118.4 540.5 1118.4 541.5L1118.4 541.5Q1118.4 543.1 1120.9 543.7L1120.9 543.7L1123.1 544.2Q1125.5 544.8 1126.5 545.8Q1127.5 546.7 1127.5 548.4L1127.5 548.4Q1127.5 550.4 1125.8 551.7Q1124.1 552.9 1121.4 552.9ZM1134.5 552.9L1134.5 552.9Q1132.3 552.9 1130.9 551.7Q1129.5 550.4 1129.5 548.4L1129.5 548.4Q1129.5 546.4 1130.9 545.2Q1132.3 544.1 1135.0 543.9L1135.0 543.9L1139.4 543.7L1139.4 542.4Q1139.4 541.0 1138.5 540.2Q1137.6 539.4 1136.0 539.4L1136.0 539.4Q1134.8 539.4 1133.9 539.9Q1133.0 540.4 1132.4 541.5L1132.4 541.5Q1132.1 542.1 1131.3 542.1L1131.3 542.1Q1130.8 542.1 1130.5 541.8Q1130.2 541.5 1130.2 541.0Q1130.2 540.5 1130.5 539.9L1130.5 539.9Q1131.2 538.7 1132.7 537.9Q1134.2 537.2 1136.1 537.2L1136.1 537.2Q1138.8 537.2 1140.3 538.5Q1141.9 539.9 1141.9 542.1L1141.9 542.1L1141.9 551.6Q1141.9 552.2 1141.6 552.6Q1141.2 552.9 1140.7 552.9L1140.7 552.9Q1140.2 552.9 1139.8 552.6Q1139.5 552.2 1139.5 551.6L1139.5 551.6L1139.5 550.0L1139.4 550.0Q1138.8 551.3 1137.4 552.1Q1136.1 552.9 1134.5 552.9ZM1135.1 550.8L1135.1 550.8Q1136.9 550.8 1138.1 549.6Q1139.4 548.5 1139.4 546.9L1139.4 546.9L1139.4 545.6L1135.3 545.9Q1133.7 546.0 1132.9 546.6Q1132.1 547.3 1132.1 548.4Q1132.1 549.4 1132.9 550.1Q1133.7 550.8 1135.1 550.8ZM1147.3 552.5Q1147.0 552.9 1146.4 552.9Q1145.9 552.9 1145.5 552.5Q1145.2 552.2 1145.2 551.6L1145.2 551.6L1145.2 538.5Q1145.2 537.9 1145.5 537.5Q1145.8 537.2 1146.4 537.2Q1146.9 537.2 1147.2 537.5Q1147.6 537.9 1147.6 538.5L1147.6 538.5L1147.6 539.9L1147.6 539.9Q1148.3 538.6 1149.5 537.9Q1150.7 537.2 1152.4 537.2L1152.4 537.2Q1154.9 537.2 1156.3 538.7Q1157.7 540.2 1157.7 542.8L1157.7 542.8L1157.7 551.6Q1157.7 552.2 1157.4 552.5Q1157.0 552.9 1156.4 552.9Q1155.9 552.9 1155.5 552.5Q1155.2 552.2 1155.2 551.6L1155.2 551.6L1155.2 543.2Q1155.2 541.4 1154.3 540.4Q1153.4 539.4 1151.7 539.4L1151.7 539.4Q1149.9 539.4 1148.8 540.6Q1147.7 541.8 1147.7 543.7L1147.7 543.7L1147.7 551.6Q1147.7 552.2 1147.3 552.5Z "/></svg>