<svg width="1200" height="630" viewBox="0 0 1200 630" xmlns="http://www.w3.org/2000/svg"><mask id="satori_om-id"><rect x="0" y="0" width="1200" height="630" fill="#fff"/></mask><mask id="satori_om-id-0"><rect x="0" y="0" width="1200" height="630" fill="#fff"/></mask><rect x="0" y="0" width="1200" height="630" fill="#f2f2f2"/><mask id="satori_om-id-0-0"><rect x="0" y="0" width="1200" height="441" fill="#fff"/></mask><mask id="satori_om-id-0-0-0"><rect x="40" y="136" width="1120" height="36" fill="#fff"/></mask><path fill="#8e8e8e" d="M44.5 164.5Q44.1 164.9 43.4 164.9Q42.7 164.9 42.3 164.5Q41.9 164.1 41.9 163.3L41.9 163.3L41.9 145.4Q41.9 144.4 42.5 143.9Q43.1 143.3 44.1 143.3L44.1 143.3Q44.9 143.3 45.4 143.7Q46.0 144.1 46.3 145.0L46.3 145.0L52.6 160.2L52.7 160.2L58.9 145.0Q59.3 144.1 59.9 143.7Q60.4 143.3 61.3 143.3L61.3 143.3Q62.2 143.3 62.8 143.8Q63.3 144.4 63.3 145.4L63.3 145.4L63.3 163.3Q63.3 164.1 62.9 164.5Q62.5 164.9 61.8 164.9L61.8 164.9Q61.1 164.9 60.7 164.5Q60.3 164.1 60.3 163.3L60.3 163.3L60.3 149.1L60.2 149.1L54.3 163.3Q53.8 164.5 52.6 164.5L52.6 164.5Q51.4 164.5 50.9 163.3L50.9 163.3L45.0 149.1L44.9 149.1L44.9 163.3Q44.9 164.1 44.5 164.5ZM78.8 162.8Q76.8 165.0 73.5 165.0Q70.1 165.0 68.2 162.8Q66.2 160.7 66.2 157.0L66.2 157.0Q66.2 153.3 68.2 151.1Q70.1 149.0 73.5 149.0Q76.8 149.0 78.8 151.1Q80.8 153.3 80.8 157.0L80.8 157.0Q80.8 160.7 78.8 162.8ZM73.5 162.3L73.5 162.3Q75.4 162.3 76.5 160.9Q77.6 159.5 77.6 157.0L77.6 157.0Q77.6 154.4 76.5 153.0Q75.3 151.6 73.5 151.6Q71.6 151.6 70.5 153.0Q69.4 154.4 69.4 157.0L69.4 157.0Q69.4 159.5 70.5 160.9Q71.6 162.3 73.5 162.3ZM84.8 164.9L84.8 164.9Q84.1 164.9 83.7 164.5Q83.2 164.0 83.2 163.3L83.2 163.3L83.2 150.6Q83.2 149.8 83.6 149.4Q84.0 149.0 84.7 149.0Q85.4 149.0 85.8 149.4Q86.3 149.9 86.3 150.6L86.3 150.6L86.3 151.8L86.3 151.8Q87.7 149.0 91.2 149.0L91.2 149.0Q93.7 149.0 95.1 150.5Q96.5 152.0 96.5 154.7L96.5 154.7L96.5 163.3Q96.5 164.0 96.1 164.5Q95.6 164.9 94.9 164.9L94.9 164.9Q94.2 164.9 93.8 164.5Q93.3 164.0 93.3 163.3L93.3 163.3L93.3 155.3Q93.3 153.5 92.5 152.6Q91.7 151.7 90.1 151.7L90.1 151.7Q88.4 151.7 87.4 152.8Q86.4 153.9 86.4 155.7L86.4 155.7L86.4 163.3Q86.4 164.0 86.0 164.5Q85.5 164.9 84.8 164.9ZM105.3 164.9L105.3 164.9Q102.4 164.9 100.6 162.8Q98.9 160.6 98.9 157.0Q98.9 153.3 100.6 151.2Q102.4 149.0 105.3 149.0L105.3 149.0Q106.9 149.0 108.2 149.8Q109.5 150.5 110.2 151.8L110.2 151.8L110.2 151.8L110.2 144.9Q110.2 144.1 110.6 143.7Q111.1 143.2 111.8 143.2L111.8 143.2Q112.5 143.2 112.9 143.7Q113.4 144.2 113.4 144.9L113.4 144.9L113.4 163.4Q113.4 164.1 113.0 164.5Q112.5 164.9 111.8 164.9L111.8 164.9Q111.1 164.9 110.7 164.5Q110.2 164.1 110.2 163.4L110.2 163.4L110.2 161.9L110.2 161.9Q109.6 163.3 108.3 164.1Q107.1 164.9 105.3 164.9ZM106.2 162.2L106.2 162.2Q108.0 162.2 109.1 160.8Q110.2 159.4 110.2 157.0L110.2 157.0Q110.2 154.6 109.1 153.1Q108.0 151.7 106.2 151.7L106.2 151.7Q104.3 151.7 103.2 153.1Q102.1 154.5 102.1 157.0L102.1 157.0Q102.1 159.4 103.2 160.8Q104.3 162.2 106.2 162.2ZM121.1 164.9L121.1 164.9Q118.9 164.9 117.4 163.6Q116.0 162.3 116.0 160.3L116.0 160.3Q116.0 158.3 117.5 157.1Q119.0 155.9 121.7 155.7L121.7 155.7L126.0 155.5L126.0 154.3Q126.0 153.0 125.1 152.3Q124.3 151.6 122.9 151.6L122.9 151.6Q121.7 151.6 120.9 152.0Q120.1 152.5 119.5 153.5L119.5 153.5Q119.0 154.2 118.2 154.2L118.2 154.2Q117.6 154.2 117.2 153.8Q116.8 153.4 116.8 152.9L116.8 152.9Q116.8 152.3 117.1 151.8L117.1 151.8Q117.7 150.5 119.3 149.8Q120.9 149.0 123.0 149.0L123.0 149.0Q125.8 149.0 127.4 150.4Q129.1 151.7 129.1 154.0L129.1 154.0L129.1 163.3Q129.1 164.1 128.7 164.5Q128.3 164.9 127.6 164.9L127.6 164.9Q126.9 164.9 126.5 164.5Q126.1 164.1 126.1 163.4L126.1 163.4L126.1 162.1L126.0 162.1Q125.3 163.4 124.0 164.2Q122.7 164.9 121.1 164.9ZM122.0 162.4L122.0 162.4Q123.7 162.4 124.8 161.4Q126.0 160.4 126.0 158.9L126.0 158.9L126.0 157.7L122.1 157.9Q120.7 158.0 120.0 158.6Q119.2 159.2 119.2 160.2L119.2 160.2Q119.2 161.2 120.0 161.8Q120.7 162.4 122.0 162.4ZM134.1 170.4L134.1 170.4Q133.0 170.4 132.4 170.0Q131.8 169.6 131.8 168.9L131.8 168.9Q131.8 168.4 132.1 168.1Q132.5 167.8 133.0 167.8L133.0 167.8Q133.2 167.8 133.4 167.8Q133.7 167.8 133.9 167.8L133.9 167.8Q135.4 167.8 136.2 165.7L136.2 165.7L136.5 164.8L131.3 151.3Q131.2 150.9 131.2 150.4L131.2 150.4Q131.2 149.8 131.6 149.4Q132.1 149.0 132.8 149.0L132.8 149.0Q133.4 149.0 133.7 149.3Q134.1 149.5 134.3 150.2L134.3 150.2L138.2 161.8L138.3 161.8L142.2 150.2Q142.4 149.5 142.8 149.3Q143.1 149.0 143.7 149.0L143.7 149.0Q144.4 149.0 144.8 149.4Q145.2 149.8 145.2 150.4L145.2 150.4Q145.2 150.8 145.1 151.3L145.1 151.3L139.7 165.4Q138.7 168.2 137.5 169.3Q136.2 170.4 134.1 170.4ZM149.7 161.1L149.7 161.1Q150.4 161.1 150.8 161.5Q151.2 161.8 151.2 162.4L151.2 162.4Q151.2 162.8 151.1 163.3L151.1 163.3L149.8 168.3Q149.5 169.4 148.5 169.4L148.5 169.4Q147.9 169.4 147.6 169.1Q147.2 168.7 147.2 168.2L147.2 168.2Q147.2 168.1 147.3 167.8L147.3 167.8L148.2 162.4Q148.4 161.1 149.7 161.1Z M168.3 164.9L168.3 164.9Q167.6 164.9 167.2 164.5Q166.7 164.0 166.7 163.3L166.7 163.3L166.7 146.9L166.7 146.9L163.0 149.4Q162.5 149.7 162.0 149.7L162.0 149.7Q161.5 149.7 161.1 149.4Q160.8 149.0 160.8 148.5L160.8 148.5Q160.8 147.7 161.6 147.1L161.6 147.1L166.0 144.0Q166.7 143.6 167.1 143.4Q167.5 143.2 168.1 143.2L168.1 143.2Q169.0 143.2 169.4 143.7Q169.9 144.2 169.9 145.1L169.9 145.1L169.9 163.3Q169.9 164.0 169.5 164.5Q169.0 164.9 168.3 164.9ZM182.0 164.9L182.0 164.9Q181.3 164.9 180.9 164.5Q180.4 164.0 180.4 163.3L180.4 163.3L180.4 146.9L180.3 146.9L176.7 149.4Q176.2 149.7 175.7 149.7L175.7 149.7Q175.2 149.7 174.8 149.4Q174.5 149.0 174.5 148.5L174.5 148.5Q174.5 147.7 175.3 147.1L175.3 147.1L179.7 144.0Q180.3 143.6 180.8 143.4Q181.2 143.2 181.8 143.2L181.8 143.2Q182.6 143.2 183.1 143.7Q183.6 144.2 183.6 145.1L183.6 145.1L183.6 163.3Q183.6 164.0 183.2 164.5Q182.7 164.9 182.0 164.9Z M197.8 164.5Q197.4 164.9 196.7 164.9Q196.0 164.9 195.6 164.5Q195.2 164.1 195.2 163.3L195.2 163.3L195.2 145.4Q195.2 144.4 195.7 143.9Q196.3 143.3 197.3 143.3L197.3 143.3Q198.1 143.3 198.6 143.7Q199.2 144.1 199.6 145.0L199.6 145.0L205.8 160.2L205.9 160.2L212.2 145.0Q212.5 144.1 213.1 143.7Q213.6 143.3 214.5 143.3L214.5 143.3Q215.4 143.3 216.0 143.8Q216.6 144.4 216.6 145.4L216.6 145.4L216.6 163.3Q216.6 164.1 216.2 164.5Q215.8 164.9 215.1 164.9L215.1 164.9Q214.4 164.9 214.0 164.5Q213.6 164.1 213.6 163.3L213.6 163.3L213.6 149.1L213.5 149.1L207.6 163.3Q207.1 164.5 205.9 164.5L205.9 164.5Q204.7 164.5 204.2 163.3L204.2 163.3L198.3 149.1L198.2 149.1L198.2 163.3Q198.2 164.1 197.8 164.5ZM224.6 164.9L224.6 164.9Q222.3 164.9 220.9 163.6Q219.4 162.3 219.4 160.3L219.4 160.3Q219.4 158.3 220.9 157.1Q222.4 155.9 225.2 155.7L225.2 155.7L229.4 155.5L229.4 154.3Q229.4 153.0 228.6 152.3Q227.8 151.6 226.3 151.6L226.3 151.6Q225.2 151.6 224.4 152.0Q223.6 152.5 222.9 153.5L222.9 153.5Q222.4 154.2 221.6 154.2L221.6 154.2Q221.0 154.2 220.6 153.8Q220.2 153.4 220.2 152.9L220.2 152.9Q220.2 152.3 220.5 151.8L220.5 151.8Q221.1 150.5 222.7 149.8Q224.4 149.0 226.4 149.0L226.4 149.0Q229.2 149.0 230.9 150.4Q232.6 151.7 232.6 154.0L232.6 154.0L232.6 163.3Q232.6 164.1 232.1 164.5Q231.7 164.9 231.0 164.9L231.0 164.9Q230.4 164.9 230.0 164.5Q229.5 164.1 229.5 163.4L229.5 163.4L229.5 162.1L229.4 162.1Q228.8 163.4 227.4 164.2Q226.1 164.9 224.6 164.9ZM225.4 162.4L225.4 162.4Q227.1 162.4 228.3 161.4Q229.4 160.4 229.4 158.9L229.4 158.9L229.4 157.7L225.6 157.9Q224.2 158.0 223.4 158.6Q222.6 159.2 222.6 160.2L222.6 160.2Q222.6 161.2 223.4 161.8Q224.2 162.4 225.4 162.4ZM237.2 164.9L237.2 164.9Q236.5 164.9 236.0 164.5Q235.6 164.0 235.6 163.3L235.6 163.3L235.6 150.6Q235.6 149.9 236.0 149.4Q236.5 149.0 237.1 149.0L237.1 149.0Q237.8 149.0 238.2 149.4Q238.6 149.9 238.6 150.6L238.6 150.6L238.6 151.9L238.7 151.9Q239.0 150.6 240.0 149.8Q240.9 149.0 242.1 149.0L242.1 149.0Q242.9 149.0 243.3 149.4L243.3 149.4Q243.7 149.7 243.7 150.5L243.7 150.5Q243.7 151.2 243.3 151.6L243.3 151.6Q242.8 152.0 241.8 152.0L241.8 152.0Q240.3 152.0 239.5 153.0Q238.8 153.9 238.8 155.4L238.8 155.4L238.8 163.3Q238.8 164.0 238.3 164.5Q237.9 164.9 237.2 164.9ZM252.1 165.0L252.1 165.0Q248.7 165.0 246.7 162.8Q244.8 160.7 244.8 157.0L244.8 157.0Q244.8 153.3 246.7 151.2Q248.7 149.0 252.0 149.0L252.0 149.0Q254.2 149.0 256.0 150.0Q257.7 151.1 258.2 152.7L258.2 152.7Q258.4 153.1 258.4 153.4L258.4 153.4Q258.4 154.0 258.0 154.4Q257.6 154.7 257.0 154.7L257.0 154.7Q256.5 154.7 256.2 154.5Q255.9 154.3 255.6 153.8L255.6 153.8Q255.0 152.7 254.1 152.1Q253.3 151.6 252.1 151.6L252.1 151.6Q250.2 151.6 249.1 153.1Q248.0 154.5 248.0 157.0L248.0 157.0Q248.0 159.4 249.1 160.9Q250.2 162.3 252.1 162.3L252.1 162.3Q254.4 162.3 255.6 160.2L255.6 160.2Q255.9 159.6 256.2 159.4Q256.5 159.2 257.0 159.2L257.0 159.2Q257.6 159.2 258.0 159.6Q258.4 159.9 258.4 160.5L258.4 160.5Q258.4 160.9 258.2 161.3L258.2 161.3Q257.6 162.9 255.9 163.9Q254.2 165.0 252.1 165.0ZM263.8 164.5Q263.4 164.9 262.7 164.9Q262.0 164.9 261.5 164.5Q261.1 164.0 261.1 163.3L261.1 163.3L261.1 144.9Q261.1 144.1 261.5 143.7Q261.9 143.2 262.6 143.2L262.6 143.2Q263.4 143.2 263.8 143.7Q264.2 144.1 264.2 144.9L264.2 144.9L264.2 151.8L264.3 151.8Q264.9 150.5 266.2 149.7Q267.4 149.0 269.2 149.0L269.2 149.0Q271.7 149.0 273.1 150.5Q274.6 152.1 274.6 154.7L274.6 154.7L274.6 163.3Q274.6 164.0 274.1 164.5Q273.7 164.9 273.0 164.9L273.0 164.9Q272.3 164.9 271.8 164.5Q271.4 164.0 271.4 163.3L271.4 163.3L271.4 155.3Q271.4 153.6 270.5 152.7Q269.7 151.7 268.0 151.7L268.0 151.7Q266.3 151.7 265.3 152.8Q264.2 153.9 264.2 155.8L264.2 155.8L264.2 163.3Q264.2 164.0 263.8 164.5Z M296.9 164.7L285.3 164.7Q284.5 164.7 284.1 164.3Q283.7 163.9 283.7 163.3L283.7 163.3Q283.7 162.8 283.9 162.5Q284.1 162.1 284.6 161.6L284.6 161.6L291.2 154.9Q293.3 152.8 294.0 151.7Q294.6 150.6 294.6 149.3L294.6 149.3Q294.6 147.8 293.6 146.8Q292.6 145.8 291.0 145.8L291.0 145.8Q287.8 145.8 286.7 149.0L286.7 149.0Q286.5 149.5 286.2 149.8Q285.8 150.0 285.2 150.0L285.2 150.0Q284.6 150.0 284.2 149.6Q283.8 149.3 283.8 148.6L283.8 148.6Q283.8 148.3 283.9 148.0L283.9 148.0Q284.1 147.1 284.6 146.3Q285.2 145.4 286.0 144.7Q286.9 144.0 288.2 143.6Q289.5 143.1 291.0 143.1L291.0 143.1Q294.0 143.1 296.0 144.8Q297.9 146.5 297.9 149.1L297.9 149.1Q297.9 150.9 296.9 152.5Q295.9 154.0 293.2 156.8L293.2 156.8L288.2 161.8L288.2 161.9L296.9 161.9Q297.6 161.9 298.0 162.3Q298.4 162.7 298.4 163.3L298.4 163.3Q298.4 163.9 298.0 164.3Q297.6 164.7 296.9 164.7L296.9 164.7ZM314.8 162.1Q312.7 165.1 308.9 165.1Q305.1 165.1 302.9 162.1Q300.8 159.2 300.8 154.1L300.8 154.1Q300.8 149.0 302.9 146.1Q305.1 143.1 308.9 143.1L308.9 143.1Q312.6 143.1 314.8 146.1Q316.9 149.0 316.9 154.1L316.9 154.1Q316.9 159.1 314.8 162.1ZM308.9 162.3L308.9 162.3Q311.1 162.3 312.4 160.1Q313.6 157.9 313.6 154.1L313.6 154.1Q313.6 150.3 312.4 148.1Q311.1 145.9 308.9 145.9Q306.6 145.9 305.4 148.1Q304.1 150.3 304.1 154.1L304.1 154.1Q304.1 157.9 305.3 160.1Q306.6 162.3 308.9 162.3ZM333.0 164.7L321.4 164.7Q320.6 164.7 320.2 164.3Q319.8 163.9 319.8 163.3L319.8 163.3Q319.8 162.8 320.0 162.5Q320.2 162.1 320.7 161.6L320.7 161.6L327.3 154.9Q329.4 152.8 330.1 151.7Q330.7 150.6 330.7 149.3L330.7 149.3Q330.7 147.8 329.7 146.8Q328.7 145.8 327.1 145.8L327.1 145.8Q323.9 145.8 322.8 149.0L322.8 149.0Q322.6 149.5 322.2 149.8Q321.9 150.0 321.3 150.0L321.3 150.0Q320.7 150.0 320.3 149.6Q319.9 149.3 319.9 148.6L319.9 148.6Q319.9 148.3 320.0 148.0L320.0 148.0Q320.2 147.1 320.7 146.3Q321.3 145.4 322.1 144.7Q323.0 144.0 324.3 143.6Q325.6 143.1 327.1 143.1L327.1 143.1Q330.1 143.1 332.0 144.8Q334.0 146.5 334.0 149.1L334.0 149.1Q334.0 150.9 333.0 152.5Q332.0 154.0 329.3 156.8L329.3 156.8L324.3 161.8L324.3 161.9L333.0 161.9Q333.7 161.9 334.1 162.3Q334.5 162.7 334.5 163.3L334.5 163.3Q334.5 163.9 334.1 164.3Q333.7 164.7 333.0 164.7L333.0 164.7ZM348.8 164.9L348.8 164.9Q348.2 164.9 347.7 164.5Q347.3 164.0 347.3 163.3L347.3 163.3L347.3 160.5L338.6 160.5Q337.7 160.5 337.2 160.0Q336.7 159.4 336.7 158.6L336.7 158.6Q336.7 157.6 337.4 156.3L337.4 156.3Q339.2 153.0 344.2 145.7L344.2 145.7Q345.2 144.3 345.9 143.8Q346.7 143.2 347.7 143.2L347.7 143.2Q349.0 143.2 349.7 143.9Q350.4 144.5 350.4 145.7L350.4 145.7L350.4 157.7L352.1 157.7Q352.7 157.7 353.1 158.1Q353.5 158.5 353.5 159.1Q353.5 159.7 353.1 160.1Q352.7 160.5 352.1 160.5L352.1 160.5L350.4 160.5L350.4 163.3Q350.4 164.0 350.0 164.5Q349.6 164.9 348.8 164.9ZM339.7 157.8L347.3 157.8L347.3 146.1L347.3 146.1Q341.8 153.9 339.7 157.7L339.7 157.7L339.7 157.8Z "/><mask id="satori_om-id-0-0-1"><rect x="40" y="217" width="1120" height="83" fill="#fff"/></mask><path fill="#224d67" d="M45.6 280.1L45.6 280.1Q43.8 280.1 42.8 279.1Q41.8 278.2 41.8 276.6L41.8 276.6Q41.8 275.6 42.3 274.3L42.3 274.3L54.5 240.9Q55.3 238.8 56.6 237.8Q58.0 236.8 60.0 236.8L60.0 236.8Q62.1 236.8 63.4 237.8Q64.8 238.7 65.5 240.9L65.5 240.9L77.9 274.3Q78.3 275.7 78.3 276.6L78.3 276.6Q78.3 278.1 77.3 279.1Q76.2 280.1 74.6 280.1L74.6 280.1Q73.0 280.1 72.1 279.3Q71.2 278.6 70.7 276.9L70.7 276.9L67.9 268.8L52.1 268.8L49.3 276.8Q48.8 278.6 47.9 279.3Q47.0 280.1 45.6 280.1ZM59.9 244.8L53.9 262.8L66.1 262.8L60.1 244.8L59.9 244.8Z M101.4 289.6Q100.4 290.6 98.7 290.6Q97.1 290.6 96.1 289.6Q95.1 288.6 95.1 286.8L95.1 286.8L95.1 251.7Q95.1 249.9 96.1 248.9Q97.1 247.9 98.7 247.9L98.7 247.9Q100.3 247.9 101.2 248.9Q102.2 249.9 102.2 251.7L102.2 251.7L102.2 253.9L102.4 253.9Q103.7 251.1 106.3 249.6Q108.8 248.0 112.2 248.0L112.2 248.0Q118.1 248.0 121.6 252.3Q125.0 256.6 125.0 264.1L125.0 264.1Q125.0 271.5 121.6 275.8Q118.1 280.1 112.3 280.1L112.3 280.1Q108.9 280.1 106.4 278.6Q103.8 277.1 102.5 274.4L102.5 274.4L102.4 274.4L102.4 286.8Q102.4 288.6 101.4 289.6ZM109.9 274.1L109.9 274.1Q113.5 274.1 115.5 271.4Q117.6 268.7 117.6 264.1L117.6 264.1Q117.6 259.5 115.5 256.7Q113.4 254.0 109.9 254.0L109.9 254.0Q106.5 254.0 104.5 256.8Q102.4 259.5 102.3 264.1L102.3 264.1Q102.4 268.6 104.5 271.4Q106.5 274.1 109.9 274.1ZM154.4 275.9Q150.4 280.2 143.5 280.2Q136.6 280.2 132.5 275.9Q128.4 271.6 128.4 264.1L128.4 264.1Q128.4 256.6 132.5 252.2Q136.7 247.9 143.5 247.9L143.5 247.9Q150.3 247.9 154.4 252.2Q158.5 256.6 158.5 264.1L158.5 264.1Q158.5 271.6 154.4 275.9ZM137.9 271.7Q140.0 274.4 143.5 274.4Q147.0 274.4 149.0 271.7Q151.1 269.0 151.1 264.1L151.1 264.1Q151.1 259.2 149.0 256.4Q147.0 253.7 143.5 253.7L143.5 253.7Q140.0 253.7 137.9 256.4Q135.9 259.2 135.9 264.1L135.9 264.1Q135.9 269.0 137.9 271.7ZM175.2 280.2L175.2 280.2Q170.3 280.2 167.0 278.5Q163.7 276.8 162.5 274.0L162.5 274.0Q162.2 273.2 162.2 272.5L162.2 272.5Q162.2 271.2 163.1 270.4Q163.9 269.6 165.3 269.6L165.3 269.6Q167.1 269.6 168.4 271.4L168.4 271.4Q169.7 273.3 171.3 274.1Q172.9 274.9 175.4 274.9L175.4 274.9Q178.0 274.9 179.6 273.9Q181.1 272.8 181.1 271.1L181.1 271.1Q181.1 269.7 180.1 268.8Q179.1 268.0 176.7 267.4L176.7 267.4L171.7 266.3Q162.6 264.3 162.6 257.4L162.6 257.4Q162.6 253.1 166.1 250.5Q169.6 247.9 175.3 247.9L175.3 247.9Q179.7 247.9 182.9 249.8Q186.1 251.6 186.9 254.4L186.9 254.4Q187.0 255.0 187.0 255.5L187.0 255.5Q187.0 256.6 186.3 257.4Q185.5 258.1 184.2 258.1L184.2 258.1Q182.4 258.1 181.4 256.7L181.4 256.7Q180.3 255.0 178.8 254.1Q177.3 253.2 175.1 253.2L175.1 253.2Q172.7 253.2 171.2 254.3Q169.7 255.3 169.7 257.0L169.7 257.0Q169.7 259.8 174.3 260.8L174.3 260.8L179.2 261.9Q184.2 263.0 186.3 264.9Q188.4 266.9 188.4 270.3L188.4 270.3Q188.4 274.8 184.8 277.5Q181.1 280.2 175.2 280.2ZM195.0 271.9L195.0 271.9L195.0 254.1L193.1 254.1Q191.7 254.1 190.9 253.4Q190.1 252.6 190.1 251.3L190.1 251.3Q190.1 250.0 190.9 249.3Q191.7 248.5 193.1 248.5L193.1 248.5L195.0 248.5L195.0 244.4Q195.0 242.6 196.0 241.6Q197.0 240.6 198.7 240.6L198.7 240.6Q200.4 240.6 201.4 241.6Q202.3 242.6 202.3 244.4L202.3 244.4L202.3 248.5L205.7 248.5Q207.1 248.5 207.9 249.3Q208.6 250.0 208.6 251.3L208.6 251.3Q208.6 252.6 207.8 253.4Q207.1 254.1 205.7 254.1L205.7 254.1L202.3 254.1L202.3 270.3Q202.3 272.1 203.0 272.9Q203.7 273.7 205.3 273.9L205.3 273.9L205.8 273.9Q208.7 274.2 208.7 276.6L208.7 276.6Q208.7 278.2 207.4 279.1Q206.0 279.9 203.5 279.9L203.5 279.9L203.2 279.9Q195.0 279.9 195.0 271.9Z M235.0 280.2L235.0 280.2Q233.1 280.2 232.1 279.3Q231.0 278.4 230.4 276.4L230.4 276.4L223.7 253.2Q223.3 251.9 223.3 251.0L223.3 251.0Q223.3 249.7 224.3 248.8Q225.3 247.9 226.8 247.9L226.8 247.9Q229.6 247.9 230.2 251.0L230.2 251.0L235.4 272.4L235.5 272.4L240.9 251.2Q241.7 247.9 245.1 247.9L245.1 247.9Q248.4 247.9 249.2 251.2L249.2 251.2L254.7 272.4L254.8 272.4L260.0 251.0Q260.7 247.9 263.3 247.9L263.3 247.9Q264.9 247.9 265.8 248.8Q266.8 249.6 266.8 251.0L266.8 251.0Q266.8 251.9 266.4 253.2L266.4 253.2L259.7 276.4Q259.2 278.3 258.1 279.3Q256.9 280.2 255.1 280.2L255.1 280.2Q253.1 280.2 252.0 279.3Q250.9 278.4 250.4 276.4L250.4 276.4L245.1 256.9L244.9 256.9L239.6 276.4Q238.7 280.2 235.0 280.2ZM277.6 243.0Q276.4 244.2 274.7 244.2Q273.0 244.2 271.9 243.0Q270.7 241.8 270.7 240.2L270.7 240.2Q270.7 238.5 271.9 237.4Q273.0 236.2 274.7 236.2L274.7 236.2Q276.5 236.2 277.6 237.4Q278.8 238.5 278.8 240.2L278.8 240.2Q278.8 241.8 277.6 243.0ZM277.4 279.1Q276.4 280.2 274.7 280.2Q273.1 280.2 272.1 279.1Q271.1 278.1 271.1 276.3L271.1 276.3L271.1 251.7Q271.1 250.0 272.1 248.9Q273.1 247.9 274.7 247.9Q276.4 247.9 277.4 248.9Q278.4 250.0 278.4 251.8L278.4 251.8L278.4 276.3Q278.4 278.1 277.4 279.1ZM286.5 271.9L286.5 271.9L286.5 254.1L284.6 254.1Q283.2 254.1 282.4 253.4Q281.6 252.6 281.6 251.3L281.6 251.3Q281.6 250.0 282.4 249.3Q283.2 248.5 284.6 248.5L284.6 248.5L286.5 248.5L286.5 244.4Q286.5 242.6 287.5 241.6Q288.5 240.6 290.2 240.6L290.2 240.6Q291.9 240.6 292.8 241.6Q293.8 242.6 293.8 244.4L293.8 244.4L293.8 248.5L297.2 248.5Q298.6 248.5 299.4 249.3Q300.1 250.0 300.1 251.3L300.1 251.3Q300.1 252.6 299.3 253.4Q298.5 254.1 297.2 254.1L297.2 254.1L293.8 254.1L293.8 270.3Q293.8 272.1 294.5 272.9Q295.2 273.7 296.8 273.9L296.8 273.9L297.3 273.9Q300.2 274.2 300.2 276.6L300.2 276.6Q300.2 278.2 298.9 279.1Q297.5 279.9 295 279.9L295 279.9L294.7 279.9Q286.5 279.9 286.5 271.9ZM311.1 279.2Q310.1 280.2 308.5 280.2Q306.9 280.2 305.9 279.2Q304.8 278.1 304.8 276.3L304.8 276.3L304.8 240.5Q304.8 238.7 305.8 237.7Q306.8 236.7 308.4 236.7L308.4 236.7Q310.1 236.7 311.1 237.7Q312.1 238.7 312.1 240.5L312.1 240.5L312.1 253.9L312.2 253.9Q313.5 251.0 316.0 249.5Q318.5 247.9 322.0 247.9L322.0 247.9Q327.1 247.9 330.0 251.1Q332.9 254.2 332.9 259.6L332.9 259.6L332.9 276.3Q332.9 278.1 331.9 279.2Q330.9 280.2 329.2 280.2Q327.6 280.2 326.6 279.2Q325.6 278.1 325.6 276.3L325.6 276.3L325.6 261.1Q325.6 257.8 324.0 255.9Q322.3 254.1 319.2 254.1L319.2 254.1Q315.9 254.1 314.0 256.2Q312.1 258.3 312.1 261.7L312.1 261.7L312.1 276.3Q312.1 278.1 311.1 279.2ZM363.4 275.9Q359.3 280.2 352.5 280.2Q345.6 280.2 341.5 275.9Q337.4 271.6 337.4 264.1L337.4 264.1Q337.4 256.6 341.5 252.2Q345.6 247.9 352.5 247.9L352.5 247.9Q359.3 247.9 363.4 252.2Q367.5 256.6 367.5 264.1L367.5 264.1Q367.5 271.6 363.4 275.9ZM346.9 271.7Q348.9 274.4 352.5 274.4Q356.0 274.4 358.0 271.7Q360.1 269.0 360.1 264.1L360.1 264.1Q360.1 259.2 358.0 256.4Q356.0 253.7 352.5 253.7L352.5 253.7Q349.0 253.7 346.9 256.4Q344.8 259.2 344.8 264.1L344.8 264.1Q344.8 269.0 346.9 271.7ZM383.0 280.1L383.0 280.1Q378.0 280.1 375.0 277.0Q372.0 274.0 372.0 268.6L372.0 268.6L372.0 251.7Q372.0 250.0 373.0 248.9Q374.0 247.9 375.7 247.9Q377.3 247.9 378.3 248.9Q379.3 250.0 379.3 251.8L379.3 251.8L379.3 267.1Q379.3 270.5 380.9 272.2Q382.5 274.0 385.6 274.0L385.6 274.0Q388.7 274.0 390.6 271.9Q392.4 269.9 392.4 266.5L392.4 266.5L392.4 251.7Q392.4 250.0 393.4 248.9Q394.4 247.9 396.1 247.9L396.1 247.9Q397.7 247.9 398.7 248.9Q399.7 250.0 399.7 251.8L399.7 251.8L399.7 276.5Q399.7 278.2 398.8 279.2Q397.8 280.2 396.2 280.2L396.2 280.2Q394.6 280.2 393.6 279.2Q392.7 278.2 392.7 276.5L392.7 276.5L392.7 274.2L392.5 274.2Q390.0 280.1 383.0 280.1ZM407.7 271.9L407.7 271.9L407.7 254.1L405.7 254.1Q404.4 254.1 403.6 253.4Q402.8 252.6 402.8 251.3L402.8 251.3Q402.8 250.0 403.6 249.3Q404.3 248.5 405.7 248.5L405.7 248.5L407.7 248.5L407.7 244.4Q407.7 242.6 408.7 241.6Q409.6 240.6 411.3 240.6L411.3 240.6Q413.0 240.6 414.0 241.6Q415.0 242.6 415.0 244.4L415.0 244.4L415.0 248.5L418.3 248.5Q419.7 248.5 420.5 249.3Q421.3 250.0 421.3 251.3L421.3 251.3Q421.3 252.6 420.5 253.4Q419.7 254.1 418.3 254.1L418.3 254.1L415.0 254.1L415.0 270.3Q415.0 272.1 415.6 272.9Q416.3 273.7 417.9 273.9L417.9 273.9L418.4 273.9Q421.4 274.2 421.4 276.6L421.4 276.6Q421.4 278.2 420.0 279.1Q418.7 279.9 416.1 279.9L416.1 279.9L415.8 279.9Q407.7 279.9 407.7 271.9Z M439.8 271.9L439.8 271.9L439.8 254.1L437.9 254.1Q436.5 254.1 435.7 253.4Q434.9 252.6 434.9 251.3L434.9 251.3Q434.9 250.0 435.7 249.3Q436.5 248.5 437.9 248.5L437.9 248.5L439.8 248.5L439.8 244.4Q439.8 242.6 440.8 241.6Q441.8 240.6 443.5 240.6L443.5 240.6Q445.1 240.6 446.1 241.6Q447.1 242.6 447.1 244.4L447.1 244.4L447.1 248.5L450.5 248.5Q451.9 248.5 452.6 249.3Q453.4 250.0 453.4 251.3L453.4 251.3Q453.4 252.6 452.6 253.4Q451.8 254.1 450.5 254.1L450.5 254.1L447.1 254.1L447.1 270.3Q447.1 272.1 447.8 272.9Q448.5 273.7 450.0 273.9L450.0 273.9L450.6 273.9Q453.5 274.2 453.5 276.6L453.5 276.6Q453.5 278.2 452.1 279.1Q450.8 279.9 448.3 279.9L448.3 279.9L448.0 279.9Q439.8 279.9 439.8 271.9ZM467.0 280.1L467.0 280.1Q462.5 280.1 459.6 277.5Q456.7 274.9 456.7 270.7L456.7 270.7Q456.7 266.6 459.7 264.2Q462.8 261.8 468.5 261.4L468.5 261.4L476.7 260.9L476.7 258.7Q476.7 256.3 475.2 254.9Q473.6 253.6 470.9 253.6L470.9 253.6Q468.7 253.6 467.2 254.4Q465.7 255.2 464.4 257.2L464.4 257.2Q463.3 258.7 461.4 258.7L461.4 258.7Q460.1 258.7 459.2 257.9Q458.4 257.1 458.4 255.8L458.4 255.8Q458.4 254.8 458.9 253.8L458.9 253.8Q460.0 251.1 463.4 249.5Q466.7 247.9 471.2 247.9L471.2 247.9Q477.0 247.9 480.4 250.7Q483.9 253.5 483.9 258.2L483.9 258.2L483.9 276.5Q483.9 278.2 482.9 279.2Q481.9 280.2 480.4 280.2L480.4 280.2Q478.8 280.2 477.9 279.3Q477.0 278.4 476.9 276.8L476.9 276.8L476.9 274.6L476.7 274.6Q475.4 277.1 472.7 278.6Q470.1 280.1 467.0 280.1ZM469.3 274.6L469.3 274.6Q472.4 274.6 474.5 272.7Q476.7 270.8 476.7 268.1L476.7 268.1L476.7 265.7L469.5 266.1Q466.9 266.3 465.4 267.4Q464.0 268.6 464.0 270.4L464.0 270.4Q464.0 272.3 465.4 273.4Q466.9 274.6 469.3 274.6ZM503.2 291.3L503.2 291.3Q498.8 291.2 495.5 289.7Q492.2 288.2 490.6 285.6L490.6 285.6Q489.9 284.6 489.9 283.4L489.9 283.4Q489.9 282.2 490.8 281.4Q491.6 280.6 493.0 280.6L493.0 280.6Q494.4 280.6 495.7 281.8L495.7 281.8Q497.5 283.7 499.3 284.6Q501.0 285.4 503.2 285.5L503.2 285.5Q506.9 285.5 509.0 283.6Q511.1 281.7 511.1 278.6L511.1 278.6L511.1 273.7L511.0 273.7Q509.7 276.2 507.1 277.7Q504.5 279.3 501.3 279.3L501.3 279.3Q495.4 279.3 491.9 275.0Q488.5 270.8 488.5 263.7L488.5 263.7Q488.5 256.4 491.9 252.2Q495.4 248.0 501.4 248.0L501.4 248.0Q504.6 248.0 507.2 249.5Q509.7 251.1 511.0 253.8L511.0 253.8L511.2 253.8L511.2 251.6Q511.2 249.9 512.2 248.9Q513.2 247.9 514.8 247.9Q516.4 247.9 517.4 248.9Q518.4 249.9 518.4 251.6L518.4 251.6L518.4 278.6Q518.4 284.5 514.4 287.9Q510.3 291.3 503.2 291.3ZM503.5 273.6L503.5 273.6Q507.0 273.6 509.1 270.9Q511.2 268.3 511.2 263.7L511.2 263.7Q511.2 259.2 509.1 256.5Q507.0 253.8 503.5 253.8L503.5 253.8Q500.0 253.8 498.0 256.5Q495.9 259.2 495.9 263.7L495.9 263.7Q495.9 268.3 498.0 271.0Q500.0 273.6 503.5 273.6ZM536.4 280.2L536.4 280.2Q531.5 280.2 528.2 278.5Q524.9 276.8 523.7 274.0L523.7 274.0Q523.4 273.2 523.4 272.5L523.4 272.5Q523.4 271.2 524.3 270.4Q525.1 269.6 526.5 269.6L526.5 269.6Q528.3 269.6 529.6 271.4L529.6 271.4Q530.9 273.3 532.5 274.1Q534.1 274.9 536.6 274.9L536.6 274.9Q539.2 274.9 540.8 273.9Q542.3 272.8 542.3 271.1L542.3 271.1Q542.3 269.7 541.3 268.8Q540.3 268.0 537.9 267.4L537.9 267.4L532.9 266.3Q523.8 264.3 523.8 257.4L523.8 257.4Q523.8 253.1 527.3 250.5Q530.8 247.9 536.5 247.9L536.5 247.9Q540.9 247.9 544.1 249.8Q547.3 251.6 548.1 254.4L548.1 254.4Q548.2 255.0 548.2 255.5L548.2 255.5Q548.2 256.6 547.5 257.4Q546.7 258.1 545.4 258.1L545.4 258.1Q543.6 258.1 542.6 256.7L542.6 256.7Q541.5 255.0 540.0 254.1Q538.5 253.2 536.3 253.2L536.3 253.2Q533.9 253.2 532.4 254.3Q530.9 255.3 530.9 257.0L530.9 257.0Q530.9 259.8 535.5 260.8L535.5 260.8L540.4 261.9Q545.4 263.0 547.5 264.9Q549.6 266.9 549.6 270.3L549.6 270.3Q549.6 274.8 546.0 277.5Q542.3 280.2 536.4 280.2Z "/><defs><clipPath id="satori_bc-id-0-1"><rect x="0" y="441" width="1200" height="189"/></clipPath></defs><mask id="satori_om-id-0-1"><rect x="0" y="442" width="1200" height="188" fill="#fff"/><path width="1200" height="189" fill="none" stroke="#000" stroke-width="2" d="M0,441 A0,0 0 0 1 0,441 h1200 A0,0 0 0 1 1200,441"/></mask><path width="1200" height="189" clip-path="url(#satori_bc-id-0-1)" fill="none" stroke="#dbdbdb" stroke-width="2" d="M0,441 A0,0 0 0 1 0,441 h1200 A0,0 0 0 1 1200,441"/><mask id="satori_om-id-0-1-0"><rect x="40" y="482" width="209" height="108" fill="#fff"/></mask><clipPath id="satori_cp-id-0-1-0-0"><rect x="40" y="504" width="64" height="64"/></clipPath><mask id="satori_om-id-0-1-0-0"><rect x="40" y="504" width="64" height="64" fill="#fff"/></mask><image x="40" y="504" width="64" height="64" href="data:image/svg+xml;utf8,%3Csvg  xmlns=%22http://www.w3.org/2000/svg%22 width=%2264%22 height=%2264%22 viewBox=%220 0 128 128%22%3E%3Cpath fill=%22%23224d67%22 d=%22M22.5 14.8c2.9 1.3 99 44 99 44c2.7 1.2 2.9 3.1 2 12.4c-1 10.5-1.9 37.8-40.2 42.9c-24.6 3.2-55.9-4.3-70.9-27.2C-6 58.8 11 23.4 14.8 17.7c2.4-3.5 4.8-4.2 7.7-2.9%22%3E%3C/path%3E%3Cpath fill=%22%23f0f4c3%22 d=%22M121.5 58.8c-.3-.2-92-40.8-98.9-43.9C9.6 31.5-3.8 76 27.9 96.2c33.6 21.5 78.7-10.2 93.6-37.4%22%3E%3C/path%3E%3Cpath fill=%22%23f0f4c3%22 d=%22M117.7 57c-.3-.2-86.7-38.4-93.2-41.3c-12.2 15.5-23.9 59.1 5.7 78c31.4 20.2 73.6-11.2 87.5-36.7%22%3E%3C/path%3E%3Cpath fill=%22%23cb2a42%22 d=%22M56.2 37.6L19.5 48.2c-2.5.8-4.4 2.8-5 5.3c-1.9 8.5.8 23.3 8.9 29.8c3.5 2.7 8.6 1.8 10.8-2.1L58.5 41c1.3-1.7.5-4.2-2.3-3.4m14.3 2.9s14.6 30.1 16 33s6.3 4.7 9.9 2.8c10.7-5.6 15.5-12.4 19.2-20.2c-8.9-3.9-42.4-18.8-42.4-18.8c-2.4-1.1-4 .6-2.7 3.2m-8.6 1.9C60.3 45.1 39.5 81 37.6 84.1c-1.9 3.2-.7 7.5 2.7 9.2c12.3 6.5 30.9.4 39.6-7c2.2-1.9 4.5-5.1 3.2-8.2S68.9 44.6 67.8 42.3c-1.2-2.7-4.1-2.8-5.9.1%22%3E%3C/path%3E%3Cpath fill=%22%23f0f4c3%22 d=%22M52.2 42.2c-1.4.4-10.1 3-11.1 3.4c-1.4.5-2.2 1.7-1.9 2.5c.3.9 1.7 1.1 3.1.6c.8-.3 7.1-3.9 9.5-5.2c-3.1 2.4-10.2 9.4-11.1 10.3c-1.4 1.5-1.7 3.4-.8 4.3c1 .9 2.9.5 4.3-1c1.2-1.3 8.5-12.8 9.1-13.9s.4-1.4-1.1-1m10.1 16.4c0-2.2 1.4-10.3 1.8-12.3c.4-1.6 1.5-1.8 1.8.5s1.7 9.7 1.7 11.8s-1.2 3.3-2.7 3.3c-1.4 0-2.6-1.1-2.6-3.3M79.9 49c-1.2-1.8-3.3-4.9-4.1-6.1c-.7-1.2.1-2.1 1.8-.9s4 2.9 5.4 4c1.6 1.3 1.9 3 .8 4s-2.7.8-3.9-1%22%3E%3C/path%3E%3Cellipse cx=%2287.3%22 cy=%22103.12%22 fill=%22%23cb2a42%22 rx=%223.4%22 ry=%222.3%22 transform=%22rotate(-27.098 87.298 103.126)%22%3E%3C/ellipse%3E%3Cellipse cx=%2298.89%22 cy=%22103.82%22 fill=%22%23cb2a42%22 rx=%223.4%22 ry=%222.3%22 transform=%22rotate(-30.642 98.887 103.818)%22%3E%3C/ellipse%3E%3Cellipse cx=%22102.02%22 cy=%2293.8%22 fill=%22%23cb2a42%22 rx=%223.4%22 ry=%222.3%22 transform=%22rotate(-37.16 102.017 93.797)%22%3E%3C/ellipse%3E%3Cpath fill=%22%23cb2a42%22 d=%22M57.6 30.3c-8.3-3.7-24.4-10.7-29.6-13c-3.6 2.2-9.7 11.4-11.2 21.2c-.6 3.6 1.7 5.9 5.3 4.9c0 0 33.7-9.3 35.3-9.7c1.6-.5 2-2.6.2-3.4%22%3E%3C/path%3E%3C/svg%3E" preserveAspectRatio="none" clip-path="url(#satori_cp-id-0-1-0-0)" mask="url(#satori_om-id-0-1-0-0)"/><mask id="satori_om-id-0-1-0-0-0"><rect x="40" y="504" width="0" height="64" fill="#fff"/></mask><mask id="satori_om-id-0-1-0-0-1"><rect x="40" y="504" width="0" height="64" fill="#fff"/></mask><mask id="satori_om-id-0-1-0-0-2"><rect x="40" y="504" width="0" height="64" fill="#fff"/></mask><mask id="satori_om-id-0-1-0-0-3"><rect x="40" y="504" width="0" height="64" fill="#fff"/></mask><mask id="satori_om-id-0-1-0-0-4"><rect x="40" y="504" width="0" height="64" fill="#fff"/></mask><mask id="satori_om-id-0-1-0-0-5"><rect x="40" y="504" width="0" height="64" fill="#fff"/></mask><mask id="satori_om-id-0-1-0-0-6"><rect x="40" y="504" width="0" height="64" fill="#fff"/></mask><mask id="satori_om-id-0-1-0-0-7"><rect x="40" y="504" width="0" height="64" fill="#fff"/></mask><mask id="satori_om-id-0-1-0-0-8"><rect x="40" y="504" width="0" height="64" fill="#fff"/></mask><mask id="satori_om-id-0-1-0-1"><rect x="116" y="512" width="133" height="48" fill="#fff"/></mask><path fill="#545454" d="M133.9 553.6L133.9 553.6Q126.4 553.6 122.1 549.0Q117.8 544.3 117.8 536.1L117.8 536.1Q117.8 528.0 122.1 523.3Q126.4 518.7 133.7 518.7L133.7 518.7Q138.4 518.7 142.0 520.7Q145.5 522.7 147.2 526.3L147.2 526.3Q147.9 527.7 147.9 529.0L147.9 529.0Q147.9 530.4 147.1 531.2Q146.2 532.0 144.8 532.0L144.8 532.0Q143.6 532.0 142.8 531.5Q142.0 530.9 141.5 529.7L141.5 529.7Q140.3 527.1 138.3 525.8Q136.3 524.5 133.8 524.5L133.8 524.5Q129.8 524.5 127.4 527.7Q125.0 530.8 125.0 536.1L125.0 536.1Q125.0 541.5 127.3 544.7Q129.7 547.8 133.8 547.8L133.8 547.8Q139.3 547.8 141.5 542.8L141.5 542.8Q142.1 541.6 142.8 541.1Q143.5 540.5 144.7 540.5L144.7 540.5Q146.2 540.5 147.1 541.4Q148.0 542.3 148.0 543.7L148.0 543.7Q148.0 544.8 147.4 546.1L147.4 546.1Q145.8 549.6 142.3 551.6Q138.7 553.6 133.9 553.6ZM158.6 523.8Q157.5 524.8 156.0 524.8Q154.4 524.8 153.4 523.8Q152.3 522.8 152.3 521.3L152.3 521.3Q152.3 519.8 153.4 518.8Q154.4 517.7 156.0 517.7Q157.5 517.7 158.6 518.8Q159.6 519.8 159.6 521.3L159.6 521.3Q159.6 522.8 158.6 523.8ZM158.5 552.6Q157.6 553.6 156.0 553.6Q154.4 553.6 153.5 552.6Q152.5 551.7 152.5 550.0L152.5 550.0L152.5 531.0Q152.5 529.3 153.5 528.4Q154.4 527.4 156.0 527.4Q157.6 527.4 158.5 528.4Q159.4 529.3 159.4 531.0L159.4 531.0L159.4 550.0Q159.4 551.7 158.5 552.6ZM165.8 546.6L165.8 546.6L165.8 533.1L164.4 533.1Q163.2 533.1 162.5 532.4Q161.8 531.7 161.8 530.5Q161.8 529.3 162.5 528.6Q163.2 527.9 164.4 527.9L164.4 527.9L165.8 527.9L165.8 525.1Q165.8 523.5 166.7 522.5Q167.6 521.6 169.2 521.6Q170.8 521.6 171.7 522.5Q172.6 523.5 172.6 525.1L172.6 525.1L172.6 527.9L175.0 527.9Q176.2 527.9 176.9 528.6Q177.6 529.3 177.6 530.5Q177.6 531.7 176.9 532.4Q176.2 533.1 175.0 533.1L175.0 533.1L172.6 533.1L172.6 545.1Q172.6 546.5 173.1 547.1Q173.6 547.7 174.7 547.8L174.7 547.8L175.1 547.8Q176.4 548.0 177.1 548.5Q177.7 549.1 177.7 550.3L177.7 550.3Q177.7 551.8 176.4 552.6Q175.1 553.3 172.9 553.3L172.9 553.3L172.6 553.3Q165.8 553.3 165.8 546.6ZM184.4 553.6L184.4 553.6Q182.8 553.6 181.9 552.6Q181.0 551.7 181.0 550.0L181.0 550.0L181.0 530.9Q181.0 529.3 181.9 528.3Q182.8 527.4 184.3 527.4L184.3 527.4Q185.8 527.4 186.6 528.3Q187.5 529.3 187.5 530.9L187.5 530.9L187.5 532.5L187.7 532.5Q188.2 530.2 189.6 528.9Q191 527.5 192.9 527.5L192.9 527.5Q194.3 527.5 195.0 528.2L195.0 528.2Q196.0 528.9 196.0 530.7L196.0 530.7Q196.0 532.3 195.0 533.2L195.0 533.2Q194.0 534.0 192.1 534.1L192.1 534.1Q189.8 534.1 188.8 535.3Q187.8 536.5 187.8 538.8L187.8 538.8L187.8 550.0Q187.8 551.7 186.9 552.6Q186.0 553.6 184.4 553.6ZM207.4 553.5L207.4 553.5Q203.3 553.5 200.8 551.0Q198.3 548.5 198.3 544.1L198.3 544.1L198.3 531.0Q198.3 529.3 199.3 528.4Q200.2 527.4 201.8 527.4Q203.3 527.4 204.2 528.4Q205.2 529.3 205.2 531.0L205.2 531.0L205.2 542.7Q205.2 545.2 206.4 546.5Q207.6 547.8 209.9 547.8Q212.1 547.8 213.5 546.3Q214.8 544.8 214.8 542.3L214.8 542.3L214.8 531.0Q214.8 529.3 215.8 528.4Q216.7 527.4 218.2 527.4Q219.8 527.4 220.7 528.4Q221.7 529.3 221.7 531.0L221.7 531.0L221.7 550.1Q221.7 551.8 220.8 552.7Q219.9 553.6 218.4 553.6Q216.8 553.6 215.9 552.7Q215.0 551.8 215.0 550.1L215.0 550.1L215.0 548.5L214.9 548.5Q212.9 553.5 207.4 553.5ZM236.4 553.6L236.4 553.6Q232.1 553.6 229.3 552.2Q226.5 550.9 225.5 548.6L225.5 548.6Q225.3 547.9 225.3 547.3L225.3 547.3Q225.3 546.1 226.1 545.4Q226.9 544.7 228.1 544.7L228.1 544.7Q229.6 544.7 231.0 546.2L231.0 546.2Q232.1 547.6 233.3 548.2Q234.6 548.8 236.5 548.8L236.5 548.8Q238.4 548.8 239.5 548.1Q240.6 547.3 240.6 546.1L240.6 546.1Q240.6 545.1 239.9 544.5Q239.1 543.9 237.3 543.5L237.3 543.5L233.1 542.6Q229.4 541.8 227.5 539.9Q225.7 538.1 225.7 535.3L225.7 535.3Q225.7 531.7 228.6 529.5Q231.5 527.4 236.3 527.4L236.3 527.4Q240.1 527.4 242.8 528.9Q245.5 530.4 246.2 532.6L246.2 532.6Q246.3 533.2 246.3 533.6L246.3 533.6Q246.3 534.7 245.7 535.3Q245 536.0 243.7 536.0L243.7 536.0Q242.1 536.0 241.2 534.9L241.2 534.9Q240.2 533.6 239.1 532.9Q237.9 532.2 236.2 532.2L236.2 532.2Q234.5 532.2 233.4 533.0Q232.3 533.7 232.3 534.9L232.3 534.9Q232.3 535.9 233.1 536.6Q233.9 537.2 235.8 537.6L235.8 537.6L239.9 538.5Q243.9 539.4 245.7 541.0Q247.5 542.6 247.5 545.4L247.5 545.4Q247.5 549.1 244.4 551.4Q241.3 553.6 236.4 553.6Z "/><mask id="satori_om-id-0-1-1"><rect x="951" y="524" width="209" height="36" fill="#fff"/></mask><path fill="#8e8e8e" d="M954.9 552.6Q954.5 552.9 954.0 552.9Q953.4 552.9 953.1 552.6Q952.8 552.2 952.8 551.7L952.8 551.7L952.8 532.6Q952.8 532.0 953.1 531.6Q953.5 531.3 954.1 531.3Q954.6 531.3 955.0 531.6Q955.3 532.0 955.3 532.6L955.3 532.6L955.3 540.0L955.4 540.0Q956.1 538.7 957.4 537.9Q958.7 537.2 960.3 537.2L960.3 537.2Q963.2 537.2 964.9 539.3Q966.7 541.5 966.7 545.0L966.7 545.0Q966.7 548.6 964.9 550.8Q963.2 552.9 960.2 552.9L960.2 552.9Q958.6 552.9 957.3 552.2Q956.0 551.4 955.3 550.1L955.3 550.1L955.2 550.1L955.2 551.7Q955.2 552.2 954.9 552.6ZM959.7 550.7L959.7 550.7Q961.8 550.7 962.9 549.2Q964.1 547.7 964.1 545.0L964.1 545.0Q964.1 542.5 962.9 540.9Q961.8 539.4 959.7 539.4L959.7 539.4Q957.8 539.4 956.6 541.0Q955.3 542.5 955.3 545.0L955.3 545.0Q955.3 547.6 956.6 549.1Q957.8 550.7 959.7 550.7ZM970.8 558.4L970.8 558.4Q969.9 558.4 969.4 558.0Q968.9 557.7 968.9 557.1L968.9 557.1Q968.9 556.7 969.1 556.4Q969.4 556.2 969.9 556.2L969.9 556.2Q970.1 556.2 970.3 556.2Q970.5 556.2 970.7 556.2L970.7 556.2Q972.4 556.2 973.2 553.7L973.2 553.7L973.6 552.7L968.3 539.0Q968.2 538.6 968.2 538.3L968.2 538.3Q968.2 537.8 968.6 537.5Q968.9 537.2 969.5 537.2L969.5 537.2Q970.4 537.2 970.7 538.1L970.7 538.1L974.9 550.1L975.0 550.1L979.2 538.1Q979.3 537.6 979.6 537.4Q979.9 537.2 980.4 537.2L980.4 537.2Q980.9 537.2 981.3 537.5Q981.6 537.8 981.6 538.3L981.6 538.3Q981.6 538.6 981.5 539.0L981.5 539.0L975.9 553.7Q974.9 556.4 973.8 557.4Q972.7 558.4 970.8 558.4Z M990.5 552.9L990.5 552.9Q989.9 552.9 989.5 552.5Q989.2 552.2 989.2 551.7L989.2 551.7Q989.2 551.4 989.3 551.0L989.3 551.0L996.1 532.6Q996.6 531.3 997.8 531.3L997.8 531.3Q999.0 531.3 999.5 532.6L999.5 532.6L1006.3 551.0Q1006.5 551.4 1006.5 551.7L1006.5 551.7Q1006.5 552.2 1006.1 552.5Q1005.7 552.9 1005.2 552.9L1005.2 552.9Q1004.2 552.9 1003.9 551.9L1003.9 551.9L1002.0 546.6L993.6 546.6L991.8 551.9Q991.4 552.9 990.5 552.9ZM997.8 534.7L994.4 544.4L1001.2 544.4L997.9 534.7L997.8 534.7ZM1011.1 552.5Q1010.8 552.9 1010.2 552.9Q1009.7 552.9 1009.3 552.5Q1008.9 552.2 1008.9 551.6L1008.9 551.6L1008.9 538.5Q1008.9 537.9 1009.3 537.5Q1009.6 537.2 1010.1 537.2Q1010.7 537.2 1011 537.5Q1011.3 537.9 1011.3 538.5L1011.3 538.5L1011.3 539.9L1011.4 539.9Q1011.7 538.7 1012.7 537.9Q1013.7 537.2 1014.9 537.2L1014.9 537.2Q1015.7 537.2 1016.1 537.5L1016.1 537.5Q1016.4 537.8 1016.4 538.4L1016.4 538.4Q1016.4 539.0 1016.0 539.3L1016.0 539.3Q1015.6 539.6 1014.8 539.6L1014.8 539.6Q1013.1 539.6 1012.3 540.6Q1011.5 541.6 1011.5 543.2L1011.5 543.2L1011.5 551.6Q1011.5 552.2 1011.1 552.5ZM1019.0 549.1L1019.0 549.1L1019.0 539.5L1017.7 539.5Q1017.2 539.5 1016.9 539.3Q1016.6 539.0 1016.6 538.5L1016.6 538.5Q1016.6 538.0 1016.9 537.7Q1017.2 537.4 1017.7 537.4L1017.7 537.4L1019.0 537.4L1019.0 534.8Q1019.0 534.2 1019.4 533.8Q1019.7 533.5 1020.3 533.5Q1020.8 533.5 1021.2 533.8Q1021.5 534.2 1021.5 534.8L1021.5 534.8L1021.5 537.4L1023.5 537.4Q1024.1 537.4 1024.4 537.7Q1024.7 538.0 1024.7 538.5L1024.7 538.5Q1024.7 539.0 1024.4 539.3Q1024.1 539.5 1023.5 539.5L1023.5 539.5L1021.5 539.5L1021.5 548.6Q1021.5 549.6 1021.9 550.0Q1022.3 550.5 1023.3 550.6L1023.3 550.6L1023.5 550.6Q1024.7 550.7 1024.7 551.6L1024.7 551.6Q1024.7 552.2 1024.3 552.5Q1023.9 552.8 1022.9 552.8L1022.9 552.8L1022.7 552.8Q1019.0 552.8 1019.0 549.1ZM1033.6 552.9L1033.6 552.9Q1030.2 552.9 1028.4 550.9Q1026.5 548.8 1026.5 545.1L1026.5 545.1Q1026.5 541.5 1028.4 539.3Q1030.2 537.2 1033.4 537.2L1033.4 537.2Q1036.3 537.2 1038.2 539.1Q1040.0 541.1 1040.0 544.3L1040.0 544.3Q1040.0 544.9 1039.6 545.3Q1039.3 545.7 1038.6 545.7L1038.6 545.7L1029.1 545.7Q1029.1 548.0 1030.3 549.4Q1031.5 550.7 1033.5 550.7L1033.5 550.7Q1034.9 550.7 1035.8 550.2Q1036.7 549.6 1037.6 548.3L1037.6 548.3Q1038.0 547.8 1038.6 547.8L1038.6 547.8Q1039.1 547.8 1039.4 548.1Q1039.7 548.4 1039.7 548.9L1039.7 548.9Q1039.7 549.2 1039.5 549.7L1039.5 549.7Q1038.8 551.2 1037.2 552.1Q1035.7 552.9 1033.6 552.9ZM1029.1 543.7L1029.1 543.7L1037.4 543.7Q1037.3 541.8 1036.2 540.6Q1035.1 539.4 1033.3 539.4L1033.3 539.4Q1031.6 539.4 1030.4 540.6Q1029.2 541.8 1029.1 543.7ZM1044.8 552.5Q1044.4 552.9 1043.9 552.9Q1043.3 552.9 1042.9 552.5Q1042.6 552.2 1042.6 551.6L1042.6 551.6L1042.6 538.5Q1042.6 537.9 1042.9 537.5Q1043.3 537.2 1043.8 537.2Q1044.3 537.2 1044.6 537.5Q1045.0 537.9 1045.0 538.5L1045.0 538.5L1045.0 539.9L1045.0 539.9Q1045.6 538.6 1046.7 537.9Q1047.9 537.2 1049.4 537.2L1049.4 537.2Q1050.9 537.2 1052.0 537.9Q1053.1 538.7 1053.6 540.1L1053.6 540.1L1053.7 540.1Q1054.3 538.7 1055.6 537.9Q1056.9 537.2 1058.5 537.2L1058.5 537.2Q1060.7 537.2 1062.1 538.5Q1063.4 539.9 1063.4 542.1L1063.4 542.1L1063.4 551.6Q1063.4 552.2 1063.1 552.5Q1062.7 552.9 1062.2 552.9Q1061.6 552.9 1061.2 552.5Q1060.9 552.2 1060.9 551.6L1060.9 551.6L1060.9 542.7Q1060.9 541.2 1060.1 540.3Q1059.2 539.4 1057.7 539.4Q1056.2 539.4 1055.3 540.4Q1054.3 541.4 1054.3 543.0L1054.3 543.0L1054.3 551.6Q1054.3 552.2 1053.9 552.5Q1053.6 552.9 1053.0 552.9Q1052.4 552.9 1052.1 552.5Q1051.7 552.2 1051.7 551.6L1051.7 551.6L1051.7 542.5Q1051.7 541.1 1050.9 540.2Q1050.0 539.4 1048.6 539.4L1048.6 539.4Q1047.1 539.4 1046.1 540.5Q1045.1 541.5 1045.1 543.1L1045.1 543.1L1045.1 551.6Q1045.1 552.2 1044.8 552.5Z M1075.5 552.5Q1075.1 552.9 1074.5 552.9Q1073.9 552.9 1073.6 552.5Q1073.2 552.1 1073.2 551.5L1073.2 551.5L1073.2 532.7Q1073.2 532.1 1073.6 531.7Q1073.9 531.3 1074.5 531.3Q1075.1 531.3 1075.5 531.7Q1075.9 532.1 1075.9 532.7L1075.9 532.7L1075.9 541.8L1076.0 541.8L1085.4 531.8Q1085.9 531.3 1086.5 531.3L1086.5 531.3Q1087.0 531.3 1087.3 531.7Q1087.7 532.0 1087.7 532.5L1087.7 532.5Q1087.7 533.0 1087.3 533.3L1087.3 533.3L1080.1 540.9L1088.2 550.6Q1088.5 551.1 1088.5 551.6L1088.5 551.6Q1088.5 552.2 1088.2 552.5Q1087.8 552.9 1087.3 552.9L1087.3 552.9Q1086.6 552.9 1086.1 552.2L1086.1 552.2L1078.2 542.8L1075.9 545.3L1075.9 551.5Q1075.9 552.1 1075.5 552.5ZM1096.5 552.9L1096.5 552.9Q1094.0 552.9 1092.6 551.4Q1091.2 549.9 1091.2 547.3L1091.2 547.3L1091.2 538.5Q1091.2 537.9 1091.6 537.5Q1091.9 537.2 1092.5 537.2Q1093.0 537.2 1093.4 537.5Q1093.8 537.9 1093.8 538.5L1093.8 538.5L1093.8 546.9Q1093.8 550.7 1097.3 550.7L1097.3 550.7Q1099.1 550.7 1100.2 549.5Q1101.2 548.3 1101.2 546.4L1101.2 546.4L1101.2 538.5Q1101.2 537.9 1101.6 537.5Q1102.0 537.2 1102.5 537.2Q1103.1 537.2 1103.4 537.5Q1103.8 537.9 1103.8 538.5L1103.8 538.5L1103.8 551.6Q1103.8 552.2 1103.5 552.6Q1103.1 552.9 1102.6 552.9Q1102.1 552.9 1101.7 552.6Q1101.4 552.2 1101.4 551.6L1101.4 551.6L1101.4 550.2L1101.3 550.2Q1099.9 552.9 1096.5 552.9ZM1107.9 549.1L1107.9 549.1L1107.9 539.5L1106.6 539.5Q1106.1 539.5 1105.8 539.3Q1105.5 539.0 1105.5 538.5L1105.5 538.5Q1105.5 538.0 1105.8 537.7Q1106.1 537.4 1106.6 537.4L1106.6 537.4L1107.9 537.4L1107.9 534.8Q1107.9 534.2 1108.3 533.8Q1108.6 533.5 1109.2 533.5Q1109.7 533.5 1110.1 533.8Q1110.5 534.2 1110.5 534.8L1110.5 534.8L1110.5 537.4L1112.4 537.4Q1113.0 537.4 1113.3 537.7Q1113.6 538.0 1113.6 538.5L1113.6 538.5Q1113.6 539.0 1113.3 539.3Q1113.0 539.5 1112.4 539.5L1112.4 539.5L1110.5 539.5L1110.5 548.6Q1110.5 549.6 1110.9 550.0Q1111.3 550.5 1112.2 550.6L1112.2 550.6L1112.4 550.6Q1113.6 550.7 1113.6 551.6L1113.6 551.6Q1113.6 552.2 1113.2 552.5Q1112.8 552.8 1111.8 552.8L1111.8 552.8L1111.6 552.8Q1107.9 552.8 1107.9 549.1ZM1121.4 552.9L1121.4 552.9Q1119.4 552.9 1117.9 552.1Q1116.4 551.2 1115.9 549.8L1115.9 549.8Q1115.7 549.5 1115.7 549.2L1115.7 549.2Q1115.7 548.7 1116.1 548.4Q1116.4 548.2 1116.9 548.2L1116.9 548.2Q1117.6 548.2 1118.0 548.9L1118.0 548.9Q1118.6 550.0 1119.4 550.4Q1120.2 550.8 1121.6 550.8L1121.6 550.8Q1123.1 550.8 1124.0 550.2Q1124.9 549.6 1124.9 548.6L1124.9 548.6Q1124.9 547.7 1124.4 547.3Q1123.8 546.8 1122.5 546.5L1122.5 546.5L1120.2 545.9Q1115.9 544.8 1115.9 541.6L1115.9 541.6Q1115.9 539.6 1117.5 538.4Q1119.0 537.2 1121.6 537.2L1121.6 537.2Q1123.5 537.2 1125.0 538.1Q1126.5 539.0 1126.8 540.4L1126.8 540.4Q1126.8 540.6 1126.8 540.8L1126.8 540.8Q1126.8 541.2 1126.5 541.5Q1126.3 541.8 1125.8 541.8L1125.8 541.8Q1125.0 541.8 1124.7 541.1L1124.7 541.1Q1124.2 540.1 1123.4 539.7Q1122.7 539.3 1121.5 539.3L1121.5 539.3Q1120.1 539.3 1119.2 539.9Q1118.4 540.5 1118.4 541.5L1118.4 541.5Q1118.4 543.1 1120.9 543.7L1120.9 543.7L1123.1 544.2Q1125.5 544.8 1126.5 545.8Q1127.5 546.7 1127.5 548.4L1127.5 548.4Q1127.5 550.4 1125.8 551.7Q1124.1 552.9 1121.4 552.9ZM1134.5 552.9L1134.5 552.9Q1132.3 552.9 1130.9 551.7Q1129.5 550.4 1129.5 548.4L1129.5 548.4Q1129.5 546.4 1130.9 545.2Q1132.3 544.1 1135.0 543.9L1135.0 543.9L1139.4 543.7L1139.4 542.4Q1139.4 541.0 1138.5 540.2Q1137.6 539.4 1136.0 539.4L1136.0 539.4Q1134.8 539.4 1133.9 539.9Q1133.0 540.4 1132.4 541.5L1132.4 541.5Q1132.1 542.1 1131.3 542.1L1131.3 542.1Q1130.8 542.1 1130.5 541.8Q1130.2 541.5 1130.2 541.0Q1130.2 540.5 1130.5 539.9L1130.5 539.9Q1131.2 538.7 1132.7 537.9Q1134.2 537.2 1136.1 537.2L1136.1 537.2Q1138.8 537.2 1140.3 538.5Q1141.9 539.9 1141.9 542.1L1141.9 542.1L1141.9 551.6Q1141.9 552.2 1141.6 552.6Q1141.2 552.9 1140.7 552.9L1140.7 552.9Q1140.2 552.9 1139.8 552.6Q1139.5 552.2 1139.5 551.6L1139.5 551.6L1139.5 550.0L1139.4 550.0Q1138.8 551.3 1137.4 552.1Q1136.1 552.9 1134.5 552.9ZM1135.1 550.8L1135.1 550.8Q1136.9 550.8 1138.1 549.6Q1139.4 548.5 1139.4 546.9L1139.4 546.9L1139.4 545.6L1135.3 545.9Q1133.7 546.0 1132.9 546.6Q1132.1 547.3 1132.1 548.4Q1132.1 549.4 1132.9 550.1Q1133.7 550.8 1135.1 550.8ZM1147.3 552.5Q1147.0 552.9 1146.4 552.9Q1145.9 552.9 1145.5 552.5Q1145.2 552.2 1145.2 551.6L1145.2 551.6L1145.2 538.5Q1145.2 537.9 1145.5 537.5Q1145.8 537.2 1146.4 537.2Q1146.9 537.2 1147.2 537.5Q1147.6 537.9 1147.6 538.5L1147.6 538.5L1147.6 539.9L1147.6 539.9Q1148.3 538.6 1149.5 537.9Q1150.7 537.2 1152.4 537.2L1152.4 537.2Q1154.9 537.2 1156.3 538.7Q1157.7 540.2 1157.7 542.8L1157.7 542.8L1157.7 551.6Q1157.7 552.2 1157.4 552.5Q1157.0 552.9 1156.4 552.9Q1155.9 552.9 1155.5 552.5Q1155.2 552.2 1155.2 551.6L1155.2 551.6L1155.2 543.2Q1155.2 541.4 1154.3 540.4Q1153.4 539.4 1151.7 539.4L1151.7 539.4Q1149.9 539.4 1148.8 540.6Q1147.7 541.8 1147.7 543.7L1147.7 543.7L1147.7 551.6Q1147.7 552.2 1147.3 552.5Z "/></svg>