<svg width="1200" height="630" viewBox="0 0 1200 630" xmlns="http://www.w3.org/2000/svg"><mask id="satori_om-id"><rect x="0" y="0" width="1200" height="630" fill="#fff"/></mask><mask id="satori_om-id-0"><rect x="0" y="0" width="1200" height="630" fill="#fff"/></mask><rect x="0" y="0" width="1200" height="630" fill="#f2f2f2"/><mask id="satori_om-id-0-0"><rect x="0" y="0" width="1200" height="441" fill="#fff"/></mask><mask id="satori_om-id-0-0-0"><rect x="40" y="136" width="1120" height="36" fill="#fff"/></mask><path fill="#8e8e8e" d="M49.2 165.0L49.2 165.0Q46.2 165.0 44.1 163.9Q42.1 162.7 41.4 160.8L41.4 160.8Q41.2 160.2 41.2 159.8L41.2 159.8Q41.2 159.0 41.6 158.6Q42.1 158.2 42.7 158.2L42.7 158.2Q43.8 158.2 44.3 159.3L44.3 159.3Q44.8 160.8 46.1 161.5Q47.4 162.2 49.3 162.2L49.3 162.2Q51.3 162.2 52.6 161.3Q53.9 160.4 53.9 159.0L53.9 159.0Q53.9 157.7 53.0 156.9Q52.1 156.1 50.0 155.7L50.0 155.7L47.6 155.2Q44.5 154.5 43.0 153.1Q41.5 151.6 41.5 149.3L41.5 149.3Q41.5 146.6 43.7 144.9Q45.8 143.2 49.2 143.2L49.2 143.2Q51.9 143.2 53.9 144.4Q55.9 145.6 56.5 147.7L56.5 147.7Q56.6 148.0 56.6 148.5L56.6 148.5Q56.6 149.1 56.2 149.5Q55.8 149.9 55.2 149.9L55.2 149.9Q54.1 149.9 53.6 148.8L53.6 148.8Q52.6 146.0 49.1 146.0L49.1 146.0Q47.3 146.0 46.0 146.8Q44.8 147.7 44.8 149.1L44.8 149.1Q44.8 150.3 45.7 151.1Q46.7 151.8 48.7 152.3L48.7 152.3L51.0 152.7Q54.3 153.4 55.8 154.8Q57.2 156.2 57.2 158.5L57.2 158.5Q57.2 161.5 55.0 163.3Q52.9 165.0 49.2 165.0ZM65.1 164.9L65.1 164.9Q62.6 164.9 61.2 163.4Q59.7 161.9 59.7 159.2L59.7 159.2L59.7 150.7Q59.7 149.9 60.1 149.4Q60.6 149.0 61.3 149.0L61.3 149.0Q62.0 149.0 62.4 149.4Q62.9 149.9 62.9 150.7L62.9 150.7L62.9 158.6Q62.9 160.4 63.7 161.3Q64.6 162.2 66.2 162.2L66.2 162.2Q67.9 162.2 68.9 161.1Q69.8 160.0 69.8 158.2L69.8 158.2L69.8 150.7Q69.8 149.9 70.3 149.4Q70.7 149.0 71.4 149.0L71.4 149.0Q72.1 149.0 72.6 149.4Q73.0 149.9 73.0 150.7L73.0 150.7L73.0 163.3Q73.0 164.1 72.6 164.5Q72.2 164.9 71.5 164.9Q70.8 164.9 70.4 164.5Q70.0 164.1 70.0 163.3L70.0 163.3L70.0 162.1L69.9 162.1Q68.6 164.9 65.1 164.9ZM77.7 164.9L77.7 164.9Q77.0 164.9 76.6 164.5Q76.1 164.0 76.1 163.3L76.1 163.3L76.1 150.6Q76.1 149.8 76.5 149.4Q76.9 149.0 77.6 149.0Q78.3 149.0 78.7 149.4Q79.2 149.9 79.2 150.6L79.2 150.6L79.2 151.8L79.2 151.8Q80.6 149.0 84.1 149.0L84.1 149.0Q86.6 149.0 88.0 150.5Q89.4 152.0 89.4 154.7L89.4 154.7L89.4 163.3Q89.4 164.0 89.0 164.5Q88.5 164.9 87.8 164.9L87.8 164.9Q87.1 164.9 86.7 164.5Q86.2 164.0 86.2 163.3L86.2 163.3L86.2 155.3Q86.2 153.5 85.4 152.6Q84.6 151.7 82.9 151.7L82.9 151.7Q81.3 151.7 80.3 152.8Q79.3 153.9 79.3 155.7L79.3 155.7L79.3 163.3Q79.3 164.0 78.8 164.5Q78.4 164.9 77.7 164.9ZM98.2 164.9L98.2 164.9Q95.3 164.9 93.5 162.8Q91.8 160.6 91.8 157.0Q91.8 153.3 93.5 151.2Q95.3 149.0 98.2 149.0L98.2 149.0Q99.8 149.0 101.1 149.8Q102.4 150.5 103.0 151.8L103.0 151.8L103.1 151.8L103.1 144.9Q103.1 144.1 103.5 143.7Q104.0 143.2 104.7 143.2L104.7 143.2Q105.4 143.2 105.8 143.7Q106.3 144.2 106.3 144.9L106.3 144.9L106.3 163.4Q106.3 164.1 105.9 164.5Q105.4 164.9 104.7 164.9L104.7 164.9Q104.0 164.9 103.6 164.5Q103.1 164.1 103.1 163.4L103.1 163.4L103.1 161.9L103.1 161.9Q102.4 163.3 101.2 164.1Q100.0 164.9 98.2 164.9ZM99.1 162.2L99.1 162.2Q100.9 162.2 102.0 160.8Q103.1 159.4 103.1 157.0L103.1 157.0Q103.1 154.6 102.0 153.1Q100.9 151.7 99.1 151.7L99.1 151.7Q97.2 151.7 96.1 153.1Q95.0 154.5 95.0 157.0L95.0 157.0Q95.0 159.4 96.1 160.8Q97.2 162.2 99.1 162.2ZM114.0 164.9L114.0 164.9Q111.8 164.9 110.3 163.6Q108.9 162.3 108.9 160.3L108.9 160.3Q108.9 158.3 110.4 157.1Q111.9 155.9 114.6 155.7L114.6 155.7L118.9 155.5L118.9 154.3Q118.9 153.0 118.0 152.3Q117.2 151.6 115.8 151.6L115.8 151.6Q114.6 151.6 113.8 152.0Q113.0 152.5 112.3 153.5L112.3 153.5Q111.9 154.2 111.1 154.2L111.1 154.2Q110.5 154.2 110.1 153.8Q109.7 153.4 109.7 152.9L109.7 152.9Q109.7 152.3 110.0 151.8L110.0 151.8Q110.6 150.5 112.2 149.8Q113.8 149.0 115.9 149.0L115.9 149.0Q118.7 149.0 120.3 150.4Q122.0 151.7 122.0 154.0L122.0 154.0L122.0 163.3Q122.0 164.1 121.6 164.5Q121.2 164.9 120.5 164.9L120.5 164.9Q119.8 164.9 119.4 164.5Q119.0 164.1 119.0 163.4L119.0 163.4L119.0 162.1L118.9 162.1Q118.2 163.4 116.9 164.2Q115.6 164.9 114.0 164.9ZM114.9 162.4L114.9 162.4Q116.6 162.4 117.7 161.4Q118.9 160.4 118.9 158.9L118.9 158.9L118.9 157.7L115.0 157.9Q113.6 158.0 112.9 158.6Q112.1 159.2 112.1 160.2L112.1 160.2Q112.1 161.2 112.9 161.8Q113.6 162.4 114.9 162.4ZM127.0 170.4L127.0 170.4Q125.9 170.4 125.3 170.0Q124.7 169.6 124.7 168.9L124.7 168.9Q124.7 168.4 125.0 168.1Q125.4 167.8 125.9 167.8L125.9 167.8Q126.1 167.8 126.3 167.8Q126.6 167.8 126.7 167.8L126.7 167.8Q128.3 167.8 129.1 165.7L129.1 165.7L129.4 164.8L124.2 151.3Q124.1 150.9 124.1 150.4L124.1 150.4Q124.1 149.8 124.5 149.4Q125.0 149.0 125.7 149.0L125.7 149.0Q126.3 149.0 126.6 149.3Q127.0 149.5 127.2 150.2L127.2 150.2L131.1 161.8L131.2 161.8L135.1 150.2Q135.3 149.5 135.6 149.3Q136.0 149.0 136.6 149.0L136.6 149.0Q137.3 149.0 137.7 149.4Q138.1 149.8 138.1 150.4L138.1 150.4Q138.1 150.8 138.0 151.3L138.0 151.3L132.6 165.4Q131.6 168.2 130.4 169.3Q129.1 170.4 127.0 170.4ZM142.6 161.1L142.6 161.1Q143.3 161.1 143.7 161.5Q144.1 161.8 144.1 162.4L144.1 162.4Q144.1 162.8 144.0 163.3L144.0 163.3L142.7 168.3Q142.4 169.4 141.4 169.4L141.4 169.4Q140.8 169.4 140.5 169.1Q140.1 168.7 140.1 168.2L140.1 168.2Q140.1 168.1 140.2 167.8L140.2 167.8L141.1 162.4Q141.3 161.1 142.6 161.1Z M167.5 164.7L155.8 164.7Q155.0 164.7 154.6 164.3Q154.2 163.9 154.2 163.3L154.2 163.3Q154.2 162.8 154.4 162.5Q154.6 162.1 155.1 161.6L155.1 161.6L161.7 154.9Q163.8 152.8 164.5 151.7Q165.2 150.6 165.2 149.3L165.2 149.3Q165.2 147.8 164.1 146.8Q163.1 145.8 161.5 145.8L161.5 145.8Q158.4 145.8 157.2 149.0L157.2 149.0Q157.0 149.5 156.7 149.8Q156.3 150.0 155.8 150.0L155.8 150.0Q155.1 150.0 154.7 149.6Q154.3 149.3 154.3 148.6L154.3 148.6Q154.3 148.3 154.4 148.0L154.4 148.0Q154.6 147.1 155.1 146.3Q155.7 145.4 156.5 144.7Q157.4 144.0 158.7 143.6Q160 143.1 161.5 143.1L161.5 143.1Q164.5 143.1 166.5 144.8Q168.4 146.5 168.4 149.1L168.4 149.1Q168.4 150.9 167.4 152.5Q166.4 154.0 163.7 156.8L163.7 156.8L158.7 161.8L158.7 161.9L167.5 161.9Q168.1 161.9 168.5 162.3Q168.9 162.7 168.9 163.3L168.9 163.3Q168.9 163.9 168.5 164.3Q168.1 164.7 167.5 164.7L167.5 164.7ZM179.6 165.1L179.6 165.1Q177.2 165.1 175.3 163.9Q173.5 162.6 172.4 160.3L172.4 160.3Q171.3 157.9 171.3 154.4L171.3 154.4Q171.3 149.1 173.5 146.1Q175.8 143.1 179.7 143.1L179.7 143.1Q181.9 143.1 183.7 144.0Q185.4 144.9 186.3 146.5L186.3 146.5Q186.6 147.1 186.6 147.7L186.6 147.7Q186.6 148.3 186.2 148.7Q185.8 149.1 185.2 149.1L185.2 149.1Q184.7 149.1 184.3 148.8Q184.0 148.6 183.6 148.0L183.6 148.0Q182.1 145.9 179.7 145.9L179.7 145.9Q177.2 145.9 175.9 148.0Q174.5 150.1 174.5 154.0L174.5 154.0L174.5 154.2L174.5 154.2Q175.2 152.7 176.7 151.7Q178.3 150.8 180.4 150.8L180.4 150.8Q183.4 150.8 185.4 152.8Q187.3 154.7 187.3 157.8L187.3 157.8Q187.3 160.9 185.2 163.0Q183.0 165.1 179.6 165.1ZM179.6 162.3L179.6 162.3Q181.5 162.3 182.8 161.0Q184.1 159.7 184.1 157.9L184.1 157.9Q184.1 155.9 182.8 154.7Q181.6 153.5 179.6 153.5Q177.7 153.5 176.4 154.7Q175.1 155.9 175.1 157.8L175.1 157.8Q175.1 159.7 176.4 161.0Q177.7 162.3 179.6 162.3Z M201.5 165.0L201.5 165.0Q199.3 165.0 197.7 164.0Q196.1 163.0 195.5 161.3L195.5 161.3Q195.2 160.4 195.2 159.8L195.2 159.8Q195.2 159.0 195.6 158.6Q196.0 158.1 196.7 158.1L196.7 158.1Q197.9 158.1 198.3 159.5L198.3 159.5Q198.6 160.8 199.4 161.4Q200.3 162.1 201.5 162.1L201.5 162.1Q203.1 162.1 203.9 161.1Q204.8 160.2 204.8 158.4L204.8 158.4L204.8 145.0Q204.8 144.2 205.2 143.7Q205.7 143.3 206.4 143.3Q207.2 143.3 207.6 143.7Q208.1 144.2 208.1 145.0L208.1 145.0L208.1 158.4Q208.1 161.5 206.3 163.3Q204.6 165.0 201.5 165.0ZM216.1 164.9L216.1 164.9Q213.9 164.9 212.4 163.6Q211.0 162.3 211.0 160.3L211.0 160.3Q211.0 158.3 212.5 157.1Q214.0 155.9 216.7 155.7L216.7 155.7L221.0 155.5L221.0 154.3Q221.0 153.0 220.1 152.3Q219.3 151.6 217.9 151.6L217.9 151.6Q216.7 151.6 215.9 152.0Q215.1 152.5 214.5 153.5L214.5 153.5Q214.0 154.2 213.2 154.2L213.2 154.2Q212.6 154.2 212.2 153.8Q211.8 153.4 211.8 152.9L211.8 152.9Q211.8 152.3 212.1 151.8L212.1 151.8Q212.7 150.5 214.3 149.8Q215.9 149.0 218.0 149.0L218.0 149.0Q220.8 149.0 222.5 150.4Q224.1 151.7 224.1 154.0L224.1 154.0L224.1 163.3Q224.1 164.1 223.7 164.5Q223.3 164.9 222.6 164.9L222.6 164.9Q221.9 164.9 221.5 164.5Q221.1 164.1 221.1 163.4L221.1 163.4L221.1 162.1L221.0 162.1Q220.4 163.4 219.0 164.2Q217.7 164.9 216.1 164.9ZM217.0 162.4L217.0 162.4Q218.7 162.4 219.8 161.4Q221.0 160.4 221.0 158.9L221.0 158.9L221.0 157.7L217.2 157.9Q215.7 158.0 215.0 158.6Q214.2 159.2 214.2 160.2L214.2 160.2Q214.2 161.2 215.0 161.8Q215.8 162.4 217.0 162.4ZM228.8 164.9L228.8 164.9Q228.0 164.9 227.6 164.5Q227.2 164.0 227.2 163.3L227.2 163.3L227.2 150.6Q227.2 149.8 227.6 149.4Q228.0 149.0 228.7 149.0Q229.4 149.0 229.8 149.4Q230.2 149.9 230.2 150.6L230.2 150.6L230.2 151.8L230.3 151.8Q231.6 149.0 235.1 149.0L235.1 149.0Q237.7 149.0 239.1 150.5Q240.5 152.0 240.5 154.7L240.5 154.7L240.5 163.3Q240.5 164.0 240.0 164.5Q239.6 164.9 238.9 164.9L238.9 164.9Q238.2 164.9 237.7 164.5Q237.3 164.0 237.3 163.3L237.3 163.3L237.3 155.3Q237.3 153.5 236.5 152.6Q235.6 151.7 234.0 151.7L234.0 151.7Q232.3 151.7 231.3 152.8Q230.3 153.9 230.3 155.7L230.3 155.7L230.3 163.3Q230.3 164.0 229.9 164.5Q229.5 164.9 228.8 164.9ZM248.8 164.9L248.8 164.9Q246.3 164.9 244.9 163.4Q243.4 161.9 243.4 159.2L243.4 159.2L243.4 150.7Q243.4 149.9 243.9 149.4Q244.3 149.0 245.0 149.0L245.0 149.0Q245.7 149.0 246.2 149.4Q246.6 149.9 246.6 150.7L246.6 150.7L246.6 158.6Q246.6 160.4 247.4 161.3Q248.3 162.2 249.9 162.2L249.9 162.2Q251.6 162.2 252.6 161.1Q253.6 160.0 253.6 158.2L253.6 158.2L253.6 150.7Q253.6 149.9 254.0 149.4Q254.4 149.0 255.1 149.0L255.1 149.0Q255.9 149.0 256.3 149.4Q256.7 149.9 256.7 150.7L256.7 150.7L256.7 163.3Q256.7 164.1 256.3 164.5Q255.9 164.9 255.2 164.9Q254.5 164.9 254.1 164.5Q253.7 164.1 253.7 163.3L253.7 163.3L253.7 162.1L253.6 162.1Q252.3 164.9 248.8 164.9ZM264.4 164.9L264.4 164.9Q262.1 164.9 260.6 163.6Q259.2 162.3 259.2 160.3L259.2 160.3Q259.2 158.3 260.7 157.1Q262.2 155.9 264.9 155.7L264.9 155.7L269.2 155.5L269.2 154.3Q269.2 153.0 268.4 152.3Q267.5 151.6 266.1 151.6L266.1 151.6Q264.9 151.6 264.1 152.0Q263.3 152.5 262.7 153.5L262.7 153.5Q262.2 154.2 261.4 154.2L261.4 154.2Q260.8 154.2 260.4 153.8Q260.0 153.4 260.0 152.9L260.0 152.9Q260.0 152.3 260.3 151.8L260.3 151.8Q260.9 150.5 262.5 149.8Q264.1 149.0 266.2 149.0L266.2 149.0Q269.0 149.0 270.7 150.4Q272.3 151.7 272.3 154.0L272.3 154.0L272.3 163.3Q272.3 164.1 271.9 164.5Q271.5 164.9 270.8 164.9L270.8 164.9Q270.1 164.9 269.7 164.5Q269.3 164.1 269.3 163.4L269.3 163.4L269.3 162.1L269.2 162.1Q268.6 163.4 267.2 164.2Q265.9 164.9 264.4 164.9ZM265.2 162.4L265.2 162.4Q266.9 162.4 268.0 161.4Q269.2 160.4 269.2 158.9L269.2 158.9L269.2 157.7L265.4 157.9Q263.9 158.0 263.2 158.6Q262.4 159.2 262.4 160.2L262.4 160.2Q262.4 161.2 263.2 161.8Q264.0 162.4 265.2 162.4ZM277.0 164.9L277.0 164.9Q276.3 164.9 275.8 164.5Q275.4 164.0 275.4 163.3L275.4 163.3L275.4 150.6Q275.4 149.9 275.8 149.4Q276.2 149.0 276.9 149.0L276.9 149.0Q277.6 149.0 278.0 149.4Q278.4 149.9 278.4 150.6L278.4 150.6L278.4 151.9L278.5 151.9Q278.8 150.6 279.7 149.8Q280.7 149.0 281.8 149.0L281.8 149.0Q282.7 149.0 283.1 149.4L283.1 149.4Q283.5 149.7 283.5 150.5L283.5 150.5Q283.5 151.2 283.0 151.6L283.0 151.6Q282.6 152.0 281.6 152.0L281.6 152.0Q280.0 152.0 279.3 153.0Q278.5 153.9 278.5 155.4L278.5 155.4L278.5 163.3Q278.5 164.0 278.1 164.5Q277.7 164.9 277.0 164.9ZM287.1 170.4L287.1 170.4Q286.0 170.4 285.4 170.0Q284.9 169.6 284.9 168.9L284.9 168.9Q284.9 168.4 285.2 168.1Q285.5 167.8 286.1 167.8L286.1 167.8Q286.3 167.8 286.5 167.8Q286.7 167.8 286.9 167.8L286.9 167.8Q288.5 167.8 289.3 165.7L289.3 165.7L289.6 164.8L284.4 151.3Q284.2 150.9 284.2 150.4L284.2 150.4Q284.2 149.8 284.7 149.4Q285.1 149.0 285.8 149.0L285.8 149.0Q286.4 149.0 286.8 149.3Q287.1 149.5 287.4 150.2L287.4 150.2L291.3 161.8L291.3 161.8L295.3 150.2Q295.5 149.5 295.8 149.3Q296.2 149.0 296.8 149.0L296.8 149.0Q297.4 149.0 297.9 149.4Q298.3 149.8 298.3 150.4L298.3 150.4Q298.3 150.8 298.1 151.3L298.1 151.3L292.8 165.4Q291.8 168.2 290.5 169.3Q289.3 170.4 287.1 170.4Z M319.7 164.7L308.1 164.7Q307.3 164.7 306.9 164.3Q306.5 163.9 306.5 163.3L306.5 163.3Q306.5 162.8 306.7 162.5Q306.9 162.1 307.4 161.6L307.4 161.6L314.0 154.9Q316.1 152.8 316.8 151.7Q317.5 150.6 317.5 149.3L317.5 149.3Q317.5 147.8 316.4 146.8Q315.4 145.8 313.8 145.8L313.8 145.8Q310.6 145.8 309.5 149.0L309.5 149.0Q309.3 149.5 309.0 149.8Q308.6 150.0 308.1 150.0L308.1 150.0Q307.4 150.0 307.0 149.6Q306.6 149.3 306.6 148.6L306.6 148.6Q306.6 148.3 306.7 148.0L306.7 148.0Q306.9 147.1 307.4 146.3Q308.0 145.4 308.8 144.7Q309.7 144.0 311.0 143.6Q312.3 143.1 313.8 143.1L313.8 143.1Q316.8 143.1 318.8 144.8Q320.7 146.5 320.7 149.1L320.7 149.1Q320.7 150.9 319.7 152.5Q318.7 154.0 316.0 156.8L316.0 156.8L311.0 161.8L311.0 161.9L319.7 161.9Q320.4 161.9 320.8 162.3Q321.2 162.7 321.2 163.3L321.2 163.3Q321.2 163.9 320.8 164.3Q320.4 164.7 319.7 164.7L319.7 164.7ZM337.6 162.1Q335.5 165.1 331.7 165.1Q327.9 165.1 325.7 162.1Q323.6 159.2 323.6 154.1L323.6 154.1Q323.6 149.0 325.7 146.1Q327.9 143.1 331.7 143.1L331.7 143.1Q335.4 143.1 337.6 146.1Q339.8 149.0 339.8 154.1L339.8 154.1Q339.8 159.1 337.6 162.1ZM331.7 162.3L331.7 162.3Q334.0 162.3 335.2 160.1Q336.4 157.9 336.4 154.1L336.4 154.1Q336.4 150.3 335.2 148.1Q333.9 145.9 331.7 145.9Q329.4 145.9 328.2 148.1Q326.9 150.3 326.9 154.1L326.9 154.1Q326.9 157.9 328.1 160.1Q329.4 162.3 331.7 162.3ZM355.8 164.7L344.2 164.7Q343.4 164.7 343.0 164.3Q342.6 163.9 342.6 163.3L342.6 163.3Q342.6 162.8 342.8 162.5Q343.0 162.1 343.5 161.6L343.5 161.6L350.1 154.9Q352.2 152.8 352.9 151.7Q353.5 150.6 353.5 149.3L353.5 149.3Q353.5 147.8 352.5 146.8Q351.5 145.8 349.9 145.8L349.9 145.8Q346.7 145.8 345.6 149.0L345.6 149.0Q345.4 149.5 345.1 149.8Q344.7 150.0 344.1 150.0L344.1 150.0Q343.5 150.0 343.1 149.6Q342.7 149.3 342.7 148.6L342.7 148.6Q342.7 148.3 342.8 148.0L342.8 148.0Q343.0 147.1 343.5 146.3Q344.1 145.4 344.9 144.7Q345.8 144.0 347.1 143.6Q348.4 143.1 349.9 143.1L349.9 143.1Q352.9 143.1 354.9 144.8Q356.8 146.5 356.8 149.1L356.8 149.1Q356.8 150.9 355.8 152.5Q354.8 154.0 352.1 156.8L352.1 156.8L347.1 161.8L347.1 161.9L355.8 161.9Q356.5 161.9 356.9 162.3Q357.3 162.7 357.3 163.3L357.3 163.3Q357.3 163.9 356.9 164.3Q356.5 164.7 355.8 164.7L355.8 164.7ZM367.6 165.1L367.6 165.1Q365.2 165.1 363.3 164.0Q361.4 162.9 360.7 161.2L360.7 161.2Q360.4 160.5 360.4 159.8L360.4 159.8Q360.4 159.1 360.7 158.7Q361.1 158.3 361.8 158.3L361.8 158.3Q362.4 158.3 362.7 158.6Q363.0 158.8 363.3 159.4L363.3 159.4Q363.8 160.8 364.9 161.5Q366.0 162.3 367.6 162.3L367.6 162.3Q369.6 162.3 370.9 161.0Q372.2 159.8 372.2 157.8L372.2 157.8Q372.2 155.8 370.9 154.6Q369.6 153.4 367.6 153.4L367.6 153.4Q365.5 153.4 364.2 154.7L364.2 154.7Q363.5 155.5 363.1 155.6Q362.8 155.8 362.2 155.8L362.2 155.8Q361.4 155.8 361.0 155.4Q360.6 154.9 360.6 154.2L360.6 154.2L360.6 153.9L361.3 145.8Q361.4 144.6 362.0 144.0Q362.6 143.5 363.9 143.5L363.9 143.5L372.9 143.5Q373.5 143.5 373.9 143.9Q374.3 144.3 374.3 144.9Q374.3 145.5 373.9 145.9Q373.5 146.3 372.9 146.3L372.9 146.3L364.2 146.3L363.6 152.9L363.6 152.9Q364.3 151.9 365.6 151.3Q366.8 150.8 368.4 150.8L368.4 150.8Q371.5 150.8 373.4 152.7Q375.4 154.6 375.4 157.7L375.4 157.7Q375.4 161.0 373.2 163.0Q371.0 165.1 367.6 165.1Z "/><mask id="satori_om-id-0-0-1"><rect x="40" y="217" width="1120" height="83" fill="#fff"/></mask><path fill="#224d67" d="M50.3 279.1Q49.3 280.2 47.5 280.2Q45.7 280.2 44.7 279.1Q43.7 278.1 43.7 276.2L43.7 276.2L43.7 241.2Q43.7 239.4 44.7 238.3Q45.7 237.3 47.5 237.3L47.5 237.3L60.5 237.3Q67.3 237.3 71.2 240.8Q75.1 244.4 75.1 250.5L75.1 250.5Q75.1 254.6 73.1 257.8Q71.1 261.0 67.4 262.4L67.4 262.4L74.1 274.1Q74.9 275.5 74.9 276.7L74.9 276.7Q74.9 278.2 73.8 279.2Q72.8 280.2 71.1 280.2L71.1 280.2Q69.8 280.2 69.0 279.6Q68.2 279.0 67.3 277.4L67.3 277.4L59.7 263.7L51.3 263.7L51.3 276.2Q51.3 278.1 50.3 279.1ZM51.3 243.4L51.3 257.9L59.8 257.9Q63.4 257.9 65.4 256.0Q67.4 254.1 67.4 250.6L67.4 250.6Q67.4 247.3 65.3 245.4Q63.2 243.4 59.7 243.4L59.7 243.4L51.3 243.4ZM94.3 280.2L94.3 280.2Q87.2 280.2 83.2 276.0Q79.2 271.7 79.2 264.2L79.2 264.2Q79.2 256.7 83.2 252.3Q87.2 247.9 93.9 247.9L93.9 247.9Q100.2 247.9 104.2 251.9Q108.2 256.0 108.2 262.4L108.2 262.4Q108.2 264.0 107.3 264.9Q106.4 265.8 104.8 265.8L104.8 265.8L86.5 265.8L86.5 266.0Q86.5 269.9 88.6 272.3Q90.7 274.6 94.2 274.6L94.2 274.6Q96.7 274.6 98.5 273.6Q100.2 272.7 102.0 270.4L102.0 270.4Q103.0 269.3 104.5 269.3L104.5 269.3Q105.7 269.3 106.5 270.0Q107.4 270.8 107.4 272.1L107.4 272.1Q107.4 272.9 106.9 273.9L106.9 273.9Q105.3 276.9 102.0 278.5Q98.7 280.2 94.3 280.2ZM86.5 261.0L86.5 261.0L101.0 261.0Q100.9 257.6 98.9 255.6Q97.0 253.5 93.9 253.5Q90.8 253.5 88.8 255.6Q86.7 257.7 86.5 261.0ZM116.5 280.2L116.5 280.2Q114.8 280.2 113.8 279.2Q112.9 278.1 112.9 276.3L112.9 276.3L112.9 251.6Q112.9 249.9 113.8 248.9Q114.8 247.9 116.3 247.9Q117.9 247.9 118.9 248.9Q119.9 249.9 119.9 251.6L119.9 251.6L119.9 253.9L120.0 253.9Q121.0 251.2 123.4 249.5Q125.7 247.9 128.9 247.9L128.9 247.9Q132.1 247.9 134.4 249.6Q136.7 251.2 137.5 254.2L137.5 254.2L137.7 254.2Q138.8 251.3 141.4 249.6Q144.0 247.9 147.4 247.9L147.4 247.9Q152.0 247.9 154.7 250.8Q157.5 253.6 157.5 258.3L157.5 258.3L157.5 276.3Q157.5 278.1 156.5 279.1Q155.5 280.2 153.9 280.2L153.9 280.2Q152.2 280.2 151.2 279.1Q150.2 278.1 150.2 276.3L150.2 276.3L150.2 260.1Q150.2 257.2 148.8 255.6Q147.3 254.1 144.6 254.1L144.6 254.1Q142.0 254.1 140.4 255.8Q138.7 257.6 138.7 260.4L138.7 260.4L138.7 276.3Q138.7 278.1 137.8 279.2Q136.8 280.2 135.2 280.2L135.2 280.2Q133.5 280.2 132.6 279.2Q131.6 278.1 131.6 276.3L131.6 276.3L131.6 259.7Q131.6 257.1 130.2 255.6Q128.7 254.1 126.1 254.1L126.1 254.1Q123.5 254.1 121.8 255.9Q120.2 257.8 120.2 260.6L120.2 260.6L120.2 276.3Q120.2 278.1 119.1 279.1Q118.1 280.2 116.5 280.2ZM172.5 280.1L172.5 280.1Q167.9 280.1 165.0 277.5Q162.1 274.9 162.1 270.7L162.1 270.7Q162.1 266.6 165.1 264.2Q168.2 261.8 173.9 261.4L173.9 261.4L182.1 260.9L182.1 258.7Q182.1 256.3 180.6 254.9Q179.0 253.6 176.3 253.6L176.3 253.6Q174.2 253.6 172.7 254.4Q171.2 255.2 169.8 257.2L169.8 257.2Q168.7 258.7 166.9 258.7L166.9 258.7Q165.5 258.7 164.6 257.9Q163.8 257.1 163.8 255.8L163.8 255.8Q163.8 254.8 164.3 253.8L164.3 253.8Q165.4 251.1 168.8 249.5Q172.2 247.9 176.6 247.9L176.6 247.9Q182.4 247.9 185.9 250.7Q189.3 253.5 189.3 258.2L189.3 258.2L189.3 276.5Q189.3 278.2 188.3 279.2Q187.4 280.2 185.8 280.2L185.8 280.2Q184.3 280.2 183.3 279.3Q182.4 278.4 182.3 276.8L182.3 276.8L182.3 274.6L182.1 274.6Q180.8 277.1 178.2 278.6Q175.5 280.1 172.5 280.1ZM174.7 274.6L174.7 274.6Q177.8 274.6 180.0 272.7Q182.1 270.8 182.1 268.1L182.1 268.1L182.1 265.7L174.9 266.1Q172.3 266.3 170.8 267.4Q169.4 268.6 169.4 270.4L169.4 270.4Q169.4 272.3 170.8 273.4Q172.3 274.6 174.7 274.6ZM201.5 279.1Q200.5 280.2 198.8 280.2Q197.1 280.2 196.2 279.1Q195.2 278.1 195.2 276.3L195.2 276.3L195.2 251.6Q195.2 249.9 196.1 248.9Q197.1 247.9 198.7 247.9L198.7 247.9Q200.2 247.9 201.2 248.9Q202.1 249.9 202.1 251.6L202.1 251.6L202.1 254.0L202.3 254.0Q202.9 251.3 204.8 249.6Q206.6 248.0 208.9 248.0L208.9 248.0Q210.6 248.0 211.5 248.8L211.5 248.8Q212.5 249.6 212.5 251.4L212.5 251.4Q212.5 253.1 211.4 254.0L211.4 254.0Q210.4 254.9 208.2 255.0L208.2 255.0Q202.5 255.0 202.5 261.4L202.5 261.4L202.5 276.3Q202.5 278.1 201.5 279.1ZM222.3 279.2Q221.3 280.2 219.7 280.2Q218.0 280.2 217.0 279.2Q216.0 278.1 216.0 276.3L216.0 276.3L216.0 240.6Q216.0 238.7 217.0 237.7Q218.0 236.7 219.7 236.7Q221.3 236.7 222.3 237.7Q223.3 238.7 223.3 240.6L223.3 240.6L223.3 261.4L223.4 261.4L235.6 249.3Q236.9 247.9 238.4 247.9L238.4 247.9Q239.8 247.9 240.7 248.8Q241.6 249.7 241.6 251.0L241.6 251.0Q241.6 252.5 240.3 253.7L240.3 253.7L231.5 262.1L241.2 274.3Q242.2 275.7 242.2 276.9L242.2 276.9Q242.2 278.3 241.2 279.3Q240.2 280.2 238.7 280.2L238.7 280.2Q237.6 280.2 236.9 279.7Q236.2 279.3 235.4 278.1L235.4 278.1L226.1 266.3L223.3 268.9L223.3 276.3Q223.3 278.1 222.3 279.2ZM263.7 265.7L250.4 265.7Q248.9 265.7 247.9 264.8Q246.9 263.9 246.9 262.4Q246.9 260.9 247.9 260.0Q248.9 259.2 250.4 259.2L250.4 259.2L263.7 259.2Q265.2 259.2 266.2 260.0Q267.1 260.9 267.1 262.4Q267.1 263.9 266.2 264.8Q265.2 265.7 263.7 265.7L263.7 265.7ZM280.4 279.1Q279.4 280.2 277.7 280.2Q275.9 280.2 274.9 279.1Q273.9 278.1 273.9 276.2L273.9 276.2L273.9 241.2Q273.9 239.4 274.9 238.3Q275.9 237.3 277.7 237.3L277.7 237.3L290.7 237.3Q297.5 237.3 301.4 240.8Q305.3 244.4 305.3 250.5L305.3 250.5Q305.3 254.6 303.2 257.8Q301.2 261.0 297.6 262.4L297.6 262.4L304.3 274.1Q305.1 275.5 305.1 276.7L305.1 276.7Q305.1 278.2 304.0 279.2Q302.9 280.2 301.3 280.2L301.3 280.2Q299.9 280.2 299.1 279.6Q298.3 279.0 297.4 277.4L297.4 277.4L289.9 263.7L281.4 263.7L281.4 276.2Q281.4 278.1 280.4 279.1ZM281.4 243.4L281.4 257.9L290.0 257.9Q293.6 257.9 295.6 256.0Q297.5 254.1 297.5 250.6L297.5 250.6Q297.5 247.3 295.5 245.4Q293.4 243.4 289.8 243.4L289.8 243.4L281.4 243.4ZM324.4 280.2L324.4 280.2Q317.3 280.2 313.3 276.0Q309.4 271.7 309.4 264.2L309.4 264.2Q309.4 256.7 313.3 252.3Q317.3 247.9 324.0 247.9L324.0 247.9Q330.4 247.9 334.4 251.9Q338.3 256.0 338.3 262.4L338.3 262.4Q338.3 264.0 337.4 264.9Q336.5 265.8 334.9 265.8L334.9 265.8L316.6 265.8L316.6 266.0Q316.6 269.9 318.7 272.3Q320.8 274.6 324.4 274.6L324.4 274.6Q326.8 274.6 328.6 273.6Q330.4 272.7 332.1 270.4L332.1 270.4Q333.2 269.3 334.6 269.3L334.6 269.3Q335.9 269.3 336.7 270.0Q337.5 270.8 337.5 272.1L337.5 272.1Q337.5 272.9 337.0 273.9L337.0 273.9Q335.5 276.9 332.2 278.5Q328.9 280.2 324.4 280.2ZM316.7 261.0L316.7 261.0L331.2 261.0Q331.1 257.6 329.1 255.6Q327.1 253.5 324.1 253.5Q321.0 253.5 318.9 255.6Q316.9 257.7 316.7 261.0ZM349.5 279.2Q348.5 280.2 346.9 280.2Q345.2 280.2 344.2 279.2Q343.2 278.1 343.2 276.3L343.2 276.3L343.2 240.5Q343.2 238.7 344.2 237.7Q345.2 236.7 346.8 236.7L346.8 236.7Q348.5 236.7 349.5 237.7Q350.4 238.7 350.4 240.5L350.4 240.5L350.4 253.9L350.6 253.9Q351.8 251.0 354.4 249.5Q356.9 247.9 360.4 247.9L360.4 247.9Q365.5 247.9 368.4 251.1Q371.3 254.2 371.3 259.6L371.3 259.6L371.3 276.3Q371.3 278.1 370.2 279.2Q369.2 280.2 367.6 280.2Q366.0 280.2 365.0 279.2Q364.0 278.1 364.0 276.3L364.0 276.3L364.0 261.1Q364.0 257.8 362.3 255.9Q360.7 254.1 357.6 254.1L357.6 254.1Q354.3 254.1 352.4 256.2Q350.5 258.3 350.5 261.7L350.5 261.7L350.5 276.3Q350.5 278.1 349.5 279.2ZM381.5 291.1L381.5 291.1Q379.1 291.1 377.8 290.2Q376.5 289.3 376.5 287.7L376.5 287.7Q376.5 286.6 377.2 285.9Q378.0 285.2 379.2 285.2L379.2 285.2Q379.5 285.2 380.0 285.2Q380.5 285.2 380.8 285.2L380.8 285.2Q383.8 285.2 385.2 281.7L385.2 281.7L385.8 280.1L375.6 253.4Q375.2 252.2 375.2 251.3L375.2 251.3Q375.2 249.8 376.3 248.9Q377.3 247.9 378.9 247.9L378.9 247.9Q380.3 247.9 381.1 248.6Q382.0 249.3 382.4 250.8L382.4 250.8L389.8 273.4L390.0 273.4L397.4 250.8Q397.8 249.3 398.7 248.6Q399.5 247.9 400.9 247.9L400.9 247.9Q402.4 247.9 403.4 248.8Q404.4 249.8 404.4 251.2L404.4 251.2Q404.4 252.2 404.0 253.3L404.0 253.3L393.8 280.7Q391.7 286.5 388.9 288.8Q386.2 291.1 381.5 291.1ZM414.7 289.6Q413.7 290.6 412.0 290.6Q410.4 290.6 409.4 289.6Q408.4 288.6 408.4 286.8L408.4 286.8L408.4 251.7Q408.4 249.9 409.4 248.9Q410.4 247.9 412.0 247.9L412.0 247.9Q413.6 247.9 414.5 248.9Q415.5 249.9 415.5 251.7L415.5 251.7L415.5 253.9L415.7 253.9Q417.0 251.1 419.6 249.6Q422.1 248.0 425.5 248.0L425.5 248.0Q431.4 248.0 434.9 252.3Q438.3 256.6 438.3 264.1L438.3 264.1Q438.3 271.5 434.9 275.8Q431.4 280.1 425.6 280.1L425.6 280.1Q422.2 280.1 419.7 278.6Q417.1 277.1 415.8 274.4L415.8 274.4L415.7 274.4L415.7 286.8Q415.7 288.6 414.7 289.6ZM423.2 274.1L423.2 274.1Q426.8 274.1 428.8 271.4Q430.9 268.7 430.9 264.1L430.9 264.1Q430.9 259.5 428.8 256.7Q426.7 254.0 423.2 254.0L423.2 254.0Q419.8 254.0 417.8 256.8Q415.7 259.5 415.6 264.1L415.6 264.1Q415.7 268.6 417.8 271.4Q419.8 274.1 423.2 274.1ZM456.8 280.2L456.8 280.2Q449.7 280.2 445.7 276.0Q441.7 271.7 441.7 264.2L441.7 264.2Q441.7 256.7 445.7 252.3Q449.7 247.9 456.4 247.9L456.4 247.9Q462.8 247.9 466.8 251.9Q470.7 256.0 470.7 262.4L470.7 262.4Q470.7 264.0 469.8 264.9Q468.9 265.8 467.3 265.8L467.3 265.8L449.0 265.8L449.0 266.0Q449.0 269.9 451.1 272.3Q453.2 274.6 456.8 274.6L456.8 274.6Q459.2 274.6 461.0 273.6Q462.8 272.7 464.5 270.4L464.5 270.4Q465.6 269.3 467.0 269.3L467.0 269.3Q468.3 269.3 469.1 270.0Q469.9 270.8 469.9 272.1L469.9 272.1Q469.9 272.9 469.4 273.9L469.4 273.9Q467.9 276.9 464.6 278.5Q461.3 280.2 456.8 280.2ZM449.1 261.0L449.1 261.0L463.6 261.0Q463.5 257.6 461.5 255.6Q459.5 253.5 456.5 253.5Q453.4 253.5 451.3 255.6Q449.3 257.7 449.1 261.0Z "/><defs><clipPath id="satori_bc-id-0-1"><rect x="0" y="441" width="1200" height="189"/></clipPath></defs><mask id="satori_om-id-0-1"><rect x="0" y="442" width="1200" height="188" fill="#fff"/><path width="1200" height="189" fill="none" stroke="#000" stroke-width="2" d="M0,441 A0,0 0 0 1 0,441 h1200 A0,0 0 0 1 1200,441"/></mask><path width="1200" height="189" clip-path="url(#satori_bc-id-0-1)" fill="none" stroke="#dbdbdb" stroke-width="2" d="M0,441 A0,0 0 0 1 0,441 h1200 A0,0 0 0 1 1200,441"/><mask id="satori_om-id-0-1-0"><rect x="40" y="482" width="209" height="108" fill="#fff"/></mask><clipPath id="satori_cp-id-0-1-0-0"><rect x="40" y="504" width="64" height="64"/></clipPath><mask id="satori_om-id-0-1-0-0"><rect x="40" y="504" width="64" height="64" fill="#fff"/></mask><image x="40" y="504" width="64" height="64" href="data:image/svg+xml;utf8,%3Csvg  xmlns=%22http://www.w3.org/2000/svg%22 width=%2264%22 height=%2264%22 viewBox=%220 0 128 128%22%3E%3Cpath fill=%22%23224d67%22 d=%22M22.5 14.8c2.9 1.3 99 44 99 44c2.7 1.2 2.9 3.1 2 12.4c-1 10.5-1.9 37.8-40.2 42.9c-24.6 3.2-55.9-4.3-70.9-27.2C-6 58.8 11 23.4 14.8 17.7c2.4-3.5 4.8-4.2 7.7-2.9%22%3E%3C/path%3E%3Cpath fill=%22%23f0f4c3%22 d=%22M121.5 58.8c-.3-.2-92-40.8-98.9-43.9C9.6 31.5-3.8 76 27.9 96.2c33.6 21.5 78.7-10.2 93.6-37.4%22%3E%3C/path%3E%3Cpath fill=%22%23f0f4c3%22 d=%22M117.7 57c-.3-.2-86.7-38.4-93.2-41.3c-12.2 15.5-23.9 59.1 5.7 78c31.4 20.2 73.6-11.2 87.5-36.7%22%3E%3C/path%3E%3Cpath fill=%22%23cb2a42%22 d=%22M56.2 37.6L19.5 48.2c-2.5.8-4.4 2.8-5 5.3c-1.9 8.5.8 23.3 8.9 29.8c3.5 2.7 8.6 1.8 10.8-2.1L58.5 41c1.3-1.7.5-4.2-2.3-3.4m14.3 2.9s14.6 30.1 16 33s6.3 4.7 9.9 2.8c10.7-5.6 15.5-12.4 19.2-20.2c-8.9-3.9-42.4-18.8-42.4-18.8c-2.4-1.1-4 .6-2.7 3.2m-8.6 1.9C60.3 45.1 39.5 81 37.6 84.1c-1.9 3.2-.7 7.5 2.7 9.2c12.3 6.5 30.9.4 39.6-7c2.2-1.9 4.5-5.1 3.2-8.2S68.9 44.6 67.8 42.3c-1.2-2.7-4.1-2.8-5.9.1%22%3E%3C/path%3E%3Cpath fill=%22%23f0f4c3%22 d=%22M52.2 42.2c-1.4.4-10.1 3-11.1 3.4c-1.4.5-2.2 1.7-1.9 2.5c.3.9 1.7 1.1 3.1.6c.8-.3 7.1-3.9 9.5-5.2c-3.1 2.4-10.2 9.4-11.1 10.3c-1.4 1.5-1.7 3.4-.8 4.3c1 .9 2.9.5 4.3-1c1.2-1.3 8.5-12.8 9.1-13.9s.4-1.4-1.1-1m10.1 16.4c0-2.2 1.4-10.3 1.8-12.3c.4-1.6 1.5-1.8 1.8.5s1.7 9.7 1.7 11.8s-1.2 3.3-2.7 3.3c-1.4 0-2.6-1.1-2.6-3.3M79.9 49c-1.2-1.8-3.3-4.9-4.1-6.1c-.7-1.2.1-2.1 1.8-.9s4 2.9 5.4 4c1.6 1.3 1.9 3 .8 4s-2.7.8-3.9-1%22%3E%3C/path%3E%3Cellipse cx=%2287.3%22 cy=%22103.12%22 fill=%22%23cb2a42%22 rx=%223.4%22 ry=%222.3%22 transform=%22rotate(-27.098 87.298 103.126)%22%3E%3C/ellipse%3E%3Cellipse cx=%2298.89%22 cy=%22103.82%22 fill=%22%23cb2a42%22 rx=%223.4%22 ry=%222.3%22 transform=%22rotate(-30.642 98.887 103.818)%22%3E%3C/ellipse%3E%3Cellipse cx=%22102.02%22 cy=%2293.8%22 fill=%22%23cb2a42%22 rx=%223.4%22 ry=%222.3%22 transform=%22rotate(-37.16 102.017 93.797)%22%3E%3C/ellipse%3E%3Cpath fill=%22%23cb2a42%22 d=%22M57.6 30.3c-8.3-3.7-24.4-10.7-29.6-13c-3.6 2.2-9.7 11.4-11.2 21.2c-.6 3.6 1.7 5.9 5.3 4.9c0 0 33.7-9.3 35.3-9.7c1.6-.5 2-2.6.2-3.4%22%3E%3C/path%3E%3C/svg%3E" preserveAspectRatio="none" clip-path="url(#satori_cp-id-0-1-0-0)" mask="url(#satori_om-id-0-1-0-0)"/><mask id="satori_om-id-0-1-0-0-0"><rect x="40" y="504" width="0" height="64" fill="#fff"/></mask><mask id="satori_om-id-0-1-0-0-1"><rect x="40" y="504" width="0" height="64" fill="#fff"/></mask><mask id="satori_om-id-0-1-0-0-2"><rect x="40" y="504" width="0" height="64" fill="#fff"/></mask><mask id="satori_om-id-0-1-0-0-3"><rect x="40" y="504" width="0" height="64" fill="#fff"/></mask><mask id="satori_om-id-0-1-0-0-4"><rect x="40" y="504" width="0" height="64" fill="#fff"/></mask><mask id="satori_om-id-0-1-0-0-5"><rect x="40" y="504" width="0" height="64" fill="#fff"/></mask><mask id="satori_om-id-0-1-0-0-6"><rect x="40" y="504" width="0" height="64" fill="#fff"/></mask><mask id="satori_om-id-0-1-0-0-7"><rect x="40" y="504" width="0" height="64" fill="#fff"/></mask><mask id="satori_om-id-0-1-0-0-8"><rect x="40" y="504" width="0" height="64" fill="#fff"/></mask><mask id="satori_om-id-0-1-0-1"><rect x="116" y="512" width="133" height="48" fill="#fff"/></mask><path fill="#545454" d="M133.9 553.6L133.9 553.6Q126.4 553.6 122.1 549.0Q117.8 544.3 117.8 536.1L117.8 536.1Q117.8 528.0 122.1 523.3Q126.4 518.7 133.7 518.7L133.7 518.7Q138.4 518.7 142.0 520.7Q145.5 522.7 147.2 526.3L147.2 526.3Q147.9 527.7 147.9 529.0L147.9 529.0Q147.9 530.4 147.1 531.2Q146.2 532.0 144.8 532.0L144.8 532.0Q143.6 532.0 142.8 531.5Q142.0 530.9 141.5 529.7L141.5 529.7Q140.3 527.1 138.3 525.8Q136.3 524.5 133.8 524.5L133.8 524.5Q129.8 524.5 127.4 527.7Q125.0 530.8 125.0 536.1L125.0 536.1Q125.0 541.5 127.3 544.7Q129.7 547.8 133.8 547.8L133.8 547.8Q139.3 547.8 141.5 542.8L141.5 542.8Q142.1 541.6 142.8 541.1Q143.5 540.5 144.7 540.5L144.7 540.5Q146.2 540.5 147.1 541.4Q148.0 542.3 148.0 543.7L148.0 543.7Q148.0 544.8 147.4 546.1L147.4 546.1Q145.8 549.6 142.3 551.6Q138.7 553.6 133.9 553.6ZM158.6 523.8Q157.5 524.8 156.0 524.8Q154.4 524.8 153.4 523.8Q152.3 522.8 152.3 521.3L152.3 521.3Q152.3 519.8 153.4 518.8Q154.4 517.7 156.0 517.7Q157.5 517.7 158.6 518.8Q159.6 519.8 159.6 521.3L159.6 521.3Q159.6 522.8 158.6 523.8ZM158.5 552.6Q157.6 553.6 156.0 553.6Q154.4 553.6 153.5 552.6Q152.5 551.7 152.5 550.0L152.5 550.0L152.5 531.0Q152.5 529.3 153.5 528.4Q154.4 527.4 156.0 527.4Q157.6 527.4 158.5 528.4Q159.4 529.3 159.4 531.0L159.4 531.0L159.4 550.0Q159.4 551.7 158.5 552.6ZM165.8 546.6L165.8 546.6L165.8 533.1L164.4 533.1Q163.2 533.1 162.5 532.4Q161.8 531.7 161.8 530.5Q161.8 529.3 162.5 528.6Q163.2 527.9 164.4 527.9L164.4 527.9L165.8 527.9L165.8 525.1Q165.8 523.5 166.7 522.5Q167.6 521.6 169.2 521.6Q170.8 521.6 171.7 522.5Q172.6 523.5 172.6 525.1L172.6 525.1L172.6 527.9L175.0 527.9Q176.2 527.9 176.9 528.6Q177.6 529.3 177.6 530.5Q177.6 531.7 176.9 532.4Q176.2 533.1 175.0 533.1L175.0 533.1L172.6 533.1L172.6 545.1Q172.6 546.5 173.1 547.1Q173.6 547.7 174.7 547.8L174.7 547.8L175.1 547.8Q176.4 548.0 177.1 548.5Q177.7 549.1 177.7 550.3L177.7 550.3Q177.7 551.8 176.4 552.6Q175.1 553.3 172.9 553.3L172.9 553.3L172.6 553.3Q165.8 553.3 165.8 546.6ZM184.4 553.6L184.4 553.6Q182.8 553.6 181.9 552.6Q181.0 551.7 181.0 550.0L181.0 550.0L181.0 530.9Q181.0 529.3 181.9 528.3Q182.8 527.4 184.3 527.4L184.3 527.4Q185.8 527.4 186.6 528.3Q187.5 529.3 187.5 530.9L187.5 530.9L187.5 532.5L187.7 532.5Q188.2 530.2 189.6 528.9Q191 527.5 192.9 527.5L192.9 527.5Q194.3 527.5 195.0 528.2L195.0 528.2Q196.0 528.9 196.0 530.7L196.0 530.7Q196.0 532.3 195.0 533.2L195.0 533.2Q194.0 534.0 192.1 534.1L192.1 534.1Q189.8 534.1 188.8 535.3Q187.8 536.5 187.8 538.8L187.8 538.8L187.8 550.0Q187.8 551.7 186.9 552.6Q186.0 553.6 184.4 553.6ZM207.4 553.5L207.4 553.5Q203.3 553.5 200.8 551.0Q198.3 548.5 198.3 544.1L198.3 544.1L198.3 531.0Q198.3 529.3 199.3 528.4Q200.2 527.4 201.8 527.4Q203.3 527.4 204.2 528.4Q205.2 529.3 205.2 531.0L205.2 531.0L205.2 542.7Q205.2 545.2 206.4 546.5Q207.6 547.8 209.9 547.8Q212.1 547.8 213.5 546.3Q214.8 544.8 214.8 542.3L214.8 542.3L214.8 531.0Q214.8 529.3 215.8 528.4Q216.7 527.4 218.2 527.4Q219.8 527.4 220.7 528.4Q221.7 529.3 221.7 531.0L221.7 531.0L221.7 550.1Q221.7 551.8 220.8 552.7Q219.9 553.6 218.4 553.6Q216.8 553.6 215.9 552.7Q215.0 551.8 215.0 550.1L215.0 550.1L215.0 548.5L214.9 548.5Q212.9 553.5 207.4 553.5ZM236.4 553.6L236.4 553.6Q232.1 553.6 229.3 552.2Q226.5 550.9 225.5 548.6L225.5 548.6Q225.3 547.9 225.3 547.3L225.3 547.3Q225.3 546.1 226.1 545.4Q226.9 544.7 228.1 544.7L228.1 544.7Q229.6 544.7 231.0 546.2L231.0 546.2Q232.1 547.6 233.3 548.2Q234.6 548.8 236.5 548.8L236.5 548.8Q238.4 548.8 239.5 548.1Q240.6 547.3 240.6 546.1L240.6 546.1Q240.6 545.1 239.9 544.5Q239.1 543.9 237.3 543.5L237.3 543.5L233.1 542.6Q229.4 541.8 227.5 539.9Q225.7 538.1 225.7 535.3L225.7 535.3Q225.7 531.7 228.6 529.5Q231.5 527.4 236.3 527.4L236.3 527.4Q240.1 527.4 242.8 528.9Q245.5 530.4 246.2 532.6L246.2 532.6Q246.3 533.2 246.3 533.6L246.3 533.6Q246.3 534.7 245.7 535.3Q245 536.0 243.7 536.0L243.7 536.0Q242.1 536.0 241.2 534.9L241.2 534.9Q240.2 533.6 239.1 532.9Q237.9 532.2 236.2 532.2L236.2 532.2Q234.5 532.2 233.4 533.0Q232.3 533.7 232.3 534.9L232.3 534.9Q232.3 535.9 233.1 536.6Q233.9 537.2 235.8 537.6L235.8 537.6L239.9 538.5Q243.9 539.4 245.7 541.0Q247.5 542.6 247.5 545.4L247.5 545.4Q247.5 549.1 244.4 551.4Q241.3 553.6 236.4 553.6Z "/><mask id="satori_om-id-0-1-1"><rect x="951" y="524" width="209" height="36" fill="#fff"/></mask><path fill="#8e8e8e" d="M954.9 552.6Q954.5 552.9 954.0 552.9Q953.4 552.9 953.1 552.6Q952.8 552.2 952.8 551.7L952.8 551.7L952.8 532.6Q952.8 532.0 953.1 531.6Q953.5 531.3 954.1 531.3Q954.6 531.3 955.0 531.6Q955.3 532.0 955.3 532.6L955.3 532.6L955.3 540.0L955.4 540.0Q956.1 538.7 957.4 537.9Q958.7 537.2 960.3 537.2L960.3 537.2Q963.2 537.2 964.9 539.3Q966.7 541.5 966.7 545.0L966.7 545.0Q966.7 548.6 964.9 550.8Q963.2 552.9 960.2 552.9L960.2 552.9Q958.6 552.9 957.3 552.2Q956.0 551.4 955.3 550.1L955.3 550.1L955.2 550.1L955.2 551.7Q955.2 552.2 954.9 552.6ZM959.7 550.7L959.7 550.7Q961.8 550.7 962.9 549.2Q964.1 547.7 964.1 545.0L964.1 545.0Q964.1 542.5 962.9 540.9Q961.8 539.4 959.7 539.4L959.7 539.4Q957.8 539.4 956.6 541.0Q955.3 542.5 955.3 545.0L955.3 545.0Q955.3 547.6 956.6 549.1Q957.8 550.7 959.7 550.7ZM970.8 558.4L970.8 558.4Q969.9 558.4 969.4 558.0Q968.9 557.7 968.9 557.1L968.9 557.1Q968.9 556.7 969.1 556.4Q969.4 556.2 969.9 556.2L969.9 556.2Q970.1 556.2 970.3 556.2Q970.5 556.2 970.7 556.2L970.7 556.2Q972.4 556.2 973.2 553.7L973.2 553.7L973.6 552.7L968.3 539.0Q968.2 538.6 968.2 538.3L968.2 538.3Q968.2 537.8 968.6 537.5Q968.9 537.2 969.5 537.2L969.5 537.2Q970.4 537.2 970.7 538.1L970.7 538.1L974.9 550.1L975.0 550.1L979.2 538.1Q979.3 537.6 979.6 537.4Q979.9 537.2 980.4 537.2L980.4 537.2Q980.9 537.2 981.3 537.5Q981.6 537.8 981.6 538.3L981.6 538.3Q981.6 538.6 981.5 539.0L981.5 539.0L975.9 553.7Q974.9 556.4 973.8 557.4Q972.7 558.4 970.8 558.4Z M990.5 552.9L990.5 552.9Q989.9 552.9 989.5 552.5Q989.2 552.2 989.2 551.7L989.2 551.7Q989.2 551.4 989.3 551.0L989.3 551.0L996.1 532.6Q996.6 531.3 997.8 531.3L997.8 531.3Q999.0 531.3 999.5 532.6L999.5 532.6L1006.3 551.0Q1006.5 551.4 1006.5 551.7L1006.5 551.7Q1006.5 552.2 1006.1 552.5Q1005.7 552.9 1005.2 552.9L1005.2 552.9Q1004.2 552.9 1003.9 551.9L1003.9 551.9L1002.0 546.6L993.6 546.6L991.8 551.9Q991.4 552.9 990.5 552.9ZM997.8 534.7L994.4 544.4L1001.2 544.4L997.9 534.7L997.8 534.7ZM1011.1 552.5Q1010.8 552.9 1010.2 552.9Q1009.7 552.9 1009.3 552.5Q1008.9 552.2 1008.9 551.6L1008.9 551.6L1008.9 538.5Q1008.9 537.9 1009.3 537.5Q1009.6 537.2 1010.1 537.2Q1010.7 537.2 1011 537.5Q1011.3 537.9 1011.3 538.5L1011.3 538.5L1011.3 539.9L1011.4 539.9Q1011.7 538.7 1012.7 537.9Q1013.7 537.2 1014.9 537.2L1014.9 537.2Q1015.7 537.2 1016.1 537.5L1016.1 537.5Q1016.4 537.8 1016.4 538.4L1016.4 538.4Q1016.4 539.0 1016.0 539.3L1016.0 539.3Q1015.6 539.6 1014.8 539.6L1014.8 539.6Q1013.1 539.6 1012.3 540.6Q1011.5 541.6 1011.5 543.2L1011.5 543.2L1011.5 551.6Q1011.5 552.2 1011.1 552.5ZM1019.0 549.1L1019.0 549.1L1019.0 539.5L1017.7 539.5Q1017.2 539.5 1016.9 539.3Q1016.6 539.0 1016.6 538.5L1016.6 538.5Q1016.6 538.0 1016.9 537.7Q1017.2 537.4 1017.7 537.4L1017.7 537.4L1019.0 537.4L1019.0 534.8Q1019.0 534.2 1019.4 533.8Q1019.7 533.5 1020.3 533.5Q1020.8 533.5 1021.2 533.8Q1021.5 534.2 1021.5 534.8L1021.5 534.8L1021.5 537.4L1023.5 537.4Q1024.1 537.4 1024.4 537.7Q1024.7 538.0 1024.7 538.5L1024.7 538.5Q1024.7 539.0 1024.4 539.3Q1024.1 539.5 1023.5 539.5L1023.5 539.5L1021.5 539.5L1021.5 548.6Q1021.5 549.6 1021.9 550.0Q1022.3 550.5 1023.3 550.6L1023.3 550.6L1023.5 550.6Q1024.7 550.7 1024.7 551.6L1024.7 551.6Q1024.7 552.2 1024.3 552.5Q1023.9 552.8 1022.9 552.8L1022.9 552.8L1022.7 552.8Q1019.0 552.8 1019.0 549.1ZM1033.6 552.9L1033.6 552.9Q1030.2 552.9 1028.4 550.9Q1026.5 548.8 1026.5 545.1L1026.5 545.1Q1026.5 541.5 1028.4 539.3Q1030.2 537.2 1033.4 537.2L1033.4 537.2Q1036.3 537.2 1038.2 539.1Q1040.0 541.1 1040.0 544.3L1040.0 544.3Q1040.0 544.9 1039.6 545.3Q1039.3 545.7 1038.6 545.7L1038.6 545.7L1029.1 545.7Q1029.1 548.0 1030.3 549.4Q1031.5 550.7 1033.5 550.7L1033.5 550.7Q1034.9 550.7 1035.8 550.2Q1036.7 549.6 1037.6 548.3L1037.6 548.3Q1038.0 547.8 1038.6 547.8L1038.6 547.8Q1039.1 547.8 1039.4 548.1Q1039.7 548.4 1039.7 548.9L1039.7 548.9Q1039.7 549.2 1039.5 549.7L1039.5 549.7Q1038.8 551.2 1037.2 552.1Q1035.7 552.9 1033.6 552.9ZM1029.1 543.7L1029.1 543.7L1037.4 543.7Q1037.3 541.8 1036.2 540.6Q1035.1 539.4 1033.3 539.4L1033.3 539.4Q1031.6 539.4 1030.4 540.6Q1029.2 541.8 1029.1 543.7ZM1044.8 552.5Q1044.4 552.9 1043.9 552.9Q1043.3 552.9 1042.9 552.5Q1042.6 552.2 1042.6 551.6L1042.6 551.6L1042.6 538.5Q1042.6 537.9 1042.9 537.5Q1043.3 537.2 1043.8 537.2Q1044.3 537.2 1044.6 537.5Q1045.0 537.9 1045.0 538.5L1045.0 538.5L1045.0 539.9L1045.0 539.9Q1045.6 538.6 1046.7 537.9Q1047.9 537.2 1049.4 537.2L1049.4 537.2Q1050.9 537.2 1052.0 537.9Q1053.1 538.7 1053.6 540.1L1053.6 540.1L1053.7 540.1Q1054.3 538.7 1055.6 537.9Q1056.9 537.2 1058.5 537.2L1058.5 537.2Q1060.7 537.2 1062.1 538.5Q1063.4 539.9 1063.4 542.1L1063.4 542.1L1063.4 551.6Q1063.4 552.2 1063.1 552.5Q1062.7 552.9 1062.2 552.9Q1061.6 552.9 1061.2 552.5Q1060.9 552.2 1060.9 551.6L1060.9 551.6L1060.9 542.7Q1060.9 541.2 1060.1 540.3Q1059.2 539.4 1057.7 539.4Q1056.2 539.4 1055.3 540.4Q1054.3 541.4 1054.3 543.0L1054.3 543.0L1054.3 551.6Q1054.3 552.2 1053.9 552.5Q1053.6 552.9 1053.0 552.9Q1052.4 552.9 1052.1 552.5Q1051.7 552.2 1051.7 551.6L1051.7 551.6L1051.7 542.5Q1051.7 541.1 1050.9 540.2Q1050.0 539.4 1048.6 539.4L1048.6 539.4Q1047.1 539.4 1046.1 540.5Q1045.1 541.5 1045.1 543.1L1045.1 543.1L1045.1 551.6Q1045.1 552.2 1044.8 552.5Z M1075.5 552.5Q1075.1 552.9 1074.5 552.9Q1073.9 552.9 1073.6 552.5Q1073.2 552.1 1073.2 551.5L1073.2 551.5L1073.2 532.7Q1073.2 532.1 1073.6 531.7Q1073.9 531.3 1074.5 531.3Q1075.1 531.3 1075.5 531.7Q1075.9 532.1 1075.9 532.7L1075.9 532.7L1075.9 541.8L1076.0 541.8L1085.4 531.8Q1085.9 531.3 1086.5 531.3L1086.5 531.3Q1087.0 531.3 1087.3 531.7Q1087.7 532.0 1087.7 532.5L1087.7 532.5Q1087.7 533.0 1087.3 533.3L1087.3 533.3L1080.1 540.9L1088.2 550.6Q1088.5 551.1 1088.5 551.6L1088.5 551.6Q1088.5 552.2 1088.2 552.5Q1087.8 552.9 1087.3 552.9L1087.3 552.9Q1086.6 552.9 1086.1 552.2L1086.1 552.2L1078.2 542.8L1075.9 545.3L1075.9 551.5Q1075.9 552.1 1075.5 552.5ZM1096.5 552.9L1096.5 552.9Q1094.0 552.9 1092.6 551.4Q1091.2 549.9 1091.2 547.3L1091.2 547.3L1091.2 538.5Q1091.2 537.9 1091.6 537.5Q1091.9 537.2 1092.5 537.2Q1093.0 537.2 1093.4 537.5Q1093.8 537.9 1093.8 538.5L1093.8 538.5L1093.8 546.9Q1093.8 550.7 1097.3 550.7L1097.3 550.7Q1099.1 550.7 1100.2 549.5Q1101.2 548.3 1101.2 546.4L1101.2 546.4L1101.2 538.5Q1101.2 537.9 1101.6 537.5Q1102.0 537.2 1102.5 537.2Q1103.1 537.2 1103.4 537.5Q1103.8 537.9 1103.8 538.5L1103.8 538.5L1103.8 551.6Q1103.8 552.2 1103.5 552.6Q1103.1 552.9 1102.6 552.9Q1102.1 552.9 1101.7 552.6Q1101.4 552.2 1101.4 551.6L1101.4 551.6L1101.4 550.2L1101.3 550.2Q1099.9 552.9 1096.5 552.9ZM1107.9 549.1L1107.9 549.1L1107.9 539.5L1106.6 539.5Q1106.1 539.5 1105.8 539.3Q1105.5 539.0 1105.5 538.5L1105.5 538.5Q1105.5 538.0 1105.8 537.7Q1106.1 537.4 1106.6 537.4L1106.6 537.4L1107.9 537.4L1107.9 534.8Q1107.9 534.2 1108.3 533.8Q1108.6 533.5 1109.2 533.5Q1109.7 533.5 1110.1 533.8Q1110.5 534.2 1110.5 534.8L1110.5 534.8L1110.5 537.4L1112.4 537.4Q1113.0 537.4 1113.3 537.7Q1113.6 538.0 1113.6 538.5L1113.6 538.5Q1113.6 539.0 1113.3 539.3Q1113.0 539.5 1112.4 539.5L1112.4 539.5L1110.5 539.5L1110.5 548.6Q1110.5 549.6 1110.9 550.0Q1111.3 550.5 1112.2 550.6L1112.2 550.6L1112.4 550.6Q1113.6 550.7 1113.6 551.6L1113.6 551.6Q1113.6 552.2 1113.2 552.5Q1112.8 552.8 1111.8 552.8L1111.8 552.8L1111.6 552.8Q1107.9 552.8 1107.9 549.1ZM1121.4 552.9L1121.4 552.9Q1119.4 552.9 1117.9 552.1Q1116.4 551.2 1115.9 549.8L1115.9 549.8Q1115.7 549.5 1115.7 549.2L1115.7 549.2Q1115.7 548.7 1116.1 548.4Q1116.4 548.2 1116.9 548.2L1116.9 548.2Q1117.6 548.2 1118.0 548.9L1118.0 548.9Q1118.6 550.0 1119.4 550.4Q1120.2 550.8 1121.6 550.8L1121.6 550.8Q1123.1 550.8 1124.0 550.2Q1124.9 549.6 1124.9 548.6L1124.9 548.6Q1124.9 547.7 1124.4 547.3Q1123.8 546.8 1122.5 546.5L1122.5 546.5L1120.2 545.9Q1115.9 544.8 1115.9 541.6L1115.9 541.6Q1115.9 539.6 1117.5 538.4Q1119.0 537.2 1121.6 537.2L1121.6 537.2Q1123.5 537.2 1125.0 538.1Q1126.5 539.0 1126.8 540.4L1126.8 540.4Q1126.8 540.6 1126.8 540.8L1126.8 540.8Q1126.8 541.2 1126.5 541.5Q1126.3 541.8 1125.8 541.8L1125.8 541.8Q1125.0 541.8 1124.7 541.1L1124.7 541.1Q1124.2 540.1 1123.4 539.7Q1122.7 539.3 1121.5 539.3L1121.5 539.3Q1120.1 539.3 1119.2 539.9Q1118.4 540.5 1118.4 541.5L1118.4 541.5Q1118.4 543.1 1120.9 543.7L1120.9 543.7L1123.1 544.2Q1125.5 544.8 1126.5 545.8Q1127.5 546.7 1127.5 548.4L1127.5 548.4Q1127.5 550.4 1125.8 551.7Q1124.1 552.9 1121.4 552.9ZM1134.5 552.9L1134.5 552.9Q1132.3 552.9 1130.9 551.7Q1129.5 550.4 1129.5 548.4L1129.5 548.4Q1129.5 546.4 1130.9 545.2Q1132.3 544.1 1135.0 543.9L1135.0 543.9L1139.4 543.7L1139.4 542.4Q1139.4 541.0 1138.5 540.2Q1137.6 539.4 1136.0 539.4L1136.0 539.4Q1134.8 539.4 1133.9 539.9Q1133.0 540.4 1132.4 541.5L1132.4 541.5Q1132.1 542.1 1131.3 542.1L1131.3 542.1Q1130.8 542.1 1130.5 541.8Q1130.2 541.5 1130.2 541.0Q1130.2 540.5 1130.5 539.9L1130.5 539.9Q1131.2 538.7 1132.7 537.9Q1134.2 537.2 1136.1 537.2L1136.1 537.2Q1138.8 537.2 1140.3 538.5Q1141.9 539.9 1141.9 542.1L1141.9 542.1L1141.9 551.6Q1141.9 552.2 1141.6 552.6Q1141.2 552.9 1140.7 552.9L1140.7 552.9Q1140.2 552.9 1139.8 552.6Q1139.5 552.2 1139.5 551.6L1139.5 551.6L1139.5 550.0L1139.4 550.0Q1138.8 551.3 1137.4 552.1Q1136.1 552.9 1134.5 552.9ZM1135.1 550.8L1135.1 550.8Q1136.9 550.8 1138.1 549.6Q1139.4 548.5 1139.4 546.9L1139.4 546.9L1139.4 545.6L1135.3 545.9Q1133.7 546.0 1132.9 546.6Q1132.1 547.3 1132.1 548.4Q1132.1 549.4 1132.9 550.1Q1133.7 550.8 1135.1 550.8ZM1147.3 552.5Q1147.0 552.9 1146.4 552.9Q1145.9 552.9 1145.5 552.5Q1145.2 552.2 1145.2 551.6L1145.2 551.6L1145.2 538.5Q1145.2 537.9 1145.5 537.5Q1145.8 537.2 1146.4 537.2Q1146.9 537.2 1147.2 537.5Q1147.6 537.9 1147.6 538.5L1147.6 538.5L1147.6 539.9L1147.6 539.9Q1148.3 538.6 1149.5 537.9Q1150.7 537.2 1152.4 537.2L1152.4 537.2Q1154.9 537.2 1156.3 538.7Q1157.7 540.2 1157.7 542.8L1157.7 542.8L1157.7 551.6Q1157.7 552.2 1157.4 552.5Q1157.0 552.9 1156.4 552.9Q1155.9 552.9 1155.5 552.5Q1155.2 552.2 1155.2 551.6L1155.2 551.6L1155.2 543.2Q1155.2 541.4 1154.3 540.4Q1153.4 539.4 1151.7 539.4L1151.7 539.4Q1149.9 539.4 1148.8 540.6Q1147.7 541.8 1147.7 543.7L1147.7 543.7L1147.7 551.6Q1147.7 552.2 1147.3 552.5Z "/></svg>